%TF.GenerationSoftware,KiCad,Pcbnew,5.1.6-c6e7f7d~87~ubuntu18.04.1*%
%TF.CreationDate,2020-08-12T19:32:08-03:00*%
%TF.ProjectId,irStrip_v1_panel,69725374-7269-4705-9f76-315f70616e65,Rev. 1.0.1*%
%TF.SameCoordinates,Original*%
%TF.FileFunction,Profile,NP*%
%FSLAX46Y46*%
G04 Gerber Fmt 4.6, Leading zero omitted, Abs format (unit mm)*
G04 Created by KiCad (PCBNEW 5.1.6-c6e7f7d~87~ubuntu18.04.1) date 2020-08-12 19:32:08*
%MOMM*%
%LPD*%
G01*
G04 APERTURE LIST*
%TA.AperFunction,Profile*%
%ADD10C,0.050000*%
%TD*%
%TA.AperFunction,Profile*%
%ADD11C,0.150000*%
%TD*%
G04 APERTURE END LIST*
D10*
X162000000Y-149000000D02*
X162000000Y-53000000D01*
X132000000Y-53000000D02*
X132000000Y-149000000D01*
X102000000Y-149000000D02*
X102000000Y-53000000D01*
X192000000Y-149000000D02*
X192000000Y-53000000D01*
X102000000Y-149000000D02*
X192000000Y-149000000D01*
X102000000Y-53000000D02*
X192000000Y-53000000D01*
X192000000Y-71000000D02*
X102000000Y-71000000D01*
X192000000Y-86000000D02*
X102000000Y-86000000D01*
X192000000Y-101000000D02*
X102000000Y-101000000D01*
X192000000Y-116000000D02*
X102000000Y-116000000D01*
X192000000Y-131000000D02*
X102000000Y-131000000D01*
X192000000Y-146000000D02*
X102000000Y-146000000D01*
X102000000Y-56000000D02*
X192000000Y-56000000D01*
D11*
X189600000Y-138500000D02*
G75*
G03*
X189600000Y-138500000I-1600000J0D01*
G01*
X167600000Y-138500000D02*
G75*
G03*
X167600000Y-138500000I-1600000J0D01*
G01*
X189600000Y-123500000D02*
G75*
G03*
X189600000Y-123500000I-1600000J0D01*
G01*
X167600000Y-123500000D02*
G75*
G03*
X167600000Y-123500000I-1600000J0D01*
G01*
X189600000Y-108500000D02*
G75*
G03*
X189600000Y-108500000I-1600000J0D01*
G01*
X167600000Y-108500000D02*
G75*
G03*
X167600000Y-108500000I-1600000J0D01*
G01*
X167600000Y-93500000D02*
G75*
G03*
X167600000Y-93500000I-1600000J0D01*
G01*
X189600000Y-93500000D02*
G75*
G03*
X189600000Y-93500000I-1600000J0D01*
G01*
X189600000Y-63500000D02*
G75*
G03*
X189600000Y-63500000I-1600000J0D01*
G01*
X167600000Y-63500000D02*
G75*
G03*
X167600000Y-63500000I-1600000J0D01*
G01*
X189600000Y-78500000D02*
G75*
G03*
X189600000Y-78500000I-1600000J0D01*
G01*
X167600000Y-78500000D02*
G75*
G03*
X167600000Y-78500000I-1600000J0D01*
G01*
X159600000Y-138500000D02*
G75*
G03*
X159600000Y-138500000I-1600000J0D01*
G01*
X137600000Y-138500000D02*
G75*
G03*
X137600000Y-138500000I-1600000J0D01*
G01*
X159600000Y-123500000D02*
G75*
G03*
X159600000Y-123500000I-1600000J0D01*
G01*
X137600000Y-123500000D02*
G75*
G03*
X137600000Y-123500000I-1600000J0D01*
G01*
X159600000Y-108500000D02*
G75*
G03*
X159600000Y-108500000I-1600000J0D01*
G01*
X137600000Y-108500000D02*
G75*
G03*
X137600000Y-108500000I-1600000J0D01*
G01*
X137600000Y-93500000D02*
G75*
G03*
X137600000Y-93500000I-1600000J0D01*
G01*
X159600000Y-93500000D02*
G75*
G03*
X159600000Y-93500000I-1600000J0D01*
G01*
X159600000Y-63500000D02*
G75*
G03*
X159600000Y-63500000I-1600000J0D01*
G01*
X137600000Y-63500000D02*
G75*
G03*
X137600000Y-63500000I-1600000J0D01*
G01*
X159600000Y-78500000D02*
G75*
G03*
X159600000Y-78500000I-1600000J0D01*
G01*
X137600000Y-78500000D02*
G75*
G03*
X137600000Y-78500000I-1600000J0D01*
G01*
X129600000Y-138500000D02*
G75*
G03*
X129600000Y-138500000I-1600000J0D01*
G01*
X107600000Y-138500000D02*
G75*
G03*
X107600000Y-138500000I-1600000J0D01*
G01*
X129600000Y-123500000D02*
G75*
G03*
X129600000Y-123500000I-1600000J0D01*
G01*
X107600000Y-123500000D02*
G75*
G03*
X107600000Y-123500000I-1600000J0D01*
G01*
X129600000Y-108500000D02*
G75*
G03*
X129600000Y-108500000I-1600000J0D01*
G01*
X107600000Y-108500000D02*
G75*
G03*
X107600000Y-108500000I-1600000J0D01*
G01*
X129600000Y-93500000D02*
G75*
G03*
X129600000Y-93500000I-1600000J0D01*
G01*
X107600000Y-93500000D02*
G75*
G03*
X107600000Y-93500000I-1600000J0D01*
G01*
X129600000Y-78500000D02*
G75*
G03*
X129600000Y-78500000I-1600000J0D01*
G01*
X107600000Y-78500000D02*
G75*
G03*
X107600000Y-78500000I-1600000J0D01*
G01*
X107600000Y-63500000D02*
G75*
G03*
X107600000Y-63500000I-1600000J0D01*
G01*
X129600000Y-63500000D02*
G75*
G03*
X129600000Y-63500000I-1600000J0D01*
G01*
M02*
