M48
; DRILL file {KiCad 5.1.6-c6e7f7d~87~ubuntu18.04.1} date Wed Aug 12 19:32:14 2020
; FORMAT={-:-/ absolute / metric / decimal}
; #@! TF.CreationDate,2020-08-12T19:32:14-03:00
; #@! TF.GenerationSoftware,Kicad,Pcbnew,5.1.6-c6e7f7d~87~ubuntu18.04.1
; #@! TF.FileFunction,Plated,1,2,PTH
FMAT,2
METRIC
T1C0.400
T2C0.900
T3C1.000
%
G90
G05
T1
X111.9Y-68.0
X111.9Y-83.0
X111.9Y-98.0
X111.9Y-113.0
X111.9Y-128.0
X111.9Y-143.0
X113.6Y-62.1
X113.6Y-77.1
X113.6Y-92.1
X113.6Y-107.1
X113.6Y-122.1
X113.6Y-137.1
X115.3Y-59.4
X115.3Y-74.4
X115.3Y-89.4
X115.3Y-104.4
X115.3Y-119.4
X115.3Y-134.4
X115.5Y-70.0
X115.5Y-85.0
X115.5Y-100.0
X115.5Y-115.0
X115.5Y-130.0
X115.5Y-145.0
X116.65Y-61.0
X116.65Y-67.8
X116.65Y-76.0
X116.65Y-82.8
X116.65Y-91.0
X116.65Y-97.8
X116.65Y-106.0
X116.65Y-112.8
X116.65Y-121.0
X116.65Y-127.8
X116.65Y-136.0
X116.65Y-142.8
X117.0Y-65.1
X117.0Y-80.1
X117.0Y-95.1
X117.0Y-110.1
X117.0Y-125.1
X117.0Y-140.1
X118.5Y-70.0
X118.5Y-85.0
X118.5Y-100.0
X118.5Y-115.0
X118.5Y-130.0
X118.5Y-145.0
X118.7Y-59.4
X118.7Y-60.7
X118.7Y-66.1
X118.7Y-74.4
X118.7Y-75.7
X118.7Y-81.1
X118.7Y-89.4
X118.7Y-90.7
X118.7Y-96.1
X118.7Y-104.4
X118.7Y-105.7
X118.7Y-111.1
X118.7Y-119.4
X118.7Y-120.7
X118.7Y-126.1
X118.7Y-134.4
X118.7Y-135.7
X118.7Y-141.1
X122.1Y-59.4
X122.1Y-74.4
X122.1Y-89.4
X122.1Y-104.4
X122.1Y-119.4
X122.1Y-134.4
X123.3Y-63.15
X123.3Y-78.15
X123.3Y-93.15
X123.3Y-108.15
X123.3Y-123.15
X123.3Y-138.15
X126.0Y-68.0
X126.0Y-83.0
X126.0Y-98.0
X126.0Y-113.0
X126.0Y-128.0
X126.0Y-143.0
X130.0Y-59.0
X130.0Y-68.0
X130.0Y-74.0
X130.0Y-83.0
X130.0Y-89.0
X130.0Y-98.0
X130.0Y-104.0
X130.0Y-113.0
X130.0Y-119.0
X130.0Y-128.0
X130.0Y-134.0
X130.0Y-143.0
X141.9Y-68.0
X141.9Y-83.0
X141.9Y-98.0
X141.9Y-113.0
X141.9Y-128.0
X141.9Y-143.0
X143.6Y-62.1
X143.6Y-77.1
X143.6Y-92.1
X143.6Y-107.1
X143.6Y-122.1
X143.6Y-137.1
X145.3Y-59.4
X145.3Y-74.4
X145.3Y-89.4
X145.3Y-104.4
X145.3Y-119.4
X145.3Y-134.4
X145.5Y-70.0
X145.5Y-85.0
X145.5Y-100.0
X145.5Y-115.0
X145.5Y-130.0
X145.5Y-145.0
X146.65Y-61.0
X146.65Y-67.8
X146.65Y-76.0
X146.65Y-82.8
X146.65Y-91.0
X146.65Y-97.8
X146.65Y-106.0
X146.65Y-112.8
X146.65Y-121.0
X146.65Y-127.8
X146.65Y-136.0
X146.65Y-142.8
X147.0Y-65.1
X147.0Y-80.1
X147.0Y-95.1
X147.0Y-110.1
X147.0Y-125.1
X147.0Y-140.1
X148.5Y-70.0
X148.5Y-85.0
X148.5Y-100.0
X148.5Y-115.0
X148.5Y-130.0
X148.5Y-145.0
X148.7Y-59.4
X148.7Y-60.7
X148.7Y-66.1
X148.7Y-74.4
X148.7Y-75.7
X148.7Y-81.1
X148.7Y-89.4
X148.7Y-90.7
X148.7Y-96.1
X148.7Y-104.4
X148.7Y-105.7
X148.7Y-111.1
X148.7Y-119.4
X148.7Y-120.7
X148.7Y-126.1
X148.7Y-134.4
X148.7Y-135.7
X148.7Y-141.1
X152.1Y-59.4
X152.1Y-74.4
X152.1Y-89.4
X152.1Y-104.4
X152.1Y-119.4
X152.1Y-134.4
X153.3Y-63.15
X153.3Y-78.15
X153.3Y-93.15
X153.3Y-108.15
X153.3Y-123.15
X153.3Y-138.15
X156.0Y-68.0
X156.0Y-83.0
X156.0Y-98.0
X156.0Y-113.0
X156.0Y-128.0
X156.0Y-143.0
X160.0Y-59.0
X160.0Y-68.0
X160.0Y-74.0
X160.0Y-83.0
X160.0Y-89.0
X160.0Y-98.0
X160.0Y-104.0
X160.0Y-113.0
X160.0Y-119.0
X160.0Y-128.0
X160.0Y-134.0
X160.0Y-143.0
X171.9Y-68.0
X171.9Y-83.0
X171.9Y-98.0
X171.9Y-113.0
X171.9Y-128.0
X171.9Y-143.0
X173.6Y-62.1
X173.6Y-77.1
X173.6Y-92.1
X173.6Y-107.1
X173.6Y-122.1
X173.6Y-137.1
X175.3Y-59.4
X175.3Y-74.4
X175.3Y-89.4
X175.3Y-104.4
X175.3Y-119.4
X175.3Y-134.4
X175.5Y-70.0
X175.5Y-85.0
X175.5Y-100.0
X175.5Y-115.0
X175.5Y-130.0
X175.5Y-145.0
X176.65Y-61.0
X176.65Y-67.8
X176.65Y-76.0
X176.65Y-82.8
X176.65Y-91.0
X176.65Y-97.8
X176.65Y-106.0
X176.65Y-112.8
X176.65Y-121.0
X176.65Y-127.8
X176.65Y-136.0
X176.65Y-142.8
X177.0Y-65.1
X177.0Y-80.1
X177.0Y-95.1
X177.0Y-110.1
X177.0Y-125.1
X177.0Y-140.1
X178.5Y-70.0
X178.5Y-85.0
X178.5Y-100.0
X178.5Y-115.0
X178.5Y-130.0
X178.5Y-145.0
X178.7Y-59.4
X178.7Y-60.7
X178.7Y-66.1
X178.7Y-74.4
X178.7Y-75.7
X178.7Y-81.1
X178.7Y-89.4
X178.7Y-90.7
X178.7Y-96.1
X178.7Y-104.4
X178.7Y-105.7
X178.7Y-111.1
X178.7Y-119.4
X178.7Y-120.7
X178.7Y-126.1
X178.7Y-134.4
X178.7Y-135.7
X178.7Y-141.1
X182.1Y-59.4
X182.1Y-74.4
X182.1Y-89.4
X182.1Y-104.4
X182.1Y-119.4
X182.1Y-134.4
X183.3Y-63.15
X183.3Y-78.15
X183.3Y-93.15
X183.3Y-108.15
X183.3Y-123.15
X183.3Y-138.15
X186.0Y-68.0
X186.0Y-83.0
X186.0Y-98.0
X186.0Y-113.0
X186.0Y-128.0
X186.0Y-143.0
X190.0Y-59.0
X190.0Y-68.0
X190.0Y-74.0
X190.0Y-83.0
X190.0Y-89.0
X190.0Y-98.0
X190.0Y-104.0
X190.0Y-113.0
X190.0Y-119.0
X190.0Y-128.0
X190.0Y-134.0
X190.0Y-143.0
T2
X145.74Y-123.5
X148.28Y-123.5
X145.74Y-108.5
X148.28Y-108.5
X115.74Y-108.5
X118.28Y-108.5
X115.74Y-138.5
X118.28Y-138.5
X115.74Y-93.5
X118.28Y-93.5
X115.74Y-78.5
X118.28Y-78.5
X175.74Y-78.5
X178.28Y-78.5
X175.74Y-63.5
X178.28Y-63.5
X115.74Y-63.5
X118.28Y-63.5
X175.74Y-138.5
X178.28Y-138.5
X175.74Y-108.5
X178.28Y-108.5
X175.74Y-93.5
X178.28Y-93.5
X145.74Y-63.5
X148.28Y-63.5
X115.74Y-123.5
X118.28Y-123.5
X175.74Y-123.5
X178.28Y-123.5
X145.74Y-93.5
X148.28Y-93.5
X145.74Y-78.5
X148.28Y-78.5
X145.74Y-138.5
X148.28Y-138.5
T3
X171.9Y-90.96
X171.9Y-93.5
X171.9Y-96.04
X141.9Y-105.96
X141.9Y-108.5
X141.9Y-111.04
X111.9Y-75.96
X111.9Y-78.5
X111.9Y-81.04
X141.9Y-135.96
X141.9Y-138.5
X141.9Y-141.04
X171.9Y-105.96
X171.9Y-108.5
X171.9Y-111.04
X111.9Y-120.96
X111.9Y-123.5
X111.9Y-126.04
X141.9Y-90.96
X141.9Y-93.5
X141.9Y-96.04
X111.9Y-90.96
X111.9Y-93.5
X111.9Y-96.04
X141.9Y-60.96
X141.9Y-63.5
X141.9Y-66.04
X171.9Y-75.96
X171.9Y-78.5
X171.9Y-81.04
X111.9Y-105.96
X111.9Y-108.5
X111.9Y-111.04
X111.9Y-60.96
X111.9Y-63.5
X111.9Y-66.04
X171.9Y-60.96
X171.9Y-63.5
X171.9Y-66.04
X141.9Y-75.96
X141.9Y-78.5
X141.9Y-81.04
X171.9Y-120.96
X171.9Y-123.5
X171.9Y-126.04
X141.9Y-120.96
X141.9Y-123.5
X141.9Y-126.04
X171.9Y-135.96
X171.9Y-138.5
X171.9Y-141.04
X111.9Y-135.96
X111.9Y-138.5
X111.9Y-141.04
T0
M30
