%TF.GenerationSoftware,KiCad,Pcbnew,5.1.6-c6e7f7d~87~ubuntu18.04.1*%
%TF.CreationDate,2020-08-12T19:32:08-03:00*%
%TF.ProjectId,irStrip_v1_panel,69725374-7269-4705-9f76-315f70616e65,Rev. 1.0.1*%
%TF.SameCoordinates,Original*%
%TF.FileFunction,Paste,Bot*%
%TF.FilePolarity,Positive*%
%FSLAX46Y46*%
G04 Gerber Fmt 4.6, Leading zero omitted, Abs format (unit mm)*
G04 Created by KiCad (PCBNEW 5.1.6-c6e7f7d~87~ubuntu18.04.1) date 2020-08-12 19:32:08*
%MOMM*%
%LPD*%
G01*
G04 APERTURE LIST*
%ADD10R,0.900000X0.800000*%
G04 APERTURE END LIST*
D10*
%TO.C,Q1*%
X183300000Y-136250000D03*
X183300000Y-138150000D03*
X181300000Y-137200000D03*
%TD*%
%TO.C,C1*%
G36*
G01*
X182437500Y-140156250D02*
X182437500Y-139643750D01*
G75*
G02*
X182656250Y-139425000I218750J0D01*
G01*
X183093750Y-139425000D01*
G75*
G02*
X183312500Y-139643750I0J-218750D01*
G01*
X183312500Y-140156250D01*
G75*
G02*
X183093750Y-140375000I-218750J0D01*
G01*
X182656250Y-140375000D01*
G75*
G02*
X182437500Y-140156250I0J218750D01*
G01*
G37*
G36*
G01*
X180862500Y-140156250D02*
X180862500Y-139643750D01*
G75*
G02*
X181081250Y-139425000I218750J0D01*
G01*
X181518750Y-139425000D01*
G75*
G02*
X181737500Y-139643750I0J-218750D01*
G01*
X181737500Y-140156250D01*
G75*
G02*
X181518750Y-140375000I-218750J0D01*
G01*
X181081250Y-140375000D01*
G75*
G02*
X180862500Y-140156250I0J218750D01*
G01*
G37*
%TD*%
%TO.C,C2*%
G36*
G01*
X180862500Y-141756250D02*
X180862500Y-141243750D01*
G75*
G02*
X181081250Y-141025000I218750J0D01*
G01*
X181518750Y-141025000D01*
G75*
G02*
X181737500Y-141243750I0J-218750D01*
G01*
X181737500Y-141756250D01*
G75*
G02*
X181518750Y-141975000I-218750J0D01*
G01*
X181081250Y-141975000D01*
G75*
G02*
X180862500Y-141756250I0J218750D01*
G01*
G37*
G36*
G01*
X182437500Y-141756250D02*
X182437500Y-141243750D01*
G75*
G02*
X182656250Y-141025000I218750J0D01*
G01*
X183093750Y-141025000D01*
G75*
G02*
X183312500Y-141243750I0J-218750D01*
G01*
X183312500Y-141756250D01*
G75*
G02*
X183093750Y-141975000I-218750J0D01*
G01*
X182656250Y-141975000D01*
G75*
G02*
X182437500Y-141756250I0J218750D01*
G01*
G37*
%TD*%
%TO.C,R1*%
G36*
G01*
X177487500Y-132756250D02*
X177487500Y-132243750D01*
G75*
G02*
X177706250Y-132025000I218750J0D01*
G01*
X178143750Y-132025000D01*
G75*
G02*
X178362500Y-132243750I0J-218750D01*
G01*
X178362500Y-132756250D01*
G75*
G02*
X178143750Y-132975000I-218750J0D01*
G01*
X177706250Y-132975000D01*
G75*
G02*
X177487500Y-132756250I0J218750D01*
G01*
G37*
G36*
G01*
X179062500Y-132756250D02*
X179062500Y-132243750D01*
G75*
G02*
X179281250Y-132025000I218750J0D01*
G01*
X179718750Y-132025000D01*
G75*
G02*
X179937500Y-132243750I0J-218750D01*
G01*
X179937500Y-132756250D01*
G75*
G02*
X179718750Y-132975000I-218750J0D01*
G01*
X179281250Y-132975000D01*
G75*
G02*
X179062500Y-132756250I0J218750D01*
G01*
G37*
%TD*%
%TO.C,R2*%
G36*
G01*
X175662500Y-132756250D02*
X175662500Y-132243750D01*
G75*
G02*
X175881250Y-132025000I218750J0D01*
G01*
X176318750Y-132025000D01*
G75*
G02*
X176537500Y-132243750I0J-218750D01*
G01*
X176537500Y-132756250D01*
G75*
G02*
X176318750Y-132975000I-218750J0D01*
G01*
X175881250Y-132975000D01*
G75*
G02*
X175662500Y-132756250I0J218750D01*
G01*
G37*
G36*
G01*
X174087500Y-132756250D02*
X174087500Y-132243750D01*
G75*
G02*
X174306250Y-132025000I218750J0D01*
G01*
X174743750Y-132025000D01*
G75*
G02*
X174962500Y-132243750I0J-218750D01*
G01*
X174962500Y-132756250D01*
G75*
G02*
X174743750Y-132975000I-218750J0D01*
G01*
X174306250Y-132975000D01*
G75*
G02*
X174087500Y-132756250I0J218750D01*
G01*
G37*
%TD*%
%TO.C,R1*%
G36*
G01*
X177487500Y-117756250D02*
X177487500Y-117243750D01*
G75*
G02*
X177706250Y-117025000I218750J0D01*
G01*
X178143750Y-117025000D01*
G75*
G02*
X178362500Y-117243750I0J-218750D01*
G01*
X178362500Y-117756250D01*
G75*
G02*
X178143750Y-117975000I-218750J0D01*
G01*
X177706250Y-117975000D01*
G75*
G02*
X177487500Y-117756250I0J218750D01*
G01*
G37*
G36*
G01*
X179062500Y-117756250D02*
X179062500Y-117243750D01*
G75*
G02*
X179281250Y-117025000I218750J0D01*
G01*
X179718750Y-117025000D01*
G75*
G02*
X179937500Y-117243750I0J-218750D01*
G01*
X179937500Y-117756250D01*
G75*
G02*
X179718750Y-117975000I-218750J0D01*
G01*
X179281250Y-117975000D01*
G75*
G02*
X179062500Y-117756250I0J218750D01*
G01*
G37*
%TD*%
%TO.C,C2*%
G36*
G01*
X180862500Y-126756250D02*
X180862500Y-126243750D01*
G75*
G02*
X181081250Y-126025000I218750J0D01*
G01*
X181518750Y-126025000D01*
G75*
G02*
X181737500Y-126243750I0J-218750D01*
G01*
X181737500Y-126756250D01*
G75*
G02*
X181518750Y-126975000I-218750J0D01*
G01*
X181081250Y-126975000D01*
G75*
G02*
X180862500Y-126756250I0J218750D01*
G01*
G37*
G36*
G01*
X182437500Y-126756250D02*
X182437500Y-126243750D01*
G75*
G02*
X182656250Y-126025000I218750J0D01*
G01*
X183093750Y-126025000D01*
G75*
G02*
X183312500Y-126243750I0J-218750D01*
G01*
X183312500Y-126756250D01*
G75*
G02*
X183093750Y-126975000I-218750J0D01*
G01*
X182656250Y-126975000D01*
G75*
G02*
X182437500Y-126756250I0J218750D01*
G01*
G37*
%TD*%
%TO.C,C1*%
G36*
G01*
X182437500Y-125156250D02*
X182437500Y-124643750D01*
G75*
G02*
X182656250Y-124425000I218750J0D01*
G01*
X183093750Y-124425000D01*
G75*
G02*
X183312500Y-124643750I0J-218750D01*
G01*
X183312500Y-125156250D01*
G75*
G02*
X183093750Y-125375000I-218750J0D01*
G01*
X182656250Y-125375000D01*
G75*
G02*
X182437500Y-125156250I0J218750D01*
G01*
G37*
G36*
G01*
X180862500Y-125156250D02*
X180862500Y-124643750D01*
G75*
G02*
X181081250Y-124425000I218750J0D01*
G01*
X181518750Y-124425000D01*
G75*
G02*
X181737500Y-124643750I0J-218750D01*
G01*
X181737500Y-125156250D01*
G75*
G02*
X181518750Y-125375000I-218750J0D01*
G01*
X181081250Y-125375000D01*
G75*
G02*
X180862500Y-125156250I0J218750D01*
G01*
G37*
%TD*%
%TO.C,R2*%
G36*
G01*
X175662500Y-117756250D02*
X175662500Y-117243750D01*
G75*
G02*
X175881250Y-117025000I218750J0D01*
G01*
X176318750Y-117025000D01*
G75*
G02*
X176537500Y-117243750I0J-218750D01*
G01*
X176537500Y-117756250D01*
G75*
G02*
X176318750Y-117975000I-218750J0D01*
G01*
X175881250Y-117975000D01*
G75*
G02*
X175662500Y-117756250I0J218750D01*
G01*
G37*
G36*
G01*
X174087500Y-117756250D02*
X174087500Y-117243750D01*
G75*
G02*
X174306250Y-117025000I218750J0D01*
G01*
X174743750Y-117025000D01*
G75*
G02*
X174962500Y-117243750I0J-218750D01*
G01*
X174962500Y-117756250D01*
G75*
G02*
X174743750Y-117975000I-218750J0D01*
G01*
X174306250Y-117975000D01*
G75*
G02*
X174087500Y-117756250I0J218750D01*
G01*
G37*
%TD*%
%TO.C,Q1*%
X183300000Y-121250000D03*
X183300000Y-123150000D03*
X181300000Y-122200000D03*
%TD*%
%TO.C,C1*%
G36*
G01*
X182437500Y-110156250D02*
X182437500Y-109643750D01*
G75*
G02*
X182656250Y-109425000I218750J0D01*
G01*
X183093750Y-109425000D01*
G75*
G02*
X183312500Y-109643750I0J-218750D01*
G01*
X183312500Y-110156250D01*
G75*
G02*
X183093750Y-110375000I-218750J0D01*
G01*
X182656250Y-110375000D01*
G75*
G02*
X182437500Y-110156250I0J218750D01*
G01*
G37*
G36*
G01*
X180862500Y-110156250D02*
X180862500Y-109643750D01*
G75*
G02*
X181081250Y-109425000I218750J0D01*
G01*
X181518750Y-109425000D01*
G75*
G02*
X181737500Y-109643750I0J-218750D01*
G01*
X181737500Y-110156250D01*
G75*
G02*
X181518750Y-110375000I-218750J0D01*
G01*
X181081250Y-110375000D01*
G75*
G02*
X180862500Y-110156250I0J218750D01*
G01*
G37*
%TD*%
%TO.C,C2*%
G36*
G01*
X180862500Y-111756250D02*
X180862500Y-111243750D01*
G75*
G02*
X181081250Y-111025000I218750J0D01*
G01*
X181518750Y-111025000D01*
G75*
G02*
X181737500Y-111243750I0J-218750D01*
G01*
X181737500Y-111756250D01*
G75*
G02*
X181518750Y-111975000I-218750J0D01*
G01*
X181081250Y-111975000D01*
G75*
G02*
X180862500Y-111756250I0J218750D01*
G01*
G37*
G36*
G01*
X182437500Y-111756250D02*
X182437500Y-111243750D01*
G75*
G02*
X182656250Y-111025000I218750J0D01*
G01*
X183093750Y-111025000D01*
G75*
G02*
X183312500Y-111243750I0J-218750D01*
G01*
X183312500Y-111756250D01*
G75*
G02*
X183093750Y-111975000I-218750J0D01*
G01*
X182656250Y-111975000D01*
G75*
G02*
X182437500Y-111756250I0J218750D01*
G01*
G37*
%TD*%
%TO.C,R1*%
G36*
G01*
X177487500Y-102756250D02*
X177487500Y-102243750D01*
G75*
G02*
X177706250Y-102025000I218750J0D01*
G01*
X178143750Y-102025000D01*
G75*
G02*
X178362500Y-102243750I0J-218750D01*
G01*
X178362500Y-102756250D01*
G75*
G02*
X178143750Y-102975000I-218750J0D01*
G01*
X177706250Y-102975000D01*
G75*
G02*
X177487500Y-102756250I0J218750D01*
G01*
G37*
G36*
G01*
X179062500Y-102756250D02*
X179062500Y-102243750D01*
G75*
G02*
X179281250Y-102025000I218750J0D01*
G01*
X179718750Y-102025000D01*
G75*
G02*
X179937500Y-102243750I0J-218750D01*
G01*
X179937500Y-102756250D01*
G75*
G02*
X179718750Y-102975000I-218750J0D01*
G01*
X179281250Y-102975000D01*
G75*
G02*
X179062500Y-102756250I0J218750D01*
G01*
G37*
%TD*%
%TO.C,R2*%
G36*
G01*
X175662500Y-102756250D02*
X175662500Y-102243750D01*
G75*
G02*
X175881250Y-102025000I218750J0D01*
G01*
X176318750Y-102025000D01*
G75*
G02*
X176537500Y-102243750I0J-218750D01*
G01*
X176537500Y-102756250D01*
G75*
G02*
X176318750Y-102975000I-218750J0D01*
G01*
X175881250Y-102975000D01*
G75*
G02*
X175662500Y-102756250I0J218750D01*
G01*
G37*
G36*
G01*
X174087500Y-102756250D02*
X174087500Y-102243750D01*
G75*
G02*
X174306250Y-102025000I218750J0D01*
G01*
X174743750Y-102025000D01*
G75*
G02*
X174962500Y-102243750I0J-218750D01*
G01*
X174962500Y-102756250D01*
G75*
G02*
X174743750Y-102975000I-218750J0D01*
G01*
X174306250Y-102975000D01*
G75*
G02*
X174087500Y-102756250I0J218750D01*
G01*
G37*
%TD*%
%TO.C,Q1*%
X183300000Y-106250000D03*
X183300000Y-108150000D03*
X181300000Y-107200000D03*
%TD*%
%TO.C,Q1*%
X183300000Y-91250000D03*
X183300000Y-93150000D03*
X181300000Y-92200000D03*
%TD*%
%TO.C,R1*%
G36*
G01*
X177487500Y-87756250D02*
X177487500Y-87243750D01*
G75*
G02*
X177706250Y-87025000I218750J0D01*
G01*
X178143750Y-87025000D01*
G75*
G02*
X178362500Y-87243750I0J-218750D01*
G01*
X178362500Y-87756250D01*
G75*
G02*
X178143750Y-87975000I-218750J0D01*
G01*
X177706250Y-87975000D01*
G75*
G02*
X177487500Y-87756250I0J218750D01*
G01*
G37*
G36*
G01*
X179062500Y-87756250D02*
X179062500Y-87243750D01*
G75*
G02*
X179281250Y-87025000I218750J0D01*
G01*
X179718750Y-87025000D01*
G75*
G02*
X179937500Y-87243750I0J-218750D01*
G01*
X179937500Y-87756250D01*
G75*
G02*
X179718750Y-87975000I-218750J0D01*
G01*
X179281250Y-87975000D01*
G75*
G02*
X179062500Y-87756250I0J218750D01*
G01*
G37*
%TD*%
%TO.C,C1*%
G36*
G01*
X182437500Y-95156250D02*
X182437500Y-94643750D01*
G75*
G02*
X182656250Y-94425000I218750J0D01*
G01*
X183093750Y-94425000D01*
G75*
G02*
X183312500Y-94643750I0J-218750D01*
G01*
X183312500Y-95156250D01*
G75*
G02*
X183093750Y-95375000I-218750J0D01*
G01*
X182656250Y-95375000D01*
G75*
G02*
X182437500Y-95156250I0J218750D01*
G01*
G37*
G36*
G01*
X180862500Y-95156250D02*
X180862500Y-94643750D01*
G75*
G02*
X181081250Y-94425000I218750J0D01*
G01*
X181518750Y-94425000D01*
G75*
G02*
X181737500Y-94643750I0J-218750D01*
G01*
X181737500Y-95156250D01*
G75*
G02*
X181518750Y-95375000I-218750J0D01*
G01*
X181081250Y-95375000D01*
G75*
G02*
X180862500Y-95156250I0J218750D01*
G01*
G37*
%TD*%
%TO.C,R2*%
G36*
G01*
X175662500Y-87756250D02*
X175662500Y-87243750D01*
G75*
G02*
X175881250Y-87025000I218750J0D01*
G01*
X176318750Y-87025000D01*
G75*
G02*
X176537500Y-87243750I0J-218750D01*
G01*
X176537500Y-87756250D01*
G75*
G02*
X176318750Y-87975000I-218750J0D01*
G01*
X175881250Y-87975000D01*
G75*
G02*
X175662500Y-87756250I0J218750D01*
G01*
G37*
G36*
G01*
X174087500Y-87756250D02*
X174087500Y-87243750D01*
G75*
G02*
X174306250Y-87025000I218750J0D01*
G01*
X174743750Y-87025000D01*
G75*
G02*
X174962500Y-87243750I0J-218750D01*
G01*
X174962500Y-87756250D01*
G75*
G02*
X174743750Y-87975000I-218750J0D01*
G01*
X174306250Y-87975000D01*
G75*
G02*
X174087500Y-87756250I0J218750D01*
G01*
G37*
%TD*%
%TO.C,C2*%
G36*
G01*
X180862500Y-96756250D02*
X180862500Y-96243750D01*
G75*
G02*
X181081250Y-96025000I218750J0D01*
G01*
X181518750Y-96025000D01*
G75*
G02*
X181737500Y-96243750I0J-218750D01*
G01*
X181737500Y-96756250D01*
G75*
G02*
X181518750Y-96975000I-218750J0D01*
G01*
X181081250Y-96975000D01*
G75*
G02*
X180862500Y-96756250I0J218750D01*
G01*
G37*
G36*
G01*
X182437500Y-96756250D02*
X182437500Y-96243750D01*
G75*
G02*
X182656250Y-96025000I218750J0D01*
G01*
X183093750Y-96025000D01*
G75*
G02*
X183312500Y-96243750I0J-218750D01*
G01*
X183312500Y-96756250D01*
G75*
G02*
X183093750Y-96975000I-218750J0D01*
G01*
X182656250Y-96975000D01*
G75*
G02*
X182437500Y-96756250I0J218750D01*
G01*
G37*
%TD*%
%TO.C,Q1*%
X183300000Y-76250000D03*
X183300000Y-78150000D03*
X181300000Y-77200000D03*
%TD*%
%TO.C,C2*%
G36*
G01*
X180862500Y-81756250D02*
X180862500Y-81243750D01*
G75*
G02*
X181081250Y-81025000I218750J0D01*
G01*
X181518750Y-81025000D01*
G75*
G02*
X181737500Y-81243750I0J-218750D01*
G01*
X181737500Y-81756250D01*
G75*
G02*
X181518750Y-81975000I-218750J0D01*
G01*
X181081250Y-81975000D01*
G75*
G02*
X180862500Y-81756250I0J218750D01*
G01*
G37*
G36*
G01*
X182437500Y-81756250D02*
X182437500Y-81243750D01*
G75*
G02*
X182656250Y-81025000I218750J0D01*
G01*
X183093750Y-81025000D01*
G75*
G02*
X183312500Y-81243750I0J-218750D01*
G01*
X183312500Y-81756250D01*
G75*
G02*
X183093750Y-81975000I-218750J0D01*
G01*
X182656250Y-81975000D01*
G75*
G02*
X182437500Y-81756250I0J218750D01*
G01*
G37*
%TD*%
%TO.C,R2*%
G36*
G01*
X175662500Y-72756250D02*
X175662500Y-72243750D01*
G75*
G02*
X175881250Y-72025000I218750J0D01*
G01*
X176318750Y-72025000D01*
G75*
G02*
X176537500Y-72243750I0J-218750D01*
G01*
X176537500Y-72756250D01*
G75*
G02*
X176318750Y-72975000I-218750J0D01*
G01*
X175881250Y-72975000D01*
G75*
G02*
X175662500Y-72756250I0J218750D01*
G01*
G37*
G36*
G01*
X174087500Y-72756250D02*
X174087500Y-72243750D01*
G75*
G02*
X174306250Y-72025000I218750J0D01*
G01*
X174743750Y-72025000D01*
G75*
G02*
X174962500Y-72243750I0J-218750D01*
G01*
X174962500Y-72756250D01*
G75*
G02*
X174743750Y-72975000I-218750J0D01*
G01*
X174306250Y-72975000D01*
G75*
G02*
X174087500Y-72756250I0J218750D01*
G01*
G37*
%TD*%
%TO.C,Q1*%
X181300000Y-62200000D03*
X183300000Y-63150000D03*
X183300000Y-61250000D03*
%TD*%
%TO.C,C1*%
G36*
G01*
X180862500Y-65156250D02*
X180862500Y-64643750D01*
G75*
G02*
X181081250Y-64425000I218750J0D01*
G01*
X181518750Y-64425000D01*
G75*
G02*
X181737500Y-64643750I0J-218750D01*
G01*
X181737500Y-65156250D01*
G75*
G02*
X181518750Y-65375000I-218750J0D01*
G01*
X181081250Y-65375000D01*
G75*
G02*
X180862500Y-65156250I0J218750D01*
G01*
G37*
G36*
G01*
X182437500Y-65156250D02*
X182437500Y-64643750D01*
G75*
G02*
X182656250Y-64425000I218750J0D01*
G01*
X183093750Y-64425000D01*
G75*
G02*
X183312500Y-64643750I0J-218750D01*
G01*
X183312500Y-65156250D01*
G75*
G02*
X183093750Y-65375000I-218750J0D01*
G01*
X182656250Y-65375000D01*
G75*
G02*
X182437500Y-65156250I0J218750D01*
G01*
G37*
%TD*%
%TO.C,R1*%
G36*
G01*
X179062500Y-57756250D02*
X179062500Y-57243750D01*
G75*
G02*
X179281250Y-57025000I218750J0D01*
G01*
X179718750Y-57025000D01*
G75*
G02*
X179937500Y-57243750I0J-218750D01*
G01*
X179937500Y-57756250D01*
G75*
G02*
X179718750Y-57975000I-218750J0D01*
G01*
X179281250Y-57975000D01*
G75*
G02*
X179062500Y-57756250I0J218750D01*
G01*
G37*
G36*
G01*
X177487500Y-57756250D02*
X177487500Y-57243750D01*
G75*
G02*
X177706250Y-57025000I218750J0D01*
G01*
X178143750Y-57025000D01*
G75*
G02*
X178362500Y-57243750I0J-218750D01*
G01*
X178362500Y-57756250D01*
G75*
G02*
X178143750Y-57975000I-218750J0D01*
G01*
X177706250Y-57975000D01*
G75*
G02*
X177487500Y-57756250I0J218750D01*
G01*
G37*
%TD*%
%TO.C,R2*%
G36*
G01*
X174087500Y-57756250D02*
X174087500Y-57243750D01*
G75*
G02*
X174306250Y-57025000I218750J0D01*
G01*
X174743750Y-57025000D01*
G75*
G02*
X174962500Y-57243750I0J-218750D01*
G01*
X174962500Y-57756250D01*
G75*
G02*
X174743750Y-57975000I-218750J0D01*
G01*
X174306250Y-57975000D01*
G75*
G02*
X174087500Y-57756250I0J218750D01*
G01*
G37*
G36*
G01*
X175662500Y-57756250D02*
X175662500Y-57243750D01*
G75*
G02*
X175881250Y-57025000I218750J0D01*
G01*
X176318750Y-57025000D01*
G75*
G02*
X176537500Y-57243750I0J-218750D01*
G01*
X176537500Y-57756250D01*
G75*
G02*
X176318750Y-57975000I-218750J0D01*
G01*
X175881250Y-57975000D01*
G75*
G02*
X175662500Y-57756250I0J218750D01*
G01*
G37*
%TD*%
%TO.C,C2*%
G36*
G01*
X182437500Y-66756250D02*
X182437500Y-66243750D01*
G75*
G02*
X182656250Y-66025000I218750J0D01*
G01*
X183093750Y-66025000D01*
G75*
G02*
X183312500Y-66243750I0J-218750D01*
G01*
X183312500Y-66756250D01*
G75*
G02*
X183093750Y-66975000I-218750J0D01*
G01*
X182656250Y-66975000D01*
G75*
G02*
X182437500Y-66756250I0J218750D01*
G01*
G37*
G36*
G01*
X180862500Y-66756250D02*
X180862500Y-66243750D01*
G75*
G02*
X181081250Y-66025000I218750J0D01*
G01*
X181518750Y-66025000D01*
G75*
G02*
X181737500Y-66243750I0J-218750D01*
G01*
X181737500Y-66756250D01*
G75*
G02*
X181518750Y-66975000I-218750J0D01*
G01*
X181081250Y-66975000D01*
G75*
G02*
X180862500Y-66756250I0J218750D01*
G01*
G37*
%TD*%
%TO.C,R1*%
G36*
G01*
X177487500Y-72756250D02*
X177487500Y-72243750D01*
G75*
G02*
X177706250Y-72025000I218750J0D01*
G01*
X178143750Y-72025000D01*
G75*
G02*
X178362500Y-72243750I0J-218750D01*
G01*
X178362500Y-72756250D01*
G75*
G02*
X178143750Y-72975000I-218750J0D01*
G01*
X177706250Y-72975000D01*
G75*
G02*
X177487500Y-72756250I0J218750D01*
G01*
G37*
G36*
G01*
X179062500Y-72756250D02*
X179062500Y-72243750D01*
G75*
G02*
X179281250Y-72025000I218750J0D01*
G01*
X179718750Y-72025000D01*
G75*
G02*
X179937500Y-72243750I0J-218750D01*
G01*
X179937500Y-72756250D01*
G75*
G02*
X179718750Y-72975000I-218750J0D01*
G01*
X179281250Y-72975000D01*
G75*
G02*
X179062500Y-72756250I0J218750D01*
G01*
G37*
%TD*%
%TO.C,C1*%
G36*
G01*
X182437500Y-80156250D02*
X182437500Y-79643750D01*
G75*
G02*
X182656250Y-79425000I218750J0D01*
G01*
X183093750Y-79425000D01*
G75*
G02*
X183312500Y-79643750I0J-218750D01*
G01*
X183312500Y-80156250D01*
G75*
G02*
X183093750Y-80375000I-218750J0D01*
G01*
X182656250Y-80375000D01*
G75*
G02*
X182437500Y-80156250I0J218750D01*
G01*
G37*
G36*
G01*
X180862500Y-80156250D02*
X180862500Y-79643750D01*
G75*
G02*
X181081250Y-79425000I218750J0D01*
G01*
X181518750Y-79425000D01*
G75*
G02*
X181737500Y-79643750I0J-218750D01*
G01*
X181737500Y-80156250D01*
G75*
G02*
X181518750Y-80375000I-218750J0D01*
G01*
X181081250Y-80375000D01*
G75*
G02*
X180862500Y-80156250I0J218750D01*
G01*
G37*
%TD*%
%TO.C,Q1*%
X153300000Y-136250000D03*
X153300000Y-138150000D03*
X151300000Y-137200000D03*
%TD*%
%TO.C,C1*%
G36*
G01*
X152437500Y-140156250D02*
X152437500Y-139643750D01*
G75*
G02*
X152656250Y-139425000I218750J0D01*
G01*
X153093750Y-139425000D01*
G75*
G02*
X153312500Y-139643750I0J-218750D01*
G01*
X153312500Y-140156250D01*
G75*
G02*
X153093750Y-140375000I-218750J0D01*
G01*
X152656250Y-140375000D01*
G75*
G02*
X152437500Y-140156250I0J218750D01*
G01*
G37*
G36*
G01*
X150862500Y-140156250D02*
X150862500Y-139643750D01*
G75*
G02*
X151081250Y-139425000I218750J0D01*
G01*
X151518750Y-139425000D01*
G75*
G02*
X151737500Y-139643750I0J-218750D01*
G01*
X151737500Y-140156250D01*
G75*
G02*
X151518750Y-140375000I-218750J0D01*
G01*
X151081250Y-140375000D01*
G75*
G02*
X150862500Y-140156250I0J218750D01*
G01*
G37*
%TD*%
%TO.C,C2*%
G36*
G01*
X150862500Y-141756250D02*
X150862500Y-141243750D01*
G75*
G02*
X151081250Y-141025000I218750J0D01*
G01*
X151518750Y-141025000D01*
G75*
G02*
X151737500Y-141243750I0J-218750D01*
G01*
X151737500Y-141756250D01*
G75*
G02*
X151518750Y-141975000I-218750J0D01*
G01*
X151081250Y-141975000D01*
G75*
G02*
X150862500Y-141756250I0J218750D01*
G01*
G37*
G36*
G01*
X152437500Y-141756250D02*
X152437500Y-141243750D01*
G75*
G02*
X152656250Y-141025000I218750J0D01*
G01*
X153093750Y-141025000D01*
G75*
G02*
X153312500Y-141243750I0J-218750D01*
G01*
X153312500Y-141756250D01*
G75*
G02*
X153093750Y-141975000I-218750J0D01*
G01*
X152656250Y-141975000D01*
G75*
G02*
X152437500Y-141756250I0J218750D01*
G01*
G37*
%TD*%
%TO.C,R1*%
G36*
G01*
X147487500Y-132756250D02*
X147487500Y-132243750D01*
G75*
G02*
X147706250Y-132025000I218750J0D01*
G01*
X148143750Y-132025000D01*
G75*
G02*
X148362500Y-132243750I0J-218750D01*
G01*
X148362500Y-132756250D01*
G75*
G02*
X148143750Y-132975000I-218750J0D01*
G01*
X147706250Y-132975000D01*
G75*
G02*
X147487500Y-132756250I0J218750D01*
G01*
G37*
G36*
G01*
X149062500Y-132756250D02*
X149062500Y-132243750D01*
G75*
G02*
X149281250Y-132025000I218750J0D01*
G01*
X149718750Y-132025000D01*
G75*
G02*
X149937500Y-132243750I0J-218750D01*
G01*
X149937500Y-132756250D01*
G75*
G02*
X149718750Y-132975000I-218750J0D01*
G01*
X149281250Y-132975000D01*
G75*
G02*
X149062500Y-132756250I0J218750D01*
G01*
G37*
%TD*%
%TO.C,R2*%
G36*
G01*
X145662500Y-132756250D02*
X145662500Y-132243750D01*
G75*
G02*
X145881250Y-132025000I218750J0D01*
G01*
X146318750Y-132025000D01*
G75*
G02*
X146537500Y-132243750I0J-218750D01*
G01*
X146537500Y-132756250D01*
G75*
G02*
X146318750Y-132975000I-218750J0D01*
G01*
X145881250Y-132975000D01*
G75*
G02*
X145662500Y-132756250I0J218750D01*
G01*
G37*
G36*
G01*
X144087500Y-132756250D02*
X144087500Y-132243750D01*
G75*
G02*
X144306250Y-132025000I218750J0D01*
G01*
X144743750Y-132025000D01*
G75*
G02*
X144962500Y-132243750I0J-218750D01*
G01*
X144962500Y-132756250D01*
G75*
G02*
X144743750Y-132975000I-218750J0D01*
G01*
X144306250Y-132975000D01*
G75*
G02*
X144087500Y-132756250I0J218750D01*
G01*
G37*
%TD*%
%TO.C,R1*%
G36*
G01*
X147487500Y-117756250D02*
X147487500Y-117243750D01*
G75*
G02*
X147706250Y-117025000I218750J0D01*
G01*
X148143750Y-117025000D01*
G75*
G02*
X148362500Y-117243750I0J-218750D01*
G01*
X148362500Y-117756250D01*
G75*
G02*
X148143750Y-117975000I-218750J0D01*
G01*
X147706250Y-117975000D01*
G75*
G02*
X147487500Y-117756250I0J218750D01*
G01*
G37*
G36*
G01*
X149062500Y-117756250D02*
X149062500Y-117243750D01*
G75*
G02*
X149281250Y-117025000I218750J0D01*
G01*
X149718750Y-117025000D01*
G75*
G02*
X149937500Y-117243750I0J-218750D01*
G01*
X149937500Y-117756250D01*
G75*
G02*
X149718750Y-117975000I-218750J0D01*
G01*
X149281250Y-117975000D01*
G75*
G02*
X149062500Y-117756250I0J218750D01*
G01*
G37*
%TD*%
%TO.C,C2*%
G36*
G01*
X150862500Y-126756250D02*
X150862500Y-126243750D01*
G75*
G02*
X151081250Y-126025000I218750J0D01*
G01*
X151518750Y-126025000D01*
G75*
G02*
X151737500Y-126243750I0J-218750D01*
G01*
X151737500Y-126756250D01*
G75*
G02*
X151518750Y-126975000I-218750J0D01*
G01*
X151081250Y-126975000D01*
G75*
G02*
X150862500Y-126756250I0J218750D01*
G01*
G37*
G36*
G01*
X152437500Y-126756250D02*
X152437500Y-126243750D01*
G75*
G02*
X152656250Y-126025000I218750J0D01*
G01*
X153093750Y-126025000D01*
G75*
G02*
X153312500Y-126243750I0J-218750D01*
G01*
X153312500Y-126756250D01*
G75*
G02*
X153093750Y-126975000I-218750J0D01*
G01*
X152656250Y-126975000D01*
G75*
G02*
X152437500Y-126756250I0J218750D01*
G01*
G37*
%TD*%
%TO.C,C1*%
G36*
G01*
X152437500Y-125156250D02*
X152437500Y-124643750D01*
G75*
G02*
X152656250Y-124425000I218750J0D01*
G01*
X153093750Y-124425000D01*
G75*
G02*
X153312500Y-124643750I0J-218750D01*
G01*
X153312500Y-125156250D01*
G75*
G02*
X153093750Y-125375000I-218750J0D01*
G01*
X152656250Y-125375000D01*
G75*
G02*
X152437500Y-125156250I0J218750D01*
G01*
G37*
G36*
G01*
X150862500Y-125156250D02*
X150862500Y-124643750D01*
G75*
G02*
X151081250Y-124425000I218750J0D01*
G01*
X151518750Y-124425000D01*
G75*
G02*
X151737500Y-124643750I0J-218750D01*
G01*
X151737500Y-125156250D01*
G75*
G02*
X151518750Y-125375000I-218750J0D01*
G01*
X151081250Y-125375000D01*
G75*
G02*
X150862500Y-125156250I0J218750D01*
G01*
G37*
%TD*%
%TO.C,R2*%
G36*
G01*
X145662500Y-117756250D02*
X145662500Y-117243750D01*
G75*
G02*
X145881250Y-117025000I218750J0D01*
G01*
X146318750Y-117025000D01*
G75*
G02*
X146537500Y-117243750I0J-218750D01*
G01*
X146537500Y-117756250D01*
G75*
G02*
X146318750Y-117975000I-218750J0D01*
G01*
X145881250Y-117975000D01*
G75*
G02*
X145662500Y-117756250I0J218750D01*
G01*
G37*
G36*
G01*
X144087500Y-117756250D02*
X144087500Y-117243750D01*
G75*
G02*
X144306250Y-117025000I218750J0D01*
G01*
X144743750Y-117025000D01*
G75*
G02*
X144962500Y-117243750I0J-218750D01*
G01*
X144962500Y-117756250D01*
G75*
G02*
X144743750Y-117975000I-218750J0D01*
G01*
X144306250Y-117975000D01*
G75*
G02*
X144087500Y-117756250I0J218750D01*
G01*
G37*
%TD*%
%TO.C,Q1*%
X153300000Y-121250000D03*
X153300000Y-123150000D03*
X151300000Y-122200000D03*
%TD*%
%TO.C,C1*%
G36*
G01*
X152437500Y-110156250D02*
X152437500Y-109643750D01*
G75*
G02*
X152656250Y-109425000I218750J0D01*
G01*
X153093750Y-109425000D01*
G75*
G02*
X153312500Y-109643750I0J-218750D01*
G01*
X153312500Y-110156250D01*
G75*
G02*
X153093750Y-110375000I-218750J0D01*
G01*
X152656250Y-110375000D01*
G75*
G02*
X152437500Y-110156250I0J218750D01*
G01*
G37*
G36*
G01*
X150862500Y-110156250D02*
X150862500Y-109643750D01*
G75*
G02*
X151081250Y-109425000I218750J0D01*
G01*
X151518750Y-109425000D01*
G75*
G02*
X151737500Y-109643750I0J-218750D01*
G01*
X151737500Y-110156250D01*
G75*
G02*
X151518750Y-110375000I-218750J0D01*
G01*
X151081250Y-110375000D01*
G75*
G02*
X150862500Y-110156250I0J218750D01*
G01*
G37*
%TD*%
%TO.C,C2*%
G36*
G01*
X150862500Y-111756250D02*
X150862500Y-111243750D01*
G75*
G02*
X151081250Y-111025000I218750J0D01*
G01*
X151518750Y-111025000D01*
G75*
G02*
X151737500Y-111243750I0J-218750D01*
G01*
X151737500Y-111756250D01*
G75*
G02*
X151518750Y-111975000I-218750J0D01*
G01*
X151081250Y-111975000D01*
G75*
G02*
X150862500Y-111756250I0J218750D01*
G01*
G37*
G36*
G01*
X152437500Y-111756250D02*
X152437500Y-111243750D01*
G75*
G02*
X152656250Y-111025000I218750J0D01*
G01*
X153093750Y-111025000D01*
G75*
G02*
X153312500Y-111243750I0J-218750D01*
G01*
X153312500Y-111756250D01*
G75*
G02*
X153093750Y-111975000I-218750J0D01*
G01*
X152656250Y-111975000D01*
G75*
G02*
X152437500Y-111756250I0J218750D01*
G01*
G37*
%TD*%
%TO.C,R1*%
G36*
G01*
X147487500Y-102756250D02*
X147487500Y-102243750D01*
G75*
G02*
X147706250Y-102025000I218750J0D01*
G01*
X148143750Y-102025000D01*
G75*
G02*
X148362500Y-102243750I0J-218750D01*
G01*
X148362500Y-102756250D01*
G75*
G02*
X148143750Y-102975000I-218750J0D01*
G01*
X147706250Y-102975000D01*
G75*
G02*
X147487500Y-102756250I0J218750D01*
G01*
G37*
G36*
G01*
X149062500Y-102756250D02*
X149062500Y-102243750D01*
G75*
G02*
X149281250Y-102025000I218750J0D01*
G01*
X149718750Y-102025000D01*
G75*
G02*
X149937500Y-102243750I0J-218750D01*
G01*
X149937500Y-102756250D01*
G75*
G02*
X149718750Y-102975000I-218750J0D01*
G01*
X149281250Y-102975000D01*
G75*
G02*
X149062500Y-102756250I0J218750D01*
G01*
G37*
%TD*%
%TO.C,R2*%
G36*
G01*
X145662500Y-102756250D02*
X145662500Y-102243750D01*
G75*
G02*
X145881250Y-102025000I218750J0D01*
G01*
X146318750Y-102025000D01*
G75*
G02*
X146537500Y-102243750I0J-218750D01*
G01*
X146537500Y-102756250D01*
G75*
G02*
X146318750Y-102975000I-218750J0D01*
G01*
X145881250Y-102975000D01*
G75*
G02*
X145662500Y-102756250I0J218750D01*
G01*
G37*
G36*
G01*
X144087500Y-102756250D02*
X144087500Y-102243750D01*
G75*
G02*
X144306250Y-102025000I218750J0D01*
G01*
X144743750Y-102025000D01*
G75*
G02*
X144962500Y-102243750I0J-218750D01*
G01*
X144962500Y-102756250D01*
G75*
G02*
X144743750Y-102975000I-218750J0D01*
G01*
X144306250Y-102975000D01*
G75*
G02*
X144087500Y-102756250I0J218750D01*
G01*
G37*
%TD*%
%TO.C,Q1*%
X153300000Y-106250000D03*
X153300000Y-108150000D03*
X151300000Y-107200000D03*
%TD*%
%TO.C,Q1*%
X153300000Y-91250000D03*
X153300000Y-93150000D03*
X151300000Y-92200000D03*
%TD*%
%TO.C,R1*%
G36*
G01*
X147487500Y-87756250D02*
X147487500Y-87243750D01*
G75*
G02*
X147706250Y-87025000I218750J0D01*
G01*
X148143750Y-87025000D01*
G75*
G02*
X148362500Y-87243750I0J-218750D01*
G01*
X148362500Y-87756250D01*
G75*
G02*
X148143750Y-87975000I-218750J0D01*
G01*
X147706250Y-87975000D01*
G75*
G02*
X147487500Y-87756250I0J218750D01*
G01*
G37*
G36*
G01*
X149062500Y-87756250D02*
X149062500Y-87243750D01*
G75*
G02*
X149281250Y-87025000I218750J0D01*
G01*
X149718750Y-87025000D01*
G75*
G02*
X149937500Y-87243750I0J-218750D01*
G01*
X149937500Y-87756250D01*
G75*
G02*
X149718750Y-87975000I-218750J0D01*
G01*
X149281250Y-87975000D01*
G75*
G02*
X149062500Y-87756250I0J218750D01*
G01*
G37*
%TD*%
%TO.C,C1*%
G36*
G01*
X152437500Y-95156250D02*
X152437500Y-94643750D01*
G75*
G02*
X152656250Y-94425000I218750J0D01*
G01*
X153093750Y-94425000D01*
G75*
G02*
X153312500Y-94643750I0J-218750D01*
G01*
X153312500Y-95156250D01*
G75*
G02*
X153093750Y-95375000I-218750J0D01*
G01*
X152656250Y-95375000D01*
G75*
G02*
X152437500Y-95156250I0J218750D01*
G01*
G37*
G36*
G01*
X150862500Y-95156250D02*
X150862500Y-94643750D01*
G75*
G02*
X151081250Y-94425000I218750J0D01*
G01*
X151518750Y-94425000D01*
G75*
G02*
X151737500Y-94643750I0J-218750D01*
G01*
X151737500Y-95156250D01*
G75*
G02*
X151518750Y-95375000I-218750J0D01*
G01*
X151081250Y-95375000D01*
G75*
G02*
X150862500Y-95156250I0J218750D01*
G01*
G37*
%TD*%
%TO.C,R2*%
G36*
G01*
X145662500Y-87756250D02*
X145662500Y-87243750D01*
G75*
G02*
X145881250Y-87025000I218750J0D01*
G01*
X146318750Y-87025000D01*
G75*
G02*
X146537500Y-87243750I0J-218750D01*
G01*
X146537500Y-87756250D01*
G75*
G02*
X146318750Y-87975000I-218750J0D01*
G01*
X145881250Y-87975000D01*
G75*
G02*
X145662500Y-87756250I0J218750D01*
G01*
G37*
G36*
G01*
X144087500Y-87756250D02*
X144087500Y-87243750D01*
G75*
G02*
X144306250Y-87025000I218750J0D01*
G01*
X144743750Y-87025000D01*
G75*
G02*
X144962500Y-87243750I0J-218750D01*
G01*
X144962500Y-87756250D01*
G75*
G02*
X144743750Y-87975000I-218750J0D01*
G01*
X144306250Y-87975000D01*
G75*
G02*
X144087500Y-87756250I0J218750D01*
G01*
G37*
%TD*%
%TO.C,C2*%
G36*
G01*
X150862500Y-96756250D02*
X150862500Y-96243750D01*
G75*
G02*
X151081250Y-96025000I218750J0D01*
G01*
X151518750Y-96025000D01*
G75*
G02*
X151737500Y-96243750I0J-218750D01*
G01*
X151737500Y-96756250D01*
G75*
G02*
X151518750Y-96975000I-218750J0D01*
G01*
X151081250Y-96975000D01*
G75*
G02*
X150862500Y-96756250I0J218750D01*
G01*
G37*
G36*
G01*
X152437500Y-96756250D02*
X152437500Y-96243750D01*
G75*
G02*
X152656250Y-96025000I218750J0D01*
G01*
X153093750Y-96025000D01*
G75*
G02*
X153312500Y-96243750I0J-218750D01*
G01*
X153312500Y-96756250D01*
G75*
G02*
X153093750Y-96975000I-218750J0D01*
G01*
X152656250Y-96975000D01*
G75*
G02*
X152437500Y-96756250I0J218750D01*
G01*
G37*
%TD*%
%TO.C,Q1*%
X153300000Y-76250000D03*
X153300000Y-78150000D03*
X151300000Y-77200000D03*
%TD*%
%TO.C,C2*%
G36*
G01*
X150862500Y-81756250D02*
X150862500Y-81243750D01*
G75*
G02*
X151081250Y-81025000I218750J0D01*
G01*
X151518750Y-81025000D01*
G75*
G02*
X151737500Y-81243750I0J-218750D01*
G01*
X151737500Y-81756250D01*
G75*
G02*
X151518750Y-81975000I-218750J0D01*
G01*
X151081250Y-81975000D01*
G75*
G02*
X150862500Y-81756250I0J218750D01*
G01*
G37*
G36*
G01*
X152437500Y-81756250D02*
X152437500Y-81243750D01*
G75*
G02*
X152656250Y-81025000I218750J0D01*
G01*
X153093750Y-81025000D01*
G75*
G02*
X153312500Y-81243750I0J-218750D01*
G01*
X153312500Y-81756250D01*
G75*
G02*
X153093750Y-81975000I-218750J0D01*
G01*
X152656250Y-81975000D01*
G75*
G02*
X152437500Y-81756250I0J218750D01*
G01*
G37*
%TD*%
%TO.C,R2*%
G36*
G01*
X145662500Y-72756250D02*
X145662500Y-72243750D01*
G75*
G02*
X145881250Y-72025000I218750J0D01*
G01*
X146318750Y-72025000D01*
G75*
G02*
X146537500Y-72243750I0J-218750D01*
G01*
X146537500Y-72756250D01*
G75*
G02*
X146318750Y-72975000I-218750J0D01*
G01*
X145881250Y-72975000D01*
G75*
G02*
X145662500Y-72756250I0J218750D01*
G01*
G37*
G36*
G01*
X144087500Y-72756250D02*
X144087500Y-72243750D01*
G75*
G02*
X144306250Y-72025000I218750J0D01*
G01*
X144743750Y-72025000D01*
G75*
G02*
X144962500Y-72243750I0J-218750D01*
G01*
X144962500Y-72756250D01*
G75*
G02*
X144743750Y-72975000I-218750J0D01*
G01*
X144306250Y-72975000D01*
G75*
G02*
X144087500Y-72756250I0J218750D01*
G01*
G37*
%TD*%
%TO.C,Q1*%
X151300000Y-62200000D03*
X153300000Y-63150000D03*
X153300000Y-61250000D03*
%TD*%
%TO.C,C1*%
G36*
G01*
X150862500Y-65156250D02*
X150862500Y-64643750D01*
G75*
G02*
X151081250Y-64425000I218750J0D01*
G01*
X151518750Y-64425000D01*
G75*
G02*
X151737500Y-64643750I0J-218750D01*
G01*
X151737500Y-65156250D01*
G75*
G02*
X151518750Y-65375000I-218750J0D01*
G01*
X151081250Y-65375000D01*
G75*
G02*
X150862500Y-65156250I0J218750D01*
G01*
G37*
G36*
G01*
X152437500Y-65156250D02*
X152437500Y-64643750D01*
G75*
G02*
X152656250Y-64425000I218750J0D01*
G01*
X153093750Y-64425000D01*
G75*
G02*
X153312500Y-64643750I0J-218750D01*
G01*
X153312500Y-65156250D01*
G75*
G02*
X153093750Y-65375000I-218750J0D01*
G01*
X152656250Y-65375000D01*
G75*
G02*
X152437500Y-65156250I0J218750D01*
G01*
G37*
%TD*%
%TO.C,R1*%
G36*
G01*
X149062500Y-57756250D02*
X149062500Y-57243750D01*
G75*
G02*
X149281250Y-57025000I218750J0D01*
G01*
X149718750Y-57025000D01*
G75*
G02*
X149937500Y-57243750I0J-218750D01*
G01*
X149937500Y-57756250D01*
G75*
G02*
X149718750Y-57975000I-218750J0D01*
G01*
X149281250Y-57975000D01*
G75*
G02*
X149062500Y-57756250I0J218750D01*
G01*
G37*
G36*
G01*
X147487500Y-57756250D02*
X147487500Y-57243750D01*
G75*
G02*
X147706250Y-57025000I218750J0D01*
G01*
X148143750Y-57025000D01*
G75*
G02*
X148362500Y-57243750I0J-218750D01*
G01*
X148362500Y-57756250D01*
G75*
G02*
X148143750Y-57975000I-218750J0D01*
G01*
X147706250Y-57975000D01*
G75*
G02*
X147487500Y-57756250I0J218750D01*
G01*
G37*
%TD*%
%TO.C,R2*%
G36*
G01*
X144087500Y-57756250D02*
X144087500Y-57243750D01*
G75*
G02*
X144306250Y-57025000I218750J0D01*
G01*
X144743750Y-57025000D01*
G75*
G02*
X144962500Y-57243750I0J-218750D01*
G01*
X144962500Y-57756250D01*
G75*
G02*
X144743750Y-57975000I-218750J0D01*
G01*
X144306250Y-57975000D01*
G75*
G02*
X144087500Y-57756250I0J218750D01*
G01*
G37*
G36*
G01*
X145662500Y-57756250D02*
X145662500Y-57243750D01*
G75*
G02*
X145881250Y-57025000I218750J0D01*
G01*
X146318750Y-57025000D01*
G75*
G02*
X146537500Y-57243750I0J-218750D01*
G01*
X146537500Y-57756250D01*
G75*
G02*
X146318750Y-57975000I-218750J0D01*
G01*
X145881250Y-57975000D01*
G75*
G02*
X145662500Y-57756250I0J218750D01*
G01*
G37*
%TD*%
%TO.C,C2*%
G36*
G01*
X152437500Y-66756250D02*
X152437500Y-66243750D01*
G75*
G02*
X152656250Y-66025000I218750J0D01*
G01*
X153093750Y-66025000D01*
G75*
G02*
X153312500Y-66243750I0J-218750D01*
G01*
X153312500Y-66756250D01*
G75*
G02*
X153093750Y-66975000I-218750J0D01*
G01*
X152656250Y-66975000D01*
G75*
G02*
X152437500Y-66756250I0J218750D01*
G01*
G37*
G36*
G01*
X150862500Y-66756250D02*
X150862500Y-66243750D01*
G75*
G02*
X151081250Y-66025000I218750J0D01*
G01*
X151518750Y-66025000D01*
G75*
G02*
X151737500Y-66243750I0J-218750D01*
G01*
X151737500Y-66756250D01*
G75*
G02*
X151518750Y-66975000I-218750J0D01*
G01*
X151081250Y-66975000D01*
G75*
G02*
X150862500Y-66756250I0J218750D01*
G01*
G37*
%TD*%
%TO.C,R1*%
G36*
G01*
X147487500Y-72756250D02*
X147487500Y-72243750D01*
G75*
G02*
X147706250Y-72025000I218750J0D01*
G01*
X148143750Y-72025000D01*
G75*
G02*
X148362500Y-72243750I0J-218750D01*
G01*
X148362500Y-72756250D01*
G75*
G02*
X148143750Y-72975000I-218750J0D01*
G01*
X147706250Y-72975000D01*
G75*
G02*
X147487500Y-72756250I0J218750D01*
G01*
G37*
G36*
G01*
X149062500Y-72756250D02*
X149062500Y-72243750D01*
G75*
G02*
X149281250Y-72025000I218750J0D01*
G01*
X149718750Y-72025000D01*
G75*
G02*
X149937500Y-72243750I0J-218750D01*
G01*
X149937500Y-72756250D01*
G75*
G02*
X149718750Y-72975000I-218750J0D01*
G01*
X149281250Y-72975000D01*
G75*
G02*
X149062500Y-72756250I0J218750D01*
G01*
G37*
%TD*%
%TO.C,C1*%
G36*
G01*
X152437500Y-80156250D02*
X152437500Y-79643750D01*
G75*
G02*
X152656250Y-79425000I218750J0D01*
G01*
X153093750Y-79425000D01*
G75*
G02*
X153312500Y-79643750I0J-218750D01*
G01*
X153312500Y-80156250D01*
G75*
G02*
X153093750Y-80375000I-218750J0D01*
G01*
X152656250Y-80375000D01*
G75*
G02*
X152437500Y-80156250I0J218750D01*
G01*
G37*
G36*
G01*
X150862500Y-80156250D02*
X150862500Y-79643750D01*
G75*
G02*
X151081250Y-79425000I218750J0D01*
G01*
X151518750Y-79425000D01*
G75*
G02*
X151737500Y-79643750I0J-218750D01*
G01*
X151737500Y-80156250D01*
G75*
G02*
X151518750Y-80375000I-218750J0D01*
G01*
X151081250Y-80375000D01*
G75*
G02*
X150862500Y-80156250I0J218750D01*
G01*
G37*
%TD*%
%TO.C,Q1*%
X121300000Y-137200000D03*
X123300000Y-138150000D03*
X123300000Y-136250000D03*
%TD*%
%TO.C,C1*%
G36*
G01*
X120862500Y-140156250D02*
X120862500Y-139643750D01*
G75*
G02*
X121081250Y-139425000I218750J0D01*
G01*
X121518750Y-139425000D01*
G75*
G02*
X121737500Y-139643750I0J-218750D01*
G01*
X121737500Y-140156250D01*
G75*
G02*
X121518750Y-140375000I-218750J0D01*
G01*
X121081250Y-140375000D01*
G75*
G02*
X120862500Y-140156250I0J218750D01*
G01*
G37*
G36*
G01*
X122437500Y-140156250D02*
X122437500Y-139643750D01*
G75*
G02*
X122656250Y-139425000I218750J0D01*
G01*
X123093750Y-139425000D01*
G75*
G02*
X123312500Y-139643750I0J-218750D01*
G01*
X123312500Y-140156250D01*
G75*
G02*
X123093750Y-140375000I-218750J0D01*
G01*
X122656250Y-140375000D01*
G75*
G02*
X122437500Y-140156250I0J218750D01*
G01*
G37*
%TD*%
%TO.C,R1*%
G36*
G01*
X119062500Y-132756250D02*
X119062500Y-132243750D01*
G75*
G02*
X119281250Y-132025000I218750J0D01*
G01*
X119718750Y-132025000D01*
G75*
G02*
X119937500Y-132243750I0J-218750D01*
G01*
X119937500Y-132756250D01*
G75*
G02*
X119718750Y-132975000I-218750J0D01*
G01*
X119281250Y-132975000D01*
G75*
G02*
X119062500Y-132756250I0J218750D01*
G01*
G37*
G36*
G01*
X117487500Y-132756250D02*
X117487500Y-132243750D01*
G75*
G02*
X117706250Y-132025000I218750J0D01*
G01*
X118143750Y-132025000D01*
G75*
G02*
X118362500Y-132243750I0J-218750D01*
G01*
X118362500Y-132756250D01*
G75*
G02*
X118143750Y-132975000I-218750J0D01*
G01*
X117706250Y-132975000D01*
G75*
G02*
X117487500Y-132756250I0J218750D01*
G01*
G37*
%TD*%
%TO.C,R2*%
G36*
G01*
X114087500Y-132756250D02*
X114087500Y-132243750D01*
G75*
G02*
X114306250Y-132025000I218750J0D01*
G01*
X114743750Y-132025000D01*
G75*
G02*
X114962500Y-132243750I0J-218750D01*
G01*
X114962500Y-132756250D01*
G75*
G02*
X114743750Y-132975000I-218750J0D01*
G01*
X114306250Y-132975000D01*
G75*
G02*
X114087500Y-132756250I0J218750D01*
G01*
G37*
G36*
G01*
X115662500Y-132756250D02*
X115662500Y-132243750D01*
G75*
G02*
X115881250Y-132025000I218750J0D01*
G01*
X116318750Y-132025000D01*
G75*
G02*
X116537500Y-132243750I0J-218750D01*
G01*
X116537500Y-132756250D01*
G75*
G02*
X116318750Y-132975000I-218750J0D01*
G01*
X115881250Y-132975000D01*
G75*
G02*
X115662500Y-132756250I0J218750D01*
G01*
G37*
%TD*%
%TO.C,C2*%
G36*
G01*
X122437500Y-141756250D02*
X122437500Y-141243750D01*
G75*
G02*
X122656250Y-141025000I218750J0D01*
G01*
X123093750Y-141025000D01*
G75*
G02*
X123312500Y-141243750I0J-218750D01*
G01*
X123312500Y-141756250D01*
G75*
G02*
X123093750Y-141975000I-218750J0D01*
G01*
X122656250Y-141975000D01*
G75*
G02*
X122437500Y-141756250I0J218750D01*
G01*
G37*
G36*
G01*
X120862500Y-141756250D02*
X120862500Y-141243750D01*
G75*
G02*
X121081250Y-141025000I218750J0D01*
G01*
X121518750Y-141025000D01*
G75*
G02*
X121737500Y-141243750I0J-218750D01*
G01*
X121737500Y-141756250D01*
G75*
G02*
X121518750Y-141975000I-218750J0D01*
G01*
X121081250Y-141975000D01*
G75*
G02*
X120862500Y-141756250I0J218750D01*
G01*
G37*
%TD*%
%TO.C,Q1*%
X121300000Y-122200000D03*
X123300000Y-123150000D03*
X123300000Y-121250000D03*
%TD*%
%TO.C,C1*%
G36*
G01*
X120862500Y-125156250D02*
X120862500Y-124643750D01*
G75*
G02*
X121081250Y-124425000I218750J0D01*
G01*
X121518750Y-124425000D01*
G75*
G02*
X121737500Y-124643750I0J-218750D01*
G01*
X121737500Y-125156250D01*
G75*
G02*
X121518750Y-125375000I-218750J0D01*
G01*
X121081250Y-125375000D01*
G75*
G02*
X120862500Y-125156250I0J218750D01*
G01*
G37*
G36*
G01*
X122437500Y-125156250D02*
X122437500Y-124643750D01*
G75*
G02*
X122656250Y-124425000I218750J0D01*
G01*
X123093750Y-124425000D01*
G75*
G02*
X123312500Y-124643750I0J-218750D01*
G01*
X123312500Y-125156250D01*
G75*
G02*
X123093750Y-125375000I-218750J0D01*
G01*
X122656250Y-125375000D01*
G75*
G02*
X122437500Y-125156250I0J218750D01*
G01*
G37*
%TD*%
%TO.C,R1*%
G36*
G01*
X119062500Y-117756250D02*
X119062500Y-117243750D01*
G75*
G02*
X119281250Y-117025000I218750J0D01*
G01*
X119718750Y-117025000D01*
G75*
G02*
X119937500Y-117243750I0J-218750D01*
G01*
X119937500Y-117756250D01*
G75*
G02*
X119718750Y-117975000I-218750J0D01*
G01*
X119281250Y-117975000D01*
G75*
G02*
X119062500Y-117756250I0J218750D01*
G01*
G37*
G36*
G01*
X117487500Y-117756250D02*
X117487500Y-117243750D01*
G75*
G02*
X117706250Y-117025000I218750J0D01*
G01*
X118143750Y-117025000D01*
G75*
G02*
X118362500Y-117243750I0J-218750D01*
G01*
X118362500Y-117756250D01*
G75*
G02*
X118143750Y-117975000I-218750J0D01*
G01*
X117706250Y-117975000D01*
G75*
G02*
X117487500Y-117756250I0J218750D01*
G01*
G37*
%TD*%
%TO.C,R2*%
G36*
G01*
X114087500Y-117756250D02*
X114087500Y-117243750D01*
G75*
G02*
X114306250Y-117025000I218750J0D01*
G01*
X114743750Y-117025000D01*
G75*
G02*
X114962500Y-117243750I0J-218750D01*
G01*
X114962500Y-117756250D01*
G75*
G02*
X114743750Y-117975000I-218750J0D01*
G01*
X114306250Y-117975000D01*
G75*
G02*
X114087500Y-117756250I0J218750D01*
G01*
G37*
G36*
G01*
X115662500Y-117756250D02*
X115662500Y-117243750D01*
G75*
G02*
X115881250Y-117025000I218750J0D01*
G01*
X116318750Y-117025000D01*
G75*
G02*
X116537500Y-117243750I0J-218750D01*
G01*
X116537500Y-117756250D01*
G75*
G02*
X116318750Y-117975000I-218750J0D01*
G01*
X115881250Y-117975000D01*
G75*
G02*
X115662500Y-117756250I0J218750D01*
G01*
G37*
%TD*%
%TO.C,C2*%
G36*
G01*
X122437500Y-126756250D02*
X122437500Y-126243750D01*
G75*
G02*
X122656250Y-126025000I218750J0D01*
G01*
X123093750Y-126025000D01*
G75*
G02*
X123312500Y-126243750I0J-218750D01*
G01*
X123312500Y-126756250D01*
G75*
G02*
X123093750Y-126975000I-218750J0D01*
G01*
X122656250Y-126975000D01*
G75*
G02*
X122437500Y-126756250I0J218750D01*
G01*
G37*
G36*
G01*
X120862500Y-126756250D02*
X120862500Y-126243750D01*
G75*
G02*
X121081250Y-126025000I218750J0D01*
G01*
X121518750Y-126025000D01*
G75*
G02*
X121737500Y-126243750I0J-218750D01*
G01*
X121737500Y-126756250D01*
G75*
G02*
X121518750Y-126975000I-218750J0D01*
G01*
X121081250Y-126975000D01*
G75*
G02*
X120862500Y-126756250I0J218750D01*
G01*
G37*
%TD*%
%TO.C,Q1*%
X121300000Y-107200000D03*
X123300000Y-108150000D03*
X123300000Y-106250000D03*
%TD*%
%TO.C,C1*%
G36*
G01*
X120862500Y-110156250D02*
X120862500Y-109643750D01*
G75*
G02*
X121081250Y-109425000I218750J0D01*
G01*
X121518750Y-109425000D01*
G75*
G02*
X121737500Y-109643750I0J-218750D01*
G01*
X121737500Y-110156250D01*
G75*
G02*
X121518750Y-110375000I-218750J0D01*
G01*
X121081250Y-110375000D01*
G75*
G02*
X120862500Y-110156250I0J218750D01*
G01*
G37*
G36*
G01*
X122437500Y-110156250D02*
X122437500Y-109643750D01*
G75*
G02*
X122656250Y-109425000I218750J0D01*
G01*
X123093750Y-109425000D01*
G75*
G02*
X123312500Y-109643750I0J-218750D01*
G01*
X123312500Y-110156250D01*
G75*
G02*
X123093750Y-110375000I-218750J0D01*
G01*
X122656250Y-110375000D01*
G75*
G02*
X122437500Y-110156250I0J218750D01*
G01*
G37*
%TD*%
%TO.C,R1*%
G36*
G01*
X119062500Y-102756250D02*
X119062500Y-102243750D01*
G75*
G02*
X119281250Y-102025000I218750J0D01*
G01*
X119718750Y-102025000D01*
G75*
G02*
X119937500Y-102243750I0J-218750D01*
G01*
X119937500Y-102756250D01*
G75*
G02*
X119718750Y-102975000I-218750J0D01*
G01*
X119281250Y-102975000D01*
G75*
G02*
X119062500Y-102756250I0J218750D01*
G01*
G37*
G36*
G01*
X117487500Y-102756250D02*
X117487500Y-102243750D01*
G75*
G02*
X117706250Y-102025000I218750J0D01*
G01*
X118143750Y-102025000D01*
G75*
G02*
X118362500Y-102243750I0J-218750D01*
G01*
X118362500Y-102756250D01*
G75*
G02*
X118143750Y-102975000I-218750J0D01*
G01*
X117706250Y-102975000D01*
G75*
G02*
X117487500Y-102756250I0J218750D01*
G01*
G37*
%TD*%
%TO.C,R2*%
G36*
G01*
X114087500Y-102756250D02*
X114087500Y-102243750D01*
G75*
G02*
X114306250Y-102025000I218750J0D01*
G01*
X114743750Y-102025000D01*
G75*
G02*
X114962500Y-102243750I0J-218750D01*
G01*
X114962500Y-102756250D01*
G75*
G02*
X114743750Y-102975000I-218750J0D01*
G01*
X114306250Y-102975000D01*
G75*
G02*
X114087500Y-102756250I0J218750D01*
G01*
G37*
G36*
G01*
X115662500Y-102756250D02*
X115662500Y-102243750D01*
G75*
G02*
X115881250Y-102025000I218750J0D01*
G01*
X116318750Y-102025000D01*
G75*
G02*
X116537500Y-102243750I0J-218750D01*
G01*
X116537500Y-102756250D01*
G75*
G02*
X116318750Y-102975000I-218750J0D01*
G01*
X115881250Y-102975000D01*
G75*
G02*
X115662500Y-102756250I0J218750D01*
G01*
G37*
%TD*%
%TO.C,C2*%
G36*
G01*
X122437500Y-111756250D02*
X122437500Y-111243750D01*
G75*
G02*
X122656250Y-111025000I218750J0D01*
G01*
X123093750Y-111025000D01*
G75*
G02*
X123312500Y-111243750I0J-218750D01*
G01*
X123312500Y-111756250D01*
G75*
G02*
X123093750Y-111975000I-218750J0D01*
G01*
X122656250Y-111975000D01*
G75*
G02*
X122437500Y-111756250I0J218750D01*
G01*
G37*
G36*
G01*
X120862500Y-111756250D02*
X120862500Y-111243750D01*
G75*
G02*
X121081250Y-111025000I218750J0D01*
G01*
X121518750Y-111025000D01*
G75*
G02*
X121737500Y-111243750I0J-218750D01*
G01*
X121737500Y-111756250D01*
G75*
G02*
X121518750Y-111975000I-218750J0D01*
G01*
X121081250Y-111975000D01*
G75*
G02*
X120862500Y-111756250I0J218750D01*
G01*
G37*
%TD*%
%TO.C,Q1*%
X121300000Y-92200000D03*
X123300000Y-93150000D03*
X123300000Y-91250000D03*
%TD*%
%TO.C,C1*%
G36*
G01*
X120862500Y-95156250D02*
X120862500Y-94643750D01*
G75*
G02*
X121081250Y-94425000I218750J0D01*
G01*
X121518750Y-94425000D01*
G75*
G02*
X121737500Y-94643750I0J-218750D01*
G01*
X121737500Y-95156250D01*
G75*
G02*
X121518750Y-95375000I-218750J0D01*
G01*
X121081250Y-95375000D01*
G75*
G02*
X120862500Y-95156250I0J218750D01*
G01*
G37*
G36*
G01*
X122437500Y-95156250D02*
X122437500Y-94643750D01*
G75*
G02*
X122656250Y-94425000I218750J0D01*
G01*
X123093750Y-94425000D01*
G75*
G02*
X123312500Y-94643750I0J-218750D01*
G01*
X123312500Y-95156250D01*
G75*
G02*
X123093750Y-95375000I-218750J0D01*
G01*
X122656250Y-95375000D01*
G75*
G02*
X122437500Y-95156250I0J218750D01*
G01*
G37*
%TD*%
%TO.C,R1*%
G36*
G01*
X119062500Y-87756250D02*
X119062500Y-87243750D01*
G75*
G02*
X119281250Y-87025000I218750J0D01*
G01*
X119718750Y-87025000D01*
G75*
G02*
X119937500Y-87243750I0J-218750D01*
G01*
X119937500Y-87756250D01*
G75*
G02*
X119718750Y-87975000I-218750J0D01*
G01*
X119281250Y-87975000D01*
G75*
G02*
X119062500Y-87756250I0J218750D01*
G01*
G37*
G36*
G01*
X117487500Y-87756250D02*
X117487500Y-87243750D01*
G75*
G02*
X117706250Y-87025000I218750J0D01*
G01*
X118143750Y-87025000D01*
G75*
G02*
X118362500Y-87243750I0J-218750D01*
G01*
X118362500Y-87756250D01*
G75*
G02*
X118143750Y-87975000I-218750J0D01*
G01*
X117706250Y-87975000D01*
G75*
G02*
X117487500Y-87756250I0J218750D01*
G01*
G37*
%TD*%
%TO.C,R2*%
G36*
G01*
X114087500Y-87756250D02*
X114087500Y-87243750D01*
G75*
G02*
X114306250Y-87025000I218750J0D01*
G01*
X114743750Y-87025000D01*
G75*
G02*
X114962500Y-87243750I0J-218750D01*
G01*
X114962500Y-87756250D01*
G75*
G02*
X114743750Y-87975000I-218750J0D01*
G01*
X114306250Y-87975000D01*
G75*
G02*
X114087500Y-87756250I0J218750D01*
G01*
G37*
G36*
G01*
X115662500Y-87756250D02*
X115662500Y-87243750D01*
G75*
G02*
X115881250Y-87025000I218750J0D01*
G01*
X116318750Y-87025000D01*
G75*
G02*
X116537500Y-87243750I0J-218750D01*
G01*
X116537500Y-87756250D01*
G75*
G02*
X116318750Y-87975000I-218750J0D01*
G01*
X115881250Y-87975000D01*
G75*
G02*
X115662500Y-87756250I0J218750D01*
G01*
G37*
%TD*%
%TO.C,C2*%
G36*
G01*
X122437500Y-96756250D02*
X122437500Y-96243750D01*
G75*
G02*
X122656250Y-96025000I218750J0D01*
G01*
X123093750Y-96025000D01*
G75*
G02*
X123312500Y-96243750I0J-218750D01*
G01*
X123312500Y-96756250D01*
G75*
G02*
X123093750Y-96975000I-218750J0D01*
G01*
X122656250Y-96975000D01*
G75*
G02*
X122437500Y-96756250I0J218750D01*
G01*
G37*
G36*
G01*
X120862500Y-96756250D02*
X120862500Y-96243750D01*
G75*
G02*
X121081250Y-96025000I218750J0D01*
G01*
X121518750Y-96025000D01*
G75*
G02*
X121737500Y-96243750I0J-218750D01*
G01*
X121737500Y-96756250D01*
G75*
G02*
X121518750Y-96975000I-218750J0D01*
G01*
X121081250Y-96975000D01*
G75*
G02*
X120862500Y-96756250I0J218750D01*
G01*
G37*
%TD*%
%TO.C,Q1*%
X121300000Y-77200000D03*
X123300000Y-78150000D03*
X123300000Y-76250000D03*
%TD*%
%TO.C,C1*%
G36*
G01*
X120862500Y-80156250D02*
X120862500Y-79643750D01*
G75*
G02*
X121081250Y-79425000I218750J0D01*
G01*
X121518750Y-79425000D01*
G75*
G02*
X121737500Y-79643750I0J-218750D01*
G01*
X121737500Y-80156250D01*
G75*
G02*
X121518750Y-80375000I-218750J0D01*
G01*
X121081250Y-80375000D01*
G75*
G02*
X120862500Y-80156250I0J218750D01*
G01*
G37*
G36*
G01*
X122437500Y-80156250D02*
X122437500Y-79643750D01*
G75*
G02*
X122656250Y-79425000I218750J0D01*
G01*
X123093750Y-79425000D01*
G75*
G02*
X123312500Y-79643750I0J-218750D01*
G01*
X123312500Y-80156250D01*
G75*
G02*
X123093750Y-80375000I-218750J0D01*
G01*
X122656250Y-80375000D01*
G75*
G02*
X122437500Y-80156250I0J218750D01*
G01*
G37*
%TD*%
%TO.C,R1*%
G36*
G01*
X119062500Y-72756250D02*
X119062500Y-72243750D01*
G75*
G02*
X119281250Y-72025000I218750J0D01*
G01*
X119718750Y-72025000D01*
G75*
G02*
X119937500Y-72243750I0J-218750D01*
G01*
X119937500Y-72756250D01*
G75*
G02*
X119718750Y-72975000I-218750J0D01*
G01*
X119281250Y-72975000D01*
G75*
G02*
X119062500Y-72756250I0J218750D01*
G01*
G37*
G36*
G01*
X117487500Y-72756250D02*
X117487500Y-72243750D01*
G75*
G02*
X117706250Y-72025000I218750J0D01*
G01*
X118143750Y-72025000D01*
G75*
G02*
X118362500Y-72243750I0J-218750D01*
G01*
X118362500Y-72756250D01*
G75*
G02*
X118143750Y-72975000I-218750J0D01*
G01*
X117706250Y-72975000D01*
G75*
G02*
X117487500Y-72756250I0J218750D01*
G01*
G37*
%TD*%
%TO.C,R2*%
G36*
G01*
X114087500Y-72756250D02*
X114087500Y-72243750D01*
G75*
G02*
X114306250Y-72025000I218750J0D01*
G01*
X114743750Y-72025000D01*
G75*
G02*
X114962500Y-72243750I0J-218750D01*
G01*
X114962500Y-72756250D01*
G75*
G02*
X114743750Y-72975000I-218750J0D01*
G01*
X114306250Y-72975000D01*
G75*
G02*
X114087500Y-72756250I0J218750D01*
G01*
G37*
G36*
G01*
X115662500Y-72756250D02*
X115662500Y-72243750D01*
G75*
G02*
X115881250Y-72025000I218750J0D01*
G01*
X116318750Y-72025000D01*
G75*
G02*
X116537500Y-72243750I0J-218750D01*
G01*
X116537500Y-72756250D01*
G75*
G02*
X116318750Y-72975000I-218750J0D01*
G01*
X115881250Y-72975000D01*
G75*
G02*
X115662500Y-72756250I0J218750D01*
G01*
G37*
%TD*%
%TO.C,C2*%
G36*
G01*
X122437500Y-81756250D02*
X122437500Y-81243750D01*
G75*
G02*
X122656250Y-81025000I218750J0D01*
G01*
X123093750Y-81025000D01*
G75*
G02*
X123312500Y-81243750I0J-218750D01*
G01*
X123312500Y-81756250D01*
G75*
G02*
X123093750Y-81975000I-218750J0D01*
G01*
X122656250Y-81975000D01*
G75*
G02*
X122437500Y-81756250I0J218750D01*
G01*
G37*
G36*
G01*
X120862500Y-81756250D02*
X120862500Y-81243750D01*
G75*
G02*
X121081250Y-81025000I218750J0D01*
G01*
X121518750Y-81025000D01*
G75*
G02*
X121737500Y-81243750I0J-218750D01*
G01*
X121737500Y-81756250D01*
G75*
G02*
X121518750Y-81975000I-218750J0D01*
G01*
X121081250Y-81975000D01*
G75*
G02*
X120862500Y-81756250I0J218750D01*
G01*
G37*
%TD*%
%TO.C,C1*%
G36*
G01*
X122437500Y-65156250D02*
X122437500Y-64643750D01*
G75*
G02*
X122656250Y-64425000I218750J0D01*
G01*
X123093750Y-64425000D01*
G75*
G02*
X123312500Y-64643750I0J-218750D01*
G01*
X123312500Y-65156250D01*
G75*
G02*
X123093750Y-65375000I-218750J0D01*
G01*
X122656250Y-65375000D01*
G75*
G02*
X122437500Y-65156250I0J218750D01*
G01*
G37*
G36*
G01*
X120862500Y-65156250D02*
X120862500Y-64643750D01*
G75*
G02*
X121081250Y-64425000I218750J0D01*
G01*
X121518750Y-64425000D01*
G75*
G02*
X121737500Y-64643750I0J-218750D01*
G01*
X121737500Y-65156250D01*
G75*
G02*
X121518750Y-65375000I-218750J0D01*
G01*
X121081250Y-65375000D01*
G75*
G02*
X120862500Y-65156250I0J218750D01*
G01*
G37*
%TD*%
%TO.C,C2*%
G36*
G01*
X120862500Y-66756250D02*
X120862500Y-66243750D01*
G75*
G02*
X121081250Y-66025000I218750J0D01*
G01*
X121518750Y-66025000D01*
G75*
G02*
X121737500Y-66243750I0J-218750D01*
G01*
X121737500Y-66756250D01*
G75*
G02*
X121518750Y-66975000I-218750J0D01*
G01*
X121081250Y-66975000D01*
G75*
G02*
X120862500Y-66756250I0J218750D01*
G01*
G37*
G36*
G01*
X122437500Y-66756250D02*
X122437500Y-66243750D01*
G75*
G02*
X122656250Y-66025000I218750J0D01*
G01*
X123093750Y-66025000D01*
G75*
G02*
X123312500Y-66243750I0J-218750D01*
G01*
X123312500Y-66756250D01*
G75*
G02*
X123093750Y-66975000I-218750J0D01*
G01*
X122656250Y-66975000D01*
G75*
G02*
X122437500Y-66756250I0J218750D01*
G01*
G37*
%TD*%
%TO.C,Q1*%
X123300000Y-61250000D03*
X123300000Y-63150000D03*
X121300000Y-62200000D03*
%TD*%
%TO.C,R1*%
G36*
G01*
X117487500Y-57756250D02*
X117487500Y-57243750D01*
G75*
G02*
X117706250Y-57025000I218750J0D01*
G01*
X118143750Y-57025000D01*
G75*
G02*
X118362500Y-57243750I0J-218750D01*
G01*
X118362500Y-57756250D01*
G75*
G02*
X118143750Y-57975000I-218750J0D01*
G01*
X117706250Y-57975000D01*
G75*
G02*
X117487500Y-57756250I0J218750D01*
G01*
G37*
G36*
G01*
X119062500Y-57756250D02*
X119062500Y-57243750D01*
G75*
G02*
X119281250Y-57025000I218750J0D01*
G01*
X119718750Y-57025000D01*
G75*
G02*
X119937500Y-57243750I0J-218750D01*
G01*
X119937500Y-57756250D01*
G75*
G02*
X119718750Y-57975000I-218750J0D01*
G01*
X119281250Y-57975000D01*
G75*
G02*
X119062500Y-57756250I0J218750D01*
G01*
G37*
%TD*%
%TO.C,R2*%
G36*
G01*
X115662500Y-57756250D02*
X115662500Y-57243750D01*
G75*
G02*
X115881250Y-57025000I218750J0D01*
G01*
X116318750Y-57025000D01*
G75*
G02*
X116537500Y-57243750I0J-218750D01*
G01*
X116537500Y-57756250D01*
G75*
G02*
X116318750Y-57975000I-218750J0D01*
G01*
X115881250Y-57975000D01*
G75*
G02*
X115662500Y-57756250I0J218750D01*
G01*
G37*
G36*
G01*
X114087500Y-57756250D02*
X114087500Y-57243750D01*
G75*
G02*
X114306250Y-57025000I218750J0D01*
G01*
X114743750Y-57025000D01*
G75*
G02*
X114962500Y-57243750I0J-218750D01*
G01*
X114962500Y-57756250D01*
G75*
G02*
X114743750Y-57975000I-218750J0D01*
G01*
X114306250Y-57975000D01*
G75*
G02*
X114087500Y-57756250I0J218750D01*
G01*
G37*
%TD*%
M02*
