%TF.GenerationSoftware,KiCad,Pcbnew,5.1.6-c6e7f7d~87~ubuntu18.04.1*%
%TF.CreationDate,2020-08-12T19:32:08-03:00*%
%TF.ProjectId,irStrip_v1_panel,69725374-7269-4705-9f76-315f70616e65,Rev. 1.0.1*%
%TF.SameCoordinates,Original*%
%TF.FileFunction,Soldermask,Top*%
%TF.FilePolarity,Negative*%
%FSLAX46Y46*%
G04 Gerber Fmt 4.6, Leading zero omitted, Abs format (unit mm)*
G04 Created by KiCad (PCBNEW 5.1.6-c6e7f7d~87~ubuntu18.04.1) date 2020-08-12 19:32:08*
%MOMM*%
%LPD*%
G01*
G04 APERTURE LIST*
%ADD10R,2.100000X2.100000*%
%ADD11R,1.800000X1.800000*%
%ADD12O,1.800000X1.800000*%
%ADD13R,1.900000X1.900000*%
%ADD14C,1.900000*%
G04 APERTURE END LIST*
D10*
%TO.C,J4*%
X182000000Y-132200000D03*
%TD*%
%TO.C,J4*%
X182000000Y-102200000D03*
%TD*%
%TO.C,J4*%
X182000000Y-117200000D03*
%TD*%
%TO.C,J5*%
X182000000Y-144800000D03*
%TD*%
D11*
%TO.C,J1*%
X171900000Y-141040000D03*
D12*
X171900000Y-138500000D03*
X171900000Y-135960000D03*
%TD*%
D13*
%TO.C,D1*%
X178280000Y-138500000D03*
D14*
X175740000Y-138500000D03*
%TD*%
D10*
%TO.C,J3*%
X172000000Y-144800000D03*
%TD*%
%TO.C,J2*%
X172000000Y-132200000D03*
%TD*%
%TO.C,J2*%
X172000000Y-117200000D03*
%TD*%
%TO.C,J5*%
X182000000Y-129800000D03*
%TD*%
D11*
%TO.C,J1*%
X171900000Y-126040000D03*
D12*
X171900000Y-123500000D03*
X171900000Y-120960000D03*
%TD*%
D13*
%TO.C,D1*%
X178280000Y-123500000D03*
D14*
X175740000Y-123500000D03*
%TD*%
D10*
%TO.C,J3*%
X172000000Y-129800000D03*
%TD*%
D11*
%TO.C,J1*%
X171900000Y-111040000D03*
D12*
X171900000Y-108500000D03*
X171900000Y-105960000D03*
%TD*%
D10*
%TO.C,J3*%
X172000000Y-114800000D03*
%TD*%
%TO.C,J4*%
X182000000Y-87200000D03*
%TD*%
D13*
%TO.C,D1*%
X178280000Y-108500000D03*
D14*
X175740000Y-108500000D03*
%TD*%
D10*
%TO.C,J5*%
X182000000Y-114800000D03*
%TD*%
%TO.C,J2*%
X172000000Y-102200000D03*
%TD*%
D11*
%TO.C,J1*%
X171900000Y-96040000D03*
D12*
X171900000Y-93500000D03*
X171900000Y-90960000D03*
%TD*%
D10*
%TO.C,J2*%
X172000000Y-87200000D03*
%TD*%
D13*
%TO.C,D1*%
X178280000Y-93500000D03*
D14*
X175740000Y-93500000D03*
%TD*%
D10*
%TO.C,J5*%
X182000000Y-99800000D03*
%TD*%
%TO.C,J3*%
X172000000Y-99800000D03*
%TD*%
%TO.C,J4*%
X182000000Y-72200000D03*
%TD*%
%TO.C,J4*%
X182000000Y-57200000D03*
%TD*%
%TO.C,J2*%
X172000000Y-57200000D03*
%TD*%
%TO.C,J3*%
X172000000Y-84800000D03*
%TD*%
%TO.C,J5*%
X182000000Y-69800000D03*
%TD*%
D12*
%TO.C,J1*%
X171900000Y-60960000D03*
X171900000Y-63500000D03*
D11*
X171900000Y-66040000D03*
%TD*%
D14*
%TO.C,D1*%
X175740000Y-63500000D03*
D13*
X178280000Y-63500000D03*
%TD*%
D10*
%TO.C,J3*%
X172000000Y-69800000D03*
%TD*%
%TO.C,J5*%
X182000000Y-84800000D03*
%TD*%
D11*
%TO.C,J1*%
X171900000Y-81040000D03*
D12*
X171900000Y-78500000D03*
X171900000Y-75960000D03*
%TD*%
D13*
%TO.C,D1*%
X178280000Y-78500000D03*
D14*
X175740000Y-78500000D03*
%TD*%
D10*
%TO.C,J2*%
X172000000Y-72200000D03*
%TD*%
%TO.C,J4*%
X152000000Y-132200000D03*
%TD*%
%TO.C,J4*%
X152000000Y-102200000D03*
%TD*%
%TO.C,J4*%
X152000000Y-117200000D03*
%TD*%
%TO.C,J5*%
X152000000Y-144800000D03*
%TD*%
D11*
%TO.C,J1*%
X141900000Y-141040000D03*
D12*
X141900000Y-138500000D03*
X141900000Y-135960000D03*
%TD*%
D13*
%TO.C,D1*%
X148280000Y-138500000D03*
D14*
X145740000Y-138500000D03*
%TD*%
D10*
%TO.C,J3*%
X142000000Y-144800000D03*
%TD*%
%TO.C,J2*%
X142000000Y-132200000D03*
%TD*%
%TO.C,J2*%
X142000000Y-117200000D03*
%TD*%
%TO.C,J5*%
X152000000Y-129800000D03*
%TD*%
D11*
%TO.C,J1*%
X141900000Y-126040000D03*
D12*
X141900000Y-123500000D03*
X141900000Y-120960000D03*
%TD*%
D13*
%TO.C,D1*%
X148280000Y-123500000D03*
D14*
X145740000Y-123500000D03*
%TD*%
D10*
%TO.C,J3*%
X142000000Y-129800000D03*
%TD*%
D11*
%TO.C,J1*%
X141900000Y-111040000D03*
D12*
X141900000Y-108500000D03*
X141900000Y-105960000D03*
%TD*%
D10*
%TO.C,J3*%
X142000000Y-114800000D03*
%TD*%
%TO.C,J4*%
X152000000Y-87200000D03*
%TD*%
D13*
%TO.C,D1*%
X148280000Y-108500000D03*
D14*
X145740000Y-108500000D03*
%TD*%
D10*
%TO.C,J5*%
X152000000Y-114800000D03*
%TD*%
%TO.C,J2*%
X142000000Y-102200000D03*
%TD*%
D11*
%TO.C,J1*%
X141900000Y-96040000D03*
D12*
X141900000Y-93500000D03*
X141900000Y-90960000D03*
%TD*%
D10*
%TO.C,J2*%
X142000000Y-87200000D03*
%TD*%
D13*
%TO.C,D1*%
X148280000Y-93500000D03*
D14*
X145740000Y-93500000D03*
%TD*%
D10*
%TO.C,J5*%
X152000000Y-99800000D03*
%TD*%
%TO.C,J3*%
X142000000Y-99800000D03*
%TD*%
%TO.C,J4*%
X152000000Y-72200000D03*
%TD*%
%TO.C,J4*%
X152000000Y-57200000D03*
%TD*%
%TO.C,J2*%
X142000000Y-57200000D03*
%TD*%
%TO.C,J3*%
X142000000Y-84800000D03*
%TD*%
%TO.C,J5*%
X152000000Y-69800000D03*
%TD*%
D12*
%TO.C,J1*%
X141900000Y-60960000D03*
X141900000Y-63500000D03*
D11*
X141900000Y-66040000D03*
%TD*%
D14*
%TO.C,D1*%
X145740000Y-63500000D03*
D13*
X148280000Y-63500000D03*
%TD*%
D10*
%TO.C,J3*%
X142000000Y-69800000D03*
%TD*%
%TO.C,J5*%
X152000000Y-84800000D03*
%TD*%
D11*
%TO.C,J1*%
X141900000Y-81040000D03*
D12*
X141900000Y-78500000D03*
X141900000Y-75960000D03*
%TD*%
D13*
%TO.C,D1*%
X148280000Y-78500000D03*
D14*
X145740000Y-78500000D03*
%TD*%
D10*
%TO.C,J2*%
X142000000Y-72200000D03*
%TD*%
%TO.C,J4*%
X122000000Y-132200000D03*
%TD*%
%TO.C,J2*%
X112000000Y-132200000D03*
%TD*%
%TO.C,J5*%
X122000000Y-144800000D03*
%TD*%
D12*
%TO.C,J1*%
X111900000Y-135960000D03*
X111900000Y-138500000D03*
D11*
X111900000Y-141040000D03*
%TD*%
D14*
%TO.C,D1*%
X115740000Y-138500000D03*
D13*
X118280000Y-138500000D03*
%TD*%
D10*
%TO.C,J3*%
X112000000Y-144800000D03*
%TD*%
%TO.C,J4*%
X122000000Y-117200000D03*
%TD*%
%TO.C,J2*%
X112000000Y-117200000D03*
%TD*%
%TO.C,J5*%
X122000000Y-129800000D03*
%TD*%
D12*
%TO.C,J1*%
X111900000Y-120960000D03*
X111900000Y-123500000D03*
D11*
X111900000Y-126040000D03*
%TD*%
D14*
%TO.C,D1*%
X115740000Y-123500000D03*
D13*
X118280000Y-123500000D03*
%TD*%
D10*
%TO.C,J3*%
X112000000Y-129800000D03*
%TD*%
%TO.C,J4*%
X122000000Y-102200000D03*
%TD*%
%TO.C,J2*%
X112000000Y-102200000D03*
%TD*%
%TO.C,J5*%
X122000000Y-114800000D03*
%TD*%
D12*
%TO.C,J1*%
X111900000Y-105960000D03*
X111900000Y-108500000D03*
D11*
X111900000Y-111040000D03*
%TD*%
D14*
%TO.C,D1*%
X115740000Y-108500000D03*
D13*
X118280000Y-108500000D03*
%TD*%
D10*
%TO.C,J3*%
X112000000Y-114800000D03*
%TD*%
%TO.C,J4*%
X122000000Y-87200000D03*
%TD*%
%TO.C,J2*%
X112000000Y-87200000D03*
%TD*%
%TO.C,J5*%
X122000000Y-99800000D03*
%TD*%
D12*
%TO.C,J1*%
X111900000Y-90960000D03*
X111900000Y-93500000D03*
D11*
X111900000Y-96040000D03*
%TD*%
D14*
%TO.C,D1*%
X115740000Y-93500000D03*
D13*
X118280000Y-93500000D03*
%TD*%
D10*
%TO.C,J3*%
X112000000Y-99800000D03*
%TD*%
%TO.C,J4*%
X122000000Y-72200000D03*
%TD*%
%TO.C,J2*%
X112000000Y-72200000D03*
%TD*%
%TO.C,J5*%
X122000000Y-84800000D03*
%TD*%
D12*
%TO.C,J1*%
X111900000Y-75960000D03*
X111900000Y-78500000D03*
D11*
X111900000Y-81040000D03*
%TD*%
D14*
%TO.C,D1*%
X115740000Y-78500000D03*
D13*
X118280000Y-78500000D03*
%TD*%
D10*
%TO.C,J3*%
X112000000Y-84800000D03*
%TD*%
D13*
%TO.C,D1*%
X118280000Y-63500000D03*
D14*
X115740000Y-63500000D03*
%TD*%
D11*
%TO.C,J1*%
X111900000Y-66040000D03*
D12*
X111900000Y-63500000D03*
X111900000Y-60960000D03*
%TD*%
D10*
%TO.C,J2*%
X112000000Y-57200000D03*
%TD*%
%TO.C,J3*%
X112000000Y-69800000D03*
%TD*%
%TO.C,J4*%
X122000000Y-57200000D03*
%TD*%
%TO.C,J5*%
X122000000Y-69800000D03*
%TD*%
M02*
