%TF.GenerationSoftware,KiCad,Pcbnew,5.1.6-c6e7f7d~87~ubuntu18.04.1*%
%TF.CreationDate,2020-08-12T00:38:11-03:00*%
%TF.ProjectId,tfMainBoard,74664d61-696e-4426-9f61-72642e6b6963,Rev 1.0.0*%
%TF.SameCoordinates,Original*%
%TF.FileFunction,Paste,Bot*%
%TF.FilePolarity,Positive*%
%FSLAX46Y46*%
G04 Gerber Fmt 4.6, Leading zero omitted, Abs format (unit mm)*
G04 Created by KiCad (PCBNEW 5.1.6-c6e7f7d~87~ubuntu18.04.1) date 2020-08-12 00:38:11*
%MOMM*%
%LPD*%
G01*
G04 APERTURE LIST*
%ADD10R,0.900000X0.800000*%
%ADD11R,0.800000X0.900000*%
%ADD12R,0.450000X1.750000*%
G04 APERTURE END LIST*
%TO.C,C21*%
G36*
G01*
X118243750Y-59912500D02*
X118756250Y-59912500D01*
G75*
G02*
X118975000Y-60131250I0J-218750D01*
G01*
X118975000Y-60568750D01*
G75*
G02*
X118756250Y-60787500I-218750J0D01*
G01*
X118243750Y-60787500D01*
G75*
G02*
X118025000Y-60568750I0J218750D01*
G01*
X118025000Y-60131250D01*
G75*
G02*
X118243750Y-59912500I218750J0D01*
G01*
G37*
G36*
G01*
X118243750Y-58337500D02*
X118756250Y-58337500D01*
G75*
G02*
X118975000Y-58556250I0J-218750D01*
G01*
X118975000Y-58993750D01*
G75*
G02*
X118756250Y-59212500I-218750J0D01*
G01*
X118243750Y-59212500D01*
G75*
G02*
X118025000Y-58993750I0J218750D01*
G01*
X118025000Y-58556250D01*
G75*
G02*
X118243750Y-58337500I218750J0D01*
G01*
G37*
%TD*%
%TO.C,C20*%
G36*
G01*
X119893750Y-59912500D02*
X120406250Y-59912500D01*
G75*
G02*
X120625000Y-60131250I0J-218750D01*
G01*
X120625000Y-60568750D01*
G75*
G02*
X120406250Y-60787500I-218750J0D01*
G01*
X119893750Y-60787500D01*
G75*
G02*
X119675000Y-60568750I0J218750D01*
G01*
X119675000Y-60131250D01*
G75*
G02*
X119893750Y-59912500I218750J0D01*
G01*
G37*
G36*
G01*
X119893750Y-58337500D02*
X120406250Y-58337500D01*
G75*
G02*
X120625000Y-58556250I0J-218750D01*
G01*
X120625000Y-58993750D01*
G75*
G02*
X120406250Y-59212500I-218750J0D01*
G01*
X119893750Y-59212500D01*
G75*
G02*
X119675000Y-58993750I0J218750D01*
G01*
X119675000Y-58556250D01*
G75*
G02*
X119893750Y-58337500I218750J0D01*
G01*
G37*
%TD*%
%TO.C,U2*%
G36*
G01*
X118640000Y-111475000D02*
X118940000Y-111475000D01*
G75*
G02*
X119090000Y-111625000I0J-150000D01*
G01*
X119090000Y-113275000D01*
G75*
G02*
X118940000Y-113425000I-150000J0D01*
G01*
X118640000Y-113425000D01*
G75*
G02*
X118490000Y-113275000I0J150000D01*
G01*
X118490000Y-111625000D01*
G75*
G02*
X118640000Y-111475000I150000J0D01*
G01*
G37*
G36*
G01*
X119910000Y-111475000D02*
X120210000Y-111475000D01*
G75*
G02*
X120360000Y-111625000I0J-150000D01*
G01*
X120360000Y-113275000D01*
G75*
G02*
X120210000Y-113425000I-150000J0D01*
G01*
X119910000Y-113425000D01*
G75*
G02*
X119760000Y-113275000I0J150000D01*
G01*
X119760000Y-111625000D01*
G75*
G02*
X119910000Y-111475000I150000J0D01*
G01*
G37*
G36*
G01*
X121180000Y-111475000D02*
X121480000Y-111475000D01*
G75*
G02*
X121630000Y-111625000I0J-150000D01*
G01*
X121630000Y-113275000D01*
G75*
G02*
X121480000Y-113425000I-150000J0D01*
G01*
X121180000Y-113425000D01*
G75*
G02*
X121030000Y-113275000I0J150000D01*
G01*
X121030000Y-111625000D01*
G75*
G02*
X121180000Y-111475000I150000J0D01*
G01*
G37*
G36*
G01*
X122450000Y-111475000D02*
X122750000Y-111475000D01*
G75*
G02*
X122900000Y-111625000I0J-150000D01*
G01*
X122900000Y-113275000D01*
G75*
G02*
X122750000Y-113425000I-150000J0D01*
G01*
X122450000Y-113425000D01*
G75*
G02*
X122300000Y-113275000I0J150000D01*
G01*
X122300000Y-111625000D01*
G75*
G02*
X122450000Y-111475000I150000J0D01*
G01*
G37*
G36*
G01*
X122450000Y-106525000D02*
X122750000Y-106525000D01*
G75*
G02*
X122900000Y-106675000I0J-150000D01*
G01*
X122900000Y-108325000D01*
G75*
G02*
X122750000Y-108475000I-150000J0D01*
G01*
X122450000Y-108475000D01*
G75*
G02*
X122300000Y-108325000I0J150000D01*
G01*
X122300000Y-106675000D01*
G75*
G02*
X122450000Y-106525000I150000J0D01*
G01*
G37*
G36*
G01*
X121180000Y-106525000D02*
X121480000Y-106525000D01*
G75*
G02*
X121630000Y-106675000I0J-150000D01*
G01*
X121630000Y-108325000D01*
G75*
G02*
X121480000Y-108475000I-150000J0D01*
G01*
X121180000Y-108475000D01*
G75*
G02*
X121030000Y-108325000I0J150000D01*
G01*
X121030000Y-106675000D01*
G75*
G02*
X121180000Y-106525000I150000J0D01*
G01*
G37*
G36*
G01*
X119910000Y-106525000D02*
X120210000Y-106525000D01*
G75*
G02*
X120360000Y-106675000I0J-150000D01*
G01*
X120360000Y-108325000D01*
G75*
G02*
X120210000Y-108475000I-150000J0D01*
G01*
X119910000Y-108475000D01*
G75*
G02*
X119760000Y-108325000I0J150000D01*
G01*
X119760000Y-106675000D01*
G75*
G02*
X119910000Y-106525000I150000J0D01*
G01*
G37*
G36*
G01*
X118640000Y-106525000D02*
X118940000Y-106525000D01*
G75*
G02*
X119090000Y-106675000I0J-150000D01*
G01*
X119090000Y-108325000D01*
G75*
G02*
X118940000Y-108475000I-150000J0D01*
G01*
X118640000Y-108475000D01*
G75*
G02*
X118490000Y-108325000I0J150000D01*
G01*
X118490000Y-106675000D01*
G75*
G02*
X118640000Y-106525000I150000J0D01*
G01*
G37*
%TD*%
%TO.C,U1*%
G36*
G01*
X122150000Y-85650000D02*
X121850000Y-85650000D01*
G75*
G02*
X121700000Y-85500000I0J150000D01*
G01*
X121700000Y-83850000D01*
G75*
G02*
X121850000Y-83700000I150000J0D01*
G01*
X122150000Y-83700000D01*
G75*
G02*
X122300000Y-83850000I0J-150000D01*
G01*
X122300000Y-85500000D01*
G75*
G02*
X122150000Y-85650000I-150000J0D01*
G01*
G37*
G36*
G01*
X120880000Y-85650000D02*
X120580000Y-85650000D01*
G75*
G02*
X120430000Y-85500000I0J150000D01*
G01*
X120430000Y-83850000D01*
G75*
G02*
X120580000Y-83700000I150000J0D01*
G01*
X120880000Y-83700000D01*
G75*
G02*
X121030000Y-83850000I0J-150000D01*
G01*
X121030000Y-85500000D01*
G75*
G02*
X120880000Y-85650000I-150000J0D01*
G01*
G37*
G36*
G01*
X119610000Y-85650000D02*
X119310000Y-85650000D01*
G75*
G02*
X119160000Y-85500000I0J150000D01*
G01*
X119160000Y-83850000D01*
G75*
G02*
X119310000Y-83700000I150000J0D01*
G01*
X119610000Y-83700000D01*
G75*
G02*
X119760000Y-83850000I0J-150000D01*
G01*
X119760000Y-85500000D01*
G75*
G02*
X119610000Y-85650000I-150000J0D01*
G01*
G37*
G36*
G01*
X118340000Y-85650000D02*
X118040000Y-85650000D01*
G75*
G02*
X117890000Y-85500000I0J150000D01*
G01*
X117890000Y-83850000D01*
G75*
G02*
X118040000Y-83700000I150000J0D01*
G01*
X118340000Y-83700000D01*
G75*
G02*
X118490000Y-83850000I0J-150000D01*
G01*
X118490000Y-85500000D01*
G75*
G02*
X118340000Y-85650000I-150000J0D01*
G01*
G37*
G36*
G01*
X117070000Y-85650000D02*
X116770000Y-85650000D01*
G75*
G02*
X116620000Y-85500000I0J150000D01*
G01*
X116620000Y-83850000D01*
G75*
G02*
X116770000Y-83700000I150000J0D01*
G01*
X117070000Y-83700000D01*
G75*
G02*
X117220000Y-83850000I0J-150000D01*
G01*
X117220000Y-85500000D01*
G75*
G02*
X117070000Y-85650000I-150000J0D01*
G01*
G37*
G36*
G01*
X115800000Y-85650000D02*
X115500000Y-85650000D01*
G75*
G02*
X115350000Y-85500000I0J150000D01*
G01*
X115350000Y-83850000D01*
G75*
G02*
X115500000Y-83700000I150000J0D01*
G01*
X115800000Y-83700000D01*
G75*
G02*
X115950000Y-83850000I0J-150000D01*
G01*
X115950000Y-85500000D01*
G75*
G02*
X115800000Y-85650000I-150000J0D01*
G01*
G37*
G36*
G01*
X114530000Y-85650000D02*
X114230000Y-85650000D01*
G75*
G02*
X114080000Y-85500000I0J150000D01*
G01*
X114080000Y-83850000D01*
G75*
G02*
X114230000Y-83700000I150000J0D01*
G01*
X114530000Y-83700000D01*
G75*
G02*
X114680000Y-83850000I0J-150000D01*
G01*
X114680000Y-85500000D01*
G75*
G02*
X114530000Y-85650000I-150000J0D01*
G01*
G37*
G36*
G01*
X113260000Y-85650000D02*
X112960000Y-85650000D01*
G75*
G02*
X112810000Y-85500000I0J150000D01*
G01*
X112810000Y-83850000D01*
G75*
G02*
X112960000Y-83700000I150000J0D01*
G01*
X113260000Y-83700000D01*
G75*
G02*
X113410000Y-83850000I0J-150000D01*
G01*
X113410000Y-85500000D01*
G75*
G02*
X113260000Y-85650000I-150000J0D01*
G01*
G37*
G36*
G01*
X113260000Y-90600000D02*
X112960000Y-90600000D01*
G75*
G02*
X112810000Y-90450000I0J150000D01*
G01*
X112810000Y-88800000D01*
G75*
G02*
X112960000Y-88650000I150000J0D01*
G01*
X113260000Y-88650000D01*
G75*
G02*
X113410000Y-88800000I0J-150000D01*
G01*
X113410000Y-90450000D01*
G75*
G02*
X113260000Y-90600000I-150000J0D01*
G01*
G37*
G36*
G01*
X114530000Y-90600000D02*
X114230000Y-90600000D01*
G75*
G02*
X114080000Y-90450000I0J150000D01*
G01*
X114080000Y-88800000D01*
G75*
G02*
X114230000Y-88650000I150000J0D01*
G01*
X114530000Y-88650000D01*
G75*
G02*
X114680000Y-88800000I0J-150000D01*
G01*
X114680000Y-90450000D01*
G75*
G02*
X114530000Y-90600000I-150000J0D01*
G01*
G37*
G36*
G01*
X115800000Y-90600000D02*
X115500000Y-90600000D01*
G75*
G02*
X115350000Y-90450000I0J150000D01*
G01*
X115350000Y-88800000D01*
G75*
G02*
X115500000Y-88650000I150000J0D01*
G01*
X115800000Y-88650000D01*
G75*
G02*
X115950000Y-88800000I0J-150000D01*
G01*
X115950000Y-90450000D01*
G75*
G02*
X115800000Y-90600000I-150000J0D01*
G01*
G37*
G36*
G01*
X117070000Y-90600000D02*
X116770000Y-90600000D01*
G75*
G02*
X116620000Y-90450000I0J150000D01*
G01*
X116620000Y-88800000D01*
G75*
G02*
X116770000Y-88650000I150000J0D01*
G01*
X117070000Y-88650000D01*
G75*
G02*
X117220000Y-88800000I0J-150000D01*
G01*
X117220000Y-90450000D01*
G75*
G02*
X117070000Y-90600000I-150000J0D01*
G01*
G37*
G36*
G01*
X118340000Y-90600000D02*
X118040000Y-90600000D01*
G75*
G02*
X117890000Y-90450000I0J150000D01*
G01*
X117890000Y-88800000D01*
G75*
G02*
X118040000Y-88650000I150000J0D01*
G01*
X118340000Y-88650000D01*
G75*
G02*
X118490000Y-88800000I0J-150000D01*
G01*
X118490000Y-90450000D01*
G75*
G02*
X118340000Y-90600000I-150000J0D01*
G01*
G37*
G36*
G01*
X119610000Y-90600000D02*
X119310000Y-90600000D01*
G75*
G02*
X119160000Y-90450000I0J150000D01*
G01*
X119160000Y-88800000D01*
G75*
G02*
X119310000Y-88650000I150000J0D01*
G01*
X119610000Y-88650000D01*
G75*
G02*
X119760000Y-88800000I0J-150000D01*
G01*
X119760000Y-90450000D01*
G75*
G02*
X119610000Y-90600000I-150000J0D01*
G01*
G37*
G36*
G01*
X120880000Y-90600000D02*
X120580000Y-90600000D01*
G75*
G02*
X120430000Y-90450000I0J150000D01*
G01*
X120430000Y-88800000D01*
G75*
G02*
X120580000Y-88650000I150000J0D01*
G01*
X120880000Y-88650000D01*
G75*
G02*
X121030000Y-88800000I0J-150000D01*
G01*
X121030000Y-90450000D01*
G75*
G02*
X120880000Y-90600000I-150000J0D01*
G01*
G37*
G36*
G01*
X122150000Y-90600000D02*
X121850000Y-90600000D01*
G75*
G02*
X121700000Y-90450000I0J150000D01*
G01*
X121700000Y-88800000D01*
G75*
G02*
X121850000Y-88650000I150000J0D01*
G01*
X122150000Y-88650000D01*
G75*
G02*
X122300000Y-88800000I0J-150000D01*
G01*
X122300000Y-90450000D01*
G75*
G02*
X122150000Y-90600000I-150000J0D01*
G01*
G37*
%TD*%
%TO.C,R4*%
G36*
G01*
X98375000Y-54725000D02*
X96225000Y-54725000D01*
G75*
G02*
X95975000Y-54475000I0J250000D01*
G01*
X95975000Y-53725000D01*
G75*
G02*
X96225000Y-53475000I250000J0D01*
G01*
X98375000Y-53475000D01*
G75*
G02*
X98625000Y-53725000I0J-250000D01*
G01*
X98625000Y-54475000D01*
G75*
G02*
X98375000Y-54725000I-250000J0D01*
G01*
G37*
G36*
G01*
X98375000Y-57525000D02*
X96225000Y-57525000D01*
G75*
G02*
X95975000Y-57275000I0J250000D01*
G01*
X95975000Y-56525000D01*
G75*
G02*
X96225000Y-56275000I250000J0D01*
G01*
X98375000Y-56275000D01*
G75*
G02*
X98625000Y-56525000I0J-250000D01*
G01*
X98625000Y-57275000D01*
G75*
G02*
X98375000Y-57525000I-250000J0D01*
G01*
G37*
%TD*%
%TO.C,R2*%
G36*
G01*
X96425000Y-92875000D02*
X98575000Y-92875000D01*
G75*
G02*
X98825000Y-93125000I0J-250000D01*
G01*
X98825000Y-93875000D01*
G75*
G02*
X98575000Y-94125000I-250000J0D01*
G01*
X96425000Y-94125000D01*
G75*
G02*
X96175000Y-93875000I0J250000D01*
G01*
X96175000Y-93125000D01*
G75*
G02*
X96425000Y-92875000I250000J0D01*
G01*
G37*
G36*
G01*
X96425000Y-90075000D02*
X98575000Y-90075000D01*
G75*
G02*
X98825000Y-90325000I0J-250000D01*
G01*
X98825000Y-91075000D01*
G75*
G02*
X98575000Y-91325000I-250000J0D01*
G01*
X96425000Y-91325000D01*
G75*
G02*
X96175000Y-91075000I0J250000D01*
G01*
X96175000Y-90325000D01*
G75*
G02*
X96425000Y-90075000I250000J0D01*
G01*
G37*
%TD*%
%TO.C,C1*%
G36*
G01*
X122437500Y-81443750D02*
X122437500Y-81956250D01*
G75*
G02*
X122218750Y-82175000I-218750J0D01*
G01*
X121781250Y-82175000D01*
G75*
G02*
X121562500Y-81956250I0J218750D01*
G01*
X121562500Y-81443750D01*
G75*
G02*
X121781250Y-81225000I218750J0D01*
G01*
X122218750Y-81225000D01*
G75*
G02*
X122437500Y-81443750I0J-218750D01*
G01*
G37*
G36*
G01*
X124012500Y-81443750D02*
X124012500Y-81956250D01*
G75*
G02*
X123793750Y-82175000I-218750J0D01*
G01*
X123356250Y-82175000D01*
G75*
G02*
X123137500Y-81956250I0J218750D01*
G01*
X123137500Y-81443750D01*
G75*
G02*
X123356250Y-81225000I218750J0D01*
G01*
X123793750Y-81225000D01*
G75*
G02*
X124012500Y-81443750I0J-218750D01*
G01*
G37*
%TD*%
%TO.C,C2*%
G36*
G01*
X124012500Y-79843750D02*
X124012500Y-80356250D01*
G75*
G02*
X123793750Y-80575000I-218750J0D01*
G01*
X123356250Y-80575000D01*
G75*
G02*
X123137500Y-80356250I0J218750D01*
G01*
X123137500Y-79843750D01*
G75*
G02*
X123356250Y-79625000I218750J0D01*
G01*
X123793750Y-79625000D01*
G75*
G02*
X124012500Y-79843750I0J-218750D01*
G01*
G37*
G36*
G01*
X122437500Y-79843750D02*
X122437500Y-80356250D01*
G75*
G02*
X122218750Y-80575000I-218750J0D01*
G01*
X121781250Y-80575000D01*
G75*
G02*
X121562500Y-80356250I0J218750D01*
G01*
X121562500Y-79843750D01*
G75*
G02*
X121781250Y-79625000I218750J0D01*
G01*
X122218750Y-79625000D01*
G75*
G02*
X122437500Y-79843750I0J-218750D01*
G01*
G37*
%TD*%
%TO.C,C3*%
G36*
G01*
X116743750Y-112062500D02*
X117256250Y-112062500D01*
G75*
G02*
X117475000Y-112281250I0J-218750D01*
G01*
X117475000Y-112718750D01*
G75*
G02*
X117256250Y-112937500I-218750J0D01*
G01*
X116743750Y-112937500D01*
G75*
G02*
X116525000Y-112718750I0J218750D01*
G01*
X116525000Y-112281250D01*
G75*
G02*
X116743750Y-112062500I218750J0D01*
G01*
G37*
G36*
G01*
X116743750Y-110487500D02*
X117256250Y-110487500D01*
G75*
G02*
X117475000Y-110706250I0J-218750D01*
G01*
X117475000Y-111143750D01*
G75*
G02*
X117256250Y-111362500I-218750J0D01*
G01*
X116743750Y-111362500D01*
G75*
G02*
X116525000Y-111143750I0J218750D01*
G01*
X116525000Y-110706250D01*
G75*
G02*
X116743750Y-110487500I218750J0D01*
G01*
G37*
%TD*%
%TO.C,C4*%
G36*
G01*
X115556250Y-112937500D02*
X115043750Y-112937500D01*
G75*
G02*
X114825000Y-112718750I0J218750D01*
G01*
X114825000Y-112281250D01*
G75*
G02*
X115043750Y-112062500I218750J0D01*
G01*
X115556250Y-112062500D01*
G75*
G02*
X115775000Y-112281250I0J-218750D01*
G01*
X115775000Y-112718750D01*
G75*
G02*
X115556250Y-112937500I-218750J0D01*
G01*
G37*
G36*
G01*
X115556250Y-111362500D02*
X115043750Y-111362500D01*
G75*
G02*
X114825000Y-111143750I0J218750D01*
G01*
X114825000Y-110706250D01*
G75*
G02*
X115043750Y-110487500I218750J0D01*
G01*
X115556250Y-110487500D01*
G75*
G02*
X115775000Y-110706250I0J-218750D01*
G01*
X115775000Y-111143750D01*
G75*
G02*
X115556250Y-111362500I-218750J0D01*
G01*
G37*
%TD*%
%TO.C,C5*%
G36*
G01*
X98262500Y-98106250D02*
X98262500Y-97593750D01*
G75*
G02*
X98481250Y-97375000I218750J0D01*
G01*
X98918750Y-97375000D01*
G75*
G02*
X99137500Y-97593750I0J-218750D01*
G01*
X99137500Y-98106250D01*
G75*
G02*
X98918750Y-98325000I-218750J0D01*
G01*
X98481250Y-98325000D01*
G75*
G02*
X98262500Y-98106250I0J218750D01*
G01*
G37*
G36*
G01*
X99837500Y-98106250D02*
X99837500Y-97593750D01*
G75*
G02*
X100056250Y-97375000I218750J0D01*
G01*
X100493750Y-97375000D01*
G75*
G02*
X100712500Y-97593750I0J-218750D01*
G01*
X100712500Y-98106250D01*
G75*
G02*
X100493750Y-98325000I-218750J0D01*
G01*
X100056250Y-98325000D01*
G75*
G02*
X99837500Y-98106250I0J218750D01*
G01*
G37*
%TD*%
%TO.C,C6*%
G36*
G01*
X134537500Y-81443750D02*
X134537500Y-81956250D01*
G75*
G02*
X134318750Y-82175000I-218750J0D01*
G01*
X133881250Y-82175000D01*
G75*
G02*
X133662500Y-81956250I0J218750D01*
G01*
X133662500Y-81443750D01*
G75*
G02*
X133881250Y-81225000I218750J0D01*
G01*
X134318750Y-81225000D01*
G75*
G02*
X134537500Y-81443750I0J-218750D01*
G01*
G37*
G36*
G01*
X136112500Y-81443750D02*
X136112500Y-81956250D01*
G75*
G02*
X135893750Y-82175000I-218750J0D01*
G01*
X135456250Y-82175000D01*
G75*
G02*
X135237500Y-81956250I0J218750D01*
G01*
X135237500Y-81443750D01*
G75*
G02*
X135456250Y-81225000I218750J0D01*
G01*
X135893750Y-81225000D01*
G75*
G02*
X136112500Y-81443750I0J-218750D01*
G01*
G37*
%TD*%
%TO.C,C7*%
G36*
G01*
X136112500Y-79843750D02*
X136112500Y-80356250D01*
G75*
G02*
X135893750Y-80575000I-218750J0D01*
G01*
X135456250Y-80575000D01*
G75*
G02*
X135237500Y-80356250I0J218750D01*
G01*
X135237500Y-79843750D01*
G75*
G02*
X135456250Y-79625000I218750J0D01*
G01*
X135893750Y-79625000D01*
G75*
G02*
X136112500Y-79843750I0J-218750D01*
G01*
G37*
G36*
G01*
X134537500Y-79843750D02*
X134537500Y-80356250D01*
G75*
G02*
X134318750Y-80575000I-218750J0D01*
G01*
X133881250Y-80575000D01*
G75*
G02*
X133662500Y-80356250I0J218750D01*
G01*
X133662500Y-79843750D01*
G75*
G02*
X133881250Y-79625000I218750J0D01*
G01*
X134318750Y-79625000D01*
G75*
G02*
X134537500Y-79843750I0J-218750D01*
G01*
G37*
%TD*%
%TO.C,C8*%
G36*
G01*
X135956250Y-126312500D02*
X135443750Y-126312500D01*
G75*
G02*
X135225000Y-126093750I0J218750D01*
G01*
X135225000Y-125656250D01*
G75*
G02*
X135443750Y-125437500I218750J0D01*
G01*
X135956250Y-125437500D01*
G75*
G02*
X136175000Y-125656250I0J-218750D01*
G01*
X136175000Y-126093750D01*
G75*
G02*
X135956250Y-126312500I-218750J0D01*
G01*
G37*
G36*
G01*
X135956250Y-124737500D02*
X135443750Y-124737500D01*
G75*
G02*
X135225000Y-124518750I0J218750D01*
G01*
X135225000Y-124081250D01*
G75*
G02*
X135443750Y-123862500I218750J0D01*
G01*
X135956250Y-123862500D01*
G75*
G02*
X136175000Y-124081250I0J-218750D01*
G01*
X136175000Y-124518750D01*
G75*
G02*
X135956250Y-124737500I-218750J0D01*
G01*
G37*
%TD*%
%TO.C,C9*%
G36*
G01*
X135956250Y-99312500D02*
X135443750Y-99312500D01*
G75*
G02*
X135225000Y-99093750I0J218750D01*
G01*
X135225000Y-98656250D01*
G75*
G02*
X135443750Y-98437500I218750J0D01*
G01*
X135956250Y-98437500D01*
G75*
G02*
X136175000Y-98656250I0J-218750D01*
G01*
X136175000Y-99093750D01*
G75*
G02*
X135956250Y-99312500I-218750J0D01*
G01*
G37*
G36*
G01*
X135956250Y-97737500D02*
X135443750Y-97737500D01*
G75*
G02*
X135225000Y-97518750I0J218750D01*
G01*
X135225000Y-97081250D01*
G75*
G02*
X135443750Y-96862500I218750J0D01*
G01*
X135956250Y-96862500D01*
G75*
G02*
X136175000Y-97081250I0J-218750D01*
G01*
X136175000Y-97518750D01*
G75*
G02*
X135956250Y-97737500I-218750J0D01*
G01*
G37*
%TD*%
%TO.C,C10*%
G36*
G01*
X137556250Y-124737500D02*
X137043750Y-124737500D01*
G75*
G02*
X136825000Y-124518750I0J218750D01*
G01*
X136825000Y-124081250D01*
G75*
G02*
X137043750Y-123862500I218750J0D01*
G01*
X137556250Y-123862500D01*
G75*
G02*
X137775000Y-124081250I0J-218750D01*
G01*
X137775000Y-124518750D01*
G75*
G02*
X137556250Y-124737500I-218750J0D01*
G01*
G37*
G36*
G01*
X137556250Y-126312500D02*
X137043750Y-126312500D01*
G75*
G02*
X136825000Y-126093750I0J218750D01*
G01*
X136825000Y-125656250D01*
G75*
G02*
X137043750Y-125437500I218750J0D01*
G01*
X137556250Y-125437500D01*
G75*
G02*
X137775000Y-125656250I0J-218750D01*
G01*
X137775000Y-126093750D01*
G75*
G02*
X137556250Y-126312500I-218750J0D01*
G01*
G37*
%TD*%
%TO.C,C11*%
G36*
G01*
X137556250Y-97737500D02*
X137043750Y-97737500D01*
G75*
G02*
X136825000Y-97518750I0J218750D01*
G01*
X136825000Y-97081250D01*
G75*
G02*
X137043750Y-96862500I218750J0D01*
G01*
X137556250Y-96862500D01*
G75*
G02*
X137775000Y-97081250I0J-218750D01*
G01*
X137775000Y-97518750D01*
G75*
G02*
X137556250Y-97737500I-218750J0D01*
G01*
G37*
G36*
G01*
X137556250Y-99312500D02*
X137043750Y-99312500D01*
G75*
G02*
X136825000Y-99093750I0J218750D01*
G01*
X136825000Y-98656250D01*
G75*
G02*
X137043750Y-98437500I218750J0D01*
G01*
X137556250Y-98437500D01*
G75*
G02*
X137775000Y-98656250I0J-218750D01*
G01*
X137775000Y-99093750D01*
G75*
G02*
X137556250Y-99312500I-218750J0D01*
G01*
G37*
%TD*%
%TO.C,C12*%
G36*
G01*
X151537500Y-81443750D02*
X151537500Y-81956250D01*
G75*
G02*
X151318750Y-82175000I-218750J0D01*
G01*
X150881250Y-82175000D01*
G75*
G02*
X150662500Y-81956250I0J218750D01*
G01*
X150662500Y-81443750D01*
G75*
G02*
X150881250Y-81225000I218750J0D01*
G01*
X151318750Y-81225000D01*
G75*
G02*
X151537500Y-81443750I0J-218750D01*
G01*
G37*
G36*
G01*
X153112500Y-81443750D02*
X153112500Y-81956250D01*
G75*
G02*
X152893750Y-82175000I-218750J0D01*
G01*
X152456250Y-82175000D01*
G75*
G02*
X152237500Y-81956250I0J218750D01*
G01*
X152237500Y-81443750D01*
G75*
G02*
X152456250Y-81225000I218750J0D01*
G01*
X152893750Y-81225000D01*
G75*
G02*
X153112500Y-81443750I0J-218750D01*
G01*
G37*
%TD*%
%TO.C,C13*%
G36*
G01*
X153112500Y-79843750D02*
X153112500Y-80356250D01*
G75*
G02*
X152893750Y-80575000I-218750J0D01*
G01*
X152456250Y-80575000D01*
G75*
G02*
X152237500Y-80356250I0J218750D01*
G01*
X152237500Y-79843750D01*
G75*
G02*
X152456250Y-79625000I218750J0D01*
G01*
X152893750Y-79625000D01*
G75*
G02*
X153112500Y-79843750I0J-218750D01*
G01*
G37*
G36*
G01*
X151537500Y-79843750D02*
X151537500Y-80356250D01*
G75*
G02*
X151318750Y-80575000I-218750J0D01*
G01*
X150881250Y-80575000D01*
G75*
G02*
X150662500Y-80356250I0J218750D01*
G01*
X150662500Y-79843750D01*
G75*
G02*
X150881250Y-79625000I218750J0D01*
G01*
X151318750Y-79625000D01*
G75*
G02*
X151537500Y-79843750I0J-218750D01*
G01*
G37*
%TD*%
%TO.C,C14*%
G36*
G01*
X152956250Y-99312500D02*
X152443750Y-99312500D01*
G75*
G02*
X152225000Y-99093750I0J218750D01*
G01*
X152225000Y-98656250D01*
G75*
G02*
X152443750Y-98437500I218750J0D01*
G01*
X152956250Y-98437500D01*
G75*
G02*
X153175000Y-98656250I0J-218750D01*
G01*
X153175000Y-99093750D01*
G75*
G02*
X152956250Y-99312500I-218750J0D01*
G01*
G37*
G36*
G01*
X152956250Y-97737500D02*
X152443750Y-97737500D01*
G75*
G02*
X152225000Y-97518750I0J218750D01*
G01*
X152225000Y-97081250D01*
G75*
G02*
X152443750Y-96862500I218750J0D01*
G01*
X152956250Y-96862500D01*
G75*
G02*
X153175000Y-97081250I0J-218750D01*
G01*
X153175000Y-97518750D01*
G75*
G02*
X152956250Y-97737500I-218750J0D01*
G01*
G37*
%TD*%
%TO.C,C15*%
G36*
G01*
X152956250Y-126312500D02*
X152443750Y-126312500D01*
G75*
G02*
X152225000Y-126093750I0J218750D01*
G01*
X152225000Y-125656250D01*
G75*
G02*
X152443750Y-125437500I218750J0D01*
G01*
X152956250Y-125437500D01*
G75*
G02*
X153175000Y-125656250I0J-218750D01*
G01*
X153175000Y-126093750D01*
G75*
G02*
X152956250Y-126312500I-218750J0D01*
G01*
G37*
G36*
G01*
X152956250Y-124737500D02*
X152443750Y-124737500D01*
G75*
G02*
X152225000Y-124518750I0J218750D01*
G01*
X152225000Y-124081250D01*
G75*
G02*
X152443750Y-123862500I218750J0D01*
G01*
X152956250Y-123862500D01*
G75*
G02*
X153175000Y-124081250I0J-218750D01*
G01*
X153175000Y-124518750D01*
G75*
G02*
X152956250Y-124737500I-218750J0D01*
G01*
G37*
%TD*%
%TO.C,C16*%
G36*
G01*
X154556250Y-97737500D02*
X154043750Y-97737500D01*
G75*
G02*
X153825000Y-97518750I0J218750D01*
G01*
X153825000Y-97081250D01*
G75*
G02*
X154043750Y-96862500I218750J0D01*
G01*
X154556250Y-96862500D01*
G75*
G02*
X154775000Y-97081250I0J-218750D01*
G01*
X154775000Y-97518750D01*
G75*
G02*
X154556250Y-97737500I-218750J0D01*
G01*
G37*
G36*
G01*
X154556250Y-99312500D02*
X154043750Y-99312500D01*
G75*
G02*
X153825000Y-99093750I0J218750D01*
G01*
X153825000Y-98656250D01*
G75*
G02*
X154043750Y-98437500I218750J0D01*
G01*
X154556250Y-98437500D01*
G75*
G02*
X154775000Y-98656250I0J-218750D01*
G01*
X154775000Y-99093750D01*
G75*
G02*
X154556250Y-99312500I-218750J0D01*
G01*
G37*
%TD*%
%TO.C,C17*%
G36*
G01*
X154556250Y-124737500D02*
X154043750Y-124737500D01*
G75*
G02*
X153825000Y-124518750I0J218750D01*
G01*
X153825000Y-124081250D01*
G75*
G02*
X154043750Y-123862500I218750J0D01*
G01*
X154556250Y-123862500D01*
G75*
G02*
X154775000Y-124081250I0J-218750D01*
G01*
X154775000Y-124518750D01*
G75*
G02*
X154556250Y-124737500I-218750J0D01*
G01*
G37*
G36*
G01*
X154556250Y-126312500D02*
X154043750Y-126312500D01*
G75*
G02*
X153825000Y-126093750I0J218750D01*
G01*
X153825000Y-125656250D01*
G75*
G02*
X154043750Y-125437500I218750J0D01*
G01*
X154556250Y-125437500D01*
G75*
G02*
X154775000Y-125656250I0J-218750D01*
G01*
X154775000Y-126093750D01*
G75*
G02*
X154556250Y-126312500I-218750J0D01*
G01*
G37*
%TD*%
%TO.C,C18*%
G36*
G01*
X119706250Y-51787500D02*
X119193750Y-51787500D01*
G75*
G02*
X118975000Y-51568750I0J218750D01*
G01*
X118975000Y-51131250D01*
G75*
G02*
X119193750Y-50912500I218750J0D01*
G01*
X119706250Y-50912500D01*
G75*
G02*
X119925000Y-51131250I0J-218750D01*
G01*
X119925000Y-51568750D01*
G75*
G02*
X119706250Y-51787500I-218750J0D01*
G01*
G37*
G36*
G01*
X119706250Y-53362500D02*
X119193750Y-53362500D01*
G75*
G02*
X118975000Y-53143750I0J218750D01*
G01*
X118975000Y-52706250D01*
G75*
G02*
X119193750Y-52487500I218750J0D01*
G01*
X119706250Y-52487500D01*
G75*
G02*
X119925000Y-52706250I0J-218750D01*
G01*
X119925000Y-53143750D01*
G75*
G02*
X119706250Y-53362500I-218750J0D01*
G01*
G37*
%TD*%
%TO.C,C19*%
G36*
G01*
X118056250Y-53362500D02*
X117543750Y-53362500D01*
G75*
G02*
X117325000Y-53143750I0J218750D01*
G01*
X117325000Y-52706250D01*
G75*
G02*
X117543750Y-52487500I218750J0D01*
G01*
X118056250Y-52487500D01*
G75*
G02*
X118275000Y-52706250I0J-218750D01*
G01*
X118275000Y-53143750D01*
G75*
G02*
X118056250Y-53362500I-218750J0D01*
G01*
G37*
G36*
G01*
X118056250Y-51787500D02*
X117543750Y-51787500D01*
G75*
G02*
X117325000Y-51568750I0J218750D01*
G01*
X117325000Y-51131250D01*
G75*
G02*
X117543750Y-50912500I218750J0D01*
G01*
X118056250Y-50912500D01*
G75*
G02*
X118275000Y-51131250I0J-218750D01*
G01*
X118275000Y-51568750D01*
G75*
G02*
X118056250Y-51787500I-218750J0D01*
G01*
G37*
%TD*%
D10*
%TO.C,Q1*%
X91900000Y-98800000D03*
X93900000Y-99750000D03*
X93900000Y-97850000D03*
%TD*%
D11*
%TO.C,Q2*%
X114000000Y-53350000D03*
X114950000Y-51350000D03*
X113050000Y-51350000D03*
%TD*%
%TO.C,Q3*%
X121100000Y-49350000D03*
X123000000Y-49350000D03*
X122050000Y-51350000D03*
%TD*%
D10*
%TO.C,Q4*%
X121800000Y-62250000D03*
X121800000Y-60350000D03*
X123800000Y-61300000D03*
%TD*%
%TO.C,R1*%
G36*
G01*
X118456250Y-80462500D02*
X117943750Y-80462500D01*
G75*
G02*
X117725000Y-80243750I0J218750D01*
G01*
X117725000Y-79806250D01*
G75*
G02*
X117943750Y-79587500I218750J0D01*
G01*
X118456250Y-79587500D01*
G75*
G02*
X118675000Y-79806250I0J-218750D01*
G01*
X118675000Y-80243750D01*
G75*
G02*
X118456250Y-80462500I-218750J0D01*
G01*
G37*
G36*
G01*
X118456250Y-82037500D02*
X117943750Y-82037500D01*
G75*
G02*
X117725000Y-81818750I0J218750D01*
G01*
X117725000Y-81381250D01*
G75*
G02*
X117943750Y-81162500I218750J0D01*
G01*
X118456250Y-81162500D01*
G75*
G02*
X118675000Y-81381250I0J-218750D01*
G01*
X118675000Y-81818750D01*
G75*
G02*
X118456250Y-82037500I-218750J0D01*
G01*
G37*
%TD*%
%TO.C,R3*%
G36*
G01*
X121237500Y-105356250D02*
X121237500Y-104843750D01*
G75*
G02*
X121456250Y-104625000I218750J0D01*
G01*
X121893750Y-104625000D01*
G75*
G02*
X122112500Y-104843750I0J-218750D01*
G01*
X122112500Y-105356250D01*
G75*
G02*
X121893750Y-105575000I-218750J0D01*
G01*
X121456250Y-105575000D01*
G75*
G02*
X121237500Y-105356250I0J218750D01*
G01*
G37*
G36*
G01*
X119662500Y-105356250D02*
X119662500Y-104843750D01*
G75*
G02*
X119881250Y-104625000I218750J0D01*
G01*
X120318750Y-104625000D01*
G75*
G02*
X120537500Y-104843750I0J-218750D01*
G01*
X120537500Y-105356250D01*
G75*
G02*
X120318750Y-105575000I-218750J0D01*
G01*
X119881250Y-105575000D01*
G75*
G02*
X119662500Y-105356250I0J218750D01*
G01*
G37*
%TD*%
%TO.C,R5*%
G36*
G01*
X117962500Y-105356250D02*
X117962500Y-104843750D01*
G75*
G02*
X118181250Y-104625000I218750J0D01*
G01*
X118618750Y-104625000D01*
G75*
G02*
X118837500Y-104843750I0J-218750D01*
G01*
X118837500Y-105356250D01*
G75*
G02*
X118618750Y-105575000I-218750J0D01*
G01*
X118181250Y-105575000D01*
G75*
G02*
X117962500Y-105356250I0J218750D01*
G01*
G37*
G36*
G01*
X116387500Y-105356250D02*
X116387500Y-104843750D01*
G75*
G02*
X116606250Y-104625000I218750J0D01*
G01*
X117043750Y-104625000D01*
G75*
G02*
X117262500Y-104843750I0J-218750D01*
G01*
X117262500Y-105356250D01*
G75*
G02*
X117043750Y-105575000I-218750J0D01*
G01*
X116606250Y-105575000D01*
G75*
G02*
X116387500Y-105356250I0J218750D01*
G01*
G37*
%TD*%
%TO.C,R6*%
G36*
G01*
X118837500Y-102443750D02*
X118837500Y-102956250D01*
G75*
G02*
X118618750Y-103175000I-218750J0D01*
G01*
X118181250Y-103175000D01*
G75*
G02*
X117962500Y-102956250I0J218750D01*
G01*
X117962500Y-102443750D01*
G75*
G02*
X118181250Y-102225000I218750J0D01*
G01*
X118618750Y-102225000D01*
G75*
G02*
X118837500Y-102443750I0J-218750D01*
G01*
G37*
G36*
G01*
X117262500Y-102443750D02*
X117262500Y-102956250D01*
G75*
G02*
X117043750Y-103175000I-218750J0D01*
G01*
X116606250Y-103175000D01*
G75*
G02*
X116387500Y-102956250I0J218750D01*
G01*
X116387500Y-102443750D01*
G75*
G02*
X116606250Y-102225000I218750J0D01*
G01*
X117043750Y-102225000D01*
G75*
G02*
X117262500Y-102443750I0J-218750D01*
G01*
G37*
%TD*%
%TO.C,R7*%
G36*
G01*
X96737500Y-100006250D02*
X96737500Y-99493750D01*
G75*
G02*
X96956250Y-99275000I218750J0D01*
G01*
X97393750Y-99275000D01*
G75*
G02*
X97612500Y-99493750I0J-218750D01*
G01*
X97612500Y-100006250D01*
G75*
G02*
X97393750Y-100225000I-218750J0D01*
G01*
X96956250Y-100225000D01*
G75*
G02*
X96737500Y-100006250I0J218750D01*
G01*
G37*
G36*
G01*
X95162500Y-100006250D02*
X95162500Y-99493750D01*
G75*
G02*
X95381250Y-99275000I218750J0D01*
G01*
X95818750Y-99275000D01*
G75*
G02*
X96037500Y-99493750I0J-218750D01*
G01*
X96037500Y-100006250D01*
G75*
G02*
X95818750Y-100225000I-218750J0D01*
G01*
X95381250Y-100225000D01*
G75*
G02*
X95162500Y-100006250I0J218750D01*
G01*
G37*
%TD*%
%TO.C,R8*%
G36*
G01*
X98262500Y-100006250D02*
X98262500Y-99493750D01*
G75*
G02*
X98481250Y-99275000I218750J0D01*
G01*
X98918750Y-99275000D01*
G75*
G02*
X99137500Y-99493750I0J-218750D01*
G01*
X99137500Y-100006250D01*
G75*
G02*
X98918750Y-100225000I-218750J0D01*
G01*
X98481250Y-100225000D01*
G75*
G02*
X98262500Y-100006250I0J218750D01*
G01*
G37*
G36*
G01*
X99837500Y-100006250D02*
X99837500Y-99493750D01*
G75*
G02*
X100056250Y-99275000I218750J0D01*
G01*
X100493750Y-99275000D01*
G75*
G02*
X100712500Y-99493750I0J-218750D01*
G01*
X100712500Y-100006250D01*
G75*
G02*
X100493750Y-100225000I-218750J0D01*
G01*
X100056250Y-100225000D01*
G75*
G02*
X99837500Y-100006250I0J218750D01*
G01*
G37*
%TD*%
%TO.C,R9*%
G36*
G01*
X96012500Y-97593750D02*
X96012500Y-98106250D01*
G75*
G02*
X95793750Y-98325000I-218750J0D01*
G01*
X95356250Y-98325000D01*
G75*
G02*
X95137500Y-98106250I0J218750D01*
G01*
X95137500Y-97593750D01*
G75*
G02*
X95356250Y-97375000I218750J0D01*
G01*
X95793750Y-97375000D01*
G75*
G02*
X96012500Y-97593750I0J-218750D01*
G01*
G37*
G36*
G01*
X97587500Y-97593750D02*
X97587500Y-98106250D01*
G75*
G02*
X97368750Y-98325000I-218750J0D01*
G01*
X96931250Y-98325000D01*
G75*
G02*
X96712500Y-98106250I0J218750D01*
G01*
X96712500Y-97593750D01*
G75*
G02*
X96931250Y-97375000I218750J0D01*
G01*
X97368750Y-97375000D01*
G75*
G02*
X97587500Y-97593750I0J-218750D01*
G01*
G37*
%TD*%
%TO.C,R10*%
G36*
G01*
X128506250Y-81262500D02*
X127993750Y-81262500D01*
G75*
G02*
X127775000Y-81043750I0J218750D01*
G01*
X127775000Y-80606250D01*
G75*
G02*
X127993750Y-80387500I218750J0D01*
G01*
X128506250Y-80387500D01*
G75*
G02*
X128725000Y-80606250I0J-218750D01*
G01*
X128725000Y-81043750D01*
G75*
G02*
X128506250Y-81262500I-218750J0D01*
G01*
G37*
G36*
G01*
X128506250Y-79687500D02*
X127993750Y-79687500D01*
G75*
G02*
X127775000Y-79468750I0J218750D01*
G01*
X127775000Y-79031250D01*
G75*
G02*
X127993750Y-78812500I218750J0D01*
G01*
X128506250Y-78812500D01*
G75*
G02*
X128725000Y-79031250I0J-218750D01*
G01*
X128725000Y-79468750D01*
G75*
G02*
X128506250Y-79687500I-218750J0D01*
G01*
G37*
%TD*%
%TO.C,R11*%
G36*
G01*
X145556250Y-78562500D02*
X145043750Y-78562500D01*
G75*
G02*
X144825000Y-78343750I0J218750D01*
G01*
X144825000Y-77906250D01*
G75*
G02*
X145043750Y-77687500I218750J0D01*
G01*
X145556250Y-77687500D01*
G75*
G02*
X145775000Y-77906250I0J-218750D01*
G01*
X145775000Y-78343750D01*
G75*
G02*
X145556250Y-78562500I-218750J0D01*
G01*
G37*
G36*
G01*
X145556250Y-80137500D02*
X145043750Y-80137500D01*
G75*
G02*
X144825000Y-79918750I0J218750D01*
G01*
X144825000Y-79481250D01*
G75*
G02*
X145043750Y-79262500I218750J0D01*
G01*
X145556250Y-79262500D01*
G75*
G02*
X145775000Y-79481250I0J-218750D01*
G01*
X145775000Y-79918750D01*
G75*
G02*
X145556250Y-80137500I-218750J0D01*
G01*
G37*
%TD*%
%TO.C,R12*%
G36*
G01*
X111743750Y-60062500D02*
X112256250Y-60062500D01*
G75*
G02*
X112475000Y-60281250I0J-218750D01*
G01*
X112475000Y-60718750D01*
G75*
G02*
X112256250Y-60937500I-218750J0D01*
G01*
X111743750Y-60937500D01*
G75*
G02*
X111525000Y-60718750I0J218750D01*
G01*
X111525000Y-60281250D01*
G75*
G02*
X111743750Y-60062500I218750J0D01*
G01*
G37*
G36*
G01*
X111743750Y-58487500D02*
X112256250Y-58487500D01*
G75*
G02*
X112475000Y-58706250I0J-218750D01*
G01*
X112475000Y-59143750D01*
G75*
G02*
X112256250Y-59362500I-218750J0D01*
G01*
X111743750Y-59362500D01*
G75*
G02*
X111525000Y-59143750I0J218750D01*
G01*
X111525000Y-58706250D01*
G75*
G02*
X111743750Y-58487500I218750J0D01*
G01*
G37*
%TD*%
%TO.C,R13*%
G36*
G01*
X119837500Y-49093750D02*
X119837500Y-49606250D01*
G75*
G02*
X119618750Y-49825000I-218750J0D01*
G01*
X119181250Y-49825000D01*
G75*
G02*
X118962500Y-49606250I0J218750D01*
G01*
X118962500Y-49093750D01*
G75*
G02*
X119181250Y-48875000I218750J0D01*
G01*
X119618750Y-48875000D01*
G75*
G02*
X119837500Y-49093750I0J-218750D01*
G01*
G37*
G36*
G01*
X118262500Y-49093750D02*
X118262500Y-49606250D01*
G75*
G02*
X118043750Y-49825000I-218750J0D01*
G01*
X117606250Y-49825000D01*
G75*
G02*
X117387500Y-49606250I0J218750D01*
G01*
X117387500Y-49093750D01*
G75*
G02*
X117606250Y-48875000I218750J0D01*
G01*
X118043750Y-48875000D01*
G75*
G02*
X118262500Y-49093750I0J-218750D01*
G01*
G37*
%TD*%
%TO.C,R14*%
G36*
G01*
X118187500Y-62556250D02*
X118187500Y-62043750D01*
G75*
G02*
X118406250Y-61825000I218750J0D01*
G01*
X118843750Y-61825000D01*
G75*
G02*
X119062500Y-62043750I0J-218750D01*
G01*
X119062500Y-62556250D01*
G75*
G02*
X118843750Y-62775000I-218750J0D01*
G01*
X118406250Y-62775000D01*
G75*
G02*
X118187500Y-62556250I0J218750D01*
G01*
G37*
G36*
G01*
X119762500Y-62556250D02*
X119762500Y-62043750D01*
G75*
G02*
X119981250Y-61825000I218750J0D01*
G01*
X120418750Y-61825000D01*
G75*
G02*
X120637500Y-62043750I0J-218750D01*
G01*
X120637500Y-62556250D01*
G75*
G02*
X120418750Y-62775000I-218750J0D01*
G01*
X119981250Y-62775000D01*
G75*
G02*
X119762500Y-62556250I0J218750D01*
G01*
G37*
%TD*%
%TO.C,R15*%
G36*
G01*
X133743750Y-54062500D02*
X134256250Y-54062500D01*
G75*
G02*
X134475000Y-54281250I0J-218750D01*
G01*
X134475000Y-54718750D01*
G75*
G02*
X134256250Y-54937500I-218750J0D01*
G01*
X133743750Y-54937500D01*
G75*
G02*
X133525000Y-54718750I0J218750D01*
G01*
X133525000Y-54281250D01*
G75*
G02*
X133743750Y-54062500I218750J0D01*
G01*
G37*
G36*
G01*
X133743750Y-55637500D02*
X134256250Y-55637500D01*
G75*
G02*
X134475000Y-55856250I0J-218750D01*
G01*
X134475000Y-56293750D01*
G75*
G02*
X134256250Y-56512500I-218750J0D01*
G01*
X133743750Y-56512500D01*
G75*
G02*
X133525000Y-56293750I0J218750D01*
G01*
X133525000Y-55856250D01*
G75*
G02*
X133743750Y-55637500I218750J0D01*
G01*
G37*
%TD*%
%TO.C,R16*%
G36*
G01*
X141743750Y-55637500D02*
X142256250Y-55637500D01*
G75*
G02*
X142475000Y-55856250I0J-218750D01*
G01*
X142475000Y-56293750D01*
G75*
G02*
X142256250Y-56512500I-218750J0D01*
G01*
X141743750Y-56512500D01*
G75*
G02*
X141525000Y-56293750I0J218750D01*
G01*
X141525000Y-55856250D01*
G75*
G02*
X141743750Y-55637500I218750J0D01*
G01*
G37*
G36*
G01*
X141743750Y-54062500D02*
X142256250Y-54062500D01*
G75*
G02*
X142475000Y-54281250I0J-218750D01*
G01*
X142475000Y-54718750D01*
G75*
G02*
X142256250Y-54937500I-218750J0D01*
G01*
X141743750Y-54937500D01*
G75*
G02*
X141525000Y-54718750I0J218750D01*
G01*
X141525000Y-54281250D01*
G75*
G02*
X141743750Y-54062500I218750J0D01*
G01*
G37*
%TD*%
%TO.C,R17*%
G36*
G01*
X149743750Y-54062500D02*
X150256250Y-54062500D01*
G75*
G02*
X150475000Y-54281250I0J-218750D01*
G01*
X150475000Y-54718750D01*
G75*
G02*
X150256250Y-54937500I-218750J0D01*
G01*
X149743750Y-54937500D01*
G75*
G02*
X149525000Y-54718750I0J218750D01*
G01*
X149525000Y-54281250D01*
G75*
G02*
X149743750Y-54062500I218750J0D01*
G01*
G37*
G36*
G01*
X149743750Y-55637500D02*
X150256250Y-55637500D01*
G75*
G02*
X150475000Y-55856250I0J-218750D01*
G01*
X150475000Y-56293750D01*
G75*
G02*
X150256250Y-56512500I-218750J0D01*
G01*
X149743750Y-56512500D01*
G75*
G02*
X149525000Y-56293750I0J218750D01*
G01*
X149525000Y-55856250D01*
G75*
G02*
X149743750Y-55637500I218750J0D01*
G01*
G37*
%TD*%
%TO.C,R18*%
G36*
G01*
X157743750Y-54062500D02*
X158256250Y-54062500D01*
G75*
G02*
X158475000Y-54281250I0J-218750D01*
G01*
X158475000Y-54718750D01*
G75*
G02*
X158256250Y-54937500I-218750J0D01*
G01*
X157743750Y-54937500D01*
G75*
G02*
X157525000Y-54718750I0J218750D01*
G01*
X157525000Y-54281250D01*
G75*
G02*
X157743750Y-54062500I218750J0D01*
G01*
G37*
G36*
G01*
X157743750Y-55637500D02*
X158256250Y-55637500D01*
G75*
G02*
X158475000Y-55856250I0J-218750D01*
G01*
X158475000Y-56293750D01*
G75*
G02*
X158256250Y-56512500I-218750J0D01*
G01*
X157743750Y-56512500D01*
G75*
G02*
X157525000Y-56293750I0J218750D01*
G01*
X157525000Y-55856250D01*
G75*
G02*
X157743750Y-55637500I218750J0D01*
G01*
G37*
%TD*%
D12*
%TO.C,U3*%
X134100000Y-83700000D03*
X133450000Y-83700000D03*
X132800000Y-83700000D03*
X132150000Y-83700000D03*
X131500000Y-83700000D03*
X130850000Y-83700000D03*
X130200000Y-83700000D03*
X129550000Y-83700000D03*
X128900000Y-83700000D03*
X128250000Y-83700000D03*
X127600000Y-83700000D03*
X126950000Y-83700000D03*
X126950000Y-90900000D03*
X127600000Y-90900000D03*
X128250000Y-90900000D03*
X128900000Y-90900000D03*
X129550000Y-90900000D03*
X130200000Y-90900000D03*
X130850000Y-90900000D03*
X131500000Y-90900000D03*
X132150000Y-90900000D03*
X132800000Y-90900000D03*
X133450000Y-90900000D03*
X134100000Y-90900000D03*
%TD*%
%TO.C,U4*%
X151150000Y-91000000D03*
X150500000Y-91000000D03*
X149850000Y-91000000D03*
X149200000Y-91000000D03*
X148550000Y-91000000D03*
X147900000Y-91000000D03*
X147250000Y-91000000D03*
X146600000Y-91000000D03*
X145950000Y-91000000D03*
X145300000Y-91000000D03*
X144650000Y-91000000D03*
X144000000Y-91000000D03*
X144000000Y-83800000D03*
X144650000Y-83800000D03*
X145300000Y-83800000D03*
X145950000Y-83800000D03*
X146600000Y-83800000D03*
X147250000Y-83800000D03*
X147900000Y-83800000D03*
X148550000Y-83800000D03*
X149200000Y-83800000D03*
X149850000Y-83800000D03*
X150500000Y-83800000D03*
X151150000Y-83800000D03*
%TD*%
M02*
