%TF.GenerationSoftware,KiCad,Pcbnew,5.1.6-c6e7f7d~87~ubuntu18.04.1*%
%TF.CreationDate,2020-08-12T00:38:11-03:00*%
%TF.ProjectId,tfMainBoard,74664d61-696e-4426-9f61-72642e6b6963,Rev 1.0.0*%
%TF.SameCoordinates,Original*%
%TF.FileFunction,Legend,Bot*%
%TF.FilePolarity,Positive*%
%FSLAX46Y46*%
G04 Gerber Fmt 4.6, Leading zero omitted, Abs format (unit mm)*
G04 Created by KiCad (PCBNEW 5.1.6-c6e7f7d~87~ubuntu18.04.1) date 2020-08-12 00:38:11*
%MOMM*%
%LPD*%
G01*
G04 APERTURE LIST*
%ADD10C,0.150000*%
%ADD11C,0.120000*%
G04 APERTURE END LIST*
D10*
X166712023Y-73052380D02*
X166712023Y-73242857D01*
X166331071Y-73052380D02*
X166331071Y-73242857D01*
X165712023Y-73052380D02*
X165521547Y-73052380D01*
X165426309Y-73100000D01*
X165331071Y-73195238D01*
X165283452Y-73385714D01*
X165283452Y-73719047D01*
X165331071Y-73909523D01*
X165426309Y-74004761D01*
X165521547Y-74052380D01*
X165712023Y-74052380D01*
X165807261Y-74004761D01*
X165902500Y-73909523D01*
X165950119Y-73719047D01*
X165950119Y-73385714D01*
X165902500Y-73195238D01*
X165807261Y-73100000D01*
X165712023Y-73052380D01*
X163426309Y-74147619D02*
X163521547Y-74100000D01*
X163616785Y-74004761D01*
X163759642Y-73861904D01*
X163854880Y-73814285D01*
X163950119Y-73814285D01*
X163902500Y-74052380D02*
X163997738Y-74004761D01*
X164092976Y-73909523D01*
X164140595Y-73719047D01*
X164140595Y-73385714D01*
X164092976Y-73195238D01*
X163997738Y-73100000D01*
X163902500Y-73052380D01*
X163712023Y-73052380D01*
X163616785Y-73100000D01*
X163521547Y-73195238D01*
X163473928Y-73385714D01*
X163473928Y-73719047D01*
X163521547Y-73909523D01*
X163616785Y-74004761D01*
X163712023Y-74052380D01*
X163902500Y-74052380D01*
X162616785Y-73385714D02*
X162616785Y-74052380D01*
X163045357Y-73385714D02*
X163045357Y-73909523D01*
X162997738Y-74004761D01*
X162902500Y-74052380D01*
X162759642Y-74052380D01*
X162664404Y-74004761D01*
X162616785Y-73957142D01*
X161759642Y-74004761D02*
X161854880Y-74052380D01*
X162045357Y-74052380D01*
X162140595Y-74004761D01*
X162188214Y-73909523D01*
X162188214Y-73528571D01*
X162140595Y-73433333D01*
X162045357Y-73385714D01*
X161854880Y-73385714D01*
X161759642Y-73433333D01*
X161712023Y-73528571D01*
X161712023Y-73623809D01*
X162188214Y-73719047D01*
X160521547Y-74052380D02*
X160521547Y-73052380D01*
X160521547Y-73528571D02*
X159950119Y-73528571D01*
X159950119Y-74052380D02*
X159950119Y-73052380D01*
X159045357Y-74052380D02*
X159045357Y-73528571D01*
X159092976Y-73433333D01*
X159188214Y-73385714D01*
X159378690Y-73385714D01*
X159473928Y-73433333D01*
X159045357Y-74004761D02*
X159140595Y-74052380D01*
X159378690Y-74052380D01*
X159473928Y-74004761D01*
X159521547Y-73909523D01*
X159521547Y-73814285D01*
X159473928Y-73719047D01*
X159378690Y-73671428D01*
X159140595Y-73671428D01*
X159045357Y-73623809D01*
X159188214Y-73004761D02*
X159331071Y-73147619D01*
X158616785Y-73052380D02*
X158616785Y-73242857D01*
X158235833Y-73052380D02*
X158235833Y-73242857D01*
X157045357Y-73671428D02*
X156283452Y-73671428D01*
X155092976Y-73766666D02*
X154616785Y-73766666D01*
X155188214Y-74052380D02*
X154854880Y-73052380D01*
X154521547Y-74052380D01*
X154759642Y-72671428D02*
X154902500Y-72814285D01*
X154045357Y-74052380D02*
X154140595Y-74004761D01*
X154188214Y-73909523D01*
X154188214Y-73052380D01*
X153759642Y-73385714D02*
X153521547Y-74052380D01*
X153283452Y-73385714D01*
X152473928Y-74052380D02*
X152473928Y-73528571D01*
X152521547Y-73433333D01*
X152616785Y-73385714D01*
X152807261Y-73385714D01*
X152902500Y-73433333D01*
X152473928Y-74004761D02*
X152569166Y-74052380D01*
X152807261Y-74052380D01*
X152902500Y-74004761D01*
X152950119Y-73909523D01*
X152950119Y-73814285D01*
X152902500Y-73719047D01*
X152807261Y-73671428D01*
X152569166Y-73671428D01*
X152473928Y-73623809D01*
X151997738Y-74052380D02*
X151997738Y-73385714D01*
X151997738Y-73576190D02*
X151950119Y-73480952D01*
X151902500Y-73433333D01*
X151807261Y-73385714D01*
X151712023Y-73385714D01*
X151235833Y-74052380D02*
X151331071Y-74004761D01*
X151378690Y-73957142D01*
X151426309Y-73861904D01*
X151426309Y-73576190D01*
X151378690Y-73480952D01*
X151331071Y-73433333D01*
X151235833Y-73385714D01*
X151092976Y-73385714D01*
X150997738Y-73433333D01*
X150950119Y-73480952D01*
X150902500Y-73576190D01*
X150902500Y-73861904D01*
X150950119Y-73957142D01*
X150997738Y-74004761D01*
X151092976Y-74052380D01*
X151235833Y-74052380D01*
X149283452Y-74052380D02*
X149283452Y-73052380D01*
X149283452Y-74004761D02*
X149378690Y-74052380D01*
X149569166Y-74052380D01*
X149664404Y-74004761D01*
X149712023Y-73957142D01*
X149759642Y-73861904D01*
X149759642Y-73576190D01*
X149712023Y-73480952D01*
X149664404Y-73433333D01*
X149569166Y-73385714D01*
X149378690Y-73385714D01*
X149283452Y-73433333D01*
X148426309Y-74004761D02*
X148521547Y-74052380D01*
X148712023Y-74052380D01*
X148807261Y-74004761D01*
X148854880Y-73909523D01*
X148854880Y-73528571D01*
X148807261Y-73433333D01*
X148712023Y-73385714D01*
X148521547Y-73385714D01*
X148426309Y-73433333D01*
X148378690Y-73528571D01*
X148378690Y-73623809D01*
X148854880Y-73719047D01*
X146616785Y-73957142D02*
X146664404Y-74004761D01*
X146807261Y-74052380D01*
X146902500Y-74052380D01*
X147045357Y-74004761D01*
X147140595Y-73909523D01*
X147188214Y-73814285D01*
X147235833Y-73623809D01*
X147235833Y-73480952D01*
X147188214Y-73290476D01*
X147140595Y-73195238D01*
X147045357Y-73100000D01*
X146902500Y-73052380D01*
X146807261Y-73052380D01*
X146664404Y-73100000D01*
X146616785Y-73147619D01*
X145759642Y-74052380D02*
X145759642Y-73528571D01*
X145807261Y-73433333D01*
X145902500Y-73385714D01*
X146092976Y-73385714D01*
X146188214Y-73433333D01*
X145759642Y-74004761D02*
X145854880Y-74052380D01*
X146092976Y-74052380D01*
X146188214Y-74004761D01*
X146235833Y-73909523D01*
X146235833Y-73814285D01*
X146188214Y-73719047D01*
X146092976Y-73671428D01*
X145854880Y-73671428D01*
X145759642Y-73623809D01*
X145283452Y-74052380D02*
X145283452Y-73385714D01*
X145283452Y-73480952D02*
X145235833Y-73433333D01*
X145140595Y-73385714D01*
X144997738Y-73385714D01*
X144902500Y-73433333D01*
X144854880Y-73528571D01*
X144854880Y-74052380D01*
X144854880Y-73528571D02*
X144807261Y-73433333D01*
X144712023Y-73385714D01*
X144569166Y-73385714D01*
X144473928Y-73433333D01*
X144426309Y-73528571D01*
X144426309Y-74052380D01*
X143950119Y-73385714D02*
X143950119Y-74385714D01*
X143950119Y-73433333D02*
X143854880Y-73385714D01*
X143664404Y-73385714D01*
X143569166Y-73433333D01*
X143521547Y-73480952D01*
X143473928Y-73576190D01*
X143473928Y-73861904D01*
X143521547Y-73957142D01*
X143569166Y-74004761D01*
X143664404Y-74052380D01*
X143854880Y-74052380D01*
X143950119Y-74004761D01*
X142902500Y-74052380D02*
X142997738Y-74004761D01*
X143045357Y-73957142D01*
X143092976Y-73861904D01*
X143092976Y-73576190D01*
X143045357Y-73480952D01*
X142997738Y-73433333D01*
X142902500Y-73385714D01*
X142759642Y-73385714D01*
X142664404Y-73433333D01*
X142616785Y-73480952D01*
X142569166Y-73576190D01*
X142569166Y-73861904D01*
X142616785Y-73957142D01*
X142664404Y-74004761D01*
X142759642Y-74052380D01*
X142902500Y-74052380D01*
X142188214Y-74004761D02*
X142092976Y-74052380D01*
X141902500Y-74052380D01*
X141807261Y-74004761D01*
X141759642Y-73909523D01*
X141759642Y-73861904D01*
X141807261Y-73766666D01*
X141902500Y-73719047D01*
X142045357Y-73719047D01*
X142140595Y-73671428D01*
X142188214Y-73576190D01*
X142188214Y-73528571D01*
X142140595Y-73433333D01*
X142045357Y-73385714D01*
X141902500Y-73385714D01*
X141807261Y-73433333D01*
X101627380Y-52738095D02*
X100627380Y-52738095D01*
X101103571Y-53547619D02*
X101103571Y-53214285D01*
X101627380Y-53214285D02*
X100627380Y-53214285D01*
X100627380Y-53690476D01*
X100627380Y-54833333D02*
X101436904Y-54833333D01*
X101532142Y-54880952D01*
X101579761Y-54928571D01*
X101627380Y-55023809D01*
X101627380Y-55214285D01*
X101579761Y-55309523D01*
X101532142Y-55357142D01*
X101436904Y-55404761D01*
X100627380Y-55404761D01*
X101579761Y-55833333D02*
X101627380Y-55976190D01*
X101627380Y-56214285D01*
X101579761Y-56309523D01*
X101532142Y-56357142D01*
X101436904Y-56404761D01*
X101341666Y-56404761D01*
X101246428Y-56357142D01*
X101198809Y-56309523D01*
X101151190Y-56214285D01*
X101103571Y-56023809D01*
X101055952Y-55928571D01*
X101008333Y-55880952D01*
X100913095Y-55833333D01*
X100817857Y-55833333D01*
X100722619Y-55880952D01*
X100675000Y-55928571D01*
X100627380Y-56023809D01*
X100627380Y-56261904D01*
X100675000Y-56404761D01*
X101627380Y-56833333D02*
X100627380Y-56833333D01*
X101627380Y-57309523D02*
X100627380Y-57309523D01*
X101627380Y-57880952D01*
X100627380Y-57880952D01*
X100675000Y-58880952D02*
X100627380Y-58785714D01*
X100627380Y-58642857D01*
X100675000Y-58500000D01*
X100770238Y-58404761D01*
X100865476Y-58357142D01*
X101055952Y-58309523D01*
X101198809Y-58309523D01*
X101389285Y-58357142D01*
X101484523Y-58404761D01*
X101579761Y-58500000D01*
X101627380Y-58642857D01*
X101627380Y-58738095D01*
X101579761Y-58880952D01*
X101532142Y-58928571D01*
X101198809Y-58928571D01*
X101198809Y-58738095D01*
X101341666Y-60071428D02*
X101341666Y-60547619D01*
X101627380Y-59976190D02*
X100627380Y-60309523D01*
X101627380Y-60642857D01*
X101627380Y-61547619D02*
X101151190Y-61214285D01*
X101627380Y-60976190D02*
X100627380Y-60976190D01*
X100627380Y-61357142D01*
X100675000Y-61452380D01*
X100722619Y-61500000D01*
X100817857Y-61547619D01*
X100960714Y-61547619D01*
X101055952Y-61500000D01*
X101103571Y-61452380D01*
X101151190Y-61357142D01*
X101151190Y-60976190D01*
X101103571Y-61976190D02*
X101103571Y-62309523D01*
X101627380Y-62452380D02*
X101627380Y-61976190D01*
X100627380Y-61976190D01*
X100627380Y-62452380D01*
X101103571Y-63214285D02*
X101103571Y-62880952D01*
X101627380Y-62880952D02*
X100627380Y-62880952D01*
X100627380Y-63357142D01*
X103229761Y-53595238D02*
X103277380Y-53738095D01*
X103277380Y-53976190D01*
X103229761Y-54071428D01*
X103182142Y-54119047D01*
X103086904Y-54166666D01*
X102991666Y-54166666D01*
X102896428Y-54119047D01*
X102848809Y-54071428D01*
X102801190Y-53976190D01*
X102753571Y-53785714D01*
X102705952Y-53690476D01*
X102658333Y-53642857D01*
X102563095Y-53595238D01*
X102467857Y-53595238D01*
X102372619Y-53642857D01*
X102325000Y-53690476D01*
X102277380Y-53785714D01*
X102277380Y-54023809D01*
X102325000Y-54166666D01*
X102277380Y-54785714D02*
X102277380Y-54976190D01*
X102325000Y-55071428D01*
X102420238Y-55166666D01*
X102610714Y-55214285D01*
X102944047Y-55214285D01*
X103134523Y-55166666D01*
X103229761Y-55071428D01*
X103277380Y-54976190D01*
X103277380Y-54785714D01*
X103229761Y-54690476D01*
X103134523Y-54595238D01*
X102944047Y-54547619D01*
X102610714Y-54547619D01*
X102420238Y-54595238D01*
X102325000Y-54690476D01*
X102277380Y-54785714D01*
X103277380Y-56119047D02*
X103277380Y-55642857D01*
X102277380Y-55642857D01*
X103277380Y-56452380D02*
X102277380Y-56452380D01*
X102277380Y-56690476D01*
X102325000Y-56833333D01*
X102420238Y-56928571D01*
X102515476Y-56976190D01*
X102705952Y-57023809D01*
X102848809Y-57023809D01*
X103039285Y-56976190D01*
X103134523Y-56928571D01*
X103229761Y-56833333D01*
X103277380Y-56690476D01*
X103277380Y-56452380D01*
X102753571Y-57452380D02*
X102753571Y-57785714D01*
X103277380Y-57928571D02*
X103277380Y-57452380D01*
X102277380Y-57452380D01*
X102277380Y-57928571D01*
X103277380Y-58928571D02*
X102801190Y-58595238D01*
X103277380Y-58357142D02*
X102277380Y-58357142D01*
X102277380Y-58738095D01*
X102325000Y-58833333D01*
X102372619Y-58880952D01*
X102467857Y-58928571D01*
X102610714Y-58928571D01*
X102705952Y-58880952D01*
X102753571Y-58833333D01*
X102801190Y-58738095D01*
X102801190Y-58357142D01*
X102277380Y-60404761D02*
X102991666Y-60404761D01*
X103134523Y-60357142D01*
X103229761Y-60261904D01*
X103277380Y-60119047D01*
X103277380Y-60023809D01*
X103277380Y-60880952D02*
X102277380Y-60880952D01*
X102277380Y-61261904D01*
X102325000Y-61357142D01*
X102372619Y-61404761D01*
X102467857Y-61452380D01*
X102610714Y-61452380D01*
X102705952Y-61404761D01*
X102753571Y-61357142D01*
X102801190Y-61261904D01*
X102801190Y-60880952D01*
X102277380Y-62357142D02*
X102277380Y-61880952D01*
X102753571Y-61833333D01*
X102705952Y-61880952D01*
X102658333Y-61976190D01*
X102658333Y-62214285D01*
X102705952Y-62309523D01*
X102753571Y-62357142D01*
X102848809Y-62404761D01*
X103086904Y-62404761D01*
X103182142Y-62357142D01*
X103229761Y-62309523D01*
X103277380Y-62214285D01*
X103277380Y-61976190D01*
X103229761Y-61880952D01*
X103182142Y-61833333D01*
X129577380Y-102204761D02*
X128577380Y-102204761D01*
X129053571Y-103014285D02*
X129053571Y-102680952D01*
X129577380Y-102680952D02*
X128577380Y-102680952D01*
X128577380Y-103157142D01*
X128577380Y-104300000D02*
X129386904Y-104300000D01*
X129482142Y-104347619D01*
X129529761Y-104395238D01*
X129577380Y-104490476D01*
X129577380Y-104680952D01*
X129529761Y-104776190D01*
X129482142Y-104823809D01*
X129386904Y-104871428D01*
X128577380Y-104871428D01*
X129529761Y-105300000D02*
X129577380Y-105442857D01*
X129577380Y-105680952D01*
X129529761Y-105776190D01*
X129482142Y-105823809D01*
X129386904Y-105871428D01*
X129291666Y-105871428D01*
X129196428Y-105823809D01*
X129148809Y-105776190D01*
X129101190Y-105680952D01*
X129053571Y-105490476D01*
X129005952Y-105395238D01*
X128958333Y-105347619D01*
X128863095Y-105300000D01*
X128767857Y-105300000D01*
X128672619Y-105347619D01*
X128625000Y-105395238D01*
X128577380Y-105490476D01*
X128577380Y-105728571D01*
X128625000Y-105871428D01*
X129577380Y-106300000D02*
X128577380Y-106300000D01*
X129577380Y-106776190D02*
X128577380Y-106776190D01*
X129577380Y-107347619D01*
X128577380Y-107347619D01*
X128625000Y-108347619D02*
X128577380Y-108252380D01*
X128577380Y-108109523D01*
X128625000Y-107966666D01*
X128720238Y-107871428D01*
X128815476Y-107823809D01*
X129005952Y-107776190D01*
X129148809Y-107776190D01*
X129339285Y-107823809D01*
X129434523Y-107871428D01*
X129529761Y-107966666D01*
X129577380Y-108109523D01*
X129577380Y-108204761D01*
X129529761Y-108347619D01*
X129482142Y-108395238D01*
X129148809Y-108395238D01*
X129148809Y-108204761D01*
X128577380Y-109776190D02*
X128577380Y-109966666D01*
X128625000Y-110061904D01*
X128720238Y-110157142D01*
X128910714Y-110204761D01*
X129244047Y-110204761D01*
X129434523Y-110157142D01*
X129529761Y-110061904D01*
X129577380Y-109966666D01*
X129577380Y-109776190D01*
X129529761Y-109680952D01*
X129434523Y-109585714D01*
X129244047Y-109538095D01*
X128910714Y-109538095D01*
X128720238Y-109585714D01*
X128625000Y-109680952D01*
X128577380Y-109776190D01*
X129577380Y-110633333D02*
X128577380Y-110633333D01*
X128577380Y-111014285D01*
X128625000Y-111109523D01*
X128672619Y-111157142D01*
X128767857Y-111204761D01*
X128910714Y-111204761D01*
X129005952Y-111157142D01*
X129053571Y-111109523D01*
X129101190Y-111014285D01*
X129101190Y-110633333D01*
X129291666Y-112347619D02*
X129291666Y-112823809D01*
X129577380Y-112252380D02*
X128577380Y-112585714D01*
X129577380Y-112919047D01*
X129577380Y-113252380D02*
X128577380Y-113252380D01*
X129291666Y-113585714D01*
X128577380Y-113919047D01*
X129577380Y-113919047D01*
X129577380Y-114395238D02*
X128577380Y-114395238D01*
X128577380Y-114776190D01*
X128625000Y-114871428D01*
X128672619Y-114919047D01*
X128767857Y-114966666D01*
X128910714Y-114966666D01*
X129005952Y-114919047D01*
X129053571Y-114871428D01*
X129101190Y-114776190D01*
X129101190Y-114395238D01*
X129529761Y-115442857D02*
X129577380Y-115442857D01*
X129672619Y-115395238D01*
X129720238Y-115347619D01*
X131179761Y-93038095D02*
X131227380Y-93180952D01*
X131227380Y-93419047D01*
X131179761Y-93514285D01*
X131132142Y-93561904D01*
X131036904Y-93609523D01*
X130941666Y-93609523D01*
X130846428Y-93561904D01*
X130798809Y-93514285D01*
X130751190Y-93419047D01*
X130703571Y-93228571D01*
X130655952Y-93133333D01*
X130608333Y-93085714D01*
X130513095Y-93038095D01*
X130417857Y-93038095D01*
X130322619Y-93085714D01*
X130275000Y-93133333D01*
X130227380Y-93228571D01*
X130227380Y-93466666D01*
X130275000Y-93609523D01*
X130227380Y-94228571D02*
X130227380Y-94419047D01*
X130275000Y-94514285D01*
X130370238Y-94609523D01*
X130560714Y-94657142D01*
X130894047Y-94657142D01*
X131084523Y-94609523D01*
X131179761Y-94514285D01*
X131227380Y-94419047D01*
X131227380Y-94228571D01*
X131179761Y-94133333D01*
X131084523Y-94038095D01*
X130894047Y-93990476D01*
X130560714Y-93990476D01*
X130370238Y-94038095D01*
X130275000Y-94133333D01*
X130227380Y-94228571D01*
X131227380Y-95561904D02*
X131227380Y-95085714D01*
X130227380Y-95085714D01*
X131227380Y-95895238D02*
X130227380Y-95895238D01*
X130227380Y-96133333D01*
X130275000Y-96276190D01*
X130370238Y-96371428D01*
X130465476Y-96419047D01*
X130655952Y-96466666D01*
X130798809Y-96466666D01*
X130989285Y-96419047D01*
X131084523Y-96371428D01*
X131179761Y-96276190D01*
X131227380Y-96133333D01*
X131227380Y-95895238D01*
X130703571Y-96895238D02*
X130703571Y-97228571D01*
X131227380Y-97371428D02*
X131227380Y-96895238D01*
X130227380Y-96895238D01*
X130227380Y-97371428D01*
X131227380Y-98371428D02*
X130751190Y-98038095D01*
X131227380Y-97800000D02*
X130227380Y-97800000D01*
X130227380Y-98180952D01*
X130275000Y-98276190D01*
X130322619Y-98323809D01*
X130417857Y-98371428D01*
X130560714Y-98371428D01*
X130655952Y-98323809D01*
X130703571Y-98276190D01*
X130751190Y-98180952D01*
X130751190Y-97800000D01*
X130227380Y-99847619D02*
X130941666Y-99847619D01*
X131084523Y-99800000D01*
X131179761Y-99704761D01*
X131227380Y-99561904D01*
X131227380Y-99466666D01*
X130227380Y-100323809D02*
X131036904Y-100323809D01*
X131132142Y-100371428D01*
X131179761Y-100419047D01*
X131227380Y-100514285D01*
X131227380Y-100704761D01*
X131179761Y-100800000D01*
X131132142Y-100847619D01*
X131036904Y-100895238D01*
X130227380Y-100895238D01*
X131227380Y-101371428D02*
X130227380Y-101371428D01*
X130941666Y-101704761D01*
X130227380Y-102038095D01*
X131227380Y-102038095D01*
X131227380Y-102514285D02*
X130227380Y-102514285D01*
X130227380Y-102895238D01*
X130275000Y-102990476D01*
X130322619Y-103038095D01*
X130417857Y-103085714D01*
X130560714Y-103085714D01*
X130655952Y-103038095D01*
X130703571Y-102990476D01*
X130751190Y-102895238D01*
X130751190Y-102514285D01*
X130703571Y-103514285D02*
X130703571Y-103847619D01*
X131227380Y-103990476D02*
X131227380Y-103514285D01*
X130227380Y-103514285D01*
X130227380Y-103990476D01*
X131227380Y-104990476D02*
X130751190Y-104657142D01*
X131227380Y-104419047D02*
X130227380Y-104419047D01*
X130227380Y-104800000D01*
X130275000Y-104895238D01*
X130322619Y-104942857D01*
X130417857Y-104990476D01*
X130560714Y-104990476D01*
X130655952Y-104942857D01*
X130703571Y-104895238D01*
X130751190Y-104800000D01*
X130751190Y-104419047D01*
X131179761Y-105371428D02*
X131227380Y-105514285D01*
X131227380Y-105752380D01*
X131179761Y-105847619D01*
X131132142Y-105895238D01*
X131036904Y-105942857D01*
X130941666Y-105942857D01*
X130846428Y-105895238D01*
X130798809Y-105847619D01*
X130751190Y-105752380D01*
X130703571Y-105561904D01*
X130655952Y-105466666D01*
X130608333Y-105419047D01*
X130513095Y-105371428D01*
X130417857Y-105371428D01*
X130322619Y-105419047D01*
X130275000Y-105466666D01*
X130227380Y-105561904D01*
X130227380Y-105800000D01*
X130275000Y-105942857D01*
X131227380Y-107657142D02*
X131227380Y-107085714D01*
X131227380Y-107371428D02*
X130227380Y-107371428D01*
X130370238Y-107276190D01*
X130465476Y-107180952D01*
X130513095Y-107085714D01*
X131179761Y-108133333D02*
X131227380Y-108133333D01*
X131322619Y-108085714D01*
X131370238Y-108038095D01*
X130227380Y-109228571D02*
X130227380Y-109847619D01*
X130608333Y-109514285D01*
X130608333Y-109657142D01*
X130655952Y-109752380D01*
X130703571Y-109799999D01*
X130798809Y-109847619D01*
X131036904Y-109847619D01*
X131132142Y-109799999D01*
X131179761Y-109752380D01*
X131227380Y-109657142D01*
X131227380Y-109371428D01*
X131179761Y-109276190D01*
X131132142Y-109228571D01*
X130941666Y-110990476D02*
X130941666Y-111466666D01*
X131227380Y-110895238D02*
X130227380Y-111228571D01*
X131227380Y-111561904D01*
X131227380Y-111895238D02*
X130227380Y-111895238D01*
X131227380Y-112466666D01*
X130227380Y-112466666D01*
X131227380Y-112942857D02*
X130227380Y-112942857D01*
X130227380Y-113180952D01*
X130275000Y-113323809D01*
X130370238Y-113419047D01*
X130465476Y-113466666D01*
X130655952Y-113514285D01*
X130798809Y-113514285D01*
X130989285Y-113466666D01*
X131084523Y-113419047D01*
X131179761Y-113323809D01*
X131227380Y-113180952D01*
X131227380Y-112942857D01*
X130560714Y-115133333D02*
X131227380Y-115133333D01*
X130179761Y-114895238D02*
X130894047Y-114657142D01*
X130894047Y-115276190D01*
X131608333Y-116704761D02*
X131560714Y-116657142D01*
X131417857Y-116561904D01*
X131322619Y-116514285D01*
X131179761Y-116466666D01*
X130941666Y-116419047D01*
X130751190Y-116419047D01*
X130513095Y-116466666D01*
X130370238Y-116514285D01*
X130275000Y-116561904D01*
X130132142Y-116657142D01*
X130084523Y-116704761D01*
X130703571Y-117085714D02*
X130703571Y-117419047D01*
X131227380Y-117561904D02*
X131227380Y-117085714D01*
X130227380Y-117085714D01*
X130227380Y-117561904D01*
X130227380Y-117895238D02*
X131227380Y-118561904D01*
X130227380Y-118561904D02*
X131227380Y-117895238D01*
X131132142Y-119514285D02*
X131179761Y-119466666D01*
X131227380Y-119323809D01*
X131227380Y-119228571D01*
X131179761Y-119085714D01*
X131084523Y-118990476D01*
X130989285Y-118942857D01*
X130798809Y-118895238D01*
X130655952Y-118895238D01*
X130465476Y-118942857D01*
X130370238Y-118990476D01*
X130275000Y-119085714D01*
X130227380Y-119228571D01*
X130227380Y-119323809D01*
X130275000Y-119466666D01*
X130322619Y-119514285D01*
X130703571Y-119942857D02*
X130703571Y-120276190D01*
X131227380Y-120419047D02*
X131227380Y-119942857D01*
X130227380Y-119942857D01*
X130227380Y-120419047D01*
X131227380Y-120847619D02*
X130227380Y-120847619D01*
X130227380Y-121228571D01*
X130275000Y-121323809D01*
X130322619Y-121371428D01*
X130417857Y-121419047D01*
X130560714Y-121419047D01*
X130655952Y-121371428D01*
X130703571Y-121323809D01*
X130751190Y-121228571D01*
X130751190Y-120847619D01*
X130227380Y-121704761D02*
X130227380Y-122276190D01*
X131227380Y-121990476D02*
X130227380Y-121990476D01*
X130322619Y-123323809D02*
X130275000Y-123371428D01*
X130227380Y-123466666D01*
X130227380Y-123704761D01*
X130275000Y-123799999D01*
X130322619Y-123847619D01*
X130417857Y-123895238D01*
X130513095Y-123895238D01*
X130655952Y-123847619D01*
X131227380Y-123276190D01*
X131227380Y-123895238D01*
X131608333Y-124228571D02*
X131560714Y-124276190D01*
X131417857Y-124371428D01*
X131322619Y-124419047D01*
X131179761Y-124466666D01*
X130941666Y-124514285D01*
X130751190Y-124514285D01*
X130513095Y-124466666D01*
X130370238Y-124419047D01*
X130275000Y-124371428D01*
X130132142Y-124276190D01*
X130084523Y-124228571D01*
X132877380Y-102752380D02*
X131877380Y-102752380D01*
X132353571Y-103561904D02*
X132353571Y-103228571D01*
X132877380Y-103228571D02*
X131877380Y-103228571D01*
X131877380Y-103704761D01*
X132829761Y-104800000D02*
X132877380Y-104942857D01*
X132877380Y-105180952D01*
X132829761Y-105276190D01*
X132782142Y-105323809D01*
X132686904Y-105371428D01*
X132591666Y-105371428D01*
X132496428Y-105323809D01*
X132448809Y-105276190D01*
X132401190Y-105180952D01*
X132353571Y-104990476D01*
X132305952Y-104895238D01*
X132258333Y-104847619D01*
X132163095Y-104800000D01*
X132067857Y-104800000D01*
X131972619Y-104847619D01*
X131925000Y-104895238D01*
X131877380Y-104990476D01*
X131877380Y-105228571D01*
X131925000Y-105371428D01*
X132877380Y-105800000D02*
X131877380Y-105800000D01*
X132877380Y-106371428D02*
X132305952Y-105942857D01*
X131877380Y-106371428D02*
X132448809Y-105800000D01*
X132877380Y-106800000D02*
X131877380Y-106800000D01*
X132877380Y-107276190D02*
X131877380Y-107276190D01*
X131877380Y-107657142D01*
X131925000Y-107752380D01*
X131972619Y-107800000D01*
X132067857Y-107847619D01*
X132210714Y-107847619D01*
X132305952Y-107800000D01*
X132353571Y-107752380D01*
X132401190Y-107657142D01*
X132401190Y-107276190D01*
X131877380Y-109228571D02*
X131877380Y-109419047D01*
X131925000Y-109514285D01*
X132020238Y-109609523D01*
X132210714Y-109657142D01*
X132544047Y-109657142D01*
X132734523Y-109609523D01*
X132829761Y-109514285D01*
X132877380Y-109419047D01*
X132877380Y-109228571D01*
X132829761Y-109133333D01*
X132734523Y-109038095D01*
X132544047Y-108990476D01*
X132210714Y-108990476D01*
X132020238Y-109038095D01*
X131925000Y-109133333D01*
X131877380Y-109228571D01*
X132877380Y-110085714D02*
X131877380Y-110085714D01*
X131877380Y-110466666D01*
X131925000Y-110561904D01*
X131972619Y-110609523D01*
X132067857Y-110657142D01*
X132210714Y-110657142D01*
X132305952Y-110609523D01*
X132353571Y-110561904D01*
X132401190Y-110466666D01*
X132401190Y-110085714D01*
X132591666Y-111800000D02*
X132591666Y-112276190D01*
X132877380Y-111704761D02*
X131877380Y-112038095D01*
X132877380Y-112371428D01*
X132877380Y-112704761D02*
X131877380Y-112704761D01*
X132591666Y-113038095D01*
X131877380Y-113371428D01*
X132877380Y-113371428D01*
X132877380Y-113847619D02*
X131877380Y-113847619D01*
X131877380Y-114228571D01*
X131925000Y-114323809D01*
X131972619Y-114371428D01*
X132067857Y-114419047D01*
X132210714Y-114419047D01*
X132305952Y-114371428D01*
X132353571Y-114323809D01*
X132401190Y-114228571D01*
X132401190Y-113847619D01*
X132829761Y-114895238D02*
X132877380Y-114895238D01*
X132972619Y-114847619D01*
X133020238Y-114800000D01*
X133527380Y-99942857D02*
X133527380Y-100133333D01*
X133575000Y-100228571D01*
X133670238Y-100323809D01*
X133860714Y-100371428D01*
X134194047Y-100371428D01*
X134384523Y-100323809D01*
X134479761Y-100228571D01*
X134527380Y-100133333D01*
X134527380Y-99942857D01*
X134479761Y-99847619D01*
X134384523Y-99752380D01*
X134194047Y-99704761D01*
X133860714Y-99704761D01*
X133670238Y-99752380D01*
X133575000Y-99847619D01*
X133527380Y-99942857D01*
X134527380Y-100800000D02*
X133527380Y-100800000D01*
X134527380Y-101371428D01*
X133527380Y-101371428D01*
X134527380Y-102323809D02*
X134527380Y-101847619D01*
X133527380Y-101847619D01*
X134051190Y-102847619D02*
X134527380Y-102847619D01*
X133527380Y-102514285D02*
X134051190Y-102847619D01*
X133527380Y-103180952D01*
X134479761Y-104228571D02*
X134527380Y-104371428D01*
X134527380Y-104609523D01*
X134479761Y-104704761D01*
X134432142Y-104752380D01*
X134336904Y-104800000D01*
X134241666Y-104800000D01*
X134146428Y-104752380D01*
X134098809Y-104704761D01*
X134051190Y-104609523D01*
X134003571Y-104419047D01*
X133955952Y-104323809D01*
X133908333Y-104276190D01*
X133813095Y-104228571D01*
X133717857Y-104228571D01*
X133622619Y-104276190D01*
X133575000Y-104323809D01*
X133527380Y-104419047D01*
X133527380Y-104657142D01*
X133575000Y-104800000D01*
X133527380Y-105419047D02*
X133527380Y-105609523D01*
X133575000Y-105704761D01*
X133670238Y-105800000D01*
X133860714Y-105847619D01*
X134194047Y-105847619D01*
X134384523Y-105800000D01*
X134479761Y-105704761D01*
X134527380Y-105609523D01*
X134527380Y-105419047D01*
X134479761Y-105323809D01*
X134384523Y-105228571D01*
X134194047Y-105180952D01*
X133860714Y-105180952D01*
X133670238Y-105228571D01*
X133575000Y-105323809D01*
X133527380Y-105419047D01*
X134527380Y-106752380D02*
X134527380Y-106276190D01*
X133527380Y-106276190D01*
X134527380Y-107085714D02*
X133527380Y-107085714D01*
X133527380Y-107323809D01*
X133575000Y-107466666D01*
X133670238Y-107561904D01*
X133765476Y-107609523D01*
X133955952Y-107657142D01*
X134098809Y-107657142D01*
X134289285Y-107609523D01*
X134384523Y-107561904D01*
X134479761Y-107466666D01*
X134527380Y-107323809D01*
X134527380Y-107085714D01*
X134003571Y-108085714D02*
X134003571Y-108419047D01*
X134527380Y-108561904D02*
X134527380Y-108085714D01*
X133527380Y-108085714D01*
X133527380Y-108561904D01*
X134527380Y-109561904D02*
X134051190Y-109228571D01*
X134527380Y-108990476D02*
X133527380Y-108990476D01*
X133527380Y-109371428D01*
X133575000Y-109466666D01*
X133622619Y-109514285D01*
X133717857Y-109561904D01*
X133860714Y-109561904D01*
X133955952Y-109514285D01*
X134003571Y-109466666D01*
X134051190Y-109371428D01*
X134051190Y-108990476D01*
X133527380Y-111038095D02*
X134241666Y-111038095D01*
X134384523Y-110990476D01*
X134479761Y-110895238D01*
X134527380Y-110752380D01*
X134527380Y-110657142D01*
X133527380Y-111514285D02*
X134336904Y-111514285D01*
X134432142Y-111561904D01*
X134479761Y-111609523D01*
X134527380Y-111704761D01*
X134527380Y-111895238D01*
X134479761Y-111990476D01*
X134432142Y-112038095D01*
X134336904Y-112085714D01*
X133527380Y-112085714D01*
X134527380Y-112561904D02*
X133527380Y-112561904D01*
X134241666Y-112895238D01*
X133527380Y-113228571D01*
X134527380Y-113228571D01*
X134527380Y-113704761D02*
X133527380Y-113704761D01*
X133527380Y-114085714D01*
X133575000Y-114180952D01*
X133622619Y-114228571D01*
X133717857Y-114276190D01*
X133860714Y-114276190D01*
X133955952Y-114228571D01*
X134003571Y-114180952D01*
X134051190Y-114085714D01*
X134051190Y-113704761D01*
X134003571Y-114704761D02*
X134003571Y-115038095D01*
X134527380Y-115180952D02*
X134527380Y-114704761D01*
X133527380Y-114704761D01*
X133527380Y-115180952D01*
X134527380Y-116180952D02*
X134051190Y-115847619D01*
X134527380Y-115609523D02*
X133527380Y-115609523D01*
X133527380Y-115990476D01*
X133575000Y-116085714D01*
X133622619Y-116133333D01*
X133717857Y-116180952D01*
X133860714Y-116180952D01*
X133955952Y-116133333D01*
X134003571Y-116085714D01*
X134051190Y-115990476D01*
X134051190Y-115609523D01*
X133622619Y-117323809D02*
X133575000Y-117371428D01*
X133527380Y-117466666D01*
X133527380Y-117704761D01*
X133575000Y-117799999D01*
X133622619Y-117847619D01*
X133717857Y-117895238D01*
X133813095Y-117895238D01*
X133955952Y-117847619D01*
X134527380Y-117276190D01*
X134527380Y-117895238D01*
X106452380Y-66880952D02*
X107166666Y-66880952D01*
X107309523Y-66833333D01*
X107404761Y-66738095D01*
X107452380Y-66595238D01*
X107452380Y-66500000D01*
X107452380Y-67833333D02*
X107452380Y-67357142D01*
X106452380Y-67357142D01*
X107357142Y-68738095D02*
X107404761Y-68690476D01*
X107452380Y-68547619D01*
X107452380Y-68452380D01*
X107404761Y-68309523D01*
X107309523Y-68214285D01*
X107214285Y-68166666D01*
X107023809Y-68119047D01*
X106880952Y-68119047D01*
X106690476Y-68166666D01*
X106595238Y-68214285D01*
X106500000Y-68309523D01*
X106452380Y-68452380D01*
X106452380Y-68547619D01*
X106500000Y-68690476D01*
X106547619Y-68738095D01*
X106452380Y-69452380D02*
X107166666Y-69452380D01*
X107309523Y-69404761D01*
X107404761Y-69309523D01*
X107452380Y-69166666D01*
X107452380Y-69071428D01*
X107452380Y-70404761D02*
X107452380Y-69928571D01*
X106452380Y-69928571D01*
X107357142Y-71309523D02*
X107404761Y-71261904D01*
X107452380Y-71119047D01*
X107452380Y-71023809D01*
X107404761Y-70880952D01*
X107309523Y-70785714D01*
X107214285Y-70738095D01*
X107023809Y-70690476D01*
X106880952Y-70690476D01*
X106690476Y-70738095D01*
X106595238Y-70785714D01*
X106500000Y-70880952D01*
X106452380Y-71023809D01*
X106452380Y-71119047D01*
X106500000Y-71261904D01*
X106547619Y-71309523D01*
X106452380Y-72023809D02*
X107166666Y-72023809D01*
X107309523Y-71976190D01*
X107404761Y-71880952D01*
X107452380Y-71738095D01*
X107452380Y-71642857D01*
X107452380Y-72976190D02*
X107452380Y-72500000D01*
X106452380Y-72500000D01*
X107357142Y-73880952D02*
X107404761Y-73833333D01*
X107452380Y-73690476D01*
X107452380Y-73595238D01*
X107404761Y-73452380D01*
X107309523Y-73357142D01*
X107214285Y-73309523D01*
X107023809Y-73261904D01*
X106880952Y-73261904D01*
X106690476Y-73309523D01*
X106595238Y-73357142D01*
X106500000Y-73452380D01*
X106452380Y-73595238D01*
X106452380Y-73690476D01*
X106500000Y-73833333D01*
X106547619Y-73880952D01*
X106452380Y-74595238D02*
X107166666Y-74595238D01*
X107309523Y-74547619D01*
X107404761Y-74452380D01*
X107452380Y-74309523D01*
X107452380Y-74214285D01*
X107452380Y-75547619D02*
X107452380Y-75071428D01*
X106452380Y-75071428D01*
X107357142Y-76452380D02*
X107404761Y-76404761D01*
X107452380Y-76261904D01*
X107452380Y-76166666D01*
X107404761Y-76023809D01*
X107309523Y-75928571D01*
X107214285Y-75880952D01*
X107023809Y-75833333D01*
X106880952Y-75833333D01*
X106690476Y-75880952D01*
X106595238Y-75928571D01*
X106500000Y-76023809D01*
X106452380Y-76166666D01*
X106452380Y-76261904D01*
X106500000Y-76404761D01*
X106547619Y-76452380D01*
X166258452Y-58852380D02*
X166133452Y-57852380D01*
X166192976Y-58328571D02*
X165621547Y-58328571D01*
X165687023Y-58852380D02*
X165562023Y-57852380D01*
X164782261Y-58852380D02*
X164716785Y-58328571D01*
X164752500Y-58233333D01*
X164841785Y-58185714D01*
X165032261Y-58185714D01*
X165133452Y-58233333D01*
X164776309Y-58804761D02*
X164877500Y-58852380D01*
X165115595Y-58852380D01*
X165204880Y-58804761D01*
X165240595Y-58709523D01*
X165228690Y-58614285D01*
X165169166Y-58519047D01*
X165067976Y-58471428D01*
X164829880Y-58471428D01*
X164728690Y-58423809D01*
X164794166Y-57804761D02*
X164954880Y-57947619D01*
X163585833Y-58804761D02*
X163496547Y-58852380D01*
X163306071Y-58852380D01*
X163204880Y-58804761D01*
X163145357Y-58709523D01*
X163139404Y-58661904D01*
X163175119Y-58566666D01*
X163264404Y-58519047D01*
X163407261Y-58519047D01*
X163496547Y-58471428D01*
X163532261Y-58376190D01*
X163526309Y-58328571D01*
X163466785Y-58233333D01*
X163365595Y-58185714D01*
X163222738Y-58185714D01*
X163133452Y-58233333D01*
X162347738Y-58804761D02*
X162448928Y-58852380D01*
X162639404Y-58852380D01*
X162728690Y-58804761D01*
X162764404Y-58709523D01*
X162716785Y-58328571D01*
X162657261Y-58233333D01*
X162556071Y-58185714D01*
X162365595Y-58185714D01*
X162276309Y-58233333D01*
X162240595Y-58328571D01*
X162252500Y-58423809D01*
X162740595Y-58519047D01*
X161877500Y-58852380D02*
X161794166Y-58185714D01*
X161806071Y-58280952D02*
X161752500Y-58233333D01*
X161651309Y-58185714D01*
X161508452Y-58185714D01*
X161419166Y-58233333D01*
X161383452Y-58328571D01*
X161448928Y-58852380D01*
X161383452Y-58328571D02*
X161323928Y-58233333D01*
X161222738Y-58185714D01*
X161079880Y-58185714D01*
X160990595Y-58233333D01*
X160954880Y-58328571D01*
X161020357Y-58852380D01*
X159353690Y-58852380D02*
X159228690Y-57852380D01*
X159347738Y-58804761D02*
X159448928Y-58852380D01*
X159639404Y-58852380D01*
X159728690Y-58804761D01*
X159770357Y-58757142D01*
X159806071Y-58661904D01*
X159770357Y-58376190D01*
X159710833Y-58280952D01*
X159657261Y-58233333D01*
X159556071Y-58185714D01*
X159365595Y-58185714D01*
X159276309Y-58233333D01*
X158365595Y-58185714D02*
X158448928Y-58852380D01*
X158794166Y-58185714D02*
X158859642Y-58709523D01*
X158823928Y-58804761D01*
X158734642Y-58852380D01*
X158591785Y-58852380D01*
X158490595Y-58804761D01*
X158437023Y-58757142D01*
X158413214Y-57804761D02*
X158573928Y-57947619D01*
X157984642Y-58185714D02*
X157829880Y-58852380D01*
X157508452Y-58185714D01*
X157210833Y-58852380D02*
X157127500Y-58185714D01*
X157085833Y-57852380D02*
X157139404Y-57900000D01*
X157097738Y-57947619D01*
X157044166Y-57900000D01*
X157085833Y-57852380D01*
X157097738Y-57947619D01*
X156306071Y-58852380D02*
X156181071Y-57852380D01*
X156300119Y-58804761D02*
X156401309Y-58852380D01*
X156591785Y-58852380D01*
X156681071Y-58804761D01*
X156722738Y-58757142D01*
X156758452Y-58661904D01*
X156722738Y-58376190D01*
X156663214Y-58280952D01*
X156609642Y-58233333D01*
X156508452Y-58185714D01*
X156317976Y-58185714D01*
X156228690Y-58233333D01*
X155401309Y-58852380D02*
X155335833Y-58328571D01*
X155371547Y-58233333D01*
X155460833Y-58185714D01*
X155651309Y-58185714D01*
X155752500Y-58233333D01*
X155395357Y-58804761D02*
X155496547Y-58852380D01*
X155734642Y-58852380D01*
X155823928Y-58804761D01*
X155859642Y-58709523D01*
X155847738Y-58614285D01*
X155788214Y-58519047D01*
X155687023Y-58471428D01*
X155448928Y-58471428D01*
X155347738Y-58423809D01*
X153651309Y-58185714D02*
X153776309Y-59185714D01*
X153728690Y-58804761D02*
X153829880Y-58852380D01*
X154020357Y-58852380D01*
X154109642Y-58804761D01*
X154151309Y-58757142D01*
X154187023Y-58661904D01*
X154151309Y-58376190D01*
X154091785Y-58280952D01*
X154038214Y-58233333D01*
X153937023Y-58185714D01*
X153746547Y-58185714D01*
X153657261Y-58233333D01*
X152746547Y-58185714D02*
X152829880Y-58852380D01*
X153175119Y-58185714D02*
X153240595Y-58709523D01*
X153204880Y-58804761D01*
X153115595Y-58852380D01*
X152972738Y-58852380D01*
X152871547Y-58804761D01*
X152817976Y-58757142D01*
X151966785Y-58804761D02*
X152067976Y-58852380D01*
X152258452Y-58852380D01*
X152347738Y-58804761D01*
X152383452Y-58709523D01*
X152335833Y-58328571D01*
X152276309Y-58233333D01*
X152175119Y-58185714D01*
X151984642Y-58185714D01*
X151895357Y-58233333D01*
X151859642Y-58328571D01*
X151871547Y-58423809D01*
X152359642Y-58519047D01*
X151496547Y-58852380D02*
X151413214Y-58185714D01*
X151425119Y-58280952D02*
X151371547Y-58233333D01*
X151270357Y-58185714D01*
X151127500Y-58185714D01*
X151038214Y-58233333D01*
X151002500Y-58328571D01*
X151067976Y-58852380D01*
X151002500Y-58328571D02*
X150942976Y-58233333D01*
X150841785Y-58185714D01*
X150698928Y-58185714D01*
X150609642Y-58233333D01*
X150573928Y-58328571D01*
X150639404Y-58852380D01*
X148972738Y-58852380D02*
X148907261Y-58328571D01*
X148942976Y-58233333D01*
X149032261Y-58185714D01*
X149222738Y-58185714D01*
X149323928Y-58233333D01*
X148966785Y-58804761D02*
X149067976Y-58852380D01*
X149306071Y-58852380D01*
X149395357Y-58804761D01*
X149431071Y-58709523D01*
X149419166Y-58614285D01*
X149359642Y-58519047D01*
X149258452Y-58471428D01*
X149020357Y-58471428D01*
X148919166Y-58423809D01*
X148496547Y-58852380D02*
X148413214Y-58185714D01*
X148425119Y-58280952D02*
X148371547Y-58233333D01*
X148270357Y-58185714D01*
X148127500Y-58185714D01*
X148038214Y-58233333D01*
X148002500Y-58328571D01*
X148067976Y-58852380D01*
X148002500Y-58328571D02*
X147942976Y-58233333D01*
X147841785Y-58185714D01*
X147698928Y-58185714D01*
X147609642Y-58233333D01*
X147573928Y-58328571D01*
X147639404Y-58852380D01*
X146776309Y-58804761D02*
X146877500Y-58852380D01*
X147067976Y-58852380D01*
X147157261Y-58804761D01*
X147192976Y-58709523D01*
X147145357Y-58328571D01*
X147085833Y-58233333D01*
X146984642Y-58185714D01*
X146794166Y-58185714D01*
X146704880Y-58233333D01*
X146669166Y-58328571D01*
X146681071Y-58423809D01*
X147169166Y-58519047D01*
X145401309Y-58852380D02*
X145490595Y-58804761D01*
X145532261Y-58757142D01*
X145567976Y-58661904D01*
X145532261Y-58376190D01*
X145472738Y-58280952D01*
X145419166Y-58233333D01*
X145317976Y-58185714D01*
X145175119Y-58185714D01*
X145085833Y-58233333D01*
X145044166Y-58280952D01*
X145008452Y-58376190D01*
X145044166Y-58661904D01*
X145103690Y-58757142D01*
X145157261Y-58804761D01*
X145258452Y-58852380D01*
X145401309Y-58852380D01*
X143877500Y-58852380D02*
X143794166Y-58185714D01*
X143752500Y-57852380D02*
X143806071Y-57900000D01*
X143764404Y-57947619D01*
X143710833Y-57900000D01*
X143752500Y-57852380D01*
X143764404Y-57947619D01*
X143317976Y-58185714D02*
X143401309Y-58852380D01*
X143329880Y-58280952D02*
X143276309Y-58233333D01*
X143175119Y-58185714D01*
X143032261Y-58185714D01*
X142942976Y-58233333D01*
X142907261Y-58328571D01*
X142972738Y-58852380D01*
X142556071Y-58185714D02*
X142175119Y-58185714D01*
X142496547Y-58852380D02*
X142389404Y-57995238D01*
X142329880Y-57900000D01*
X142228690Y-57852380D01*
X142133452Y-57852380D01*
X141925119Y-58852380D02*
X141841785Y-58185714D01*
X141800119Y-57852380D02*
X141853690Y-57900000D01*
X141812023Y-57947619D01*
X141758452Y-57900000D01*
X141800119Y-57852380D01*
X141812023Y-57947619D01*
X141365595Y-58185714D02*
X141448928Y-58852380D01*
X141377500Y-58280952D02*
X141323928Y-58233333D01*
X141222738Y-58185714D01*
X141079880Y-58185714D01*
X140990595Y-58233333D01*
X140954880Y-58328571D01*
X141020357Y-58852380D01*
X140544166Y-58852380D02*
X140460833Y-58185714D01*
X140419166Y-57852380D02*
X140472738Y-57900000D01*
X140431071Y-57947619D01*
X140377500Y-57900000D01*
X140419166Y-57852380D01*
X140431071Y-57947619D01*
X140127500Y-58185714D02*
X139746547Y-58185714D01*
X139942976Y-57852380D02*
X140050119Y-58709523D01*
X140014404Y-58804761D01*
X139925119Y-58852380D01*
X139829880Y-58852380D01*
X139353690Y-58852380D02*
X139442976Y-58804761D01*
X139484642Y-58757142D01*
X139520357Y-58661904D01*
X139484642Y-58376190D01*
X139425119Y-58280952D01*
X139371547Y-58233333D01*
X139270357Y-58185714D01*
X139127500Y-58185714D01*
X139038214Y-58233333D01*
X138996547Y-58280952D01*
X138960833Y-58376190D01*
X138996547Y-58661904D01*
X139056071Y-58757142D01*
X139109642Y-58804761D01*
X139210833Y-58852380D01*
X139353690Y-58852380D01*
X138538214Y-58804761D02*
X138544166Y-58852380D01*
X138603690Y-58947619D01*
X138657261Y-58995238D01*
X166258452Y-60502380D02*
X166133452Y-59502380D01*
X166192976Y-59978571D02*
X165621547Y-59978571D01*
X165687023Y-60502380D02*
X165562023Y-59502380D01*
X164782261Y-60502380D02*
X164716785Y-59978571D01*
X164752500Y-59883333D01*
X164841785Y-59835714D01*
X165032261Y-59835714D01*
X165133452Y-59883333D01*
X164776309Y-60454761D02*
X164877500Y-60502380D01*
X165115595Y-60502380D01*
X165204880Y-60454761D01*
X165240595Y-60359523D01*
X165228690Y-60264285D01*
X165169166Y-60169047D01*
X165067976Y-60121428D01*
X164829880Y-60121428D01*
X164728690Y-60073809D01*
X164794166Y-59454761D02*
X164954880Y-59597619D01*
X163585833Y-60454761D02*
X163496547Y-60502380D01*
X163306071Y-60502380D01*
X163204880Y-60454761D01*
X163145357Y-60359523D01*
X163139404Y-60311904D01*
X163175119Y-60216666D01*
X163264404Y-60169047D01*
X163407261Y-60169047D01*
X163496547Y-60121428D01*
X163532261Y-60026190D01*
X163526309Y-59978571D01*
X163466785Y-59883333D01*
X163365595Y-59835714D01*
X163222738Y-59835714D01*
X163133452Y-59883333D01*
X162347738Y-60454761D02*
X162448928Y-60502380D01*
X162639404Y-60502380D01*
X162728690Y-60454761D01*
X162764404Y-60359523D01*
X162716785Y-59978571D01*
X162657261Y-59883333D01*
X162556071Y-59835714D01*
X162365595Y-59835714D01*
X162276309Y-59883333D01*
X162240595Y-59978571D01*
X162252500Y-60073809D01*
X162740595Y-60169047D01*
X161877500Y-60502380D02*
X161794166Y-59835714D01*
X161806071Y-59930952D02*
X161752500Y-59883333D01*
X161651309Y-59835714D01*
X161508452Y-59835714D01*
X161419166Y-59883333D01*
X161383452Y-59978571D01*
X161448928Y-60502380D01*
X161383452Y-59978571D02*
X161323928Y-59883333D01*
X161222738Y-59835714D01*
X161079880Y-59835714D01*
X160990595Y-59883333D01*
X160954880Y-59978571D01*
X161020357Y-60502380D01*
X159353690Y-60502380D02*
X159228690Y-59502380D01*
X159347738Y-60454761D02*
X159448928Y-60502380D01*
X159639404Y-60502380D01*
X159728690Y-60454761D01*
X159770357Y-60407142D01*
X159806071Y-60311904D01*
X159770357Y-60026190D01*
X159710833Y-59930952D01*
X159657261Y-59883333D01*
X159556071Y-59835714D01*
X159365595Y-59835714D01*
X159276309Y-59883333D01*
X158365595Y-59835714D02*
X158448928Y-60502380D01*
X158794166Y-59835714D02*
X158859642Y-60359523D01*
X158823928Y-60454761D01*
X158734642Y-60502380D01*
X158591785Y-60502380D01*
X158490595Y-60454761D01*
X158437023Y-60407142D01*
X158413214Y-59454761D02*
X158573928Y-59597619D01*
X157984642Y-59835714D02*
X157829880Y-60502380D01*
X157508452Y-59835714D01*
X157210833Y-60502380D02*
X157127500Y-59835714D01*
X157085833Y-59502380D02*
X157139404Y-59550000D01*
X157097738Y-59597619D01*
X157044166Y-59550000D01*
X157085833Y-59502380D01*
X157097738Y-59597619D01*
X156306071Y-60502380D02*
X156181071Y-59502380D01*
X156300119Y-60454761D02*
X156401309Y-60502380D01*
X156591785Y-60502380D01*
X156681071Y-60454761D01*
X156722738Y-60407142D01*
X156758452Y-60311904D01*
X156722738Y-60026190D01*
X156663214Y-59930952D01*
X156609642Y-59883333D01*
X156508452Y-59835714D01*
X156317976Y-59835714D01*
X156228690Y-59883333D01*
X155401309Y-60502380D02*
X155335833Y-59978571D01*
X155371547Y-59883333D01*
X155460833Y-59835714D01*
X155651309Y-59835714D01*
X155752500Y-59883333D01*
X155395357Y-60454761D02*
X155496547Y-60502380D01*
X155734642Y-60502380D01*
X155823928Y-60454761D01*
X155859642Y-60359523D01*
X155847738Y-60264285D01*
X155788214Y-60169047D01*
X155687023Y-60121428D01*
X155448928Y-60121428D01*
X155347738Y-60073809D01*
X153651309Y-59835714D02*
X153776309Y-60835714D01*
X153728690Y-60454761D02*
X153829880Y-60502380D01*
X154020357Y-60502380D01*
X154109642Y-60454761D01*
X154151309Y-60407142D01*
X154187023Y-60311904D01*
X154151309Y-60026190D01*
X154091785Y-59930952D01*
X154038214Y-59883333D01*
X153937023Y-59835714D01*
X153746547Y-59835714D01*
X153657261Y-59883333D01*
X152746547Y-59835714D02*
X152829880Y-60502380D01*
X153175119Y-59835714D02*
X153240595Y-60359523D01*
X153204880Y-60454761D01*
X153115595Y-60502380D01*
X152972738Y-60502380D01*
X152871547Y-60454761D01*
X152817976Y-60407142D01*
X151966785Y-60454761D02*
X152067976Y-60502380D01*
X152258452Y-60502380D01*
X152347738Y-60454761D01*
X152383452Y-60359523D01*
X152335833Y-59978571D01*
X152276309Y-59883333D01*
X152175119Y-59835714D01*
X151984642Y-59835714D01*
X151895357Y-59883333D01*
X151859642Y-59978571D01*
X151871547Y-60073809D01*
X152359642Y-60169047D01*
X151496547Y-60502380D02*
X151413214Y-59835714D01*
X151425119Y-59930952D02*
X151371547Y-59883333D01*
X151270357Y-59835714D01*
X151127500Y-59835714D01*
X151038214Y-59883333D01*
X151002500Y-59978571D01*
X151067976Y-60502380D01*
X151002500Y-59978571D02*
X150942976Y-59883333D01*
X150841785Y-59835714D01*
X150698928Y-59835714D01*
X150609642Y-59883333D01*
X150573928Y-59978571D01*
X150639404Y-60502380D01*
X148972738Y-60502380D02*
X148847738Y-59502380D01*
X148966785Y-60454761D02*
X149067976Y-60502380D01*
X149258452Y-60502380D01*
X149347738Y-60454761D01*
X149389404Y-60407142D01*
X149425119Y-60311904D01*
X149389404Y-60026190D01*
X149329880Y-59930952D01*
X149276309Y-59883333D01*
X149175119Y-59835714D01*
X148984642Y-59835714D01*
X148895357Y-59883333D01*
X148109642Y-60454761D02*
X148210833Y-60502380D01*
X148401309Y-60502380D01*
X148490595Y-60454761D01*
X148526309Y-60359523D01*
X148478690Y-59978571D01*
X148419166Y-59883333D01*
X148317976Y-59835714D01*
X148127500Y-59835714D01*
X148038214Y-59883333D01*
X148002500Y-59978571D01*
X148014404Y-60073809D01*
X148502500Y-60169047D01*
X147681071Y-60454761D02*
X147591785Y-60502380D01*
X147401309Y-60502380D01*
X147300119Y-60454761D01*
X147240595Y-60359523D01*
X147234642Y-60311904D01*
X147270357Y-60216666D01*
X147359642Y-60169047D01*
X147502500Y-60169047D01*
X147591785Y-60121428D01*
X147627500Y-60026190D01*
X147621547Y-59978571D01*
X147562023Y-59883333D01*
X147460833Y-59835714D01*
X147317976Y-59835714D01*
X147228690Y-59883333D01*
X146442976Y-60454761D02*
X146544166Y-60502380D01*
X146734642Y-60502380D01*
X146823928Y-60454761D01*
X146859642Y-60359523D01*
X146812023Y-59978571D01*
X146752500Y-59883333D01*
X146651309Y-59835714D01*
X146460833Y-59835714D01*
X146371547Y-59883333D01*
X146335833Y-59978571D01*
X146347738Y-60073809D01*
X146835833Y-60169047D01*
X145889404Y-59835714D02*
X145996547Y-60692857D01*
X146056071Y-60788095D01*
X146157261Y-60835714D01*
X146204880Y-60835714D01*
X145847738Y-59502380D02*
X145901309Y-59550000D01*
X145859642Y-59597619D01*
X145806071Y-59550000D01*
X145847738Y-59502380D01*
X145859642Y-59597619D01*
X145109642Y-60454761D02*
X145210833Y-60502380D01*
X145401309Y-60502380D01*
X145490595Y-60454761D01*
X145526309Y-60359523D01*
X145478690Y-59978571D01*
X145419166Y-59883333D01*
X145317976Y-59835714D01*
X145127500Y-59835714D01*
X145038214Y-59883333D01*
X145002500Y-59978571D01*
X145014404Y-60073809D01*
X145502500Y-60169047D01*
X143734642Y-60502380D02*
X143823928Y-60454761D01*
X143865595Y-60407142D01*
X143901309Y-60311904D01*
X143865595Y-60026190D01*
X143806071Y-59930952D01*
X143752500Y-59883333D01*
X143651309Y-59835714D01*
X143508452Y-59835714D01*
X143419166Y-59883333D01*
X143377500Y-59930952D01*
X143341785Y-60026190D01*
X143377500Y-60311904D01*
X143437023Y-60407142D01*
X143490595Y-60454761D01*
X143591785Y-60502380D01*
X143734642Y-60502380D01*
X142210833Y-60502380D02*
X142127500Y-59835714D01*
X142085833Y-59502380D02*
X142139404Y-59550000D01*
X142097738Y-59597619D01*
X142044166Y-59550000D01*
X142085833Y-59502380D01*
X142097738Y-59597619D01*
X141734642Y-60502380D02*
X141651309Y-59835714D01*
X141663214Y-59930952D02*
X141609642Y-59883333D01*
X141508452Y-59835714D01*
X141365595Y-59835714D01*
X141276309Y-59883333D01*
X141240595Y-59978571D01*
X141306071Y-60502380D01*
X141240595Y-59978571D02*
X141181071Y-59883333D01*
X141079880Y-59835714D01*
X140937023Y-59835714D01*
X140847738Y-59883333D01*
X140812023Y-59978571D01*
X140877500Y-60502380D01*
X140317976Y-59835714D02*
X140442976Y-60835714D01*
X140323928Y-59883333D02*
X140222738Y-59835714D01*
X140032261Y-59835714D01*
X139942976Y-59883333D01*
X139901309Y-59930952D01*
X139865595Y-60026190D01*
X139901309Y-60311904D01*
X139960833Y-60407142D01*
X140014404Y-60454761D01*
X140115595Y-60502380D01*
X140306071Y-60502380D01*
X140395357Y-60454761D01*
X139353690Y-60502380D02*
X139442976Y-60454761D01*
X139484642Y-60407142D01*
X139520357Y-60311904D01*
X139484642Y-60026190D01*
X139425119Y-59930952D01*
X139371547Y-59883333D01*
X139270357Y-59835714D01*
X139127500Y-59835714D01*
X139038214Y-59883333D01*
X138996547Y-59930952D01*
X138960833Y-60026190D01*
X138996547Y-60311904D01*
X139056071Y-60407142D01*
X139109642Y-60454761D01*
X139210833Y-60502380D01*
X139353690Y-60502380D01*
X138633452Y-60454761D02*
X138544166Y-60502380D01*
X138353690Y-60502380D01*
X138252500Y-60454761D01*
X138192976Y-60359523D01*
X138187023Y-60311904D01*
X138222738Y-60216666D01*
X138312023Y-60169047D01*
X138454880Y-60169047D01*
X138544166Y-60121428D01*
X138579880Y-60026190D01*
X138573928Y-59978571D01*
X138514404Y-59883333D01*
X138413214Y-59835714D01*
X138270357Y-59835714D01*
X138181071Y-59883333D01*
X137823928Y-60454761D02*
X137734642Y-60502380D01*
X137544166Y-60502380D01*
X137442976Y-60454761D01*
X137383452Y-60359523D01*
X137377500Y-60311904D01*
X137413214Y-60216666D01*
X137502500Y-60169047D01*
X137645357Y-60169047D01*
X137734642Y-60121428D01*
X137770357Y-60026190D01*
X137764404Y-59978571D01*
X137704880Y-59883333D01*
X137603690Y-59835714D01*
X137460833Y-59835714D01*
X137371547Y-59883333D01*
X136972738Y-60502380D02*
X136889404Y-59835714D01*
X136746547Y-59454761D02*
X136907261Y-59597619D01*
X136508452Y-59835714D02*
X136353690Y-60502380D01*
X136032261Y-59835714D01*
X135347738Y-60454761D02*
X135448928Y-60502380D01*
X135639404Y-60502380D01*
X135728690Y-60454761D01*
X135764404Y-60359523D01*
X135716785Y-59978571D01*
X135657261Y-59883333D01*
X135556071Y-59835714D01*
X135365595Y-59835714D01*
X135276309Y-59883333D01*
X135240595Y-59978571D01*
X135252500Y-60073809D01*
X135740595Y-60169047D01*
X134734642Y-60502380D02*
X134823928Y-60454761D01*
X134859642Y-60359523D01*
X134752500Y-59502380D01*
X134300119Y-60454761D02*
X134306071Y-60502380D01*
X134365595Y-60597619D01*
X134419166Y-60645238D01*
X166258452Y-62152380D02*
X166133452Y-61152380D01*
X166192976Y-61628571D02*
X165621547Y-61628571D01*
X165687023Y-62152380D02*
X165562023Y-61152380D01*
X164782261Y-62152380D02*
X164716785Y-61628571D01*
X164752500Y-61533333D01*
X164841785Y-61485714D01*
X165032261Y-61485714D01*
X165133452Y-61533333D01*
X164776309Y-62104761D02*
X164877500Y-62152380D01*
X165115595Y-62152380D01*
X165204880Y-62104761D01*
X165240595Y-62009523D01*
X165228690Y-61914285D01*
X165169166Y-61819047D01*
X165067976Y-61771428D01*
X164829880Y-61771428D01*
X164728690Y-61723809D01*
X164794166Y-61104761D02*
X164954880Y-61247619D01*
X163585833Y-62104761D02*
X163496547Y-62152380D01*
X163306071Y-62152380D01*
X163204880Y-62104761D01*
X163145357Y-62009523D01*
X163139404Y-61961904D01*
X163175119Y-61866666D01*
X163264404Y-61819047D01*
X163407261Y-61819047D01*
X163496547Y-61771428D01*
X163532261Y-61676190D01*
X163526309Y-61628571D01*
X163466785Y-61533333D01*
X163365595Y-61485714D01*
X163222738Y-61485714D01*
X163133452Y-61533333D01*
X162347738Y-62104761D02*
X162448928Y-62152380D01*
X162639404Y-62152380D01*
X162728690Y-62104761D01*
X162764404Y-62009523D01*
X162716785Y-61628571D01*
X162657261Y-61533333D01*
X162556071Y-61485714D01*
X162365595Y-61485714D01*
X162276309Y-61533333D01*
X162240595Y-61628571D01*
X162252500Y-61723809D01*
X162740595Y-61819047D01*
X161877500Y-62152380D02*
X161794166Y-61485714D01*
X161806071Y-61580952D02*
X161752500Y-61533333D01*
X161651309Y-61485714D01*
X161508452Y-61485714D01*
X161419166Y-61533333D01*
X161383452Y-61628571D01*
X161448928Y-62152380D01*
X161383452Y-61628571D02*
X161323928Y-61533333D01*
X161222738Y-61485714D01*
X161079880Y-61485714D01*
X160990595Y-61533333D01*
X160954880Y-61628571D01*
X161020357Y-62152380D01*
X159353690Y-62152380D02*
X159228690Y-61152380D01*
X159347738Y-62104761D02*
X159448928Y-62152380D01*
X159639404Y-62152380D01*
X159728690Y-62104761D01*
X159770357Y-62057142D01*
X159806071Y-61961904D01*
X159770357Y-61676190D01*
X159710833Y-61580952D01*
X159657261Y-61533333D01*
X159556071Y-61485714D01*
X159365595Y-61485714D01*
X159276309Y-61533333D01*
X158365595Y-61485714D02*
X158448928Y-62152380D01*
X158794166Y-61485714D02*
X158859642Y-62009523D01*
X158823928Y-62104761D01*
X158734642Y-62152380D01*
X158591785Y-62152380D01*
X158490595Y-62104761D01*
X158437023Y-62057142D01*
X158413214Y-61104761D02*
X158573928Y-61247619D01*
X157984642Y-61485714D02*
X157829880Y-62152380D01*
X157508452Y-61485714D01*
X157210833Y-62152380D02*
X157127500Y-61485714D01*
X157085833Y-61152380D02*
X157139404Y-61200000D01*
X157097738Y-61247619D01*
X157044166Y-61200000D01*
X157085833Y-61152380D01*
X157097738Y-61247619D01*
X156306071Y-62152380D02*
X156181071Y-61152380D01*
X156300119Y-62104761D02*
X156401309Y-62152380D01*
X156591785Y-62152380D01*
X156681071Y-62104761D01*
X156722738Y-62057142D01*
X156758452Y-61961904D01*
X156722738Y-61676190D01*
X156663214Y-61580952D01*
X156609642Y-61533333D01*
X156508452Y-61485714D01*
X156317976Y-61485714D01*
X156228690Y-61533333D01*
X155401309Y-62152380D02*
X155335833Y-61628571D01*
X155371547Y-61533333D01*
X155460833Y-61485714D01*
X155651309Y-61485714D01*
X155752500Y-61533333D01*
X155395357Y-62104761D02*
X155496547Y-62152380D01*
X155734642Y-62152380D01*
X155823928Y-62104761D01*
X155859642Y-62009523D01*
X155847738Y-61914285D01*
X155788214Y-61819047D01*
X155687023Y-61771428D01*
X155448928Y-61771428D01*
X155347738Y-61723809D01*
X153651309Y-61485714D02*
X153776309Y-62485714D01*
X153728690Y-62104761D02*
X153829880Y-62152380D01*
X154020357Y-62152380D01*
X154109642Y-62104761D01*
X154151309Y-62057142D01*
X154187023Y-61961904D01*
X154151309Y-61676190D01*
X154091785Y-61580952D01*
X154038214Y-61533333D01*
X153937023Y-61485714D01*
X153746547Y-61485714D01*
X153657261Y-61533333D01*
X152746547Y-61485714D02*
X152829880Y-62152380D01*
X153175119Y-61485714D02*
X153240595Y-62009523D01*
X153204880Y-62104761D01*
X153115595Y-62152380D01*
X152972738Y-62152380D01*
X152871547Y-62104761D01*
X152817976Y-62057142D01*
X151966785Y-62104761D02*
X152067976Y-62152380D01*
X152258452Y-62152380D01*
X152347738Y-62104761D01*
X152383452Y-62009523D01*
X152335833Y-61628571D01*
X152276309Y-61533333D01*
X152175119Y-61485714D01*
X151984642Y-61485714D01*
X151895357Y-61533333D01*
X151859642Y-61628571D01*
X151871547Y-61723809D01*
X152359642Y-61819047D01*
X151496547Y-62152380D02*
X151413214Y-61485714D01*
X151425119Y-61580952D02*
X151371547Y-61533333D01*
X151270357Y-61485714D01*
X151127500Y-61485714D01*
X151038214Y-61533333D01*
X151002500Y-61628571D01*
X151067976Y-62152380D01*
X151002500Y-61628571D02*
X150942976Y-61533333D01*
X150841785Y-61485714D01*
X150698928Y-61485714D01*
X150609642Y-61533333D01*
X150573928Y-61628571D01*
X150639404Y-62152380D01*
X149317976Y-61485714D02*
X149401309Y-62152380D01*
X149329880Y-61580952D02*
X149276309Y-61533333D01*
X149175119Y-61485714D01*
X149032261Y-61485714D01*
X148942976Y-61533333D01*
X148907261Y-61628571D01*
X148972738Y-62152380D01*
X148067976Y-62152380D02*
X148002500Y-61628571D01*
X148038214Y-61533333D01*
X148127500Y-61485714D01*
X148317976Y-61485714D01*
X148419166Y-61533333D01*
X148062023Y-62104761D02*
X148163214Y-62152380D01*
X148401309Y-62152380D01*
X148490595Y-62104761D01*
X148526309Y-62009523D01*
X148514404Y-61914285D01*
X148454880Y-61819047D01*
X148353690Y-61771428D01*
X148115595Y-61771428D01*
X148014404Y-61723809D01*
X148431071Y-61247619D02*
X148377500Y-61200000D01*
X148276309Y-61152380D01*
X148097738Y-61247619D01*
X147996547Y-61200000D01*
X147942976Y-61152380D01*
X147448928Y-62152380D02*
X147538214Y-62104761D01*
X147579880Y-62057142D01*
X147615595Y-61961904D01*
X147579880Y-61676190D01*
X147520357Y-61580952D01*
X147466785Y-61533333D01*
X147365595Y-61485714D01*
X147222738Y-61485714D01*
X147133452Y-61533333D01*
X147091785Y-61580952D01*
X147056071Y-61676190D01*
X147091785Y-61961904D01*
X147151309Y-62057142D01*
X147204880Y-62104761D01*
X147306071Y-62152380D01*
X147448928Y-62152380D01*
X145413214Y-61485714D02*
X145538214Y-62485714D01*
X145490595Y-62104761D02*
X145591785Y-62152380D01*
X145782261Y-62152380D01*
X145871547Y-62104761D01*
X145913214Y-62057142D01*
X145948928Y-61961904D01*
X145913214Y-61676190D01*
X145853690Y-61580952D01*
X145800119Y-61533333D01*
X145698928Y-61485714D01*
X145508452Y-61485714D01*
X145419166Y-61533333D01*
X144508452Y-61485714D02*
X144591785Y-62152380D01*
X144937023Y-61485714D02*
X145002500Y-62009523D01*
X144966785Y-62104761D01*
X144877500Y-62152380D01*
X144734642Y-62152380D01*
X144633452Y-62104761D01*
X144579880Y-62057142D01*
X143728690Y-62104761D02*
X143829880Y-62152380D01*
X144020357Y-62152380D01*
X144109642Y-62104761D01*
X144145357Y-62009523D01*
X144097738Y-61628571D01*
X144038214Y-61533333D01*
X143937023Y-61485714D01*
X143746547Y-61485714D01*
X143657261Y-61533333D01*
X143621547Y-61628571D01*
X143633452Y-61723809D01*
X144121547Y-61819047D01*
X143258452Y-62152380D02*
X143175119Y-61485714D01*
X143133452Y-61152380D02*
X143187023Y-61200000D01*
X143145357Y-61247619D01*
X143091785Y-61200000D01*
X143133452Y-61152380D01*
X143145357Y-61247619D01*
X142782261Y-62152380D02*
X142698928Y-61485714D01*
X142722738Y-61676190D02*
X142663214Y-61580952D01*
X142609642Y-61533333D01*
X142508452Y-61485714D01*
X142413214Y-61485714D01*
X141734642Y-62152380D02*
X141669166Y-61628571D01*
X141704880Y-61533333D01*
X141794166Y-61485714D01*
X141984642Y-61485714D01*
X142085833Y-61533333D01*
X141728690Y-62104761D02*
X141829880Y-62152380D01*
X142067976Y-62152380D01*
X142157261Y-62104761D01*
X142192976Y-62009523D01*
X142181071Y-61914285D01*
X142121547Y-61819047D01*
X142020357Y-61771428D01*
X141782261Y-61771428D01*
X141681071Y-61723809D01*
X140413214Y-61485714D02*
X140496547Y-62152380D01*
X140425119Y-61580952D02*
X140371547Y-61533333D01*
X140270357Y-61485714D01*
X140127500Y-61485714D01*
X140038214Y-61533333D01*
X140002500Y-61628571D01*
X140067976Y-62152380D01*
X139163214Y-62152380D02*
X139097738Y-61628571D01*
X139133452Y-61533333D01*
X139222738Y-61485714D01*
X139413214Y-61485714D01*
X139514404Y-61533333D01*
X139157261Y-62104761D02*
X139258452Y-62152380D01*
X139496547Y-62152380D01*
X139585833Y-62104761D01*
X139621547Y-62009523D01*
X139609642Y-61914285D01*
X139550119Y-61819047D01*
X139448928Y-61771428D01*
X139210833Y-61771428D01*
X139109642Y-61723809D01*
X138258452Y-62152380D02*
X138133452Y-61152380D01*
X138252500Y-62104761D02*
X138353690Y-62152380D01*
X138544166Y-62152380D01*
X138633452Y-62104761D01*
X138675119Y-62057142D01*
X138710833Y-61961904D01*
X138675119Y-61676190D01*
X138615595Y-61580952D01*
X138562023Y-61533333D01*
X138460833Y-61485714D01*
X138270357Y-61485714D01*
X138181071Y-61533333D01*
X137353690Y-62152380D02*
X137288214Y-61628571D01*
X137323928Y-61533333D01*
X137413214Y-61485714D01*
X137603690Y-61485714D01*
X137704880Y-61533333D01*
X137347738Y-62104761D02*
X137448928Y-62152380D01*
X137687023Y-62152380D01*
X137776309Y-62104761D01*
X137812023Y-62009523D01*
X137800119Y-61914285D01*
X137740595Y-61819047D01*
X137639404Y-61771428D01*
X137401309Y-61771428D01*
X137300119Y-61723809D01*
X166276309Y-62802380D02*
X165704880Y-62802380D01*
X166115595Y-63802380D02*
X165990595Y-62802380D01*
X165496547Y-63802380D02*
X165413214Y-63135714D01*
X165437023Y-63326190D02*
X165377500Y-63230952D01*
X165323928Y-63183333D01*
X165222738Y-63135714D01*
X165127500Y-63135714D01*
X164490595Y-63754761D02*
X164591785Y-63802380D01*
X164782261Y-63802380D01*
X164871547Y-63754761D01*
X164907261Y-63659523D01*
X164859642Y-63278571D01*
X164800119Y-63183333D01*
X164698928Y-63135714D01*
X164508452Y-63135714D01*
X164419166Y-63183333D01*
X164383452Y-63278571D01*
X164395357Y-63373809D01*
X164883452Y-63469047D01*
X164764404Y-62897619D02*
X164556071Y-62754761D01*
X164383452Y-62897619D01*
X164062023Y-63754761D02*
X163972738Y-63802380D01*
X163782261Y-63802380D01*
X163681071Y-63754761D01*
X163621547Y-63659523D01*
X163615595Y-63611904D01*
X163651309Y-63516666D01*
X163740595Y-63469047D01*
X163883452Y-63469047D01*
X163972738Y-63421428D01*
X164008452Y-63326190D01*
X164002500Y-63278571D01*
X163942976Y-63183333D01*
X163841785Y-63135714D01*
X163698928Y-63135714D01*
X163609642Y-63183333D01*
X162508452Y-63135714D02*
X162127500Y-63135714D01*
X162323928Y-62802380D02*
X162431071Y-63659523D01*
X162395357Y-63754761D01*
X162306071Y-63802380D01*
X162210833Y-63802380D01*
X161877500Y-63802380D02*
X161794166Y-63135714D01*
X161752500Y-62802380D02*
X161806071Y-62850000D01*
X161764404Y-62897619D01*
X161710833Y-62850000D01*
X161752500Y-62802380D01*
X161764404Y-62897619D01*
X161317976Y-63135714D02*
X161442976Y-64135714D01*
X161323928Y-63183333D02*
X161222738Y-63135714D01*
X161032261Y-63135714D01*
X160942976Y-63183333D01*
X160901309Y-63230952D01*
X160865595Y-63326190D01*
X160901309Y-63611904D01*
X160960833Y-63707142D01*
X161014404Y-63754761D01*
X161115595Y-63802380D01*
X161306071Y-63802380D01*
X161395357Y-63754761D01*
X160353690Y-63802380D02*
X160442976Y-63754761D01*
X160484642Y-63707142D01*
X160520357Y-63611904D01*
X160484642Y-63326190D01*
X160425119Y-63230952D01*
X160371547Y-63183333D01*
X160270357Y-63135714D01*
X160127500Y-63135714D01*
X160038214Y-63183333D01*
X159996547Y-63230952D01*
X159960833Y-63326190D01*
X159996547Y-63611904D01*
X160056071Y-63707142D01*
X160109642Y-63754761D01*
X160210833Y-63802380D01*
X160353690Y-63802380D01*
X159633452Y-63754761D02*
X159544166Y-63802380D01*
X159353690Y-63802380D01*
X159252500Y-63754761D01*
X159192976Y-63659523D01*
X159187023Y-63611904D01*
X159222738Y-63516666D01*
X159312023Y-63469047D01*
X159454880Y-63469047D01*
X159544166Y-63421428D01*
X159579880Y-63326190D01*
X159573928Y-63278571D01*
X159514404Y-63183333D01*
X159413214Y-63135714D01*
X159270357Y-63135714D01*
X159181071Y-63183333D01*
X157591785Y-63802380D02*
X157466785Y-62802380D01*
X157585833Y-63754761D02*
X157687023Y-63802380D01*
X157877500Y-63802380D01*
X157966785Y-63754761D01*
X158008452Y-63707142D01*
X158044166Y-63611904D01*
X158008452Y-63326190D01*
X157948928Y-63230952D01*
X157895357Y-63183333D01*
X157794166Y-63135714D01*
X157603690Y-63135714D01*
X157514404Y-63183333D01*
X156728690Y-63754761D02*
X156829880Y-63802380D01*
X157020357Y-63802380D01*
X157109642Y-63754761D01*
X157145357Y-63659523D01*
X157097738Y-63278571D01*
X157038214Y-63183333D01*
X156937023Y-63135714D01*
X156746547Y-63135714D01*
X156657261Y-63183333D01*
X156621547Y-63278571D01*
X156633452Y-63373809D01*
X157121547Y-63469047D01*
X155496547Y-63802380D02*
X155413214Y-63135714D01*
X155371547Y-62802380D02*
X155425119Y-62850000D01*
X155383452Y-62897619D01*
X155329880Y-62850000D01*
X155371547Y-62802380D01*
X155383452Y-62897619D01*
X154591785Y-63802380D02*
X154466785Y-62802380D01*
X154585833Y-63754761D02*
X154687023Y-63802380D01*
X154877500Y-63802380D01*
X154966785Y-63754761D01*
X155008452Y-63707142D01*
X155044166Y-63611904D01*
X155008452Y-63326190D01*
X154948928Y-63230952D01*
X154895357Y-63183333D01*
X154794166Y-63135714D01*
X154603690Y-63135714D01*
X154514404Y-63183333D01*
X153728690Y-63754761D02*
X153829880Y-63802380D01*
X154020357Y-63802380D01*
X154109642Y-63754761D01*
X154145357Y-63659523D01*
X154097738Y-63278571D01*
X154038214Y-63183333D01*
X153937023Y-63135714D01*
X153746547Y-63135714D01*
X153657261Y-63183333D01*
X153621547Y-63278571D01*
X153633452Y-63373809D01*
X154121547Y-63469047D01*
X152829880Y-63802380D02*
X152764404Y-63278571D01*
X152800119Y-63183333D01*
X152889404Y-63135714D01*
X153079880Y-63135714D01*
X153181071Y-63183333D01*
X152823928Y-63754761D02*
X152925119Y-63802380D01*
X153163214Y-63802380D01*
X153252500Y-63754761D01*
X153288214Y-63659523D01*
X153276309Y-63564285D01*
X153216785Y-63469047D01*
X153115595Y-63421428D01*
X152877500Y-63421428D01*
X152776309Y-63373809D01*
X152210833Y-63802380D02*
X152300119Y-63754761D01*
X152335833Y-63659523D01*
X152228690Y-62802380D01*
X151829880Y-63802380D02*
X151746547Y-63135714D01*
X151704880Y-62802380D02*
X151758452Y-62850000D01*
X151716785Y-62897619D01*
X151663214Y-62850000D01*
X151704880Y-62802380D01*
X151716785Y-62897619D01*
X151395357Y-63754761D02*
X151306071Y-63802380D01*
X151115595Y-63802380D01*
X151014404Y-63754761D01*
X150954880Y-63659523D01*
X150948928Y-63611904D01*
X150984642Y-63516666D01*
X151073928Y-63469047D01*
X151216785Y-63469047D01*
X151306071Y-63421428D01*
X151341785Y-63326190D01*
X151335833Y-63278571D01*
X151276309Y-63183333D01*
X151175119Y-63135714D01*
X151032261Y-63135714D01*
X150942976Y-63183333D01*
X150603690Y-63135714D02*
X150222738Y-63135714D01*
X150419166Y-62802380D02*
X150526309Y-63659523D01*
X150490595Y-63754761D01*
X150401309Y-63802380D01*
X150306071Y-63802380D01*
X149544166Y-63802380D02*
X149478690Y-63278571D01*
X149514404Y-63183333D01*
X149603690Y-63135714D01*
X149794166Y-63135714D01*
X149895357Y-63183333D01*
X149538214Y-63754761D02*
X149639404Y-63802380D01*
X149877500Y-63802380D01*
X149966785Y-63754761D01*
X150002500Y-63659523D01*
X149990595Y-63564285D01*
X149931071Y-63469047D01*
X149829880Y-63421428D01*
X149591785Y-63421428D01*
X149490595Y-63373809D01*
X149109642Y-63754761D02*
X149020357Y-63802380D01*
X148829880Y-63802380D01*
X148728690Y-63754761D01*
X148669166Y-63659523D01*
X148663214Y-63611904D01*
X148698928Y-63516666D01*
X148788214Y-63469047D01*
X148931071Y-63469047D01*
X149020357Y-63421428D01*
X149056071Y-63326190D01*
X149050119Y-63278571D01*
X148990595Y-63183333D01*
X148889404Y-63135714D01*
X148746547Y-63135714D01*
X148657261Y-63183333D01*
X148204880Y-63754761D02*
X148210833Y-63802380D01*
X148270357Y-63897619D01*
X148323928Y-63945238D01*
X146633452Y-63754761D02*
X146734642Y-63802380D01*
X146925119Y-63802380D01*
X147014404Y-63754761D01*
X147050119Y-63659523D01*
X147002500Y-63278571D01*
X146942976Y-63183333D01*
X146841785Y-63135714D01*
X146651309Y-63135714D01*
X146562023Y-63183333D01*
X146526309Y-63278571D01*
X146538214Y-63373809D01*
X147026309Y-63469047D01*
X145014404Y-63754761D02*
X145115595Y-63802380D01*
X145306071Y-63802380D01*
X145395357Y-63754761D01*
X145431071Y-63659523D01*
X145383452Y-63278571D01*
X145323928Y-63183333D01*
X145222738Y-63135714D01*
X145032261Y-63135714D01*
X144942976Y-63183333D01*
X144907261Y-63278571D01*
X144919166Y-63373809D01*
X145407261Y-63469047D01*
X144032261Y-63135714D02*
X144115595Y-63802380D01*
X144460833Y-63135714D02*
X144526309Y-63659523D01*
X144490595Y-63754761D01*
X144401309Y-63802380D01*
X144258452Y-63802380D01*
X144157261Y-63754761D01*
X144103690Y-63707142D01*
X142794166Y-63135714D02*
X142877500Y-63802380D01*
X142806071Y-63230952D02*
X142752500Y-63183333D01*
X142651309Y-63135714D01*
X142508452Y-63135714D01*
X142419166Y-63183333D01*
X142383452Y-63278571D01*
X142448928Y-63802380D01*
X141585833Y-63754761D02*
X141687023Y-63802380D01*
X141877500Y-63802380D01*
X141966785Y-63754761D01*
X142002500Y-63659523D01*
X141954880Y-63278571D01*
X141895357Y-63183333D01*
X141794166Y-63135714D01*
X141603690Y-63135714D01*
X141514404Y-63183333D01*
X141478690Y-63278571D01*
X141490595Y-63373809D01*
X141978690Y-63469047D01*
X141032261Y-63135714D02*
X141115595Y-63802380D01*
X141044166Y-63230952D02*
X140990595Y-63183333D01*
X140889404Y-63135714D01*
X140746547Y-63135714D01*
X140657261Y-63183333D01*
X140621547Y-63278571D01*
X140687023Y-63802380D01*
X140210833Y-63802380D02*
X140085833Y-62802380D01*
X139782261Y-63802380D02*
X139716785Y-63278571D01*
X139752500Y-63183333D01*
X139841785Y-63135714D01*
X139984642Y-63135714D01*
X140085833Y-63183333D01*
X140139404Y-63230952D01*
X138794166Y-63135714D02*
X138877500Y-63802380D01*
X139222738Y-63135714D02*
X139288214Y-63659523D01*
X139252500Y-63754761D01*
X139163214Y-63802380D01*
X139020357Y-63802380D01*
X138919166Y-63754761D01*
X138865595Y-63707142D01*
X138401309Y-63802380D02*
X138317976Y-63135714D01*
X138329880Y-63230952D02*
X138276309Y-63183333D01*
X138175119Y-63135714D01*
X138032261Y-63135714D01*
X137942976Y-63183333D01*
X137907261Y-63278571D01*
X137972738Y-63802380D01*
X137907261Y-63278571D02*
X137847738Y-63183333D01*
X137746547Y-63135714D01*
X137603690Y-63135714D01*
X137514404Y-63183333D01*
X137478690Y-63278571D01*
X137544166Y-63802380D01*
X135877500Y-63802380D02*
X135752500Y-62802380D01*
X135871547Y-63754761D02*
X135972738Y-63802380D01*
X136163214Y-63802380D01*
X136252500Y-63754761D01*
X136294166Y-63707142D01*
X136329880Y-63611904D01*
X136294166Y-63326190D01*
X136234642Y-63230952D01*
X136181071Y-63183333D01*
X136079880Y-63135714D01*
X135889404Y-63135714D01*
X135800119Y-63183333D01*
X135014404Y-63754761D02*
X135115595Y-63802380D01*
X135306071Y-63802380D01*
X135395357Y-63754761D01*
X135431071Y-63659523D01*
X135383452Y-63278571D01*
X135323928Y-63183333D01*
X135222738Y-63135714D01*
X135032261Y-63135714D01*
X134942976Y-63183333D01*
X134907261Y-63278571D01*
X134919166Y-63373809D01*
X135407261Y-63469047D01*
X134401309Y-63802380D02*
X134490595Y-63754761D01*
X134526309Y-63659523D01*
X134419166Y-62802380D01*
X133633452Y-63754761D02*
X133734642Y-63802380D01*
X133925119Y-63802380D01*
X134014404Y-63754761D01*
X134050119Y-63659523D01*
X134002500Y-63278571D01*
X133942976Y-63183333D01*
X133841785Y-63135714D01*
X133651309Y-63135714D01*
X133562023Y-63183333D01*
X133526309Y-63278571D01*
X133538214Y-63373809D01*
X134026309Y-63469047D01*
X133204880Y-63754761D02*
X133115595Y-63802380D01*
X132925119Y-63802380D01*
X132823928Y-63754761D01*
X132764404Y-63659523D01*
X132758452Y-63611904D01*
X132794166Y-63516666D01*
X132883452Y-63469047D01*
X133026309Y-63469047D01*
X133115595Y-63421428D01*
X133151309Y-63326190D01*
X133145357Y-63278571D01*
X133085833Y-63183333D01*
X132984642Y-63135714D01*
X132841785Y-63135714D01*
X132752500Y-63183333D01*
X132341785Y-63707142D02*
X132300119Y-63754761D01*
X132353690Y-63802380D01*
X132395357Y-63754761D01*
X132341785Y-63707142D01*
X132353690Y-63802380D01*
X132276309Y-63183333D02*
X132234642Y-63230952D01*
X132288214Y-63278571D01*
X132329880Y-63230952D01*
X132276309Y-63183333D01*
X132288214Y-63278571D01*
X166258452Y-65452380D02*
X166133452Y-64452380D01*
X165752500Y-64452380D01*
X165663214Y-64500000D01*
X165621547Y-64547619D01*
X165585833Y-64642857D01*
X165603690Y-64785714D01*
X165663214Y-64880952D01*
X165716785Y-64928571D01*
X165817976Y-64976190D01*
X166198928Y-64976190D01*
X165115595Y-65452380D02*
X165204880Y-65404761D01*
X165246547Y-65357142D01*
X165282261Y-65261904D01*
X165246547Y-64976190D01*
X165187023Y-64880952D01*
X165133452Y-64833333D01*
X165032261Y-64785714D01*
X164889404Y-64785714D01*
X164800119Y-64833333D01*
X164758452Y-64880952D01*
X164722738Y-64976190D01*
X164758452Y-65261904D01*
X164817976Y-65357142D01*
X164871547Y-65404761D01*
X164972738Y-65452380D01*
X165115595Y-65452380D01*
X164353690Y-65452380D02*
X164270357Y-64785714D01*
X164294166Y-64976190D02*
X164234642Y-64880952D01*
X164181071Y-64833333D01*
X164079880Y-64785714D01*
X163984642Y-64785714D01*
X163222738Y-64785714D02*
X163347738Y-65785714D01*
X163300119Y-65404761D02*
X163401309Y-65452380D01*
X163591785Y-65452380D01*
X163681071Y-65404761D01*
X163722738Y-65357142D01*
X163758452Y-65261904D01*
X163722738Y-64976190D01*
X163663214Y-64880952D01*
X163609642Y-64833333D01*
X163508452Y-64785714D01*
X163317976Y-64785714D01*
X163228690Y-64833333D01*
X162317976Y-64785714D02*
X162401309Y-65452380D01*
X162746547Y-64785714D02*
X162812023Y-65309523D01*
X162776309Y-65404761D01*
X162687023Y-65452380D01*
X162544166Y-65452380D01*
X162442976Y-65404761D01*
X162389404Y-65357142D01*
X161538214Y-65404761D02*
X161639404Y-65452380D01*
X161829880Y-65452380D01*
X161919166Y-65404761D01*
X161954880Y-65309523D01*
X161907261Y-64928571D01*
X161847738Y-64833333D01*
X161746547Y-64785714D01*
X161556071Y-64785714D01*
X161466785Y-64833333D01*
X161431071Y-64928571D01*
X161442976Y-65023809D01*
X161931071Y-65119047D01*
X159919166Y-65404761D02*
X160020357Y-65452380D01*
X160210833Y-65452380D01*
X160300119Y-65404761D01*
X160335833Y-65309523D01*
X160288214Y-64928571D01*
X160228690Y-64833333D01*
X160127500Y-64785714D01*
X159937023Y-64785714D01*
X159847738Y-64833333D01*
X159812023Y-64928571D01*
X159823928Y-65023809D01*
X160312023Y-65119047D01*
X158937023Y-64785714D02*
X159020357Y-65452380D01*
X159365595Y-64785714D02*
X159431071Y-65309523D01*
X159395357Y-65404761D01*
X159306071Y-65452380D01*
X159163214Y-65452380D01*
X159062023Y-65404761D01*
X159008452Y-65357142D01*
X157353690Y-65452380D02*
X157288214Y-64928571D01*
X157323928Y-64833333D01*
X157413214Y-64785714D01*
X157603690Y-64785714D01*
X157704880Y-64833333D01*
X157347738Y-65404761D02*
X157448928Y-65452380D01*
X157687023Y-65452380D01*
X157776309Y-65404761D01*
X157812023Y-65309523D01*
X157800119Y-65214285D01*
X157740595Y-65119047D01*
X157639404Y-65071428D01*
X157401309Y-65071428D01*
X157300119Y-65023809D01*
X156877500Y-65452380D02*
X156794166Y-64785714D01*
X156806071Y-64880952D02*
X156752500Y-64833333D01*
X156651309Y-64785714D01*
X156508452Y-64785714D01*
X156419166Y-64833333D01*
X156383452Y-64928571D01*
X156448928Y-65452380D01*
X156383452Y-64928571D02*
X156323928Y-64833333D01*
X156222738Y-64785714D01*
X156079880Y-64785714D01*
X155990595Y-64833333D01*
X155954880Y-64928571D01*
X156020357Y-65452380D01*
X155401309Y-65452380D02*
X155490595Y-65404761D01*
X155532261Y-65357142D01*
X155567976Y-65261904D01*
X155532261Y-64976190D01*
X155472738Y-64880952D01*
X155419166Y-64833333D01*
X155317976Y-64785714D01*
X155175119Y-64785714D01*
X155085833Y-64833333D01*
X155044166Y-64880952D01*
X155008452Y-64976190D01*
X155044166Y-65261904D01*
X155103690Y-65357142D01*
X155157261Y-65404761D01*
X155258452Y-65452380D01*
X155401309Y-65452380D01*
X153877500Y-65452380D02*
X153794166Y-64785714D01*
X153752500Y-64452380D02*
X153806071Y-64500000D01*
X153764404Y-64547619D01*
X153710833Y-64500000D01*
X153752500Y-64452380D01*
X153764404Y-64547619D01*
X153317976Y-64785714D02*
X153401309Y-65452380D01*
X153329880Y-64880952D02*
X153276309Y-64833333D01*
X153175119Y-64785714D01*
X153032261Y-64785714D01*
X152942976Y-64833333D01*
X152907261Y-64928571D01*
X152972738Y-65452380D01*
X152556071Y-64785714D02*
X152175119Y-64785714D01*
X152496547Y-65452380D02*
X152389404Y-64595238D01*
X152329880Y-64500000D01*
X152228690Y-64452380D01*
X152133452Y-64452380D01*
X151925119Y-65452380D02*
X151841785Y-64785714D01*
X151800119Y-64452380D02*
X151853690Y-64500000D01*
X151812023Y-64547619D01*
X151758452Y-64500000D01*
X151800119Y-64452380D01*
X151812023Y-64547619D01*
X151365595Y-64785714D02*
X151448928Y-65452380D01*
X151377500Y-64880952D02*
X151323928Y-64833333D01*
X151222738Y-64785714D01*
X151079880Y-64785714D01*
X150990595Y-64833333D01*
X150954880Y-64928571D01*
X151020357Y-65452380D01*
X150544166Y-65452380D02*
X150460833Y-64785714D01*
X150419166Y-64452380D02*
X150472738Y-64500000D01*
X150431071Y-64547619D01*
X150377500Y-64500000D01*
X150419166Y-64452380D01*
X150431071Y-64547619D01*
X150127500Y-64785714D02*
X149746547Y-64785714D01*
X149942976Y-64452380D02*
X150050119Y-65309523D01*
X150014404Y-65404761D01*
X149925119Y-65452380D01*
X149829880Y-65452380D01*
X149067976Y-65452380D02*
X149002500Y-64928571D01*
X149038214Y-64833333D01*
X149127500Y-64785714D01*
X149317976Y-64785714D01*
X149419166Y-64833333D01*
X149062023Y-65404761D02*
X149163214Y-65452380D01*
X149401309Y-65452380D01*
X149490595Y-65404761D01*
X149526309Y-65309523D01*
X149514404Y-65214285D01*
X149454880Y-65119047D01*
X149353690Y-65071428D01*
X149115595Y-65071428D01*
X149014404Y-65023809D01*
X148591785Y-65452380D02*
X148508452Y-64785714D01*
X148520357Y-64880952D02*
X148466785Y-64833333D01*
X148365595Y-64785714D01*
X148222738Y-64785714D01*
X148133452Y-64833333D01*
X148097738Y-64928571D01*
X148163214Y-65452380D01*
X148097738Y-64928571D02*
X148038214Y-64833333D01*
X147937023Y-64785714D01*
X147794166Y-64785714D01*
X147704880Y-64833333D01*
X147669166Y-64928571D01*
X147734642Y-65452380D01*
X146871547Y-65404761D02*
X146972738Y-65452380D01*
X147163214Y-65452380D01*
X147252500Y-65404761D01*
X147288214Y-65309523D01*
X147240595Y-64928571D01*
X147181071Y-64833333D01*
X147079880Y-64785714D01*
X146889404Y-64785714D01*
X146800119Y-64833333D01*
X146764404Y-64928571D01*
X146776309Y-65023809D01*
X147264404Y-65119047D01*
X146317976Y-64785714D02*
X146401309Y-65452380D01*
X146329880Y-64880952D02*
X146276309Y-64833333D01*
X146175119Y-64785714D01*
X146032261Y-64785714D01*
X145942976Y-64833333D01*
X145907261Y-64928571D01*
X145972738Y-65452380D01*
X145556071Y-64785714D02*
X145175119Y-64785714D01*
X145371547Y-64452380D02*
X145478690Y-65309523D01*
X145442976Y-65404761D01*
X145353690Y-65452380D01*
X145258452Y-65452380D01*
X144538214Y-65404761D02*
X144639404Y-65452380D01*
X144829880Y-65452380D01*
X144919166Y-65404761D01*
X144954880Y-65309523D01*
X144907261Y-64928571D01*
X144847738Y-64833333D01*
X144746547Y-64785714D01*
X144556071Y-64785714D01*
X144466785Y-64833333D01*
X144431071Y-64928571D01*
X144442976Y-65023809D01*
X144931071Y-65119047D01*
X143163214Y-65452380D02*
X143252500Y-65404761D01*
X143294166Y-65357142D01*
X143329880Y-65261904D01*
X143294166Y-64976190D01*
X143234642Y-64880952D01*
X143181071Y-64833333D01*
X143079880Y-64785714D01*
X142937023Y-64785714D01*
X142847738Y-64833333D01*
X142806071Y-64880952D01*
X142770357Y-64976190D01*
X142806071Y-65261904D01*
X142865595Y-65357142D01*
X142919166Y-65404761D01*
X143020357Y-65452380D01*
X143163214Y-65452380D01*
X141698928Y-64785714D02*
X141317976Y-64785714D01*
X141639404Y-65452380D02*
X141532261Y-64595238D01*
X141472738Y-64500000D01*
X141371547Y-64452380D01*
X141276309Y-64452380D01*
X141067976Y-65452380D02*
X140984642Y-64785714D01*
X140942976Y-64452380D02*
X140996547Y-64500000D01*
X140954880Y-64547619D01*
X140901309Y-64500000D01*
X140942976Y-64452380D01*
X140954880Y-64547619D01*
X140508452Y-64785714D02*
X140591785Y-65452380D01*
X140520357Y-64880952D02*
X140466785Y-64833333D01*
X140365595Y-64785714D01*
X140222738Y-64785714D01*
X140133452Y-64833333D01*
X140097738Y-64928571D01*
X140163214Y-65452380D01*
X139687023Y-65452380D02*
X139603690Y-64785714D01*
X139562023Y-64452380D02*
X139615595Y-64500000D01*
X139573928Y-64547619D01*
X139520357Y-64500000D01*
X139562023Y-64452380D01*
X139573928Y-64547619D01*
X139270357Y-64785714D02*
X138889404Y-64785714D01*
X139085833Y-64452380D02*
X139192976Y-65309523D01*
X139157261Y-65404761D01*
X139067976Y-65452380D01*
X138972738Y-65452380D01*
X138496547Y-65452380D02*
X138585833Y-65404761D01*
X138627500Y-65357142D01*
X138663214Y-65261904D01*
X138627500Y-64976190D01*
X138567976Y-64880952D01*
X138514404Y-64833333D01*
X138413214Y-64785714D01*
X138270357Y-64785714D01*
X138181071Y-64833333D01*
X138139404Y-64880952D01*
X138103690Y-64976190D01*
X138139404Y-65261904D01*
X138198928Y-65357142D01*
X138252500Y-65404761D01*
X138353690Y-65452380D01*
X138496547Y-65452380D01*
X137681071Y-65404761D02*
X137687023Y-65452380D01*
X137746547Y-65547619D01*
X137800119Y-65595238D01*
X166258452Y-67102380D02*
X166133452Y-66102380D01*
X165752500Y-66102380D01*
X165663214Y-66150000D01*
X165621547Y-66197619D01*
X165585833Y-66292857D01*
X165603690Y-66435714D01*
X165663214Y-66530952D01*
X165716785Y-66578571D01*
X165817976Y-66626190D01*
X166198928Y-66626190D01*
X165115595Y-67102380D02*
X165204880Y-67054761D01*
X165246547Y-67007142D01*
X165282261Y-66911904D01*
X165246547Y-66626190D01*
X165187023Y-66530952D01*
X165133452Y-66483333D01*
X165032261Y-66435714D01*
X164889404Y-66435714D01*
X164800119Y-66483333D01*
X164758452Y-66530952D01*
X164722738Y-66626190D01*
X164758452Y-66911904D01*
X164817976Y-67007142D01*
X164871547Y-67054761D01*
X164972738Y-67102380D01*
X165115595Y-67102380D01*
X164353690Y-67102380D02*
X164270357Y-66435714D01*
X164294166Y-66626190D02*
X164234642Y-66530952D01*
X164181071Y-66483333D01*
X164079880Y-66435714D01*
X163984642Y-66435714D01*
X163222738Y-66435714D02*
X163347738Y-67435714D01*
X163300119Y-67054761D02*
X163401309Y-67102380D01*
X163591785Y-67102380D01*
X163681071Y-67054761D01*
X163722738Y-67007142D01*
X163758452Y-66911904D01*
X163722738Y-66626190D01*
X163663214Y-66530952D01*
X163609642Y-66483333D01*
X163508452Y-66435714D01*
X163317976Y-66435714D01*
X163228690Y-66483333D01*
X162317976Y-66435714D02*
X162401309Y-67102380D01*
X162746547Y-66435714D02*
X162812023Y-66959523D01*
X162776309Y-67054761D01*
X162687023Y-67102380D01*
X162544166Y-67102380D01*
X162442976Y-67054761D01*
X162389404Y-67007142D01*
X161538214Y-67054761D02*
X161639404Y-67102380D01*
X161829880Y-67102380D01*
X161919166Y-67054761D01*
X161954880Y-66959523D01*
X161907261Y-66578571D01*
X161847738Y-66483333D01*
X161746547Y-66435714D01*
X161556071Y-66435714D01*
X161466785Y-66483333D01*
X161431071Y-66578571D01*
X161442976Y-66673809D01*
X161931071Y-66769047D01*
X159919166Y-67054761D02*
X160020357Y-67102380D01*
X160210833Y-67102380D01*
X160300119Y-67054761D01*
X160335833Y-66959523D01*
X160288214Y-66578571D01*
X160228690Y-66483333D01*
X160127500Y-66435714D01*
X159937023Y-66435714D01*
X159847738Y-66483333D01*
X159812023Y-66578571D01*
X159823928Y-66673809D01*
X160312023Y-66769047D01*
X158937023Y-66435714D02*
X159020357Y-67102380D01*
X159365595Y-66435714D02*
X159431071Y-66959523D01*
X159395357Y-67054761D01*
X159306071Y-67102380D01*
X159163214Y-67102380D01*
X159062023Y-67054761D01*
X159008452Y-67007142D01*
X157353690Y-67102380D02*
X157228690Y-66102380D01*
X157347738Y-67054761D02*
X157448928Y-67102380D01*
X157639404Y-67102380D01*
X157728690Y-67054761D01*
X157770357Y-67007142D01*
X157806071Y-66911904D01*
X157770357Y-66626190D01*
X157710833Y-66530952D01*
X157657261Y-66483333D01*
X157556071Y-66435714D01*
X157365595Y-66435714D01*
X157276309Y-66483333D01*
X156490595Y-67054761D02*
X156591785Y-67102380D01*
X156782261Y-67102380D01*
X156871547Y-67054761D01*
X156907261Y-66959523D01*
X156859642Y-66578571D01*
X156800119Y-66483333D01*
X156698928Y-66435714D01*
X156508452Y-66435714D01*
X156419166Y-66483333D01*
X156383452Y-66578571D01*
X156395357Y-66673809D01*
X156883452Y-66769047D01*
X156062023Y-67054761D02*
X155972738Y-67102380D01*
X155782261Y-67102380D01*
X155681071Y-67054761D01*
X155621547Y-66959523D01*
X155615595Y-66911904D01*
X155651309Y-66816666D01*
X155740595Y-66769047D01*
X155883452Y-66769047D01*
X155972738Y-66721428D01*
X156008452Y-66626190D01*
X156002500Y-66578571D01*
X155942976Y-66483333D01*
X155841785Y-66435714D01*
X155698928Y-66435714D01*
X155609642Y-66483333D01*
X154823928Y-67054761D02*
X154925119Y-67102380D01*
X155115595Y-67102380D01*
X155204880Y-67054761D01*
X155240595Y-66959523D01*
X155192976Y-66578571D01*
X155133452Y-66483333D01*
X155032261Y-66435714D01*
X154841785Y-66435714D01*
X154752500Y-66483333D01*
X154716785Y-66578571D01*
X154728690Y-66673809D01*
X155216785Y-66769047D01*
X154270357Y-66435714D02*
X154377500Y-67292857D01*
X154437023Y-67388095D01*
X154538214Y-67435714D01*
X154585833Y-67435714D01*
X154228690Y-66102380D02*
X154282261Y-66150000D01*
X154240595Y-66197619D01*
X154187023Y-66150000D01*
X154228690Y-66102380D01*
X154240595Y-66197619D01*
X153734642Y-67102380D02*
X153823928Y-67054761D01*
X153865595Y-67007142D01*
X153901309Y-66911904D01*
X153865595Y-66626190D01*
X153806071Y-66530952D01*
X153752500Y-66483333D01*
X153651309Y-66435714D01*
X153508452Y-66435714D01*
X153419166Y-66483333D01*
X153377500Y-66530952D01*
X153341785Y-66626190D01*
X153377500Y-66911904D01*
X153437023Y-67007142D01*
X153490595Y-67054761D01*
X153591785Y-67102380D01*
X153734642Y-67102380D01*
X152210833Y-67102380D02*
X152127500Y-66435714D01*
X152085833Y-66102380D02*
X152139404Y-66150000D01*
X152097738Y-66197619D01*
X152044166Y-66150000D01*
X152085833Y-66102380D01*
X152097738Y-66197619D01*
X151734642Y-67102380D02*
X151651309Y-66435714D01*
X151663214Y-66530952D02*
X151609642Y-66483333D01*
X151508452Y-66435714D01*
X151365595Y-66435714D01*
X151276309Y-66483333D01*
X151240595Y-66578571D01*
X151306071Y-67102380D01*
X151240595Y-66578571D02*
X151181071Y-66483333D01*
X151079880Y-66435714D01*
X150937023Y-66435714D01*
X150847738Y-66483333D01*
X150812023Y-66578571D01*
X150877500Y-67102380D01*
X150317976Y-66435714D02*
X150442976Y-67435714D01*
X150323928Y-66483333D02*
X150222738Y-66435714D01*
X150032261Y-66435714D01*
X149942976Y-66483333D01*
X149901309Y-66530952D01*
X149865595Y-66626190D01*
X149901309Y-66911904D01*
X149960833Y-67007142D01*
X150014404Y-67054761D01*
X150115595Y-67102380D01*
X150306071Y-67102380D01*
X150395357Y-67054761D01*
X149353690Y-67102380D02*
X149442976Y-67054761D01*
X149484642Y-67007142D01*
X149520357Y-66911904D01*
X149484642Y-66626190D01*
X149425119Y-66530952D01*
X149371547Y-66483333D01*
X149270357Y-66435714D01*
X149127500Y-66435714D01*
X149038214Y-66483333D01*
X148996547Y-66530952D01*
X148960833Y-66626190D01*
X148996547Y-66911904D01*
X149056071Y-67007142D01*
X149109642Y-67054761D01*
X149210833Y-67102380D01*
X149353690Y-67102380D01*
X148633452Y-67054761D02*
X148544166Y-67102380D01*
X148353690Y-67102380D01*
X148252500Y-67054761D01*
X148192976Y-66959523D01*
X148187023Y-66911904D01*
X148222738Y-66816666D01*
X148312023Y-66769047D01*
X148454880Y-66769047D01*
X148544166Y-66721428D01*
X148579880Y-66626190D01*
X148573928Y-66578571D01*
X148514404Y-66483333D01*
X148413214Y-66435714D01*
X148270357Y-66435714D01*
X148181071Y-66483333D01*
X147823928Y-67054761D02*
X147734642Y-67102380D01*
X147544166Y-67102380D01*
X147442976Y-67054761D01*
X147383452Y-66959523D01*
X147377500Y-66911904D01*
X147413214Y-66816666D01*
X147502500Y-66769047D01*
X147645357Y-66769047D01*
X147734642Y-66721428D01*
X147770357Y-66626190D01*
X147764404Y-66578571D01*
X147704880Y-66483333D01*
X147603690Y-66435714D01*
X147460833Y-66435714D01*
X147371547Y-66483333D01*
X146972738Y-67102380D02*
X146889404Y-66435714D01*
X146847738Y-66102380D02*
X146901309Y-66150000D01*
X146859642Y-66197619D01*
X146806071Y-66150000D01*
X146847738Y-66102380D01*
X146859642Y-66197619D01*
X146508452Y-66435714D02*
X146353690Y-67102380D01*
X146032261Y-66435714D01*
X145347738Y-67054761D02*
X145448928Y-67102380D01*
X145639404Y-67102380D01*
X145728690Y-67054761D01*
X145764404Y-66959523D01*
X145716785Y-66578571D01*
X145657261Y-66483333D01*
X145556071Y-66435714D01*
X145365595Y-66435714D01*
X145276309Y-66483333D01*
X145240595Y-66578571D01*
X145252500Y-66673809D01*
X145740595Y-66769047D01*
X144734642Y-67102380D02*
X144823928Y-67054761D01*
X144859642Y-66959523D01*
X144752500Y-66102380D01*
X144353690Y-67102380D02*
X144270357Y-66435714D01*
X144282261Y-66530952D02*
X144228690Y-66483333D01*
X144127500Y-66435714D01*
X143984642Y-66435714D01*
X143895357Y-66483333D01*
X143859642Y-66578571D01*
X143925119Y-67102380D01*
X143859642Y-66578571D02*
X143800119Y-66483333D01*
X143698928Y-66435714D01*
X143556071Y-66435714D01*
X143466785Y-66483333D01*
X143431071Y-66578571D01*
X143496547Y-67102380D01*
X142633452Y-67054761D02*
X142734642Y-67102380D01*
X142925119Y-67102380D01*
X143014404Y-67054761D01*
X143050119Y-66959523D01*
X143002500Y-66578571D01*
X142942976Y-66483333D01*
X142841785Y-66435714D01*
X142651309Y-66435714D01*
X142562023Y-66483333D01*
X142526309Y-66578571D01*
X142538214Y-66673809D01*
X143026309Y-66769047D01*
X142079880Y-66435714D02*
X142163214Y-67102380D01*
X142091785Y-66530952D02*
X142038214Y-66483333D01*
X141937023Y-66435714D01*
X141794166Y-66435714D01*
X141704880Y-66483333D01*
X141669166Y-66578571D01*
X141734642Y-67102380D01*
X141317976Y-66435714D02*
X140937023Y-66435714D01*
X141133452Y-66102380D02*
X141240595Y-66959523D01*
X141204880Y-67054761D01*
X141115595Y-67102380D01*
X141020357Y-67102380D01*
X140300119Y-67054761D02*
X140401309Y-67102380D01*
X140591785Y-67102380D01*
X140681071Y-67054761D01*
X140716785Y-66959523D01*
X140669166Y-66578571D01*
X140609642Y-66483333D01*
X140508452Y-66435714D01*
X140317976Y-66435714D01*
X140228690Y-66483333D01*
X140192976Y-66578571D01*
X140204880Y-66673809D01*
X140692976Y-66769047D01*
X138925119Y-67102380D02*
X139014404Y-67054761D01*
X139056071Y-67007142D01*
X139091785Y-66911904D01*
X139056071Y-66626190D01*
X138996547Y-66530952D01*
X138942976Y-66483333D01*
X138841785Y-66435714D01*
X138698928Y-66435714D01*
X138609642Y-66483333D01*
X138567976Y-66530952D01*
X138532261Y-66626190D01*
X138567976Y-66911904D01*
X138627500Y-67007142D01*
X138681071Y-67054761D01*
X138782261Y-67102380D01*
X138925119Y-67102380D01*
X137317976Y-66435714D02*
X137442976Y-67435714D01*
X137323928Y-66483333D02*
X137222738Y-66435714D01*
X137032261Y-66435714D01*
X136942976Y-66483333D01*
X136901309Y-66530952D01*
X136865595Y-66626190D01*
X136901309Y-66911904D01*
X136960833Y-67007142D01*
X137014404Y-67054761D01*
X137115595Y-67102380D01*
X137306071Y-67102380D01*
X137395357Y-67054761D01*
X136353690Y-67102380D02*
X136442976Y-67054761D01*
X136484642Y-67007142D01*
X136520357Y-66911904D01*
X136484642Y-66626190D01*
X136425119Y-66530952D01*
X136371547Y-66483333D01*
X136270357Y-66435714D01*
X136127500Y-66435714D01*
X136038214Y-66483333D01*
X135996547Y-66530952D01*
X135960833Y-66626190D01*
X135996547Y-66911904D01*
X136056071Y-67007142D01*
X136109642Y-67054761D01*
X136210833Y-67102380D01*
X136353690Y-67102380D01*
X135633452Y-67054761D02*
X135544166Y-67102380D01*
X135353690Y-67102380D01*
X135252500Y-67054761D01*
X135192976Y-66959523D01*
X135187023Y-66911904D01*
X135222738Y-66816666D01*
X135312023Y-66769047D01*
X135454880Y-66769047D01*
X135544166Y-66721428D01*
X135579880Y-66626190D01*
X135573928Y-66578571D01*
X135514404Y-66483333D01*
X135413214Y-66435714D01*
X135270357Y-66435714D01*
X135181071Y-66483333D01*
X134823928Y-67054761D02*
X134734642Y-67102380D01*
X134544166Y-67102380D01*
X134442976Y-67054761D01*
X134383452Y-66959523D01*
X134377500Y-66911904D01*
X134413214Y-66816666D01*
X134502500Y-66769047D01*
X134645357Y-66769047D01*
X134734642Y-66721428D01*
X134770357Y-66626190D01*
X134764404Y-66578571D01*
X134704880Y-66483333D01*
X134603690Y-66435714D01*
X134460833Y-66435714D01*
X134371547Y-66483333D01*
X133972738Y-67102380D02*
X133889404Y-66435714D01*
X133746547Y-66054761D02*
X133907261Y-66197619D01*
X133508452Y-66435714D02*
X133353690Y-67102380D01*
X133032261Y-66435714D01*
X132347738Y-67054761D02*
X132448928Y-67102380D01*
X132639404Y-67102380D01*
X132728690Y-67054761D01*
X132764404Y-66959523D01*
X132716785Y-66578571D01*
X132657261Y-66483333D01*
X132556071Y-66435714D01*
X132365595Y-66435714D01*
X132276309Y-66483333D01*
X132240595Y-66578571D01*
X132252500Y-66673809D01*
X132740595Y-66769047D01*
X131734642Y-67102380D02*
X131823928Y-67054761D01*
X131859642Y-66959523D01*
X131752500Y-66102380D01*
X131300119Y-67054761D02*
X131306071Y-67102380D01*
X131365595Y-67197619D01*
X131419166Y-67245238D01*
X166258452Y-68752380D02*
X166133452Y-67752380D01*
X165752500Y-67752380D01*
X165663214Y-67800000D01*
X165621547Y-67847619D01*
X165585833Y-67942857D01*
X165603690Y-68085714D01*
X165663214Y-68180952D01*
X165716785Y-68228571D01*
X165817976Y-68276190D01*
X166198928Y-68276190D01*
X165115595Y-68752380D02*
X165204880Y-68704761D01*
X165246547Y-68657142D01*
X165282261Y-68561904D01*
X165246547Y-68276190D01*
X165187023Y-68180952D01*
X165133452Y-68133333D01*
X165032261Y-68085714D01*
X164889404Y-68085714D01*
X164800119Y-68133333D01*
X164758452Y-68180952D01*
X164722738Y-68276190D01*
X164758452Y-68561904D01*
X164817976Y-68657142D01*
X164871547Y-68704761D01*
X164972738Y-68752380D01*
X165115595Y-68752380D01*
X164353690Y-68752380D02*
X164270357Y-68085714D01*
X164294166Y-68276190D02*
X164234642Y-68180952D01*
X164181071Y-68133333D01*
X164079880Y-68085714D01*
X163984642Y-68085714D01*
X163222738Y-68085714D02*
X163347738Y-69085714D01*
X163300119Y-68704761D02*
X163401309Y-68752380D01*
X163591785Y-68752380D01*
X163681071Y-68704761D01*
X163722738Y-68657142D01*
X163758452Y-68561904D01*
X163722738Y-68276190D01*
X163663214Y-68180952D01*
X163609642Y-68133333D01*
X163508452Y-68085714D01*
X163317976Y-68085714D01*
X163228690Y-68133333D01*
X162317976Y-68085714D02*
X162401309Y-68752380D01*
X162746547Y-68085714D02*
X162812023Y-68609523D01*
X162776309Y-68704761D01*
X162687023Y-68752380D01*
X162544166Y-68752380D01*
X162442976Y-68704761D01*
X162389404Y-68657142D01*
X161538214Y-68704761D02*
X161639404Y-68752380D01*
X161829880Y-68752380D01*
X161919166Y-68704761D01*
X161954880Y-68609523D01*
X161907261Y-68228571D01*
X161847738Y-68133333D01*
X161746547Y-68085714D01*
X161556071Y-68085714D01*
X161466785Y-68133333D01*
X161431071Y-68228571D01*
X161442976Y-68323809D01*
X161931071Y-68419047D01*
X159919166Y-68704761D02*
X160020357Y-68752380D01*
X160210833Y-68752380D01*
X160300119Y-68704761D01*
X160335833Y-68609523D01*
X160288214Y-68228571D01*
X160228690Y-68133333D01*
X160127500Y-68085714D01*
X159937023Y-68085714D01*
X159847738Y-68133333D01*
X159812023Y-68228571D01*
X159823928Y-68323809D01*
X160312023Y-68419047D01*
X158937023Y-68085714D02*
X159020357Y-68752380D01*
X159365595Y-68085714D02*
X159431071Y-68609523D01*
X159395357Y-68704761D01*
X159306071Y-68752380D01*
X159163214Y-68752380D01*
X159062023Y-68704761D01*
X159008452Y-68657142D01*
X157270357Y-68085714D02*
X157395357Y-69085714D01*
X157347738Y-68704761D02*
X157448928Y-68752380D01*
X157639404Y-68752380D01*
X157728690Y-68704761D01*
X157770357Y-68657142D01*
X157806071Y-68561904D01*
X157770357Y-68276190D01*
X157710833Y-68180952D01*
X157657261Y-68133333D01*
X157556071Y-68085714D01*
X157365595Y-68085714D01*
X157276309Y-68133333D01*
X156365595Y-68085714D02*
X156448928Y-68752380D01*
X156794166Y-68085714D02*
X156859642Y-68609523D01*
X156823928Y-68704761D01*
X156734642Y-68752380D01*
X156591785Y-68752380D01*
X156490595Y-68704761D01*
X156437023Y-68657142D01*
X155585833Y-68704761D02*
X155687023Y-68752380D01*
X155877500Y-68752380D01*
X155966785Y-68704761D01*
X156002500Y-68609523D01*
X155954880Y-68228571D01*
X155895357Y-68133333D01*
X155794166Y-68085714D01*
X155603690Y-68085714D01*
X155514404Y-68133333D01*
X155478690Y-68228571D01*
X155490595Y-68323809D01*
X155978690Y-68419047D01*
X155115595Y-68752380D02*
X155032261Y-68085714D01*
X155056071Y-68276190D02*
X154996547Y-68180952D01*
X154942976Y-68133333D01*
X154841785Y-68085714D01*
X154746547Y-68085714D01*
X154353690Y-68752380D02*
X154442976Y-68704761D01*
X154484642Y-68657142D01*
X154520357Y-68561904D01*
X154484642Y-68276190D01*
X154425119Y-68180952D01*
X154371547Y-68133333D01*
X154270357Y-68085714D01*
X154127500Y-68085714D01*
X154038214Y-68133333D01*
X153996547Y-68180952D01*
X153960833Y-68276190D01*
X153996547Y-68561904D01*
X154056071Y-68657142D01*
X154109642Y-68704761D01*
X154210833Y-68752380D01*
X154353690Y-68752380D01*
X152889404Y-68085714D02*
X152508452Y-68085714D01*
X152704880Y-67752380D02*
X152812023Y-68609523D01*
X152776309Y-68704761D01*
X152687023Y-68752380D01*
X152591785Y-68752380D01*
X151746547Y-68085714D02*
X151829880Y-68752380D01*
X152175119Y-68085714D02*
X152240595Y-68609523D01*
X152204880Y-68704761D01*
X152115595Y-68752380D01*
X151972738Y-68752380D01*
X151871547Y-68704761D01*
X151817976Y-68657142D01*
X150925119Y-68752380D02*
X150800119Y-67752380D01*
X150919166Y-68704761D02*
X151020357Y-68752380D01*
X151210833Y-68752380D01*
X151300119Y-68704761D01*
X151341785Y-68657142D01*
X151377500Y-68561904D01*
X151341785Y-68276190D01*
X151282261Y-68180952D01*
X151228690Y-68133333D01*
X151127500Y-68085714D01*
X150937023Y-68085714D01*
X150847738Y-68133333D01*
X150306071Y-68752380D02*
X150395357Y-68704761D01*
X150437023Y-68657142D01*
X150472738Y-68561904D01*
X150437023Y-68276190D01*
X150377500Y-68180952D01*
X150323928Y-68133333D01*
X150222738Y-68085714D01*
X150079880Y-68085714D01*
X149990595Y-68133333D01*
X149948928Y-68180952D01*
X149913214Y-68276190D01*
X149948928Y-68561904D01*
X150008452Y-68657142D01*
X150062023Y-68704761D01*
X150163214Y-68752380D01*
X150306071Y-68752380D01*
X149490595Y-68704761D02*
X149496547Y-68752380D01*
X149556071Y-68847619D01*
X149609642Y-68895238D01*
X159258452Y-70402380D02*
X159347738Y-70354761D01*
X159389404Y-70307142D01*
X159425119Y-70211904D01*
X159389404Y-69926190D01*
X159329880Y-69830952D01*
X159276309Y-69783333D01*
X159175119Y-69735714D01*
X159032261Y-69735714D01*
X158942976Y-69783333D01*
X158901309Y-69830952D01*
X158865595Y-69926190D01*
X158901309Y-70211904D01*
X158960833Y-70307142D01*
X159014404Y-70354761D01*
X159115595Y-70402380D01*
X159258452Y-70402380D01*
X157984642Y-69735714D02*
X158067976Y-70402380D01*
X158413214Y-69735714D02*
X158478690Y-70259523D01*
X158442976Y-70354761D01*
X158353690Y-70402380D01*
X158210833Y-70402380D01*
X158109642Y-70354761D01*
X158056071Y-70307142D01*
X156317976Y-69735714D02*
X156401309Y-70402380D01*
X156746547Y-69735714D02*
X156812023Y-70259523D01*
X156776309Y-70354761D01*
X156687023Y-70402380D01*
X156544166Y-70402380D01*
X156442976Y-70354761D01*
X156389404Y-70307142D01*
X155925119Y-70402380D02*
X155841785Y-69735714D01*
X155853690Y-69830952D02*
X155800119Y-69783333D01*
X155698928Y-69735714D01*
X155556071Y-69735714D01*
X155466785Y-69783333D01*
X155431071Y-69878571D01*
X155496547Y-70402380D01*
X155431071Y-69878571D02*
X155371547Y-69783333D01*
X155270357Y-69735714D01*
X155127500Y-69735714D01*
X155038214Y-69783333D01*
X155002500Y-69878571D01*
X155067976Y-70402380D01*
X153746547Y-69735714D02*
X153871547Y-70735714D01*
X153752500Y-69783333D02*
X153651309Y-69735714D01*
X153460833Y-69735714D01*
X153371547Y-69783333D01*
X153329880Y-69830952D01*
X153294166Y-69926190D01*
X153329880Y-70211904D01*
X153389404Y-70307142D01*
X153442976Y-70354761D01*
X153544166Y-70402380D01*
X153734642Y-70402380D01*
X153823928Y-70354761D01*
X152782261Y-70402380D02*
X152871547Y-70354761D01*
X152913214Y-70307142D01*
X152948928Y-70211904D01*
X152913214Y-69926190D01*
X152853690Y-69830952D01*
X152800119Y-69783333D01*
X152698928Y-69735714D01*
X152556071Y-69735714D01*
X152466785Y-69783333D01*
X152425119Y-69830952D01*
X152389404Y-69926190D01*
X152425119Y-70211904D01*
X152484642Y-70307142D01*
X152538214Y-70354761D01*
X152639404Y-70402380D01*
X152782261Y-70402380D01*
X151508452Y-69735714D02*
X151591785Y-70402380D01*
X151937023Y-69735714D02*
X152002500Y-70259523D01*
X151966785Y-70354761D01*
X151877500Y-70402380D01*
X151734642Y-70402380D01*
X151633452Y-70354761D01*
X151579880Y-70307142D01*
X150681071Y-70354761D02*
X150782261Y-70402380D01*
X150972738Y-70402380D01*
X151062023Y-70354761D01*
X151103690Y-70307142D01*
X151139404Y-70211904D01*
X151103690Y-69926190D01*
X151044166Y-69830952D01*
X150990595Y-69783333D01*
X150889404Y-69735714D01*
X150698928Y-69735714D01*
X150609642Y-69783333D01*
X150115595Y-70402380D02*
X150204880Y-70354761D01*
X150246547Y-70307142D01*
X150282261Y-70211904D01*
X150246547Y-69926190D01*
X150187023Y-69830952D01*
X150133452Y-69783333D01*
X150032261Y-69735714D01*
X149889404Y-69735714D01*
X149800119Y-69783333D01*
X149758452Y-69830952D01*
X149722738Y-69926190D01*
X149758452Y-70211904D01*
X149817976Y-70307142D01*
X149871547Y-70354761D01*
X149972738Y-70402380D01*
X150115595Y-70402380D01*
X148591785Y-70402380D02*
X148508452Y-69735714D01*
X148520357Y-69830952D02*
X148466785Y-69783333D01*
X148365595Y-69735714D01*
X148222738Y-69735714D01*
X148133452Y-69783333D01*
X148097738Y-69878571D01*
X148163214Y-70402380D01*
X148097738Y-69878571D02*
X148038214Y-69783333D01*
X147937023Y-69735714D01*
X147794166Y-69735714D01*
X147704880Y-69783333D01*
X147669166Y-69878571D01*
X147734642Y-70402380D01*
X146829880Y-70402380D02*
X146764404Y-69878571D01*
X146800119Y-69783333D01*
X146889404Y-69735714D01*
X147079880Y-69735714D01*
X147181071Y-69783333D01*
X146823928Y-70354761D02*
X146925119Y-70402380D01*
X147163214Y-70402380D01*
X147252500Y-70354761D01*
X147288214Y-70259523D01*
X147276309Y-70164285D01*
X147216785Y-70069047D01*
X147115595Y-70021428D01*
X146877500Y-70021428D01*
X146776309Y-69973809D01*
X146353690Y-70402380D02*
X146270357Y-69735714D01*
X146228690Y-69402380D02*
X146282261Y-69450000D01*
X146240595Y-69497619D01*
X146187023Y-69450000D01*
X146228690Y-69402380D01*
X146240595Y-69497619D01*
X145919166Y-70354761D02*
X145829880Y-70402380D01*
X145639404Y-70402380D01*
X145538214Y-70354761D01*
X145478690Y-70259523D01*
X145472738Y-70211904D01*
X145508452Y-70116666D01*
X145597738Y-70069047D01*
X145740595Y-70069047D01*
X145829880Y-70021428D01*
X145865595Y-69926190D01*
X145859642Y-69878571D01*
X145800119Y-69783333D01*
X145698928Y-69735714D01*
X145556071Y-69735714D01*
X145466785Y-69783333D01*
X145014404Y-70354761D02*
X145020357Y-70402380D01*
X145079880Y-70497619D01*
X145133452Y-70545238D01*
X143871547Y-70354761D02*
X143782261Y-70402380D01*
X143591785Y-70402380D01*
X143490595Y-70354761D01*
X143431071Y-70259523D01*
X143425119Y-70211904D01*
X143460833Y-70116666D01*
X143550119Y-70069047D01*
X143692976Y-70069047D01*
X143782261Y-70021428D01*
X143817976Y-69926190D01*
X143812023Y-69878571D01*
X143752500Y-69783333D01*
X143651309Y-69735714D01*
X143508452Y-69735714D01*
X143419166Y-69783333D01*
X142633452Y-70354761D02*
X142734642Y-70402380D01*
X142925119Y-70402380D01*
X143014404Y-70354761D01*
X143050119Y-70259523D01*
X143002500Y-69878571D01*
X142942976Y-69783333D01*
X142841785Y-69735714D01*
X142651309Y-69735714D01*
X142562023Y-69783333D01*
X142526309Y-69878571D01*
X142538214Y-69973809D01*
X143026309Y-70069047D01*
X141317976Y-69735714D02*
X141442976Y-70735714D01*
X141323928Y-69783333D02*
X141222738Y-69735714D01*
X141032261Y-69735714D01*
X140942976Y-69783333D01*
X140901309Y-69830952D01*
X140865595Y-69926190D01*
X140901309Y-70211904D01*
X140960833Y-70307142D01*
X141014404Y-70354761D01*
X141115595Y-70402380D01*
X141306071Y-70402380D01*
X141395357Y-70354761D01*
X139984642Y-69735714D02*
X140067976Y-70402380D01*
X140413214Y-69735714D02*
X140478690Y-70259523D01*
X140442976Y-70354761D01*
X140353690Y-70402380D01*
X140210833Y-70402380D01*
X140109642Y-70354761D01*
X140056071Y-70307142D01*
X139163214Y-70402380D02*
X139038214Y-69402380D01*
X139157261Y-70354761D02*
X139258452Y-70402380D01*
X139448928Y-70402380D01*
X139538214Y-70354761D01*
X139579880Y-70307142D01*
X139615595Y-70211904D01*
X139579880Y-69926190D01*
X139520357Y-69830952D01*
X139466785Y-69783333D01*
X139365595Y-69735714D01*
X139175119Y-69735714D01*
X139085833Y-69783333D01*
X138300119Y-70354761D02*
X138401309Y-70402380D01*
X138591785Y-70402380D01*
X138681071Y-70354761D01*
X138716785Y-70259523D01*
X138669166Y-69878571D01*
X138609642Y-69783333D01*
X138508452Y-69735714D01*
X138317976Y-69735714D01*
X138228690Y-69783333D01*
X138192976Y-69878571D01*
X138204880Y-69973809D01*
X138692976Y-70069047D01*
X137829880Y-70402380D02*
X137746547Y-69735714D01*
X137770357Y-69926190D02*
X137710833Y-69830952D01*
X137657261Y-69783333D01*
X137556071Y-69735714D01*
X137460833Y-69735714D01*
X136490595Y-70354761D02*
X136401309Y-70402380D01*
X136210833Y-70402380D01*
X136109642Y-70354761D01*
X136050119Y-70259523D01*
X136044166Y-70211904D01*
X136079880Y-70116666D01*
X136169166Y-70069047D01*
X136312023Y-70069047D01*
X136401309Y-70021428D01*
X136437023Y-69926190D01*
X136431071Y-69878571D01*
X136371547Y-69783333D01*
X136270357Y-69735714D01*
X136127500Y-69735714D01*
X136038214Y-69783333D01*
X135252500Y-70354761D02*
X135353690Y-70402380D01*
X135544166Y-70402380D01*
X135633452Y-70354761D01*
X135669166Y-70259523D01*
X135621547Y-69878571D01*
X135562023Y-69783333D01*
X135460833Y-69735714D01*
X135270357Y-69735714D01*
X135181071Y-69783333D01*
X135145357Y-69878571D01*
X135157261Y-69973809D01*
X135645357Y-70069047D01*
X134782261Y-70402380D02*
X134698928Y-69735714D01*
X134722738Y-69926190D02*
X134663214Y-69830952D01*
X134609642Y-69783333D01*
X134508452Y-69735714D01*
X134413214Y-69735714D01*
X134109642Y-70354761D02*
X134115595Y-70402380D01*
X134175119Y-70497619D01*
X134228690Y-70545238D01*
X165942976Y-71052380D02*
X165752500Y-71052380D01*
X165663214Y-71100000D01*
X165579880Y-71195238D01*
X165556071Y-71385714D01*
X165597738Y-71719047D01*
X165669166Y-71909523D01*
X165776309Y-72004761D01*
X165877500Y-72052380D01*
X166067976Y-72052380D01*
X166157261Y-72004761D01*
X166240595Y-71909523D01*
X166264404Y-71719047D01*
X166222738Y-71385714D01*
X166151309Y-71195238D01*
X166044166Y-71100000D01*
X165942976Y-71052380D01*
X164698928Y-71385714D02*
X164782261Y-72052380D01*
X165127500Y-71385714D02*
X165192976Y-71909523D01*
X165157261Y-72004761D01*
X165067976Y-72052380D01*
X164925119Y-72052380D01*
X164823928Y-72004761D01*
X164770357Y-71957142D01*
X163115595Y-72052380D02*
X163050119Y-71528571D01*
X163085833Y-71433333D01*
X163175119Y-71385714D01*
X163365595Y-71385714D01*
X163466785Y-71433333D01*
X163109642Y-72004761D02*
X163210833Y-72052380D01*
X163448928Y-72052380D01*
X163538214Y-72004761D01*
X163573928Y-71909523D01*
X163562023Y-71814285D01*
X163502500Y-71719047D01*
X163401309Y-71671428D01*
X163163214Y-71671428D01*
X163062023Y-71623809D01*
X162698928Y-71385714D02*
X162317976Y-71385714D01*
X162514404Y-71052380D02*
X162621547Y-71909523D01*
X162585833Y-72004761D01*
X162496547Y-72052380D01*
X162401309Y-72052380D01*
X161681071Y-72004761D02*
X161782261Y-72052380D01*
X161972738Y-72052380D01*
X162062023Y-72004761D01*
X162097738Y-71909523D01*
X162050119Y-71528571D01*
X161990595Y-71433333D01*
X161889404Y-71385714D01*
X161698928Y-71385714D01*
X161609642Y-71433333D01*
X161573928Y-71528571D01*
X161585833Y-71623809D01*
X162073928Y-71719047D01*
X161651309Y-71004761D02*
X161812023Y-71147619D01*
X160490595Y-72004761D02*
X160401309Y-72052380D01*
X160210833Y-72052380D01*
X160109642Y-72004761D01*
X160050119Y-71909523D01*
X160044166Y-71861904D01*
X160079880Y-71766666D01*
X160169166Y-71719047D01*
X160312023Y-71719047D01*
X160401309Y-71671428D01*
X160437023Y-71576190D01*
X160431071Y-71528571D01*
X160371547Y-71433333D01*
X160270357Y-71385714D01*
X160127500Y-71385714D01*
X160038214Y-71433333D01*
X159252500Y-72004761D02*
X159353690Y-72052380D01*
X159544166Y-72052380D01*
X159633452Y-72004761D01*
X159669166Y-71909523D01*
X159621547Y-71528571D01*
X159562023Y-71433333D01*
X159460833Y-71385714D01*
X159270357Y-71385714D01*
X159181071Y-71433333D01*
X159145357Y-71528571D01*
X159157261Y-71623809D01*
X159645357Y-71719047D01*
X157937023Y-71385714D02*
X158020357Y-72052380D01*
X157948928Y-71480952D02*
X157895357Y-71433333D01*
X157794166Y-71385714D01*
X157651309Y-71385714D01*
X157562023Y-71433333D01*
X157526309Y-71528571D01*
X157591785Y-72052380D01*
X156687023Y-72052380D02*
X156621547Y-71528571D01*
X156657261Y-71433333D01*
X156746547Y-71385714D01*
X156937023Y-71385714D01*
X157038214Y-71433333D01*
X156681071Y-72004761D02*
X156782261Y-72052380D01*
X157020357Y-72052380D01*
X157109642Y-72004761D01*
X157145357Y-71909523D01*
X157133452Y-71814285D01*
X157073928Y-71719047D01*
X156972738Y-71671428D01*
X156734642Y-71671428D01*
X156633452Y-71623809D01*
X157050119Y-71147619D02*
X156996547Y-71100000D01*
X156895357Y-71052380D01*
X156716785Y-71147619D01*
X156615595Y-71100000D01*
X156562023Y-71052380D01*
X156067976Y-72052380D02*
X156157261Y-72004761D01*
X156198928Y-71957142D01*
X156234642Y-71861904D01*
X156198928Y-71576190D01*
X156139404Y-71480952D01*
X156085833Y-71433333D01*
X155984642Y-71385714D01*
X155841785Y-71385714D01*
X155752500Y-71433333D01*
X155710833Y-71480952D01*
X155675119Y-71576190D01*
X155710833Y-71861904D01*
X155770357Y-71957142D01*
X155823928Y-72004761D01*
X155925119Y-72052380D01*
X156067976Y-72052380D01*
X154460833Y-71385714D02*
X154585833Y-72385714D01*
X154466785Y-71433333D02*
X154365595Y-71385714D01*
X154175119Y-71385714D01*
X154085833Y-71433333D01*
X154044166Y-71480952D01*
X154008452Y-71576190D01*
X154044166Y-71861904D01*
X154103690Y-71957142D01*
X154157261Y-72004761D01*
X154258452Y-72052380D01*
X154448928Y-72052380D01*
X154538214Y-72004761D01*
X153127500Y-71385714D02*
X153210833Y-72052380D01*
X153556071Y-71385714D02*
X153621547Y-71909523D01*
X153585833Y-72004761D01*
X153496547Y-72052380D01*
X153353690Y-72052380D01*
X153252500Y-72004761D01*
X153198928Y-71957142D01*
X152306071Y-72052380D02*
X152181071Y-71052380D01*
X152300119Y-72004761D02*
X152401309Y-72052380D01*
X152591785Y-72052380D01*
X152681071Y-72004761D01*
X152722738Y-71957142D01*
X152758452Y-71861904D01*
X152722738Y-71576190D01*
X152663214Y-71480952D01*
X152609642Y-71433333D01*
X152508452Y-71385714D01*
X152317976Y-71385714D01*
X152228690Y-71433333D01*
X151442976Y-72004761D02*
X151544166Y-72052380D01*
X151734642Y-72052380D01*
X151823928Y-72004761D01*
X151859642Y-71909523D01*
X151812023Y-71528571D01*
X151752500Y-71433333D01*
X151651309Y-71385714D01*
X151460833Y-71385714D01*
X151371547Y-71433333D01*
X151335833Y-71528571D01*
X151347738Y-71623809D01*
X151835833Y-71719047D01*
X150972738Y-72052380D02*
X150889404Y-71385714D01*
X150913214Y-71576190D02*
X150853690Y-71480952D01*
X150800119Y-71433333D01*
X150698928Y-71385714D01*
X150603690Y-71385714D01*
X149633452Y-72004761D02*
X149544166Y-72052380D01*
X149353690Y-72052380D01*
X149252500Y-72004761D01*
X149192976Y-71909523D01*
X149187023Y-71861904D01*
X149222738Y-71766666D01*
X149312023Y-71719047D01*
X149454880Y-71719047D01*
X149544166Y-71671428D01*
X149579880Y-71576190D01*
X149573928Y-71528571D01*
X149514404Y-71433333D01*
X149413214Y-71385714D01*
X149270357Y-71385714D01*
X149181071Y-71433333D01*
X148395357Y-72004761D02*
X148496547Y-72052380D01*
X148687023Y-72052380D01*
X148776309Y-72004761D01*
X148812023Y-71909523D01*
X148764404Y-71528571D01*
X148704880Y-71433333D01*
X148603690Y-71385714D01*
X148413214Y-71385714D01*
X148323928Y-71433333D01*
X148288214Y-71528571D01*
X148300119Y-71623809D01*
X148788214Y-71719047D01*
X147925119Y-72052380D02*
X147841785Y-71385714D01*
X147865595Y-71576190D02*
X147806071Y-71480952D01*
X147752500Y-71433333D01*
X147651309Y-71385714D01*
X147556071Y-71385714D01*
X147294166Y-71957142D02*
X147252500Y-72004761D01*
X147306071Y-72052380D01*
X147347738Y-72004761D01*
X147294166Y-71957142D01*
X147306071Y-72052380D01*
X146817976Y-71957142D02*
X146776309Y-72004761D01*
X146829880Y-72052380D01*
X146871547Y-72004761D01*
X146817976Y-71957142D01*
X146829880Y-72052380D01*
X146341785Y-71957142D02*
X146300119Y-72004761D01*
X146353690Y-72052380D01*
X146395357Y-72004761D01*
X146341785Y-71957142D01*
X146353690Y-72052380D01*
D11*
%TO.C,C21*%
X119010000Y-59399721D02*
X119010000Y-59725279D01*
X117990000Y-59399721D02*
X117990000Y-59725279D01*
%TO.C,C20*%
X120660000Y-59399721D02*
X120660000Y-59725279D01*
X119640000Y-59399721D02*
X119640000Y-59725279D01*
%TO.C,U2*%
X118135000Y-109975000D02*
X118135000Y-106525000D01*
X118135000Y-109975000D02*
X118135000Y-111925000D01*
X123255000Y-109975000D02*
X123255000Y-108025000D01*
X123255000Y-109975000D02*
X123255000Y-111925000D01*
%TO.C,U1*%
X122615000Y-87150000D02*
X122615000Y-90600000D01*
X122615000Y-87150000D02*
X122615000Y-85200000D01*
X112495000Y-87150000D02*
X112495000Y-89100000D01*
X112495000Y-87150000D02*
X112495000Y-85200000D01*
%TO.C,R4*%
X95940000Y-56102064D02*
X95940000Y-54897936D01*
X98660000Y-56102064D02*
X98660000Y-54897936D01*
%TO.C,R2*%
X98860000Y-91497936D02*
X98860000Y-92702064D01*
X96140000Y-91497936D02*
X96140000Y-92702064D01*
%TO.C,C1*%
X122950279Y-81190000D02*
X122624721Y-81190000D01*
X122950279Y-82210000D02*
X122624721Y-82210000D01*
%TO.C,C2*%
X122950279Y-80610000D02*
X122624721Y-80610000D01*
X122950279Y-79590000D02*
X122624721Y-79590000D01*
%TO.C,C3*%
X116490000Y-111549721D02*
X116490000Y-111875279D01*
X117510000Y-111549721D02*
X117510000Y-111875279D01*
%TO.C,C4*%
X114790000Y-111875279D02*
X114790000Y-111549721D01*
X115810000Y-111875279D02*
X115810000Y-111549721D01*
%TO.C,C5*%
X99324721Y-97340000D02*
X99650279Y-97340000D01*
X99324721Y-98360000D02*
X99650279Y-98360000D01*
%TO.C,C6*%
X135050279Y-81190000D02*
X134724721Y-81190000D01*
X135050279Y-82210000D02*
X134724721Y-82210000D01*
%TO.C,C7*%
X135050279Y-80610000D02*
X134724721Y-80610000D01*
X135050279Y-79590000D02*
X134724721Y-79590000D01*
%TO.C,C8*%
X135190000Y-125250279D02*
X135190000Y-124924721D01*
X136210000Y-125250279D02*
X136210000Y-124924721D01*
%TO.C,C9*%
X135190000Y-98250279D02*
X135190000Y-97924721D01*
X136210000Y-98250279D02*
X136210000Y-97924721D01*
%TO.C,C10*%
X137810000Y-125250279D02*
X137810000Y-124924721D01*
X136790000Y-125250279D02*
X136790000Y-124924721D01*
%TO.C,C11*%
X137810000Y-98250279D02*
X137810000Y-97924721D01*
X136790000Y-98250279D02*
X136790000Y-97924721D01*
%TO.C,C12*%
X152050279Y-81190000D02*
X151724721Y-81190000D01*
X152050279Y-82210000D02*
X151724721Y-82210000D01*
%TO.C,C13*%
X152050279Y-80610000D02*
X151724721Y-80610000D01*
X152050279Y-79590000D02*
X151724721Y-79590000D01*
%TO.C,C14*%
X152190000Y-98250279D02*
X152190000Y-97924721D01*
X153210000Y-98250279D02*
X153210000Y-97924721D01*
%TO.C,C15*%
X152190000Y-125250279D02*
X152190000Y-124924721D01*
X153210000Y-125250279D02*
X153210000Y-124924721D01*
%TO.C,C16*%
X154810000Y-98250279D02*
X154810000Y-97924721D01*
X153790000Y-98250279D02*
X153790000Y-97924721D01*
%TO.C,C17*%
X154810000Y-125250279D02*
X154810000Y-124924721D01*
X153790000Y-125250279D02*
X153790000Y-124924721D01*
%TO.C,C18*%
X119960000Y-52300279D02*
X119960000Y-51974721D01*
X118940000Y-52300279D02*
X118940000Y-51974721D01*
%TO.C,C19*%
X117290000Y-52300279D02*
X117290000Y-51974721D01*
X118310000Y-52300279D02*
X118310000Y-51974721D01*
%TO.C,JP1*%
X127000000Y-105950000D02*
X126400000Y-105950000D01*
X127700000Y-108050000D02*
X127700000Y-106650000D01*
X126400000Y-108750000D02*
X127000000Y-108750000D01*
X125700000Y-106650000D02*
X125700000Y-108050000D01*
X126400000Y-105950000D02*
G75*
G03*
X125700000Y-106650000I0J-700000D01*
G01*
X127700000Y-106650000D02*
G75*
G03*
X127000000Y-105950000I-700000J0D01*
G01*
X127000000Y-108750000D02*
G75*
G03*
X127700000Y-108050000I0J700000D01*
G01*
X125700000Y-108050000D02*
G75*
G03*
X126400000Y-108750000I700000J0D01*
G01*
%TO.C,JP2*%
X116450000Y-93900000D02*
X115050000Y-93900000D01*
X114350000Y-94600000D02*
X114350000Y-95200000D01*
X115050000Y-95900000D02*
X116450000Y-95900000D01*
X117150000Y-95200000D02*
X117150000Y-94600000D01*
X115050000Y-93900000D02*
G75*
G03*
X114350000Y-94600000I0J-700000D01*
G01*
X114350000Y-95200000D02*
G75*
G03*
X115050000Y-95900000I700000J0D01*
G01*
X116450000Y-95900000D02*
G75*
G03*
X117150000Y-95200000I0J700000D01*
G01*
X117150000Y-94600000D02*
G75*
G03*
X116450000Y-93900000I-700000J0D01*
G01*
%TO.C,JP3*%
X113000000Y-105050000D02*
X113600000Y-105050000D01*
X112300000Y-102950000D02*
X112300000Y-104350000D01*
X113600000Y-102250000D02*
X113000000Y-102250000D01*
X114300000Y-104350000D02*
X114300000Y-102950000D01*
X113600000Y-105050000D02*
G75*
G03*
X114300000Y-104350000I0J700000D01*
G01*
X112300000Y-104350000D02*
G75*
G03*
X113000000Y-105050000I700000J0D01*
G01*
X113000000Y-102250000D02*
G75*
G03*
X112300000Y-102950000I0J-700000D01*
G01*
X114300000Y-102950000D02*
G75*
G03*
X113600000Y-102250000I-700000J0D01*
G01*
%TO.C,JP4*%
X116750000Y-101100000D02*
X118150000Y-101100000D01*
X118850000Y-100400000D02*
X118850000Y-99800000D01*
X118150000Y-99100000D02*
X116750000Y-99100000D01*
X116050000Y-99800000D02*
X116050000Y-100400000D01*
X118150000Y-101100000D02*
G75*
G03*
X118850000Y-100400000I0J700000D01*
G01*
X118850000Y-99800000D02*
G75*
G03*
X118150000Y-99100000I-700000J0D01*
G01*
X116750000Y-99100000D02*
G75*
G03*
X116050000Y-99800000I0J-700000D01*
G01*
X116050000Y-100400000D02*
G75*
G03*
X116750000Y-101100000I700000J0D01*
G01*
%TO.C,JP5*%
X98300000Y-60550000D02*
X98300000Y-59150000D01*
X97600000Y-58450000D02*
X97000000Y-58450000D01*
X96300000Y-59150000D02*
X96300000Y-60550000D01*
X97000000Y-61250000D02*
X97600000Y-61250000D01*
X98300000Y-59150000D02*
G75*
G03*
X97600000Y-58450000I-700000J0D01*
G01*
X97000000Y-58450000D02*
G75*
G03*
X96300000Y-59150000I0J-700000D01*
G01*
X96300000Y-60550000D02*
G75*
G03*
X97000000Y-61250000I700000J0D01*
G01*
X97600000Y-61250000D02*
G75*
G03*
X98300000Y-60550000I0J700000D01*
G01*
%TO.C,Q1*%
X92140000Y-100380000D02*
X92140000Y-99450000D01*
X92140000Y-97220000D02*
X92140000Y-98150000D01*
X92140000Y-97220000D02*
X94300000Y-97220000D01*
X92140000Y-100380000D02*
X93600000Y-100380000D01*
%TO.C,Q2*%
X115580000Y-53110000D02*
X114650000Y-53110000D01*
X112420000Y-53110000D02*
X113350000Y-53110000D01*
X112420000Y-53110000D02*
X112420000Y-50950000D01*
X115580000Y-53110000D02*
X115580000Y-51650000D01*
%TO.C,Q3*%
X123630000Y-51110000D02*
X123630000Y-49650000D01*
X120470000Y-51110000D02*
X120470000Y-48950000D01*
X120470000Y-51110000D02*
X121400000Y-51110000D01*
X123630000Y-51110000D02*
X122700000Y-51110000D01*
%TO.C,Q4*%
X123560000Y-59720000D02*
X122100000Y-59720000D01*
X123560000Y-62880000D02*
X121400000Y-62880000D01*
X123560000Y-62880000D02*
X123560000Y-61950000D01*
X123560000Y-59720000D02*
X123560000Y-60650000D01*
%TO.C,R1*%
X118710000Y-80975279D02*
X118710000Y-80649721D01*
X117690000Y-80975279D02*
X117690000Y-80649721D01*
%TO.C,R3*%
X120724721Y-105610000D02*
X121050279Y-105610000D01*
X120724721Y-104590000D02*
X121050279Y-104590000D01*
%TO.C,R5*%
X117449721Y-105610000D02*
X117775279Y-105610000D01*
X117449721Y-104590000D02*
X117775279Y-104590000D01*
%TO.C,R6*%
X117775279Y-103210000D02*
X117449721Y-103210000D01*
X117775279Y-102190000D02*
X117449721Y-102190000D01*
%TO.C,R7*%
X96224721Y-100260000D02*
X96550279Y-100260000D01*
X96224721Y-99240000D02*
X96550279Y-99240000D01*
%TO.C,R8*%
X99324721Y-99240000D02*
X99650279Y-99240000D01*
X99324721Y-100260000D02*
X99650279Y-100260000D01*
%TO.C,R9*%
X96525279Y-97340000D02*
X96199721Y-97340000D01*
X96525279Y-98360000D02*
X96199721Y-98360000D01*
%TO.C,R10*%
X127740000Y-80200279D02*
X127740000Y-79874721D01*
X128760000Y-80200279D02*
X128760000Y-79874721D01*
%TO.C,R11*%
X145810000Y-79075279D02*
X145810000Y-78749721D01*
X144790000Y-79075279D02*
X144790000Y-78749721D01*
%TO.C,R12*%
X111490000Y-59549721D02*
X111490000Y-59875279D01*
X112510000Y-59549721D02*
X112510000Y-59875279D01*
%TO.C,R13*%
X118775279Y-49860000D02*
X118449721Y-49860000D01*
X118775279Y-48840000D02*
X118449721Y-48840000D01*
%TO.C,R14*%
X119249721Y-61790000D02*
X119575279Y-61790000D01*
X119249721Y-62810000D02*
X119575279Y-62810000D01*
%TO.C,R15*%
X134510000Y-55124721D02*
X134510000Y-55450279D01*
X133490000Y-55124721D02*
X133490000Y-55450279D01*
%TO.C,R16*%
X141490000Y-55124721D02*
X141490000Y-55450279D01*
X142510000Y-55124721D02*
X142510000Y-55450279D01*
%TO.C,R17*%
X150510000Y-55124721D02*
X150510000Y-55450279D01*
X149490000Y-55124721D02*
X149490000Y-55450279D01*
%TO.C,R18*%
X158510000Y-55124721D02*
X158510000Y-55450279D01*
X157490000Y-55124721D02*
X157490000Y-55450279D01*
D10*
%TO.C,U3*%
X134850000Y-90175000D02*
X134625000Y-90175000D01*
X134850000Y-84425000D02*
X134550000Y-84425000D01*
X126200000Y-84425000D02*
X126500000Y-84425000D01*
X126200000Y-90175000D02*
X126500000Y-90175000D01*
X134850000Y-90175000D02*
X134850000Y-84425000D01*
X126200000Y-90175000D02*
X126200000Y-84425000D01*
X134625000Y-90175000D02*
X134625000Y-91775000D01*
%TO.C,U4*%
X151675000Y-90275000D02*
X151675000Y-91875000D01*
X143250000Y-90275000D02*
X143250000Y-84525000D01*
X151900000Y-90275000D02*
X151900000Y-84525000D01*
X143250000Y-90275000D02*
X143550000Y-90275000D01*
X143250000Y-84525000D02*
X143550000Y-84525000D01*
X151900000Y-84525000D02*
X151600000Y-84525000D01*
X151900000Y-90275000D02*
X151675000Y-90275000D01*
%TO.C,C21*%
X117427142Y-58919642D02*
X117474761Y-58872023D01*
X117522380Y-58729166D01*
X117522380Y-58633928D01*
X117474761Y-58491071D01*
X117379523Y-58395833D01*
X117284285Y-58348214D01*
X117093809Y-58300595D01*
X116950952Y-58300595D01*
X116760476Y-58348214D01*
X116665238Y-58395833D01*
X116570000Y-58491071D01*
X116522380Y-58633928D01*
X116522380Y-58729166D01*
X116570000Y-58872023D01*
X116617619Y-58919642D01*
X116617619Y-59300595D02*
X116570000Y-59348214D01*
X116522380Y-59443452D01*
X116522380Y-59681547D01*
X116570000Y-59776785D01*
X116617619Y-59824404D01*
X116712857Y-59872023D01*
X116808095Y-59872023D01*
X116950952Y-59824404D01*
X117522380Y-59252976D01*
X117522380Y-59872023D01*
X117522380Y-60824404D02*
X117522380Y-60252976D01*
X117522380Y-60538690D02*
X116522380Y-60538690D01*
X116665238Y-60443452D01*
X116760476Y-60348214D01*
X116808095Y-60252976D01*
%TO.C,C20*%
X122992857Y-59107142D02*
X123040476Y-59154761D01*
X123183333Y-59202380D01*
X123278571Y-59202380D01*
X123421428Y-59154761D01*
X123516666Y-59059523D01*
X123564285Y-58964285D01*
X123611904Y-58773809D01*
X123611904Y-58630952D01*
X123564285Y-58440476D01*
X123516666Y-58345238D01*
X123421428Y-58250000D01*
X123278571Y-58202380D01*
X123183333Y-58202380D01*
X123040476Y-58250000D01*
X122992857Y-58297619D01*
X122611904Y-58297619D02*
X122564285Y-58250000D01*
X122469047Y-58202380D01*
X122230952Y-58202380D01*
X122135714Y-58250000D01*
X122088095Y-58297619D01*
X122040476Y-58392857D01*
X122040476Y-58488095D01*
X122088095Y-58630952D01*
X122659523Y-59202380D01*
X122040476Y-59202380D01*
X121421428Y-58202380D02*
X121326190Y-58202380D01*
X121230952Y-58250000D01*
X121183333Y-58297619D01*
X121135714Y-58392857D01*
X121088095Y-58583333D01*
X121088095Y-58821428D01*
X121135714Y-59011904D01*
X121183333Y-59107142D01*
X121230952Y-59154761D01*
X121326190Y-59202380D01*
X121421428Y-59202380D01*
X121516666Y-59154761D01*
X121564285Y-59107142D01*
X121611904Y-59011904D01*
X121659523Y-58821428D01*
X121659523Y-58583333D01*
X121611904Y-58392857D01*
X121564285Y-58297619D01*
X121516666Y-58250000D01*
X121421428Y-58202380D01*
%TO.C,U2*%
X123652380Y-109213095D02*
X124461904Y-109213095D01*
X124557142Y-109260714D01*
X124604761Y-109308333D01*
X124652380Y-109403571D01*
X124652380Y-109594047D01*
X124604761Y-109689285D01*
X124557142Y-109736904D01*
X124461904Y-109784523D01*
X123652380Y-109784523D01*
X123747619Y-110213095D02*
X123700000Y-110260714D01*
X123652380Y-110355952D01*
X123652380Y-110594047D01*
X123700000Y-110689285D01*
X123747619Y-110736904D01*
X123842857Y-110784523D01*
X123938095Y-110784523D01*
X124080952Y-110736904D01*
X124652380Y-110165476D01*
X124652380Y-110784523D01*
%TO.C,U1*%
X122907380Y-86388095D02*
X123716904Y-86388095D01*
X123812142Y-86435714D01*
X123859761Y-86483333D01*
X123907380Y-86578571D01*
X123907380Y-86769047D01*
X123859761Y-86864285D01*
X123812142Y-86911904D01*
X123716904Y-86959523D01*
X122907380Y-86959523D01*
X123907380Y-87959523D02*
X123907380Y-87388095D01*
X123907380Y-87673809D02*
X122907380Y-87673809D01*
X123050238Y-87578571D01*
X123145476Y-87483333D01*
X123193095Y-87388095D01*
%TO.C,R4*%
X100032380Y-55333333D02*
X99556190Y-55000000D01*
X100032380Y-54761904D02*
X99032380Y-54761904D01*
X99032380Y-55142857D01*
X99080000Y-55238095D01*
X99127619Y-55285714D01*
X99222857Y-55333333D01*
X99365714Y-55333333D01*
X99460952Y-55285714D01*
X99508571Y-55238095D01*
X99556190Y-55142857D01*
X99556190Y-54761904D01*
X99365714Y-56190476D02*
X100032380Y-56190476D01*
X98984761Y-55952380D02*
X99699047Y-55714285D01*
X99699047Y-56333333D01*
%TO.C,R2*%
X97952380Y-88483333D02*
X97476190Y-88150000D01*
X97952380Y-87911904D02*
X96952380Y-87911904D01*
X96952380Y-88292857D01*
X97000000Y-88388095D01*
X97047619Y-88435714D01*
X97142857Y-88483333D01*
X97285714Y-88483333D01*
X97380952Y-88435714D01*
X97428571Y-88388095D01*
X97476190Y-88292857D01*
X97476190Y-87911904D01*
X97047619Y-88864285D02*
X97000000Y-88911904D01*
X96952380Y-89007142D01*
X96952380Y-89245238D01*
X97000000Y-89340476D01*
X97047619Y-89388095D01*
X97142857Y-89435714D01*
X97238095Y-89435714D01*
X97380952Y-89388095D01*
X97952380Y-88816666D01*
X97952380Y-89435714D01*
%TO.C,C1*%
X125466666Y-82057142D02*
X125514285Y-82104761D01*
X125657142Y-82152380D01*
X125752380Y-82152380D01*
X125895238Y-82104761D01*
X125990476Y-82009523D01*
X126038095Y-81914285D01*
X126085714Y-81723809D01*
X126085714Y-81580952D01*
X126038095Y-81390476D01*
X125990476Y-81295238D01*
X125895238Y-81200000D01*
X125752380Y-81152380D01*
X125657142Y-81152380D01*
X125514285Y-81200000D01*
X125466666Y-81247619D01*
X124514285Y-82152380D02*
X125085714Y-82152380D01*
X124800000Y-82152380D02*
X124800000Y-81152380D01*
X124895238Y-81295238D01*
X124990476Y-81390476D01*
X125085714Y-81438095D01*
%TO.C,C2*%
X125516666Y-80457142D02*
X125564285Y-80504761D01*
X125707142Y-80552380D01*
X125802380Y-80552380D01*
X125945238Y-80504761D01*
X126040476Y-80409523D01*
X126088095Y-80314285D01*
X126135714Y-80123809D01*
X126135714Y-79980952D01*
X126088095Y-79790476D01*
X126040476Y-79695238D01*
X125945238Y-79600000D01*
X125802380Y-79552380D01*
X125707142Y-79552380D01*
X125564285Y-79600000D01*
X125516666Y-79647619D01*
X125135714Y-79647619D02*
X125088095Y-79600000D01*
X124992857Y-79552380D01*
X124754761Y-79552380D01*
X124659523Y-79600000D01*
X124611904Y-79647619D01*
X124564285Y-79742857D01*
X124564285Y-79838095D01*
X124611904Y-79980952D01*
X125183333Y-80552380D01*
X124564285Y-80552380D01*
%TO.C,C3*%
X117357142Y-108933333D02*
X117404761Y-108885714D01*
X117452380Y-108742857D01*
X117452380Y-108647619D01*
X117404761Y-108504761D01*
X117309523Y-108409523D01*
X117214285Y-108361904D01*
X117023809Y-108314285D01*
X116880952Y-108314285D01*
X116690476Y-108361904D01*
X116595238Y-108409523D01*
X116500000Y-108504761D01*
X116452380Y-108647619D01*
X116452380Y-108742857D01*
X116500000Y-108885714D01*
X116547619Y-108933333D01*
X116452380Y-109266666D02*
X116452380Y-109885714D01*
X116833333Y-109552380D01*
X116833333Y-109695238D01*
X116880952Y-109790476D01*
X116928571Y-109838095D01*
X117023809Y-109885714D01*
X117261904Y-109885714D01*
X117357142Y-109838095D01*
X117404761Y-109790476D01*
X117452380Y-109695238D01*
X117452380Y-109409523D01*
X117404761Y-109314285D01*
X117357142Y-109266666D01*
%TO.C,C4*%
X115657142Y-108933333D02*
X115704761Y-108885714D01*
X115752380Y-108742857D01*
X115752380Y-108647619D01*
X115704761Y-108504761D01*
X115609523Y-108409523D01*
X115514285Y-108361904D01*
X115323809Y-108314285D01*
X115180952Y-108314285D01*
X114990476Y-108361904D01*
X114895238Y-108409523D01*
X114800000Y-108504761D01*
X114752380Y-108647619D01*
X114752380Y-108742857D01*
X114800000Y-108885714D01*
X114847619Y-108933333D01*
X115085714Y-109790476D02*
X115752380Y-109790476D01*
X114704761Y-109552380D02*
X115419047Y-109314285D01*
X115419047Y-109933333D01*
%TO.C,C5*%
X99616666Y-96757142D02*
X99664285Y-96804761D01*
X99807142Y-96852380D01*
X99902380Y-96852380D01*
X100045238Y-96804761D01*
X100140476Y-96709523D01*
X100188095Y-96614285D01*
X100235714Y-96423809D01*
X100235714Y-96280952D01*
X100188095Y-96090476D01*
X100140476Y-95995238D01*
X100045238Y-95900000D01*
X99902380Y-95852380D01*
X99807142Y-95852380D01*
X99664285Y-95900000D01*
X99616666Y-95947619D01*
X98711904Y-95852380D02*
X99188095Y-95852380D01*
X99235714Y-96328571D01*
X99188095Y-96280952D01*
X99092857Y-96233333D01*
X98854761Y-96233333D01*
X98759523Y-96280952D01*
X98711904Y-96328571D01*
X98664285Y-96423809D01*
X98664285Y-96661904D01*
X98711904Y-96757142D01*
X98759523Y-96804761D01*
X98854761Y-96852380D01*
X99092857Y-96852380D01*
X99188095Y-96804761D01*
X99235714Y-96757142D01*
%TO.C,C6*%
X132566666Y-82057142D02*
X132614285Y-82104761D01*
X132757142Y-82152380D01*
X132852380Y-82152380D01*
X132995238Y-82104761D01*
X133090476Y-82009523D01*
X133138095Y-81914285D01*
X133185714Y-81723809D01*
X133185714Y-81580952D01*
X133138095Y-81390476D01*
X133090476Y-81295238D01*
X132995238Y-81200000D01*
X132852380Y-81152380D01*
X132757142Y-81152380D01*
X132614285Y-81200000D01*
X132566666Y-81247619D01*
X131709523Y-81152380D02*
X131900000Y-81152380D01*
X131995238Y-81200000D01*
X132042857Y-81247619D01*
X132138095Y-81390476D01*
X132185714Y-81580952D01*
X132185714Y-81961904D01*
X132138095Y-82057142D01*
X132090476Y-82104761D01*
X131995238Y-82152380D01*
X131804761Y-82152380D01*
X131709523Y-82104761D01*
X131661904Y-82057142D01*
X131614285Y-81961904D01*
X131614285Y-81723809D01*
X131661904Y-81628571D01*
X131709523Y-81580952D01*
X131804761Y-81533333D01*
X131995238Y-81533333D01*
X132090476Y-81580952D01*
X132138095Y-81628571D01*
X132185714Y-81723809D01*
%TO.C,C7*%
X132566666Y-80457142D02*
X132614285Y-80504761D01*
X132757142Y-80552380D01*
X132852380Y-80552380D01*
X132995238Y-80504761D01*
X133090476Y-80409523D01*
X133138095Y-80314285D01*
X133185714Y-80123809D01*
X133185714Y-79980952D01*
X133138095Y-79790476D01*
X133090476Y-79695238D01*
X132995238Y-79600000D01*
X132852380Y-79552380D01*
X132757142Y-79552380D01*
X132614285Y-79600000D01*
X132566666Y-79647619D01*
X132233333Y-79552380D02*
X131566666Y-79552380D01*
X131995238Y-80552380D01*
%TO.C,C8*%
X136057142Y-122408333D02*
X136104761Y-122360714D01*
X136152380Y-122217857D01*
X136152380Y-122122619D01*
X136104761Y-121979761D01*
X136009523Y-121884523D01*
X135914285Y-121836904D01*
X135723809Y-121789285D01*
X135580952Y-121789285D01*
X135390476Y-121836904D01*
X135295238Y-121884523D01*
X135200000Y-121979761D01*
X135152380Y-122122619D01*
X135152380Y-122217857D01*
X135200000Y-122360714D01*
X135247619Y-122408333D01*
X135580952Y-122979761D02*
X135533333Y-122884523D01*
X135485714Y-122836904D01*
X135390476Y-122789285D01*
X135342857Y-122789285D01*
X135247619Y-122836904D01*
X135200000Y-122884523D01*
X135152380Y-122979761D01*
X135152380Y-123170238D01*
X135200000Y-123265476D01*
X135247619Y-123313095D01*
X135342857Y-123360714D01*
X135390476Y-123360714D01*
X135485714Y-123313095D01*
X135533333Y-123265476D01*
X135580952Y-123170238D01*
X135580952Y-122979761D01*
X135628571Y-122884523D01*
X135676190Y-122836904D01*
X135771428Y-122789285D01*
X135961904Y-122789285D01*
X136057142Y-122836904D01*
X136104761Y-122884523D01*
X136152380Y-122979761D01*
X136152380Y-123170238D01*
X136104761Y-123265476D01*
X136057142Y-123313095D01*
X135961904Y-123360714D01*
X135771428Y-123360714D01*
X135676190Y-123313095D01*
X135628571Y-123265476D01*
X135580952Y-123170238D01*
%TO.C,C9*%
X136057142Y-95308333D02*
X136104761Y-95260714D01*
X136152380Y-95117857D01*
X136152380Y-95022619D01*
X136104761Y-94879761D01*
X136009523Y-94784523D01*
X135914285Y-94736904D01*
X135723809Y-94689285D01*
X135580952Y-94689285D01*
X135390476Y-94736904D01*
X135295238Y-94784523D01*
X135200000Y-94879761D01*
X135152380Y-95022619D01*
X135152380Y-95117857D01*
X135200000Y-95260714D01*
X135247619Y-95308333D01*
X136152380Y-95784523D02*
X136152380Y-95975000D01*
X136104761Y-96070238D01*
X136057142Y-96117857D01*
X135914285Y-96213095D01*
X135723809Y-96260714D01*
X135342857Y-96260714D01*
X135247619Y-96213095D01*
X135200000Y-96165476D01*
X135152380Y-96070238D01*
X135152380Y-95879761D01*
X135200000Y-95784523D01*
X135247619Y-95736904D01*
X135342857Y-95689285D01*
X135580952Y-95689285D01*
X135676190Y-95736904D01*
X135723809Y-95784523D01*
X135771428Y-95879761D01*
X135771428Y-96070238D01*
X135723809Y-96165476D01*
X135676190Y-96213095D01*
X135580952Y-96260714D01*
%TO.C,C10*%
X137657142Y-121432142D02*
X137704761Y-121384523D01*
X137752380Y-121241666D01*
X137752380Y-121146428D01*
X137704761Y-121003571D01*
X137609523Y-120908333D01*
X137514285Y-120860714D01*
X137323809Y-120813095D01*
X137180952Y-120813095D01*
X136990476Y-120860714D01*
X136895238Y-120908333D01*
X136800000Y-121003571D01*
X136752380Y-121146428D01*
X136752380Y-121241666D01*
X136800000Y-121384523D01*
X136847619Y-121432142D01*
X137752380Y-122384523D02*
X137752380Y-121813095D01*
X137752380Y-122098809D02*
X136752380Y-122098809D01*
X136895238Y-122003571D01*
X136990476Y-121908333D01*
X137038095Y-121813095D01*
X136752380Y-123003571D02*
X136752380Y-123098809D01*
X136800000Y-123194047D01*
X136847619Y-123241666D01*
X136942857Y-123289285D01*
X137133333Y-123336904D01*
X137371428Y-123336904D01*
X137561904Y-123289285D01*
X137657142Y-123241666D01*
X137704761Y-123194047D01*
X137752380Y-123098809D01*
X137752380Y-123003571D01*
X137704761Y-122908333D01*
X137657142Y-122860714D01*
X137561904Y-122813095D01*
X137371428Y-122765476D01*
X137133333Y-122765476D01*
X136942857Y-122813095D01*
X136847619Y-122860714D01*
X136800000Y-122908333D01*
X136752380Y-123003571D01*
%TO.C,C11*%
X137657142Y-94332142D02*
X137704761Y-94284523D01*
X137752380Y-94141666D01*
X137752380Y-94046428D01*
X137704761Y-93903571D01*
X137609523Y-93808333D01*
X137514285Y-93760714D01*
X137323809Y-93713095D01*
X137180952Y-93713095D01*
X136990476Y-93760714D01*
X136895238Y-93808333D01*
X136800000Y-93903571D01*
X136752380Y-94046428D01*
X136752380Y-94141666D01*
X136800000Y-94284523D01*
X136847619Y-94332142D01*
X137752380Y-95284523D02*
X137752380Y-94713095D01*
X137752380Y-94998809D02*
X136752380Y-94998809D01*
X136895238Y-94903571D01*
X136990476Y-94808333D01*
X137038095Y-94713095D01*
X137752380Y-96236904D02*
X137752380Y-95665476D01*
X137752380Y-95951190D02*
X136752380Y-95951190D01*
X136895238Y-95855952D01*
X136990476Y-95760714D01*
X137038095Y-95665476D01*
%TO.C,C12*%
X149542857Y-82057142D02*
X149590476Y-82104761D01*
X149733333Y-82152380D01*
X149828571Y-82152380D01*
X149971428Y-82104761D01*
X150066666Y-82009523D01*
X150114285Y-81914285D01*
X150161904Y-81723809D01*
X150161904Y-81580952D01*
X150114285Y-81390476D01*
X150066666Y-81295238D01*
X149971428Y-81200000D01*
X149828571Y-81152380D01*
X149733333Y-81152380D01*
X149590476Y-81200000D01*
X149542857Y-81247619D01*
X148590476Y-82152380D02*
X149161904Y-82152380D01*
X148876190Y-82152380D02*
X148876190Y-81152380D01*
X148971428Y-81295238D01*
X149066666Y-81390476D01*
X149161904Y-81438095D01*
X148209523Y-81247619D02*
X148161904Y-81200000D01*
X148066666Y-81152380D01*
X147828571Y-81152380D01*
X147733333Y-81200000D01*
X147685714Y-81247619D01*
X147638095Y-81342857D01*
X147638095Y-81438095D01*
X147685714Y-81580952D01*
X148257142Y-82152380D01*
X147638095Y-82152380D01*
%TO.C,C13*%
X149542857Y-80457142D02*
X149590476Y-80504761D01*
X149733333Y-80552380D01*
X149828571Y-80552380D01*
X149971428Y-80504761D01*
X150066666Y-80409523D01*
X150114285Y-80314285D01*
X150161904Y-80123809D01*
X150161904Y-79980952D01*
X150114285Y-79790476D01*
X150066666Y-79695238D01*
X149971428Y-79600000D01*
X149828571Y-79552380D01*
X149733333Y-79552380D01*
X149590476Y-79600000D01*
X149542857Y-79647619D01*
X148590476Y-80552380D02*
X149161904Y-80552380D01*
X148876190Y-80552380D02*
X148876190Y-79552380D01*
X148971428Y-79695238D01*
X149066666Y-79790476D01*
X149161904Y-79838095D01*
X148257142Y-79552380D02*
X147638095Y-79552380D01*
X147971428Y-79933333D01*
X147828571Y-79933333D01*
X147733333Y-79980952D01*
X147685714Y-80028571D01*
X147638095Y-80123809D01*
X147638095Y-80361904D01*
X147685714Y-80457142D01*
X147733333Y-80504761D01*
X147828571Y-80552380D01*
X148114285Y-80552380D01*
X148209523Y-80504761D01*
X148257142Y-80457142D01*
%TO.C,C14*%
X153157142Y-94457142D02*
X153204761Y-94409523D01*
X153252380Y-94266666D01*
X153252380Y-94171428D01*
X153204761Y-94028571D01*
X153109523Y-93933333D01*
X153014285Y-93885714D01*
X152823809Y-93838095D01*
X152680952Y-93838095D01*
X152490476Y-93885714D01*
X152395238Y-93933333D01*
X152300000Y-94028571D01*
X152252380Y-94171428D01*
X152252380Y-94266666D01*
X152300000Y-94409523D01*
X152347619Y-94457142D01*
X153252380Y-95409523D02*
X153252380Y-94838095D01*
X153252380Y-95123809D02*
X152252380Y-95123809D01*
X152395238Y-95028571D01*
X152490476Y-94933333D01*
X152538095Y-94838095D01*
X152585714Y-96266666D02*
X153252380Y-96266666D01*
X152204761Y-96028571D02*
X152919047Y-95790476D01*
X152919047Y-96409523D01*
%TO.C,C15*%
X153057142Y-121357142D02*
X153104761Y-121309523D01*
X153152380Y-121166666D01*
X153152380Y-121071428D01*
X153104761Y-120928571D01*
X153009523Y-120833333D01*
X152914285Y-120785714D01*
X152723809Y-120738095D01*
X152580952Y-120738095D01*
X152390476Y-120785714D01*
X152295238Y-120833333D01*
X152200000Y-120928571D01*
X152152380Y-121071428D01*
X152152380Y-121166666D01*
X152200000Y-121309523D01*
X152247619Y-121357142D01*
X153152380Y-122309523D02*
X153152380Y-121738095D01*
X153152380Y-122023809D02*
X152152380Y-122023809D01*
X152295238Y-121928571D01*
X152390476Y-121833333D01*
X152438095Y-121738095D01*
X152152380Y-123214285D02*
X152152380Y-122738095D01*
X152628571Y-122690476D01*
X152580952Y-122738095D01*
X152533333Y-122833333D01*
X152533333Y-123071428D01*
X152580952Y-123166666D01*
X152628571Y-123214285D01*
X152723809Y-123261904D01*
X152961904Y-123261904D01*
X153057142Y-123214285D01*
X153104761Y-123166666D01*
X153152380Y-123071428D01*
X153152380Y-122833333D01*
X153104761Y-122738095D01*
X153057142Y-122690476D01*
%TO.C,C16*%
X154757142Y-94457142D02*
X154804761Y-94409523D01*
X154852380Y-94266666D01*
X154852380Y-94171428D01*
X154804761Y-94028571D01*
X154709523Y-93933333D01*
X154614285Y-93885714D01*
X154423809Y-93838095D01*
X154280952Y-93838095D01*
X154090476Y-93885714D01*
X153995238Y-93933333D01*
X153900000Y-94028571D01*
X153852380Y-94171428D01*
X153852380Y-94266666D01*
X153900000Y-94409523D01*
X153947619Y-94457142D01*
X154852380Y-95409523D02*
X154852380Y-94838095D01*
X154852380Y-95123809D02*
X153852380Y-95123809D01*
X153995238Y-95028571D01*
X154090476Y-94933333D01*
X154138095Y-94838095D01*
X153852380Y-96266666D02*
X153852380Y-96076190D01*
X153900000Y-95980952D01*
X153947619Y-95933333D01*
X154090476Y-95838095D01*
X154280952Y-95790476D01*
X154661904Y-95790476D01*
X154757142Y-95838095D01*
X154804761Y-95885714D01*
X154852380Y-95980952D01*
X154852380Y-96171428D01*
X154804761Y-96266666D01*
X154757142Y-96314285D01*
X154661904Y-96361904D01*
X154423809Y-96361904D01*
X154328571Y-96314285D01*
X154280952Y-96266666D01*
X154233333Y-96171428D01*
X154233333Y-95980952D01*
X154280952Y-95885714D01*
X154328571Y-95838095D01*
X154423809Y-95790476D01*
%TO.C,C17*%
X154657142Y-121357142D02*
X154704761Y-121309523D01*
X154752380Y-121166666D01*
X154752380Y-121071428D01*
X154704761Y-120928571D01*
X154609523Y-120833333D01*
X154514285Y-120785714D01*
X154323809Y-120738095D01*
X154180952Y-120738095D01*
X153990476Y-120785714D01*
X153895238Y-120833333D01*
X153800000Y-120928571D01*
X153752380Y-121071428D01*
X153752380Y-121166666D01*
X153800000Y-121309523D01*
X153847619Y-121357142D01*
X154752380Y-122309523D02*
X154752380Y-121738095D01*
X154752380Y-122023809D02*
X153752380Y-122023809D01*
X153895238Y-121928571D01*
X153990476Y-121833333D01*
X154038095Y-121738095D01*
X153752380Y-122642857D02*
X153752380Y-123309523D01*
X154752380Y-122880952D01*
%TO.C,C18*%
X119807142Y-54507142D02*
X119854761Y-54459523D01*
X119902380Y-54316666D01*
X119902380Y-54221428D01*
X119854761Y-54078571D01*
X119759523Y-53983333D01*
X119664285Y-53935714D01*
X119473809Y-53888095D01*
X119330952Y-53888095D01*
X119140476Y-53935714D01*
X119045238Y-53983333D01*
X118950000Y-54078571D01*
X118902380Y-54221428D01*
X118902380Y-54316666D01*
X118950000Y-54459523D01*
X118997619Y-54507142D01*
X119902380Y-55459523D02*
X119902380Y-54888095D01*
X119902380Y-55173809D02*
X118902380Y-55173809D01*
X119045238Y-55078571D01*
X119140476Y-54983333D01*
X119188095Y-54888095D01*
X119330952Y-56030952D02*
X119283333Y-55935714D01*
X119235714Y-55888095D01*
X119140476Y-55840476D01*
X119092857Y-55840476D01*
X118997619Y-55888095D01*
X118950000Y-55935714D01*
X118902380Y-56030952D01*
X118902380Y-56221428D01*
X118950000Y-56316666D01*
X118997619Y-56364285D01*
X119092857Y-56411904D01*
X119140476Y-56411904D01*
X119235714Y-56364285D01*
X119283333Y-56316666D01*
X119330952Y-56221428D01*
X119330952Y-56030952D01*
X119378571Y-55935714D01*
X119426190Y-55888095D01*
X119521428Y-55840476D01*
X119711904Y-55840476D01*
X119807142Y-55888095D01*
X119854761Y-55935714D01*
X119902380Y-56030952D01*
X119902380Y-56221428D01*
X119854761Y-56316666D01*
X119807142Y-56364285D01*
X119711904Y-56411904D01*
X119521428Y-56411904D01*
X119426190Y-56364285D01*
X119378571Y-56316666D01*
X119330952Y-56221428D01*
%TO.C,C19*%
X118107142Y-54557142D02*
X118154761Y-54509523D01*
X118202380Y-54366666D01*
X118202380Y-54271428D01*
X118154761Y-54128571D01*
X118059523Y-54033333D01*
X117964285Y-53985714D01*
X117773809Y-53938095D01*
X117630952Y-53938095D01*
X117440476Y-53985714D01*
X117345238Y-54033333D01*
X117250000Y-54128571D01*
X117202380Y-54271428D01*
X117202380Y-54366666D01*
X117250000Y-54509523D01*
X117297619Y-54557142D01*
X118202380Y-55509523D02*
X118202380Y-54938095D01*
X118202380Y-55223809D02*
X117202380Y-55223809D01*
X117345238Y-55128571D01*
X117440476Y-55033333D01*
X117488095Y-54938095D01*
X118202380Y-55985714D02*
X118202380Y-56176190D01*
X118154761Y-56271428D01*
X118107142Y-56319047D01*
X117964285Y-56414285D01*
X117773809Y-56461904D01*
X117392857Y-56461904D01*
X117297619Y-56414285D01*
X117250000Y-56366666D01*
X117202380Y-56271428D01*
X117202380Y-56080952D01*
X117250000Y-55985714D01*
X117297619Y-55938095D01*
X117392857Y-55890476D01*
X117630952Y-55890476D01*
X117726190Y-55938095D01*
X117773809Y-55985714D01*
X117821428Y-56080952D01*
X117821428Y-56271428D01*
X117773809Y-56366666D01*
X117726190Y-56414285D01*
X117630952Y-56461904D01*
%TO.C,JP1*%
X124352380Y-106516666D02*
X125066666Y-106516666D01*
X125209523Y-106469047D01*
X125304761Y-106373809D01*
X125352380Y-106230952D01*
X125352380Y-106135714D01*
X125352380Y-106992857D02*
X124352380Y-106992857D01*
X124352380Y-107373809D01*
X124400000Y-107469047D01*
X124447619Y-107516666D01*
X124542857Y-107564285D01*
X124685714Y-107564285D01*
X124780952Y-107516666D01*
X124828571Y-107469047D01*
X124876190Y-107373809D01*
X124876190Y-106992857D01*
X125352380Y-108516666D02*
X125352380Y-107945238D01*
X125352380Y-108230952D02*
X124352380Y-108230952D01*
X124495238Y-108135714D01*
X124590476Y-108040476D01*
X124638095Y-107945238D01*
%TO.C,JP2*%
X116583333Y-92552380D02*
X116583333Y-93266666D01*
X116630952Y-93409523D01*
X116726190Y-93504761D01*
X116869047Y-93552380D01*
X116964285Y-93552380D01*
X116107142Y-93552380D02*
X116107142Y-92552380D01*
X115726190Y-92552380D01*
X115630952Y-92600000D01*
X115583333Y-92647619D01*
X115535714Y-92742857D01*
X115535714Y-92885714D01*
X115583333Y-92980952D01*
X115630952Y-93028571D01*
X115726190Y-93076190D01*
X116107142Y-93076190D01*
X115154761Y-92647619D02*
X115107142Y-92600000D01*
X115011904Y-92552380D01*
X114773809Y-92552380D01*
X114678571Y-92600000D01*
X114630952Y-92647619D01*
X114583333Y-92742857D01*
X114583333Y-92838095D01*
X114630952Y-92980952D01*
X115202380Y-93552380D01*
X114583333Y-93552380D01*
%TO.C,JP3*%
X112752380Y-99666666D02*
X113466666Y-99666666D01*
X113609523Y-99619047D01*
X113704761Y-99523809D01*
X113752380Y-99380952D01*
X113752380Y-99285714D01*
X113752380Y-100142857D02*
X112752380Y-100142857D01*
X112752380Y-100523809D01*
X112800000Y-100619047D01*
X112847619Y-100666666D01*
X112942857Y-100714285D01*
X113085714Y-100714285D01*
X113180952Y-100666666D01*
X113228571Y-100619047D01*
X113276190Y-100523809D01*
X113276190Y-100142857D01*
X112752380Y-101047619D02*
X112752380Y-101666666D01*
X113133333Y-101333333D01*
X113133333Y-101476190D01*
X113180952Y-101571428D01*
X113228571Y-101619047D01*
X113323809Y-101666666D01*
X113561904Y-101666666D01*
X113657142Y-101619047D01*
X113704761Y-101571428D01*
X113752380Y-101476190D01*
X113752380Y-101190476D01*
X113704761Y-101095238D01*
X113657142Y-101047619D01*
%TO.C,JP4*%
X118333333Y-97652380D02*
X118333333Y-98366666D01*
X118380952Y-98509523D01*
X118476190Y-98604761D01*
X118619047Y-98652380D01*
X118714285Y-98652380D01*
X117857142Y-98652380D02*
X117857142Y-97652380D01*
X117476190Y-97652380D01*
X117380952Y-97700000D01*
X117333333Y-97747619D01*
X117285714Y-97842857D01*
X117285714Y-97985714D01*
X117333333Y-98080952D01*
X117380952Y-98128571D01*
X117476190Y-98176190D01*
X117857142Y-98176190D01*
X116428571Y-97985714D02*
X116428571Y-98652380D01*
X116666666Y-97604761D02*
X116904761Y-98319047D01*
X116285714Y-98319047D01*
%TO.C,JP5*%
X98552380Y-59016666D02*
X99266666Y-59016666D01*
X99409523Y-58969047D01*
X99504761Y-58873809D01*
X99552380Y-58730952D01*
X99552380Y-58635714D01*
X99552380Y-59492857D02*
X98552380Y-59492857D01*
X98552380Y-59873809D01*
X98600000Y-59969047D01*
X98647619Y-60016666D01*
X98742857Y-60064285D01*
X98885714Y-60064285D01*
X98980952Y-60016666D01*
X99028571Y-59969047D01*
X99076190Y-59873809D01*
X99076190Y-59492857D01*
X98552380Y-60969047D02*
X98552380Y-60492857D01*
X99028571Y-60445238D01*
X98980952Y-60492857D01*
X98933333Y-60588095D01*
X98933333Y-60826190D01*
X98980952Y-60921428D01*
X99028571Y-60969047D01*
X99123809Y-61016666D01*
X99361904Y-61016666D01*
X99457142Y-60969047D01*
X99504761Y-60921428D01*
X99552380Y-60826190D01*
X99552380Y-60588095D01*
X99504761Y-60492857D01*
X99457142Y-60445238D01*
%TO.C,Q1*%
X92995238Y-96847619D02*
X93090476Y-96800000D01*
X93185714Y-96704761D01*
X93328571Y-96561904D01*
X93423809Y-96514285D01*
X93519047Y-96514285D01*
X93471428Y-96752380D02*
X93566666Y-96704761D01*
X93661904Y-96609523D01*
X93709523Y-96419047D01*
X93709523Y-96085714D01*
X93661904Y-95895238D01*
X93566666Y-95800000D01*
X93471428Y-95752380D01*
X93280952Y-95752380D01*
X93185714Y-95800000D01*
X93090476Y-95895238D01*
X93042857Y-96085714D01*
X93042857Y-96419047D01*
X93090476Y-96609523D01*
X93185714Y-96704761D01*
X93280952Y-96752380D01*
X93471428Y-96752380D01*
X92090476Y-96752380D02*
X92661904Y-96752380D01*
X92376190Y-96752380D02*
X92376190Y-95752380D01*
X92471428Y-95895238D01*
X92566666Y-95990476D01*
X92661904Y-96038095D01*
%TO.C,Q2*%
X112047619Y-52254761D02*
X112000000Y-52159523D01*
X111904761Y-52064285D01*
X111761904Y-51921428D01*
X111714285Y-51826190D01*
X111714285Y-51730952D01*
X111952380Y-51778571D02*
X111904761Y-51683333D01*
X111809523Y-51588095D01*
X111619047Y-51540476D01*
X111285714Y-51540476D01*
X111095238Y-51588095D01*
X111000000Y-51683333D01*
X110952380Y-51778571D01*
X110952380Y-51969047D01*
X111000000Y-52064285D01*
X111095238Y-52159523D01*
X111285714Y-52207142D01*
X111619047Y-52207142D01*
X111809523Y-52159523D01*
X111904761Y-52064285D01*
X111952380Y-51969047D01*
X111952380Y-51778571D01*
X111047619Y-52588095D02*
X111000000Y-52635714D01*
X110952380Y-52730952D01*
X110952380Y-52969047D01*
X111000000Y-53064285D01*
X111047619Y-53111904D01*
X111142857Y-53159523D01*
X111238095Y-53159523D01*
X111380952Y-53111904D01*
X111952380Y-52540476D01*
X111952380Y-53159523D01*
%TO.C,Q3*%
X125197619Y-50254761D02*
X125150000Y-50159523D01*
X125054761Y-50064285D01*
X124911904Y-49921428D01*
X124864285Y-49826190D01*
X124864285Y-49730952D01*
X125102380Y-49778571D02*
X125054761Y-49683333D01*
X124959523Y-49588095D01*
X124769047Y-49540476D01*
X124435714Y-49540476D01*
X124245238Y-49588095D01*
X124150000Y-49683333D01*
X124102380Y-49778571D01*
X124102380Y-49969047D01*
X124150000Y-50064285D01*
X124245238Y-50159523D01*
X124435714Y-50207142D01*
X124769047Y-50207142D01*
X124959523Y-50159523D01*
X125054761Y-50064285D01*
X125102380Y-49969047D01*
X125102380Y-49778571D01*
X124102380Y-50540476D02*
X124102380Y-51159523D01*
X124483333Y-50826190D01*
X124483333Y-50969047D01*
X124530952Y-51064285D01*
X124578571Y-51111904D01*
X124673809Y-51159523D01*
X124911904Y-51159523D01*
X125007142Y-51111904D01*
X125054761Y-51064285D01*
X125102380Y-50969047D01*
X125102380Y-50683333D01*
X125054761Y-50588095D01*
X125007142Y-50540476D01*
%TO.C,Q4*%
X122895238Y-64347619D02*
X122990476Y-64300000D01*
X123085714Y-64204761D01*
X123228571Y-64061904D01*
X123323809Y-64014285D01*
X123419047Y-64014285D01*
X123371428Y-64252380D02*
X123466666Y-64204761D01*
X123561904Y-64109523D01*
X123609523Y-63919047D01*
X123609523Y-63585714D01*
X123561904Y-63395238D01*
X123466666Y-63300000D01*
X123371428Y-63252380D01*
X123180952Y-63252380D01*
X123085714Y-63300000D01*
X122990476Y-63395238D01*
X122942857Y-63585714D01*
X122942857Y-63919047D01*
X122990476Y-64109523D01*
X123085714Y-64204761D01*
X123180952Y-64252380D01*
X123371428Y-64252380D01*
X122085714Y-63585714D02*
X122085714Y-64252380D01*
X122323809Y-63204761D02*
X122561904Y-63919047D01*
X121942857Y-63919047D01*
%TO.C,R1*%
X117152380Y-80633333D02*
X116676190Y-80300000D01*
X117152380Y-80061904D02*
X116152380Y-80061904D01*
X116152380Y-80442857D01*
X116200000Y-80538095D01*
X116247619Y-80585714D01*
X116342857Y-80633333D01*
X116485714Y-80633333D01*
X116580952Y-80585714D01*
X116628571Y-80538095D01*
X116676190Y-80442857D01*
X116676190Y-80061904D01*
X117152380Y-81585714D02*
X117152380Y-81014285D01*
X117152380Y-81300000D02*
X116152380Y-81300000D01*
X116295238Y-81204761D01*
X116390476Y-81109523D01*
X116438095Y-81014285D01*
%TO.C,R3*%
X123666666Y-105652380D02*
X124000000Y-105176190D01*
X124238095Y-105652380D02*
X124238095Y-104652380D01*
X123857142Y-104652380D01*
X123761904Y-104700000D01*
X123714285Y-104747619D01*
X123666666Y-104842857D01*
X123666666Y-104985714D01*
X123714285Y-105080952D01*
X123761904Y-105128571D01*
X123857142Y-105176190D01*
X124238095Y-105176190D01*
X123333333Y-104652380D02*
X122714285Y-104652380D01*
X123047619Y-105033333D01*
X122904761Y-105033333D01*
X122809523Y-105080952D01*
X122761904Y-105128571D01*
X122714285Y-105223809D01*
X122714285Y-105461904D01*
X122761904Y-105557142D01*
X122809523Y-105604761D01*
X122904761Y-105652380D01*
X123190476Y-105652380D01*
X123285714Y-105604761D01*
X123333333Y-105557142D01*
%TO.C,R5*%
X116766666Y-107052380D02*
X117100000Y-106576190D01*
X117338095Y-107052380D02*
X117338095Y-106052380D01*
X116957142Y-106052380D01*
X116861904Y-106100000D01*
X116814285Y-106147619D01*
X116766666Y-106242857D01*
X116766666Y-106385714D01*
X116814285Y-106480952D01*
X116861904Y-106528571D01*
X116957142Y-106576190D01*
X117338095Y-106576190D01*
X115861904Y-106052380D02*
X116338095Y-106052380D01*
X116385714Y-106528571D01*
X116338095Y-106480952D01*
X116242857Y-106433333D01*
X116004761Y-106433333D01*
X115909523Y-106480952D01*
X115861904Y-106528571D01*
X115814285Y-106623809D01*
X115814285Y-106861904D01*
X115861904Y-106957142D01*
X115909523Y-107004761D01*
X116004761Y-107052380D01*
X116242857Y-107052380D01*
X116338095Y-107004761D01*
X116385714Y-106957142D01*
%TO.C,R6*%
X115852380Y-102533333D02*
X115376190Y-102200000D01*
X115852380Y-101961904D02*
X114852380Y-101961904D01*
X114852380Y-102342857D01*
X114900000Y-102438095D01*
X114947619Y-102485714D01*
X115042857Y-102533333D01*
X115185714Y-102533333D01*
X115280952Y-102485714D01*
X115328571Y-102438095D01*
X115376190Y-102342857D01*
X115376190Y-101961904D01*
X114852380Y-103390476D02*
X114852380Y-103200000D01*
X114900000Y-103104761D01*
X114947619Y-103057142D01*
X115090476Y-102961904D01*
X115280952Y-102914285D01*
X115661904Y-102914285D01*
X115757142Y-102961904D01*
X115804761Y-103009523D01*
X115852380Y-103104761D01*
X115852380Y-103295238D01*
X115804761Y-103390476D01*
X115757142Y-103438095D01*
X115661904Y-103485714D01*
X115423809Y-103485714D01*
X115328571Y-103438095D01*
X115280952Y-103390476D01*
X115233333Y-103295238D01*
X115233333Y-103104761D01*
X115280952Y-103009523D01*
X115328571Y-102961904D01*
X115423809Y-102914285D01*
%TO.C,R7*%
X96554166Y-101632380D02*
X96887500Y-101156190D01*
X97125595Y-101632380D02*
X97125595Y-100632380D01*
X96744642Y-100632380D01*
X96649404Y-100680000D01*
X96601785Y-100727619D01*
X96554166Y-100822857D01*
X96554166Y-100965714D01*
X96601785Y-101060952D01*
X96649404Y-101108571D01*
X96744642Y-101156190D01*
X97125595Y-101156190D01*
X96220833Y-100632380D02*
X95554166Y-100632380D01*
X95982738Y-101632380D01*
%TO.C,R8*%
X99654166Y-101632380D02*
X99987500Y-101156190D01*
X100225595Y-101632380D02*
X100225595Y-100632380D01*
X99844642Y-100632380D01*
X99749404Y-100680000D01*
X99701785Y-100727619D01*
X99654166Y-100822857D01*
X99654166Y-100965714D01*
X99701785Y-101060952D01*
X99749404Y-101108571D01*
X99844642Y-101156190D01*
X100225595Y-101156190D01*
X99082738Y-101060952D02*
X99177976Y-101013333D01*
X99225595Y-100965714D01*
X99273214Y-100870476D01*
X99273214Y-100822857D01*
X99225595Y-100727619D01*
X99177976Y-100680000D01*
X99082738Y-100632380D01*
X98892261Y-100632380D01*
X98797023Y-100680000D01*
X98749404Y-100727619D01*
X98701785Y-100822857D01*
X98701785Y-100870476D01*
X98749404Y-100965714D01*
X98797023Y-101013333D01*
X98892261Y-101060952D01*
X99082738Y-101060952D01*
X99177976Y-101108571D01*
X99225595Y-101156190D01*
X99273214Y-101251428D01*
X99273214Y-101441904D01*
X99225595Y-101537142D01*
X99177976Y-101584761D01*
X99082738Y-101632380D01*
X98892261Y-101632380D01*
X98797023Y-101584761D01*
X98749404Y-101537142D01*
X98701785Y-101441904D01*
X98701785Y-101251428D01*
X98749404Y-101156190D01*
X98797023Y-101108571D01*
X98892261Y-101060952D01*
%TO.C,R9*%
X96529166Y-96872380D02*
X96862500Y-96396190D01*
X97100595Y-96872380D02*
X97100595Y-95872380D01*
X96719642Y-95872380D01*
X96624404Y-95920000D01*
X96576785Y-95967619D01*
X96529166Y-96062857D01*
X96529166Y-96205714D01*
X96576785Y-96300952D01*
X96624404Y-96348571D01*
X96719642Y-96396190D01*
X97100595Y-96396190D01*
X96052976Y-96872380D02*
X95862500Y-96872380D01*
X95767261Y-96824761D01*
X95719642Y-96777142D01*
X95624404Y-96634285D01*
X95576785Y-96443809D01*
X95576785Y-96062857D01*
X95624404Y-95967619D01*
X95672023Y-95920000D01*
X95767261Y-95872380D01*
X95957738Y-95872380D01*
X96052976Y-95920000D01*
X96100595Y-95967619D01*
X96148214Y-96062857D01*
X96148214Y-96300952D01*
X96100595Y-96396190D01*
X96052976Y-96443809D01*
X95957738Y-96491428D01*
X95767261Y-96491428D01*
X95672023Y-96443809D01*
X95624404Y-96396190D01*
X95576785Y-96300952D01*
%TO.C,R10*%
X130132380Y-79394642D02*
X129656190Y-79061309D01*
X130132380Y-78823214D02*
X129132380Y-78823214D01*
X129132380Y-79204166D01*
X129180000Y-79299404D01*
X129227619Y-79347023D01*
X129322857Y-79394642D01*
X129465714Y-79394642D01*
X129560952Y-79347023D01*
X129608571Y-79299404D01*
X129656190Y-79204166D01*
X129656190Y-78823214D01*
X130132380Y-80347023D02*
X130132380Y-79775595D01*
X130132380Y-80061309D02*
X129132380Y-80061309D01*
X129275238Y-79966071D01*
X129370476Y-79870833D01*
X129418095Y-79775595D01*
X129132380Y-80966071D02*
X129132380Y-81061309D01*
X129180000Y-81156547D01*
X129227619Y-81204166D01*
X129322857Y-81251785D01*
X129513333Y-81299404D01*
X129751428Y-81299404D01*
X129941904Y-81251785D01*
X130037142Y-81204166D01*
X130084761Y-81156547D01*
X130132380Y-81061309D01*
X130132380Y-80966071D01*
X130084761Y-80870833D01*
X130037142Y-80823214D01*
X129941904Y-80775595D01*
X129751428Y-80727976D01*
X129513333Y-80727976D01*
X129322857Y-80775595D01*
X129227619Y-80823214D01*
X129180000Y-80870833D01*
X129132380Y-80966071D01*
%TO.C,R11*%
X147182380Y-78269642D02*
X146706190Y-77936309D01*
X147182380Y-77698214D02*
X146182380Y-77698214D01*
X146182380Y-78079166D01*
X146230000Y-78174404D01*
X146277619Y-78222023D01*
X146372857Y-78269642D01*
X146515714Y-78269642D01*
X146610952Y-78222023D01*
X146658571Y-78174404D01*
X146706190Y-78079166D01*
X146706190Y-77698214D01*
X147182380Y-79222023D02*
X147182380Y-78650595D01*
X147182380Y-78936309D02*
X146182380Y-78936309D01*
X146325238Y-78841071D01*
X146420476Y-78745833D01*
X146468095Y-78650595D01*
X147182380Y-80174404D02*
X147182380Y-79602976D01*
X147182380Y-79888690D02*
X146182380Y-79888690D01*
X146325238Y-79793452D01*
X146420476Y-79698214D01*
X146468095Y-79602976D01*
%TO.C,R12*%
X114052380Y-59069642D02*
X113576190Y-58736309D01*
X114052380Y-58498214D02*
X113052380Y-58498214D01*
X113052380Y-58879166D01*
X113100000Y-58974404D01*
X113147619Y-59022023D01*
X113242857Y-59069642D01*
X113385714Y-59069642D01*
X113480952Y-59022023D01*
X113528571Y-58974404D01*
X113576190Y-58879166D01*
X113576190Y-58498214D01*
X114052380Y-60022023D02*
X114052380Y-59450595D01*
X114052380Y-59736309D02*
X113052380Y-59736309D01*
X113195238Y-59641071D01*
X113290476Y-59545833D01*
X113338095Y-59450595D01*
X113147619Y-60402976D02*
X113100000Y-60450595D01*
X113052380Y-60545833D01*
X113052380Y-60783928D01*
X113100000Y-60879166D01*
X113147619Y-60926785D01*
X113242857Y-60974404D01*
X113338095Y-60974404D01*
X113480952Y-60926785D01*
X114052380Y-60355357D01*
X114052380Y-60974404D01*
%TO.C,R13*%
X116155357Y-49802380D02*
X116488690Y-49326190D01*
X116726785Y-49802380D02*
X116726785Y-48802380D01*
X116345833Y-48802380D01*
X116250595Y-48850000D01*
X116202976Y-48897619D01*
X116155357Y-48992857D01*
X116155357Y-49135714D01*
X116202976Y-49230952D01*
X116250595Y-49278571D01*
X116345833Y-49326190D01*
X116726785Y-49326190D01*
X115202976Y-49802380D02*
X115774404Y-49802380D01*
X115488690Y-49802380D02*
X115488690Y-48802380D01*
X115583928Y-48945238D01*
X115679166Y-49040476D01*
X115774404Y-49088095D01*
X114869642Y-48802380D02*
X114250595Y-48802380D01*
X114583928Y-49183333D01*
X114441071Y-49183333D01*
X114345833Y-49230952D01*
X114298214Y-49278571D01*
X114250595Y-49373809D01*
X114250595Y-49611904D01*
X114298214Y-49707142D01*
X114345833Y-49754761D01*
X114441071Y-49802380D01*
X114726785Y-49802380D01*
X114822023Y-49754761D01*
X114869642Y-49707142D01*
%TO.C,R14*%
X120055357Y-64182380D02*
X120388690Y-63706190D01*
X120626785Y-64182380D02*
X120626785Y-63182380D01*
X120245833Y-63182380D01*
X120150595Y-63230000D01*
X120102976Y-63277619D01*
X120055357Y-63372857D01*
X120055357Y-63515714D01*
X120102976Y-63610952D01*
X120150595Y-63658571D01*
X120245833Y-63706190D01*
X120626785Y-63706190D01*
X119102976Y-64182380D02*
X119674404Y-64182380D01*
X119388690Y-64182380D02*
X119388690Y-63182380D01*
X119483928Y-63325238D01*
X119579166Y-63420476D01*
X119674404Y-63468095D01*
X118245833Y-63515714D02*
X118245833Y-64182380D01*
X118483928Y-63134761D02*
X118722023Y-63849047D01*
X118102976Y-63849047D01*
%TO.C,R15*%
X133022380Y-54644642D02*
X132546190Y-54311309D01*
X133022380Y-54073214D02*
X132022380Y-54073214D01*
X132022380Y-54454166D01*
X132070000Y-54549404D01*
X132117619Y-54597023D01*
X132212857Y-54644642D01*
X132355714Y-54644642D01*
X132450952Y-54597023D01*
X132498571Y-54549404D01*
X132546190Y-54454166D01*
X132546190Y-54073214D01*
X133022380Y-55597023D02*
X133022380Y-55025595D01*
X133022380Y-55311309D02*
X132022380Y-55311309D01*
X132165238Y-55216071D01*
X132260476Y-55120833D01*
X132308095Y-55025595D01*
X132022380Y-56501785D02*
X132022380Y-56025595D01*
X132498571Y-55977976D01*
X132450952Y-56025595D01*
X132403333Y-56120833D01*
X132403333Y-56358928D01*
X132450952Y-56454166D01*
X132498571Y-56501785D01*
X132593809Y-56549404D01*
X132831904Y-56549404D01*
X132927142Y-56501785D01*
X132974761Y-56454166D01*
X133022380Y-56358928D01*
X133022380Y-56120833D01*
X132974761Y-56025595D01*
X132927142Y-55977976D01*
%TO.C,R16*%
X141022380Y-54644642D02*
X140546190Y-54311309D01*
X141022380Y-54073214D02*
X140022380Y-54073214D01*
X140022380Y-54454166D01*
X140070000Y-54549404D01*
X140117619Y-54597023D01*
X140212857Y-54644642D01*
X140355714Y-54644642D01*
X140450952Y-54597023D01*
X140498571Y-54549404D01*
X140546190Y-54454166D01*
X140546190Y-54073214D01*
X141022380Y-55597023D02*
X141022380Y-55025595D01*
X141022380Y-55311309D02*
X140022380Y-55311309D01*
X140165238Y-55216071D01*
X140260476Y-55120833D01*
X140308095Y-55025595D01*
X140022380Y-56454166D02*
X140022380Y-56263690D01*
X140070000Y-56168452D01*
X140117619Y-56120833D01*
X140260476Y-56025595D01*
X140450952Y-55977976D01*
X140831904Y-55977976D01*
X140927142Y-56025595D01*
X140974761Y-56073214D01*
X141022380Y-56168452D01*
X141022380Y-56358928D01*
X140974761Y-56454166D01*
X140927142Y-56501785D01*
X140831904Y-56549404D01*
X140593809Y-56549404D01*
X140498571Y-56501785D01*
X140450952Y-56454166D01*
X140403333Y-56358928D01*
X140403333Y-56168452D01*
X140450952Y-56073214D01*
X140498571Y-56025595D01*
X140593809Y-55977976D01*
%TO.C,R17*%
X149022380Y-54644642D02*
X148546190Y-54311309D01*
X149022380Y-54073214D02*
X148022380Y-54073214D01*
X148022380Y-54454166D01*
X148070000Y-54549404D01*
X148117619Y-54597023D01*
X148212857Y-54644642D01*
X148355714Y-54644642D01*
X148450952Y-54597023D01*
X148498571Y-54549404D01*
X148546190Y-54454166D01*
X148546190Y-54073214D01*
X149022380Y-55597023D02*
X149022380Y-55025595D01*
X149022380Y-55311309D02*
X148022380Y-55311309D01*
X148165238Y-55216071D01*
X148260476Y-55120833D01*
X148308095Y-55025595D01*
X148022380Y-55930357D02*
X148022380Y-56597023D01*
X149022380Y-56168452D01*
%TO.C,R18*%
X157022380Y-54644642D02*
X156546190Y-54311309D01*
X157022380Y-54073214D02*
X156022380Y-54073214D01*
X156022380Y-54454166D01*
X156070000Y-54549404D01*
X156117619Y-54597023D01*
X156212857Y-54644642D01*
X156355714Y-54644642D01*
X156450952Y-54597023D01*
X156498571Y-54549404D01*
X156546190Y-54454166D01*
X156546190Y-54073214D01*
X157022380Y-55597023D02*
X157022380Y-55025595D01*
X157022380Y-55311309D02*
X156022380Y-55311309D01*
X156165238Y-55216071D01*
X156260476Y-55120833D01*
X156308095Y-55025595D01*
X156450952Y-56168452D02*
X156403333Y-56073214D01*
X156355714Y-56025595D01*
X156260476Y-55977976D01*
X156212857Y-55977976D01*
X156117619Y-56025595D01*
X156070000Y-56073214D01*
X156022380Y-56168452D01*
X156022380Y-56358928D01*
X156070000Y-56454166D01*
X156117619Y-56501785D01*
X156212857Y-56549404D01*
X156260476Y-56549404D01*
X156355714Y-56501785D01*
X156403333Y-56454166D01*
X156450952Y-56358928D01*
X156450952Y-56168452D01*
X156498571Y-56073214D01*
X156546190Y-56025595D01*
X156641428Y-55977976D01*
X156831904Y-55977976D01*
X156927142Y-56025595D01*
X156974761Y-56073214D01*
X157022380Y-56168452D01*
X157022380Y-56358928D01*
X156974761Y-56454166D01*
X156927142Y-56501785D01*
X156831904Y-56549404D01*
X156641428Y-56549404D01*
X156546190Y-56501785D01*
X156498571Y-56454166D01*
X156450952Y-56358928D01*
%TO.C,U3*%
X135227380Y-86538095D02*
X136036904Y-86538095D01*
X136132142Y-86585714D01*
X136179761Y-86633333D01*
X136227380Y-86728571D01*
X136227380Y-86919047D01*
X136179761Y-87014285D01*
X136132142Y-87061904D01*
X136036904Y-87109523D01*
X135227380Y-87109523D01*
X135227380Y-87490476D02*
X135227380Y-88109523D01*
X135608333Y-87776190D01*
X135608333Y-87919047D01*
X135655952Y-88014285D01*
X135703571Y-88061904D01*
X135798809Y-88109523D01*
X136036904Y-88109523D01*
X136132142Y-88061904D01*
X136179761Y-88014285D01*
X136227380Y-87919047D01*
X136227380Y-87633333D01*
X136179761Y-87538095D01*
X136132142Y-87490476D01*
%TO.C,U4*%
X152277380Y-86638095D02*
X153086904Y-86638095D01*
X153182142Y-86685714D01*
X153229761Y-86733333D01*
X153277380Y-86828571D01*
X153277380Y-87019047D01*
X153229761Y-87114285D01*
X153182142Y-87161904D01*
X153086904Y-87209523D01*
X152277380Y-87209523D01*
X152610714Y-88114285D02*
X153277380Y-88114285D01*
X152229761Y-87876190D02*
X152944047Y-87638095D01*
X152944047Y-88257142D01*
%TD*%
M02*
