%TF.GenerationSoftware,KiCad,Pcbnew,5.1.6-c6e7f7d~87~ubuntu18.04.1*%
%TF.CreationDate,2020-08-12T00:38:11-03:00*%
%TF.ProjectId,tfMainBoard,74664d61-696e-4426-9f61-72642e6b6963,Rev 1.0.0*%
%TF.SameCoordinates,Original*%
%TF.FileFunction,Soldermask,Top*%
%TF.FilePolarity,Negative*%
%FSLAX46Y46*%
G04 Gerber Fmt 4.6, Leading zero omitted, Abs format (unit mm)*
G04 Created by KiCad (PCBNEW 5.1.6-c6e7f7d~87~ubuntu18.04.1) date 2020-08-12 00:38:11*
%MOMM*%
%LPD*%
G01*
G04 APERTURE LIST*
%ADD10C,6.500000*%
%ADD11C,0.900000*%
%ADD12R,2.000000X1.400000*%
%ADD13R,2.000000X2.100000*%
%ADD14R,1.700000X1.700000*%
%ADD15O,1.700000X1.700000*%
%ADD16R,2.100000X2.100000*%
%ADD17C,2.100000*%
%ADD18O,1.800000X1.800000*%
%ADD19R,1.800000X1.800000*%
G04 APERTURE END LIST*
D10*
%TO.C,*%
X165000000Y-125000000D03*
D11*
X167400000Y-125000000D03*
X166697056Y-126697056D03*
X165000000Y-127400000D03*
X163302944Y-126697056D03*
X162600000Y-125000000D03*
X163302944Y-123302944D03*
X165000000Y-122600000D03*
X166697056Y-123302944D03*
%TD*%
D10*
%TO.C,*%
X90000000Y-125000000D03*
D11*
X92400000Y-125000000D03*
X91697056Y-126697056D03*
X90000000Y-127400000D03*
X88302944Y-126697056D03*
X87600000Y-125000000D03*
X88302944Y-123302944D03*
X90000000Y-122600000D03*
X91697056Y-123302944D03*
%TD*%
D10*
%TO.C,*%
X90000000Y-50000000D03*
D11*
X92400000Y-50000000D03*
X91697056Y-51697056D03*
X90000000Y-52400000D03*
X88302944Y-51697056D03*
X87600000Y-50000000D03*
X88302944Y-48302944D03*
X90000000Y-47600000D03*
X91697056Y-48302944D03*
%TD*%
%TO.C,*%
X166697056Y-48302944D03*
X165000000Y-47600000D03*
X163302944Y-48302944D03*
X162600000Y-50000000D03*
X163302944Y-51697056D03*
X165000000Y-52400000D03*
X166697056Y-51697056D03*
X167400000Y-50000000D03*
D10*
X165000000Y-50000000D03*
%TD*%
D12*
%TO.C,RV1*%
X120700000Y-100050000D03*
D13*
X125800000Y-101200000D03*
D12*
X120700000Y-102350000D03*
%TD*%
D14*
%TO.C,A1*%
X109240000Y-91000000D03*
D15*
X94000000Y-57980000D03*
X109240000Y-88460000D03*
X94000000Y-60520000D03*
X109240000Y-85920000D03*
X94000000Y-63060000D03*
X109240000Y-83380000D03*
X94000000Y-65600000D03*
X109240000Y-80840000D03*
X94000000Y-68140000D03*
X109240000Y-78300000D03*
X94000000Y-70680000D03*
X109240000Y-75760000D03*
X94000000Y-73220000D03*
X109240000Y-73220000D03*
X94000000Y-75760000D03*
X109240000Y-70680000D03*
X94000000Y-78300000D03*
X109240000Y-68140000D03*
X94000000Y-80840000D03*
X109240000Y-65600000D03*
X94000000Y-83380000D03*
X109240000Y-63060000D03*
X94000000Y-85920000D03*
X109240000Y-60520000D03*
X94000000Y-88460000D03*
X109240000Y-57980000D03*
X94000000Y-91000000D03*
X109240000Y-55440000D03*
X94000000Y-55440000D03*
%TD*%
D16*
%TO.C,BZ1*%
X114000000Y-55500000D03*
D17*
X121600000Y-55500000D03*
%TD*%
D18*
%TO.C,J1*%
X90000000Y-91000000D03*
D19*
X90000000Y-93540000D03*
%TD*%
D18*
%TO.C,J2*%
X140000000Y-104000000D03*
X140000000Y-106540000D03*
X140000000Y-109080000D03*
X140000000Y-111620000D03*
X140000000Y-114160000D03*
X140000000Y-116700000D03*
X140000000Y-119240000D03*
X140000000Y-121780000D03*
X140000000Y-124320000D03*
D19*
X140000000Y-126860000D03*
%TD*%
D18*
%TO.C,J3*%
X140000000Y-77000000D03*
X140000000Y-79540000D03*
X140000000Y-82080000D03*
X140000000Y-84620000D03*
X140000000Y-87160000D03*
X140000000Y-89700000D03*
X140000000Y-92240000D03*
X140000000Y-94780000D03*
X140000000Y-97320000D03*
D19*
X140000000Y-99860000D03*
%TD*%
%TO.C,J4*%
X157000000Y-126860000D03*
D18*
X157000000Y-124320000D03*
X157000000Y-121780000D03*
X157000000Y-119240000D03*
X157000000Y-116700000D03*
X157000000Y-114160000D03*
X157000000Y-111620000D03*
X157000000Y-109080000D03*
X157000000Y-106540000D03*
X157000000Y-104000000D03*
%TD*%
D19*
%TO.C,J5*%
X157000000Y-99860000D03*
D18*
X157000000Y-97320000D03*
X157000000Y-94780000D03*
X157000000Y-92240000D03*
X157000000Y-89700000D03*
X157000000Y-87160000D03*
X157000000Y-84620000D03*
X157000000Y-82080000D03*
X157000000Y-79540000D03*
X157000000Y-77000000D03*
%TD*%
D19*
%TO.C,J6*%
X90000000Y-65560000D03*
D18*
X90000000Y-68100000D03*
X90000000Y-70640000D03*
%TD*%
D19*
%TO.C,J7*%
X134000000Y-49000000D03*
D18*
X134000000Y-51540000D03*
%TD*%
%TO.C,J8*%
X142000000Y-51540000D03*
D19*
X142000000Y-49000000D03*
%TD*%
%TO.C,J9*%
X126500000Y-71400000D03*
D18*
X126500000Y-68860000D03*
X126500000Y-66320000D03*
X126500000Y-63780000D03*
X126500000Y-61240000D03*
X126500000Y-58700000D03*
%TD*%
D19*
%TO.C,J10*%
X150000000Y-49000000D03*
D18*
X150000000Y-51540000D03*
%TD*%
D19*
%TO.C,J11*%
X158000000Y-49000000D03*
D18*
X158000000Y-51540000D03*
%TD*%
M02*
