M48
; DRILL file {KiCad 5.1.6-c6e7f7d~87~ubuntu18.04.1} date Wed Aug 12 00:38:18 2020
; FORMAT={-:-/ absolute / metric / decimal}
; #@! TF.CreationDate,2020-08-12T00:38:18-03:00
; #@! TF.GenerationSoftware,Kicad,Pcbnew,5.1.6-c6e7f7d~87~ubuntu18.04.1
; #@! TF.FileFunction,Plated,1,2,PTH
FMAT,2
METRIC
T1C0.400
T2C0.500
T3C1.000
T4C3.200
%
G90
G05
T1
X87.5Y-75.0
X87.5Y-80.0
X87.5Y-100.0
X89.0Y-83.0
X89.0Y-85.0
X89.0Y-87.0
X91.0Y-83.0
X91.0Y-85.0
X91.0Y-87.0
X91.75Y-55.0
X91.75Y-57.5
X91.75Y-60.0
X91.75Y-62.5
X92.5Y-102.5
X94.75Y-96.0
X95.0Y-52.5
X96.0Y-88.0
X96.0Y-89.0
X97.1Y-97.8
X97.5Y-52.5
X97.5Y-62.5
X97.5Y-72.5
X97.5Y-77.5
X97.5Y-105.0
X98.5Y-67.5
X99.0Y-82.0
X99.0Y-84.0
X99.0Y-86.0
X100.0Y-52.5
X100.0Y-62.5
X100.0Y-102.5
X100.75Y-92.75
X102.0Y-97.9
X102.0Y-100.0
X102.5Y-47.5
X103.75Y-72.5
X103.75Y-80.0
X103.75Y-86.25
X105.0Y-49.0
X105.0Y-57.5
X105.0Y-65.0
X105.0Y-102.5
X105.0Y-112.5
X106.0Y-72.5
X106.0Y-80.0
X106.0Y-86.25
X106.0Y-93.5
X106.25Y-51.25
X107.5Y-91.75
X109.5Y-53.25
X110.0Y-47.5
X110.0Y-93.75
X110.0Y-96.0
X110.0Y-100.0
X110.0Y-105.0
X110.0Y-122.5
X111.0Y-50.75
X111.0Y-114.0
X111.5Y-82.0
X112.0Y-79.75
X113.0Y-93.75
X114.0Y-87.25
X114.0Y-114.0
X114.25Y-82.75
X114.8Y-101.1
X115.0Y-57.5
X115.0Y-60.0
X115.0Y-66.75
X115.0Y-69.5
X115.0Y-72.0
X115.0Y-74.5
X115.0Y-77.25
X115.0Y-98.75
X115.0Y-106.0
X115.3Y-112.5
X115.5Y-81.75
X115.6Y-91.8
X116.5Y-62.5
X117.75Y-57.25
X117.825Y-49.35
X117.87Y-73.22
X118.2Y-81.6
X118.4Y-94.0
X118.625Y-62.3
X118.8Y-114.5
X119.0Y-121.0
X119.3Y-109.4
X120.0Y-65.0
X120.0Y-127.5
X120.25Y-57.25
X120.45Y-81.6
X120.7Y-100.05
X120.73Y-82.77
X121.5Y-53.0
X122.0Y-78.3
X122.25Y-65.0
X122.5Y-47.5
X122.5Y-72.5
X123.0Y-57.25
X123.0Y-100.0
X123.0Y-102.1
X123.1Y-89.65
X123.25Y-77.0
X123.75Y-92.75
X124.0Y-83.25
X124.25Y-65.0
X124.9Y-105.0
X124.9Y-112.0
X125.0Y-52.5
X125.0Y-88.25
X125.3Y-83.3
X125.4Y-84.6
X125.8Y-101.2
X126.0Y-91.0
X126.2Y-103.5
X126.25Y-127.5
X126.6Y-94.0
X126.6Y-95.1
X126.75Y-81.5
X127.5Y-55.0
X127.6Y-92.65
X127.7Y-105.0
X127.8Y-101.9
X127.9Y-112.0
X128.25Y-77.0
X128.25Y-86.0
X128.25Y-88.7
X130.0Y-47.5
X130.5Y-86.0
X130.5Y-88.75
X132.5Y-86.0
X132.5Y-88.75
X132.5Y-127.5
X133.0Y-123.0
X134.1Y-78.3
X134.1Y-89.2
X134.5Y-86.5
X134.75Y-92.5
X135.55Y-85.8
X135.66Y-80.1
X135.66Y-81.69
X135.7Y-98.9
X135.7Y-100.8
X135.7Y-125.9
X135.9Y-102.9
X137.3Y-97.3
X137.3Y-98.9
X137.3Y-124.35
X137.3Y-125.9
X138.0Y-47.5
X138.0Y-52.5
X142.0Y-94.7
X142.21Y-84.76
X142.4Y-83.3
X142.5Y-80.25
X143.5Y-94.8
X143.9Y-85.9
X144.0Y-81.5
X144.0Y-99.0
X144.0Y-100.7
X144.0Y-104.0
X144.0Y-107.0
X144.0Y-109.9
X144.0Y-113.0
X144.0Y-116.0
X144.0Y-119.0
X144.0Y-122.0
X144.25Y-76.0
X144.9Y-93.5
X145.0Y-127.0
X145.75Y-86.0
X145.75Y-88.75
X146.0Y-47.5
X146.0Y-52.5
X146.25Y-76.0
X147.0Y-122.0
X147.5Y-86.0
X147.5Y-88.75
X148.0Y-127.0
X149.25Y-86.0
X149.25Y-88.75
X151.0Y-127.0
X151.1Y-81.7
X151.7Y-86.0
X152.0Y-75.0
X152.2Y-95.6
X152.2Y-100.7
X152.7Y-80.1
X152.7Y-81.7
X152.7Y-98.9
X152.7Y-125.9
X154.0Y-47.5
X154.0Y-52.5
X154.0Y-75.0
X154.0Y-102.0
X154.3Y-97.3
X154.3Y-98.9
X154.3Y-125.9
X154.35Y-124.35
X160.0Y-76.0
X160.0Y-79.0
X160.0Y-82.0
X160.0Y-85.0
X160.0Y-88.0
X160.0Y-91.0
X160.0Y-94.0
X160.0Y-97.0
X160.0Y-100.0
X160.0Y-103.0
X160.0Y-106.0
X160.0Y-109.0
X160.0Y-112.0
X160.0Y-115.0
X160.0Y-118.0
X160.0Y-121.0
X160.0Y-124.0
X160.0Y-127.0
T2
X87.6Y-125.0
X88.303Y-123.303
X88.303Y-126.697
X90.0Y-122.6
X90.0Y-127.4
X91.697Y-123.303
X91.697Y-126.697
X92.4Y-125.0
X162.6Y-50.0
X163.303Y-48.303
X163.303Y-51.697
X165.0Y-47.6
X165.0Y-52.4
X166.697Y-48.303
X166.697Y-51.697
X167.4Y-50.0
X87.6Y-50.0
X88.303Y-48.303
X88.303Y-51.697
X90.0Y-47.6
X90.0Y-52.4
X91.697Y-48.303
X91.697Y-51.697
X92.4Y-50.0
X162.6Y-125.0
X163.303Y-123.303
X163.303Y-126.697
X165.0Y-122.6
X165.0Y-127.4
X166.697Y-123.303
X166.697Y-126.697
X167.4Y-125.0
T3
X157.0Y-77.0
X157.0Y-79.54
X157.0Y-82.08
X157.0Y-84.62
X157.0Y-87.16
X157.0Y-89.7
X157.0Y-92.24
X157.0Y-94.78
X157.0Y-97.32
X157.0Y-99.86
X126.5Y-58.7
X126.5Y-61.24
X126.5Y-63.78
X126.5Y-66.32
X126.5Y-68.86
X126.5Y-71.4
X114.0Y-55.5
X121.6Y-55.5
X140.0Y-104.0
X140.0Y-106.54
X140.0Y-109.08
X140.0Y-111.62
X140.0Y-114.16
X140.0Y-116.7
X140.0Y-119.24
X140.0Y-121.78
X140.0Y-124.32
X140.0Y-126.86
X140.0Y-77.0
X140.0Y-79.54
X140.0Y-82.08
X140.0Y-84.62
X140.0Y-87.16
X140.0Y-89.7
X140.0Y-92.24
X140.0Y-94.78
X140.0Y-97.32
X140.0Y-99.86
X90.0Y-91.0
X90.0Y-93.54
X158.0Y-49.0
X158.0Y-51.54
X157.0Y-104.0
X157.0Y-106.54
X157.0Y-109.08
X157.0Y-111.62
X157.0Y-114.16
X157.0Y-116.7
X157.0Y-119.24
X157.0Y-121.78
X157.0Y-124.32
X157.0Y-126.86
X90.0Y-65.56
X90.0Y-68.1
X90.0Y-70.64
X94.0Y-55.44
X94.0Y-57.98
X94.0Y-60.52
X94.0Y-63.06
X94.0Y-65.6
X94.0Y-68.14
X94.0Y-70.68
X94.0Y-73.22
X94.0Y-75.76
X94.0Y-78.3
X94.0Y-80.84
X94.0Y-83.38
X94.0Y-85.92
X94.0Y-88.46
X94.0Y-91.0
X109.24Y-55.44
X109.24Y-57.98
X109.24Y-60.52
X109.24Y-63.06
X109.24Y-65.6
X109.24Y-68.14
X109.24Y-70.68
X109.24Y-73.22
X109.24Y-75.76
X109.24Y-78.3
X109.24Y-80.84
X109.24Y-83.38
X109.24Y-85.92
X109.24Y-88.46
X109.24Y-91.0
X150.0Y-49.0
X150.0Y-51.54
X134.0Y-49.0
X134.0Y-51.54
X142.0Y-49.0
X142.0Y-51.54
T4
X90.0Y-125.0
X165.0Y-50.0
X90.0Y-50.0
X165.0Y-125.0
T0
M30
