M48
; DRILL file {KiCad 5.1.6-c6e7f7d~86~ubuntu18.04.1} date Tue Jun 23 16:01:40 2020
; FORMAT={-:-/ absolute / metric / decimal}
; #@! TF.CreationDate,2020-06-23T16:01:40-03:00
; #@! TF.GenerationSoftware,Kicad,Pcbnew,5.1.6-c6e7f7d~86~ubuntu18.04.1
; #@! TF.FileFunction,Plated,1,2,PTH
FMAT,2
METRIC
T1C0.400
T2C0.762
T3C0.900
T4C1.000
%
G90
G05
T1
X107.27Y-59.0
X107.27Y-74.0
X107.27Y-89.0
X107.27Y-104.0
X107.27Y-119.0
X107.27Y-134.0
X108.27Y-59.0
X108.27Y-74.0
X108.27Y-89.0
X108.27Y-104.0
X108.27Y-119.0
X108.27Y-134.0
X109.27Y-59.0
X109.27Y-74.0
X109.27Y-89.0
X109.27Y-104.0
X109.27Y-119.0
X109.27Y-134.0
X111.17Y-63.4
X111.17Y-78.4
X111.17Y-93.4
X111.17Y-108.4
X111.17Y-123.4
X111.17Y-138.4
X117.77Y-63.8
X117.77Y-64.8
X117.77Y-65.8
X117.77Y-78.8
X117.77Y-79.8
X117.77Y-80.8
X117.77Y-93.8
X117.77Y-94.8
X117.77Y-95.8
X117.77Y-108.8
X117.77Y-109.8
X117.77Y-110.8
X117.77Y-123.8
X117.77Y-124.8
X117.77Y-125.8
X117.77Y-138.8
X117.77Y-139.8
X117.77Y-140.8
X119.27Y-68.5
X119.27Y-83.5
X119.27Y-98.5
X119.27Y-113.5
X119.27Y-128.5
X119.27Y-143.5
X120.27Y-68.5
X120.27Y-83.5
X120.27Y-98.5
X120.27Y-113.5
X120.27Y-128.5
X120.27Y-143.5
X121.17Y-60.6
X121.17Y-75.6
X121.17Y-90.6
X121.17Y-105.6
X121.17Y-120.6
X121.17Y-135.6
X121.27Y-68.5
X121.27Y-83.5
X121.27Y-98.5
X121.27Y-113.5
X121.27Y-128.5
X121.27Y-143.5
X123.27Y-63.1
X123.27Y-65.7
X123.27Y-78.1
X123.27Y-80.7
X123.27Y-93.1
X123.27Y-95.7
X123.27Y-108.1
X123.27Y-110.7
X123.27Y-123.1
X123.27Y-125.7
X123.27Y-138.1
X123.27Y-140.7
X146.27Y-59.0
X146.27Y-70.0
X146.27Y-74.0
X146.27Y-85.0
X146.27Y-89.0
X146.27Y-100.0
X146.27Y-104.0
X146.27Y-115.0
X146.27Y-119.0
X146.27Y-130.0
X146.27Y-134.0
X146.27Y-145.0
X147.27Y-59.0
X147.27Y-70.0
X147.27Y-74.0
X147.27Y-85.0
X147.27Y-89.0
X147.27Y-100.0
X147.27Y-104.0
X147.27Y-115.0
X147.27Y-119.0
X147.27Y-130.0
X147.27Y-134.0
X147.27Y-145.0
X148.27Y-59.0
X148.27Y-70.0
X148.27Y-74.0
X148.27Y-85.0
X148.27Y-89.0
X148.27Y-100.0
X148.27Y-104.0
X148.27Y-115.0
X148.27Y-119.0
X148.27Y-130.0
X148.27Y-134.0
X148.27Y-145.0
X171.267Y-59.0
X171.267Y-74.0
X171.267Y-89.0
X172.267Y-59.0
X172.267Y-74.0
X172.267Y-89.0
X173.267Y-59.0
X173.267Y-74.0
X173.267Y-89.0
X175.167Y-63.4
X175.167Y-78.4
X175.167Y-93.4
X178.267Y-104.0
X178.267Y-115.0
X178.267Y-119.0
X178.267Y-130.0
X178.267Y-134.0
X178.267Y-145.0
X179.267Y-104.0
X179.267Y-115.0
X179.267Y-119.0
X179.267Y-130.0
X179.267Y-134.0
X179.267Y-145.0
X180.267Y-104.0
X180.267Y-115.0
X180.267Y-119.0
X180.267Y-130.0
X180.267Y-134.0
X180.267Y-145.0
X181.767Y-63.8
X181.767Y-64.8
X181.767Y-65.8
X181.767Y-78.8
X181.767Y-79.8
X181.767Y-80.8
X181.767Y-93.8
X181.767Y-94.8
X181.767Y-95.8
X183.267Y-68.5
X183.267Y-83.5
X183.267Y-98.5
X184.267Y-68.5
X184.267Y-83.5
X184.267Y-98.5
X185.167Y-60.6
X185.167Y-75.6
X185.167Y-90.6
X185.267Y-68.5
X185.267Y-83.5
X185.267Y-98.5
X187.267Y-63.1
X187.267Y-65.7
X187.267Y-78.1
X187.267Y-80.7
X187.267Y-93.1
X187.267Y-95.7
T2
X186.4Y-61.86
X186.4Y-64.4
X186.4Y-66.94
X186.4Y-91.86
X186.4Y-94.4
X186.4Y-96.94
X122.403Y-136.86
X122.403Y-139.4
X122.403Y-141.94
X186.4Y-76.86
X186.4Y-79.4
X186.4Y-81.94
X122.403Y-61.86
X122.403Y-64.4
X122.403Y-66.94
X122.403Y-91.86
X122.403Y-94.4
X122.403Y-96.94
X122.403Y-121.86
X122.403Y-124.4
X122.403Y-126.94
X122.403Y-106.86
X122.403Y-109.4
X122.403Y-111.94
X122.403Y-76.86
X122.403Y-79.4
X122.403Y-81.94
T3
X145.33Y-94.4
X147.87Y-94.4
X145.33Y-139.4
X147.87Y-139.4
X177.327Y-109.4
X179.867Y-109.4
X177.327Y-124.4
X179.867Y-124.4
X145.33Y-124.4
X147.87Y-124.4
X145.33Y-109.4
X147.87Y-109.4
X177.327Y-139.4
X179.867Y-139.4
X145.33Y-79.4
X147.87Y-79.4
X145.33Y-64.4
X147.87Y-64.4
T4
X152.97Y-109.4
X172.867Y-76.86
X172.867Y-79.4
X172.867Y-81.94
X113.33Y-74.4
X115.87Y-74.4
X113.33Y-89.4
X115.87Y-89.4
X151.67Y-129.5
X177.327Y-74.4
X179.867Y-74.4
X113.33Y-119.4
X115.87Y-119.4
X177.327Y-59.4
X179.867Y-59.4
X177.327Y-99.4
X179.867Y-99.4
X151.67Y-84.5
X113.33Y-134.4
X115.87Y-134.4
X183.667Y-114.5
X173.567Y-119.4
X113.33Y-114.4
X115.87Y-114.4
X141.57Y-119.4
X152.97Y-64.4
X151.67Y-69.5
X113.33Y-59.4
X115.87Y-59.4
X108.87Y-106.86
X108.87Y-109.4
X108.87Y-111.94
X108.87Y-121.86
X108.87Y-124.4
X108.87Y-126.94
X108.87Y-61.86
X108.87Y-64.4
X108.87Y-66.94
X173.567Y-104.4
X152.97Y-79.4
X113.33Y-69.4
X115.87Y-69.4
X183.667Y-144.5
X177.327Y-84.4
X179.867Y-84.4
X184.967Y-124.4
X177.327Y-69.4
X179.867Y-69.4
X141.57Y-134.4
X113.33Y-129.4
X115.87Y-129.4
X151.67Y-114.5
X108.87Y-91.86
X108.87Y-94.4
X108.87Y-96.94
X113.33Y-84.4
X115.87Y-84.4
X184.967Y-109.4
X152.97Y-124.4
X152.97Y-139.4
X151.67Y-99.5
X141.57Y-104.4
X141.57Y-59.4
X177.327Y-89.4
X179.867Y-89.4
X113.33Y-104.4
X115.87Y-104.4
X108.87Y-76.86
X108.87Y-79.4
X108.87Y-81.94
X141.57Y-74.4
X152.97Y-94.4
X172.867Y-91.86
X172.867Y-94.4
X172.867Y-96.94
X113.33Y-99.4
X115.87Y-99.4
X151.67Y-144.5
X173.567Y-134.4
X108.87Y-136.86
X108.87Y-139.4
X108.87Y-141.94
X183.667Y-129.5
X141.57Y-89.4
X113.33Y-144.4
X115.87Y-144.4
X184.967Y-139.4
X172.867Y-61.86
X172.867Y-64.4
X172.867Y-66.94
T0
M30
