%TF.GenerationSoftware,KiCad,Pcbnew,5.1.6-c6e7f7d~86~ubuntu18.04.1*%
%TF.CreationDate,2020-06-23T16:20:56-03:00*%
%TF.ProjectId,irStrip,69725374-7269-4702-9e6b-696361645f70,Rev. 1*%
%TF.SameCoordinates,Original*%
%TF.FileFunction,Legend,Top*%
%TF.FilePolarity,Positive*%
%FSLAX46Y46*%
G04 Gerber Fmt 4.6, Leading zero omitted, Abs format (unit mm)*
G04 Created by KiCad (PCBNEW 5.1.6-c6e7f7d~86~ubuntu18.04.1) date 2020-06-23 16:20:56*
%MOMM*%
%LPD*%
G01*
G04 APERTURE LIST*
%ADD10C,0.150000*%
%ADD11C,0.120000*%
G04 APERTURE END LIST*
D10*
X185767300Y-145161904D02*
X185719680Y-145257142D01*
X185719680Y-145400000D01*
X185767300Y-145542857D01*
X185862538Y-145638095D01*
X185957776Y-145685714D01*
X186148252Y-145733333D01*
X186291109Y-145733333D01*
X186481585Y-145685714D01*
X186576823Y-145638095D01*
X186672061Y-145542857D01*
X186719680Y-145400000D01*
X186719680Y-145304761D01*
X186672061Y-145161904D01*
X186624442Y-145114285D01*
X186291109Y-145114285D01*
X186291109Y-145304761D01*
X186719680Y-144685714D02*
X185719680Y-144685714D01*
X186719680Y-144114285D01*
X185719680Y-144114285D01*
X186719680Y-143638095D02*
X185719680Y-143638095D01*
X185719680Y-143400000D01*
X185767300Y-143257142D01*
X185862538Y-143161904D01*
X185957776Y-143114285D01*
X186148252Y-143066666D01*
X186291109Y-143066666D01*
X186481585Y-143114285D01*
X186576823Y-143161904D01*
X186672061Y-143257142D01*
X186719680Y-143400000D01*
X186719680Y-143638095D01*
X194113600Y-139403600D02*
G75*
G03*
X194113600Y-139403600I-3000000J0D01*
G01*
X169101800Y-139402400D02*
G75*
G03*
X169101800Y-139402400I-3000000J0D01*
G01*
X183019680Y-141328571D02*
X182019680Y-141328571D01*
X183019680Y-140852380D02*
X182019680Y-140852380D01*
X183019680Y-140280952D01*
X182019680Y-140280952D01*
X183019680Y-139804761D02*
X182019680Y-139804761D01*
X182019680Y-139423809D01*
X182067300Y-139328571D01*
X182114919Y-139280952D01*
X182210157Y-139233333D01*
X182353014Y-139233333D01*
X182448252Y-139280952D01*
X182495871Y-139328571D01*
X182543490Y-139423809D01*
X182543490Y-139804761D01*
X182019680Y-138804761D02*
X182829204Y-138804761D01*
X182924442Y-138757142D01*
X182972061Y-138709523D01*
X183019680Y-138614285D01*
X183019680Y-138423809D01*
X182972061Y-138328571D01*
X182924442Y-138280952D01*
X182829204Y-138233333D01*
X182019680Y-138233333D01*
X182019680Y-137900000D02*
X182019680Y-137328571D01*
X183019680Y-137614285D02*
X182019680Y-137614285D01*
X175567300Y-135161904D02*
X175519680Y-135257142D01*
X175519680Y-135400000D01*
X175567300Y-135542857D01*
X175662538Y-135638095D01*
X175757776Y-135685714D01*
X175948252Y-135733333D01*
X176091109Y-135733333D01*
X176281585Y-135685714D01*
X176376823Y-135638095D01*
X176472061Y-135542857D01*
X176519680Y-135400000D01*
X176519680Y-135304761D01*
X176472061Y-135161904D01*
X176424442Y-135114285D01*
X176091109Y-135114285D01*
X176091109Y-135304761D01*
X176519680Y-134685714D02*
X175519680Y-134685714D01*
X176519680Y-134114285D01*
X175519680Y-134114285D01*
X176519680Y-133638095D02*
X175519680Y-133638095D01*
X175519680Y-133400000D01*
X175567300Y-133257142D01*
X175662538Y-133161904D01*
X175757776Y-133114285D01*
X175948252Y-133066666D01*
X176091109Y-133066666D01*
X176281585Y-133114285D01*
X176376823Y-133161904D01*
X176472061Y-133257142D01*
X176519680Y-133400000D01*
X176519680Y-133638095D01*
X185767300Y-130161904D02*
X185719680Y-130257142D01*
X185719680Y-130400000D01*
X185767300Y-130542857D01*
X185862538Y-130638095D01*
X185957776Y-130685714D01*
X186148252Y-130733333D01*
X186291109Y-130733333D01*
X186481585Y-130685714D01*
X186576823Y-130638095D01*
X186672061Y-130542857D01*
X186719680Y-130400000D01*
X186719680Y-130304761D01*
X186672061Y-130161904D01*
X186624442Y-130114285D01*
X186291109Y-130114285D01*
X186291109Y-130304761D01*
X186719680Y-129685714D02*
X185719680Y-129685714D01*
X186719680Y-129114285D01*
X185719680Y-129114285D01*
X186719680Y-128638095D02*
X185719680Y-128638095D01*
X185719680Y-128400000D01*
X185767300Y-128257142D01*
X185862538Y-128161904D01*
X185957776Y-128114285D01*
X186148252Y-128066666D01*
X186291109Y-128066666D01*
X186481585Y-128114285D01*
X186576823Y-128161904D01*
X186672061Y-128257142D01*
X186719680Y-128400000D01*
X186719680Y-128638095D01*
X194113600Y-124403600D02*
G75*
G03*
X194113600Y-124403600I-3000000J0D01*
G01*
X169101800Y-124402400D02*
G75*
G03*
X169101800Y-124402400I-3000000J0D01*
G01*
X183019680Y-126328571D02*
X182019680Y-126328571D01*
X183019680Y-125852380D02*
X182019680Y-125852380D01*
X183019680Y-125280952D01*
X182019680Y-125280952D01*
X183019680Y-124804761D02*
X182019680Y-124804761D01*
X182019680Y-124423809D01*
X182067300Y-124328571D01*
X182114919Y-124280952D01*
X182210157Y-124233333D01*
X182353014Y-124233333D01*
X182448252Y-124280952D01*
X182495871Y-124328571D01*
X182543490Y-124423809D01*
X182543490Y-124804761D01*
X182019680Y-123804761D02*
X182829204Y-123804761D01*
X182924442Y-123757142D01*
X182972061Y-123709523D01*
X183019680Y-123614285D01*
X183019680Y-123423809D01*
X182972061Y-123328571D01*
X182924442Y-123280952D01*
X182829204Y-123233333D01*
X182019680Y-123233333D01*
X182019680Y-122900000D02*
X182019680Y-122328571D01*
X183019680Y-122614285D02*
X182019680Y-122614285D01*
X175567300Y-120161904D02*
X175519680Y-120257142D01*
X175519680Y-120400000D01*
X175567300Y-120542857D01*
X175662538Y-120638095D01*
X175757776Y-120685714D01*
X175948252Y-120733333D01*
X176091109Y-120733333D01*
X176281585Y-120685714D01*
X176376823Y-120638095D01*
X176472061Y-120542857D01*
X176519680Y-120400000D01*
X176519680Y-120304761D01*
X176472061Y-120161904D01*
X176424442Y-120114285D01*
X176091109Y-120114285D01*
X176091109Y-120304761D01*
X176519680Y-119685714D02*
X175519680Y-119685714D01*
X176519680Y-119114285D01*
X175519680Y-119114285D01*
X176519680Y-118638095D02*
X175519680Y-118638095D01*
X175519680Y-118400000D01*
X175567300Y-118257142D01*
X175662538Y-118161904D01*
X175757776Y-118114285D01*
X175948252Y-118066666D01*
X176091109Y-118066666D01*
X176281585Y-118114285D01*
X176376823Y-118161904D01*
X176472061Y-118257142D01*
X176519680Y-118400000D01*
X176519680Y-118638095D01*
X185767300Y-115161904D02*
X185719680Y-115257142D01*
X185719680Y-115400000D01*
X185767300Y-115542857D01*
X185862538Y-115638095D01*
X185957776Y-115685714D01*
X186148252Y-115733333D01*
X186291109Y-115733333D01*
X186481585Y-115685714D01*
X186576823Y-115638095D01*
X186672061Y-115542857D01*
X186719680Y-115400000D01*
X186719680Y-115304761D01*
X186672061Y-115161904D01*
X186624442Y-115114285D01*
X186291109Y-115114285D01*
X186291109Y-115304761D01*
X186719680Y-114685714D02*
X185719680Y-114685714D01*
X186719680Y-114114285D01*
X185719680Y-114114285D01*
X186719680Y-113638095D02*
X185719680Y-113638095D01*
X185719680Y-113400000D01*
X185767300Y-113257142D01*
X185862538Y-113161904D01*
X185957776Y-113114285D01*
X186148252Y-113066666D01*
X186291109Y-113066666D01*
X186481585Y-113114285D01*
X186576823Y-113161904D01*
X186672061Y-113257142D01*
X186719680Y-113400000D01*
X186719680Y-113638095D01*
X194113600Y-109403600D02*
G75*
G03*
X194113600Y-109403600I-3000000J0D01*
G01*
X169101800Y-109402400D02*
G75*
G03*
X169101800Y-109402400I-3000000J0D01*
G01*
X183019680Y-111328571D02*
X182019680Y-111328571D01*
X183019680Y-110852380D02*
X182019680Y-110852380D01*
X183019680Y-110280952D01*
X182019680Y-110280952D01*
X183019680Y-109804761D02*
X182019680Y-109804761D01*
X182019680Y-109423809D01*
X182067300Y-109328571D01*
X182114919Y-109280952D01*
X182210157Y-109233333D01*
X182353014Y-109233333D01*
X182448252Y-109280952D01*
X182495871Y-109328571D01*
X182543490Y-109423809D01*
X182543490Y-109804761D01*
X182019680Y-108804761D02*
X182829204Y-108804761D01*
X182924442Y-108757142D01*
X182972061Y-108709523D01*
X183019680Y-108614285D01*
X183019680Y-108423809D01*
X182972061Y-108328571D01*
X182924442Y-108280952D01*
X182829204Y-108233333D01*
X182019680Y-108233333D01*
X182019680Y-107900000D02*
X182019680Y-107328571D01*
X183019680Y-107614285D02*
X182019680Y-107614285D01*
X175567300Y-105161904D02*
X175519680Y-105257142D01*
X175519680Y-105400000D01*
X175567300Y-105542857D01*
X175662538Y-105638095D01*
X175757776Y-105685714D01*
X175948252Y-105733333D01*
X176091109Y-105733333D01*
X176281585Y-105685714D01*
X176376823Y-105638095D01*
X176472061Y-105542857D01*
X176519680Y-105400000D01*
X176519680Y-105304761D01*
X176472061Y-105161904D01*
X176424442Y-105114285D01*
X176091109Y-105114285D01*
X176091109Y-105304761D01*
X176519680Y-104685714D02*
X175519680Y-104685714D01*
X176519680Y-104114285D01*
X175519680Y-104114285D01*
X176519680Y-103638095D02*
X175519680Y-103638095D01*
X175519680Y-103400000D01*
X175567300Y-103257142D01*
X175662538Y-103161904D01*
X175757776Y-103114285D01*
X175948252Y-103066666D01*
X176091109Y-103066666D01*
X176281585Y-103114285D01*
X176376823Y-103161904D01*
X176472061Y-103257142D01*
X176519680Y-103400000D01*
X176519680Y-103638095D01*
X181819680Y-100633333D02*
X182819680Y-100300000D01*
X181819680Y-99966666D01*
X182819680Y-99633333D02*
X181819680Y-99633333D01*
X181819680Y-99395238D01*
X181867300Y-99252380D01*
X181962538Y-99157142D01*
X182057776Y-99109523D01*
X182248252Y-99061904D01*
X182391109Y-99061904D01*
X182581585Y-99109523D01*
X182676823Y-99157142D01*
X182772061Y-99252380D01*
X182819680Y-99395238D01*
X182819680Y-99633333D01*
X182819680Y-98633333D02*
X181819680Y-98633333D01*
X181819680Y-98395238D01*
X181867300Y-98252380D01*
X181962538Y-98157142D01*
X182057776Y-98109523D01*
X182248252Y-98061904D01*
X182391109Y-98061904D01*
X182581585Y-98109523D01*
X182676823Y-98157142D01*
X182772061Y-98252380D01*
X182819680Y-98395238D01*
X182819680Y-98633333D01*
X170572061Y-95914285D02*
X170619680Y-95771428D01*
X170619680Y-95533333D01*
X170572061Y-95438095D01*
X170524442Y-95390476D01*
X170429204Y-95342857D01*
X170333966Y-95342857D01*
X170238728Y-95390476D01*
X170191109Y-95438095D01*
X170143490Y-95533333D01*
X170095871Y-95723809D01*
X170048252Y-95819047D01*
X170000633Y-95866666D01*
X169905395Y-95914285D01*
X169810157Y-95914285D01*
X169714919Y-95866666D01*
X169667300Y-95819047D01*
X169619680Y-95723809D01*
X169619680Y-95485714D01*
X169667300Y-95342857D01*
X170619680Y-94914285D02*
X169619680Y-94914285D01*
X169619680Y-94676190D01*
X169667300Y-94533333D01*
X169762538Y-94438095D01*
X169857776Y-94390476D01*
X170048252Y-94342857D01*
X170191109Y-94342857D01*
X170381585Y-94390476D01*
X170476823Y-94438095D01*
X170572061Y-94533333D01*
X170619680Y-94676190D01*
X170619680Y-94914285D01*
X170333966Y-93961904D02*
X170333966Y-93485714D01*
X170619680Y-94057142D02*
X169619680Y-93723809D01*
X170619680Y-93390476D01*
X181819680Y-90733333D02*
X182819680Y-90400000D01*
X181819680Y-90066666D01*
X182819680Y-89733333D02*
X181819680Y-89733333D01*
X181819680Y-89495238D01*
X181867300Y-89352380D01*
X181962538Y-89257142D01*
X182057776Y-89209523D01*
X182248252Y-89161904D01*
X182391109Y-89161904D01*
X182581585Y-89209523D01*
X182676823Y-89257142D01*
X182772061Y-89352380D01*
X182819680Y-89495238D01*
X182819680Y-89733333D01*
X182819680Y-88733333D02*
X181819680Y-88733333D01*
X181819680Y-88495238D01*
X181867300Y-88352380D01*
X181962538Y-88257142D01*
X182057776Y-88209523D01*
X182248252Y-88161904D01*
X182391109Y-88161904D01*
X182581585Y-88209523D01*
X182676823Y-88257142D01*
X182772061Y-88352380D01*
X182819680Y-88495238D01*
X182819680Y-88733333D01*
X174367300Y-89961904D02*
X174319680Y-90057142D01*
X174319680Y-90200000D01*
X174367300Y-90342857D01*
X174462538Y-90438095D01*
X174557776Y-90485714D01*
X174748252Y-90533333D01*
X174891109Y-90533333D01*
X175081585Y-90485714D01*
X175176823Y-90438095D01*
X175272061Y-90342857D01*
X175319680Y-90200000D01*
X175319680Y-90104761D01*
X175272061Y-89961904D01*
X175224442Y-89914285D01*
X174891109Y-89914285D01*
X174891109Y-90104761D01*
X175319680Y-89485714D02*
X174319680Y-89485714D01*
X175319680Y-88914285D01*
X174319680Y-88914285D01*
X175319680Y-88438095D02*
X174319680Y-88438095D01*
X174319680Y-88200000D01*
X174367300Y-88057142D01*
X174462538Y-87961904D01*
X174557776Y-87914285D01*
X174748252Y-87866666D01*
X174891109Y-87866666D01*
X175081585Y-87914285D01*
X175176823Y-87961904D01*
X175272061Y-88057142D01*
X175319680Y-88200000D01*
X175319680Y-88438095D01*
X170472061Y-92690476D02*
X170519680Y-92547619D01*
X170519680Y-92309523D01*
X170472061Y-92214285D01*
X170424442Y-92166666D01*
X170329204Y-92119047D01*
X170233966Y-92119047D01*
X170138728Y-92166666D01*
X170091109Y-92214285D01*
X170043490Y-92309523D01*
X169995871Y-92500000D01*
X169948252Y-92595238D01*
X169900633Y-92642857D01*
X169805395Y-92690476D01*
X169710157Y-92690476D01*
X169614919Y-92642857D01*
X169567300Y-92595238D01*
X169519680Y-92500000D01*
X169519680Y-92261904D01*
X169567300Y-92119047D01*
X170424442Y-91119047D02*
X170472061Y-91166666D01*
X170519680Y-91309523D01*
X170519680Y-91404761D01*
X170472061Y-91547619D01*
X170376823Y-91642857D01*
X170281585Y-91690476D01*
X170091109Y-91738095D01*
X169948252Y-91738095D01*
X169757776Y-91690476D01*
X169662538Y-91642857D01*
X169567300Y-91547619D01*
X169519680Y-91404761D01*
X169519680Y-91309523D01*
X169567300Y-91166666D01*
X169614919Y-91119047D01*
X170519680Y-90214285D02*
X170519680Y-90690476D01*
X169519680Y-90690476D01*
X194095500Y-94397600D02*
G75*
G03*
X194095500Y-94397600I-3000000J0D01*
G01*
X169083700Y-94396400D02*
G75*
G03*
X169083700Y-94396400I-3000000J0D01*
G01*
X174367300Y-100161904D02*
X174319680Y-100257142D01*
X174319680Y-100400000D01*
X174367300Y-100542857D01*
X174462538Y-100638095D01*
X174557776Y-100685714D01*
X174748252Y-100733333D01*
X174891109Y-100733333D01*
X175081585Y-100685714D01*
X175176823Y-100638095D01*
X175272061Y-100542857D01*
X175319680Y-100400000D01*
X175319680Y-100304761D01*
X175272061Y-100161904D01*
X175224442Y-100114285D01*
X174891109Y-100114285D01*
X174891109Y-100304761D01*
X175319680Y-99685714D02*
X174319680Y-99685714D01*
X175319680Y-99114285D01*
X174319680Y-99114285D01*
X175319680Y-98638095D02*
X174319680Y-98638095D01*
X174319680Y-98400000D01*
X174367300Y-98257142D01*
X174462538Y-98161904D01*
X174557776Y-98114285D01*
X174748252Y-98066666D01*
X174891109Y-98066666D01*
X175081585Y-98114285D01*
X175176823Y-98161904D01*
X175272061Y-98257142D01*
X175319680Y-98400000D01*
X175319680Y-98638095D01*
X172957097Y-100574095D02*
X172620379Y-100237377D01*
X173226471Y-100439408D02*
X172283662Y-100910812D01*
X172755066Y-99968003D01*
X172519364Y-99732301D02*
X171812257Y-100439408D01*
X172115303Y-99328240D01*
X171408196Y-100035347D01*
X171610227Y-99227225D02*
X171273509Y-98890507D01*
X171879601Y-99092538D02*
X170936792Y-99563942D01*
X171408196Y-98621133D01*
X170835777Y-98048713D02*
X171172494Y-98385431D01*
X170465387Y-99092538D01*
X169758281Y-98385431D02*
X169623594Y-98250744D01*
X169589922Y-98149729D01*
X169589922Y-98015042D01*
X169690937Y-97846683D01*
X169926639Y-97610981D01*
X170094998Y-97509965D01*
X170229685Y-97509965D01*
X170330700Y-97543637D01*
X170465387Y-97678324D01*
X170499059Y-97779339D01*
X170499059Y-97914026D01*
X170398044Y-98082385D01*
X170162342Y-98318087D01*
X169993983Y-98419103D01*
X169859296Y-98419103D01*
X169758281Y-98385431D01*
X168815472Y-97375278D02*
X168849143Y-97476294D01*
X168950159Y-97577309D01*
X169084846Y-97644652D01*
X169219533Y-97644652D01*
X169320548Y-97610981D01*
X169488907Y-97509965D01*
X169589922Y-97408950D01*
X169690937Y-97240591D01*
X169724609Y-97139576D01*
X169724609Y-97004889D01*
X169657265Y-96870202D01*
X169589922Y-96802859D01*
X169455235Y-96735515D01*
X169387891Y-96735515D01*
X169152189Y-96971217D01*
X169286876Y-97105904D01*
X181819680Y-85633333D02*
X182819680Y-85300000D01*
X181819680Y-84966666D01*
X182819680Y-84633333D02*
X181819680Y-84633333D01*
X181819680Y-84395238D01*
X181867300Y-84252380D01*
X181962538Y-84157142D01*
X182057776Y-84109523D01*
X182248252Y-84061904D01*
X182391109Y-84061904D01*
X182581585Y-84109523D01*
X182676823Y-84157142D01*
X182772061Y-84252380D01*
X182819680Y-84395238D01*
X182819680Y-84633333D01*
X182819680Y-83633333D02*
X181819680Y-83633333D01*
X181819680Y-83395238D01*
X181867300Y-83252380D01*
X181962538Y-83157142D01*
X182057776Y-83109523D01*
X182248252Y-83061904D01*
X182391109Y-83061904D01*
X182581585Y-83109523D01*
X182676823Y-83157142D01*
X182772061Y-83252380D01*
X182819680Y-83395238D01*
X182819680Y-83633333D01*
X170572061Y-80914285D02*
X170619680Y-80771428D01*
X170619680Y-80533333D01*
X170572061Y-80438095D01*
X170524442Y-80390476D01*
X170429204Y-80342857D01*
X170333966Y-80342857D01*
X170238728Y-80390476D01*
X170191109Y-80438095D01*
X170143490Y-80533333D01*
X170095871Y-80723809D01*
X170048252Y-80819047D01*
X170000633Y-80866666D01*
X169905395Y-80914285D01*
X169810157Y-80914285D01*
X169714919Y-80866666D01*
X169667300Y-80819047D01*
X169619680Y-80723809D01*
X169619680Y-80485714D01*
X169667300Y-80342857D01*
X170619680Y-79914285D02*
X169619680Y-79914285D01*
X169619680Y-79676190D01*
X169667300Y-79533333D01*
X169762538Y-79438095D01*
X169857776Y-79390476D01*
X170048252Y-79342857D01*
X170191109Y-79342857D01*
X170381585Y-79390476D01*
X170476823Y-79438095D01*
X170572061Y-79533333D01*
X170619680Y-79676190D01*
X170619680Y-79914285D01*
X170333966Y-78961904D02*
X170333966Y-78485714D01*
X170619680Y-79057142D02*
X169619680Y-78723809D01*
X170619680Y-78390476D01*
X181819680Y-75733333D02*
X182819680Y-75400000D01*
X181819680Y-75066666D01*
X182819680Y-74733333D02*
X181819680Y-74733333D01*
X181819680Y-74495238D01*
X181867300Y-74352380D01*
X181962538Y-74257142D01*
X182057776Y-74209523D01*
X182248252Y-74161904D01*
X182391109Y-74161904D01*
X182581585Y-74209523D01*
X182676823Y-74257142D01*
X182772061Y-74352380D01*
X182819680Y-74495238D01*
X182819680Y-74733333D01*
X182819680Y-73733333D02*
X181819680Y-73733333D01*
X181819680Y-73495238D01*
X181867300Y-73352380D01*
X181962538Y-73257142D01*
X182057776Y-73209523D01*
X182248252Y-73161904D01*
X182391109Y-73161904D01*
X182581585Y-73209523D01*
X182676823Y-73257142D01*
X182772061Y-73352380D01*
X182819680Y-73495238D01*
X182819680Y-73733333D01*
X174367300Y-74961904D02*
X174319680Y-75057142D01*
X174319680Y-75200000D01*
X174367300Y-75342857D01*
X174462538Y-75438095D01*
X174557776Y-75485714D01*
X174748252Y-75533333D01*
X174891109Y-75533333D01*
X175081585Y-75485714D01*
X175176823Y-75438095D01*
X175272061Y-75342857D01*
X175319680Y-75200000D01*
X175319680Y-75104761D01*
X175272061Y-74961904D01*
X175224442Y-74914285D01*
X174891109Y-74914285D01*
X174891109Y-75104761D01*
X175319680Y-74485714D02*
X174319680Y-74485714D01*
X175319680Y-73914285D01*
X174319680Y-73914285D01*
X175319680Y-73438095D02*
X174319680Y-73438095D01*
X174319680Y-73200000D01*
X174367300Y-73057142D01*
X174462538Y-72961904D01*
X174557776Y-72914285D01*
X174748252Y-72866666D01*
X174891109Y-72866666D01*
X175081585Y-72914285D01*
X175176823Y-72961904D01*
X175272061Y-73057142D01*
X175319680Y-73200000D01*
X175319680Y-73438095D01*
X170472061Y-77690476D02*
X170519680Y-77547619D01*
X170519680Y-77309523D01*
X170472061Y-77214285D01*
X170424442Y-77166666D01*
X170329204Y-77119047D01*
X170233966Y-77119047D01*
X170138728Y-77166666D01*
X170091109Y-77214285D01*
X170043490Y-77309523D01*
X169995871Y-77500000D01*
X169948252Y-77595238D01*
X169900633Y-77642857D01*
X169805395Y-77690476D01*
X169710157Y-77690476D01*
X169614919Y-77642857D01*
X169567300Y-77595238D01*
X169519680Y-77500000D01*
X169519680Y-77261904D01*
X169567300Y-77119047D01*
X170424442Y-76119047D02*
X170472061Y-76166666D01*
X170519680Y-76309523D01*
X170519680Y-76404761D01*
X170472061Y-76547619D01*
X170376823Y-76642857D01*
X170281585Y-76690476D01*
X170091109Y-76738095D01*
X169948252Y-76738095D01*
X169757776Y-76690476D01*
X169662538Y-76642857D01*
X169567300Y-76547619D01*
X169519680Y-76404761D01*
X169519680Y-76309523D01*
X169567300Y-76166666D01*
X169614919Y-76119047D01*
X170519680Y-75214285D02*
X170519680Y-75690476D01*
X169519680Y-75690476D01*
X194095500Y-79397600D02*
G75*
G03*
X194095500Y-79397600I-3000000J0D01*
G01*
X169083700Y-79396400D02*
G75*
G03*
X169083700Y-79396400I-3000000J0D01*
G01*
X174367300Y-85161904D02*
X174319680Y-85257142D01*
X174319680Y-85400000D01*
X174367300Y-85542857D01*
X174462538Y-85638095D01*
X174557776Y-85685714D01*
X174748252Y-85733333D01*
X174891109Y-85733333D01*
X175081585Y-85685714D01*
X175176823Y-85638095D01*
X175272061Y-85542857D01*
X175319680Y-85400000D01*
X175319680Y-85304761D01*
X175272061Y-85161904D01*
X175224442Y-85114285D01*
X174891109Y-85114285D01*
X174891109Y-85304761D01*
X175319680Y-84685714D02*
X174319680Y-84685714D01*
X175319680Y-84114285D01*
X174319680Y-84114285D01*
X175319680Y-83638095D02*
X174319680Y-83638095D01*
X174319680Y-83400000D01*
X174367300Y-83257142D01*
X174462538Y-83161904D01*
X174557776Y-83114285D01*
X174748252Y-83066666D01*
X174891109Y-83066666D01*
X175081585Y-83114285D01*
X175176823Y-83161904D01*
X175272061Y-83257142D01*
X175319680Y-83400000D01*
X175319680Y-83638095D01*
X172957097Y-85574095D02*
X172620379Y-85237377D01*
X173226471Y-85439408D02*
X172283662Y-85910812D01*
X172755066Y-84968003D01*
X172519364Y-84732301D02*
X171812257Y-85439408D01*
X172115303Y-84328240D01*
X171408196Y-85035347D01*
X171610227Y-84227225D02*
X171273509Y-83890507D01*
X171879601Y-84092538D02*
X170936792Y-84563942D01*
X171408196Y-83621133D01*
X170835777Y-83048713D02*
X171172494Y-83385431D01*
X170465387Y-84092538D01*
X169758281Y-83385431D02*
X169623594Y-83250744D01*
X169589922Y-83149729D01*
X169589922Y-83015042D01*
X169690937Y-82846683D01*
X169926639Y-82610981D01*
X170094998Y-82509965D01*
X170229685Y-82509965D01*
X170330700Y-82543637D01*
X170465387Y-82678324D01*
X170499059Y-82779339D01*
X170499059Y-82914026D01*
X170398044Y-83082385D01*
X170162342Y-83318087D01*
X169993983Y-83419103D01*
X169859296Y-83419103D01*
X169758281Y-83385431D01*
X168815472Y-82375278D02*
X168849143Y-82476294D01*
X168950159Y-82577309D01*
X169084846Y-82644652D01*
X169219533Y-82644652D01*
X169320548Y-82610981D01*
X169488907Y-82509965D01*
X169589922Y-82408950D01*
X169690937Y-82240591D01*
X169724609Y-82139576D01*
X169724609Y-82004889D01*
X169657265Y-81870202D01*
X169589922Y-81802859D01*
X169455235Y-81735515D01*
X169387891Y-81735515D01*
X169152189Y-81971217D01*
X169286876Y-82105904D01*
X181819680Y-70633333D02*
X182819680Y-70300000D01*
X181819680Y-69966666D01*
X182819680Y-69633333D02*
X181819680Y-69633333D01*
X181819680Y-69395238D01*
X181867300Y-69252380D01*
X181962538Y-69157142D01*
X182057776Y-69109523D01*
X182248252Y-69061904D01*
X182391109Y-69061904D01*
X182581585Y-69109523D01*
X182676823Y-69157142D01*
X182772061Y-69252380D01*
X182819680Y-69395238D01*
X182819680Y-69633333D01*
X182819680Y-68633333D02*
X181819680Y-68633333D01*
X181819680Y-68395238D01*
X181867300Y-68252380D01*
X181962538Y-68157142D01*
X182057776Y-68109523D01*
X182248252Y-68061904D01*
X182391109Y-68061904D01*
X182581585Y-68109523D01*
X182676823Y-68157142D01*
X182772061Y-68252380D01*
X182819680Y-68395238D01*
X182819680Y-68633333D01*
X170572061Y-65914285D02*
X170619680Y-65771428D01*
X170619680Y-65533333D01*
X170572061Y-65438095D01*
X170524442Y-65390476D01*
X170429204Y-65342857D01*
X170333966Y-65342857D01*
X170238728Y-65390476D01*
X170191109Y-65438095D01*
X170143490Y-65533333D01*
X170095871Y-65723809D01*
X170048252Y-65819047D01*
X170000633Y-65866666D01*
X169905395Y-65914285D01*
X169810157Y-65914285D01*
X169714919Y-65866666D01*
X169667300Y-65819047D01*
X169619680Y-65723809D01*
X169619680Y-65485714D01*
X169667300Y-65342857D01*
X170619680Y-64914285D02*
X169619680Y-64914285D01*
X169619680Y-64676190D01*
X169667300Y-64533333D01*
X169762538Y-64438095D01*
X169857776Y-64390476D01*
X170048252Y-64342857D01*
X170191109Y-64342857D01*
X170381585Y-64390476D01*
X170476823Y-64438095D01*
X170572061Y-64533333D01*
X170619680Y-64676190D01*
X170619680Y-64914285D01*
X170333966Y-63961904D02*
X170333966Y-63485714D01*
X170619680Y-64057142D02*
X169619680Y-63723809D01*
X170619680Y-63390476D01*
X181819680Y-60733333D02*
X182819680Y-60400000D01*
X181819680Y-60066666D01*
X182819680Y-59733333D02*
X181819680Y-59733333D01*
X181819680Y-59495238D01*
X181867300Y-59352380D01*
X181962538Y-59257142D01*
X182057776Y-59209523D01*
X182248252Y-59161904D01*
X182391109Y-59161904D01*
X182581585Y-59209523D01*
X182676823Y-59257142D01*
X182772061Y-59352380D01*
X182819680Y-59495238D01*
X182819680Y-59733333D01*
X182819680Y-58733333D02*
X181819680Y-58733333D01*
X181819680Y-58495238D01*
X181867300Y-58352380D01*
X181962538Y-58257142D01*
X182057776Y-58209523D01*
X182248252Y-58161904D01*
X182391109Y-58161904D01*
X182581585Y-58209523D01*
X182676823Y-58257142D01*
X182772061Y-58352380D01*
X182819680Y-58495238D01*
X182819680Y-58733333D01*
X174367300Y-59961904D02*
X174319680Y-60057142D01*
X174319680Y-60200000D01*
X174367300Y-60342857D01*
X174462538Y-60438095D01*
X174557776Y-60485714D01*
X174748252Y-60533333D01*
X174891109Y-60533333D01*
X175081585Y-60485714D01*
X175176823Y-60438095D01*
X175272061Y-60342857D01*
X175319680Y-60200000D01*
X175319680Y-60104761D01*
X175272061Y-59961904D01*
X175224442Y-59914285D01*
X174891109Y-59914285D01*
X174891109Y-60104761D01*
X175319680Y-59485714D02*
X174319680Y-59485714D01*
X175319680Y-58914285D01*
X174319680Y-58914285D01*
X175319680Y-58438095D02*
X174319680Y-58438095D01*
X174319680Y-58200000D01*
X174367300Y-58057142D01*
X174462538Y-57961904D01*
X174557776Y-57914285D01*
X174748252Y-57866666D01*
X174891109Y-57866666D01*
X175081585Y-57914285D01*
X175176823Y-57961904D01*
X175272061Y-58057142D01*
X175319680Y-58200000D01*
X175319680Y-58438095D01*
X170472061Y-62690476D02*
X170519680Y-62547619D01*
X170519680Y-62309523D01*
X170472061Y-62214285D01*
X170424442Y-62166666D01*
X170329204Y-62119047D01*
X170233966Y-62119047D01*
X170138728Y-62166666D01*
X170091109Y-62214285D01*
X170043490Y-62309523D01*
X169995871Y-62500000D01*
X169948252Y-62595238D01*
X169900633Y-62642857D01*
X169805395Y-62690476D01*
X169710157Y-62690476D01*
X169614919Y-62642857D01*
X169567300Y-62595238D01*
X169519680Y-62500000D01*
X169519680Y-62261904D01*
X169567300Y-62119047D01*
X170424442Y-61119047D02*
X170472061Y-61166666D01*
X170519680Y-61309523D01*
X170519680Y-61404761D01*
X170472061Y-61547619D01*
X170376823Y-61642857D01*
X170281585Y-61690476D01*
X170091109Y-61738095D01*
X169948252Y-61738095D01*
X169757776Y-61690476D01*
X169662538Y-61642857D01*
X169567300Y-61547619D01*
X169519680Y-61404761D01*
X169519680Y-61309523D01*
X169567300Y-61166666D01*
X169614919Y-61119047D01*
X170519680Y-60214285D02*
X170519680Y-60690476D01*
X169519680Y-60690476D01*
X194095500Y-64397600D02*
G75*
G03*
X194095500Y-64397600I-3000000J0D01*
G01*
X169083700Y-64396400D02*
G75*
G03*
X169083700Y-64396400I-3000000J0D01*
G01*
X174367300Y-70161904D02*
X174319680Y-70257142D01*
X174319680Y-70400000D01*
X174367300Y-70542857D01*
X174462538Y-70638095D01*
X174557776Y-70685714D01*
X174748252Y-70733333D01*
X174891109Y-70733333D01*
X175081585Y-70685714D01*
X175176823Y-70638095D01*
X175272061Y-70542857D01*
X175319680Y-70400000D01*
X175319680Y-70304761D01*
X175272061Y-70161904D01*
X175224442Y-70114285D01*
X174891109Y-70114285D01*
X174891109Y-70304761D01*
X175319680Y-69685714D02*
X174319680Y-69685714D01*
X175319680Y-69114285D01*
X174319680Y-69114285D01*
X175319680Y-68638095D02*
X174319680Y-68638095D01*
X174319680Y-68400000D01*
X174367300Y-68257142D01*
X174462538Y-68161904D01*
X174557776Y-68114285D01*
X174748252Y-68066666D01*
X174891109Y-68066666D01*
X175081585Y-68114285D01*
X175176823Y-68161904D01*
X175272061Y-68257142D01*
X175319680Y-68400000D01*
X175319680Y-68638095D01*
X172957097Y-70574095D02*
X172620379Y-70237377D01*
X173226471Y-70439408D02*
X172283662Y-70910812D01*
X172755066Y-69968003D01*
X172519364Y-69732301D02*
X171812257Y-70439408D01*
X172115303Y-69328240D01*
X171408196Y-70035347D01*
X171610227Y-69227225D02*
X171273509Y-68890507D01*
X171879601Y-69092538D02*
X170936792Y-69563942D01*
X171408196Y-68621133D01*
X170835777Y-68048713D02*
X171172494Y-68385431D01*
X170465387Y-69092538D01*
X169758281Y-68385431D02*
X169623594Y-68250744D01*
X169589922Y-68149729D01*
X169589922Y-68015042D01*
X169690937Y-67846683D01*
X169926639Y-67610981D01*
X170094998Y-67509965D01*
X170229685Y-67509965D01*
X170330700Y-67543637D01*
X170465387Y-67678324D01*
X170499059Y-67779339D01*
X170499059Y-67914026D01*
X170398044Y-68082385D01*
X170162342Y-68318087D01*
X169993983Y-68419103D01*
X169859296Y-68419103D01*
X169758281Y-68385431D01*
X168815472Y-67375278D02*
X168849143Y-67476294D01*
X168950159Y-67577309D01*
X169084846Y-67644652D01*
X169219533Y-67644652D01*
X169320548Y-67610981D01*
X169488907Y-67509965D01*
X169589922Y-67408950D01*
X169690937Y-67240591D01*
X169724609Y-67139576D01*
X169724609Y-67004889D01*
X169657265Y-66870202D01*
X169589922Y-66802859D01*
X169455235Y-66735515D01*
X169387891Y-66735515D01*
X169152189Y-66971217D01*
X169286876Y-67105904D01*
X143570000Y-135161904D02*
X143522380Y-135257142D01*
X143522380Y-135400000D01*
X143570000Y-135542857D01*
X143665238Y-135638095D01*
X143760476Y-135685714D01*
X143950952Y-135733333D01*
X144093809Y-135733333D01*
X144284285Y-135685714D01*
X144379523Y-135638095D01*
X144474761Y-135542857D01*
X144522380Y-135400000D01*
X144522380Y-135304761D01*
X144474761Y-135161904D01*
X144427142Y-135114285D01*
X144093809Y-135114285D01*
X144093809Y-135304761D01*
X144522380Y-134685714D02*
X143522380Y-134685714D01*
X144522380Y-134114285D01*
X143522380Y-134114285D01*
X144522380Y-133638095D02*
X143522380Y-133638095D01*
X143522380Y-133400000D01*
X143570000Y-133257142D01*
X143665238Y-133161904D01*
X143760476Y-133114285D01*
X143950952Y-133066666D01*
X144093809Y-133066666D01*
X144284285Y-133114285D01*
X144379523Y-133161904D01*
X144474761Y-133257142D01*
X144522380Y-133400000D01*
X144522380Y-133638095D01*
X151022380Y-141328571D02*
X150022380Y-141328571D01*
X151022380Y-140852380D02*
X150022380Y-140852380D01*
X151022380Y-140280952D01*
X150022380Y-140280952D01*
X151022380Y-139804761D02*
X150022380Y-139804761D01*
X150022380Y-139423809D01*
X150070000Y-139328571D01*
X150117619Y-139280952D01*
X150212857Y-139233333D01*
X150355714Y-139233333D01*
X150450952Y-139280952D01*
X150498571Y-139328571D01*
X150546190Y-139423809D01*
X150546190Y-139804761D01*
X150022380Y-138804761D02*
X150831904Y-138804761D01*
X150927142Y-138757142D01*
X150974761Y-138709523D01*
X151022380Y-138614285D01*
X151022380Y-138423809D01*
X150974761Y-138328571D01*
X150927142Y-138280952D01*
X150831904Y-138233333D01*
X150022380Y-138233333D01*
X150022380Y-137900000D02*
X150022380Y-137328571D01*
X151022380Y-137614285D02*
X150022380Y-137614285D01*
X153770000Y-145161904D02*
X153722380Y-145257142D01*
X153722380Y-145400000D01*
X153770000Y-145542857D01*
X153865238Y-145638095D01*
X153960476Y-145685714D01*
X154150952Y-145733333D01*
X154293809Y-145733333D01*
X154484285Y-145685714D01*
X154579523Y-145638095D01*
X154674761Y-145542857D01*
X154722380Y-145400000D01*
X154722380Y-145304761D01*
X154674761Y-145161904D01*
X154627142Y-145114285D01*
X154293809Y-145114285D01*
X154293809Y-145304761D01*
X154722380Y-144685714D02*
X153722380Y-144685714D01*
X154722380Y-144114285D01*
X153722380Y-144114285D01*
X154722380Y-143638095D02*
X153722380Y-143638095D01*
X153722380Y-143400000D01*
X153770000Y-143257142D01*
X153865238Y-143161904D01*
X153960476Y-143114285D01*
X154150952Y-143066666D01*
X154293809Y-143066666D01*
X154484285Y-143114285D01*
X154579523Y-143161904D01*
X154674761Y-143257142D01*
X154722380Y-143400000D01*
X154722380Y-143638095D01*
X106474761Y-137690476D02*
X106522380Y-137547619D01*
X106522380Y-137309523D01*
X106474761Y-137214285D01*
X106427142Y-137166666D01*
X106331904Y-137119047D01*
X106236666Y-137119047D01*
X106141428Y-137166666D01*
X106093809Y-137214285D01*
X106046190Y-137309523D01*
X105998571Y-137500000D01*
X105950952Y-137595238D01*
X105903333Y-137642857D01*
X105808095Y-137690476D01*
X105712857Y-137690476D01*
X105617619Y-137642857D01*
X105570000Y-137595238D01*
X105522380Y-137500000D01*
X105522380Y-137261904D01*
X105570000Y-137119047D01*
X106427142Y-136119047D02*
X106474761Y-136166666D01*
X106522380Y-136309523D01*
X106522380Y-136404761D01*
X106474761Y-136547619D01*
X106379523Y-136642857D01*
X106284285Y-136690476D01*
X106093809Y-136738095D01*
X105950952Y-136738095D01*
X105760476Y-136690476D01*
X105665238Y-136642857D01*
X105570000Y-136547619D01*
X105522380Y-136404761D01*
X105522380Y-136309523D01*
X105570000Y-136166666D01*
X105617619Y-136119047D01*
X106522380Y-135214285D02*
X106522380Y-135690476D01*
X105522380Y-135690476D01*
X117822380Y-145633333D02*
X118822380Y-145300000D01*
X117822380Y-144966666D01*
X118822380Y-144633333D02*
X117822380Y-144633333D01*
X117822380Y-144395238D01*
X117870000Y-144252380D01*
X117965238Y-144157142D01*
X118060476Y-144109523D01*
X118250952Y-144061904D01*
X118393809Y-144061904D01*
X118584285Y-144109523D01*
X118679523Y-144157142D01*
X118774761Y-144252380D01*
X118822380Y-144395238D01*
X118822380Y-144633333D01*
X118822380Y-143633333D02*
X117822380Y-143633333D01*
X117822380Y-143395238D01*
X117870000Y-143252380D01*
X117965238Y-143157142D01*
X118060476Y-143109523D01*
X118250952Y-143061904D01*
X118393809Y-143061904D01*
X118584285Y-143109523D01*
X118679523Y-143157142D01*
X118774761Y-143252380D01*
X118822380Y-143395238D01*
X118822380Y-143633333D01*
X137104500Y-139402400D02*
G75*
G03*
X137104500Y-139402400I-3000000J0D01*
G01*
X106574761Y-140914285D02*
X106622380Y-140771428D01*
X106622380Y-140533333D01*
X106574761Y-140438095D01*
X106527142Y-140390476D01*
X106431904Y-140342857D01*
X106336666Y-140342857D01*
X106241428Y-140390476D01*
X106193809Y-140438095D01*
X106146190Y-140533333D01*
X106098571Y-140723809D01*
X106050952Y-140819047D01*
X106003333Y-140866666D01*
X105908095Y-140914285D01*
X105812857Y-140914285D01*
X105717619Y-140866666D01*
X105670000Y-140819047D01*
X105622380Y-140723809D01*
X105622380Y-140485714D01*
X105670000Y-140342857D01*
X106622380Y-139914285D02*
X105622380Y-139914285D01*
X105622380Y-139676190D01*
X105670000Y-139533333D01*
X105765238Y-139438095D01*
X105860476Y-139390476D01*
X106050952Y-139342857D01*
X106193809Y-139342857D01*
X106384285Y-139390476D01*
X106479523Y-139438095D01*
X106574761Y-139533333D01*
X106622380Y-139676190D01*
X106622380Y-139914285D01*
X106336666Y-138961904D02*
X106336666Y-138485714D01*
X106622380Y-139057142D02*
X105622380Y-138723809D01*
X106622380Y-138390476D01*
X117822380Y-135733333D02*
X118822380Y-135400000D01*
X117822380Y-135066666D01*
X118822380Y-134733333D02*
X117822380Y-134733333D01*
X117822380Y-134495238D01*
X117870000Y-134352380D01*
X117965238Y-134257142D01*
X118060476Y-134209523D01*
X118250952Y-134161904D01*
X118393809Y-134161904D01*
X118584285Y-134209523D01*
X118679523Y-134257142D01*
X118774761Y-134352380D01*
X118822380Y-134495238D01*
X118822380Y-134733333D01*
X118822380Y-133733333D02*
X117822380Y-133733333D01*
X117822380Y-133495238D01*
X117870000Y-133352380D01*
X117965238Y-133257142D01*
X118060476Y-133209523D01*
X118250952Y-133161904D01*
X118393809Y-133161904D01*
X118584285Y-133209523D01*
X118679523Y-133257142D01*
X118774761Y-133352380D01*
X118822380Y-133495238D01*
X118822380Y-133733333D01*
X108959797Y-145574095D02*
X108623079Y-145237377D01*
X109229171Y-145439408D02*
X108286362Y-145910812D01*
X108757766Y-144968003D01*
X108522064Y-144732301D02*
X107814957Y-145439408D01*
X108118003Y-144328240D01*
X107410896Y-145035347D01*
X107612927Y-144227225D02*
X107276209Y-143890507D01*
X107882301Y-144092538D02*
X106939492Y-144563942D01*
X107410896Y-143621133D01*
X106838477Y-143048713D02*
X107175194Y-143385431D01*
X106468087Y-144092538D01*
X105760981Y-143385431D02*
X105626294Y-143250744D01*
X105592622Y-143149729D01*
X105592622Y-143015042D01*
X105693637Y-142846683D01*
X105929339Y-142610981D01*
X106097698Y-142509965D01*
X106232385Y-142509965D01*
X106333400Y-142543637D01*
X106468087Y-142678324D01*
X106501759Y-142779339D01*
X106501759Y-142914026D01*
X106400744Y-143082385D01*
X106165042Y-143318087D01*
X105996683Y-143419103D01*
X105861996Y-143419103D01*
X105760981Y-143385431D01*
X104818172Y-142375278D02*
X104851843Y-142476294D01*
X104952859Y-142577309D01*
X105087546Y-142644652D01*
X105222233Y-142644652D01*
X105323248Y-142610981D01*
X105491607Y-142509965D01*
X105592622Y-142408950D01*
X105693637Y-142240591D01*
X105727309Y-142139576D01*
X105727309Y-142004889D01*
X105659965Y-141870202D01*
X105592622Y-141802859D01*
X105457935Y-141735515D01*
X105390591Y-141735515D01*
X105154889Y-141971217D01*
X105289576Y-142105904D01*
X162116300Y-139403600D02*
G75*
G03*
X162116300Y-139403600I-3000000J0D01*
G01*
X105086400Y-139396400D02*
G75*
G03*
X105086400Y-139396400I-3000000J0D01*
G01*
X130098200Y-139397600D02*
G75*
G03*
X130098200Y-139397600I-3000000J0D01*
G01*
X110370000Y-145161904D02*
X110322380Y-145257142D01*
X110322380Y-145400000D01*
X110370000Y-145542857D01*
X110465238Y-145638095D01*
X110560476Y-145685714D01*
X110750952Y-145733333D01*
X110893809Y-145733333D01*
X111084285Y-145685714D01*
X111179523Y-145638095D01*
X111274761Y-145542857D01*
X111322380Y-145400000D01*
X111322380Y-145304761D01*
X111274761Y-145161904D01*
X111227142Y-145114285D01*
X110893809Y-145114285D01*
X110893809Y-145304761D01*
X111322380Y-144685714D02*
X110322380Y-144685714D01*
X111322380Y-144114285D01*
X110322380Y-144114285D01*
X111322380Y-143638095D02*
X110322380Y-143638095D01*
X110322380Y-143400000D01*
X110370000Y-143257142D01*
X110465238Y-143161904D01*
X110560476Y-143114285D01*
X110750952Y-143066666D01*
X110893809Y-143066666D01*
X111084285Y-143114285D01*
X111179523Y-143161904D01*
X111274761Y-143257142D01*
X111322380Y-143400000D01*
X111322380Y-143638095D01*
X110370000Y-134961904D02*
X110322380Y-135057142D01*
X110322380Y-135200000D01*
X110370000Y-135342857D01*
X110465238Y-135438095D01*
X110560476Y-135485714D01*
X110750952Y-135533333D01*
X110893809Y-135533333D01*
X111084285Y-135485714D01*
X111179523Y-135438095D01*
X111274761Y-135342857D01*
X111322380Y-135200000D01*
X111322380Y-135104761D01*
X111274761Y-134961904D01*
X111227142Y-134914285D01*
X110893809Y-134914285D01*
X110893809Y-135104761D01*
X111322380Y-134485714D02*
X110322380Y-134485714D01*
X111322380Y-133914285D01*
X110322380Y-133914285D01*
X111322380Y-133438095D02*
X110322380Y-133438095D01*
X110322380Y-133200000D01*
X110370000Y-133057142D01*
X110465238Y-132961904D01*
X110560476Y-132914285D01*
X110750952Y-132866666D01*
X110893809Y-132866666D01*
X111084285Y-132914285D01*
X111179523Y-132961904D01*
X111274761Y-133057142D01*
X111322380Y-133200000D01*
X111322380Y-133438095D01*
X143570000Y-120161904D02*
X143522380Y-120257142D01*
X143522380Y-120400000D01*
X143570000Y-120542857D01*
X143665238Y-120638095D01*
X143760476Y-120685714D01*
X143950952Y-120733333D01*
X144093809Y-120733333D01*
X144284285Y-120685714D01*
X144379523Y-120638095D01*
X144474761Y-120542857D01*
X144522380Y-120400000D01*
X144522380Y-120304761D01*
X144474761Y-120161904D01*
X144427142Y-120114285D01*
X144093809Y-120114285D01*
X144093809Y-120304761D01*
X144522380Y-119685714D02*
X143522380Y-119685714D01*
X144522380Y-119114285D01*
X143522380Y-119114285D01*
X144522380Y-118638095D02*
X143522380Y-118638095D01*
X143522380Y-118400000D01*
X143570000Y-118257142D01*
X143665238Y-118161904D01*
X143760476Y-118114285D01*
X143950952Y-118066666D01*
X144093809Y-118066666D01*
X144284285Y-118114285D01*
X144379523Y-118161904D01*
X144474761Y-118257142D01*
X144522380Y-118400000D01*
X144522380Y-118638095D01*
X151022380Y-126328571D02*
X150022380Y-126328571D01*
X151022380Y-125852380D02*
X150022380Y-125852380D01*
X151022380Y-125280952D01*
X150022380Y-125280952D01*
X151022380Y-124804761D02*
X150022380Y-124804761D01*
X150022380Y-124423809D01*
X150070000Y-124328571D01*
X150117619Y-124280952D01*
X150212857Y-124233333D01*
X150355714Y-124233333D01*
X150450952Y-124280952D01*
X150498571Y-124328571D01*
X150546190Y-124423809D01*
X150546190Y-124804761D01*
X150022380Y-123804761D02*
X150831904Y-123804761D01*
X150927142Y-123757142D01*
X150974761Y-123709523D01*
X151022380Y-123614285D01*
X151022380Y-123423809D01*
X150974761Y-123328571D01*
X150927142Y-123280952D01*
X150831904Y-123233333D01*
X150022380Y-123233333D01*
X150022380Y-122900000D02*
X150022380Y-122328571D01*
X151022380Y-122614285D02*
X150022380Y-122614285D01*
X153770000Y-130161904D02*
X153722380Y-130257142D01*
X153722380Y-130400000D01*
X153770000Y-130542857D01*
X153865238Y-130638095D01*
X153960476Y-130685714D01*
X154150952Y-130733333D01*
X154293809Y-130733333D01*
X154484285Y-130685714D01*
X154579523Y-130638095D01*
X154674761Y-130542857D01*
X154722380Y-130400000D01*
X154722380Y-130304761D01*
X154674761Y-130161904D01*
X154627142Y-130114285D01*
X154293809Y-130114285D01*
X154293809Y-130304761D01*
X154722380Y-129685714D02*
X153722380Y-129685714D01*
X154722380Y-129114285D01*
X153722380Y-129114285D01*
X154722380Y-128638095D02*
X153722380Y-128638095D01*
X153722380Y-128400000D01*
X153770000Y-128257142D01*
X153865238Y-128161904D01*
X153960476Y-128114285D01*
X154150952Y-128066666D01*
X154293809Y-128066666D01*
X154484285Y-128114285D01*
X154579523Y-128161904D01*
X154674761Y-128257142D01*
X154722380Y-128400000D01*
X154722380Y-128638095D01*
X106474761Y-122690476D02*
X106522380Y-122547619D01*
X106522380Y-122309523D01*
X106474761Y-122214285D01*
X106427142Y-122166666D01*
X106331904Y-122119047D01*
X106236666Y-122119047D01*
X106141428Y-122166666D01*
X106093809Y-122214285D01*
X106046190Y-122309523D01*
X105998571Y-122500000D01*
X105950952Y-122595238D01*
X105903333Y-122642857D01*
X105808095Y-122690476D01*
X105712857Y-122690476D01*
X105617619Y-122642857D01*
X105570000Y-122595238D01*
X105522380Y-122500000D01*
X105522380Y-122261904D01*
X105570000Y-122119047D01*
X106427142Y-121119047D02*
X106474761Y-121166666D01*
X106522380Y-121309523D01*
X106522380Y-121404761D01*
X106474761Y-121547619D01*
X106379523Y-121642857D01*
X106284285Y-121690476D01*
X106093809Y-121738095D01*
X105950952Y-121738095D01*
X105760476Y-121690476D01*
X105665238Y-121642857D01*
X105570000Y-121547619D01*
X105522380Y-121404761D01*
X105522380Y-121309523D01*
X105570000Y-121166666D01*
X105617619Y-121119047D01*
X106522380Y-120214285D02*
X106522380Y-120690476D01*
X105522380Y-120690476D01*
X117822380Y-130633333D02*
X118822380Y-130300000D01*
X117822380Y-129966666D01*
X118822380Y-129633333D02*
X117822380Y-129633333D01*
X117822380Y-129395238D01*
X117870000Y-129252380D01*
X117965238Y-129157142D01*
X118060476Y-129109523D01*
X118250952Y-129061904D01*
X118393809Y-129061904D01*
X118584285Y-129109523D01*
X118679523Y-129157142D01*
X118774761Y-129252380D01*
X118822380Y-129395238D01*
X118822380Y-129633333D01*
X118822380Y-128633333D02*
X117822380Y-128633333D01*
X117822380Y-128395238D01*
X117870000Y-128252380D01*
X117965238Y-128157142D01*
X118060476Y-128109523D01*
X118250952Y-128061904D01*
X118393809Y-128061904D01*
X118584285Y-128109523D01*
X118679523Y-128157142D01*
X118774761Y-128252380D01*
X118822380Y-128395238D01*
X118822380Y-128633333D01*
X137104500Y-124402400D02*
G75*
G03*
X137104500Y-124402400I-3000000J0D01*
G01*
X106574761Y-125914285D02*
X106622380Y-125771428D01*
X106622380Y-125533333D01*
X106574761Y-125438095D01*
X106527142Y-125390476D01*
X106431904Y-125342857D01*
X106336666Y-125342857D01*
X106241428Y-125390476D01*
X106193809Y-125438095D01*
X106146190Y-125533333D01*
X106098571Y-125723809D01*
X106050952Y-125819047D01*
X106003333Y-125866666D01*
X105908095Y-125914285D01*
X105812857Y-125914285D01*
X105717619Y-125866666D01*
X105670000Y-125819047D01*
X105622380Y-125723809D01*
X105622380Y-125485714D01*
X105670000Y-125342857D01*
X106622380Y-124914285D02*
X105622380Y-124914285D01*
X105622380Y-124676190D01*
X105670000Y-124533333D01*
X105765238Y-124438095D01*
X105860476Y-124390476D01*
X106050952Y-124342857D01*
X106193809Y-124342857D01*
X106384285Y-124390476D01*
X106479523Y-124438095D01*
X106574761Y-124533333D01*
X106622380Y-124676190D01*
X106622380Y-124914285D01*
X106336666Y-123961904D02*
X106336666Y-123485714D01*
X106622380Y-124057142D02*
X105622380Y-123723809D01*
X106622380Y-123390476D01*
X117822380Y-120733333D02*
X118822380Y-120400000D01*
X117822380Y-120066666D01*
X118822380Y-119733333D02*
X117822380Y-119733333D01*
X117822380Y-119495238D01*
X117870000Y-119352380D01*
X117965238Y-119257142D01*
X118060476Y-119209523D01*
X118250952Y-119161904D01*
X118393809Y-119161904D01*
X118584285Y-119209523D01*
X118679523Y-119257142D01*
X118774761Y-119352380D01*
X118822380Y-119495238D01*
X118822380Y-119733333D01*
X118822380Y-118733333D02*
X117822380Y-118733333D01*
X117822380Y-118495238D01*
X117870000Y-118352380D01*
X117965238Y-118257142D01*
X118060476Y-118209523D01*
X118250952Y-118161904D01*
X118393809Y-118161904D01*
X118584285Y-118209523D01*
X118679523Y-118257142D01*
X118774761Y-118352380D01*
X118822380Y-118495238D01*
X118822380Y-118733333D01*
X108959797Y-130574095D02*
X108623079Y-130237377D01*
X109229171Y-130439408D02*
X108286362Y-130910812D01*
X108757766Y-129968003D01*
X108522064Y-129732301D02*
X107814957Y-130439408D01*
X108118003Y-129328240D01*
X107410896Y-130035347D01*
X107612927Y-129227225D02*
X107276209Y-128890507D01*
X107882301Y-129092538D02*
X106939492Y-129563942D01*
X107410896Y-128621133D01*
X106838477Y-128048713D02*
X107175194Y-128385431D01*
X106468087Y-129092538D01*
X105760981Y-128385431D02*
X105626294Y-128250744D01*
X105592622Y-128149729D01*
X105592622Y-128015042D01*
X105693637Y-127846683D01*
X105929339Y-127610981D01*
X106097698Y-127509965D01*
X106232385Y-127509965D01*
X106333400Y-127543637D01*
X106468087Y-127678324D01*
X106501759Y-127779339D01*
X106501759Y-127914026D01*
X106400744Y-128082385D01*
X106165042Y-128318087D01*
X105996683Y-128419103D01*
X105861996Y-128419103D01*
X105760981Y-128385431D01*
X104818172Y-127375278D02*
X104851843Y-127476294D01*
X104952859Y-127577309D01*
X105087546Y-127644652D01*
X105222233Y-127644652D01*
X105323248Y-127610981D01*
X105491607Y-127509965D01*
X105592622Y-127408950D01*
X105693637Y-127240591D01*
X105727309Y-127139576D01*
X105727309Y-127004889D01*
X105659965Y-126870202D01*
X105592622Y-126802859D01*
X105457935Y-126735515D01*
X105390591Y-126735515D01*
X105154889Y-126971217D01*
X105289576Y-127105904D01*
X162116300Y-124403600D02*
G75*
G03*
X162116300Y-124403600I-3000000J0D01*
G01*
X105086400Y-124396400D02*
G75*
G03*
X105086400Y-124396400I-3000000J0D01*
G01*
X130098200Y-124397600D02*
G75*
G03*
X130098200Y-124397600I-3000000J0D01*
G01*
X110370000Y-130161904D02*
X110322380Y-130257142D01*
X110322380Y-130400000D01*
X110370000Y-130542857D01*
X110465238Y-130638095D01*
X110560476Y-130685714D01*
X110750952Y-130733333D01*
X110893809Y-130733333D01*
X111084285Y-130685714D01*
X111179523Y-130638095D01*
X111274761Y-130542857D01*
X111322380Y-130400000D01*
X111322380Y-130304761D01*
X111274761Y-130161904D01*
X111227142Y-130114285D01*
X110893809Y-130114285D01*
X110893809Y-130304761D01*
X111322380Y-129685714D02*
X110322380Y-129685714D01*
X111322380Y-129114285D01*
X110322380Y-129114285D01*
X111322380Y-128638095D02*
X110322380Y-128638095D01*
X110322380Y-128400000D01*
X110370000Y-128257142D01*
X110465238Y-128161904D01*
X110560476Y-128114285D01*
X110750952Y-128066666D01*
X110893809Y-128066666D01*
X111084285Y-128114285D01*
X111179523Y-128161904D01*
X111274761Y-128257142D01*
X111322380Y-128400000D01*
X111322380Y-128638095D01*
X110370000Y-119961904D02*
X110322380Y-120057142D01*
X110322380Y-120200000D01*
X110370000Y-120342857D01*
X110465238Y-120438095D01*
X110560476Y-120485714D01*
X110750952Y-120533333D01*
X110893809Y-120533333D01*
X111084285Y-120485714D01*
X111179523Y-120438095D01*
X111274761Y-120342857D01*
X111322380Y-120200000D01*
X111322380Y-120104761D01*
X111274761Y-119961904D01*
X111227142Y-119914285D01*
X110893809Y-119914285D01*
X110893809Y-120104761D01*
X111322380Y-119485714D02*
X110322380Y-119485714D01*
X111322380Y-118914285D01*
X110322380Y-118914285D01*
X111322380Y-118438095D02*
X110322380Y-118438095D01*
X110322380Y-118200000D01*
X110370000Y-118057142D01*
X110465238Y-117961904D01*
X110560476Y-117914285D01*
X110750952Y-117866666D01*
X110893809Y-117866666D01*
X111084285Y-117914285D01*
X111179523Y-117961904D01*
X111274761Y-118057142D01*
X111322380Y-118200000D01*
X111322380Y-118438095D01*
X143570000Y-105161904D02*
X143522380Y-105257142D01*
X143522380Y-105400000D01*
X143570000Y-105542857D01*
X143665238Y-105638095D01*
X143760476Y-105685714D01*
X143950952Y-105733333D01*
X144093809Y-105733333D01*
X144284285Y-105685714D01*
X144379523Y-105638095D01*
X144474761Y-105542857D01*
X144522380Y-105400000D01*
X144522380Y-105304761D01*
X144474761Y-105161904D01*
X144427142Y-105114285D01*
X144093809Y-105114285D01*
X144093809Y-105304761D01*
X144522380Y-104685714D02*
X143522380Y-104685714D01*
X144522380Y-104114285D01*
X143522380Y-104114285D01*
X144522380Y-103638095D02*
X143522380Y-103638095D01*
X143522380Y-103400000D01*
X143570000Y-103257142D01*
X143665238Y-103161904D01*
X143760476Y-103114285D01*
X143950952Y-103066666D01*
X144093809Y-103066666D01*
X144284285Y-103114285D01*
X144379523Y-103161904D01*
X144474761Y-103257142D01*
X144522380Y-103400000D01*
X144522380Y-103638095D01*
X151022380Y-111328571D02*
X150022380Y-111328571D01*
X151022380Y-110852380D02*
X150022380Y-110852380D01*
X151022380Y-110280952D01*
X150022380Y-110280952D01*
X151022380Y-109804761D02*
X150022380Y-109804761D01*
X150022380Y-109423809D01*
X150070000Y-109328571D01*
X150117619Y-109280952D01*
X150212857Y-109233333D01*
X150355714Y-109233333D01*
X150450952Y-109280952D01*
X150498571Y-109328571D01*
X150546190Y-109423809D01*
X150546190Y-109804761D01*
X150022380Y-108804761D02*
X150831904Y-108804761D01*
X150927142Y-108757142D01*
X150974761Y-108709523D01*
X151022380Y-108614285D01*
X151022380Y-108423809D01*
X150974761Y-108328571D01*
X150927142Y-108280952D01*
X150831904Y-108233333D01*
X150022380Y-108233333D01*
X150022380Y-107900000D02*
X150022380Y-107328571D01*
X151022380Y-107614285D02*
X150022380Y-107614285D01*
X153770000Y-115161904D02*
X153722380Y-115257142D01*
X153722380Y-115400000D01*
X153770000Y-115542857D01*
X153865238Y-115638095D01*
X153960476Y-115685714D01*
X154150952Y-115733333D01*
X154293809Y-115733333D01*
X154484285Y-115685714D01*
X154579523Y-115638095D01*
X154674761Y-115542857D01*
X154722380Y-115400000D01*
X154722380Y-115304761D01*
X154674761Y-115161904D01*
X154627142Y-115114285D01*
X154293809Y-115114285D01*
X154293809Y-115304761D01*
X154722380Y-114685714D02*
X153722380Y-114685714D01*
X154722380Y-114114285D01*
X153722380Y-114114285D01*
X154722380Y-113638095D02*
X153722380Y-113638095D01*
X153722380Y-113400000D01*
X153770000Y-113257142D01*
X153865238Y-113161904D01*
X153960476Y-113114285D01*
X154150952Y-113066666D01*
X154293809Y-113066666D01*
X154484285Y-113114285D01*
X154579523Y-113161904D01*
X154674761Y-113257142D01*
X154722380Y-113400000D01*
X154722380Y-113638095D01*
X106474761Y-107690476D02*
X106522380Y-107547619D01*
X106522380Y-107309523D01*
X106474761Y-107214285D01*
X106427142Y-107166666D01*
X106331904Y-107119047D01*
X106236666Y-107119047D01*
X106141428Y-107166666D01*
X106093809Y-107214285D01*
X106046190Y-107309523D01*
X105998571Y-107500000D01*
X105950952Y-107595238D01*
X105903333Y-107642857D01*
X105808095Y-107690476D01*
X105712857Y-107690476D01*
X105617619Y-107642857D01*
X105570000Y-107595238D01*
X105522380Y-107500000D01*
X105522380Y-107261904D01*
X105570000Y-107119047D01*
X106427142Y-106119047D02*
X106474761Y-106166666D01*
X106522380Y-106309523D01*
X106522380Y-106404761D01*
X106474761Y-106547619D01*
X106379523Y-106642857D01*
X106284285Y-106690476D01*
X106093809Y-106738095D01*
X105950952Y-106738095D01*
X105760476Y-106690476D01*
X105665238Y-106642857D01*
X105570000Y-106547619D01*
X105522380Y-106404761D01*
X105522380Y-106309523D01*
X105570000Y-106166666D01*
X105617619Y-106119047D01*
X106522380Y-105214285D02*
X106522380Y-105690476D01*
X105522380Y-105690476D01*
X117822380Y-115633333D02*
X118822380Y-115300000D01*
X117822380Y-114966666D01*
X118822380Y-114633333D02*
X117822380Y-114633333D01*
X117822380Y-114395238D01*
X117870000Y-114252380D01*
X117965238Y-114157142D01*
X118060476Y-114109523D01*
X118250952Y-114061904D01*
X118393809Y-114061904D01*
X118584285Y-114109523D01*
X118679523Y-114157142D01*
X118774761Y-114252380D01*
X118822380Y-114395238D01*
X118822380Y-114633333D01*
X118822380Y-113633333D02*
X117822380Y-113633333D01*
X117822380Y-113395238D01*
X117870000Y-113252380D01*
X117965238Y-113157142D01*
X118060476Y-113109523D01*
X118250952Y-113061904D01*
X118393809Y-113061904D01*
X118584285Y-113109523D01*
X118679523Y-113157142D01*
X118774761Y-113252380D01*
X118822380Y-113395238D01*
X118822380Y-113633333D01*
X137104500Y-109402400D02*
G75*
G03*
X137104500Y-109402400I-3000000J0D01*
G01*
X106574761Y-110914285D02*
X106622380Y-110771428D01*
X106622380Y-110533333D01*
X106574761Y-110438095D01*
X106527142Y-110390476D01*
X106431904Y-110342857D01*
X106336666Y-110342857D01*
X106241428Y-110390476D01*
X106193809Y-110438095D01*
X106146190Y-110533333D01*
X106098571Y-110723809D01*
X106050952Y-110819047D01*
X106003333Y-110866666D01*
X105908095Y-110914285D01*
X105812857Y-110914285D01*
X105717619Y-110866666D01*
X105670000Y-110819047D01*
X105622380Y-110723809D01*
X105622380Y-110485714D01*
X105670000Y-110342857D01*
X106622380Y-109914285D02*
X105622380Y-109914285D01*
X105622380Y-109676190D01*
X105670000Y-109533333D01*
X105765238Y-109438095D01*
X105860476Y-109390476D01*
X106050952Y-109342857D01*
X106193809Y-109342857D01*
X106384285Y-109390476D01*
X106479523Y-109438095D01*
X106574761Y-109533333D01*
X106622380Y-109676190D01*
X106622380Y-109914285D01*
X106336666Y-108961904D02*
X106336666Y-108485714D01*
X106622380Y-109057142D02*
X105622380Y-108723809D01*
X106622380Y-108390476D01*
X117822380Y-105733333D02*
X118822380Y-105400000D01*
X117822380Y-105066666D01*
X118822380Y-104733333D02*
X117822380Y-104733333D01*
X117822380Y-104495238D01*
X117870000Y-104352380D01*
X117965238Y-104257142D01*
X118060476Y-104209523D01*
X118250952Y-104161904D01*
X118393809Y-104161904D01*
X118584285Y-104209523D01*
X118679523Y-104257142D01*
X118774761Y-104352380D01*
X118822380Y-104495238D01*
X118822380Y-104733333D01*
X118822380Y-103733333D02*
X117822380Y-103733333D01*
X117822380Y-103495238D01*
X117870000Y-103352380D01*
X117965238Y-103257142D01*
X118060476Y-103209523D01*
X118250952Y-103161904D01*
X118393809Y-103161904D01*
X118584285Y-103209523D01*
X118679523Y-103257142D01*
X118774761Y-103352380D01*
X118822380Y-103495238D01*
X118822380Y-103733333D01*
X108959797Y-115574095D02*
X108623079Y-115237377D01*
X109229171Y-115439408D02*
X108286362Y-115910812D01*
X108757766Y-114968003D01*
X108522064Y-114732301D02*
X107814957Y-115439408D01*
X108118003Y-114328240D01*
X107410896Y-115035347D01*
X107612927Y-114227225D02*
X107276209Y-113890507D01*
X107882301Y-114092538D02*
X106939492Y-114563942D01*
X107410896Y-113621133D01*
X106838477Y-113048713D02*
X107175194Y-113385431D01*
X106468087Y-114092538D01*
X105760981Y-113385431D02*
X105626294Y-113250744D01*
X105592622Y-113149729D01*
X105592622Y-113015042D01*
X105693637Y-112846683D01*
X105929339Y-112610981D01*
X106097698Y-112509965D01*
X106232385Y-112509965D01*
X106333400Y-112543637D01*
X106468087Y-112678324D01*
X106501759Y-112779339D01*
X106501759Y-112914026D01*
X106400744Y-113082385D01*
X106165042Y-113318087D01*
X105996683Y-113419103D01*
X105861996Y-113419103D01*
X105760981Y-113385431D01*
X104818172Y-112375278D02*
X104851843Y-112476294D01*
X104952859Y-112577309D01*
X105087546Y-112644652D01*
X105222233Y-112644652D01*
X105323248Y-112610981D01*
X105491607Y-112509965D01*
X105592622Y-112408950D01*
X105693637Y-112240591D01*
X105727309Y-112139576D01*
X105727309Y-112004889D01*
X105659965Y-111870202D01*
X105592622Y-111802859D01*
X105457935Y-111735515D01*
X105390591Y-111735515D01*
X105154889Y-111971217D01*
X105289576Y-112105904D01*
X162116300Y-109403600D02*
G75*
G03*
X162116300Y-109403600I-3000000J0D01*
G01*
X105086400Y-109396400D02*
G75*
G03*
X105086400Y-109396400I-3000000J0D01*
G01*
X130098200Y-109397600D02*
G75*
G03*
X130098200Y-109397600I-3000000J0D01*
G01*
X110370000Y-115161904D02*
X110322380Y-115257142D01*
X110322380Y-115400000D01*
X110370000Y-115542857D01*
X110465238Y-115638095D01*
X110560476Y-115685714D01*
X110750952Y-115733333D01*
X110893809Y-115733333D01*
X111084285Y-115685714D01*
X111179523Y-115638095D01*
X111274761Y-115542857D01*
X111322380Y-115400000D01*
X111322380Y-115304761D01*
X111274761Y-115161904D01*
X111227142Y-115114285D01*
X110893809Y-115114285D01*
X110893809Y-115304761D01*
X111322380Y-114685714D02*
X110322380Y-114685714D01*
X111322380Y-114114285D01*
X110322380Y-114114285D01*
X111322380Y-113638095D02*
X110322380Y-113638095D01*
X110322380Y-113400000D01*
X110370000Y-113257142D01*
X110465238Y-113161904D01*
X110560476Y-113114285D01*
X110750952Y-113066666D01*
X110893809Y-113066666D01*
X111084285Y-113114285D01*
X111179523Y-113161904D01*
X111274761Y-113257142D01*
X111322380Y-113400000D01*
X111322380Y-113638095D01*
X110370000Y-104961904D02*
X110322380Y-105057142D01*
X110322380Y-105200000D01*
X110370000Y-105342857D01*
X110465238Y-105438095D01*
X110560476Y-105485714D01*
X110750952Y-105533333D01*
X110893809Y-105533333D01*
X111084285Y-105485714D01*
X111179523Y-105438095D01*
X111274761Y-105342857D01*
X111322380Y-105200000D01*
X111322380Y-105104761D01*
X111274761Y-104961904D01*
X111227142Y-104914285D01*
X110893809Y-104914285D01*
X110893809Y-105104761D01*
X111322380Y-104485714D02*
X110322380Y-104485714D01*
X111322380Y-103914285D01*
X110322380Y-103914285D01*
X111322380Y-103438095D02*
X110322380Y-103438095D01*
X110322380Y-103200000D01*
X110370000Y-103057142D01*
X110465238Y-102961904D01*
X110560476Y-102914285D01*
X110750952Y-102866666D01*
X110893809Y-102866666D01*
X111084285Y-102914285D01*
X111179523Y-102961904D01*
X111274761Y-103057142D01*
X111322380Y-103200000D01*
X111322380Y-103438095D01*
X143570000Y-90161904D02*
X143522380Y-90257142D01*
X143522380Y-90400000D01*
X143570000Y-90542857D01*
X143665238Y-90638095D01*
X143760476Y-90685714D01*
X143950952Y-90733333D01*
X144093809Y-90733333D01*
X144284285Y-90685714D01*
X144379523Y-90638095D01*
X144474761Y-90542857D01*
X144522380Y-90400000D01*
X144522380Y-90304761D01*
X144474761Y-90161904D01*
X144427142Y-90114285D01*
X144093809Y-90114285D01*
X144093809Y-90304761D01*
X144522380Y-89685714D02*
X143522380Y-89685714D01*
X144522380Y-89114285D01*
X143522380Y-89114285D01*
X144522380Y-88638095D02*
X143522380Y-88638095D01*
X143522380Y-88400000D01*
X143570000Y-88257142D01*
X143665238Y-88161904D01*
X143760476Y-88114285D01*
X143950952Y-88066666D01*
X144093809Y-88066666D01*
X144284285Y-88114285D01*
X144379523Y-88161904D01*
X144474761Y-88257142D01*
X144522380Y-88400000D01*
X144522380Y-88638095D01*
X151022380Y-96328571D02*
X150022380Y-96328571D01*
X151022380Y-95852380D02*
X150022380Y-95852380D01*
X151022380Y-95280952D01*
X150022380Y-95280952D01*
X151022380Y-94804761D02*
X150022380Y-94804761D01*
X150022380Y-94423809D01*
X150070000Y-94328571D01*
X150117619Y-94280952D01*
X150212857Y-94233333D01*
X150355714Y-94233333D01*
X150450952Y-94280952D01*
X150498571Y-94328571D01*
X150546190Y-94423809D01*
X150546190Y-94804761D01*
X150022380Y-93804761D02*
X150831904Y-93804761D01*
X150927142Y-93757142D01*
X150974761Y-93709523D01*
X151022380Y-93614285D01*
X151022380Y-93423809D01*
X150974761Y-93328571D01*
X150927142Y-93280952D01*
X150831904Y-93233333D01*
X150022380Y-93233333D01*
X150022380Y-92900000D02*
X150022380Y-92328571D01*
X151022380Y-92614285D02*
X150022380Y-92614285D01*
X153770000Y-100161904D02*
X153722380Y-100257142D01*
X153722380Y-100400000D01*
X153770000Y-100542857D01*
X153865238Y-100638095D01*
X153960476Y-100685714D01*
X154150952Y-100733333D01*
X154293809Y-100733333D01*
X154484285Y-100685714D01*
X154579523Y-100638095D01*
X154674761Y-100542857D01*
X154722380Y-100400000D01*
X154722380Y-100304761D01*
X154674761Y-100161904D01*
X154627142Y-100114285D01*
X154293809Y-100114285D01*
X154293809Y-100304761D01*
X154722380Y-99685714D02*
X153722380Y-99685714D01*
X154722380Y-99114285D01*
X153722380Y-99114285D01*
X154722380Y-98638095D02*
X153722380Y-98638095D01*
X153722380Y-98400000D01*
X153770000Y-98257142D01*
X153865238Y-98161904D01*
X153960476Y-98114285D01*
X154150952Y-98066666D01*
X154293809Y-98066666D01*
X154484285Y-98114285D01*
X154579523Y-98161904D01*
X154674761Y-98257142D01*
X154722380Y-98400000D01*
X154722380Y-98638095D01*
X106474761Y-92690476D02*
X106522380Y-92547619D01*
X106522380Y-92309523D01*
X106474761Y-92214285D01*
X106427142Y-92166666D01*
X106331904Y-92119047D01*
X106236666Y-92119047D01*
X106141428Y-92166666D01*
X106093809Y-92214285D01*
X106046190Y-92309523D01*
X105998571Y-92500000D01*
X105950952Y-92595238D01*
X105903333Y-92642857D01*
X105808095Y-92690476D01*
X105712857Y-92690476D01*
X105617619Y-92642857D01*
X105570000Y-92595238D01*
X105522380Y-92500000D01*
X105522380Y-92261904D01*
X105570000Y-92119047D01*
X106427142Y-91119047D02*
X106474761Y-91166666D01*
X106522380Y-91309523D01*
X106522380Y-91404761D01*
X106474761Y-91547619D01*
X106379523Y-91642857D01*
X106284285Y-91690476D01*
X106093809Y-91738095D01*
X105950952Y-91738095D01*
X105760476Y-91690476D01*
X105665238Y-91642857D01*
X105570000Y-91547619D01*
X105522380Y-91404761D01*
X105522380Y-91309523D01*
X105570000Y-91166666D01*
X105617619Y-91119047D01*
X106522380Y-90214285D02*
X106522380Y-90690476D01*
X105522380Y-90690476D01*
X117822380Y-100633333D02*
X118822380Y-100300000D01*
X117822380Y-99966666D01*
X118822380Y-99633333D02*
X117822380Y-99633333D01*
X117822380Y-99395238D01*
X117870000Y-99252380D01*
X117965238Y-99157142D01*
X118060476Y-99109523D01*
X118250952Y-99061904D01*
X118393809Y-99061904D01*
X118584285Y-99109523D01*
X118679523Y-99157142D01*
X118774761Y-99252380D01*
X118822380Y-99395238D01*
X118822380Y-99633333D01*
X118822380Y-98633333D02*
X117822380Y-98633333D01*
X117822380Y-98395238D01*
X117870000Y-98252380D01*
X117965238Y-98157142D01*
X118060476Y-98109523D01*
X118250952Y-98061904D01*
X118393809Y-98061904D01*
X118584285Y-98109523D01*
X118679523Y-98157142D01*
X118774761Y-98252380D01*
X118822380Y-98395238D01*
X118822380Y-98633333D01*
X137104500Y-94402400D02*
G75*
G03*
X137104500Y-94402400I-3000000J0D01*
G01*
X106574761Y-95914285D02*
X106622380Y-95771428D01*
X106622380Y-95533333D01*
X106574761Y-95438095D01*
X106527142Y-95390476D01*
X106431904Y-95342857D01*
X106336666Y-95342857D01*
X106241428Y-95390476D01*
X106193809Y-95438095D01*
X106146190Y-95533333D01*
X106098571Y-95723809D01*
X106050952Y-95819047D01*
X106003333Y-95866666D01*
X105908095Y-95914285D01*
X105812857Y-95914285D01*
X105717619Y-95866666D01*
X105670000Y-95819047D01*
X105622380Y-95723809D01*
X105622380Y-95485714D01*
X105670000Y-95342857D01*
X106622380Y-94914285D02*
X105622380Y-94914285D01*
X105622380Y-94676190D01*
X105670000Y-94533333D01*
X105765238Y-94438095D01*
X105860476Y-94390476D01*
X106050952Y-94342857D01*
X106193809Y-94342857D01*
X106384285Y-94390476D01*
X106479523Y-94438095D01*
X106574761Y-94533333D01*
X106622380Y-94676190D01*
X106622380Y-94914285D01*
X106336666Y-93961904D02*
X106336666Y-93485714D01*
X106622380Y-94057142D02*
X105622380Y-93723809D01*
X106622380Y-93390476D01*
X117822380Y-90733333D02*
X118822380Y-90400000D01*
X117822380Y-90066666D01*
X118822380Y-89733333D02*
X117822380Y-89733333D01*
X117822380Y-89495238D01*
X117870000Y-89352380D01*
X117965238Y-89257142D01*
X118060476Y-89209523D01*
X118250952Y-89161904D01*
X118393809Y-89161904D01*
X118584285Y-89209523D01*
X118679523Y-89257142D01*
X118774761Y-89352380D01*
X118822380Y-89495238D01*
X118822380Y-89733333D01*
X118822380Y-88733333D02*
X117822380Y-88733333D01*
X117822380Y-88495238D01*
X117870000Y-88352380D01*
X117965238Y-88257142D01*
X118060476Y-88209523D01*
X118250952Y-88161904D01*
X118393809Y-88161904D01*
X118584285Y-88209523D01*
X118679523Y-88257142D01*
X118774761Y-88352380D01*
X118822380Y-88495238D01*
X118822380Y-88733333D01*
X108959797Y-100574095D02*
X108623079Y-100237377D01*
X109229171Y-100439408D02*
X108286362Y-100910812D01*
X108757766Y-99968003D01*
X108522064Y-99732301D02*
X107814957Y-100439408D01*
X108118003Y-99328240D01*
X107410896Y-100035347D01*
X107612927Y-99227225D02*
X107276209Y-98890507D01*
X107882301Y-99092538D02*
X106939492Y-99563942D01*
X107410896Y-98621133D01*
X106838477Y-98048713D02*
X107175194Y-98385431D01*
X106468087Y-99092538D01*
X105760981Y-98385431D02*
X105626294Y-98250744D01*
X105592622Y-98149729D01*
X105592622Y-98015042D01*
X105693637Y-97846683D01*
X105929339Y-97610981D01*
X106097698Y-97509965D01*
X106232385Y-97509965D01*
X106333400Y-97543637D01*
X106468087Y-97678324D01*
X106501759Y-97779339D01*
X106501759Y-97914026D01*
X106400744Y-98082385D01*
X106165042Y-98318087D01*
X105996683Y-98419103D01*
X105861996Y-98419103D01*
X105760981Y-98385431D01*
X104818172Y-97375278D02*
X104851843Y-97476294D01*
X104952859Y-97577309D01*
X105087546Y-97644652D01*
X105222233Y-97644652D01*
X105323248Y-97610981D01*
X105491607Y-97509965D01*
X105592622Y-97408950D01*
X105693637Y-97240591D01*
X105727309Y-97139576D01*
X105727309Y-97004889D01*
X105659965Y-96870202D01*
X105592622Y-96802859D01*
X105457935Y-96735515D01*
X105390591Y-96735515D01*
X105154889Y-96971217D01*
X105289576Y-97105904D01*
X162116300Y-94403600D02*
G75*
G03*
X162116300Y-94403600I-3000000J0D01*
G01*
X105086400Y-94396400D02*
G75*
G03*
X105086400Y-94396400I-3000000J0D01*
G01*
X130098200Y-94397600D02*
G75*
G03*
X130098200Y-94397600I-3000000J0D01*
G01*
X110370000Y-100161904D02*
X110322380Y-100257142D01*
X110322380Y-100400000D01*
X110370000Y-100542857D01*
X110465238Y-100638095D01*
X110560476Y-100685714D01*
X110750952Y-100733333D01*
X110893809Y-100733333D01*
X111084285Y-100685714D01*
X111179523Y-100638095D01*
X111274761Y-100542857D01*
X111322380Y-100400000D01*
X111322380Y-100304761D01*
X111274761Y-100161904D01*
X111227142Y-100114285D01*
X110893809Y-100114285D01*
X110893809Y-100304761D01*
X111322380Y-99685714D02*
X110322380Y-99685714D01*
X111322380Y-99114285D01*
X110322380Y-99114285D01*
X111322380Y-98638095D02*
X110322380Y-98638095D01*
X110322380Y-98400000D01*
X110370000Y-98257142D01*
X110465238Y-98161904D01*
X110560476Y-98114285D01*
X110750952Y-98066666D01*
X110893809Y-98066666D01*
X111084285Y-98114285D01*
X111179523Y-98161904D01*
X111274761Y-98257142D01*
X111322380Y-98400000D01*
X111322380Y-98638095D01*
X110370000Y-89961904D02*
X110322380Y-90057142D01*
X110322380Y-90200000D01*
X110370000Y-90342857D01*
X110465238Y-90438095D01*
X110560476Y-90485714D01*
X110750952Y-90533333D01*
X110893809Y-90533333D01*
X111084285Y-90485714D01*
X111179523Y-90438095D01*
X111274761Y-90342857D01*
X111322380Y-90200000D01*
X111322380Y-90104761D01*
X111274761Y-89961904D01*
X111227142Y-89914285D01*
X110893809Y-89914285D01*
X110893809Y-90104761D01*
X111322380Y-89485714D02*
X110322380Y-89485714D01*
X111322380Y-88914285D01*
X110322380Y-88914285D01*
X111322380Y-88438095D02*
X110322380Y-88438095D01*
X110322380Y-88200000D01*
X110370000Y-88057142D01*
X110465238Y-87961904D01*
X110560476Y-87914285D01*
X110750952Y-87866666D01*
X110893809Y-87866666D01*
X111084285Y-87914285D01*
X111179523Y-87961904D01*
X111274761Y-88057142D01*
X111322380Y-88200000D01*
X111322380Y-88438095D01*
X143570000Y-75161904D02*
X143522380Y-75257142D01*
X143522380Y-75400000D01*
X143570000Y-75542857D01*
X143665238Y-75638095D01*
X143760476Y-75685714D01*
X143950952Y-75733333D01*
X144093809Y-75733333D01*
X144284285Y-75685714D01*
X144379523Y-75638095D01*
X144474761Y-75542857D01*
X144522380Y-75400000D01*
X144522380Y-75304761D01*
X144474761Y-75161904D01*
X144427142Y-75114285D01*
X144093809Y-75114285D01*
X144093809Y-75304761D01*
X144522380Y-74685714D02*
X143522380Y-74685714D01*
X144522380Y-74114285D01*
X143522380Y-74114285D01*
X144522380Y-73638095D02*
X143522380Y-73638095D01*
X143522380Y-73400000D01*
X143570000Y-73257142D01*
X143665238Y-73161904D01*
X143760476Y-73114285D01*
X143950952Y-73066666D01*
X144093809Y-73066666D01*
X144284285Y-73114285D01*
X144379523Y-73161904D01*
X144474761Y-73257142D01*
X144522380Y-73400000D01*
X144522380Y-73638095D01*
X151022380Y-81328571D02*
X150022380Y-81328571D01*
X151022380Y-80852380D02*
X150022380Y-80852380D01*
X151022380Y-80280952D01*
X150022380Y-80280952D01*
X151022380Y-79804761D02*
X150022380Y-79804761D01*
X150022380Y-79423809D01*
X150070000Y-79328571D01*
X150117619Y-79280952D01*
X150212857Y-79233333D01*
X150355714Y-79233333D01*
X150450952Y-79280952D01*
X150498571Y-79328571D01*
X150546190Y-79423809D01*
X150546190Y-79804761D01*
X150022380Y-78804761D02*
X150831904Y-78804761D01*
X150927142Y-78757142D01*
X150974761Y-78709523D01*
X151022380Y-78614285D01*
X151022380Y-78423809D01*
X150974761Y-78328571D01*
X150927142Y-78280952D01*
X150831904Y-78233333D01*
X150022380Y-78233333D01*
X150022380Y-77900000D02*
X150022380Y-77328571D01*
X151022380Y-77614285D02*
X150022380Y-77614285D01*
X153770000Y-85161904D02*
X153722380Y-85257142D01*
X153722380Y-85400000D01*
X153770000Y-85542857D01*
X153865238Y-85638095D01*
X153960476Y-85685714D01*
X154150952Y-85733333D01*
X154293809Y-85733333D01*
X154484285Y-85685714D01*
X154579523Y-85638095D01*
X154674761Y-85542857D01*
X154722380Y-85400000D01*
X154722380Y-85304761D01*
X154674761Y-85161904D01*
X154627142Y-85114285D01*
X154293809Y-85114285D01*
X154293809Y-85304761D01*
X154722380Y-84685714D02*
X153722380Y-84685714D01*
X154722380Y-84114285D01*
X153722380Y-84114285D01*
X154722380Y-83638095D02*
X153722380Y-83638095D01*
X153722380Y-83400000D01*
X153770000Y-83257142D01*
X153865238Y-83161904D01*
X153960476Y-83114285D01*
X154150952Y-83066666D01*
X154293809Y-83066666D01*
X154484285Y-83114285D01*
X154579523Y-83161904D01*
X154674761Y-83257142D01*
X154722380Y-83400000D01*
X154722380Y-83638095D01*
X106474761Y-77690476D02*
X106522380Y-77547619D01*
X106522380Y-77309523D01*
X106474761Y-77214285D01*
X106427142Y-77166666D01*
X106331904Y-77119047D01*
X106236666Y-77119047D01*
X106141428Y-77166666D01*
X106093809Y-77214285D01*
X106046190Y-77309523D01*
X105998571Y-77500000D01*
X105950952Y-77595238D01*
X105903333Y-77642857D01*
X105808095Y-77690476D01*
X105712857Y-77690476D01*
X105617619Y-77642857D01*
X105570000Y-77595238D01*
X105522380Y-77500000D01*
X105522380Y-77261904D01*
X105570000Y-77119047D01*
X106427142Y-76119047D02*
X106474761Y-76166666D01*
X106522380Y-76309523D01*
X106522380Y-76404761D01*
X106474761Y-76547619D01*
X106379523Y-76642857D01*
X106284285Y-76690476D01*
X106093809Y-76738095D01*
X105950952Y-76738095D01*
X105760476Y-76690476D01*
X105665238Y-76642857D01*
X105570000Y-76547619D01*
X105522380Y-76404761D01*
X105522380Y-76309523D01*
X105570000Y-76166666D01*
X105617619Y-76119047D01*
X106522380Y-75214285D02*
X106522380Y-75690476D01*
X105522380Y-75690476D01*
X117822380Y-85633333D02*
X118822380Y-85300000D01*
X117822380Y-84966666D01*
X118822380Y-84633333D02*
X117822380Y-84633333D01*
X117822380Y-84395238D01*
X117870000Y-84252380D01*
X117965238Y-84157142D01*
X118060476Y-84109523D01*
X118250952Y-84061904D01*
X118393809Y-84061904D01*
X118584285Y-84109523D01*
X118679523Y-84157142D01*
X118774761Y-84252380D01*
X118822380Y-84395238D01*
X118822380Y-84633333D01*
X118822380Y-83633333D02*
X117822380Y-83633333D01*
X117822380Y-83395238D01*
X117870000Y-83252380D01*
X117965238Y-83157142D01*
X118060476Y-83109523D01*
X118250952Y-83061904D01*
X118393809Y-83061904D01*
X118584285Y-83109523D01*
X118679523Y-83157142D01*
X118774761Y-83252380D01*
X118822380Y-83395238D01*
X118822380Y-83633333D01*
X137104500Y-79402400D02*
G75*
G03*
X137104500Y-79402400I-3000000J0D01*
G01*
X106574761Y-80914285D02*
X106622380Y-80771428D01*
X106622380Y-80533333D01*
X106574761Y-80438095D01*
X106527142Y-80390476D01*
X106431904Y-80342857D01*
X106336666Y-80342857D01*
X106241428Y-80390476D01*
X106193809Y-80438095D01*
X106146190Y-80533333D01*
X106098571Y-80723809D01*
X106050952Y-80819047D01*
X106003333Y-80866666D01*
X105908095Y-80914285D01*
X105812857Y-80914285D01*
X105717619Y-80866666D01*
X105670000Y-80819047D01*
X105622380Y-80723809D01*
X105622380Y-80485714D01*
X105670000Y-80342857D01*
X106622380Y-79914285D02*
X105622380Y-79914285D01*
X105622380Y-79676190D01*
X105670000Y-79533333D01*
X105765238Y-79438095D01*
X105860476Y-79390476D01*
X106050952Y-79342857D01*
X106193809Y-79342857D01*
X106384285Y-79390476D01*
X106479523Y-79438095D01*
X106574761Y-79533333D01*
X106622380Y-79676190D01*
X106622380Y-79914285D01*
X106336666Y-78961904D02*
X106336666Y-78485714D01*
X106622380Y-79057142D02*
X105622380Y-78723809D01*
X106622380Y-78390476D01*
X117822380Y-75733333D02*
X118822380Y-75400000D01*
X117822380Y-75066666D01*
X118822380Y-74733333D02*
X117822380Y-74733333D01*
X117822380Y-74495238D01*
X117870000Y-74352380D01*
X117965238Y-74257142D01*
X118060476Y-74209523D01*
X118250952Y-74161904D01*
X118393809Y-74161904D01*
X118584285Y-74209523D01*
X118679523Y-74257142D01*
X118774761Y-74352380D01*
X118822380Y-74495238D01*
X118822380Y-74733333D01*
X118822380Y-73733333D02*
X117822380Y-73733333D01*
X117822380Y-73495238D01*
X117870000Y-73352380D01*
X117965238Y-73257142D01*
X118060476Y-73209523D01*
X118250952Y-73161904D01*
X118393809Y-73161904D01*
X118584285Y-73209523D01*
X118679523Y-73257142D01*
X118774761Y-73352380D01*
X118822380Y-73495238D01*
X118822380Y-73733333D01*
X108959797Y-85574095D02*
X108623079Y-85237377D01*
X109229171Y-85439408D02*
X108286362Y-85910812D01*
X108757766Y-84968003D01*
X108522064Y-84732301D02*
X107814957Y-85439408D01*
X108118003Y-84328240D01*
X107410896Y-85035347D01*
X107612927Y-84227225D02*
X107276209Y-83890507D01*
X107882301Y-84092538D02*
X106939492Y-84563942D01*
X107410896Y-83621133D01*
X106838477Y-83048713D02*
X107175194Y-83385431D01*
X106468087Y-84092538D01*
X105760981Y-83385431D02*
X105626294Y-83250744D01*
X105592622Y-83149729D01*
X105592622Y-83015042D01*
X105693637Y-82846683D01*
X105929339Y-82610981D01*
X106097698Y-82509965D01*
X106232385Y-82509965D01*
X106333400Y-82543637D01*
X106468087Y-82678324D01*
X106501759Y-82779339D01*
X106501759Y-82914026D01*
X106400744Y-83082385D01*
X106165042Y-83318087D01*
X105996683Y-83419103D01*
X105861996Y-83419103D01*
X105760981Y-83385431D01*
X104818172Y-82375278D02*
X104851843Y-82476294D01*
X104952859Y-82577309D01*
X105087546Y-82644652D01*
X105222233Y-82644652D01*
X105323248Y-82610981D01*
X105491607Y-82509965D01*
X105592622Y-82408950D01*
X105693637Y-82240591D01*
X105727309Y-82139576D01*
X105727309Y-82004889D01*
X105659965Y-81870202D01*
X105592622Y-81802859D01*
X105457935Y-81735515D01*
X105390591Y-81735515D01*
X105154889Y-81971217D01*
X105289576Y-82105904D01*
X162116300Y-79403600D02*
G75*
G03*
X162116300Y-79403600I-3000000J0D01*
G01*
X105086400Y-79396400D02*
G75*
G03*
X105086400Y-79396400I-3000000J0D01*
G01*
X130098200Y-79397600D02*
G75*
G03*
X130098200Y-79397600I-3000000J0D01*
G01*
X110370000Y-85161904D02*
X110322380Y-85257142D01*
X110322380Y-85400000D01*
X110370000Y-85542857D01*
X110465238Y-85638095D01*
X110560476Y-85685714D01*
X110750952Y-85733333D01*
X110893809Y-85733333D01*
X111084285Y-85685714D01*
X111179523Y-85638095D01*
X111274761Y-85542857D01*
X111322380Y-85400000D01*
X111322380Y-85304761D01*
X111274761Y-85161904D01*
X111227142Y-85114285D01*
X110893809Y-85114285D01*
X110893809Y-85304761D01*
X111322380Y-84685714D02*
X110322380Y-84685714D01*
X111322380Y-84114285D01*
X110322380Y-84114285D01*
X111322380Y-83638095D02*
X110322380Y-83638095D01*
X110322380Y-83400000D01*
X110370000Y-83257142D01*
X110465238Y-83161904D01*
X110560476Y-83114285D01*
X110750952Y-83066666D01*
X110893809Y-83066666D01*
X111084285Y-83114285D01*
X111179523Y-83161904D01*
X111274761Y-83257142D01*
X111322380Y-83400000D01*
X111322380Y-83638095D01*
X110370000Y-74961904D02*
X110322380Y-75057142D01*
X110322380Y-75200000D01*
X110370000Y-75342857D01*
X110465238Y-75438095D01*
X110560476Y-75485714D01*
X110750952Y-75533333D01*
X110893809Y-75533333D01*
X111084285Y-75485714D01*
X111179523Y-75438095D01*
X111274761Y-75342857D01*
X111322380Y-75200000D01*
X111322380Y-75104761D01*
X111274761Y-74961904D01*
X111227142Y-74914285D01*
X110893809Y-74914285D01*
X110893809Y-75104761D01*
X111322380Y-74485714D02*
X110322380Y-74485714D01*
X111322380Y-73914285D01*
X110322380Y-73914285D01*
X111322380Y-73438095D02*
X110322380Y-73438095D01*
X110322380Y-73200000D01*
X110370000Y-73057142D01*
X110465238Y-72961904D01*
X110560476Y-72914285D01*
X110750952Y-72866666D01*
X110893809Y-72866666D01*
X111084285Y-72914285D01*
X111179523Y-72961904D01*
X111274761Y-73057142D01*
X111322380Y-73200000D01*
X111322380Y-73438095D01*
X141980952Y-54052380D02*
X141980952Y-54766666D01*
X141933333Y-54909523D01*
X141838095Y-55004761D01*
X141695238Y-55052380D01*
X141600000Y-55052380D01*
X142933333Y-55052380D02*
X142457142Y-55052380D01*
X142457142Y-54052380D01*
X143838095Y-54957142D02*
X143790476Y-55004761D01*
X143647619Y-55052380D01*
X143552380Y-55052380D01*
X143409523Y-55004761D01*
X143314285Y-54909523D01*
X143266666Y-54814285D01*
X143219047Y-54623809D01*
X143219047Y-54480952D01*
X143266666Y-54290476D01*
X143314285Y-54195238D01*
X143409523Y-54100000D01*
X143552380Y-54052380D01*
X143647619Y-54052380D01*
X143790476Y-54100000D01*
X143838095Y-54147619D01*
X144552380Y-54052380D02*
X144552380Y-54766666D01*
X144504761Y-54909523D01*
X144409523Y-55004761D01*
X144266666Y-55052380D01*
X144171428Y-55052380D01*
X145504761Y-55052380D02*
X145028571Y-55052380D01*
X145028571Y-54052380D01*
X146409523Y-54957142D02*
X146361904Y-55004761D01*
X146219047Y-55052380D01*
X146123809Y-55052380D01*
X145980952Y-55004761D01*
X145885714Y-54909523D01*
X145838095Y-54814285D01*
X145790476Y-54623809D01*
X145790476Y-54480952D01*
X145838095Y-54290476D01*
X145885714Y-54195238D01*
X145980952Y-54100000D01*
X146123809Y-54052380D01*
X146219047Y-54052380D01*
X146361904Y-54100000D01*
X146409523Y-54147619D01*
X147123809Y-54052380D02*
X147123809Y-54766666D01*
X147076190Y-54909523D01*
X146980952Y-55004761D01*
X146838095Y-55052380D01*
X146742857Y-55052380D01*
X148076190Y-55052380D02*
X147600000Y-55052380D01*
X147600000Y-54052380D01*
X148980952Y-54957142D02*
X148933333Y-55004761D01*
X148790476Y-55052380D01*
X148695238Y-55052380D01*
X148552380Y-55004761D01*
X148457142Y-54909523D01*
X148409523Y-54814285D01*
X148361904Y-54623809D01*
X148361904Y-54480952D01*
X148409523Y-54290476D01*
X148457142Y-54195238D01*
X148552380Y-54100000D01*
X148695238Y-54052380D01*
X148790476Y-54052380D01*
X148933333Y-54100000D01*
X148980952Y-54147619D01*
X149695238Y-54052380D02*
X149695238Y-54766666D01*
X149647619Y-54909523D01*
X149552380Y-55004761D01*
X149409523Y-55052380D01*
X149314285Y-55052380D01*
X150647619Y-55052380D02*
X150171428Y-55052380D01*
X150171428Y-54052380D01*
X151552380Y-54957142D02*
X151504761Y-55004761D01*
X151361904Y-55052380D01*
X151266666Y-55052380D01*
X151123809Y-55004761D01*
X151028571Y-54909523D01*
X150980952Y-54814285D01*
X150933333Y-54623809D01*
X150933333Y-54480952D01*
X150980952Y-54290476D01*
X151028571Y-54195238D01*
X151123809Y-54100000D01*
X151266666Y-54052380D01*
X151361904Y-54052380D01*
X151504761Y-54100000D01*
X151552380Y-54147619D01*
X162116300Y-64403600D02*
G75*
G03*
X162116300Y-64403600I-3000000J0D01*
G01*
X137104500Y-64402400D02*
G75*
G03*
X137104500Y-64402400I-3000000J0D01*
G01*
X143570000Y-60161904D02*
X143522380Y-60257142D01*
X143522380Y-60400000D01*
X143570000Y-60542857D01*
X143665238Y-60638095D01*
X143760476Y-60685714D01*
X143950952Y-60733333D01*
X144093809Y-60733333D01*
X144284285Y-60685714D01*
X144379523Y-60638095D01*
X144474761Y-60542857D01*
X144522380Y-60400000D01*
X144522380Y-60304761D01*
X144474761Y-60161904D01*
X144427142Y-60114285D01*
X144093809Y-60114285D01*
X144093809Y-60304761D01*
X144522380Y-59685714D02*
X143522380Y-59685714D01*
X144522380Y-59114285D01*
X143522380Y-59114285D01*
X144522380Y-58638095D02*
X143522380Y-58638095D01*
X143522380Y-58400000D01*
X143570000Y-58257142D01*
X143665238Y-58161904D01*
X143760476Y-58114285D01*
X143950952Y-58066666D01*
X144093809Y-58066666D01*
X144284285Y-58114285D01*
X144379523Y-58161904D01*
X144474761Y-58257142D01*
X144522380Y-58400000D01*
X144522380Y-58638095D01*
X153770000Y-70161904D02*
X153722380Y-70257142D01*
X153722380Y-70400000D01*
X153770000Y-70542857D01*
X153865238Y-70638095D01*
X153960476Y-70685714D01*
X154150952Y-70733333D01*
X154293809Y-70733333D01*
X154484285Y-70685714D01*
X154579523Y-70638095D01*
X154674761Y-70542857D01*
X154722380Y-70400000D01*
X154722380Y-70304761D01*
X154674761Y-70161904D01*
X154627142Y-70114285D01*
X154293809Y-70114285D01*
X154293809Y-70304761D01*
X154722380Y-69685714D02*
X153722380Y-69685714D01*
X154722380Y-69114285D01*
X153722380Y-69114285D01*
X154722380Y-68638095D02*
X153722380Y-68638095D01*
X153722380Y-68400000D01*
X153770000Y-68257142D01*
X153865238Y-68161904D01*
X153960476Y-68114285D01*
X154150952Y-68066666D01*
X154293809Y-68066666D01*
X154484285Y-68114285D01*
X154579523Y-68161904D01*
X154674761Y-68257142D01*
X154722380Y-68400000D01*
X154722380Y-68638095D01*
X151022380Y-66328571D02*
X150022380Y-66328571D01*
X151022380Y-65852380D02*
X150022380Y-65852380D01*
X151022380Y-65280952D01*
X150022380Y-65280952D01*
X151022380Y-64804761D02*
X150022380Y-64804761D01*
X150022380Y-64423809D01*
X150070000Y-64328571D01*
X150117619Y-64280952D01*
X150212857Y-64233333D01*
X150355714Y-64233333D01*
X150450952Y-64280952D01*
X150498571Y-64328571D01*
X150546190Y-64423809D01*
X150546190Y-64804761D01*
X150022380Y-63804761D02*
X150831904Y-63804761D01*
X150927142Y-63757142D01*
X150974761Y-63709523D01*
X151022380Y-63614285D01*
X151022380Y-63423809D01*
X150974761Y-63328571D01*
X150927142Y-63280952D01*
X150831904Y-63233333D01*
X150022380Y-63233333D01*
X150022380Y-62900000D02*
X150022380Y-62328571D01*
X151022380Y-62614285D02*
X150022380Y-62614285D01*
X130098200Y-64397600D02*
G75*
G03*
X130098200Y-64397600I-3000000J0D01*
G01*
X105086400Y-64396400D02*
G75*
G03*
X105086400Y-64396400I-3000000J0D01*
G01*
X106474761Y-62690476D02*
X106522380Y-62547619D01*
X106522380Y-62309523D01*
X106474761Y-62214285D01*
X106427142Y-62166666D01*
X106331904Y-62119047D01*
X106236666Y-62119047D01*
X106141428Y-62166666D01*
X106093809Y-62214285D01*
X106046190Y-62309523D01*
X105998571Y-62500000D01*
X105950952Y-62595238D01*
X105903333Y-62642857D01*
X105808095Y-62690476D01*
X105712857Y-62690476D01*
X105617619Y-62642857D01*
X105570000Y-62595238D01*
X105522380Y-62500000D01*
X105522380Y-62261904D01*
X105570000Y-62119047D01*
X106427142Y-61119047D02*
X106474761Y-61166666D01*
X106522380Y-61309523D01*
X106522380Y-61404761D01*
X106474761Y-61547619D01*
X106379523Y-61642857D01*
X106284285Y-61690476D01*
X106093809Y-61738095D01*
X105950952Y-61738095D01*
X105760476Y-61690476D01*
X105665238Y-61642857D01*
X105570000Y-61547619D01*
X105522380Y-61404761D01*
X105522380Y-61309523D01*
X105570000Y-61166666D01*
X105617619Y-61119047D01*
X106522380Y-60214285D02*
X106522380Y-60690476D01*
X105522380Y-60690476D01*
X108959797Y-70574095D02*
X108623079Y-70237377D01*
X109229171Y-70439408D02*
X108286362Y-70910812D01*
X108757766Y-69968003D01*
X108522064Y-69732301D02*
X107814957Y-70439408D01*
X108118003Y-69328240D01*
X107410896Y-70035347D01*
X107612927Y-69227225D02*
X107276209Y-68890507D01*
X107882301Y-69092538D02*
X106939492Y-69563942D01*
X107410896Y-68621133D01*
X106838477Y-68048713D02*
X107175194Y-68385431D01*
X106468087Y-69092538D01*
X105760981Y-68385431D02*
X105626294Y-68250744D01*
X105592622Y-68149729D01*
X105592622Y-68015042D01*
X105693637Y-67846683D01*
X105929339Y-67610981D01*
X106097698Y-67509965D01*
X106232385Y-67509965D01*
X106333400Y-67543637D01*
X106468087Y-67678324D01*
X106501759Y-67779339D01*
X106501759Y-67914026D01*
X106400744Y-68082385D01*
X106165042Y-68318087D01*
X105996683Y-68419103D01*
X105861996Y-68419103D01*
X105760981Y-68385431D01*
X104818172Y-67375278D02*
X104851843Y-67476294D01*
X104952859Y-67577309D01*
X105087546Y-67644652D01*
X105222233Y-67644652D01*
X105323248Y-67610981D01*
X105491607Y-67509965D01*
X105592622Y-67408950D01*
X105693637Y-67240591D01*
X105727309Y-67139576D01*
X105727309Y-67004889D01*
X105659965Y-66870202D01*
X105592622Y-66802859D01*
X105457935Y-66735515D01*
X105390591Y-66735515D01*
X105154889Y-66971217D01*
X105289576Y-67105904D01*
X117822380Y-60733333D02*
X118822380Y-60400000D01*
X117822380Y-60066666D01*
X118822380Y-59733333D02*
X117822380Y-59733333D01*
X117822380Y-59495238D01*
X117870000Y-59352380D01*
X117965238Y-59257142D01*
X118060476Y-59209523D01*
X118250952Y-59161904D01*
X118393809Y-59161904D01*
X118584285Y-59209523D01*
X118679523Y-59257142D01*
X118774761Y-59352380D01*
X118822380Y-59495238D01*
X118822380Y-59733333D01*
X118822380Y-58733333D02*
X117822380Y-58733333D01*
X117822380Y-58495238D01*
X117870000Y-58352380D01*
X117965238Y-58257142D01*
X118060476Y-58209523D01*
X118250952Y-58161904D01*
X118393809Y-58161904D01*
X118584285Y-58209523D01*
X118679523Y-58257142D01*
X118774761Y-58352380D01*
X118822380Y-58495238D01*
X118822380Y-58733333D01*
X106574761Y-65914285D02*
X106622380Y-65771428D01*
X106622380Y-65533333D01*
X106574761Y-65438095D01*
X106527142Y-65390476D01*
X106431904Y-65342857D01*
X106336666Y-65342857D01*
X106241428Y-65390476D01*
X106193809Y-65438095D01*
X106146190Y-65533333D01*
X106098571Y-65723809D01*
X106050952Y-65819047D01*
X106003333Y-65866666D01*
X105908095Y-65914285D01*
X105812857Y-65914285D01*
X105717619Y-65866666D01*
X105670000Y-65819047D01*
X105622380Y-65723809D01*
X105622380Y-65485714D01*
X105670000Y-65342857D01*
X106622380Y-64914285D02*
X105622380Y-64914285D01*
X105622380Y-64676190D01*
X105670000Y-64533333D01*
X105765238Y-64438095D01*
X105860476Y-64390476D01*
X106050952Y-64342857D01*
X106193809Y-64342857D01*
X106384285Y-64390476D01*
X106479523Y-64438095D01*
X106574761Y-64533333D01*
X106622380Y-64676190D01*
X106622380Y-64914285D01*
X106336666Y-63961904D02*
X106336666Y-63485714D01*
X106622380Y-64057142D02*
X105622380Y-63723809D01*
X106622380Y-63390476D01*
X117822380Y-70633333D02*
X118822380Y-70300000D01*
X117822380Y-69966666D01*
X118822380Y-69633333D02*
X117822380Y-69633333D01*
X117822380Y-69395238D01*
X117870000Y-69252380D01*
X117965238Y-69157142D01*
X118060476Y-69109523D01*
X118250952Y-69061904D01*
X118393809Y-69061904D01*
X118584285Y-69109523D01*
X118679523Y-69157142D01*
X118774761Y-69252380D01*
X118822380Y-69395238D01*
X118822380Y-69633333D01*
X118822380Y-68633333D02*
X117822380Y-68633333D01*
X117822380Y-68395238D01*
X117870000Y-68252380D01*
X117965238Y-68157142D01*
X118060476Y-68109523D01*
X118250952Y-68061904D01*
X118393809Y-68061904D01*
X118584285Y-68109523D01*
X118679523Y-68157142D01*
X118774761Y-68252380D01*
X118822380Y-68395238D01*
X118822380Y-68633333D01*
X110370000Y-59961904D02*
X110322380Y-60057142D01*
X110322380Y-60200000D01*
X110370000Y-60342857D01*
X110465238Y-60438095D01*
X110560476Y-60485714D01*
X110750952Y-60533333D01*
X110893809Y-60533333D01*
X111084285Y-60485714D01*
X111179523Y-60438095D01*
X111274761Y-60342857D01*
X111322380Y-60200000D01*
X111322380Y-60104761D01*
X111274761Y-59961904D01*
X111227142Y-59914285D01*
X110893809Y-59914285D01*
X110893809Y-60104761D01*
X111322380Y-59485714D02*
X110322380Y-59485714D01*
X111322380Y-58914285D01*
X110322380Y-58914285D01*
X111322380Y-58438095D02*
X110322380Y-58438095D01*
X110322380Y-58200000D01*
X110370000Y-58057142D01*
X110465238Y-57961904D01*
X110560476Y-57914285D01*
X110750952Y-57866666D01*
X110893809Y-57866666D01*
X111084285Y-57914285D01*
X111179523Y-57961904D01*
X111274761Y-58057142D01*
X111322380Y-58200000D01*
X111322380Y-58438095D01*
X110370000Y-70161904D02*
X110322380Y-70257142D01*
X110322380Y-70400000D01*
X110370000Y-70542857D01*
X110465238Y-70638095D01*
X110560476Y-70685714D01*
X110750952Y-70733333D01*
X110893809Y-70733333D01*
X111084285Y-70685714D01*
X111179523Y-70638095D01*
X111274761Y-70542857D01*
X111322380Y-70400000D01*
X111322380Y-70304761D01*
X111274761Y-70161904D01*
X111227142Y-70114285D01*
X110893809Y-70114285D01*
X110893809Y-70304761D01*
X111322380Y-69685714D02*
X110322380Y-69685714D01*
X111322380Y-69114285D01*
X110322380Y-69114285D01*
X111322380Y-68638095D02*
X110322380Y-68638095D01*
X110322380Y-68400000D01*
X110370000Y-68257142D01*
X110465238Y-68161904D01*
X110560476Y-68114285D01*
X110750952Y-68066666D01*
X110893809Y-68066666D01*
X111084285Y-68114285D01*
X111179523Y-68161904D01*
X111274761Y-68257142D01*
X111322380Y-68400000D01*
X111322380Y-68638095D01*
D11*
%TO.C,D1*%
X181097300Y-139400000D02*
G75*
G03*
X181097300Y-139400000I-2500000J0D01*
G01*
X176037300Y-137855000D02*
X176037300Y-140945000D01*
X181587300Y-139400462D02*
G75*
G03*
X176037300Y-137855170I-2990000J462D01*
G01*
X181587300Y-139399538D02*
G75*
G02*
X176037300Y-140944830I-2990000J-462D01*
G01*
%TO.C,J2*%
X172237300Y-135730000D02*
X172237300Y-134400000D01*
X173567300Y-135730000D02*
X172237300Y-135730000D01*
X174837300Y-135730000D02*
X174837300Y-133070000D01*
X174837300Y-133070000D02*
X174897300Y-133070000D01*
X174837300Y-135730000D02*
X174897300Y-135730000D01*
X174897300Y-135730000D02*
X174897300Y-133070000D01*
%TO.C,R2*%
X184342579Y-135790000D02*
X184017021Y-135790000D01*
X184342579Y-136810000D02*
X184017021Y-136810000D01*
%TO.C,J5*%
X186297300Y-140730000D02*
X186297300Y-138070000D01*
X186237300Y-140730000D02*
X186297300Y-140730000D01*
X186237300Y-138070000D02*
X186297300Y-138070000D01*
X186237300Y-140730000D02*
X186237300Y-138070000D01*
X184967300Y-140730000D02*
X183637300Y-140730000D01*
X183637300Y-140730000D02*
X183637300Y-139400000D01*
%TO.C,J3*%
X184997300Y-145830000D02*
X184997300Y-143170000D01*
X184937300Y-145830000D02*
X184997300Y-145830000D01*
X184937300Y-143170000D02*
X184997300Y-143170000D01*
X184937300Y-145830000D02*
X184937300Y-143170000D01*
X183667300Y-145830000D02*
X182337300Y-145830000D01*
X182337300Y-145830000D02*
X182337300Y-144500000D01*
%TO.C,D1*%
X181097300Y-124400000D02*
G75*
G03*
X181097300Y-124400000I-2500000J0D01*
G01*
X176037300Y-122855000D02*
X176037300Y-125945000D01*
X181587300Y-124400462D02*
G75*
G03*
X176037300Y-122855170I-2990000J462D01*
G01*
X181587300Y-124399538D02*
G75*
G02*
X176037300Y-125944830I-2990000J-462D01*
G01*
%TO.C,J2*%
X172237300Y-120730000D02*
X172237300Y-119400000D01*
X173567300Y-120730000D02*
X172237300Y-120730000D01*
X174837300Y-120730000D02*
X174837300Y-118070000D01*
X174837300Y-118070000D02*
X174897300Y-118070000D01*
X174837300Y-120730000D02*
X174897300Y-120730000D01*
X174897300Y-120730000D02*
X174897300Y-118070000D01*
%TO.C,R2*%
X184342579Y-120790000D02*
X184017021Y-120790000D01*
X184342579Y-121810000D02*
X184017021Y-121810000D01*
%TO.C,J5*%
X186297300Y-125730000D02*
X186297300Y-123070000D01*
X186237300Y-125730000D02*
X186297300Y-125730000D01*
X186237300Y-123070000D02*
X186297300Y-123070000D01*
X186237300Y-125730000D02*
X186237300Y-123070000D01*
X184967300Y-125730000D02*
X183637300Y-125730000D01*
X183637300Y-125730000D02*
X183637300Y-124400000D01*
%TO.C,J3*%
X184997300Y-130830000D02*
X184997300Y-128170000D01*
X184937300Y-130830000D02*
X184997300Y-130830000D01*
X184937300Y-128170000D02*
X184997300Y-128170000D01*
X184937300Y-130830000D02*
X184937300Y-128170000D01*
X183667300Y-130830000D02*
X182337300Y-130830000D01*
X182337300Y-130830000D02*
X182337300Y-129500000D01*
%TO.C,D1*%
X181097300Y-109400000D02*
G75*
G03*
X181097300Y-109400000I-2500000J0D01*
G01*
X176037300Y-107855000D02*
X176037300Y-110945000D01*
X181587300Y-109400462D02*
G75*
G03*
X176037300Y-107855170I-2990000J462D01*
G01*
X181587300Y-109399538D02*
G75*
G02*
X176037300Y-110944830I-2990000J-462D01*
G01*
%TO.C,J2*%
X172237300Y-105730000D02*
X172237300Y-104400000D01*
X173567300Y-105730000D02*
X172237300Y-105730000D01*
X174837300Y-105730000D02*
X174837300Y-103070000D01*
X174837300Y-103070000D02*
X174897300Y-103070000D01*
X174837300Y-105730000D02*
X174897300Y-105730000D01*
X174897300Y-105730000D02*
X174897300Y-103070000D01*
%TO.C,R2*%
X184342579Y-105790000D02*
X184017021Y-105790000D01*
X184342579Y-106810000D02*
X184017021Y-106810000D01*
%TO.C,J5*%
X186297300Y-110730000D02*
X186297300Y-108070000D01*
X186237300Y-110730000D02*
X186297300Y-110730000D01*
X186237300Y-108070000D02*
X186297300Y-108070000D01*
X186237300Y-110730000D02*
X186237300Y-108070000D01*
X184967300Y-110730000D02*
X183637300Y-110730000D01*
X183637300Y-110730000D02*
X183637300Y-109400000D01*
%TO.C,J3*%
X184997300Y-115830000D02*
X184997300Y-113170000D01*
X184937300Y-115830000D02*
X184997300Y-115830000D01*
X184937300Y-113170000D02*
X184997300Y-113170000D01*
X184937300Y-115830000D02*
X184937300Y-113170000D01*
X183667300Y-115830000D02*
X182337300Y-115830000D01*
X182337300Y-115830000D02*
X182337300Y-114500000D01*
%TO.C,J4*%
X181197300Y-90730000D02*
X181197300Y-88070000D01*
X178597300Y-90730000D02*
X181197300Y-90730000D01*
X178597300Y-88070000D02*
X181197300Y-88070000D01*
X178597300Y-90730000D02*
X178597300Y-88070000D01*
X177327300Y-90730000D02*
X175997300Y-90730000D01*
X175997300Y-90730000D02*
X175997300Y-89400000D01*
%TO.C,J1*%
X181197300Y-98070000D02*
X181197300Y-99400000D01*
X179867300Y-98070000D02*
X181197300Y-98070000D01*
X178597300Y-98070000D02*
X178597300Y-100730000D01*
X178597300Y-100730000D02*
X175997300Y-100730000D01*
X178597300Y-98070000D02*
X175997300Y-98070000D01*
X175997300Y-98070000D02*
X175997300Y-100730000D01*
%TO.C,J6*%
X174197300Y-90530000D02*
X171537300Y-90530000D01*
X174197300Y-95670000D02*
X174197300Y-90530000D01*
X171537300Y-95670000D02*
X171537300Y-90530000D01*
X174197300Y-95670000D02*
X171537300Y-95670000D01*
X174197300Y-96940000D02*
X174197300Y-98270000D01*
X174197300Y-98270000D02*
X172867300Y-98270000D01*
%TO.C,U1*%
X176100000Y-97400000D02*
X183100000Y-97400000D01*
X176100000Y-97400000D02*
X176100000Y-91400000D01*
X183100000Y-91400000D02*
X176100000Y-91400000D01*
X183100000Y-97400000D02*
X183100000Y-91400000D01*
X183100000Y-94400000D02*
X185600000Y-94400000D01*
X180850000Y-94400000D02*
G75*
G03*
X180850000Y-94400000I-2250000J0D01*
G01*
X183100000Y-96940000D02*
X185600000Y-96940000D01*
X183100000Y-91860000D02*
X185600000Y-91860000D01*
X179810000Y-93800000D02*
X180090000Y-93520000D01*
X178100000Y-94650000D02*
G75*
G03*
X178100000Y-95950000I0J-650000D01*
G01*
X178100000Y-92800000D02*
G75*
G03*
X178100000Y-94100000I0J-650000D01*
G01*
X178950000Y-93370000D02*
G75*
G02*
X178950000Y-95430000I0J-1030000D01*
G01*
X179304123Y-93411742D02*
G75*
G02*
X179979999Y-94469999I495877J-428258D01*
G01*
%TO.C,J4*%
X181197300Y-75730000D02*
X181197300Y-73070000D01*
X178597300Y-75730000D02*
X181197300Y-75730000D01*
X178597300Y-73070000D02*
X181197300Y-73070000D01*
X178597300Y-75730000D02*
X178597300Y-73070000D01*
X177327300Y-75730000D02*
X175997300Y-75730000D01*
X175997300Y-75730000D02*
X175997300Y-74400000D01*
%TO.C,J1*%
X181197300Y-83070000D02*
X181197300Y-84400000D01*
X179867300Y-83070000D02*
X181197300Y-83070000D01*
X178597300Y-83070000D02*
X178597300Y-85730000D01*
X178597300Y-85730000D02*
X175997300Y-85730000D01*
X178597300Y-83070000D02*
X175997300Y-83070000D01*
X175997300Y-83070000D02*
X175997300Y-85730000D01*
%TO.C,J6*%
X174197300Y-75530000D02*
X171537300Y-75530000D01*
X174197300Y-80670000D02*
X174197300Y-75530000D01*
X171537300Y-80670000D02*
X171537300Y-75530000D01*
X174197300Y-80670000D02*
X171537300Y-80670000D01*
X174197300Y-81940000D02*
X174197300Y-83270000D01*
X174197300Y-83270000D02*
X172867300Y-83270000D01*
%TO.C,U1*%
X176100000Y-82400000D02*
X183100000Y-82400000D01*
X176100000Y-82400000D02*
X176100000Y-76400000D01*
X183100000Y-76400000D02*
X176100000Y-76400000D01*
X183100000Y-82400000D02*
X183100000Y-76400000D01*
X183100000Y-79400000D02*
X185600000Y-79400000D01*
X180850000Y-79400000D02*
G75*
G03*
X180850000Y-79400000I-2250000J0D01*
G01*
X183100000Y-81940000D02*
X185600000Y-81940000D01*
X183100000Y-76860000D02*
X185600000Y-76860000D01*
X179810000Y-78800000D02*
X180090000Y-78520000D01*
X178100000Y-79650000D02*
G75*
G03*
X178100000Y-80950000I0J-650000D01*
G01*
X178100000Y-77800000D02*
G75*
G03*
X178100000Y-79100000I0J-650000D01*
G01*
X178950000Y-78370000D02*
G75*
G02*
X178950000Y-80430000I0J-1030000D01*
G01*
X179304123Y-78411742D02*
G75*
G02*
X179979999Y-79469999I495877J-428258D01*
G01*
%TO.C,J4*%
X181197300Y-60730000D02*
X181197300Y-58070000D01*
X178597300Y-60730000D02*
X181197300Y-60730000D01*
X178597300Y-58070000D02*
X181197300Y-58070000D01*
X178597300Y-60730000D02*
X178597300Y-58070000D01*
X177327300Y-60730000D02*
X175997300Y-60730000D01*
X175997300Y-60730000D02*
X175997300Y-59400000D01*
%TO.C,J1*%
X181197300Y-68070000D02*
X181197300Y-69400000D01*
X179867300Y-68070000D02*
X181197300Y-68070000D01*
X178597300Y-68070000D02*
X178597300Y-70730000D01*
X178597300Y-70730000D02*
X175997300Y-70730000D01*
X178597300Y-68070000D02*
X175997300Y-68070000D01*
X175997300Y-68070000D02*
X175997300Y-70730000D01*
%TO.C,J6*%
X174197300Y-60530000D02*
X171537300Y-60530000D01*
X174197300Y-65670000D02*
X174197300Y-60530000D01*
X171537300Y-65670000D02*
X171537300Y-60530000D01*
X174197300Y-65670000D02*
X171537300Y-65670000D01*
X174197300Y-66940000D02*
X174197300Y-68270000D01*
X174197300Y-68270000D02*
X172867300Y-68270000D01*
%TO.C,U1*%
X176100000Y-67400000D02*
X183100000Y-67400000D01*
X176100000Y-67400000D02*
X176100000Y-61400000D01*
X183100000Y-61400000D02*
X176100000Y-61400000D01*
X183100000Y-67400000D02*
X183100000Y-61400000D01*
X183100000Y-64400000D02*
X185600000Y-64400000D01*
X180850000Y-64400000D02*
G75*
G03*
X180850000Y-64400000I-2250000J0D01*
G01*
X183100000Y-66940000D02*
X185600000Y-66940000D01*
X183100000Y-61860000D02*
X185600000Y-61860000D01*
X179810000Y-63800000D02*
X180090000Y-63520000D01*
X178100000Y-64650000D02*
G75*
G03*
X178100000Y-65950000I0J-650000D01*
G01*
X178100000Y-62800000D02*
G75*
G03*
X178100000Y-64100000I0J-650000D01*
G01*
X178950000Y-63370000D02*
G75*
G02*
X178950000Y-65430000I0J-1030000D01*
G01*
X179304123Y-63411742D02*
G75*
G02*
X179979999Y-64469999I495877J-428258D01*
G01*
%TO.C,D1*%
X149100000Y-139400000D02*
G75*
G03*
X149100000Y-139400000I-2500000J0D01*
G01*
X144040000Y-137855000D02*
X144040000Y-140945000D01*
X149590000Y-139399538D02*
G75*
G02*
X144040000Y-140944830I-2990000J-462D01*
G01*
X149590000Y-139400462D02*
G75*
G03*
X144040000Y-137855170I-2990000J462D01*
G01*
%TO.C,U1*%
X112102700Y-142400000D02*
X119102700Y-142400000D01*
X112102700Y-142400000D02*
X112102700Y-136400000D01*
X119102700Y-136400000D02*
X112102700Y-136400000D01*
X119102700Y-142400000D02*
X119102700Y-136400000D01*
X119102700Y-139400000D02*
X121602700Y-139400000D01*
X116852700Y-139400000D02*
G75*
G03*
X116852700Y-139400000I-2250000J0D01*
G01*
X119102700Y-141940000D02*
X121602700Y-141940000D01*
X119102700Y-136860000D02*
X121602700Y-136860000D01*
X115812700Y-138800000D02*
X116092700Y-138520000D01*
X115306823Y-138411742D02*
G75*
G02*
X115982699Y-139469999I495877J-428258D01*
G01*
X114952700Y-138370000D02*
G75*
G02*
X114952700Y-140430000I0J-1030000D01*
G01*
X114102700Y-137800000D02*
G75*
G03*
X114102700Y-139100000I0J-650000D01*
G01*
X114102700Y-139650000D02*
G75*
G03*
X114102700Y-140950000I0J-650000D01*
G01*
%TO.C,J2*%
X140240000Y-135730000D02*
X140240000Y-134400000D01*
X141570000Y-135730000D02*
X140240000Y-135730000D01*
X142840000Y-135730000D02*
X142840000Y-133070000D01*
X142840000Y-133070000D02*
X142900000Y-133070000D01*
X142840000Y-135730000D02*
X142900000Y-135730000D01*
X142900000Y-135730000D02*
X142900000Y-133070000D01*
%TO.C,R2*%
X152345279Y-135790000D02*
X152019721Y-135790000D01*
X152345279Y-136810000D02*
X152019721Y-136810000D01*
%TO.C,J5*%
X154300000Y-140730000D02*
X154300000Y-138070000D01*
X154240000Y-140730000D02*
X154300000Y-140730000D01*
X154240000Y-138070000D02*
X154300000Y-138070000D01*
X154240000Y-140730000D02*
X154240000Y-138070000D01*
X152970000Y-140730000D02*
X151640000Y-140730000D01*
X151640000Y-140730000D02*
X151640000Y-139400000D01*
%TO.C,J3*%
X153000000Y-145830000D02*
X153000000Y-143170000D01*
X152940000Y-145830000D02*
X153000000Y-145830000D01*
X152940000Y-143170000D02*
X153000000Y-143170000D01*
X152940000Y-145830000D02*
X152940000Y-143170000D01*
X151670000Y-145830000D02*
X150340000Y-145830000D01*
X150340000Y-145830000D02*
X150340000Y-144500000D01*
%TO.C,J6*%
X110200000Y-135530000D02*
X107540000Y-135530000D01*
X110200000Y-140670000D02*
X110200000Y-135530000D01*
X107540000Y-140670000D02*
X107540000Y-135530000D01*
X110200000Y-140670000D02*
X107540000Y-140670000D01*
X110200000Y-141940000D02*
X110200000Y-143270000D01*
X110200000Y-143270000D02*
X108870000Y-143270000D01*
%TO.C,J1*%
X117200000Y-143070000D02*
X117200000Y-144400000D01*
X115870000Y-143070000D02*
X117200000Y-143070000D01*
X114600000Y-143070000D02*
X114600000Y-145730000D01*
X114600000Y-145730000D02*
X112000000Y-145730000D01*
X114600000Y-143070000D02*
X112000000Y-143070000D01*
X112000000Y-143070000D02*
X112000000Y-145730000D01*
%TO.C,J4*%
X117200000Y-135730000D02*
X117200000Y-133070000D01*
X114600000Y-135730000D02*
X117200000Y-135730000D01*
X114600000Y-133070000D02*
X117200000Y-133070000D01*
X114600000Y-135730000D02*
X114600000Y-133070000D01*
X113330000Y-135730000D02*
X112000000Y-135730000D01*
X112000000Y-135730000D02*
X112000000Y-134400000D01*
%TO.C,D1*%
X149100000Y-124400000D02*
G75*
G03*
X149100000Y-124400000I-2500000J0D01*
G01*
X144040000Y-122855000D02*
X144040000Y-125945000D01*
X149590000Y-124399538D02*
G75*
G02*
X144040000Y-125944830I-2990000J-462D01*
G01*
X149590000Y-124400462D02*
G75*
G03*
X144040000Y-122855170I-2990000J462D01*
G01*
%TO.C,U1*%
X112102700Y-127400000D02*
X119102700Y-127400000D01*
X112102700Y-127400000D02*
X112102700Y-121400000D01*
X119102700Y-121400000D02*
X112102700Y-121400000D01*
X119102700Y-127400000D02*
X119102700Y-121400000D01*
X119102700Y-124400000D02*
X121602700Y-124400000D01*
X116852700Y-124400000D02*
G75*
G03*
X116852700Y-124400000I-2250000J0D01*
G01*
X119102700Y-126940000D02*
X121602700Y-126940000D01*
X119102700Y-121860000D02*
X121602700Y-121860000D01*
X115812700Y-123800000D02*
X116092700Y-123520000D01*
X115306823Y-123411742D02*
G75*
G02*
X115982699Y-124469999I495877J-428258D01*
G01*
X114952700Y-123370000D02*
G75*
G02*
X114952700Y-125430000I0J-1030000D01*
G01*
X114102700Y-122800000D02*
G75*
G03*
X114102700Y-124100000I0J-650000D01*
G01*
X114102700Y-124650000D02*
G75*
G03*
X114102700Y-125950000I0J-650000D01*
G01*
%TO.C,J2*%
X140240000Y-120730000D02*
X140240000Y-119400000D01*
X141570000Y-120730000D02*
X140240000Y-120730000D01*
X142840000Y-120730000D02*
X142840000Y-118070000D01*
X142840000Y-118070000D02*
X142900000Y-118070000D01*
X142840000Y-120730000D02*
X142900000Y-120730000D01*
X142900000Y-120730000D02*
X142900000Y-118070000D01*
%TO.C,R2*%
X152345279Y-120790000D02*
X152019721Y-120790000D01*
X152345279Y-121810000D02*
X152019721Y-121810000D01*
%TO.C,J5*%
X154300000Y-125730000D02*
X154300000Y-123070000D01*
X154240000Y-125730000D02*
X154300000Y-125730000D01*
X154240000Y-123070000D02*
X154300000Y-123070000D01*
X154240000Y-125730000D02*
X154240000Y-123070000D01*
X152970000Y-125730000D02*
X151640000Y-125730000D01*
X151640000Y-125730000D02*
X151640000Y-124400000D01*
%TO.C,J3*%
X153000000Y-130830000D02*
X153000000Y-128170000D01*
X152940000Y-130830000D02*
X153000000Y-130830000D01*
X152940000Y-128170000D02*
X153000000Y-128170000D01*
X152940000Y-130830000D02*
X152940000Y-128170000D01*
X151670000Y-130830000D02*
X150340000Y-130830000D01*
X150340000Y-130830000D02*
X150340000Y-129500000D01*
%TO.C,J6*%
X110200000Y-120530000D02*
X107540000Y-120530000D01*
X110200000Y-125670000D02*
X110200000Y-120530000D01*
X107540000Y-125670000D02*
X107540000Y-120530000D01*
X110200000Y-125670000D02*
X107540000Y-125670000D01*
X110200000Y-126940000D02*
X110200000Y-128270000D01*
X110200000Y-128270000D02*
X108870000Y-128270000D01*
%TO.C,J1*%
X117200000Y-128070000D02*
X117200000Y-129400000D01*
X115870000Y-128070000D02*
X117200000Y-128070000D01*
X114600000Y-128070000D02*
X114600000Y-130730000D01*
X114600000Y-130730000D02*
X112000000Y-130730000D01*
X114600000Y-128070000D02*
X112000000Y-128070000D01*
X112000000Y-128070000D02*
X112000000Y-130730000D01*
%TO.C,J4*%
X117200000Y-120730000D02*
X117200000Y-118070000D01*
X114600000Y-120730000D02*
X117200000Y-120730000D01*
X114600000Y-118070000D02*
X117200000Y-118070000D01*
X114600000Y-120730000D02*
X114600000Y-118070000D01*
X113330000Y-120730000D02*
X112000000Y-120730000D01*
X112000000Y-120730000D02*
X112000000Y-119400000D01*
%TO.C,D1*%
X149100000Y-109400000D02*
G75*
G03*
X149100000Y-109400000I-2500000J0D01*
G01*
X144040000Y-107855000D02*
X144040000Y-110945000D01*
X149590000Y-109399538D02*
G75*
G02*
X144040000Y-110944830I-2990000J-462D01*
G01*
X149590000Y-109400462D02*
G75*
G03*
X144040000Y-107855170I-2990000J462D01*
G01*
%TO.C,U1*%
X112102700Y-112400000D02*
X119102700Y-112400000D01*
X112102700Y-112400000D02*
X112102700Y-106400000D01*
X119102700Y-106400000D02*
X112102700Y-106400000D01*
X119102700Y-112400000D02*
X119102700Y-106400000D01*
X119102700Y-109400000D02*
X121602700Y-109400000D01*
X116852700Y-109400000D02*
G75*
G03*
X116852700Y-109400000I-2250000J0D01*
G01*
X119102700Y-111940000D02*
X121602700Y-111940000D01*
X119102700Y-106860000D02*
X121602700Y-106860000D01*
X115812700Y-108800000D02*
X116092700Y-108520000D01*
X115306823Y-108411742D02*
G75*
G02*
X115982699Y-109469999I495877J-428258D01*
G01*
X114952700Y-108370000D02*
G75*
G02*
X114952700Y-110430000I0J-1030000D01*
G01*
X114102700Y-107800000D02*
G75*
G03*
X114102700Y-109100000I0J-650000D01*
G01*
X114102700Y-109650000D02*
G75*
G03*
X114102700Y-110950000I0J-650000D01*
G01*
%TO.C,J2*%
X140240000Y-105730000D02*
X140240000Y-104400000D01*
X141570000Y-105730000D02*
X140240000Y-105730000D01*
X142840000Y-105730000D02*
X142840000Y-103070000D01*
X142840000Y-103070000D02*
X142900000Y-103070000D01*
X142840000Y-105730000D02*
X142900000Y-105730000D01*
X142900000Y-105730000D02*
X142900000Y-103070000D01*
%TO.C,R2*%
X152345279Y-105790000D02*
X152019721Y-105790000D01*
X152345279Y-106810000D02*
X152019721Y-106810000D01*
%TO.C,J5*%
X154300000Y-110730000D02*
X154300000Y-108070000D01*
X154240000Y-110730000D02*
X154300000Y-110730000D01*
X154240000Y-108070000D02*
X154300000Y-108070000D01*
X154240000Y-110730000D02*
X154240000Y-108070000D01*
X152970000Y-110730000D02*
X151640000Y-110730000D01*
X151640000Y-110730000D02*
X151640000Y-109400000D01*
%TO.C,J3*%
X153000000Y-115830000D02*
X153000000Y-113170000D01*
X152940000Y-115830000D02*
X153000000Y-115830000D01*
X152940000Y-113170000D02*
X153000000Y-113170000D01*
X152940000Y-115830000D02*
X152940000Y-113170000D01*
X151670000Y-115830000D02*
X150340000Y-115830000D01*
X150340000Y-115830000D02*
X150340000Y-114500000D01*
%TO.C,J6*%
X110200000Y-105530000D02*
X107540000Y-105530000D01*
X110200000Y-110670000D02*
X110200000Y-105530000D01*
X107540000Y-110670000D02*
X107540000Y-105530000D01*
X110200000Y-110670000D02*
X107540000Y-110670000D01*
X110200000Y-111940000D02*
X110200000Y-113270000D01*
X110200000Y-113270000D02*
X108870000Y-113270000D01*
%TO.C,J1*%
X117200000Y-113070000D02*
X117200000Y-114400000D01*
X115870000Y-113070000D02*
X117200000Y-113070000D01*
X114600000Y-113070000D02*
X114600000Y-115730000D01*
X114600000Y-115730000D02*
X112000000Y-115730000D01*
X114600000Y-113070000D02*
X112000000Y-113070000D01*
X112000000Y-113070000D02*
X112000000Y-115730000D01*
%TO.C,J4*%
X117200000Y-105730000D02*
X117200000Y-103070000D01*
X114600000Y-105730000D02*
X117200000Y-105730000D01*
X114600000Y-103070000D02*
X117200000Y-103070000D01*
X114600000Y-105730000D02*
X114600000Y-103070000D01*
X113330000Y-105730000D02*
X112000000Y-105730000D01*
X112000000Y-105730000D02*
X112000000Y-104400000D01*
%TO.C,D1*%
X149100000Y-94400000D02*
G75*
G03*
X149100000Y-94400000I-2500000J0D01*
G01*
X144040000Y-92855000D02*
X144040000Y-95945000D01*
X149590000Y-94399538D02*
G75*
G02*
X144040000Y-95944830I-2990000J-462D01*
G01*
X149590000Y-94400462D02*
G75*
G03*
X144040000Y-92855170I-2990000J462D01*
G01*
%TO.C,U1*%
X112102700Y-97400000D02*
X119102700Y-97400000D01*
X112102700Y-97400000D02*
X112102700Y-91400000D01*
X119102700Y-91400000D02*
X112102700Y-91400000D01*
X119102700Y-97400000D02*
X119102700Y-91400000D01*
X119102700Y-94400000D02*
X121602700Y-94400000D01*
X116852700Y-94400000D02*
G75*
G03*
X116852700Y-94400000I-2250000J0D01*
G01*
X119102700Y-96940000D02*
X121602700Y-96940000D01*
X119102700Y-91860000D02*
X121602700Y-91860000D01*
X115812700Y-93800000D02*
X116092700Y-93520000D01*
X115306823Y-93411742D02*
G75*
G02*
X115982699Y-94469999I495877J-428258D01*
G01*
X114952700Y-93370000D02*
G75*
G02*
X114952700Y-95430000I0J-1030000D01*
G01*
X114102700Y-92800000D02*
G75*
G03*
X114102700Y-94100000I0J-650000D01*
G01*
X114102700Y-94650000D02*
G75*
G03*
X114102700Y-95950000I0J-650000D01*
G01*
%TO.C,J2*%
X140240000Y-90730000D02*
X140240000Y-89400000D01*
X141570000Y-90730000D02*
X140240000Y-90730000D01*
X142840000Y-90730000D02*
X142840000Y-88070000D01*
X142840000Y-88070000D02*
X142900000Y-88070000D01*
X142840000Y-90730000D02*
X142900000Y-90730000D01*
X142900000Y-90730000D02*
X142900000Y-88070000D01*
%TO.C,R2*%
X152345279Y-90790000D02*
X152019721Y-90790000D01*
X152345279Y-91810000D02*
X152019721Y-91810000D01*
%TO.C,J5*%
X154300000Y-95730000D02*
X154300000Y-93070000D01*
X154240000Y-95730000D02*
X154300000Y-95730000D01*
X154240000Y-93070000D02*
X154300000Y-93070000D01*
X154240000Y-95730000D02*
X154240000Y-93070000D01*
X152970000Y-95730000D02*
X151640000Y-95730000D01*
X151640000Y-95730000D02*
X151640000Y-94400000D01*
%TO.C,J3*%
X153000000Y-100830000D02*
X153000000Y-98170000D01*
X152940000Y-100830000D02*
X153000000Y-100830000D01*
X152940000Y-98170000D02*
X153000000Y-98170000D01*
X152940000Y-100830000D02*
X152940000Y-98170000D01*
X151670000Y-100830000D02*
X150340000Y-100830000D01*
X150340000Y-100830000D02*
X150340000Y-99500000D01*
%TO.C,J6*%
X110200000Y-90530000D02*
X107540000Y-90530000D01*
X110200000Y-95670000D02*
X110200000Y-90530000D01*
X107540000Y-95670000D02*
X107540000Y-90530000D01*
X110200000Y-95670000D02*
X107540000Y-95670000D01*
X110200000Y-96940000D02*
X110200000Y-98270000D01*
X110200000Y-98270000D02*
X108870000Y-98270000D01*
%TO.C,J1*%
X117200000Y-98070000D02*
X117200000Y-99400000D01*
X115870000Y-98070000D02*
X117200000Y-98070000D01*
X114600000Y-98070000D02*
X114600000Y-100730000D01*
X114600000Y-100730000D02*
X112000000Y-100730000D01*
X114600000Y-98070000D02*
X112000000Y-98070000D01*
X112000000Y-98070000D02*
X112000000Y-100730000D01*
%TO.C,J4*%
X117200000Y-90730000D02*
X117200000Y-88070000D01*
X114600000Y-90730000D02*
X117200000Y-90730000D01*
X114600000Y-88070000D02*
X117200000Y-88070000D01*
X114600000Y-90730000D02*
X114600000Y-88070000D01*
X113330000Y-90730000D02*
X112000000Y-90730000D01*
X112000000Y-90730000D02*
X112000000Y-89400000D01*
%TO.C,D1*%
X149100000Y-79400000D02*
G75*
G03*
X149100000Y-79400000I-2500000J0D01*
G01*
X144040000Y-77855000D02*
X144040000Y-80945000D01*
X149590000Y-79399538D02*
G75*
G02*
X144040000Y-80944830I-2990000J-462D01*
G01*
X149590000Y-79400462D02*
G75*
G03*
X144040000Y-77855170I-2990000J462D01*
G01*
%TO.C,U1*%
X112102700Y-82400000D02*
X119102700Y-82400000D01*
X112102700Y-82400000D02*
X112102700Y-76400000D01*
X119102700Y-76400000D02*
X112102700Y-76400000D01*
X119102700Y-82400000D02*
X119102700Y-76400000D01*
X119102700Y-79400000D02*
X121602700Y-79400000D01*
X116852700Y-79400000D02*
G75*
G03*
X116852700Y-79400000I-2250000J0D01*
G01*
X119102700Y-81940000D02*
X121602700Y-81940000D01*
X119102700Y-76860000D02*
X121602700Y-76860000D01*
X115812700Y-78800000D02*
X116092700Y-78520000D01*
X115306823Y-78411742D02*
G75*
G02*
X115982699Y-79469999I495877J-428258D01*
G01*
X114952700Y-78370000D02*
G75*
G02*
X114952700Y-80430000I0J-1030000D01*
G01*
X114102700Y-77800000D02*
G75*
G03*
X114102700Y-79100000I0J-650000D01*
G01*
X114102700Y-79650000D02*
G75*
G03*
X114102700Y-80950000I0J-650000D01*
G01*
%TO.C,J2*%
X140240000Y-75730000D02*
X140240000Y-74400000D01*
X141570000Y-75730000D02*
X140240000Y-75730000D01*
X142840000Y-75730000D02*
X142840000Y-73070000D01*
X142840000Y-73070000D02*
X142900000Y-73070000D01*
X142840000Y-75730000D02*
X142900000Y-75730000D01*
X142900000Y-75730000D02*
X142900000Y-73070000D01*
%TO.C,R2*%
X152345279Y-75790000D02*
X152019721Y-75790000D01*
X152345279Y-76810000D02*
X152019721Y-76810000D01*
%TO.C,J5*%
X154300000Y-80730000D02*
X154300000Y-78070000D01*
X154240000Y-80730000D02*
X154300000Y-80730000D01*
X154240000Y-78070000D02*
X154300000Y-78070000D01*
X154240000Y-80730000D02*
X154240000Y-78070000D01*
X152970000Y-80730000D02*
X151640000Y-80730000D01*
X151640000Y-80730000D02*
X151640000Y-79400000D01*
%TO.C,J3*%
X153000000Y-85830000D02*
X153000000Y-83170000D01*
X152940000Y-85830000D02*
X153000000Y-85830000D01*
X152940000Y-83170000D02*
X153000000Y-83170000D01*
X152940000Y-85830000D02*
X152940000Y-83170000D01*
X151670000Y-85830000D02*
X150340000Y-85830000D01*
X150340000Y-85830000D02*
X150340000Y-84500000D01*
%TO.C,J6*%
X110200000Y-75530000D02*
X107540000Y-75530000D01*
X110200000Y-80670000D02*
X110200000Y-75530000D01*
X107540000Y-80670000D02*
X107540000Y-75530000D01*
X110200000Y-80670000D02*
X107540000Y-80670000D01*
X110200000Y-81940000D02*
X110200000Y-83270000D01*
X110200000Y-83270000D02*
X108870000Y-83270000D01*
%TO.C,J1*%
X117200000Y-83070000D02*
X117200000Y-84400000D01*
X115870000Y-83070000D02*
X117200000Y-83070000D01*
X114600000Y-83070000D02*
X114600000Y-85730000D01*
X114600000Y-85730000D02*
X112000000Y-85730000D01*
X114600000Y-83070000D02*
X112000000Y-83070000D01*
X112000000Y-83070000D02*
X112000000Y-85730000D01*
%TO.C,J4*%
X117200000Y-75730000D02*
X117200000Y-73070000D01*
X114600000Y-75730000D02*
X117200000Y-75730000D01*
X114600000Y-73070000D02*
X117200000Y-73070000D01*
X114600000Y-75730000D02*
X114600000Y-73070000D01*
X113330000Y-75730000D02*
X112000000Y-75730000D01*
X112000000Y-75730000D02*
X112000000Y-74400000D01*
%TO.C,J2*%
X140240000Y-60730000D02*
X140240000Y-59400000D01*
X141570000Y-60730000D02*
X140240000Y-60730000D01*
X142840000Y-60730000D02*
X142840000Y-58070000D01*
X142840000Y-58070000D02*
X142900000Y-58070000D01*
X142840000Y-60730000D02*
X142900000Y-60730000D01*
X142900000Y-60730000D02*
X142900000Y-58070000D01*
%TO.C,J3*%
X153000000Y-70830000D02*
X153000000Y-68170000D01*
X152940000Y-70830000D02*
X153000000Y-70830000D01*
X152940000Y-68170000D02*
X153000000Y-68170000D01*
X152940000Y-70830000D02*
X152940000Y-68170000D01*
X151670000Y-70830000D02*
X150340000Y-70830000D01*
X150340000Y-70830000D02*
X150340000Y-69500000D01*
%TO.C,J5*%
X154300000Y-65730000D02*
X154300000Y-63070000D01*
X154240000Y-65730000D02*
X154300000Y-65730000D01*
X154240000Y-63070000D02*
X154300000Y-63070000D01*
X154240000Y-65730000D02*
X154240000Y-63070000D01*
X152970000Y-65730000D02*
X151640000Y-65730000D01*
X151640000Y-65730000D02*
X151640000Y-64400000D01*
%TO.C,R2*%
X152345279Y-60790000D02*
X152019721Y-60790000D01*
X152345279Y-61810000D02*
X152019721Y-61810000D01*
%TO.C,D1*%
X149100000Y-64400000D02*
G75*
G03*
X149100000Y-64400000I-2500000J0D01*
G01*
X144040000Y-62855000D02*
X144040000Y-65945000D01*
X149590000Y-64400462D02*
G75*
G03*
X144040000Y-62855170I-2990000J462D01*
G01*
X149590000Y-64399538D02*
G75*
G02*
X144040000Y-65944830I-2990000J-462D01*
G01*
%TO.C,J4*%
X117200000Y-60730000D02*
X117200000Y-58070000D01*
X114600000Y-60730000D02*
X117200000Y-60730000D01*
X114600000Y-58070000D02*
X117200000Y-58070000D01*
X114600000Y-60730000D02*
X114600000Y-58070000D01*
X113330000Y-60730000D02*
X112000000Y-60730000D01*
X112000000Y-60730000D02*
X112000000Y-59400000D01*
%TO.C,U1*%
X112102700Y-67400000D02*
X119102700Y-67400000D01*
X112102700Y-67400000D02*
X112102700Y-61400000D01*
X119102700Y-61400000D02*
X112102700Y-61400000D01*
X119102700Y-67400000D02*
X119102700Y-61400000D01*
X119102700Y-64400000D02*
X121602700Y-64400000D01*
X116852700Y-64400000D02*
G75*
G03*
X116852700Y-64400000I-2250000J0D01*
G01*
X119102700Y-66940000D02*
X121602700Y-66940000D01*
X119102700Y-61860000D02*
X121602700Y-61860000D01*
X115812700Y-63800000D02*
X116092700Y-63520000D01*
X114102700Y-64650000D02*
G75*
G03*
X114102700Y-65950000I0J-650000D01*
G01*
X114102700Y-62800000D02*
G75*
G03*
X114102700Y-64100000I0J-650000D01*
G01*
X114952700Y-63370000D02*
G75*
G02*
X114952700Y-65430000I0J-1030000D01*
G01*
X115306823Y-63411742D02*
G75*
G02*
X115982699Y-64469999I495877J-428258D01*
G01*
%TO.C,J6*%
X110200000Y-60530000D02*
X107540000Y-60530000D01*
X110200000Y-65670000D02*
X110200000Y-60530000D01*
X107540000Y-65670000D02*
X107540000Y-60530000D01*
X110200000Y-65670000D02*
X107540000Y-65670000D01*
X110200000Y-66940000D02*
X110200000Y-68270000D01*
X110200000Y-68270000D02*
X108870000Y-68270000D01*
%TO.C,J1*%
X117200000Y-68070000D02*
X117200000Y-69400000D01*
X115870000Y-68070000D02*
X117200000Y-68070000D01*
X114600000Y-68070000D02*
X114600000Y-70730000D01*
X114600000Y-70730000D02*
X112000000Y-70730000D01*
X114600000Y-68070000D02*
X112000000Y-68070000D01*
X112000000Y-68070000D02*
X112000000Y-70730000D01*
%TO.C,D1*%
D10*
X177859204Y-135892380D02*
X177859204Y-134892380D01*
X178097300Y-134892380D01*
X178240157Y-134940000D01*
X178335395Y-135035238D01*
X178383014Y-135130476D01*
X178430633Y-135320952D01*
X178430633Y-135463809D01*
X178383014Y-135654285D01*
X178335395Y-135749523D01*
X178240157Y-135844761D01*
X178097300Y-135892380D01*
X177859204Y-135892380D01*
X179383014Y-135892380D02*
X178811585Y-135892380D01*
X179097300Y-135892380D02*
X179097300Y-134892380D01*
X179002061Y-135035238D01*
X178906823Y-135130476D01*
X178811585Y-135178095D01*
%TO.C,R2*%
X186600633Y-136752380D02*
X186267300Y-136276190D01*
X186029204Y-136752380D02*
X186029204Y-135752380D01*
X186410157Y-135752380D01*
X186505395Y-135800000D01*
X186553014Y-135847619D01*
X186600633Y-135942857D01*
X186600633Y-136085714D01*
X186553014Y-136180952D01*
X186505395Y-136228571D01*
X186410157Y-136276190D01*
X186029204Y-136276190D01*
X186981585Y-135847619D02*
X187029204Y-135800000D01*
X187124442Y-135752380D01*
X187362538Y-135752380D01*
X187457776Y-135800000D01*
X187505395Y-135847619D01*
X187553014Y-135942857D01*
X187553014Y-136038095D01*
X187505395Y-136180952D01*
X186933966Y-136752380D01*
X187553014Y-136752380D01*
%TO.C,D1*%
X177859204Y-120892380D02*
X177859204Y-119892380D01*
X178097300Y-119892380D01*
X178240157Y-119940000D01*
X178335395Y-120035238D01*
X178383014Y-120130476D01*
X178430633Y-120320952D01*
X178430633Y-120463809D01*
X178383014Y-120654285D01*
X178335395Y-120749523D01*
X178240157Y-120844761D01*
X178097300Y-120892380D01*
X177859204Y-120892380D01*
X179383014Y-120892380D02*
X178811585Y-120892380D01*
X179097300Y-120892380D02*
X179097300Y-119892380D01*
X179002061Y-120035238D01*
X178906823Y-120130476D01*
X178811585Y-120178095D01*
%TO.C,R2*%
X186600633Y-121752380D02*
X186267300Y-121276190D01*
X186029204Y-121752380D02*
X186029204Y-120752380D01*
X186410157Y-120752380D01*
X186505395Y-120800000D01*
X186553014Y-120847619D01*
X186600633Y-120942857D01*
X186600633Y-121085714D01*
X186553014Y-121180952D01*
X186505395Y-121228571D01*
X186410157Y-121276190D01*
X186029204Y-121276190D01*
X186981585Y-120847619D02*
X187029204Y-120800000D01*
X187124442Y-120752380D01*
X187362538Y-120752380D01*
X187457776Y-120800000D01*
X187505395Y-120847619D01*
X187553014Y-120942857D01*
X187553014Y-121038095D01*
X187505395Y-121180952D01*
X186933966Y-121752380D01*
X187553014Y-121752380D01*
%TO.C,D1*%
X177859204Y-105892380D02*
X177859204Y-104892380D01*
X178097300Y-104892380D01*
X178240157Y-104940000D01*
X178335395Y-105035238D01*
X178383014Y-105130476D01*
X178430633Y-105320952D01*
X178430633Y-105463809D01*
X178383014Y-105654285D01*
X178335395Y-105749523D01*
X178240157Y-105844761D01*
X178097300Y-105892380D01*
X177859204Y-105892380D01*
X179383014Y-105892380D02*
X178811585Y-105892380D01*
X179097300Y-105892380D02*
X179097300Y-104892380D01*
X179002061Y-105035238D01*
X178906823Y-105130476D01*
X178811585Y-105178095D01*
%TO.C,R2*%
X186600633Y-106752380D02*
X186267300Y-106276190D01*
X186029204Y-106752380D02*
X186029204Y-105752380D01*
X186410157Y-105752380D01*
X186505395Y-105800000D01*
X186553014Y-105847619D01*
X186600633Y-105942857D01*
X186600633Y-106085714D01*
X186553014Y-106180952D01*
X186505395Y-106228571D01*
X186410157Y-106276190D01*
X186029204Y-106276190D01*
X186981585Y-105847619D02*
X187029204Y-105800000D01*
X187124442Y-105752380D01*
X187362538Y-105752380D01*
X187457776Y-105800000D01*
X187505395Y-105847619D01*
X187553014Y-105942857D01*
X187553014Y-106038095D01*
X187505395Y-106180952D01*
X186933966Y-106752380D01*
X187553014Y-106752380D01*
%TO.C,U1*%
X183319680Y-96661904D02*
X184129204Y-96661904D01*
X184224442Y-96614285D01*
X184272061Y-96566666D01*
X184319680Y-96471428D01*
X184319680Y-96280952D01*
X184272061Y-96185714D01*
X184224442Y-96138095D01*
X184129204Y-96090476D01*
X183319680Y-96090476D01*
X184319680Y-95090476D02*
X184319680Y-95661904D01*
X184319680Y-95376190D02*
X183319680Y-95376190D01*
X183462538Y-95471428D01*
X183557776Y-95566666D01*
X183605395Y-95661904D01*
X183319680Y-81661904D02*
X184129204Y-81661904D01*
X184224442Y-81614285D01*
X184272061Y-81566666D01*
X184319680Y-81471428D01*
X184319680Y-81280952D01*
X184272061Y-81185714D01*
X184224442Y-81138095D01*
X184129204Y-81090476D01*
X183319680Y-81090476D01*
X184319680Y-80090476D02*
X184319680Y-80661904D01*
X184319680Y-80376190D02*
X183319680Y-80376190D01*
X183462538Y-80471428D01*
X183557776Y-80566666D01*
X183605395Y-80661904D01*
X183319680Y-66661904D02*
X184129204Y-66661904D01*
X184224442Y-66614285D01*
X184272061Y-66566666D01*
X184319680Y-66471428D01*
X184319680Y-66280952D01*
X184272061Y-66185714D01*
X184224442Y-66138095D01*
X184129204Y-66090476D01*
X183319680Y-66090476D01*
X184319680Y-65090476D02*
X184319680Y-65661904D01*
X184319680Y-65376190D02*
X183319680Y-65376190D01*
X183462538Y-65471428D01*
X183557776Y-65566666D01*
X183605395Y-65661904D01*
%TO.C,D1*%
X145861904Y-135892380D02*
X145861904Y-134892380D01*
X146100000Y-134892380D01*
X146242857Y-134940000D01*
X146338095Y-135035238D01*
X146385714Y-135130476D01*
X146433333Y-135320952D01*
X146433333Y-135463809D01*
X146385714Y-135654285D01*
X146338095Y-135749523D01*
X146242857Y-135844761D01*
X146100000Y-135892380D01*
X145861904Y-135892380D01*
X147385714Y-135892380D02*
X146814285Y-135892380D01*
X147100000Y-135892380D02*
X147100000Y-134892380D01*
X147004761Y-135035238D01*
X146909523Y-135130476D01*
X146814285Y-135178095D01*
%TO.C,U1*%
X119322380Y-141661904D02*
X120131904Y-141661904D01*
X120227142Y-141614285D01*
X120274761Y-141566666D01*
X120322380Y-141471428D01*
X120322380Y-141280952D01*
X120274761Y-141185714D01*
X120227142Y-141138095D01*
X120131904Y-141090476D01*
X119322380Y-141090476D01*
X120322380Y-140090476D02*
X120322380Y-140661904D01*
X120322380Y-140376190D02*
X119322380Y-140376190D01*
X119465238Y-140471428D01*
X119560476Y-140566666D01*
X119608095Y-140661904D01*
%TO.C,R2*%
X154603333Y-136752380D02*
X154270000Y-136276190D01*
X154031904Y-136752380D02*
X154031904Y-135752380D01*
X154412857Y-135752380D01*
X154508095Y-135800000D01*
X154555714Y-135847619D01*
X154603333Y-135942857D01*
X154603333Y-136085714D01*
X154555714Y-136180952D01*
X154508095Y-136228571D01*
X154412857Y-136276190D01*
X154031904Y-136276190D01*
X154984285Y-135847619D02*
X155031904Y-135800000D01*
X155127142Y-135752380D01*
X155365238Y-135752380D01*
X155460476Y-135800000D01*
X155508095Y-135847619D01*
X155555714Y-135942857D01*
X155555714Y-136038095D01*
X155508095Y-136180952D01*
X154936666Y-136752380D01*
X155555714Y-136752380D01*
%TO.C,D1*%
X145861904Y-120892380D02*
X145861904Y-119892380D01*
X146100000Y-119892380D01*
X146242857Y-119940000D01*
X146338095Y-120035238D01*
X146385714Y-120130476D01*
X146433333Y-120320952D01*
X146433333Y-120463809D01*
X146385714Y-120654285D01*
X146338095Y-120749523D01*
X146242857Y-120844761D01*
X146100000Y-120892380D01*
X145861904Y-120892380D01*
X147385714Y-120892380D02*
X146814285Y-120892380D01*
X147100000Y-120892380D02*
X147100000Y-119892380D01*
X147004761Y-120035238D01*
X146909523Y-120130476D01*
X146814285Y-120178095D01*
%TO.C,U1*%
X119322380Y-126661904D02*
X120131904Y-126661904D01*
X120227142Y-126614285D01*
X120274761Y-126566666D01*
X120322380Y-126471428D01*
X120322380Y-126280952D01*
X120274761Y-126185714D01*
X120227142Y-126138095D01*
X120131904Y-126090476D01*
X119322380Y-126090476D01*
X120322380Y-125090476D02*
X120322380Y-125661904D01*
X120322380Y-125376190D02*
X119322380Y-125376190D01*
X119465238Y-125471428D01*
X119560476Y-125566666D01*
X119608095Y-125661904D01*
%TO.C,R2*%
X154603333Y-121752380D02*
X154270000Y-121276190D01*
X154031904Y-121752380D02*
X154031904Y-120752380D01*
X154412857Y-120752380D01*
X154508095Y-120800000D01*
X154555714Y-120847619D01*
X154603333Y-120942857D01*
X154603333Y-121085714D01*
X154555714Y-121180952D01*
X154508095Y-121228571D01*
X154412857Y-121276190D01*
X154031904Y-121276190D01*
X154984285Y-120847619D02*
X155031904Y-120800000D01*
X155127142Y-120752380D01*
X155365238Y-120752380D01*
X155460476Y-120800000D01*
X155508095Y-120847619D01*
X155555714Y-120942857D01*
X155555714Y-121038095D01*
X155508095Y-121180952D01*
X154936666Y-121752380D01*
X155555714Y-121752380D01*
%TO.C,D1*%
X145861904Y-105892380D02*
X145861904Y-104892380D01*
X146100000Y-104892380D01*
X146242857Y-104940000D01*
X146338095Y-105035238D01*
X146385714Y-105130476D01*
X146433333Y-105320952D01*
X146433333Y-105463809D01*
X146385714Y-105654285D01*
X146338095Y-105749523D01*
X146242857Y-105844761D01*
X146100000Y-105892380D01*
X145861904Y-105892380D01*
X147385714Y-105892380D02*
X146814285Y-105892380D01*
X147100000Y-105892380D02*
X147100000Y-104892380D01*
X147004761Y-105035238D01*
X146909523Y-105130476D01*
X146814285Y-105178095D01*
%TO.C,U1*%
X119322380Y-111661904D02*
X120131904Y-111661904D01*
X120227142Y-111614285D01*
X120274761Y-111566666D01*
X120322380Y-111471428D01*
X120322380Y-111280952D01*
X120274761Y-111185714D01*
X120227142Y-111138095D01*
X120131904Y-111090476D01*
X119322380Y-111090476D01*
X120322380Y-110090476D02*
X120322380Y-110661904D01*
X120322380Y-110376190D02*
X119322380Y-110376190D01*
X119465238Y-110471428D01*
X119560476Y-110566666D01*
X119608095Y-110661904D01*
%TO.C,R2*%
X154603333Y-106752380D02*
X154270000Y-106276190D01*
X154031904Y-106752380D02*
X154031904Y-105752380D01*
X154412857Y-105752380D01*
X154508095Y-105800000D01*
X154555714Y-105847619D01*
X154603333Y-105942857D01*
X154603333Y-106085714D01*
X154555714Y-106180952D01*
X154508095Y-106228571D01*
X154412857Y-106276190D01*
X154031904Y-106276190D01*
X154984285Y-105847619D02*
X155031904Y-105800000D01*
X155127142Y-105752380D01*
X155365238Y-105752380D01*
X155460476Y-105800000D01*
X155508095Y-105847619D01*
X155555714Y-105942857D01*
X155555714Y-106038095D01*
X155508095Y-106180952D01*
X154936666Y-106752380D01*
X155555714Y-106752380D01*
%TO.C,D1*%
X145861904Y-90892380D02*
X145861904Y-89892380D01*
X146100000Y-89892380D01*
X146242857Y-89940000D01*
X146338095Y-90035238D01*
X146385714Y-90130476D01*
X146433333Y-90320952D01*
X146433333Y-90463809D01*
X146385714Y-90654285D01*
X146338095Y-90749523D01*
X146242857Y-90844761D01*
X146100000Y-90892380D01*
X145861904Y-90892380D01*
X147385714Y-90892380D02*
X146814285Y-90892380D01*
X147100000Y-90892380D02*
X147100000Y-89892380D01*
X147004761Y-90035238D01*
X146909523Y-90130476D01*
X146814285Y-90178095D01*
%TO.C,U1*%
X119322380Y-96661904D02*
X120131904Y-96661904D01*
X120227142Y-96614285D01*
X120274761Y-96566666D01*
X120322380Y-96471428D01*
X120322380Y-96280952D01*
X120274761Y-96185714D01*
X120227142Y-96138095D01*
X120131904Y-96090476D01*
X119322380Y-96090476D01*
X120322380Y-95090476D02*
X120322380Y-95661904D01*
X120322380Y-95376190D02*
X119322380Y-95376190D01*
X119465238Y-95471428D01*
X119560476Y-95566666D01*
X119608095Y-95661904D01*
%TO.C,R2*%
X154603333Y-91752380D02*
X154270000Y-91276190D01*
X154031904Y-91752380D02*
X154031904Y-90752380D01*
X154412857Y-90752380D01*
X154508095Y-90800000D01*
X154555714Y-90847619D01*
X154603333Y-90942857D01*
X154603333Y-91085714D01*
X154555714Y-91180952D01*
X154508095Y-91228571D01*
X154412857Y-91276190D01*
X154031904Y-91276190D01*
X154984285Y-90847619D02*
X155031904Y-90800000D01*
X155127142Y-90752380D01*
X155365238Y-90752380D01*
X155460476Y-90800000D01*
X155508095Y-90847619D01*
X155555714Y-90942857D01*
X155555714Y-91038095D01*
X155508095Y-91180952D01*
X154936666Y-91752380D01*
X155555714Y-91752380D01*
%TO.C,D1*%
X145861904Y-75892380D02*
X145861904Y-74892380D01*
X146100000Y-74892380D01*
X146242857Y-74940000D01*
X146338095Y-75035238D01*
X146385714Y-75130476D01*
X146433333Y-75320952D01*
X146433333Y-75463809D01*
X146385714Y-75654285D01*
X146338095Y-75749523D01*
X146242857Y-75844761D01*
X146100000Y-75892380D01*
X145861904Y-75892380D01*
X147385714Y-75892380D02*
X146814285Y-75892380D01*
X147100000Y-75892380D02*
X147100000Y-74892380D01*
X147004761Y-75035238D01*
X146909523Y-75130476D01*
X146814285Y-75178095D01*
%TO.C,U1*%
X119322380Y-81661904D02*
X120131904Y-81661904D01*
X120227142Y-81614285D01*
X120274761Y-81566666D01*
X120322380Y-81471428D01*
X120322380Y-81280952D01*
X120274761Y-81185714D01*
X120227142Y-81138095D01*
X120131904Y-81090476D01*
X119322380Y-81090476D01*
X120322380Y-80090476D02*
X120322380Y-80661904D01*
X120322380Y-80376190D02*
X119322380Y-80376190D01*
X119465238Y-80471428D01*
X119560476Y-80566666D01*
X119608095Y-80661904D01*
%TO.C,R2*%
X154603333Y-76752380D02*
X154270000Y-76276190D01*
X154031904Y-76752380D02*
X154031904Y-75752380D01*
X154412857Y-75752380D01*
X154508095Y-75800000D01*
X154555714Y-75847619D01*
X154603333Y-75942857D01*
X154603333Y-76085714D01*
X154555714Y-76180952D01*
X154508095Y-76228571D01*
X154412857Y-76276190D01*
X154031904Y-76276190D01*
X154984285Y-75847619D02*
X155031904Y-75800000D01*
X155127142Y-75752380D01*
X155365238Y-75752380D01*
X155460476Y-75800000D01*
X155508095Y-75847619D01*
X155555714Y-75942857D01*
X155555714Y-76038095D01*
X155508095Y-76180952D01*
X154936666Y-76752380D01*
X155555714Y-76752380D01*
X154603333Y-61752380D02*
X154270000Y-61276190D01*
X154031904Y-61752380D02*
X154031904Y-60752380D01*
X154412857Y-60752380D01*
X154508095Y-60800000D01*
X154555714Y-60847619D01*
X154603333Y-60942857D01*
X154603333Y-61085714D01*
X154555714Y-61180952D01*
X154508095Y-61228571D01*
X154412857Y-61276190D01*
X154031904Y-61276190D01*
X154984285Y-60847619D02*
X155031904Y-60800000D01*
X155127142Y-60752380D01*
X155365238Y-60752380D01*
X155460476Y-60800000D01*
X155508095Y-60847619D01*
X155555714Y-60942857D01*
X155555714Y-61038095D01*
X155508095Y-61180952D01*
X154936666Y-61752380D01*
X155555714Y-61752380D01*
%TO.C,D1*%
X145861904Y-60892380D02*
X145861904Y-59892380D01*
X146100000Y-59892380D01*
X146242857Y-59940000D01*
X146338095Y-60035238D01*
X146385714Y-60130476D01*
X146433333Y-60320952D01*
X146433333Y-60463809D01*
X146385714Y-60654285D01*
X146338095Y-60749523D01*
X146242857Y-60844761D01*
X146100000Y-60892380D01*
X145861904Y-60892380D01*
X147385714Y-60892380D02*
X146814285Y-60892380D01*
X147100000Y-60892380D02*
X147100000Y-59892380D01*
X147004761Y-60035238D01*
X146909523Y-60130476D01*
X146814285Y-60178095D01*
%TO.C,U1*%
X119322380Y-66661904D02*
X120131904Y-66661904D01*
X120227142Y-66614285D01*
X120274761Y-66566666D01*
X120322380Y-66471428D01*
X120322380Y-66280952D01*
X120274761Y-66185714D01*
X120227142Y-66138095D01*
X120131904Y-66090476D01*
X119322380Y-66090476D01*
X120322380Y-65090476D02*
X120322380Y-65661904D01*
X120322380Y-65376190D02*
X119322380Y-65376190D01*
X119465238Y-65471428D01*
X119560476Y-65566666D01*
X119608095Y-65661904D01*
%TD*%
M02*
