%TF.GenerationSoftware,KiCad,Pcbnew,5.1.6-c6e7f7d~86~ubuntu18.04.1*%
%TF.CreationDate,2020-06-23T16:20:56-03:00*%
%TF.ProjectId,irStrip,69725374-7269-4702-9e6b-696361645f70,Rev. 1*%
%TF.SameCoordinates,Original*%
%TF.FileFunction,Paste,Top*%
%TF.FilePolarity,Positive*%
%FSLAX46Y46*%
G04 Gerber Fmt 4.6, Leading zero omitted, Abs format (unit mm)*
G04 Created by KiCad (PCBNEW 5.1.6-c6e7f7d~86~ubuntu18.04.1) date 2020-06-23 16:20:56*
%MOMM*%
%LPD*%
G01*
G04 APERTURE LIST*
G04 APERTURE END LIST*
%TO.C,R2*%
G36*
G01*
X183829800Y-136043750D02*
X183829800Y-136556250D01*
G75*
G02*
X183611050Y-136775000I-218750J0D01*
G01*
X183173550Y-136775000D01*
G75*
G02*
X182954800Y-136556250I0J218750D01*
G01*
X182954800Y-136043750D01*
G75*
G02*
X183173550Y-135825000I218750J0D01*
G01*
X183611050Y-135825000D01*
G75*
G02*
X183829800Y-136043750I0J-218750D01*
G01*
G37*
G36*
G01*
X185404800Y-136043750D02*
X185404800Y-136556250D01*
G75*
G02*
X185186050Y-136775000I-218750J0D01*
G01*
X184748550Y-136775000D01*
G75*
G02*
X184529800Y-136556250I0J218750D01*
G01*
X184529800Y-136043750D01*
G75*
G02*
X184748550Y-135825000I218750J0D01*
G01*
X185186050Y-135825000D01*
G75*
G02*
X185404800Y-136043750I0J-218750D01*
G01*
G37*
%TD*%
%TO.C,R2*%
G36*
G01*
X183829800Y-121043750D02*
X183829800Y-121556250D01*
G75*
G02*
X183611050Y-121775000I-218750J0D01*
G01*
X183173550Y-121775000D01*
G75*
G02*
X182954800Y-121556250I0J218750D01*
G01*
X182954800Y-121043750D01*
G75*
G02*
X183173550Y-120825000I218750J0D01*
G01*
X183611050Y-120825000D01*
G75*
G02*
X183829800Y-121043750I0J-218750D01*
G01*
G37*
G36*
G01*
X185404800Y-121043750D02*
X185404800Y-121556250D01*
G75*
G02*
X185186050Y-121775000I-218750J0D01*
G01*
X184748550Y-121775000D01*
G75*
G02*
X184529800Y-121556250I0J218750D01*
G01*
X184529800Y-121043750D01*
G75*
G02*
X184748550Y-120825000I218750J0D01*
G01*
X185186050Y-120825000D01*
G75*
G02*
X185404800Y-121043750I0J-218750D01*
G01*
G37*
%TD*%
%TO.C,R2*%
G36*
G01*
X183829800Y-106043750D02*
X183829800Y-106556250D01*
G75*
G02*
X183611050Y-106775000I-218750J0D01*
G01*
X183173550Y-106775000D01*
G75*
G02*
X182954800Y-106556250I0J218750D01*
G01*
X182954800Y-106043750D01*
G75*
G02*
X183173550Y-105825000I218750J0D01*
G01*
X183611050Y-105825000D01*
G75*
G02*
X183829800Y-106043750I0J-218750D01*
G01*
G37*
G36*
G01*
X185404800Y-106043750D02*
X185404800Y-106556250D01*
G75*
G02*
X185186050Y-106775000I-218750J0D01*
G01*
X184748550Y-106775000D01*
G75*
G02*
X184529800Y-106556250I0J218750D01*
G01*
X184529800Y-106043750D01*
G75*
G02*
X184748550Y-105825000I218750J0D01*
G01*
X185186050Y-105825000D01*
G75*
G02*
X185404800Y-106043750I0J-218750D01*
G01*
G37*
%TD*%
%TO.C,R2*%
G36*
G01*
X153407500Y-136043750D02*
X153407500Y-136556250D01*
G75*
G02*
X153188750Y-136775000I-218750J0D01*
G01*
X152751250Y-136775000D01*
G75*
G02*
X152532500Y-136556250I0J218750D01*
G01*
X152532500Y-136043750D01*
G75*
G02*
X152751250Y-135825000I218750J0D01*
G01*
X153188750Y-135825000D01*
G75*
G02*
X153407500Y-136043750I0J-218750D01*
G01*
G37*
G36*
G01*
X151832500Y-136043750D02*
X151832500Y-136556250D01*
G75*
G02*
X151613750Y-136775000I-218750J0D01*
G01*
X151176250Y-136775000D01*
G75*
G02*
X150957500Y-136556250I0J218750D01*
G01*
X150957500Y-136043750D01*
G75*
G02*
X151176250Y-135825000I218750J0D01*
G01*
X151613750Y-135825000D01*
G75*
G02*
X151832500Y-136043750I0J-218750D01*
G01*
G37*
%TD*%
%TO.C,R2*%
G36*
G01*
X153407500Y-121043750D02*
X153407500Y-121556250D01*
G75*
G02*
X153188750Y-121775000I-218750J0D01*
G01*
X152751250Y-121775000D01*
G75*
G02*
X152532500Y-121556250I0J218750D01*
G01*
X152532500Y-121043750D01*
G75*
G02*
X152751250Y-120825000I218750J0D01*
G01*
X153188750Y-120825000D01*
G75*
G02*
X153407500Y-121043750I0J-218750D01*
G01*
G37*
G36*
G01*
X151832500Y-121043750D02*
X151832500Y-121556250D01*
G75*
G02*
X151613750Y-121775000I-218750J0D01*
G01*
X151176250Y-121775000D01*
G75*
G02*
X150957500Y-121556250I0J218750D01*
G01*
X150957500Y-121043750D01*
G75*
G02*
X151176250Y-120825000I218750J0D01*
G01*
X151613750Y-120825000D01*
G75*
G02*
X151832500Y-121043750I0J-218750D01*
G01*
G37*
%TD*%
%TO.C,R2*%
G36*
G01*
X153407500Y-106043750D02*
X153407500Y-106556250D01*
G75*
G02*
X153188750Y-106775000I-218750J0D01*
G01*
X152751250Y-106775000D01*
G75*
G02*
X152532500Y-106556250I0J218750D01*
G01*
X152532500Y-106043750D01*
G75*
G02*
X152751250Y-105825000I218750J0D01*
G01*
X153188750Y-105825000D01*
G75*
G02*
X153407500Y-106043750I0J-218750D01*
G01*
G37*
G36*
G01*
X151832500Y-106043750D02*
X151832500Y-106556250D01*
G75*
G02*
X151613750Y-106775000I-218750J0D01*
G01*
X151176250Y-106775000D01*
G75*
G02*
X150957500Y-106556250I0J218750D01*
G01*
X150957500Y-106043750D01*
G75*
G02*
X151176250Y-105825000I218750J0D01*
G01*
X151613750Y-105825000D01*
G75*
G02*
X151832500Y-106043750I0J-218750D01*
G01*
G37*
%TD*%
%TO.C,R2*%
G36*
G01*
X153407500Y-91043750D02*
X153407500Y-91556250D01*
G75*
G02*
X153188750Y-91775000I-218750J0D01*
G01*
X152751250Y-91775000D01*
G75*
G02*
X152532500Y-91556250I0J218750D01*
G01*
X152532500Y-91043750D01*
G75*
G02*
X152751250Y-90825000I218750J0D01*
G01*
X153188750Y-90825000D01*
G75*
G02*
X153407500Y-91043750I0J-218750D01*
G01*
G37*
G36*
G01*
X151832500Y-91043750D02*
X151832500Y-91556250D01*
G75*
G02*
X151613750Y-91775000I-218750J0D01*
G01*
X151176250Y-91775000D01*
G75*
G02*
X150957500Y-91556250I0J218750D01*
G01*
X150957500Y-91043750D01*
G75*
G02*
X151176250Y-90825000I218750J0D01*
G01*
X151613750Y-90825000D01*
G75*
G02*
X151832500Y-91043750I0J-218750D01*
G01*
G37*
%TD*%
%TO.C,R2*%
G36*
G01*
X153407500Y-76043750D02*
X153407500Y-76556250D01*
G75*
G02*
X153188750Y-76775000I-218750J0D01*
G01*
X152751250Y-76775000D01*
G75*
G02*
X152532500Y-76556250I0J218750D01*
G01*
X152532500Y-76043750D01*
G75*
G02*
X152751250Y-75825000I218750J0D01*
G01*
X153188750Y-75825000D01*
G75*
G02*
X153407500Y-76043750I0J-218750D01*
G01*
G37*
G36*
G01*
X151832500Y-76043750D02*
X151832500Y-76556250D01*
G75*
G02*
X151613750Y-76775000I-218750J0D01*
G01*
X151176250Y-76775000D01*
G75*
G02*
X150957500Y-76556250I0J218750D01*
G01*
X150957500Y-76043750D01*
G75*
G02*
X151176250Y-75825000I218750J0D01*
G01*
X151613750Y-75825000D01*
G75*
G02*
X151832500Y-76043750I0J-218750D01*
G01*
G37*
%TD*%
%TO.C,R2*%
G36*
G01*
X151832500Y-61043750D02*
X151832500Y-61556250D01*
G75*
G02*
X151613750Y-61775000I-218750J0D01*
G01*
X151176250Y-61775000D01*
G75*
G02*
X150957500Y-61556250I0J218750D01*
G01*
X150957500Y-61043750D01*
G75*
G02*
X151176250Y-60825000I218750J0D01*
G01*
X151613750Y-60825000D01*
G75*
G02*
X151832500Y-61043750I0J-218750D01*
G01*
G37*
G36*
G01*
X153407500Y-61043750D02*
X153407500Y-61556250D01*
G75*
G02*
X153188750Y-61775000I-218750J0D01*
G01*
X152751250Y-61775000D01*
G75*
G02*
X152532500Y-61556250I0J218750D01*
G01*
X152532500Y-61043750D01*
G75*
G02*
X152751250Y-60825000I218750J0D01*
G01*
X153188750Y-60825000D01*
G75*
G02*
X153407500Y-61043750I0J-218750D01*
G01*
G37*
%TD*%
M02*
