%TF.GenerationSoftware,KiCad,Pcbnew,5.1.6-c6e7f7d~86~ubuntu18.04.1*%
%TF.CreationDate,2020-06-23T16:20:56-03:00*%
%TF.ProjectId,irStrip,69725374-7269-4702-9e6b-696361645f70,Rev. 1*%
%TF.SameCoordinates,Original*%
%TF.FileFunction,Soldermask,Top*%
%TF.FilePolarity,Negative*%
%FSLAX46Y46*%
G04 Gerber Fmt 4.6, Leading zero omitted, Abs format (unit mm)*
G04 Created by KiCad (PCBNEW 5.1.6-c6e7f7d~86~ubuntu18.04.1) date 2020-06-23 16:20:56*
%MOMM*%
%LPD*%
G01*
G04 APERTURE LIST*
%ADD10R,1.900000X1.900000*%
%ADD11C,1.900000*%
%ADD12R,1.800000X1.800000*%
%ADD13O,1.800000X1.800000*%
%ADD14C,1.624000*%
G04 APERTURE END LIST*
D10*
%TO.C,D1*%
X177327300Y-139400000D03*
D11*
X179867300Y-139400000D03*
%TD*%
D12*
%TO.C,J2*%
X173567300Y-134400000D03*
%TD*%
%TO.C,R2*%
G36*
G01*
X183879800Y-136018750D02*
X183879800Y-136581250D01*
G75*
G02*
X183636050Y-136825000I-243750J0D01*
G01*
X183148550Y-136825000D01*
G75*
G02*
X182904800Y-136581250I0J243750D01*
G01*
X182904800Y-136018750D01*
G75*
G02*
X183148550Y-135775000I243750J0D01*
G01*
X183636050Y-135775000D01*
G75*
G02*
X183879800Y-136018750I0J-243750D01*
G01*
G37*
G36*
G01*
X185454800Y-136018750D02*
X185454800Y-136581250D01*
G75*
G02*
X185211050Y-136825000I-243750J0D01*
G01*
X184723550Y-136825000D01*
G75*
G02*
X184479800Y-136581250I0J243750D01*
G01*
X184479800Y-136018750D01*
G75*
G02*
X184723550Y-135775000I243750J0D01*
G01*
X185211050Y-135775000D01*
G75*
G02*
X185454800Y-136018750I0J-243750D01*
G01*
G37*
%TD*%
%TO.C,J5*%
X184967300Y-139400000D03*
%TD*%
%TO.C,J3*%
X183667300Y-144500000D03*
%TD*%
D10*
%TO.C,D1*%
X177327300Y-124400000D03*
D11*
X179867300Y-124400000D03*
%TD*%
D12*
%TO.C,J2*%
X173567300Y-119400000D03*
%TD*%
%TO.C,R2*%
G36*
G01*
X183879800Y-121018750D02*
X183879800Y-121581250D01*
G75*
G02*
X183636050Y-121825000I-243750J0D01*
G01*
X183148550Y-121825000D01*
G75*
G02*
X182904800Y-121581250I0J243750D01*
G01*
X182904800Y-121018750D01*
G75*
G02*
X183148550Y-120775000I243750J0D01*
G01*
X183636050Y-120775000D01*
G75*
G02*
X183879800Y-121018750I0J-243750D01*
G01*
G37*
G36*
G01*
X185454800Y-121018750D02*
X185454800Y-121581250D01*
G75*
G02*
X185211050Y-121825000I-243750J0D01*
G01*
X184723550Y-121825000D01*
G75*
G02*
X184479800Y-121581250I0J243750D01*
G01*
X184479800Y-121018750D01*
G75*
G02*
X184723550Y-120775000I243750J0D01*
G01*
X185211050Y-120775000D01*
G75*
G02*
X185454800Y-121018750I0J-243750D01*
G01*
G37*
%TD*%
%TO.C,J5*%
X184967300Y-124400000D03*
%TD*%
%TO.C,J3*%
X183667300Y-129500000D03*
%TD*%
D10*
%TO.C,D1*%
X177327300Y-109400000D03*
D11*
X179867300Y-109400000D03*
%TD*%
D12*
%TO.C,J2*%
X173567300Y-104400000D03*
%TD*%
%TO.C,R2*%
G36*
G01*
X183879800Y-106018750D02*
X183879800Y-106581250D01*
G75*
G02*
X183636050Y-106825000I-243750J0D01*
G01*
X183148550Y-106825000D01*
G75*
G02*
X182904800Y-106581250I0J243750D01*
G01*
X182904800Y-106018750D01*
G75*
G02*
X183148550Y-105775000I243750J0D01*
G01*
X183636050Y-105775000D01*
G75*
G02*
X183879800Y-106018750I0J-243750D01*
G01*
G37*
G36*
G01*
X185454800Y-106018750D02*
X185454800Y-106581250D01*
G75*
G02*
X185211050Y-106825000I-243750J0D01*
G01*
X184723550Y-106825000D01*
G75*
G02*
X184479800Y-106581250I0J243750D01*
G01*
X184479800Y-106018750D01*
G75*
G02*
X184723550Y-105775000I243750J0D01*
G01*
X185211050Y-105775000D01*
G75*
G02*
X185454800Y-106018750I0J-243750D01*
G01*
G37*
%TD*%
%TO.C,J5*%
X184967300Y-109400000D03*
%TD*%
%TO.C,J3*%
X183667300Y-114500000D03*
%TD*%
%TO.C,J4*%
X177327300Y-89400000D03*
D13*
X179867300Y-89400000D03*
%TD*%
%TO.C,J1*%
X177327300Y-99400000D03*
D12*
X179867300Y-99400000D03*
%TD*%
%TO.C,J6*%
X172867300Y-96940000D03*
D13*
X172867300Y-94400000D03*
X172867300Y-91860000D03*
%TD*%
D14*
%TO.C,U1*%
X186400000Y-94400000D03*
X186400000Y-91860000D03*
X186400000Y-96940000D03*
%TD*%
D12*
%TO.C,J4*%
X177327300Y-74400000D03*
D13*
X179867300Y-74400000D03*
%TD*%
%TO.C,J1*%
X177327300Y-84400000D03*
D12*
X179867300Y-84400000D03*
%TD*%
%TO.C,J6*%
X172867300Y-81940000D03*
D13*
X172867300Y-79400000D03*
X172867300Y-76860000D03*
%TD*%
D14*
%TO.C,U1*%
X186400000Y-79400000D03*
X186400000Y-76860000D03*
X186400000Y-81940000D03*
%TD*%
D12*
%TO.C,J4*%
X177327300Y-59400000D03*
D13*
X179867300Y-59400000D03*
%TD*%
%TO.C,J1*%
X177327300Y-69400000D03*
D12*
X179867300Y-69400000D03*
%TD*%
%TO.C,J6*%
X172867300Y-66940000D03*
D13*
X172867300Y-64400000D03*
X172867300Y-61860000D03*
%TD*%
D14*
%TO.C,U1*%
X186400000Y-64400000D03*
X186400000Y-61860000D03*
X186400000Y-66940000D03*
%TD*%
D11*
%TO.C,D1*%
X147870000Y-139400000D03*
D10*
X145330000Y-139400000D03*
%TD*%
D14*
%TO.C,U1*%
X122402700Y-141940000D03*
X122402700Y-136860000D03*
X122402700Y-139400000D03*
%TD*%
D12*
%TO.C,J2*%
X141570000Y-134400000D03*
%TD*%
%TO.C,R2*%
G36*
G01*
X153457500Y-136018750D02*
X153457500Y-136581250D01*
G75*
G02*
X153213750Y-136825000I-243750J0D01*
G01*
X152726250Y-136825000D01*
G75*
G02*
X152482500Y-136581250I0J243750D01*
G01*
X152482500Y-136018750D01*
G75*
G02*
X152726250Y-135775000I243750J0D01*
G01*
X153213750Y-135775000D01*
G75*
G02*
X153457500Y-136018750I0J-243750D01*
G01*
G37*
G36*
G01*
X151882500Y-136018750D02*
X151882500Y-136581250D01*
G75*
G02*
X151638750Y-136825000I-243750J0D01*
G01*
X151151250Y-136825000D01*
G75*
G02*
X150907500Y-136581250I0J243750D01*
G01*
X150907500Y-136018750D01*
G75*
G02*
X151151250Y-135775000I243750J0D01*
G01*
X151638750Y-135775000D01*
G75*
G02*
X151882500Y-136018750I0J-243750D01*
G01*
G37*
%TD*%
%TO.C,J5*%
X152970000Y-139400000D03*
%TD*%
%TO.C,J3*%
X151670000Y-144500000D03*
%TD*%
D13*
%TO.C,J6*%
X108870000Y-136860000D03*
X108870000Y-139400000D03*
D12*
X108870000Y-141940000D03*
%TD*%
%TO.C,J1*%
X115870000Y-144400000D03*
D13*
X113330000Y-144400000D03*
%TD*%
%TO.C,J4*%
X115870000Y-134400000D03*
D12*
X113330000Y-134400000D03*
%TD*%
D11*
%TO.C,D1*%
X147870000Y-124400000D03*
D10*
X145330000Y-124400000D03*
%TD*%
D14*
%TO.C,U1*%
X122402700Y-126940000D03*
X122402700Y-121860000D03*
X122402700Y-124400000D03*
%TD*%
D12*
%TO.C,J2*%
X141570000Y-119400000D03*
%TD*%
%TO.C,R2*%
G36*
G01*
X153457500Y-121018750D02*
X153457500Y-121581250D01*
G75*
G02*
X153213750Y-121825000I-243750J0D01*
G01*
X152726250Y-121825000D01*
G75*
G02*
X152482500Y-121581250I0J243750D01*
G01*
X152482500Y-121018750D01*
G75*
G02*
X152726250Y-120775000I243750J0D01*
G01*
X153213750Y-120775000D01*
G75*
G02*
X153457500Y-121018750I0J-243750D01*
G01*
G37*
G36*
G01*
X151882500Y-121018750D02*
X151882500Y-121581250D01*
G75*
G02*
X151638750Y-121825000I-243750J0D01*
G01*
X151151250Y-121825000D01*
G75*
G02*
X150907500Y-121581250I0J243750D01*
G01*
X150907500Y-121018750D01*
G75*
G02*
X151151250Y-120775000I243750J0D01*
G01*
X151638750Y-120775000D01*
G75*
G02*
X151882500Y-121018750I0J-243750D01*
G01*
G37*
%TD*%
%TO.C,J5*%
X152970000Y-124400000D03*
%TD*%
%TO.C,J3*%
X151670000Y-129500000D03*
%TD*%
D13*
%TO.C,J6*%
X108870000Y-121860000D03*
X108870000Y-124400000D03*
D12*
X108870000Y-126940000D03*
%TD*%
%TO.C,J1*%
X115870000Y-129400000D03*
D13*
X113330000Y-129400000D03*
%TD*%
%TO.C,J4*%
X115870000Y-119400000D03*
D12*
X113330000Y-119400000D03*
%TD*%
D11*
%TO.C,D1*%
X147870000Y-109400000D03*
D10*
X145330000Y-109400000D03*
%TD*%
D14*
%TO.C,U1*%
X122402700Y-111940000D03*
X122402700Y-106860000D03*
X122402700Y-109400000D03*
%TD*%
D12*
%TO.C,J2*%
X141570000Y-104400000D03*
%TD*%
%TO.C,R2*%
G36*
G01*
X153457500Y-106018750D02*
X153457500Y-106581250D01*
G75*
G02*
X153213750Y-106825000I-243750J0D01*
G01*
X152726250Y-106825000D01*
G75*
G02*
X152482500Y-106581250I0J243750D01*
G01*
X152482500Y-106018750D01*
G75*
G02*
X152726250Y-105775000I243750J0D01*
G01*
X153213750Y-105775000D01*
G75*
G02*
X153457500Y-106018750I0J-243750D01*
G01*
G37*
G36*
G01*
X151882500Y-106018750D02*
X151882500Y-106581250D01*
G75*
G02*
X151638750Y-106825000I-243750J0D01*
G01*
X151151250Y-106825000D01*
G75*
G02*
X150907500Y-106581250I0J243750D01*
G01*
X150907500Y-106018750D01*
G75*
G02*
X151151250Y-105775000I243750J0D01*
G01*
X151638750Y-105775000D01*
G75*
G02*
X151882500Y-106018750I0J-243750D01*
G01*
G37*
%TD*%
%TO.C,J5*%
X152970000Y-109400000D03*
%TD*%
%TO.C,J3*%
X151670000Y-114500000D03*
%TD*%
D13*
%TO.C,J6*%
X108870000Y-106860000D03*
X108870000Y-109400000D03*
D12*
X108870000Y-111940000D03*
%TD*%
%TO.C,J1*%
X115870000Y-114400000D03*
D13*
X113330000Y-114400000D03*
%TD*%
%TO.C,J4*%
X115870000Y-104400000D03*
D12*
X113330000Y-104400000D03*
%TD*%
D11*
%TO.C,D1*%
X147870000Y-94400000D03*
D10*
X145330000Y-94400000D03*
%TD*%
D14*
%TO.C,U1*%
X122402700Y-96940000D03*
X122402700Y-91860000D03*
X122402700Y-94400000D03*
%TD*%
D12*
%TO.C,J2*%
X141570000Y-89400000D03*
%TD*%
%TO.C,R2*%
G36*
G01*
X153457500Y-91018750D02*
X153457500Y-91581250D01*
G75*
G02*
X153213750Y-91825000I-243750J0D01*
G01*
X152726250Y-91825000D01*
G75*
G02*
X152482500Y-91581250I0J243750D01*
G01*
X152482500Y-91018750D01*
G75*
G02*
X152726250Y-90775000I243750J0D01*
G01*
X153213750Y-90775000D01*
G75*
G02*
X153457500Y-91018750I0J-243750D01*
G01*
G37*
G36*
G01*
X151882500Y-91018750D02*
X151882500Y-91581250D01*
G75*
G02*
X151638750Y-91825000I-243750J0D01*
G01*
X151151250Y-91825000D01*
G75*
G02*
X150907500Y-91581250I0J243750D01*
G01*
X150907500Y-91018750D01*
G75*
G02*
X151151250Y-90775000I243750J0D01*
G01*
X151638750Y-90775000D01*
G75*
G02*
X151882500Y-91018750I0J-243750D01*
G01*
G37*
%TD*%
%TO.C,J5*%
X152970000Y-94400000D03*
%TD*%
%TO.C,J3*%
X151670000Y-99500000D03*
%TD*%
D13*
%TO.C,J6*%
X108870000Y-91860000D03*
X108870000Y-94400000D03*
D12*
X108870000Y-96940000D03*
%TD*%
%TO.C,J1*%
X115870000Y-99400000D03*
D13*
X113330000Y-99400000D03*
%TD*%
%TO.C,J4*%
X115870000Y-89400000D03*
D12*
X113330000Y-89400000D03*
%TD*%
D11*
%TO.C,D1*%
X147870000Y-79400000D03*
D10*
X145330000Y-79400000D03*
%TD*%
D14*
%TO.C,U1*%
X122402700Y-81940000D03*
X122402700Y-76860000D03*
X122402700Y-79400000D03*
%TD*%
D12*
%TO.C,J2*%
X141570000Y-74400000D03*
%TD*%
%TO.C,R2*%
G36*
G01*
X153457500Y-76018750D02*
X153457500Y-76581250D01*
G75*
G02*
X153213750Y-76825000I-243750J0D01*
G01*
X152726250Y-76825000D01*
G75*
G02*
X152482500Y-76581250I0J243750D01*
G01*
X152482500Y-76018750D01*
G75*
G02*
X152726250Y-75775000I243750J0D01*
G01*
X153213750Y-75775000D01*
G75*
G02*
X153457500Y-76018750I0J-243750D01*
G01*
G37*
G36*
G01*
X151882500Y-76018750D02*
X151882500Y-76581250D01*
G75*
G02*
X151638750Y-76825000I-243750J0D01*
G01*
X151151250Y-76825000D01*
G75*
G02*
X150907500Y-76581250I0J243750D01*
G01*
X150907500Y-76018750D01*
G75*
G02*
X151151250Y-75775000I243750J0D01*
G01*
X151638750Y-75775000D01*
G75*
G02*
X151882500Y-76018750I0J-243750D01*
G01*
G37*
%TD*%
%TO.C,J5*%
X152970000Y-79400000D03*
%TD*%
%TO.C,J3*%
X151670000Y-84500000D03*
%TD*%
D13*
%TO.C,J6*%
X108870000Y-76860000D03*
X108870000Y-79400000D03*
D12*
X108870000Y-81940000D03*
%TD*%
%TO.C,J1*%
X115870000Y-84400000D03*
D13*
X113330000Y-84400000D03*
%TD*%
%TO.C,J4*%
X115870000Y-74400000D03*
D12*
X113330000Y-74400000D03*
%TD*%
%TO.C,J2*%
X141570000Y-59400000D03*
%TD*%
%TO.C,J3*%
X151670000Y-69500000D03*
%TD*%
%TO.C,J5*%
X152970000Y-64400000D03*
%TD*%
%TO.C,R2*%
G36*
G01*
X151882500Y-61018750D02*
X151882500Y-61581250D01*
G75*
G02*
X151638750Y-61825000I-243750J0D01*
G01*
X151151250Y-61825000D01*
G75*
G02*
X150907500Y-61581250I0J243750D01*
G01*
X150907500Y-61018750D01*
G75*
G02*
X151151250Y-60775000I243750J0D01*
G01*
X151638750Y-60775000D01*
G75*
G02*
X151882500Y-61018750I0J-243750D01*
G01*
G37*
G36*
G01*
X153457500Y-61018750D02*
X153457500Y-61581250D01*
G75*
G02*
X153213750Y-61825000I-243750J0D01*
G01*
X152726250Y-61825000D01*
G75*
G02*
X152482500Y-61581250I0J243750D01*
G01*
X152482500Y-61018750D01*
G75*
G02*
X152726250Y-60775000I243750J0D01*
G01*
X153213750Y-60775000D01*
G75*
G02*
X153457500Y-61018750I0J-243750D01*
G01*
G37*
%TD*%
D10*
%TO.C,D1*%
X145330000Y-64400000D03*
D11*
X147870000Y-64400000D03*
%TD*%
D12*
%TO.C,J4*%
X113330000Y-59400000D03*
D13*
X115870000Y-59400000D03*
%TD*%
D14*
%TO.C,U1*%
X122402700Y-64400000D03*
X122402700Y-61860000D03*
X122402700Y-66940000D03*
%TD*%
D12*
%TO.C,J6*%
X108870000Y-66940000D03*
D13*
X108870000Y-64400000D03*
X108870000Y-61860000D03*
%TD*%
%TO.C,J1*%
X113330000Y-69400000D03*
D12*
X115870000Y-69400000D03*
%TD*%
M02*
