M48
; DRILL file {KiCad 5.1.6-c6e7f7d~87~ubuntu18.04.1} date Wed Aug 12 00:36:50 2020
; FORMAT={-:-/ absolute / metric / decimal}
; #@! TF.CreationDate,2020-08-12T00:36:50-03:00
; #@! TF.GenerationSoftware,Kicad,Pcbnew,5.1.6-c6e7f7d~87~ubuntu18.04.1
; #@! TF.FileFunction,Plated,1,2,PTH
FMAT,2
METRIC
T1C0.400
T2C1.000
%
G90
G05
T1
X137.0Y-91.0
X137.0Y-93.0
X137.0Y-105.0
X137.0Y-107.0
X139.0Y-91.0
X139.0Y-93.0
X139.0Y-105.0
X139.0Y-107.0
X140.4Y-96.2
X140.4Y-99.6
X142.6Y-103.0
X142.8Y-95.0
X144.0Y-87.0
X145.4Y-95.0
X145.5Y-103.0
X146.0Y-87.0
X147.0Y-111.0
X147.9Y-95.0
X147.9Y-103.0
X148.0Y-87.0
X149.0Y-111.0
X150.0Y-87.0
X150.5Y-95.0
X150.5Y-103.0
X151.0Y-111.0
X152.0Y-87.0
X153.0Y-95.0
X153.0Y-103.0
X153.0Y-111.0
X154.0Y-87.0
X155.0Y-111.0
X155.5Y-95.0
X155.6Y-103.0
X156.0Y-87.0
X157.0Y-111.0
X158.0Y-87.0
X158.1Y-95.0
X158.1Y-103.0
X159.0Y-111.0
X160.0Y-87.0
X160.6Y-95.0
X160.7Y-103.0
X161.0Y-111.0
X162.0Y-87.0
X163.0Y-111.0
X163.1Y-95.0
X163.2Y-103.0
X165.0Y-111.0
X165.7Y-98.8
X165.7Y-103.0
X167.0Y-91.0
X167.0Y-93.0
X167.0Y-105.0
X167.0Y-107.0
X169.0Y-91.0
X169.0Y-93.0
X169.0Y-105.0
X169.0Y-107.0
T2
X144.1Y-91.8
X146.64Y-91.8
X149.18Y-91.8
X151.72Y-91.8
X154.26Y-91.8
X156.8Y-91.8
X159.34Y-91.8
X161.88Y-91.8
X168.0Y-97.7
X168.0Y-100.24
X138.0Y-97.7
X138.0Y-100.24
X141.6Y-106.2
X144.14Y-106.2
X146.68Y-106.2
X149.22Y-106.2
X151.76Y-106.2
X154.3Y-106.2
X156.84Y-106.2
X159.38Y-106.2
X161.92Y-106.2
X164.46Y-106.2
T0
M30
