%TF.GenerationSoftware,KiCad,Pcbnew,5.1.6-c6e7f7d~87~ubuntu18.04.1*%
%TF.CreationDate,2020-08-12T00:36:41-03:00*%
%TF.ProjectId,tfAdapter_V1,74664164-6170-4746-9572-5f56312e6b69,rev?*%
%TF.SameCoordinates,Original*%
%TF.FileFunction,Copper,L2,Bot*%
%TF.FilePolarity,Positive*%
%FSLAX46Y46*%
G04 Gerber Fmt 4.6, Leading zero omitted, Abs format (unit mm)*
G04 Created by KiCad (PCBNEW 5.1.6-c6e7f7d~87~ubuntu18.04.1) date 2020-08-12 00:36:41*
%MOMM*%
%LPD*%
G01*
G04 APERTURE LIST*
%TA.AperFunction,ComponentPad*%
%ADD10O,1.700000X1.700000*%
%TD*%
%TA.AperFunction,ComponentPad*%
%ADD11R,1.700000X1.700000*%
%TD*%
%TA.AperFunction,ViaPad*%
%ADD12C,0.800000*%
%TD*%
%TA.AperFunction,Conductor*%
%ADD13C,1.500000*%
%TD*%
%TA.AperFunction,Conductor*%
%ADD14C,0.200000*%
%TD*%
G04 APERTURE END LIST*
D10*
%TO.P,J1,2*%
%TO.N,Net-(J1-Pad2)*%
X138000000Y-97700000D03*
D11*
%TO.P,J1,1*%
%TO.N,GNDREF*%
X138000000Y-100240000D03*
%TD*%
%TO.P,J2,1*%
%TO.N,GNDREF*%
X141600000Y-106200000D03*
D10*
%TO.P,J2,2*%
%TO.N,Net-(J1-Pad2)*%
X144140000Y-106200000D03*
%TO.P,J2,3*%
%TO.N,Net-(J2-Pad3)*%
X146680000Y-106200000D03*
%TO.P,J2,4*%
%TO.N,Net-(J2-Pad4)*%
X149220000Y-106200000D03*
%TO.P,J2,5*%
%TO.N,Net-(J2-Pad5)*%
X151760000Y-106200000D03*
%TO.P,J2,6*%
%TO.N,Net-(J2-Pad6)*%
X154300000Y-106200000D03*
%TO.P,J2,7*%
%TO.N,Net-(J2-Pad7)*%
X156840000Y-106200000D03*
%TO.P,J2,8*%
%TO.N,Net-(J2-Pad8)*%
X159380000Y-106200000D03*
%TO.P,J2,9*%
%TO.N,Net-(J2-Pad9)*%
X161920000Y-106200000D03*
%TO.P,J2,10*%
%TO.N,Net-(J2-Pad10)*%
X164460000Y-106200000D03*
%TD*%
D11*
%TO.P,J3,1*%
%TO.N,Net-(J2-Pad3)*%
X144100000Y-91800000D03*
D10*
%TO.P,J3,2*%
%TO.N,Net-(J2-Pad4)*%
X146640000Y-91800000D03*
%TO.P,J3,3*%
%TO.N,Net-(J2-Pad5)*%
X149180000Y-91800000D03*
%TO.P,J3,4*%
%TO.N,Net-(J2-Pad6)*%
X151720000Y-91800000D03*
%TO.P,J3,5*%
%TO.N,Net-(J2-Pad7)*%
X154260000Y-91800000D03*
%TO.P,J3,6*%
%TO.N,Net-(J2-Pad8)*%
X156800000Y-91800000D03*
%TO.P,J3,7*%
%TO.N,Net-(J2-Pad9)*%
X159340000Y-91800000D03*
%TO.P,J3,8*%
%TO.N,Net-(J2-Pad10)*%
X161880000Y-91800000D03*
%TD*%
D11*
%TO.P,J4,1*%
%TO.N,GNDREF*%
X168000000Y-97700000D03*
D10*
%TO.P,J4,2*%
%TO.N,Net-(J1-Pad2)*%
X168000000Y-100240000D03*
%TD*%
D12*
%TO.N,GNDREF*%
X145400000Y-95000000D03*
X147900000Y-95000000D03*
X150500000Y-95000000D03*
X153000000Y-95000000D03*
X155500000Y-95000000D03*
X158100000Y-95000000D03*
X160600000Y-95000000D03*
X163100000Y-95000000D03*
X142800000Y-95000000D03*
X145500000Y-103000000D03*
X147900000Y-103000000D03*
X150500000Y-103000000D03*
X153000000Y-103000000D03*
X155600000Y-103000000D03*
X158100000Y-103000000D03*
X160700000Y-103000000D03*
X163200000Y-103000000D03*
X165700000Y-103000000D03*
X142600000Y-103000000D03*
X140400000Y-96200000D03*
X140400000Y-99600000D03*
X165700000Y-98800000D03*
X137000000Y-105000000D03*
X137000000Y-107000000D03*
X169000000Y-93000000D03*
X169000000Y-91000000D03*
X169000000Y-105000000D03*
X169000000Y-107000000D03*
X137000000Y-93000000D03*
X137000000Y-91000000D03*
X147000000Y-111000000D03*
X149000000Y-111000000D03*
X151000000Y-111000000D03*
X153000000Y-111000000D03*
X155000000Y-111000000D03*
X157000000Y-111000000D03*
X159000000Y-111000000D03*
X161000000Y-111000000D03*
X163000000Y-111000000D03*
X165000000Y-111000000D03*
X146000000Y-87000000D03*
X160000000Y-87000000D03*
X150000000Y-87000000D03*
X148000000Y-87000000D03*
X144000000Y-87000000D03*
X156000000Y-87000000D03*
X154000000Y-87000000D03*
X162000000Y-87000000D03*
X152000000Y-87000000D03*
X158000000Y-87000000D03*
X167000000Y-93000000D03*
X167000000Y-91000000D03*
X167000000Y-105000000D03*
X167000000Y-107000000D03*
X139000000Y-107000000D03*
X139000000Y-105000000D03*
X139000000Y-91000000D03*
X139000000Y-93000000D03*
%TD*%
D13*
%TO.N,Net-(J1-Pad2)*%
X168000000Y-100240000D02*
X145160000Y-100240000D01*
X144140000Y-101260000D02*
X144140000Y-106200000D01*
X145160000Y-100240000D02*
X144140000Y-101260000D01*
%TD*%
D14*
%TO.N,GNDREF*%
G36*
X168703747Y-84445801D02*
G01*
X169380697Y-84650184D01*
X170005050Y-84982159D01*
X170553030Y-85429080D01*
X171003770Y-85973930D01*
X171340097Y-86595954D01*
X171549199Y-87271455D01*
X171624971Y-87992379D01*
X171625000Y-88000726D01*
X171625001Y-109981652D01*
X171554199Y-110703747D01*
X171349816Y-111380697D01*
X171017844Y-112005045D01*
X170570920Y-112553030D01*
X170026066Y-113003772D01*
X169404047Y-113340097D01*
X168728550Y-113549198D01*
X168007622Y-113624971D01*
X167999273Y-113625000D01*
X138018338Y-113625000D01*
X137296253Y-113554199D01*
X136619303Y-113349816D01*
X135994955Y-113017844D01*
X135446970Y-112570920D01*
X134996228Y-112026066D01*
X134659903Y-111404047D01*
X134450802Y-110728550D01*
X134375029Y-110007622D01*
X134375000Y-109999273D01*
X134375000Y-109804456D01*
X136014606Y-109804456D01*
X136014606Y-110195544D01*
X136090904Y-110579118D01*
X136240567Y-110940436D01*
X136457844Y-111265615D01*
X136734385Y-111542156D01*
X137059564Y-111759433D01*
X137420882Y-111909096D01*
X137804456Y-111985394D01*
X138195544Y-111985394D01*
X138579118Y-111909096D01*
X138940436Y-111759433D01*
X139265615Y-111542156D01*
X139542156Y-111265615D01*
X139759433Y-110940436D01*
X139909096Y-110579118D01*
X139985394Y-110195544D01*
X139985394Y-109804456D01*
X166014606Y-109804456D01*
X166014606Y-110195544D01*
X166090904Y-110579118D01*
X166240567Y-110940436D01*
X166457844Y-111265615D01*
X166734385Y-111542156D01*
X167059564Y-111759433D01*
X167420882Y-111909096D01*
X167804456Y-111985394D01*
X168195544Y-111985394D01*
X168579118Y-111909096D01*
X168940436Y-111759433D01*
X169265615Y-111542156D01*
X169542156Y-111265615D01*
X169759433Y-110940436D01*
X169909096Y-110579118D01*
X169985394Y-110195544D01*
X169985394Y-109804456D01*
X169909096Y-109420882D01*
X169759433Y-109059564D01*
X169542156Y-108734385D01*
X169265615Y-108457844D01*
X168940436Y-108240567D01*
X168579118Y-108090904D01*
X168195544Y-108014606D01*
X167804456Y-108014606D01*
X167420882Y-108090904D01*
X167059564Y-108240567D01*
X166734385Y-108457844D01*
X166457844Y-108734385D01*
X166240567Y-109059564D01*
X166090904Y-109420882D01*
X166014606Y-109804456D01*
X139985394Y-109804456D01*
X139909096Y-109420882D01*
X139759433Y-109059564D01*
X139542156Y-108734385D01*
X139265615Y-108457844D01*
X138940436Y-108240567D01*
X138579118Y-108090904D01*
X138195544Y-108014606D01*
X137804456Y-108014606D01*
X137420882Y-108090904D01*
X137059564Y-108240567D01*
X136734385Y-108457844D01*
X136457844Y-108734385D01*
X136240567Y-109059564D01*
X136090904Y-109420882D01*
X136014606Y-109804456D01*
X134375000Y-109804456D01*
X134375000Y-107050000D01*
X140139058Y-107050000D01*
X140150797Y-107169189D01*
X140185563Y-107283797D01*
X140242020Y-107389421D01*
X140317999Y-107482001D01*
X140410579Y-107557980D01*
X140516203Y-107614437D01*
X140630811Y-107649203D01*
X140750000Y-107660942D01*
X141294000Y-107658000D01*
X141446000Y-107506000D01*
X141446000Y-106354000D01*
X140294000Y-106354000D01*
X140142000Y-106506000D01*
X140139058Y-107050000D01*
X134375000Y-107050000D01*
X134375000Y-105350000D01*
X140139058Y-105350000D01*
X140142000Y-105894000D01*
X140294000Y-106046000D01*
X141446000Y-106046000D01*
X141446000Y-104894000D01*
X141754000Y-104894000D01*
X141754000Y-106046000D01*
X141774000Y-106046000D01*
X141774000Y-106354000D01*
X141754000Y-106354000D01*
X141754000Y-107506000D01*
X141906000Y-107658000D01*
X142450000Y-107660942D01*
X142569189Y-107649203D01*
X142683797Y-107614437D01*
X142789421Y-107557980D01*
X142882001Y-107482001D01*
X142957980Y-107389421D01*
X143014437Y-107283797D01*
X143049203Y-107169189D01*
X143060942Y-107050000D01*
X143058476Y-106594065D01*
X143120884Y-106744729D01*
X143246737Y-106933082D01*
X143406918Y-107093263D01*
X143595271Y-107219116D01*
X143804557Y-107305806D01*
X144026735Y-107350000D01*
X144253265Y-107350000D01*
X144475443Y-107305806D01*
X144684729Y-107219116D01*
X144873082Y-107093263D01*
X145033263Y-106933082D01*
X145159116Y-106744729D01*
X145245806Y-106535443D01*
X145290000Y-106313265D01*
X145290000Y-106086735D01*
X145530000Y-106086735D01*
X145530000Y-106313265D01*
X145574194Y-106535443D01*
X145660884Y-106744729D01*
X145786737Y-106933082D01*
X145946918Y-107093263D01*
X146135271Y-107219116D01*
X146344557Y-107305806D01*
X146566735Y-107350000D01*
X146793265Y-107350000D01*
X147015443Y-107305806D01*
X147224729Y-107219116D01*
X147413082Y-107093263D01*
X147573263Y-106933082D01*
X147699116Y-106744729D01*
X147785806Y-106535443D01*
X147830000Y-106313265D01*
X147830000Y-106086735D01*
X148070000Y-106086735D01*
X148070000Y-106313265D01*
X148114194Y-106535443D01*
X148200884Y-106744729D01*
X148326737Y-106933082D01*
X148486918Y-107093263D01*
X148675271Y-107219116D01*
X148884557Y-107305806D01*
X149106735Y-107350000D01*
X149333265Y-107350000D01*
X149555443Y-107305806D01*
X149764729Y-107219116D01*
X149953082Y-107093263D01*
X150113263Y-106933082D01*
X150239116Y-106744729D01*
X150325806Y-106535443D01*
X150370000Y-106313265D01*
X150370000Y-106086735D01*
X150610000Y-106086735D01*
X150610000Y-106313265D01*
X150654194Y-106535443D01*
X150740884Y-106744729D01*
X150866737Y-106933082D01*
X151026918Y-107093263D01*
X151215271Y-107219116D01*
X151424557Y-107305806D01*
X151646735Y-107350000D01*
X151873265Y-107350000D01*
X152095443Y-107305806D01*
X152304729Y-107219116D01*
X152493082Y-107093263D01*
X152653263Y-106933082D01*
X152779116Y-106744729D01*
X152865806Y-106535443D01*
X152910000Y-106313265D01*
X152910000Y-106086735D01*
X153150000Y-106086735D01*
X153150000Y-106313265D01*
X153194194Y-106535443D01*
X153280884Y-106744729D01*
X153406737Y-106933082D01*
X153566918Y-107093263D01*
X153755271Y-107219116D01*
X153964557Y-107305806D01*
X154186735Y-107350000D01*
X154413265Y-107350000D01*
X154635443Y-107305806D01*
X154844729Y-107219116D01*
X155033082Y-107093263D01*
X155193263Y-106933082D01*
X155319116Y-106744729D01*
X155405806Y-106535443D01*
X155450000Y-106313265D01*
X155450000Y-106086735D01*
X155690000Y-106086735D01*
X155690000Y-106313265D01*
X155734194Y-106535443D01*
X155820884Y-106744729D01*
X155946737Y-106933082D01*
X156106918Y-107093263D01*
X156295271Y-107219116D01*
X156504557Y-107305806D01*
X156726735Y-107350000D01*
X156953265Y-107350000D01*
X157175443Y-107305806D01*
X157384729Y-107219116D01*
X157573082Y-107093263D01*
X157733263Y-106933082D01*
X157859116Y-106744729D01*
X157945806Y-106535443D01*
X157990000Y-106313265D01*
X157990000Y-106086735D01*
X158230000Y-106086735D01*
X158230000Y-106313265D01*
X158274194Y-106535443D01*
X158360884Y-106744729D01*
X158486737Y-106933082D01*
X158646918Y-107093263D01*
X158835271Y-107219116D01*
X159044557Y-107305806D01*
X159266735Y-107350000D01*
X159493265Y-107350000D01*
X159715443Y-107305806D01*
X159924729Y-107219116D01*
X160113082Y-107093263D01*
X160273263Y-106933082D01*
X160399116Y-106744729D01*
X160485806Y-106535443D01*
X160530000Y-106313265D01*
X160530000Y-106086735D01*
X160770000Y-106086735D01*
X160770000Y-106313265D01*
X160814194Y-106535443D01*
X160900884Y-106744729D01*
X161026737Y-106933082D01*
X161186918Y-107093263D01*
X161375271Y-107219116D01*
X161584557Y-107305806D01*
X161806735Y-107350000D01*
X162033265Y-107350000D01*
X162255443Y-107305806D01*
X162464729Y-107219116D01*
X162653082Y-107093263D01*
X162813263Y-106933082D01*
X162939116Y-106744729D01*
X163025806Y-106535443D01*
X163070000Y-106313265D01*
X163070000Y-106086735D01*
X163310000Y-106086735D01*
X163310000Y-106313265D01*
X163354194Y-106535443D01*
X163440884Y-106744729D01*
X163566737Y-106933082D01*
X163726918Y-107093263D01*
X163915271Y-107219116D01*
X164124557Y-107305806D01*
X164346735Y-107350000D01*
X164573265Y-107350000D01*
X164795443Y-107305806D01*
X165004729Y-107219116D01*
X165193082Y-107093263D01*
X165353263Y-106933082D01*
X165479116Y-106744729D01*
X165565806Y-106535443D01*
X165610000Y-106313265D01*
X165610000Y-106086735D01*
X165565806Y-105864557D01*
X165479116Y-105655271D01*
X165353263Y-105466918D01*
X165193082Y-105306737D01*
X165004729Y-105180884D01*
X164795443Y-105094194D01*
X164573265Y-105050000D01*
X164346735Y-105050000D01*
X164124557Y-105094194D01*
X163915271Y-105180884D01*
X163726918Y-105306737D01*
X163566737Y-105466918D01*
X163440884Y-105655271D01*
X163354194Y-105864557D01*
X163310000Y-106086735D01*
X163070000Y-106086735D01*
X163025806Y-105864557D01*
X162939116Y-105655271D01*
X162813263Y-105466918D01*
X162653082Y-105306737D01*
X162464729Y-105180884D01*
X162255443Y-105094194D01*
X162033265Y-105050000D01*
X161806735Y-105050000D01*
X161584557Y-105094194D01*
X161375271Y-105180884D01*
X161186918Y-105306737D01*
X161026737Y-105466918D01*
X160900884Y-105655271D01*
X160814194Y-105864557D01*
X160770000Y-106086735D01*
X160530000Y-106086735D01*
X160485806Y-105864557D01*
X160399116Y-105655271D01*
X160273263Y-105466918D01*
X160113082Y-105306737D01*
X159924729Y-105180884D01*
X159715443Y-105094194D01*
X159493265Y-105050000D01*
X159266735Y-105050000D01*
X159044557Y-105094194D01*
X158835271Y-105180884D01*
X158646918Y-105306737D01*
X158486737Y-105466918D01*
X158360884Y-105655271D01*
X158274194Y-105864557D01*
X158230000Y-106086735D01*
X157990000Y-106086735D01*
X157945806Y-105864557D01*
X157859116Y-105655271D01*
X157733263Y-105466918D01*
X157573082Y-105306737D01*
X157384729Y-105180884D01*
X157175443Y-105094194D01*
X156953265Y-105050000D01*
X156726735Y-105050000D01*
X156504557Y-105094194D01*
X156295271Y-105180884D01*
X156106918Y-105306737D01*
X155946737Y-105466918D01*
X155820884Y-105655271D01*
X155734194Y-105864557D01*
X155690000Y-106086735D01*
X155450000Y-106086735D01*
X155405806Y-105864557D01*
X155319116Y-105655271D01*
X155193263Y-105466918D01*
X155033082Y-105306737D01*
X154844729Y-105180884D01*
X154635443Y-105094194D01*
X154413265Y-105050000D01*
X154186735Y-105050000D01*
X153964557Y-105094194D01*
X153755271Y-105180884D01*
X153566918Y-105306737D01*
X153406737Y-105466918D01*
X153280884Y-105655271D01*
X153194194Y-105864557D01*
X153150000Y-106086735D01*
X152910000Y-106086735D01*
X152865806Y-105864557D01*
X152779116Y-105655271D01*
X152653263Y-105466918D01*
X152493082Y-105306737D01*
X152304729Y-105180884D01*
X152095443Y-105094194D01*
X151873265Y-105050000D01*
X151646735Y-105050000D01*
X151424557Y-105094194D01*
X151215271Y-105180884D01*
X151026918Y-105306737D01*
X150866737Y-105466918D01*
X150740884Y-105655271D01*
X150654194Y-105864557D01*
X150610000Y-106086735D01*
X150370000Y-106086735D01*
X150325806Y-105864557D01*
X150239116Y-105655271D01*
X150113263Y-105466918D01*
X149953082Y-105306737D01*
X149764729Y-105180884D01*
X149555443Y-105094194D01*
X149333265Y-105050000D01*
X149106735Y-105050000D01*
X148884557Y-105094194D01*
X148675271Y-105180884D01*
X148486918Y-105306737D01*
X148326737Y-105466918D01*
X148200884Y-105655271D01*
X148114194Y-105864557D01*
X148070000Y-106086735D01*
X147830000Y-106086735D01*
X147785806Y-105864557D01*
X147699116Y-105655271D01*
X147573263Y-105466918D01*
X147413082Y-105306737D01*
X147224729Y-105180884D01*
X147015443Y-105094194D01*
X146793265Y-105050000D01*
X146566735Y-105050000D01*
X146344557Y-105094194D01*
X146135271Y-105180884D01*
X145946918Y-105306737D01*
X145786737Y-105466918D01*
X145660884Y-105655271D01*
X145574194Y-105864557D01*
X145530000Y-106086735D01*
X145290000Y-106086735D01*
X145245806Y-105864557D01*
X145190000Y-105729831D01*
X145190000Y-101694923D01*
X145594924Y-101290000D01*
X167529831Y-101290000D01*
X167664557Y-101345806D01*
X167886735Y-101390000D01*
X168113265Y-101390000D01*
X168335443Y-101345806D01*
X168544729Y-101259116D01*
X168733082Y-101133263D01*
X168893263Y-100973082D01*
X169019116Y-100784729D01*
X169105806Y-100575443D01*
X169150000Y-100353265D01*
X169150000Y-100126735D01*
X169105806Y-99904557D01*
X169019116Y-99695271D01*
X168893263Y-99506918D01*
X168733082Y-99346737D01*
X168544729Y-99220884D01*
X168394065Y-99158476D01*
X168850000Y-99160942D01*
X168969189Y-99149203D01*
X169083797Y-99114437D01*
X169189421Y-99057980D01*
X169282001Y-98982001D01*
X169357980Y-98889421D01*
X169414437Y-98783797D01*
X169449203Y-98669189D01*
X169460942Y-98550000D01*
X169458000Y-98006000D01*
X169306000Y-97854000D01*
X168154000Y-97854000D01*
X168154000Y-97874000D01*
X167846000Y-97874000D01*
X167846000Y-97854000D01*
X166694000Y-97854000D01*
X166542000Y-98006000D01*
X166539058Y-98550000D01*
X166550797Y-98669189D01*
X166585563Y-98783797D01*
X166642020Y-98889421D01*
X166717999Y-98982001D01*
X166810579Y-99057980D01*
X166916203Y-99114437D01*
X167030811Y-99149203D01*
X167150000Y-99160942D01*
X167605935Y-99158476D01*
X167529831Y-99190000D01*
X145211571Y-99190000D01*
X145160000Y-99184921D01*
X145108429Y-99190000D01*
X145108422Y-99190000D01*
X144954164Y-99205193D01*
X144756238Y-99265233D01*
X144573829Y-99362733D01*
X144413946Y-99493946D01*
X144381067Y-99534009D01*
X143434014Y-100481063D01*
X143393946Y-100513946D01*
X143262733Y-100673829D01*
X143165233Y-100856239D01*
X143105193Y-101054165D01*
X143090000Y-101208423D01*
X143090000Y-101208432D01*
X143084921Y-101260000D01*
X143090000Y-101311568D01*
X143090001Y-105729829D01*
X143058476Y-105805935D01*
X143060942Y-105350000D01*
X143049203Y-105230811D01*
X143014437Y-105116203D01*
X142957980Y-105010579D01*
X142882001Y-104917999D01*
X142789421Y-104842020D01*
X142683797Y-104785563D01*
X142569189Y-104750797D01*
X142450000Y-104739058D01*
X141906000Y-104742000D01*
X141754000Y-104894000D01*
X141446000Y-104894000D01*
X141294000Y-104742000D01*
X140750000Y-104739058D01*
X140630811Y-104750797D01*
X140516203Y-104785563D01*
X140410579Y-104842020D01*
X140317999Y-104917999D01*
X140242020Y-105010579D01*
X140185563Y-105116203D01*
X140150797Y-105230811D01*
X140139058Y-105350000D01*
X134375000Y-105350000D01*
X134375000Y-101090000D01*
X136539058Y-101090000D01*
X136550797Y-101209189D01*
X136585563Y-101323797D01*
X136642020Y-101429421D01*
X136717999Y-101522001D01*
X136810579Y-101597980D01*
X136916203Y-101654437D01*
X137030811Y-101689203D01*
X137150000Y-101700942D01*
X137694000Y-101698000D01*
X137846000Y-101546000D01*
X137846000Y-100394000D01*
X138154000Y-100394000D01*
X138154000Y-101546000D01*
X138306000Y-101698000D01*
X138850000Y-101700942D01*
X138969189Y-101689203D01*
X139083797Y-101654437D01*
X139189421Y-101597980D01*
X139282001Y-101522001D01*
X139357980Y-101429421D01*
X139414437Y-101323797D01*
X139449203Y-101209189D01*
X139460942Y-101090000D01*
X139458000Y-100546000D01*
X139306000Y-100394000D01*
X138154000Y-100394000D01*
X137846000Y-100394000D01*
X136694000Y-100394000D01*
X136542000Y-100546000D01*
X136539058Y-101090000D01*
X134375000Y-101090000D01*
X134375000Y-99390000D01*
X136539058Y-99390000D01*
X136542000Y-99934000D01*
X136694000Y-100086000D01*
X137846000Y-100086000D01*
X137846000Y-100066000D01*
X138154000Y-100066000D01*
X138154000Y-100086000D01*
X139306000Y-100086000D01*
X139458000Y-99934000D01*
X139460942Y-99390000D01*
X139449203Y-99270811D01*
X139414437Y-99156203D01*
X139357980Y-99050579D01*
X139282001Y-98957999D01*
X139189421Y-98882020D01*
X139083797Y-98825563D01*
X138969189Y-98790797D01*
X138850000Y-98779058D01*
X138394065Y-98781524D01*
X138544729Y-98719116D01*
X138733082Y-98593263D01*
X138893263Y-98433082D01*
X139019116Y-98244729D01*
X139105806Y-98035443D01*
X139150000Y-97813265D01*
X139150000Y-97586735D01*
X139105806Y-97364557D01*
X139019116Y-97155271D01*
X138893263Y-96966918D01*
X138776345Y-96850000D01*
X166539058Y-96850000D01*
X166542000Y-97394000D01*
X166694000Y-97546000D01*
X167846000Y-97546000D01*
X167846000Y-96394000D01*
X168154000Y-96394000D01*
X168154000Y-97546000D01*
X169306000Y-97546000D01*
X169458000Y-97394000D01*
X169460942Y-96850000D01*
X169449203Y-96730811D01*
X169414437Y-96616203D01*
X169357980Y-96510579D01*
X169282001Y-96417999D01*
X169189421Y-96342020D01*
X169083797Y-96285563D01*
X168969189Y-96250797D01*
X168850000Y-96239058D01*
X168306000Y-96242000D01*
X168154000Y-96394000D01*
X167846000Y-96394000D01*
X167694000Y-96242000D01*
X167150000Y-96239058D01*
X167030811Y-96250797D01*
X166916203Y-96285563D01*
X166810579Y-96342020D01*
X166717999Y-96417999D01*
X166642020Y-96510579D01*
X166585563Y-96616203D01*
X166550797Y-96730811D01*
X166539058Y-96850000D01*
X138776345Y-96850000D01*
X138733082Y-96806737D01*
X138544729Y-96680884D01*
X138335443Y-96594194D01*
X138113265Y-96550000D01*
X137886735Y-96550000D01*
X137664557Y-96594194D01*
X137455271Y-96680884D01*
X137266918Y-96806737D01*
X137106737Y-96966918D01*
X136980884Y-97155271D01*
X136894194Y-97364557D01*
X136850000Y-97586735D01*
X136850000Y-97813265D01*
X136894194Y-98035443D01*
X136980884Y-98244729D01*
X137106737Y-98433082D01*
X137266918Y-98593263D01*
X137455271Y-98719116D01*
X137605935Y-98781524D01*
X137150000Y-98779058D01*
X137030811Y-98790797D01*
X136916203Y-98825563D01*
X136810579Y-98882020D01*
X136717999Y-98957999D01*
X136642020Y-99050579D01*
X136585563Y-99156203D01*
X136550797Y-99270811D01*
X136539058Y-99390000D01*
X134375000Y-99390000D01*
X134375000Y-90950000D01*
X142948549Y-90950000D01*
X142948549Y-92650000D01*
X142954341Y-92708810D01*
X142971496Y-92765360D01*
X142999353Y-92817477D01*
X143036842Y-92863158D01*
X143082523Y-92900647D01*
X143134640Y-92928504D01*
X143191190Y-92945659D01*
X143250000Y-92951451D01*
X144950000Y-92951451D01*
X145008810Y-92945659D01*
X145065360Y-92928504D01*
X145117477Y-92900647D01*
X145163158Y-92863158D01*
X145200647Y-92817477D01*
X145228504Y-92765360D01*
X145245659Y-92708810D01*
X145251451Y-92650000D01*
X145251451Y-91686735D01*
X145490000Y-91686735D01*
X145490000Y-91913265D01*
X145534194Y-92135443D01*
X145620884Y-92344729D01*
X145746737Y-92533082D01*
X145906918Y-92693263D01*
X146095271Y-92819116D01*
X146304557Y-92905806D01*
X146526735Y-92950000D01*
X146753265Y-92950000D01*
X146975443Y-92905806D01*
X147184729Y-92819116D01*
X147373082Y-92693263D01*
X147533263Y-92533082D01*
X147659116Y-92344729D01*
X147745806Y-92135443D01*
X147790000Y-91913265D01*
X147790000Y-91686735D01*
X148030000Y-91686735D01*
X148030000Y-91913265D01*
X148074194Y-92135443D01*
X148160884Y-92344729D01*
X148286737Y-92533082D01*
X148446918Y-92693263D01*
X148635271Y-92819116D01*
X148844557Y-92905806D01*
X149066735Y-92950000D01*
X149293265Y-92950000D01*
X149515443Y-92905806D01*
X149724729Y-92819116D01*
X149913082Y-92693263D01*
X150073263Y-92533082D01*
X150199116Y-92344729D01*
X150285806Y-92135443D01*
X150330000Y-91913265D01*
X150330000Y-91686735D01*
X150570000Y-91686735D01*
X150570000Y-91913265D01*
X150614194Y-92135443D01*
X150700884Y-92344729D01*
X150826737Y-92533082D01*
X150986918Y-92693263D01*
X151175271Y-92819116D01*
X151384557Y-92905806D01*
X151606735Y-92950000D01*
X151833265Y-92950000D01*
X152055443Y-92905806D01*
X152264729Y-92819116D01*
X152453082Y-92693263D01*
X152613263Y-92533082D01*
X152739116Y-92344729D01*
X152825806Y-92135443D01*
X152870000Y-91913265D01*
X152870000Y-91686735D01*
X153110000Y-91686735D01*
X153110000Y-91913265D01*
X153154194Y-92135443D01*
X153240884Y-92344729D01*
X153366737Y-92533082D01*
X153526918Y-92693263D01*
X153715271Y-92819116D01*
X153924557Y-92905806D01*
X154146735Y-92950000D01*
X154373265Y-92950000D01*
X154595443Y-92905806D01*
X154804729Y-92819116D01*
X154993082Y-92693263D01*
X155153263Y-92533082D01*
X155279116Y-92344729D01*
X155365806Y-92135443D01*
X155410000Y-91913265D01*
X155410000Y-91686735D01*
X155650000Y-91686735D01*
X155650000Y-91913265D01*
X155694194Y-92135443D01*
X155780884Y-92344729D01*
X155906737Y-92533082D01*
X156066918Y-92693263D01*
X156255271Y-92819116D01*
X156464557Y-92905806D01*
X156686735Y-92950000D01*
X156913265Y-92950000D01*
X157135443Y-92905806D01*
X157344729Y-92819116D01*
X157533082Y-92693263D01*
X157693263Y-92533082D01*
X157819116Y-92344729D01*
X157905806Y-92135443D01*
X157950000Y-91913265D01*
X157950000Y-91686735D01*
X158190000Y-91686735D01*
X158190000Y-91913265D01*
X158234194Y-92135443D01*
X158320884Y-92344729D01*
X158446737Y-92533082D01*
X158606918Y-92693263D01*
X158795271Y-92819116D01*
X159004557Y-92905806D01*
X159226735Y-92950000D01*
X159453265Y-92950000D01*
X159675443Y-92905806D01*
X159884729Y-92819116D01*
X160073082Y-92693263D01*
X160233263Y-92533082D01*
X160359116Y-92344729D01*
X160445806Y-92135443D01*
X160490000Y-91913265D01*
X160490000Y-91686735D01*
X160730000Y-91686735D01*
X160730000Y-91913265D01*
X160774194Y-92135443D01*
X160860884Y-92344729D01*
X160986737Y-92533082D01*
X161146918Y-92693263D01*
X161335271Y-92819116D01*
X161544557Y-92905806D01*
X161766735Y-92950000D01*
X161993265Y-92950000D01*
X162215443Y-92905806D01*
X162424729Y-92819116D01*
X162613082Y-92693263D01*
X162773263Y-92533082D01*
X162899116Y-92344729D01*
X162985806Y-92135443D01*
X163030000Y-91913265D01*
X163030000Y-91686735D01*
X162985806Y-91464557D01*
X162899116Y-91255271D01*
X162773263Y-91066918D01*
X162613082Y-90906737D01*
X162424729Y-90780884D01*
X162215443Y-90694194D01*
X161993265Y-90650000D01*
X161766735Y-90650000D01*
X161544557Y-90694194D01*
X161335271Y-90780884D01*
X161146918Y-90906737D01*
X160986737Y-91066918D01*
X160860884Y-91255271D01*
X160774194Y-91464557D01*
X160730000Y-91686735D01*
X160490000Y-91686735D01*
X160445806Y-91464557D01*
X160359116Y-91255271D01*
X160233263Y-91066918D01*
X160073082Y-90906737D01*
X159884729Y-90780884D01*
X159675443Y-90694194D01*
X159453265Y-90650000D01*
X159226735Y-90650000D01*
X159004557Y-90694194D01*
X158795271Y-90780884D01*
X158606918Y-90906737D01*
X158446737Y-91066918D01*
X158320884Y-91255271D01*
X158234194Y-91464557D01*
X158190000Y-91686735D01*
X157950000Y-91686735D01*
X157905806Y-91464557D01*
X157819116Y-91255271D01*
X157693263Y-91066918D01*
X157533082Y-90906737D01*
X157344729Y-90780884D01*
X157135443Y-90694194D01*
X156913265Y-90650000D01*
X156686735Y-90650000D01*
X156464557Y-90694194D01*
X156255271Y-90780884D01*
X156066918Y-90906737D01*
X155906737Y-91066918D01*
X155780884Y-91255271D01*
X155694194Y-91464557D01*
X155650000Y-91686735D01*
X155410000Y-91686735D01*
X155365806Y-91464557D01*
X155279116Y-91255271D01*
X155153263Y-91066918D01*
X154993082Y-90906737D01*
X154804729Y-90780884D01*
X154595443Y-90694194D01*
X154373265Y-90650000D01*
X154146735Y-90650000D01*
X153924557Y-90694194D01*
X153715271Y-90780884D01*
X153526918Y-90906737D01*
X153366737Y-91066918D01*
X153240884Y-91255271D01*
X153154194Y-91464557D01*
X153110000Y-91686735D01*
X152870000Y-91686735D01*
X152825806Y-91464557D01*
X152739116Y-91255271D01*
X152613263Y-91066918D01*
X152453082Y-90906737D01*
X152264729Y-90780884D01*
X152055443Y-90694194D01*
X151833265Y-90650000D01*
X151606735Y-90650000D01*
X151384557Y-90694194D01*
X151175271Y-90780884D01*
X150986918Y-90906737D01*
X150826737Y-91066918D01*
X150700884Y-91255271D01*
X150614194Y-91464557D01*
X150570000Y-91686735D01*
X150330000Y-91686735D01*
X150285806Y-91464557D01*
X150199116Y-91255271D01*
X150073263Y-91066918D01*
X149913082Y-90906737D01*
X149724729Y-90780884D01*
X149515443Y-90694194D01*
X149293265Y-90650000D01*
X149066735Y-90650000D01*
X148844557Y-90694194D01*
X148635271Y-90780884D01*
X148446918Y-90906737D01*
X148286737Y-91066918D01*
X148160884Y-91255271D01*
X148074194Y-91464557D01*
X148030000Y-91686735D01*
X147790000Y-91686735D01*
X147745806Y-91464557D01*
X147659116Y-91255271D01*
X147533263Y-91066918D01*
X147373082Y-90906737D01*
X147184729Y-90780884D01*
X146975443Y-90694194D01*
X146753265Y-90650000D01*
X146526735Y-90650000D01*
X146304557Y-90694194D01*
X146095271Y-90780884D01*
X145906918Y-90906737D01*
X145746737Y-91066918D01*
X145620884Y-91255271D01*
X145534194Y-91464557D01*
X145490000Y-91686735D01*
X145251451Y-91686735D01*
X145251451Y-90950000D01*
X145245659Y-90891190D01*
X145228504Y-90834640D01*
X145200647Y-90782523D01*
X145163158Y-90736842D01*
X145117477Y-90699353D01*
X145065360Y-90671496D01*
X145008810Y-90654341D01*
X144950000Y-90648549D01*
X143250000Y-90648549D01*
X143191190Y-90654341D01*
X143134640Y-90671496D01*
X143082523Y-90699353D01*
X143036842Y-90736842D01*
X142999353Y-90782523D01*
X142971496Y-90834640D01*
X142954341Y-90891190D01*
X142948549Y-90950000D01*
X134375000Y-90950000D01*
X134375000Y-88018337D01*
X134395971Y-87804456D01*
X136014606Y-87804456D01*
X136014606Y-88195544D01*
X136090904Y-88579118D01*
X136240567Y-88940436D01*
X136457844Y-89265615D01*
X136734385Y-89542156D01*
X137059564Y-89759433D01*
X137420882Y-89909096D01*
X137804456Y-89985394D01*
X138195544Y-89985394D01*
X138579118Y-89909096D01*
X138940436Y-89759433D01*
X139265615Y-89542156D01*
X139542156Y-89265615D01*
X139759433Y-88940436D01*
X139909096Y-88579118D01*
X139985394Y-88195544D01*
X139985394Y-87804456D01*
X166014606Y-87804456D01*
X166014606Y-88195544D01*
X166090904Y-88579118D01*
X166240567Y-88940436D01*
X166457844Y-89265615D01*
X166734385Y-89542156D01*
X167059564Y-89759433D01*
X167420882Y-89909096D01*
X167804456Y-89985394D01*
X168195544Y-89985394D01*
X168579118Y-89909096D01*
X168940436Y-89759433D01*
X169265615Y-89542156D01*
X169542156Y-89265615D01*
X169759433Y-88940436D01*
X169909096Y-88579118D01*
X169985394Y-88195544D01*
X169985394Y-87804456D01*
X169909096Y-87420882D01*
X169759433Y-87059564D01*
X169542156Y-86734385D01*
X169265615Y-86457844D01*
X168940436Y-86240567D01*
X168579118Y-86090904D01*
X168195544Y-86014606D01*
X167804456Y-86014606D01*
X167420882Y-86090904D01*
X167059564Y-86240567D01*
X166734385Y-86457844D01*
X166457844Y-86734385D01*
X166240567Y-87059564D01*
X166090904Y-87420882D01*
X166014606Y-87804456D01*
X139985394Y-87804456D01*
X139909096Y-87420882D01*
X139759433Y-87059564D01*
X139542156Y-86734385D01*
X139265615Y-86457844D01*
X138940436Y-86240567D01*
X138579118Y-86090904D01*
X138195544Y-86014606D01*
X137804456Y-86014606D01*
X137420882Y-86090904D01*
X137059564Y-86240567D01*
X136734385Y-86457844D01*
X136457844Y-86734385D01*
X136240567Y-87059564D01*
X136090904Y-87420882D01*
X136014606Y-87804456D01*
X134395971Y-87804456D01*
X134445801Y-87296253D01*
X134650184Y-86619303D01*
X134982159Y-85994950D01*
X135429080Y-85446970D01*
X135973930Y-84996230D01*
X136595954Y-84659903D01*
X137271455Y-84450801D01*
X137992379Y-84375029D01*
X138000726Y-84375000D01*
X167981663Y-84375000D01*
X168703747Y-84445801D01*
G37*
X168703747Y-84445801D02*
X169380697Y-84650184D01*
X170005050Y-84982159D01*
X170553030Y-85429080D01*
X171003770Y-85973930D01*
X171340097Y-86595954D01*
X171549199Y-87271455D01*
X171624971Y-87992379D01*
X171625000Y-88000726D01*
X171625001Y-109981652D01*
X171554199Y-110703747D01*
X171349816Y-111380697D01*
X171017844Y-112005045D01*
X170570920Y-112553030D01*
X170026066Y-113003772D01*
X169404047Y-113340097D01*
X168728550Y-113549198D01*
X168007622Y-113624971D01*
X167999273Y-113625000D01*
X138018338Y-113625000D01*
X137296253Y-113554199D01*
X136619303Y-113349816D01*
X135994955Y-113017844D01*
X135446970Y-112570920D01*
X134996228Y-112026066D01*
X134659903Y-111404047D01*
X134450802Y-110728550D01*
X134375029Y-110007622D01*
X134375000Y-109999273D01*
X134375000Y-109804456D01*
X136014606Y-109804456D01*
X136014606Y-110195544D01*
X136090904Y-110579118D01*
X136240567Y-110940436D01*
X136457844Y-111265615D01*
X136734385Y-111542156D01*
X137059564Y-111759433D01*
X137420882Y-111909096D01*
X137804456Y-111985394D01*
X138195544Y-111985394D01*
X138579118Y-111909096D01*
X138940436Y-111759433D01*
X139265615Y-111542156D01*
X139542156Y-111265615D01*
X139759433Y-110940436D01*
X139909096Y-110579118D01*
X139985394Y-110195544D01*
X139985394Y-109804456D01*
X166014606Y-109804456D01*
X166014606Y-110195544D01*
X166090904Y-110579118D01*
X166240567Y-110940436D01*
X166457844Y-111265615D01*
X166734385Y-111542156D01*
X167059564Y-111759433D01*
X167420882Y-111909096D01*
X167804456Y-111985394D01*
X168195544Y-111985394D01*
X168579118Y-111909096D01*
X168940436Y-111759433D01*
X169265615Y-111542156D01*
X169542156Y-111265615D01*
X169759433Y-110940436D01*
X169909096Y-110579118D01*
X169985394Y-110195544D01*
X169985394Y-109804456D01*
X169909096Y-109420882D01*
X169759433Y-109059564D01*
X169542156Y-108734385D01*
X169265615Y-108457844D01*
X168940436Y-108240567D01*
X168579118Y-108090904D01*
X168195544Y-108014606D01*
X167804456Y-108014606D01*
X167420882Y-108090904D01*
X167059564Y-108240567D01*
X166734385Y-108457844D01*
X166457844Y-108734385D01*
X166240567Y-109059564D01*
X166090904Y-109420882D01*
X166014606Y-109804456D01*
X139985394Y-109804456D01*
X139909096Y-109420882D01*
X139759433Y-109059564D01*
X139542156Y-108734385D01*
X139265615Y-108457844D01*
X138940436Y-108240567D01*
X138579118Y-108090904D01*
X138195544Y-108014606D01*
X137804456Y-108014606D01*
X137420882Y-108090904D01*
X137059564Y-108240567D01*
X136734385Y-108457844D01*
X136457844Y-108734385D01*
X136240567Y-109059564D01*
X136090904Y-109420882D01*
X136014606Y-109804456D01*
X134375000Y-109804456D01*
X134375000Y-107050000D01*
X140139058Y-107050000D01*
X140150797Y-107169189D01*
X140185563Y-107283797D01*
X140242020Y-107389421D01*
X140317999Y-107482001D01*
X140410579Y-107557980D01*
X140516203Y-107614437D01*
X140630811Y-107649203D01*
X140750000Y-107660942D01*
X141294000Y-107658000D01*
X141446000Y-107506000D01*
X141446000Y-106354000D01*
X140294000Y-106354000D01*
X140142000Y-106506000D01*
X140139058Y-107050000D01*
X134375000Y-107050000D01*
X134375000Y-105350000D01*
X140139058Y-105350000D01*
X140142000Y-105894000D01*
X140294000Y-106046000D01*
X141446000Y-106046000D01*
X141446000Y-104894000D01*
X141754000Y-104894000D01*
X141754000Y-106046000D01*
X141774000Y-106046000D01*
X141774000Y-106354000D01*
X141754000Y-106354000D01*
X141754000Y-107506000D01*
X141906000Y-107658000D01*
X142450000Y-107660942D01*
X142569189Y-107649203D01*
X142683797Y-107614437D01*
X142789421Y-107557980D01*
X142882001Y-107482001D01*
X142957980Y-107389421D01*
X143014437Y-107283797D01*
X143049203Y-107169189D01*
X143060942Y-107050000D01*
X143058476Y-106594065D01*
X143120884Y-106744729D01*
X143246737Y-106933082D01*
X143406918Y-107093263D01*
X143595271Y-107219116D01*
X143804557Y-107305806D01*
X144026735Y-107350000D01*
X144253265Y-107350000D01*
X144475443Y-107305806D01*
X144684729Y-107219116D01*
X144873082Y-107093263D01*
X145033263Y-106933082D01*
X145159116Y-106744729D01*
X145245806Y-106535443D01*
X145290000Y-106313265D01*
X145290000Y-106086735D01*
X145530000Y-106086735D01*
X145530000Y-106313265D01*
X145574194Y-106535443D01*
X145660884Y-106744729D01*
X145786737Y-106933082D01*
X145946918Y-107093263D01*
X146135271Y-107219116D01*
X146344557Y-107305806D01*
X146566735Y-107350000D01*
X146793265Y-107350000D01*
X147015443Y-107305806D01*
X147224729Y-107219116D01*
X147413082Y-107093263D01*
X147573263Y-106933082D01*
X147699116Y-106744729D01*
X147785806Y-106535443D01*
X147830000Y-106313265D01*
X147830000Y-106086735D01*
X148070000Y-106086735D01*
X148070000Y-106313265D01*
X148114194Y-106535443D01*
X148200884Y-106744729D01*
X148326737Y-106933082D01*
X148486918Y-107093263D01*
X148675271Y-107219116D01*
X148884557Y-107305806D01*
X149106735Y-107350000D01*
X149333265Y-107350000D01*
X149555443Y-107305806D01*
X149764729Y-107219116D01*
X149953082Y-107093263D01*
X150113263Y-106933082D01*
X150239116Y-106744729D01*
X150325806Y-106535443D01*
X150370000Y-106313265D01*
X150370000Y-106086735D01*
X150610000Y-106086735D01*
X150610000Y-106313265D01*
X150654194Y-106535443D01*
X150740884Y-106744729D01*
X150866737Y-106933082D01*
X151026918Y-107093263D01*
X151215271Y-107219116D01*
X151424557Y-107305806D01*
X151646735Y-107350000D01*
X151873265Y-107350000D01*
X152095443Y-107305806D01*
X152304729Y-107219116D01*
X152493082Y-107093263D01*
X152653263Y-106933082D01*
X152779116Y-106744729D01*
X152865806Y-106535443D01*
X152910000Y-106313265D01*
X152910000Y-106086735D01*
X153150000Y-106086735D01*
X153150000Y-106313265D01*
X153194194Y-106535443D01*
X153280884Y-106744729D01*
X153406737Y-106933082D01*
X153566918Y-107093263D01*
X153755271Y-107219116D01*
X153964557Y-107305806D01*
X154186735Y-107350000D01*
X154413265Y-107350000D01*
X154635443Y-107305806D01*
X154844729Y-107219116D01*
X155033082Y-107093263D01*
X155193263Y-106933082D01*
X155319116Y-106744729D01*
X155405806Y-106535443D01*
X155450000Y-106313265D01*
X155450000Y-106086735D01*
X155690000Y-106086735D01*
X155690000Y-106313265D01*
X155734194Y-106535443D01*
X155820884Y-106744729D01*
X155946737Y-106933082D01*
X156106918Y-107093263D01*
X156295271Y-107219116D01*
X156504557Y-107305806D01*
X156726735Y-107350000D01*
X156953265Y-107350000D01*
X157175443Y-107305806D01*
X157384729Y-107219116D01*
X157573082Y-107093263D01*
X157733263Y-106933082D01*
X157859116Y-106744729D01*
X157945806Y-106535443D01*
X157990000Y-106313265D01*
X157990000Y-106086735D01*
X158230000Y-106086735D01*
X158230000Y-106313265D01*
X158274194Y-106535443D01*
X158360884Y-106744729D01*
X158486737Y-106933082D01*
X158646918Y-107093263D01*
X158835271Y-107219116D01*
X159044557Y-107305806D01*
X159266735Y-107350000D01*
X159493265Y-107350000D01*
X159715443Y-107305806D01*
X159924729Y-107219116D01*
X160113082Y-107093263D01*
X160273263Y-106933082D01*
X160399116Y-106744729D01*
X160485806Y-106535443D01*
X160530000Y-106313265D01*
X160530000Y-106086735D01*
X160770000Y-106086735D01*
X160770000Y-106313265D01*
X160814194Y-106535443D01*
X160900884Y-106744729D01*
X161026737Y-106933082D01*
X161186918Y-107093263D01*
X161375271Y-107219116D01*
X161584557Y-107305806D01*
X161806735Y-107350000D01*
X162033265Y-107350000D01*
X162255443Y-107305806D01*
X162464729Y-107219116D01*
X162653082Y-107093263D01*
X162813263Y-106933082D01*
X162939116Y-106744729D01*
X163025806Y-106535443D01*
X163070000Y-106313265D01*
X163070000Y-106086735D01*
X163310000Y-106086735D01*
X163310000Y-106313265D01*
X163354194Y-106535443D01*
X163440884Y-106744729D01*
X163566737Y-106933082D01*
X163726918Y-107093263D01*
X163915271Y-107219116D01*
X164124557Y-107305806D01*
X164346735Y-107350000D01*
X164573265Y-107350000D01*
X164795443Y-107305806D01*
X165004729Y-107219116D01*
X165193082Y-107093263D01*
X165353263Y-106933082D01*
X165479116Y-106744729D01*
X165565806Y-106535443D01*
X165610000Y-106313265D01*
X165610000Y-106086735D01*
X165565806Y-105864557D01*
X165479116Y-105655271D01*
X165353263Y-105466918D01*
X165193082Y-105306737D01*
X165004729Y-105180884D01*
X164795443Y-105094194D01*
X164573265Y-105050000D01*
X164346735Y-105050000D01*
X164124557Y-105094194D01*
X163915271Y-105180884D01*
X163726918Y-105306737D01*
X163566737Y-105466918D01*
X163440884Y-105655271D01*
X163354194Y-105864557D01*
X163310000Y-106086735D01*
X163070000Y-106086735D01*
X163025806Y-105864557D01*
X162939116Y-105655271D01*
X162813263Y-105466918D01*
X162653082Y-105306737D01*
X162464729Y-105180884D01*
X162255443Y-105094194D01*
X162033265Y-105050000D01*
X161806735Y-105050000D01*
X161584557Y-105094194D01*
X161375271Y-105180884D01*
X161186918Y-105306737D01*
X161026737Y-105466918D01*
X160900884Y-105655271D01*
X160814194Y-105864557D01*
X160770000Y-106086735D01*
X160530000Y-106086735D01*
X160485806Y-105864557D01*
X160399116Y-105655271D01*
X160273263Y-105466918D01*
X160113082Y-105306737D01*
X159924729Y-105180884D01*
X159715443Y-105094194D01*
X159493265Y-105050000D01*
X159266735Y-105050000D01*
X159044557Y-105094194D01*
X158835271Y-105180884D01*
X158646918Y-105306737D01*
X158486737Y-105466918D01*
X158360884Y-105655271D01*
X158274194Y-105864557D01*
X158230000Y-106086735D01*
X157990000Y-106086735D01*
X157945806Y-105864557D01*
X157859116Y-105655271D01*
X157733263Y-105466918D01*
X157573082Y-105306737D01*
X157384729Y-105180884D01*
X157175443Y-105094194D01*
X156953265Y-105050000D01*
X156726735Y-105050000D01*
X156504557Y-105094194D01*
X156295271Y-105180884D01*
X156106918Y-105306737D01*
X155946737Y-105466918D01*
X155820884Y-105655271D01*
X155734194Y-105864557D01*
X155690000Y-106086735D01*
X155450000Y-106086735D01*
X155405806Y-105864557D01*
X155319116Y-105655271D01*
X155193263Y-105466918D01*
X155033082Y-105306737D01*
X154844729Y-105180884D01*
X154635443Y-105094194D01*
X154413265Y-105050000D01*
X154186735Y-105050000D01*
X153964557Y-105094194D01*
X153755271Y-105180884D01*
X153566918Y-105306737D01*
X153406737Y-105466918D01*
X153280884Y-105655271D01*
X153194194Y-105864557D01*
X153150000Y-106086735D01*
X152910000Y-106086735D01*
X152865806Y-105864557D01*
X152779116Y-105655271D01*
X152653263Y-105466918D01*
X152493082Y-105306737D01*
X152304729Y-105180884D01*
X152095443Y-105094194D01*
X151873265Y-105050000D01*
X151646735Y-105050000D01*
X151424557Y-105094194D01*
X151215271Y-105180884D01*
X151026918Y-105306737D01*
X150866737Y-105466918D01*
X150740884Y-105655271D01*
X150654194Y-105864557D01*
X150610000Y-106086735D01*
X150370000Y-106086735D01*
X150325806Y-105864557D01*
X150239116Y-105655271D01*
X150113263Y-105466918D01*
X149953082Y-105306737D01*
X149764729Y-105180884D01*
X149555443Y-105094194D01*
X149333265Y-105050000D01*
X149106735Y-105050000D01*
X148884557Y-105094194D01*
X148675271Y-105180884D01*
X148486918Y-105306737D01*
X148326737Y-105466918D01*
X148200884Y-105655271D01*
X148114194Y-105864557D01*
X148070000Y-106086735D01*
X147830000Y-106086735D01*
X147785806Y-105864557D01*
X147699116Y-105655271D01*
X147573263Y-105466918D01*
X147413082Y-105306737D01*
X147224729Y-105180884D01*
X147015443Y-105094194D01*
X146793265Y-105050000D01*
X146566735Y-105050000D01*
X146344557Y-105094194D01*
X146135271Y-105180884D01*
X145946918Y-105306737D01*
X145786737Y-105466918D01*
X145660884Y-105655271D01*
X145574194Y-105864557D01*
X145530000Y-106086735D01*
X145290000Y-106086735D01*
X145245806Y-105864557D01*
X145190000Y-105729831D01*
X145190000Y-101694923D01*
X145594924Y-101290000D01*
X167529831Y-101290000D01*
X167664557Y-101345806D01*
X167886735Y-101390000D01*
X168113265Y-101390000D01*
X168335443Y-101345806D01*
X168544729Y-101259116D01*
X168733082Y-101133263D01*
X168893263Y-100973082D01*
X169019116Y-100784729D01*
X169105806Y-100575443D01*
X169150000Y-100353265D01*
X169150000Y-100126735D01*
X169105806Y-99904557D01*
X169019116Y-99695271D01*
X168893263Y-99506918D01*
X168733082Y-99346737D01*
X168544729Y-99220884D01*
X168394065Y-99158476D01*
X168850000Y-99160942D01*
X168969189Y-99149203D01*
X169083797Y-99114437D01*
X169189421Y-99057980D01*
X169282001Y-98982001D01*
X169357980Y-98889421D01*
X169414437Y-98783797D01*
X169449203Y-98669189D01*
X169460942Y-98550000D01*
X169458000Y-98006000D01*
X169306000Y-97854000D01*
X168154000Y-97854000D01*
X168154000Y-97874000D01*
X167846000Y-97874000D01*
X167846000Y-97854000D01*
X166694000Y-97854000D01*
X166542000Y-98006000D01*
X166539058Y-98550000D01*
X166550797Y-98669189D01*
X166585563Y-98783797D01*
X166642020Y-98889421D01*
X166717999Y-98982001D01*
X166810579Y-99057980D01*
X166916203Y-99114437D01*
X167030811Y-99149203D01*
X167150000Y-99160942D01*
X167605935Y-99158476D01*
X167529831Y-99190000D01*
X145211571Y-99190000D01*
X145160000Y-99184921D01*
X145108429Y-99190000D01*
X145108422Y-99190000D01*
X144954164Y-99205193D01*
X144756238Y-99265233D01*
X144573829Y-99362733D01*
X144413946Y-99493946D01*
X144381067Y-99534009D01*
X143434014Y-100481063D01*
X143393946Y-100513946D01*
X143262733Y-100673829D01*
X143165233Y-100856239D01*
X143105193Y-101054165D01*
X143090000Y-101208423D01*
X143090000Y-101208432D01*
X143084921Y-101260000D01*
X143090000Y-101311568D01*
X143090001Y-105729829D01*
X143058476Y-105805935D01*
X143060942Y-105350000D01*
X143049203Y-105230811D01*
X143014437Y-105116203D01*
X142957980Y-105010579D01*
X142882001Y-104917999D01*
X142789421Y-104842020D01*
X142683797Y-104785563D01*
X142569189Y-104750797D01*
X142450000Y-104739058D01*
X141906000Y-104742000D01*
X141754000Y-104894000D01*
X141446000Y-104894000D01*
X141294000Y-104742000D01*
X140750000Y-104739058D01*
X140630811Y-104750797D01*
X140516203Y-104785563D01*
X140410579Y-104842020D01*
X140317999Y-104917999D01*
X140242020Y-105010579D01*
X140185563Y-105116203D01*
X140150797Y-105230811D01*
X140139058Y-105350000D01*
X134375000Y-105350000D01*
X134375000Y-101090000D01*
X136539058Y-101090000D01*
X136550797Y-101209189D01*
X136585563Y-101323797D01*
X136642020Y-101429421D01*
X136717999Y-101522001D01*
X136810579Y-101597980D01*
X136916203Y-101654437D01*
X137030811Y-101689203D01*
X137150000Y-101700942D01*
X137694000Y-101698000D01*
X137846000Y-101546000D01*
X137846000Y-100394000D01*
X138154000Y-100394000D01*
X138154000Y-101546000D01*
X138306000Y-101698000D01*
X138850000Y-101700942D01*
X138969189Y-101689203D01*
X139083797Y-101654437D01*
X139189421Y-101597980D01*
X139282001Y-101522001D01*
X139357980Y-101429421D01*
X139414437Y-101323797D01*
X139449203Y-101209189D01*
X139460942Y-101090000D01*
X139458000Y-100546000D01*
X139306000Y-100394000D01*
X138154000Y-100394000D01*
X137846000Y-100394000D01*
X136694000Y-100394000D01*
X136542000Y-100546000D01*
X136539058Y-101090000D01*
X134375000Y-101090000D01*
X134375000Y-99390000D01*
X136539058Y-99390000D01*
X136542000Y-99934000D01*
X136694000Y-100086000D01*
X137846000Y-100086000D01*
X137846000Y-100066000D01*
X138154000Y-100066000D01*
X138154000Y-100086000D01*
X139306000Y-100086000D01*
X139458000Y-99934000D01*
X139460942Y-99390000D01*
X139449203Y-99270811D01*
X139414437Y-99156203D01*
X139357980Y-99050579D01*
X139282001Y-98957999D01*
X139189421Y-98882020D01*
X139083797Y-98825563D01*
X138969189Y-98790797D01*
X138850000Y-98779058D01*
X138394065Y-98781524D01*
X138544729Y-98719116D01*
X138733082Y-98593263D01*
X138893263Y-98433082D01*
X139019116Y-98244729D01*
X139105806Y-98035443D01*
X139150000Y-97813265D01*
X139150000Y-97586735D01*
X139105806Y-97364557D01*
X139019116Y-97155271D01*
X138893263Y-96966918D01*
X138776345Y-96850000D01*
X166539058Y-96850000D01*
X166542000Y-97394000D01*
X166694000Y-97546000D01*
X167846000Y-97546000D01*
X167846000Y-96394000D01*
X168154000Y-96394000D01*
X168154000Y-97546000D01*
X169306000Y-97546000D01*
X169458000Y-97394000D01*
X169460942Y-96850000D01*
X169449203Y-96730811D01*
X169414437Y-96616203D01*
X169357980Y-96510579D01*
X169282001Y-96417999D01*
X169189421Y-96342020D01*
X169083797Y-96285563D01*
X168969189Y-96250797D01*
X168850000Y-96239058D01*
X168306000Y-96242000D01*
X168154000Y-96394000D01*
X167846000Y-96394000D01*
X167694000Y-96242000D01*
X167150000Y-96239058D01*
X167030811Y-96250797D01*
X166916203Y-96285563D01*
X166810579Y-96342020D01*
X166717999Y-96417999D01*
X166642020Y-96510579D01*
X166585563Y-96616203D01*
X166550797Y-96730811D01*
X166539058Y-96850000D01*
X138776345Y-96850000D01*
X138733082Y-96806737D01*
X138544729Y-96680884D01*
X138335443Y-96594194D01*
X138113265Y-96550000D01*
X137886735Y-96550000D01*
X137664557Y-96594194D01*
X137455271Y-96680884D01*
X137266918Y-96806737D01*
X137106737Y-96966918D01*
X136980884Y-97155271D01*
X136894194Y-97364557D01*
X136850000Y-97586735D01*
X136850000Y-97813265D01*
X136894194Y-98035443D01*
X136980884Y-98244729D01*
X137106737Y-98433082D01*
X137266918Y-98593263D01*
X137455271Y-98719116D01*
X137605935Y-98781524D01*
X137150000Y-98779058D01*
X137030811Y-98790797D01*
X136916203Y-98825563D01*
X136810579Y-98882020D01*
X136717999Y-98957999D01*
X136642020Y-99050579D01*
X136585563Y-99156203D01*
X136550797Y-99270811D01*
X136539058Y-99390000D01*
X134375000Y-99390000D01*
X134375000Y-90950000D01*
X142948549Y-90950000D01*
X142948549Y-92650000D01*
X142954341Y-92708810D01*
X142971496Y-92765360D01*
X142999353Y-92817477D01*
X143036842Y-92863158D01*
X143082523Y-92900647D01*
X143134640Y-92928504D01*
X143191190Y-92945659D01*
X143250000Y-92951451D01*
X144950000Y-92951451D01*
X145008810Y-92945659D01*
X145065360Y-92928504D01*
X145117477Y-92900647D01*
X145163158Y-92863158D01*
X145200647Y-92817477D01*
X145228504Y-92765360D01*
X145245659Y-92708810D01*
X145251451Y-92650000D01*
X145251451Y-91686735D01*
X145490000Y-91686735D01*
X145490000Y-91913265D01*
X145534194Y-92135443D01*
X145620884Y-92344729D01*
X145746737Y-92533082D01*
X145906918Y-92693263D01*
X146095271Y-92819116D01*
X146304557Y-92905806D01*
X146526735Y-92950000D01*
X146753265Y-92950000D01*
X146975443Y-92905806D01*
X147184729Y-92819116D01*
X147373082Y-92693263D01*
X147533263Y-92533082D01*
X147659116Y-92344729D01*
X147745806Y-92135443D01*
X147790000Y-91913265D01*
X147790000Y-91686735D01*
X148030000Y-91686735D01*
X148030000Y-91913265D01*
X148074194Y-92135443D01*
X148160884Y-92344729D01*
X148286737Y-92533082D01*
X148446918Y-92693263D01*
X148635271Y-92819116D01*
X148844557Y-92905806D01*
X149066735Y-92950000D01*
X149293265Y-92950000D01*
X149515443Y-92905806D01*
X149724729Y-92819116D01*
X149913082Y-92693263D01*
X150073263Y-92533082D01*
X150199116Y-92344729D01*
X150285806Y-92135443D01*
X150330000Y-91913265D01*
X150330000Y-91686735D01*
X150570000Y-91686735D01*
X150570000Y-91913265D01*
X150614194Y-92135443D01*
X150700884Y-92344729D01*
X150826737Y-92533082D01*
X150986918Y-92693263D01*
X151175271Y-92819116D01*
X151384557Y-92905806D01*
X151606735Y-92950000D01*
X151833265Y-92950000D01*
X152055443Y-92905806D01*
X152264729Y-92819116D01*
X152453082Y-92693263D01*
X152613263Y-92533082D01*
X152739116Y-92344729D01*
X152825806Y-92135443D01*
X152870000Y-91913265D01*
X152870000Y-91686735D01*
X153110000Y-91686735D01*
X153110000Y-91913265D01*
X153154194Y-92135443D01*
X153240884Y-92344729D01*
X153366737Y-92533082D01*
X153526918Y-92693263D01*
X153715271Y-92819116D01*
X153924557Y-92905806D01*
X154146735Y-92950000D01*
X154373265Y-92950000D01*
X154595443Y-92905806D01*
X154804729Y-92819116D01*
X154993082Y-92693263D01*
X155153263Y-92533082D01*
X155279116Y-92344729D01*
X155365806Y-92135443D01*
X155410000Y-91913265D01*
X155410000Y-91686735D01*
X155650000Y-91686735D01*
X155650000Y-91913265D01*
X155694194Y-92135443D01*
X155780884Y-92344729D01*
X155906737Y-92533082D01*
X156066918Y-92693263D01*
X156255271Y-92819116D01*
X156464557Y-92905806D01*
X156686735Y-92950000D01*
X156913265Y-92950000D01*
X157135443Y-92905806D01*
X157344729Y-92819116D01*
X157533082Y-92693263D01*
X157693263Y-92533082D01*
X157819116Y-92344729D01*
X157905806Y-92135443D01*
X157950000Y-91913265D01*
X157950000Y-91686735D01*
X158190000Y-91686735D01*
X158190000Y-91913265D01*
X158234194Y-92135443D01*
X158320884Y-92344729D01*
X158446737Y-92533082D01*
X158606918Y-92693263D01*
X158795271Y-92819116D01*
X159004557Y-92905806D01*
X159226735Y-92950000D01*
X159453265Y-92950000D01*
X159675443Y-92905806D01*
X159884729Y-92819116D01*
X160073082Y-92693263D01*
X160233263Y-92533082D01*
X160359116Y-92344729D01*
X160445806Y-92135443D01*
X160490000Y-91913265D01*
X160490000Y-91686735D01*
X160730000Y-91686735D01*
X160730000Y-91913265D01*
X160774194Y-92135443D01*
X160860884Y-92344729D01*
X160986737Y-92533082D01*
X161146918Y-92693263D01*
X161335271Y-92819116D01*
X161544557Y-92905806D01*
X161766735Y-92950000D01*
X161993265Y-92950000D01*
X162215443Y-92905806D01*
X162424729Y-92819116D01*
X162613082Y-92693263D01*
X162773263Y-92533082D01*
X162899116Y-92344729D01*
X162985806Y-92135443D01*
X163030000Y-91913265D01*
X163030000Y-91686735D01*
X162985806Y-91464557D01*
X162899116Y-91255271D01*
X162773263Y-91066918D01*
X162613082Y-90906737D01*
X162424729Y-90780884D01*
X162215443Y-90694194D01*
X161993265Y-90650000D01*
X161766735Y-90650000D01*
X161544557Y-90694194D01*
X161335271Y-90780884D01*
X161146918Y-90906737D01*
X160986737Y-91066918D01*
X160860884Y-91255271D01*
X160774194Y-91464557D01*
X160730000Y-91686735D01*
X160490000Y-91686735D01*
X160445806Y-91464557D01*
X160359116Y-91255271D01*
X160233263Y-91066918D01*
X160073082Y-90906737D01*
X159884729Y-90780884D01*
X159675443Y-90694194D01*
X159453265Y-90650000D01*
X159226735Y-90650000D01*
X159004557Y-90694194D01*
X158795271Y-90780884D01*
X158606918Y-90906737D01*
X158446737Y-91066918D01*
X158320884Y-91255271D01*
X158234194Y-91464557D01*
X158190000Y-91686735D01*
X157950000Y-91686735D01*
X157905806Y-91464557D01*
X157819116Y-91255271D01*
X157693263Y-91066918D01*
X157533082Y-90906737D01*
X157344729Y-90780884D01*
X157135443Y-90694194D01*
X156913265Y-90650000D01*
X156686735Y-90650000D01*
X156464557Y-90694194D01*
X156255271Y-90780884D01*
X156066918Y-90906737D01*
X155906737Y-91066918D01*
X155780884Y-91255271D01*
X155694194Y-91464557D01*
X155650000Y-91686735D01*
X155410000Y-91686735D01*
X155365806Y-91464557D01*
X155279116Y-91255271D01*
X155153263Y-91066918D01*
X154993082Y-90906737D01*
X154804729Y-90780884D01*
X154595443Y-90694194D01*
X154373265Y-90650000D01*
X154146735Y-90650000D01*
X153924557Y-90694194D01*
X153715271Y-90780884D01*
X153526918Y-90906737D01*
X153366737Y-91066918D01*
X153240884Y-91255271D01*
X153154194Y-91464557D01*
X153110000Y-91686735D01*
X152870000Y-91686735D01*
X152825806Y-91464557D01*
X152739116Y-91255271D01*
X152613263Y-91066918D01*
X152453082Y-90906737D01*
X152264729Y-90780884D01*
X152055443Y-90694194D01*
X151833265Y-90650000D01*
X151606735Y-90650000D01*
X151384557Y-90694194D01*
X151175271Y-90780884D01*
X150986918Y-90906737D01*
X150826737Y-91066918D01*
X150700884Y-91255271D01*
X150614194Y-91464557D01*
X150570000Y-91686735D01*
X150330000Y-91686735D01*
X150285806Y-91464557D01*
X150199116Y-91255271D01*
X150073263Y-91066918D01*
X149913082Y-90906737D01*
X149724729Y-90780884D01*
X149515443Y-90694194D01*
X149293265Y-90650000D01*
X149066735Y-90650000D01*
X148844557Y-90694194D01*
X148635271Y-90780884D01*
X148446918Y-90906737D01*
X148286737Y-91066918D01*
X148160884Y-91255271D01*
X148074194Y-91464557D01*
X148030000Y-91686735D01*
X147790000Y-91686735D01*
X147745806Y-91464557D01*
X147659116Y-91255271D01*
X147533263Y-91066918D01*
X147373082Y-90906737D01*
X147184729Y-90780884D01*
X146975443Y-90694194D01*
X146753265Y-90650000D01*
X146526735Y-90650000D01*
X146304557Y-90694194D01*
X146095271Y-90780884D01*
X145906918Y-90906737D01*
X145746737Y-91066918D01*
X145620884Y-91255271D01*
X145534194Y-91464557D01*
X145490000Y-91686735D01*
X145251451Y-91686735D01*
X145251451Y-90950000D01*
X145245659Y-90891190D01*
X145228504Y-90834640D01*
X145200647Y-90782523D01*
X145163158Y-90736842D01*
X145117477Y-90699353D01*
X145065360Y-90671496D01*
X145008810Y-90654341D01*
X144950000Y-90648549D01*
X143250000Y-90648549D01*
X143191190Y-90654341D01*
X143134640Y-90671496D01*
X143082523Y-90699353D01*
X143036842Y-90736842D01*
X142999353Y-90782523D01*
X142971496Y-90834640D01*
X142954341Y-90891190D01*
X142948549Y-90950000D01*
X134375000Y-90950000D01*
X134375000Y-88018337D01*
X134395971Y-87804456D01*
X136014606Y-87804456D01*
X136014606Y-88195544D01*
X136090904Y-88579118D01*
X136240567Y-88940436D01*
X136457844Y-89265615D01*
X136734385Y-89542156D01*
X137059564Y-89759433D01*
X137420882Y-89909096D01*
X137804456Y-89985394D01*
X138195544Y-89985394D01*
X138579118Y-89909096D01*
X138940436Y-89759433D01*
X139265615Y-89542156D01*
X139542156Y-89265615D01*
X139759433Y-88940436D01*
X139909096Y-88579118D01*
X139985394Y-88195544D01*
X139985394Y-87804456D01*
X166014606Y-87804456D01*
X166014606Y-88195544D01*
X166090904Y-88579118D01*
X166240567Y-88940436D01*
X166457844Y-89265615D01*
X166734385Y-89542156D01*
X167059564Y-89759433D01*
X167420882Y-89909096D01*
X167804456Y-89985394D01*
X168195544Y-89985394D01*
X168579118Y-89909096D01*
X168940436Y-89759433D01*
X169265615Y-89542156D01*
X169542156Y-89265615D01*
X169759433Y-88940436D01*
X169909096Y-88579118D01*
X169985394Y-88195544D01*
X169985394Y-87804456D01*
X169909096Y-87420882D01*
X169759433Y-87059564D01*
X169542156Y-86734385D01*
X169265615Y-86457844D01*
X168940436Y-86240567D01*
X168579118Y-86090904D01*
X168195544Y-86014606D01*
X167804456Y-86014606D01*
X167420882Y-86090904D01*
X167059564Y-86240567D01*
X166734385Y-86457844D01*
X166457844Y-86734385D01*
X166240567Y-87059564D01*
X166090904Y-87420882D01*
X166014606Y-87804456D01*
X139985394Y-87804456D01*
X139909096Y-87420882D01*
X139759433Y-87059564D01*
X139542156Y-86734385D01*
X139265615Y-86457844D01*
X138940436Y-86240567D01*
X138579118Y-86090904D01*
X138195544Y-86014606D01*
X137804456Y-86014606D01*
X137420882Y-86090904D01*
X137059564Y-86240567D01*
X136734385Y-86457844D01*
X136457844Y-86734385D01*
X136240567Y-87059564D01*
X136090904Y-87420882D01*
X136014606Y-87804456D01*
X134395971Y-87804456D01*
X134445801Y-87296253D01*
X134650184Y-86619303D01*
X134982159Y-85994950D01*
X135429080Y-85446970D01*
X135973930Y-84996230D01*
X136595954Y-84659903D01*
X137271455Y-84450801D01*
X137992379Y-84375029D01*
X138000726Y-84375000D01*
X167981663Y-84375000D01*
X168703747Y-84445801D01*
%TD*%
M02*
