%TF.GenerationSoftware,KiCad,Pcbnew,5.1.6-c6e7f7d~87~ubuntu18.04.1*%
%TF.CreationDate,2020-08-12T00:36:41-03:00*%
%TF.ProjectId,tfAdapter_V1,74664164-6170-4746-9572-5f56312e6b69,rev?*%
%TF.SameCoordinates,Original*%
%TF.FileFunction,Legend,Bot*%
%TF.FilePolarity,Positive*%
%FSLAX46Y46*%
G04 Gerber Fmt 4.6, Leading zero omitted, Abs format (unit mm)*
G04 Created by KiCad (PCBNEW 5.1.6-c6e7f7d~87~ubuntu18.04.1) date 2020-08-12 00:36:41*
%MOMM*%
%LPD*%
G01*
G04 APERTURE LIST*
%ADD10C,0.150000*%
%ADD11C,0.010000*%
G04 APERTURE END LIST*
D10*
X148380952Y-89547619D02*
X148380952Y-88833333D01*
X148333333Y-88690476D01*
X148238095Y-88595238D01*
X148095238Y-88547619D01*
X148000000Y-88547619D01*
X149333333Y-88547619D02*
X148857142Y-88547619D01*
X148857142Y-89547619D01*
X150238095Y-88642857D02*
X150190476Y-88595238D01*
X150047619Y-88547619D01*
X149952380Y-88547619D01*
X149809523Y-88595238D01*
X149714285Y-88690476D01*
X149666666Y-88785714D01*
X149619047Y-88976190D01*
X149619047Y-89119047D01*
X149666666Y-89309523D01*
X149714285Y-89404761D01*
X149809523Y-89500000D01*
X149952380Y-89547619D01*
X150047619Y-89547619D01*
X150190476Y-89500000D01*
X150238095Y-89452380D01*
X150952380Y-89547619D02*
X150952380Y-88833333D01*
X150904761Y-88690476D01*
X150809523Y-88595238D01*
X150666666Y-88547619D01*
X150571428Y-88547619D01*
X151904761Y-88547619D02*
X151428571Y-88547619D01*
X151428571Y-89547619D01*
X152809523Y-88642857D02*
X152761904Y-88595238D01*
X152619047Y-88547619D01*
X152523809Y-88547619D01*
X152380952Y-88595238D01*
X152285714Y-88690476D01*
X152238095Y-88785714D01*
X152190476Y-88976190D01*
X152190476Y-89119047D01*
X152238095Y-89309523D01*
X152285714Y-89404761D01*
X152380952Y-89500000D01*
X152523809Y-89547619D01*
X152619047Y-89547619D01*
X152761904Y-89500000D01*
X152809523Y-89452380D01*
X153523809Y-89547619D02*
X153523809Y-88833333D01*
X153476190Y-88690476D01*
X153380952Y-88595238D01*
X153238095Y-88547619D01*
X153142857Y-88547619D01*
X154476190Y-88547619D02*
X154000000Y-88547619D01*
X154000000Y-89547619D01*
X155380952Y-88642857D02*
X155333333Y-88595238D01*
X155190476Y-88547619D01*
X155095238Y-88547619D01*
X154952380Y-88595238D01*
X154857142Y-88690476D01*
X154809523Y-88785714D01*
X154761904Y-88976190D01*
X154761904Y-89119047D01*
X154809523Y-89309523D01*
X154857142Y-89404761D01*
X154952380Y-89500000D01*
X155095238Y-89547619D01*
X155190476Y-89547619D01*
X155333333Y-89500000D01*
X155380952Y-89452380D01*
X156095238Y-89547619D02*
X156095238Y-88833333D01*
X156047619Y-88690476D01*
X155952380Y-88595238D01*
X155809523Y-88547619D01*
X155714285Y-88547619D01*
X157047619Y-88547619D02*
X156571428Y-88547619D01*
X156571428Y-89547619D01*
X157952380Y-88642857D02*
X157904761Y-88595238D01*
X157761904Y-88547619D01*
X157666666Y-88547619D01*
X157523809Y-88595238D01*
X157428571Y-88690476D01*
X157380952Y-88785714D01*
X157333333Y-88976190D01*
X157333333Y-89119047D01*
X157380952Y-89309523D01*
X157428571Y-89404761D01*
X157523809Y-89500000D01*
X157666666Y-89547619D01*
X157761904Y-89547619D01*
X157904761Y-89500000D01*
X157952380Y-89452380D01*
D11*
%TO.C,REF\u002A\u002A*%
G36*
X154628823Y-96925467D02*
G01*
X154660202Y-96903224D01*
X154687911Y-96875515D01*
X154687911Y-96566080D01*
X154687838Y-96474201D01*
X154687495Y-96402160D01*
X154686692Y-96347220D01*
X154685241Y-96306640D01*
X154682952Y-96277683D01*
X154679636Y-96257609D01*
X154675105Y-96243679D01*
X154669169Y-96233155D01*
X154664514Y-96226900D01*
X154633783Y-96202327D01*
X154598496Y-96199659D01*
X154566245Y-96214729D01*
X154555588Y-96223626D01*
X154548464Y-96235443D01*
X154544167Y-96254474D01*
X154541991Y-96285008D01*
X154541228Y-96331338D01*
X154541155Y-96367129D01*
X154541155Y-96501955D01*
X154044444Y-96501955D01*
X154044444Y-96379300D01*
X154043931Y-96323213D01*
X154041876Y-96284667D01*
X154037508Y-96258639D01*
X154030056Y-96240103D01*
X154021047Y-96226900D01*
X153990144Y-96202396D01*
X153955196Y-96199494D01*
X153921738Y-96216911D01*
X153912604Y-96226041D01*
X153906152Y-96238145D01*
X153901897Y-96256999D01*
X153899352Y-96286380D01*
X153898029Y-96330063D01*
X153897443Y-96391825D01*
X153897375Y-96406000D01*
X153896891Y-96522369D01*
X153896641Y-96618273D01*
X153896723Y-96695823D01*
X153897231Y-96757131D01*
X153898262Y-96804310D01*
X153899913Y-96839470D01*
X153902279Y-96864724D01*
X153905457Y-96882183D01*
X153909544Y-96893959D01*
X153914634Y-96902165D01*
X153920266Y-96908355D01*
X153952128Y-96928156D01*
X153985357Y-96925467D01*
X154016735Y-96903224D01*
X154029433Y-96888874D01*
X154037526Y-96873022D01*
X154042042Y-96850446D01*
X154044006Y-96815922D01*
X154044444Y-96764224D01*
X154044444Y-96648711D01*
X154541155Y-96648711D01*
X154541155Y-96767244D01*
X154541662Y-96821852D01*
X154543698Y-96858725D01*
X154548035Y-96882693D01*
X154555447Y-96898585D01*
X154563733Y-96908355D01*
X154595594Y-96928156D01*
X154628823Y-96925467D01*
G37*
X154628823Y-96925467D02*
X154660202Y-96903224D01*
X154687911Y-96875515D01*
X154687911Y-96566080D01*
X154687838Y-96474201D01*
X154687495Y-96402160D01*
X154686692Y-96347220D01*
X154685241Y-96306640D01*
X154682952Y-96277683D01*
X154679636Y-96257609D01*
X154675105Y-96243679D01*
X154669169Y-96233155D01*
X154664514Y-96226900D01*
X154633783Y-96202327D01*
X154598496Y-96199659D01*
X154566245Y-96214729D01*
X154555588Y-96223626D01*
X154548464Y-96235443D01*
X154544167Y-96254474D01*
X154541991Y-96285008D01*
X154541228Y-96331338D01*
X154541155Y-96367129D01*
X154541155Y-96501955D01*
X154044444Y-96501955D01*
X154044444Y-96379300D01*
X154043931Y-96323213D01*
X154041876Y-96284667D01*
X154037508Y-96258639D01*
X154030056Y-96240103D01*
X154021047Y-96226900D01*
X153990144Y-96202396D01*
X153955196Y-96199494D01*
X153921738Y-96216911D01*
X153912604Y-96226041D01*
X153906152Y-96238145D01*
X153901897Y-96256999D01*
X153899352Y-96286380D01*
X153898029Y-96330063D01*
X153897443Y-96391825D01*
X153897375Y-96406000D01*
X153896891Y-96522369D01*
X153896641Y-96618273D01*
X153896723Y-96695823D01*
X153897231Y-96757131D01*
X153898262Y-96804310D01*
X153899913Y-96839470D01*
X153902279Y-96864724D01*
X153905457Y-96882183D01*
X153909544Y-96893959D01*
X153914634Y-96902165D01*
X153920266Y-96908355D01*
X153952128Y-96928156D01*
X153985357Y-96925467D01*
X154016735Y-96903224D01*
X154029433Y-96888874D01*
X154037526Y-96873022D01*
X154042042Y-96850446D01*
X154044006Y-96815922D01*
X154044444Y-96764224D01*
X154044444Y-96648711D01*
X154541155Y-96648711D01*
X154541155Y-96767244D01*
X154541662Y-96821852D01*
X154543698Y-96858725D01*
X154548035Y-96882693D01*
X154555447Y-96898585D01*
X154563733Y-96908355D01*
X154595594Y-96928156D01*
X154628823Y-96925467D01*
G36*
X153363065Y-96930837D02*
G01*
X153441772Y-96930458D01*
X153502863Y-96929667D01*
X153548817Y-96928330D01*
X153582114Y-96926317D01*
X153605236Y-96923494D01*
X153620662Y-96919731D01*
X153630871Y-96914895D01*
X153635813Y-96911178D01*
X153661457Y-96878642D01*
X153664559Y-96844862D01*
X153648711Y-96814174D01*
X153638348Y-96801911D01*
X153627196Y-96793550D01*
X153611035Y-96788343D01*
X153585642Y-96785543D01*
X153546798Y-96784404D01*
X153490280Y-96784179D01*
X153479180Y-96784178D01*
X153333244Y-96784178D01*
X153333244Y-96513244D01*
X153333148Y-96427846D01*
X153332711Y-96362136D01*
X153331712Y-96313226D01*
X153329928Y-96278227D01*
X153327137Y-96254251D01*
X153323117Y-96238407D01*
X153317645Y-96227809D01*
X153310666Y-96219733D01*
X153277734Y-96199888D01*
X153243354Y-96201452D01*
X153212176Y-96224094D01*
X153209886Y-96226900D01*
X153202429Y-96237508D01*
X153196747Y-96249919D01*
X153192601Y-96267150D01*
X153189750Y-96292216D01*
X153187954Y-96328133D01*
X153186972Y-96377917D01*
X153186564Y-96444583D01*
X153186489Y-96520411D01*
X153186489Y-96784178D01*
X153047127Y-96784178D01*
X152987322Y-96784582D01*
X152945918Y-96786160D01*
X152918748Y-96789453D01*
X152901646Y-96795008D01*
X152890443Y-96803369D01*
X152889083Y-96804822D01*
X152872725Y-96838061D01*
X152874172Y-96875638D01*
X152892978Y-96908355D01*
X152900250Y-96914702D01*
X152909627Y-96919734D01*
X152923609Y-96923604D01*
X152944696Y-96926463D01*
X152975389Y-96928465D01*
X153018189Y-96929761D01*
X153075595Y-96930502D01*
X153150110Y-96930842D01*
X153244233Y-96930932D01*
X153264260Y-96930933D01*
X153363065Y-96930837D01*
G37*
X153363065Y-96930837D02*
X153441772Y-96930458D01*
X153502863Y-96929667D01*
X153548817Y-96928330D01*
X153582114Y-96926317D01*
X153605236Y-96923494D01*
X153620662Y-96919731D01*
X153630871Y-96914895D01*
X153635813Y-96911178D01*
X153661457Y-96878642D01*
X153664559Y-96844862D01*
X153648711Y-96814174D01*
X153638348Y-96801911D01*
X153627196Y-96793550D01*
X153611035Y-96788343D01*
X153585642Y-96785543D01*
X153546798Y-96784404D01*
X153490280Y-96784179D01*
X153479180Y-96784178D01*
X153333244Y-96784178D01*
X153333244Y-96513244D01*
X153333148Y-96427846D01*
X153332711Y-96362136D01*
X153331712Y-96313226D01*
X153329928Y-96278227D01*
X153327137Y-96254251D01*
X153323117Y-96238407D01*
X153317645Y-96227809D01*
X153310666Y-96219733D01*
X153277734Y-96199888D01*
X153243354Y-96201452D01*
X153212176Y-96224094D01*
X153209886Y-96226900D01*
X153202429Y-96237508D01*
X153196747Y-96249919D01*
X153192601Y-96267150D01*
X153189750Y-96292216D01*
X153187954Y-96328133D01*
X153186972Y-96377917D01*
X153186564Y-96444583D01*
X153186489Y-96520411D01*
X153186489Y-96784178D01*
X153047127Y-96784178D01*
X152987322Y-96784582D01*
X152945918Y-96786160D01*
X152918748Y-96789453D01*
X152901646Y-96795008D01*
X152890443Y-96803369D01*
X152889083Y-96804822D01*
X152872725Y-96838061D01*
X152874172Y-96875638D01*
X152892978Y-96908355D01*
X152900250Y-96914702D01*
X152909627Y-96919734D01*
X152923609Y-96923604D01*
X152944696Y-96926463D01*
X152975389Y-96928465D01*
X153018189Y-96929761D01*
X153075595Y-96930502D01*
X153150110Y-96930842D01*
X153244233Y-96930932D01*
X153264260Y-96930933D01*
X153363065Y-96930837D01*
G36*
X152588614Y-96924123D02*
G01*
X152612327Y-96909353D01*
X152638978Y-96887773D01*
X152638978Y-96566227D01*
X152638893Y-96472170D01*
X152638529Y-96398068D01*
X152637724Y-96341296D01*
X152636313Y-96299232D01*
X152634133Y-96269252D01*
X152631021Y-96248733D01*
X152626814Y-96235051D01*
X152621348Y-96225584D01*
X152617472Y-96220918D01*
X152586034Y-96200425D01*
X152550233Y-96201261D01*
X152518873Y-96218736D01*
X152492222Y-96240316D01*
X152492222Y-96887773D01*
X152518873Y-96909353D01*
X152544594Y-96925051D01*
X152565600Y-96930933D01*
X152588614Y-96924123D01*
G37*
X152588614Y-96924123D02*
X152612327Y-96909353D01*
X152638978Y-96887773D01*
X152638978Y-96566227D01*
X152638893Y-96472170D01*
X152638529Y-96398068D01*
X152637724Y-96341296D01*
X152636313Y-96299232D01*
X152634133Y-96269252D01*
X152631021Y-96248733D01*
X152626814Y-96235051D01*
X152621348Y-96225584D01*
X152617472Y-96220918D01*
X152586034Y-96200425D01*
X152550233Y-96201261D01*
X152518873Y-96218736D01*
X152492222Y-96240316D01*
X152492222Y-96887773D01*
X152518873Y-96909353D01*
X152544594Y-96925051D01*
X152565600Y-96930933D01*
X152588614Y-96924123D01*
G36*
X152144665Y-96928966D02*
G01*
X152164255Y-96921965D01*
X152165010Y-96921623D01*
X152191613Y-96901322D01*
X152206270Y-96880439D01*
X152209138Y-96870648D01*
X152208996Y-96857639D01*
X152204961Y-96839105D01*
X152196146Y-96812743D01*
X152181669Y-96776248D01*
X152160645Y-96727313D01*
X152132188Y-96663635D01*
X152095415Y-96582907D01*
X152075175Y-96538784D01*
X152038625Y-96460015D01*
X152004315Y-96387577D01*
X151973552Y-96324120D01*
X151947648Y-96272292D01*
X151927910Y-96234741D01*
X151915650Y-96214116D01*
X151913224Y-96211267D01*
X151882183Y-96198698D01*
X151847121Y-96200381D01*
X151819000Y-96215668D01*
X151817854Y-96216911D01*
X151806668Y-96233846D01*
X151787904Y-96266830D01*
X151763875Y-96311620D01*
X151736897Y-96363968D01*
X151727201Y-96383258D01*
X151654014Y-96529850D01*
X151574240Y-96370607D01*
X151545767Y-96315585D01*
X151519350Y-96267868D01*
X151497148Y-96231107D01*
X151481319Y-96208956D01*
X151475954Y-96204259D01*
X151434257Y-96197898D01*
X151399849Y-96211267D01*
X151389728Y-96225554D01*
X151372214Y-96257308D01*
X151348735Y-96303403D01*
X151320720Y-96360715D01*
X151289599Y-96426120D01*
X151256799Y-96496493D01*
X151223750Y-96568709D01*
X151191881Y-96639645D01*
X151162619Y-96706175D01*
X151137395Y-96765174D01*
X151117636Y-96813519D01*
X151104772Y-96848085D01*
X151100231Y-96865747D01*
X151100277Y-96866387D01*
X151111326Y-96888612D01*
X151133410Y-96911247D01*
X151134710Y-96912232D01*
X151161853Y-96927575D01*
X151186958Y-96927426D01*
X151196368Y-96924534D01*
X151207834Y-96918282D01*
X151220010Y-96905986D01*
X151234357Y-96885092D01*
X151252336Y-96853051D01*
X151275407Y-96807312D01*
X151305030Y-96745323D01*
X151331745Y-96688102D01*
X151362480Y-96621774D01*
X151390021Y-96562126D01*
X151412938Y-96512275D01*
X151429798Y-96475336D01*
X151439173Y-96454427D01*
X151440540Y-96451155D01*
X151446689Y-96456503D01*
X151460822Y-96478891D01*
X151481057Y-96515054D01*
X151505515Y-96561723D01*
X151515248Y-96580978D01*
X151548217Y-96645996D01*
X151573643Y-96693346D01*
X151593612Y-96725781D01*
X151610210Y-96746054D01*
X151625524Y-96756918D01*
X151641640Y-96761125D01*
X151652143Y-96761600D01*
X151670670Y-96759958D01*
X151686904Y-96753169D01*
X151703035Y-96738434D01*
X151721251Y-96712956D01*
X151743739Y-96673939D01*
X151772689Y-96618586D01*
X151788662Y-96587097D01*
X151814570Y-96536913D01*
X151837167Y-96495296D01*
X151854458Y-96465758D01*
X151864450Y-96451811D01*
X151865809Y-96451230D01*
X151872261Y-96462207D01*
X151886708Y-96490710D01*
X151907703Y-96533756D01*
X151933797Y-96588362D01*
X151963546Y-96651546D01*
X151978180Y-96682929D01*
X152016250Y-96763922D01*
X152046905Y-96826244D01*
X152071737Y-96871929D01*
X152092337Y-96903011D01*
X152110298Y-96921522D01*
X152127210Y-96929496D01*
X152144665Y-96928966D01*
G37*
X152144665Y-96928966D02*
X152164255Y-96921965D01*
X152165010Y-96921623D01*
X152191613Y-96901322D01*
X152206270Y-96880439D01*
X152209138Y-96870648D01*
X152208996Y-96857639D01*
X152204961Y-96839105D01*
X152196146Y-96812743D01*
X152181669Y-96776248D01*
X152160645Y-96727313D01*
X152132188Y-96663635D01*
X152095415Y-96582907D01*
X152075175Y-96538784D01*
X152038625Y-96460015D01*
X152004315Y-96387577D01*
X151973552Y-96324120D01*
X151947648Y-96272292D01*
X151927910Y-96234741D01*
X151915650Y-96214116D01*
X151913224Y-96211267D01*
X151882183Y-96198698D01*
X151847121Y-96200381D01*
X151819000Y-96215668D01*
X151817854Y-96216911D01*
X151806668Y-96233846D01*
X151787904Y-96266830D01*
X151763875Y-96311620D01*
X151736897Y-96363968D01*
X151727201Y-96383258D01*
X151654014Y-96529850D01*
X151574240Y-96370607D01*
X151545767Y-96315585D01*
X151519350Y-96267868D01*
X151497148Y-96231107D01*
X151481319Y-96208956D01*
X151475954Y-96204259D01*
X151434257Y-96197898D01*
X151399849Y-96211267D01*
X151389728Y-96225554D01*
X151372214Y-96257308D01*
X151348735Y-96303403D01*
X151320720Y-96360715D01*
X151289599Y-96426120D01*
X151256799Y-96496493D01*
X151223750Y-96568709D01*
X151191881Y-96639645D01*
X151162619Y-96706175D01*
X151137395Y-96765174D01*
X151117636Y-96813519D01*
X151104772Y-96848085D01*
X151100231Y-96865747D01*
X151100277Y-96866387D01*
X151111326Y-96888612D01*
X151133410Y-96911247D01*
X151134710Y-96912232D01*
X151161853Y-96927575D01*
X151186958Y-96927426D01*
X151196368Y-96924534D01*
X151207834Y-96918282D01*
X151220010Y-96905986D01*
X151234357Y-96885092D01*
X151252336Y-96853051D01*
X151275407Y-96807312D01*
X151305030Y-96745323D01*
X151331745Y-96688102D01*
X151362480Y-96621774D01*
X151390021Y-96562126D01*
X151412938Y-96512275D01*
X151429798Y-96475336D01*
X151439173Y-96454427D01*
X151440540Y-96451155D01*
X151446689Y-96456503D01*
X151460822Y-96478891D01*
X151481057Y-96515054D01*
X151505515Y-96561723D01*
X151515248Y-96580978D01*
X151548217Y-96645996D01*
X151573643Y-96693346D01*
X151593612Y-96725781D01*
X151610210Y-96746054D01*
X151625524Y-96756918D01*
X151641640Y-96761125D01*
X151652143Y-96761600D01*
X151670670Y-96759958D01*
X151686904Y-96753169D01*
X151703035Y-96738434D01*
X151721251Y-96712956D01*
X151743739Y-96673939D01*
X151772689Y-96618586D01*
X151788662Y-96587097D01*
X151814570Y-96536913D01*
X151837167Y-96495296D01*
X151854458Y-96465758D01*
X151864450Y-96451811D01*
X151865809Y-96451230D01*
X151872261Y-96462207D01*
X151886708Y-96490710D01*
X151907703Y-96533756D01*
X151933797Y-96588362D01*
X151963546Y-96651546D01*
X151978180Y-96682929D01*
X152016250Y-96763922D01*
X152046905Y-96826244D01*
X152071737Y-96871929D01*
X152092337Y-96903011D01*
X152110298Y-96921522D01*
X152127210Y-96929496D01*
X152144665Y-96928966D01*
G36*
X149418309Y-96930725D02*
G01*
X149547288Y-96926364D01*
X149656991Y-96913139D01*
X149749226Y-96890259D01*
X149825802Y-96856930D01*
X149888527Y-96812362D01*
X149939212Y-96755764D01*
X149979663Y-96686342D01*
X149980459Y-96684649D01*
X150004601Y-96622517D01*
X150013203Y-96567491D01*
X150006231Y-96512113D01*
X149983654Y-96448927D01*
X149979372Y-96439311D01*
X149950172Y-96383034D01*
X149917356Y-96339549D01*
X149875002Y-96302583D01*
X149817190Y-96265865D01*
X149813831Y-96263948D01*
X149763504Y-96239773D01*
X149706621Y-96221718D01*
X149639527Y-96209161D01*
X149558565Y-96201478D01*
X149460082Y-96198047D01*
X149425286Y-96197749D01*
X149259594Y-96197155D01*
X149236197Y-96226900D01*
X149229257Y-96236681D01*
X149223842Y-96248103D01*
X149219765Y-96263905D01*
X149216837Y-96286825D01*
X149214867Y-96319604D01*
X149214225Y-96343911D01*
X149370844Y-96343911D01*
X149464726Y-96343911D01*
X149519664Y-96345517D01*
X149576060Y-96349745D01*
X149622345Y-96355708D01*
X149625139Y-96356210D01*
X149707348Y-96378264D01*
X149771114Y-96411400D01*
X149818452Y-96457153D01*
X149851382Y-96517061D01*
X149857108Y-96532939D01*
X149862721Y-96557667D01*
X149860291Y-96582098D01*
X149848467Y-96614600D01*
X149841340Y-96630566D01*
X149818000Y-96672994D01*
X149789880Y-96702760D01*
X149758940Y-96723489D01*
X149696966Y-96750463D01*
X149617651Y-96770002D01*
X149525253Y-96781254D01*
X149458333Y-96783730D01*
X149370844Y-96784178D01*
X149370844Y-96343911D01*
X149214225Y-96343911D01*
X149213668Y-96364979D01*
X149213050Y-96425689D01*
X149212825Y-96504474D01*
X149212800Y-96566080D01*
X149212800Y-96875515D01*
X149240509Y-96903224D01*
X149252806Y-96914456D01*
X149266103Y-96922147D01*
X149284672Y-96926960D01*
X149312786Y-96929554D01*
X149354717Y-96930590D01*
X149414737Y-96930730D01*
X149418309Y-96930725D01*
G37*
X149418309Y-96930725D02*
X149547288Y-96926364D01*
X149656991Y-96913139D01*
X149749226Y-96890259D01*
X149825802Y-96856930D01*
X149888527Y-96812362D01*
X149939212Y-96755764D01*
X149979663Y-96686342D01*
X149980459Y-96684649D01*
X150004601Y-96622517D01*
X150013203Y-96567491D01*
X150006231Y-96512113D01*
X149983654Y-96448927D01*
X149979372Y-96439311D01*
X149950172Y-96383034D01*
X149917356Y-96339549D01*
X149875002Y-96302583D01*
X149817190Y-96265865D01*
X149813831Y-96263948D01*
X149763504Y-96239773D01*
X149706621Y-96221718D01*
X149639527Y-96209161D01*
X149558565Y-96201478D01*
X149460082Y-96198047D01*
X149425286Y-96197749D01*
X149259594Y-96197155D01*
X149236197Y-96226900D01*
X149229257Y-96236681D01*
X149223842Y-96248103D01*
X149219765Y-96263905D01*
X149216837Y-96286825D01*
X149214867Y-96319604D01*
X149214225Y-96343911D01*
X149370844Y-96343911D01*
X149464726Y-96343911D01*
X149519664Y-96345517D01*
X149576060Y-96349745D01*
X149622345Y-96355708D01*
X149625139Y-96356210D01*
X149707348Y-96378264D01*
X149771114Y-96411400D01*
X149818452Y-96457153D01*
X149851382Y-96517061D01*
X149857108Y-96532939D01*
X149862721Y-96557667D01*
X149860291Y-96582098D01*
X149848467Y-96614600D01*
X149841340Y-96630566D01*
X149818000Y-96672994D01*
X149789880Y-96702760D01*
X149758940Y-96723489D01*
X149696966Y-96750463D01*
X149617651Y-96770002D01*
X149525253Y-96781254D01*
X149458333Y-96783730D01*
X149370844Y-96784178D01*
X149370844Y-96343911D01*
X149214225Y-96343911D01*
X149213668Y-96364979D01*
X149213050Y-96425689D01*
X149212825Y-96504474D01*
X149212800Y-96566080D01*
X149212800Y-96875515D01*
X149240509Y-96903224D01*
X149252806Y-96914456D01*
X149266103Y-96922147D01*
X149284672Y-96926960D01*
X149312786Y-96929554D01*
X149354717Y-96930590D01*
X149414737Y-96930730D01*
X149418309Y-96930725D01*
G36*
X148630343Y-96930740D02*
G01*
X148706701Y-96929826D01*
X148765217Y-96927689D01*
X148808255Y-96923825D01*
X148838183Y-96917733D01*
X148857368Y-96908910D01*
X148868176Y-96896854D01*
X148872973Y-96881061D01*
X148874127Y-96861030D01*
X148874133Y-96858665D01*
X148873131Y-96836008D01*
X148868396Y-96818497D01*
X148857333Y-96805426D01*
X148837348Y-96796087D01*
X148805846Y-96789773D01*
X148760232Y-96785778D01*
X148697913Y-96783394D01*
X148616293Y-96781914D01*
X148591277Y-96781586D01*
X148349200Y-96778533D01*
X148345814Y-96713622D01*
X148342429Y-96648711D01*
X148510576Y-96648711D01*
X148576266Y-96648469D01*
X148623172Y-96647444D01*
X148655083Y-96645189D01*
X148675791Y-96641258D01*
X148689084Y-96635202D01*
X148698755Y-96626576D01*
X148698817Y-96626507D01*
X148716356Y-96592888D01*
X148715722Y-96556552D01*
X148697314Y-96525577D01*
X148693671Y-96522393D01*
X148680741Y-96514188D01*
X148663024Y-96508479D01*
X148636570Y-96504838D01*
X148597432Y-96502833D01*
X148541662Y-96502036D01*
X148505994Y-96501955D01*
X148343555Y-96501955D01*
X148343555Y-96343911D01*
X148590161Y-96343911D01*
X148671580Y-96343769D01*
X148733410Y-96343186D01*
X148778637Y-96341932D01*
X148810248Y-96339773D01*
X148831231Y-96336477D01*
X148844573Y-96331811D01*
X148853261Y-96325543D01*
X148855450Y-96323267D01*
X148871614Y-96291720D01*
X148872797Y-96255832D01*
X148859536Y-96224715D01*
X148849043Y-96214729D01*
X148838129Y-96209231D01*
X148821217Y-96204978D01*
X148795633Y-96201820D01*
X148758701Y-96199608D01*
X148707746Y-96198194D01*
X148640094Y-96197428D01*
X148553069Y-96197162D01*
X148533394Y-96197155D01*
X148444911Y-96197213D01*
X148376227Y-96197533D01*
X148324564Y-96198333D01*
X148287145Y-96199833D01*
X148261190Y-96202251D01*
X148243922Y-96205806D01*
X148232562Y-96210718D01*
X148224332Y-96217205D01*
X148219817Y-96221862D01*
X148213021Y-96230111D01*
X148207712Y-96240331D01*
X148203706Y-96255200D01*
X148200821Y-96277398D01*
X148198874Y-96309607D01*
X148197681Y-96354504D01*
X148197061Y-96414772D01*
X148196829Y-96493089D01*
X148196800Y-96559006D01*
X148196871Y-96651372D01*
X148197208Y-96723883D01*
X148197998Y-96779263D01*
X148199426Y-96820235D01*
X148201679Y-96849522D01*
X148204943Y-96869847D01*
X148209404Y-96883934D01*
X148215248Y-96894505D01*
X148220197Y-96901189D01*
X148243594Y-96930933D01*
X148533774Y-96930933D01*
X148630343Y-96930740D01*
G37*
X148630343Y-96930740D02*
X148706701Y-96929826D01*
X148765217Y-96927689D01*
X148808255Y-96923825D01*
X148838183Y-96917733D01*
X148857368Y-96908910D01*
X148868176Y-96896854D01*
X148872973Y-96881061D01*
X148874127Y-96861030D01*
X148874133Y-96858665D01*
X148873131Y-96836008D01*
X148868396Y-96818497D01*
X148857333Y-96805426D01*
X148837348Y-96796087D01*
X148805846Y-96789773D01*
X148760232Y-96785778D01*
X148697913Y-96783394D01*
X148616293Y-96781914D01*
X148591277Y-96781586D01*
X148349200Y-96778533D01*
X148345814Y-96713622D01*
X148342429Y-96648711D01*
X148510576Y-96648711D01*
X148576266Y-96648469D01*
X148623172Y-96647444D01*
X148655083Y-96645189D01*
X148675791Y-96641258D01*
X148689084Y-96635202D01*
X148698755Y-96626576D01*
X148698817Y-96626507D01*
X148716356Y-96592888D01*
X148715722Y-96556552D01*
X148697314Y-96525577D01*
X148693671Y-96522393D01*
X148680741Y-96514188D01*
X148663024Y-96508479D01*
X148636570Y-96504838D01*
X148597432Y-96502833D01*
X148541662Y-96502036D01*
X148505994Y-96501955D01*
X148343555Y-96501955D01*
X148343555Y-96343911D01*
X148590161Y-96343911D01*
X148671580Y-96343769D01*
X148733410Y-96343186D01*
X148778637Y-96341932D01*
X148810248Y-96339773D01*
X148831231Y-96336477D01*
X148844573Y-96331811D01*
X148853261Y-96325543D01*
X148855450Y-96323267D01*
X148871614Y-96291720D01*
X148872797Y-96255832D01*
X148859536Y-96224715D01*
X148849043Y-96214729D01*
X148838129Y-96209231D01*
X148821217Y-96204978D01*
X148795633Y-96201820D01*
X148758701Y-96199608D01*
X148707746Y-96198194D01*
X148640094Y-96197428D01*
X148553069Y-96197162D01*
X148533394Y-96197155D01*
X148444911Y-96197213D01*
X148376227Y-96197533D01*
X148324564Y-96198333D01*
X148287145Y-96199833D01*
X148261190Y-96202251D01*
X148243922Y-96205806D01*
X148232562Y-96210718D01*
X148224332Y-96217205D01*
X148219817Y-96221862D01*
X148213021Y-96230111D01*
X148207712Y-96240331D01*
X148203706Y-96255200D01*
X148200821Y-96277398D01*
X148198874Y-96309607D01*
X148197681Y-96354504D01*
X148197061Y-96414772D01*
X148196829Y-96493089D01*
X148196800Y-96559006D01*
X148196871Y-96651372D01*
X148197208Y-96723883D01*
X148197998Y-96779263D01*
X148199426Y-96820235D01*
X148201679Y-96849522D01*
X148204943Y-96869847D01*
X148209404Y-96883934D01*
X148215248Y-96894505D01*
X148220197Y-96901189D01*
X148243594Y-96930933D01*
X148533774Y-96930933D01*
X148630343Y-96930740D01*
G36*
X147099886Y-96926552D02*
G01*
X147123452Y-96912727D01*
X147154265Y-96890119D01*
X147193922Y-96857662D01*
X147244020Y-96814292D01*
X147306157Y-96758942D01*
X147381928Y-96690549D01*
X147468666Y-96611916D01*
X147649289Y-96448122D01*
X147654933Y-96667971D01*
X147656971Y-96743649D01*
X147658937Y-96800006D01*
X147661266Y-96840294D01*
X147664394Y-96867765D01*
X147668755Y-96885671D01*
X147674784Y-96897263D01*
X147682916Y-96905792D01*
X147687228Y-96909377D01*
X147721759Y-96928330D01*
X147754617Y-96925559D01*
X147780682Y-96909367D01*
X147807333Y-96887801D01*
X147810648Y-96572849D01*
X147811565Y-96480221D01*
X147812032Y-96407456D01*
X147811887Y-96351839D01*
X147810968Y-96310658D01*
X147809113Y-96281197D01*
X147806161Y-96260745D01*
X147801950Y-96246587D01*
X147796318Y-96236009D01*
X147790073Y-96227526D01*
X147776561Y-96211793D01*
X147763117Y-96201364D01*
X147747876Y-96197361D01*
X147728974Y-96200906D01*
X147704545Y-96213121D01*
X147672727Y-96235129D01*
X147631652Y-96268051D01*
X147579458Y-96313009D01*
X147514278Y-96371125D01*
X147440444Y-96437901D01*
X147175155Y-96678542D01*
X147169511Y-96459411D01*
X147167469Y-96383872D01*
X147165498Y-96327646D01*
X147163161Y-96287476D01*
X147160019Y-96260104D01*
X147155636Y-96242272D01*
X147149576Y-96230721D01*
X147141400Y-96222193D01*
X147137216Y-96218718D01*
X147100235Y-96199628D01*
X147065292Y-96202507D01*
X147034864Y-96226900D01*
X147027903Y-96236714D01*
X147022477Y-96248174D01*
X147018397Y-96264032D01*
X147015471Y-96287037D01*
X147013508Y-96319938D01*
X147012317Y-96365484D01*
X147011708Y-96426427D01*
X147011489Y-96505514D01*
X147011466Y-96564044D01*
X147011540Y-96655593D01*
X147011887Y-96727313D01*
X147012699Y-96781955D01*
X147014167Y-96822268D01*
X147016481Y-96851002D01*
X147019833Y-96870907D01*
X147024412Y-96884732D01*
X147030411Y-96895228D01*
X147034864Y-96901189D01*
X147046150Y-96915309D01*
X147056699Y-96925971D01*
X147068107Y-96932108D01*
X147081970Y-96932657D01*
X147099886Y-96926552D01*
G37*
X147099886Y-96926552D02*
X147123452Y-96912727D01*
X147154265Y-96890119D01*
X147193922Y-96857662D01*
X147244020Y-96814292D01*
X147306157Y-96758942D01*
X147381928Y-96690549D01*
X147468666Y-96611916D01*
X147649289Y-96448122D01*
X147654933Y-96667971D01*
X147656971Y-96743649D01*
X147658937Y-96800006D01*
X147661266Y-96840294D01*
X147664394Y-96867765D01*
X147668755Y-96885671D01*
X147674784Y-96897263D01*
X147682916Y-96905792D01*
X147687228Y-96909377D01*
X147721759Y-96928330D01*
X147754617Y-96925559D01*
X147780682Y-96909367D01*
X147807333Y-96887801D01*
X147810648Y-96572849D01*
X147811565Y-96480221D01*
X147812032Y-96407456D01*
X147811887Y-96351839D01*
X147810968Y-96310658D01*
X147809113Y-96281197D01*
X147806161Y-96260745D01*
X147801950Y-96246587D01*
X147796318Y-96236009D01*
X147790073Y-96227526D01*
X147776561Y-96211793D01*
X147763117Y-96201364D01*
X147747876Y-96197361D01*
X147728974Y-96200906D01*
X147704545Y-96213121D01*
X147672727Y-96235129D01*
X147631652Y-96268051D01*
X147579458Y-96313009D01*
X147514278Y-96371125D01*
X147440444Y-96437901D01*
X147175155Y-96678542D01*
X147169511Y-96459411D01*
X147167469Y-96383872D01*
X147165498Y-96327646D01*
X147163161Y-96287476D01*
X147160019Y-96260104D01*
X147155636Y-96242272D01*
X147149576Y-96230721D01*
X147141400Y-96222193D01*
X147137216Y-96218718D01*
X147100235Y-96199628D01*
X147065292Y-96202507D01*
X147034864Y-96226900D01*
X147027903Y-96236714D01*
X147022477Y-96248174D01*
X147018397Y-96264032D01*
X147015471Y-96287037D01*
X147013508Y-96319938D01*
X147012317Y-96365484D01*
X147011708Y-96426427D01*
X147011489Y-96505514D01*
X147011466Y-96564044D01*
X147011540Y-96655593D01*
X147011887Y-96727313D01*
X147012699Y-96781955D01*
X147014167Y-96822268D01*
X147016481Y-96851002D01*
X147019833Y-96870907D01*
X147024412Y-96884732D01*
X147030411Y-96895228D01*
X147034864Y-96901189D01*
X147046150Y-96915309D01*
X147056699Y-96925971D01*
X147068107Y-96932108D01*
X147081970Y-96932657D01*
X147099886Y-96926552D01*
G36*
X146449919Y-96925401D02*
G01*
X146518435Y-96913905D01*
X146571057Y-96896033D01*
X146605292Y-96872501D01*
X146614621Y-96859076D01*
X146624107Y-96827852D01*
X146617723Y-96799605D01*
X146597570Y-96772818D01*
X146566255Y-96760287D01*
X146520817Y-96761304D01*
X146485674Y-96768094D01*
X146407581Y-96781029D01*
X146327774Y-96782258D01*
X146238445Y-96771759D01*
X146213771Y-96767310D01*
X146130709Y-96743892D01*
X146065727Y-96709055D01*
X146019539Y-96663396D01*
X145992855Y-96607506D01*
X145987337Y-96578612D01*
X145990949Y-96519988D01*
X146014271Y-96468121D01*
X146055176Y-96424022D01*
X146111541Y-96388701D01*
X146181240Y-96363171D01*
X146262148Y-96348441D01*
X146352140Y-96345522D01*
X146449090Y-96355425D01*
X146454564Y-96356359D01*
X146493125Y-96363541D01*
X146514506Y-96370479D01*
X146523773Y-96380773D01*
X146525994Y-96398024D01*
X146526044Y-96407159D01*
X146526044Y-96445511D01*
X146457569Y-96445511D01*
X146397100Y-96449653D01*
X146355835Y-96462853D01*
X146331825Y-96486270D01*
X146323123Y-96521064D01*
X146323017Y-96525606D01*
X146328108Y-96555346D01*
X146345567Y-96576581D01*
X146378061Y-96590634D01*
X146428257Y-96598827D01*
X146476877Y-96601839D01*
X146547544Y-96603567D01*
X146598802Y-96600930D01*
X146633761Y-96591200D01*
X146655530Y-96571647D01*
X146667220Y-96539544D01*
X146671940Y-96492162D01*
X146672800Y-96429929D01*
X146671391Y-96360465D01*
X146667152Y-96313214D01*
X146660064Y-96287988D01*
X146658689Y-96286012D01*
X146619772Y-96254492D01*
X146562714Y-96229530D01*
X146491131Y-96211660D01*
X146408642Y-96201414D01*
X146318861Y-96199327D01*
X146225408Y-96205932D01*
X146170444Y-96214044D01*
X146084234Y-96238446D01*
X146004108Y-96278338D01*
X145937023Y-96330113D01*
X145926827Y-96340461D01*
X145893698Y-96383965D01*
X145863806Y-96437882D01*
X145840643Y-96494408D01*
X145827702Y-96545741D01*
X145826142Y-96565456D01*
X145832782Y-96606581D01*
X145850432Y-96657748D01*
X145875703Y-96711606D01*
X145905211Y-96760805D01*
X145931281Y-96793666D01*
X145992235Y-96842548D01*
X146071031Y-96881455D01*
X146164843Y-96909506D01*
X146270850Y-96925821D01*
X146368000Y-96929808D01*
X146449919Y-96925401D01*
G37*
X146449919Y-96925401D02*
X146518435Y-96913905D01*
X146571057Y-96896033D01*
X146605292Y-96872501D01*
X146614621Y-96859076D01*
X146624107Y-96827852D01*
X146617723Y-96799605D01*
X146597570Y-96772818D01*
X146566255Y-96760287D01*
X146520817Y-96761304D01*
X146485674Y-96768094D01*
X146407581Y-96781029D01*
X146327774Y-96782258D01*
X146238445Y-96771759D01*
X146213771Y-96767310D01*
X146130709Y-96743892D01*
X146065727Y-96709055D01*
X146019539Y-96663396D01*
X145992855Y-96607506D01*
X145987337Y-96578612D01*
X145990949Y-96519988D01*
X146014271Y-96468121D01*
X146055176Y-96424022D01*
X146111541Y-96388701D01*
X146181240Y-96363171D01*
X146262148Y-96348441D01*
X146352140Y-96345522D01*
X146449090Y-96355425D01*
X146454564Y-96356359D01*
X146493125Y-96363541D01*
X146514506Y-96370479D01*
X146523773Y-96380773D01*
X146525994Y-96398024D01*
X146526044Y-96407159D01*
X146526044Y-96445511D01*
X146457569Y-96445511D01*
X146397100Y-96449653D01*
X146355835Y-96462853D01*
X146331825Y-96486270D01*
X146323123Y-96521064D01*
X146323017Y-96525606D01*
X146328108Y-96555346D01*
X146345567Y-96576581D01*
X146378061Y-96590634D01*
X146428257Y-96598827D01*
X146476877Y-96601839D01*
X146547544Y-96603567D01*
X146598802Y-96600930D01*
X146633761Y-96591200D01*
X146655530Y-96571647D01*
X146667220Y-96539544D01*
X146671940Y-96492162D01*
X146672800Y-96429929D01*
X146671391Y-96360465D01*
X146667152Y-96313214D01*
X146660064Y-96287988D01*
X146658689Y-96286012D01*
X146619772Y-96254492D01*
X146562714Y-96229530D01*
X146491131Y-96211660D01*
X146408642Y-96201414D01*
X146318861Y-96199327D01*
X146225408Y-96205932D01*
X146170444Y-96214044D01*
X146084234Y-96238446D01*
X146004108Y-96278338D01*
X145937023Y-96330113D01*
X145926827Y-96340461D01*
X145893698Y-96383965D01*
X145863806Y-96437882D01*
X145840643Y-96494408D01*
X145827702Y-96545741D01*
X145826142Y-96565456D01*
X145832782Y-96606581D01*
X145850432Y-96657748D01*
X145875703Y-96711606D01*
X145905211Y-96760805D01*
X145931281Y-96793666D01*
X145992235Y-96842548D01*
X146071031Y-96881455D01*
X146164843Y-96909506D01*
X146270850Y-96925821D01*
X146368000Y-96929808D01*
X146449919Y-96925401D01*
G36*
X145476178Y-96908355D02*
G01*
X145482758Y-96900782D01*
X145487921Y-96891013D01*
X145491836Y-96876429D01*
X145494676Y-96854415D01*
X145496613Y-96822352D01*
X145497817Y-96777625D01*
X145498461Y-96717615D01*
X145498716Y-96639706D01*
X145498755Y-96564044D01*
X145498686Y-96470198D01*
X145498362Y-96396311D01*
X145497614Y-96339768D01*
X145496268Y-96297951D01*
X145494154Y-96268243D01*
X145491100Y-96248027D01*
X145486934Y-96234686D01*
X145481484Y-96225602D01*
X145476178Y-96219733D01*
X145443174Y-96200053D01*
X145408009Y-96201819D01*
X145376545Y-96223283D01*
X145369316Y-96231663D01*
X145363666Y-96241386D01*
X145359401Y-96255139D01*
X145356327Y-96275611D01*
X145354248Y-96305488D01*
X145352970Y-96347459D01*
X145352299Y-96404211D01*
X145352041Y-96478433D01*
X145352000Y-96562463D01*
X145352000Y-96875515D01*
X145379709Y-96903224D01*
X145413863Y-96926537D01*
X145446994Y-96927377D01*
X145476178Y-96908355D01*
G37*
X145476178Y-96908355D02*
X145482758Y-96900782D01*
X145487921Y-96891013D01*
X145491836Y-96876429D01*
X145494676Y-96854415D01*
X145496613Y-96822352D01*
X145497817Y-96777625D01*
X145498461Y-96717615D01*
X145498716Y-96639706D01*
X145498755Y-96564044D01*
X145498686Y-96470198D01*
X145498362Y-96396311D01*
X145497614Y-96339768D01*
X145496268Y-96297951D01*
X145494154Y-96268243D01*
X145491100Y-96248027D01*
X145486934Y-96234686D01*
X145481484Y-96225602D01*
X145476178Y-96219733D01*
X145443174Y-96200053D01*
X145408009Y-96201819D01*
X145376545Y-96223283D01*
X145369316Y-96231663D01*
X145363666Y-96241386D01*
X145359401Y-96255139D01*
X145356327Y-96275611D01*
X145354248Y-96305488D01*
X145352970Y-96347459D01*
X145352299Y-96404211D01*
X145352041Y-96478433D01*
X145352000Y-96562463D01*
X145352000Y-96875515D01*
X145379709Y-96903224D01*
X145413863Y-96926537D01*
X145446994Y-96927377D01*
X145476178Y-96908355D01*
G36*
X144708297Y-96929649D02*
G01*
X144783112Y-96924419D01*
X144852694Y-96916250D01*
X144912998Y-96905450D01*
X144959980Y-96892327D01*
X144989594Y-96877187D01*
X144994140Y-96872731D01*
X145009946Y-96838150D01*
X145005153Y-96802649D01*
X144980636Y-96772275D01*
X144979466Y-96771404D01*
X144965046Y-96762046D01*
X144949992Y-96757124D01*
X144928995Y-96756527D01*
X144896743Y-96760139D01*
X144847927Y-96767846D01*
X144844000Y-96768495D01*
X144771261Y-96777431D01*
X144692783Y-96781839D01*
X144614073Y-96781881D01*
X144540639Y-96777721D01*
X144477989Y-96769521D01*
X144431630Y-96757443D01*
X144428584Y-96756229D01*
X144394952Y-96737385D01*
X144383136Y-96718315D01*
X144392386Y-96699561D01*
X144421953Y-96681663D01*
X144471089Y-96665163D01*
X144539043Y-96650604D01*
X144584355Y-96643594D01*
X144678544Y-96630111D01*
X144753456Y-96617786D01*
X144812283Y-96605551D01*
X144858215Y-96592339D01*
X144894445Y-96577083D01*
X144924162Y-96558715D01*
X144950558Y-96536169D01*
X144971770Y-96514029D01*
X144996935Y-96483181D01*
X145009319Y-96456655D01*
X145013192Y-96423974D01*
X145013333Y-96412005D01*
X145010424Y-96372288D01*
X144998798Y-96342741D01*
X144978677Y-96316514D01*
X144937784Y-96276424D01*
X144892183Y-96245851D01*
X144838487Y-96223797D01*
X144773308Y-96209265D01*
X144693256Y-96201259D01*
X144594943Y-96198782D01*
X144578711Y-96198823D01*
X144513151Y-96200182D01*
X144448134Y-96203270D01*
X144390748Y-96207644D01*
X144348078Y-96212860D01*
X144344628Y-96213459D01*
X144302204Y-96223509D01*
X144266220Y-96236204D01*
X144245850Y-96247810D01*
X144226893Y-96278428D01*
X144225573Y-96314082D01*
X144241915Y-96345856D01*
X144245571Y-96349449D01*
X144260685Y-96360124D01*
X144279585Y-96364724D01*
X144308838Y-96363941D01*
X144344349Y-96359873D01*
X144384030Y-96356238D01*
X144439655Y-96353172D01*
X144504594Y-96350947D01*
X144572215Y-96349836D01*
X144590000Y-96349763D01*
X144657872Y-96350036D01*
X144707546Y-96351354D01*
X144743390Y-96354173D01*
X144769776Y-96358950D01*
X144791074Y-96366143D01*
X144803874Y-96372133D01*
X144832000Y-96388767D01*
X144849932Y-96403832D01*
X144852553Y-96408103D01*
X144847024Y-96425737D01*
X144820740Y-96442808D01*
X144775522Y-96458542D01*
X144713192Y-96472162D01*
X144694829Y-96475196D01*
X144598910Y-96490262D01*
X144522359Y-96502854D01*
X144462220Y-96513889D01*
X144415540Y-96524280D01*
X144379363Y-96534944D01*
X144350735Y-96546795D01*
X144326702Y-96560749D01*
X144304308Y-96577719D01*
X144280598Y-96598622D01*
X144272620Y-96605951D01*
X144244647Y-96633301D01*
X144229840Y-96654971D01*
X144224048Y-96679768D01*
X144223111Y-96711017D01*
X144233425Y-96772295D01*
X144264248Y-96824360D01*
X144315405Y-96867042D01*
X144386717Y-96900175D01*
X144437600Y-96915036D01*
X144492900Y-96924634D01*
X144559147Y-96930064D01*
X144632294Y-96931633D01*
X144708297Y-96929649D01*
G37*
X144708297Y-96929649D02*
X144783112Y-96924419D01*
X144852694Y-96916250D01*
X144912998Y-96905450D01*
X144959980Y-96892327D01*
X144989594Y-96877187D01*
X144994140Y-96872731D01*
X145009946Y-96838150D01*
X145005153Y-96802649D01*
X144980636Y-96772275D01*
X144979466Y-96771404D01*
X144965046Y-96762046D01*
X144949992Y-96757124D01*
X144928995Y-96756527D01*
X144896743Y-96760139D01*
X144847927Y-96767846D01*
X144844000Y-96768495D01*
X144771261Y-96777431D01*
X144692783Y-96781839D01*
X144614073Y-96781881D01*
X144540639Y-96777721D01*
X144477989Y-96769521D01*
X144431630Y-96757443D01*
X144428584Y-96756229D01*
X144394952Y-96737385D01*
X144383136Y-96718315D01*
X144392386Y-96699561D01*
X144421953Y-96681663D01*
X144471089Y-96665163D01*
X144539043Y-96650604D01*
X144584355Y-96643594D01*
X144678544Y-96630111D01*
X144753456Y-96617786D01*
X144812283Y-96605551D01*
X144858215Y-96592339D01*
X144894445Y-96577083D01*
X144924162Y-96558715D01*
X144950558Y-96536169D01*
X144971770Y-96514029D01*
X144996935Y-96483181D01*
X145009319Y-96456655D01*
X145013192Y-96423974D01*
X145013333Y-96412005D01*
X145010424Y-96372288D01*
X144998798Y-96342741D01*
X144978677Y-96316514D01*
X144937784Y-96276424D01*
X144892183Y-96245851D01*
X144838487Y-96223797D01*
X144773308Y-96209265D01*
X144693256Y-96201259D01*
X144594943Y-96198782D01*
X144578711Y-96198823D01*
X144513151Y-96200182D01*
X144448134Y-96203270D01*
X144390748Y-96207644D01*
X144348078Y-96212860D01*
X144344628Y-96213459D01*
X144302204Y-96223509D01*
X144266220Y-96236204D01*
X144245850Y-96247810D01*
X144226893Y-96278428D01*
X144225573Y-96314082D01*
X144241915Y-96345856D01*
X144245571Y-96349449D01*
X144260685Y-96360124D01*
X144279585Y-96364724D01*
X144308838Y-96363941D01*
X144344349Y-96359873D01*
X144384030Y-96356238D01*
X144439655Y-96353172D01*
X144504594Y-96350947D01*
X144572215Y-96349836D01*
X144590000Y-96349763D01*
X144657872Y-96350036D01*
X144707546Y-96351354D01*
X144743390Y-96354173D01*
X144769776Y-96358950D01*
X144791074Y-96366143D01*
X144803874Y-96372133D01*
X144832000Y-96388767D01*
X144849932Y-96403832D01*
X144852553Y-96408103D01*
X144847024Y-96425737D01*
X144820740Y-96442808D01*
X144775522Y-96458542D01*
X144713192Y-96472162D01*
X144694829Y-96475196D01*
X144598910Y-96490262D01*
X144522359Y-96502854D01*
X144462220Y-96513889D01*
X144415540Y-96524280D01*
X144379363Y-96534944D01*
X144350735Y-96546795D01*
X144326702Y-96560749D01*
X144304308Y-96577719D01*
X144280598Y-96598622D01*
X144272620Y-96605951D01*
X144244647Y-96633301D01*
X144229840Y-96654971D01*
X144224048Y-96679768D01*
X144223111Y-96711017D01*
X144233425Y-96772295D01*
X144264248Y-96824360D01*
X144315405Y-96867042D01*
X144386717Y-96900175D01*
X144437600Y-96915036D01*
X144492900Y-96924634D01*
X144559147Y-96930064D01*
X144632294Y-96931633D01*
X144708297Y-96929649D01*
G36*
X143687206Y-96930854D02*
G01*
X143756614Y-96930482D01*
X143809003Y-96929615D01*
X143847153Y-96928054D01*
X143873841Y-96925597D01*
X143891847Y-96922043D01*
X143903951Y-96917190D01*
X143912931Y-96910839D01*
X143916182Y-96907916D01*
X143935957Y-96876858D01*
X143939518Y-96841172D01*
X143926509Y-96809490D01*
X143920494Y-96803087D01*
X143910765Y-96796879D01*
X143895099Y-96792090D01*
X143870592Y-96788486D01*
X143834339Y-96785836D01*
X143783435Y-96783905D01*
X143714974Y-96782461D01*
X143652383Y-96781582D01*
X143404666Y-96778533D01*
X143401281Y-96713622D01*
X143397895Y-96648711D01*
X143566042Y-96648711D01*
X143639041Y-96648081D01*
X143692483Y-96645447D01*
X143729372Y-96639691D01*
X143752712Y-96629696D01*
X143765506Y-96614344D01*
X143770758Y-96592518D01*
X143771555Y-96572262D01*
X143769077Y-96547408D01*
X143759723Y-96529094D01*
X143740617Y-96516363D01*
X143708882Y-96508259D01*
X143661641Y-96503824D01*
X143596017Y-96502101D01*
X143560199Y-96501955D01*
X143399022Y-96501955D01*
X143399022Y-96343911D01*
X143647378Y-96343911D01*
X143728787Y-96343798D01*
X143790658Y-96343288D01*
X143836032Y-96342130D01*
X143867946Y-96340070D01*
X143889441Y-96336854D01*
X143903557Y-96332228D01*
X143913332Y-96325941D01*
X143918311Y-96321333D01*
X143935390Y-96294440D01*
X143940889Y-96270533D01*
X143933037Y-96241333D01*
X143918311Y-96219733D01*
X143910454Y-96212934D01*
X143900312Y-96207654D01*
X143885156Y-96203702D01*
X143862259Y-96200887D01*
X143828891Y-96199018D01*
X143782325Y-96197902D01*
X143719833Y-96197349D01*
X143638686Y-96197167D01*
X143596578Y-96197155D01*
X143506402Y-96197235D01*
X143436076Y-96197602D01*
X143382871Y-96198448D01*
X143344060Y-96199964D01*
X143316913Y-96202341D01*
X143298702Y-96205771D01*
X143286700Y-96210446D01*
X143278178Y-96216556D01*
X143274844Y-96219733D01*
X143268245Y-96227330D01*
X143263073Y-96237130D01*
X143259154Y-96251761D01*
X143256316Y-96273848D01*
X143254385Y-96306018D01*
X143253188Y-96350897D01*
X143252552Y-96411111D01*
X143252303Y-96489287D01*
X143252266Y-96562077D01*
X143252300Y-96655293D01*
X143252535Y-96728569D01*
X143253170Y-96784542D01*
X143254406Y-96825849D01*
X143256444Y-96855128D01*
X143259483Y-96875016D01*
X143263723Y-96888150D01*
X143269365Y-96897168D01*
X143276609Y-96904707D01*
X143278394Y-96906388D01*
X143287055Y-96913828D01*
X143297118Y-96919591D01*
X143311375Y-96923888D01*
X143332617Y-96926936D01*
X143363636Y-96928949D01*
X143407223Y-96930140D01*
X143466169Y-96930725D01*
X143543266Y-96930917D01*
X143597999Y-96930933D01*
X143687206Y-96930854D01*
G37*
X143687206Y-96930854D02*
X143756614Y-96930482D01*
X143809003Y-96929615D01*
X143847153Y-96928054D01*
X143873841Y-96925597D01*
X143891847Y-96922043D01*
X143903951Y-96917190D01*
X143912931Y-96910839D01*
X143916182Y-96907916D01*
X143935957Y-96876858D01*
X143939518Y-96841172D01*
X143926509Y-96809490D01*
X143920494Y-96803087D01*
X143910765Y-96796879D01*
X143895099Y-96792090D01*
X143870592Y-96788486D01*
X143834339Y-96785836D01*
X143783435Y-96783905D01*
X143714974Y-96782461D01*
X143652383Y-96781582D01*
X143404666Y-96778533D01*
X143401281Y-96713622D01*
X143397895Y-96648711D01*
X143566042Y-96648711D01*
X143639041Y-96648081D01*
X143692483Y-96645447D01*
X143729372Y-96639691D01*
X143752712Y-96629696D01*
X143765506Y-96614344D01*
X143770758Y-96592518D01*
X143771555Y-96572262D01*
X143769077Y-96547408D01*
X143759723Y-96529094D01*
X143740617Y-96516363D01*
X143708882Y-96508259D01*
X143661641Y-96503824D01*
X143596017Y-96502101D01*
X143560199Y-96501955D01*
X143399022Y-96501955D01*
X143399022Y-96343911D01*
X143647378Y-96343911D01*
X143728787Y-96343798D01*
X143790658Y-96343288D01*
X143836032Y-96342130D01*
X143867946Y-96340070D01*
X143889441Y-96336854D01*
X143903557Y-96332228D01*
X143913332Y-96325941D01*
X143918311Y-96321333D01*
X143935390Y-96294440D01*
X143940889Y-96270533D01*
X143933037Y-96241333D01*
X143918311Y-96219733D01*
X143910454Y-96212934D01*
X143900312Y-96207654D01*
X143885156Y-96203702D01*
X143862259Y-96200887D01*
X143828891Y-96199018D01*
X143782325Y-96197902D01*
X143719833Y-96197349D01*
X143638686Y-96197167D01*
X143596578Y-96197155D01*
X143506402Y-96197235D01*
X143436076Y-96197602D01*
X143382871Y-96198448D01*
X143344060Y-96199964D01*
X143316913Y-96202341D01*
X143298702Y-96205771D01*
X143286700Y-96210446D01*
X143278178Y-96216556D01*
X143274844Y-96219733D01*
X143268245Y-96227330D01*
X143263073Y-96237130D01*
X143259154Y-96251761D01*
X143256316Y-96273848D01*
X143254385Y-96306018D01*
X143253188Y-96350897D01*
X143252552Y-96411111D01*
X143252303Y-96489287D01*
X143252266Y-96562077D01*
X143252300Y-96655293D01*
X143252535Y-96728569D01*
X143253170Y-96784542D01*
X143254406Y-96825849D01*
X143256444Y-96855128D01*
X143259483Y-96875016D01*
X143263723Y-96888150D01*
X143269365Y-96897168D01*
X143276609Y-96904707D01*
X143278394Y-96906388D01*
X143287055Y-96913828D01*
X143297118Y-96919591D01*
X143311375Y-96923888D01*
X143332617Y-96926936D01*
X143363636Y-96928949D01*
X143407223Y-96930140D01*
X143466169Y-96930725D01*
X143543266Y-96930917D01*
X143597999Y-96930933D01*
X143687206Y-96930854D01*
G36*
X142278629Y-96930934D02*
G01*
X142318111Y-96930533D01*
X142433800Y-96927741D01*
X142530689Y-96919450D01*
X142612081Y-96904768D01*
X142681277Y-96882807D01*
X142741580Y-96852678D01*
X142796292Y-96813490D01*
X142815833Y-96796468D01*
X142848250Y-96756637D01*
X142877480Y-96702587D01*
X142900009Y-96642677D01*
X142912321Y-96585261D01*
X142913600Y-96564044D01*
X142905583Y-96505231D01*
X142884101Y-96440987D01*
X142853001Y-96380179D01*
X142816134Y-96331670D01*
X142810146Y-96325818D01*
X142759421Y-96284679D01*
X142703875Y-96252565D01*
X142640304Y-96228635D01*
X142565506Y-96212047D01*
X142476278Y-96201959D01*
X142369418Y-96197531D01*
X142320472Y-96197155D01*
X142258238Y-96197455D01*
X142214472Y-96198708D01*
X142185069Y-96201446D01*
X142165921Y-96206199D01*
X142152923Y-96213499D01*
X142145955Y-96219733D01*
X142139374Y-96227306D01*
X142134212Y-96237076D01*
X142130297Y-96251660D01*
X142127457Y-96273674D01*
X142125520Y-96305736D01*
X142124316Y-96350464D01*
X142123672Y-96410474D01*
X142123417Y-96488383D01*
X142123378Y-96564044D01*
X142123130Y-96664959D01*
X142123183Y-96745573D01*
X142124143Y-96784178D01*
X142270133Y-96784178D01*
X142270133Y-96343911D01*
X142363266Y-96343996D01*
X142419307Y-96345604D01*
X142478001Y-96349744D01*
X142526972Y-96355536D01*
X142528462Y-96355774D01*
X142607608Y-96374910D01*
X142668998Y-96404713D01*
X142715695Y-96447122D01*
X142745365Y-96493039D01*
X142763647Y-96543974D01*
X142762229Y-96591800D01*
X142741012Y-96643067D01*
X142699511Y-96696101D01*
X142642002Y-96735400D01*
X142567250Y-96761669D01*
X142517292Y-96770965D01*
X142460584Y-96777493D01*
X142400481Y-96782218D01*
X142349361Y-96784183D01*
X142346333Y-96784192D01*
X142270133Y-96784178D01*
X142124143Y-96784178D01*
X142124740Y-96808149D01*
X142129002Y-96854945D01*
X142137170Y-96888222D01*
X142150444Y-96910241D01*
X142170026Y-96923261D01*
X142197117Y-96929543D01*
X142232918Y-96931347D01*
X142278629Y-96930934D01*
G37*
X142278629Y-96930934D02*
X142318111Y-96930533D01*
X142433800Y-96927741D01*
X142530689Y-96919450D01*
X142612081Y-96904768D01*
X142681277Y-96882807D01*
X142741580Y-96852678D01*
X142796292Y-96813490D01*
X142815833Y-96796468D01*
X142848250Y-96756637D01*
X142877480Y-96702587D01*
X142900009Y-96642677D01*
X142912321Y-96585261D01*
X142913600Y-96564044D01*
X142905583Y-96505231D01*
X142884101Y-96440987D01*
X142853001Y-96380179D01*
X142816134Y-96331670D01*
X142810146Y-96325818D01*
X142759421Y-96284679D01*
X142703875Y-96252565D01*
X142640304Y-96228635D01*
X142565506Y-96212047D01*
X142476278Y-96201959D01*
X142369418Y-96197531D01*
X142320472Y-96197155D01*
X142258238Y-96197455D01*
X142214472Y-96198708D01*
X142185069Y-96201446D01*
X142165921Y-96206199D01*
X142152923Y-96213499D01*
X142145955Y-96219733D01*
X142139374Y-96227306D01*
X142134212Y-96237076D01*
X142130297Y-96251660D01*
X142127457Y-96273674D01*
X142125520Y-96305736D01*
X142124316Y-96350464D01*
X142123672Y-96410474D01*
X142123417Y-96488383D01*
X142123378Y-96564044D01*
X142123130Y-96664959D01*
X142123183Y-96745573D01*
X142124143Y-96784178D01*
X142270133Y-96784178D01*
X142270133Y-96343911D01*
X142363266Y-96343996D01*
X142419307Y-96345604D01*
X142478001Y-96349744D01*
X142526972Y-96355536D01*
X142528462Y-96355774D01*
X142607608Y-96374910D01*
X142668998Y-96404713D01*
X142715695Y-96447122D01*
X142745365Y-96493039D01*
X142763647Y-96543974D01*
X142762229Y-96591800D01*
X142741012Y-96643067D01*
X142699511Y-96696101D01*
X142642002Y-96735400D01*
X142567250Y-96761669D01*
X142517292Y-96770965D01*
X142460584Y-96777493D01*
X142400481Y-96782218D01*
X142349361Y-96784183D01*
X142346333Y-96784192D01*
X142270133Y-96784178D01*
X142124143Y-96784178D01*
X142124740Y-96808149D01*
X142129002Y-96854945D01*
X142137170Y-96888222D01*
X142150444Y-96910241D01*
X142170026Y-96923261D01*
X142197117Y-96929543D01*
X142232918Y-96931347D01*
X142278629Y-96930934D01*
G36*
X146126957Y-102173429D02*
G01*
X146223232Y-102149191D01*
X146309816Y-102106359D01*
X146384627Y-102046581D01*
X146445582Y-101971506D01*
X146490601Y-101882780D01*
X146516864Y-101786470D01*
X146522714Y-101689205D01*
X146507860Y-101595346D01*
X146474160Y-101507489D01*
X146423472Y-101428230D01*
X146357655Y-101360164D01*
X146278566Y-101305888D01*
X146188066Y-101267998D01*
X146136800Y-101255574D01*
X146092302Y-101248053D01*
X146058001Y-101245081D01*
X146025040Y-101246906D01*
X145984566Y-101253775D01*
X145951469Y-101260750D01*
X145858053Y-101292259D01*
X145774381Y-101343383D01*
X145702335Y-101412571D01*
X145643800Y-101498272D01*
X145629852Y-101525511D01*
X145613414Y-101561878D01*
X145603106Y-101592418D01*
X145597540Y-101624550D01*
X145595331Y-101665693D01*
X145595052Y-101711778D01*
X145599139Y-101796135D01*
X145612554Y-101865414D01*
X145637744Y-101926039D01*
X145677154Y-101984433D01*
X145715702Y-102028698D01*
X145787594Y-102094516D01*
X145862687Y-102139947D01*
X145945438Y-102167150D01*
X146023072Y-102177424D01*
X146126957Y-102173429D01*
G37*
X146126957Y-102173429D02*
X146223232Y-102149191D01*
X146309816Y-102106359D01*
X146384627Y-102046581D01*
X146445582Y-101971506D01*
X146490601Y-101882780D01*
X146516864Y-101786470D01*
X146522714Y-101689205D01*
X146507860Y-101595346D01*
X146474160Y-101507489D01*
X146423472Y-101428230D01*
X146357655Y-101360164D01*
X146278566Y-101305888D01*
X146188066Y-101267998D01*
X146136800Y-101255574D01*
X146092302Y-101248053D01*
X146058001Y-101245081D01*
X146025040Y-101246906D01*
X145984566Y-101253775D01*
X145951469Y-101260750D01*
X145858053Y-101292259D01*
X145774381Y-101343383D01*
X145702335Y-101412571D01*
X145643800Y-101498272D01*
X145629852Y-101525511D01*
X145613414Y-101561878D01*
X145603106Y-101592418D01*
X145597540Y-101624550D01*
X145595331Y-101665693D01*
X145595052Y-101711778D01*
X145599139Y-101796135D01*
X145612554Y-101865414D01*
X145637744Y-101926039D01*
X145677154Y-101984433D01*
X145715702Y-102028698D01*
X145787594Y-102094516D01*
X145862687Y-102139947D01*
X145945438Y-102167150D01*
X146023072Y-102177424D01*
X146126957Y-102173429D01*
G36*
X154586507Y-99727755D02*
G01*
X154586526Y-99493338D01*
X154586552Y-99280397D01*
X154586625Y-99087832D01*
X154586782Y-98914541D01*
X154587064Y-98759424D01*
X154587509Y-98621380D01*
X154588156Y-98499308D01*
X154589045Y-98392106D01*
X154590213Y-98298674D01*
X154591701Y-98217910D01*
X154593546Y-98148714D01*
X154595789Y-98089985D01*
X154598469Y-98040621D01*
X154601623Y-97999522D01*
X154605292Y-97965587D01*
X154609513Y-97937714D01*
X154614327Y-97914802D01*
X154619773Y-97895751D01*
X154625888Y-97879460D01*
X154632712Y-97864827D01*
X154640285Y-97850751D01*
X154648645Y-97836132D01*
X154653839Y-97827026D01*
X154688104Y-97766311D01*
X153829955Y-97766311D01*
X153829955Y-97862267D01*
X153829224Y-97905630D01*
X153827272Y-97938795D01*
X153824463Y-97956576D01*
X153823221Y-97958222D01*
X153811799Y-97951338D01*
X153789084Y-97933495D01*
X153766385Y-97914121D01*
X153711800Y-97873386D01*
X153642321Y-97832383D01*
X153565270Y-97794877D01*
X153487965Y-97764636D01*
X153457113Y-97754988D01*
X153388616Y-97740422D01*
X153305764Y-97730461D01*
X153216371Y-97725417D01*
X153128248Y-97725604D01*
X153049207Y-97731334D01*
X153011511Y-97737142D01*
X152873414Y-97775203D01*
X152746113Y-97832927D01*
X152630292Y-97909789D01*
X152526637Y-98005261D01*
X152435833Y-98118821D01*
X152369031Y-98229619D01*
X152314164Y-98346375D01*
X152272163Y-98465724D01*
X152242167Y-98591717D01*
X152223311Y-98728406D01*
X152214732Y-98879842D01*
X152214006Y-98957289D01*
X152216100Y-99014066D01*
X153045217Y-99014066D01*
X153045424Y-98920998D01*
X153048337Y-98833308D01*
X153054000Y-98756228D01*
X153062455Y-98694991D01*
X153065038Y-98682650D01*
X153096840Y-98575367D01*
X153138498Y-98488342D01*
X153190363Y-98421358D01*
X153252781Y-98374195D01*
X153326100Y-98346635D01*
X153410669Y-98338459D01*
X153506835Y-98349449D01*
X153570311Y-98365171D01*
X153619454Y-98383361D01*
X153673583Y-98409209D01*
X153714244Y-98432911D01*
X153784800Y-98479279D01*
X153784800Y-99629470D01*
X153717392Y-99673038D01*
X153638867Y-99713960D01*
X153554681Y-99740611D01*
X153469557Y-99752535D01*
X153388216Y-99749278D01*
X153315380Y-99730385D01*
X153283426Y-99714816D01*
X153225501Y-99671819D01*
X153176544Y-99615047D01*
X153135390Y-99542425D01*
X153100874Y-99451879D01*
X153071833Y-99341334D01*
X153070552Y-99335467D01*
X153060381Y-99273212D01*
X153052739Y-99195406D01*
X153047670Y-99107280D01*
X153045217Y-99014066D01*
X152216100Y-99014066D01*
X152221857Y-99170105D01*
X152243802Y-99365941D01*
X152279786Y-99544668D01*
X152329759Y-99706155D01*
X152393668Y-99850274D01*
X152471462Y-99976894D01*
X152563089Y-100085885D01*
X152668497Y-100177117D01*
X152713662Y-100208068D01*
X152814611Y-100264215D01*
X152917901Y-100303826D01*
X153027989Y-100327986D01*
X153149330Y-100337781D01*
X153241836Y-100336735D01*
X153371490Y-100325769D01*
X153484084Y-100303954D01*
X153582875Y-100270286D01*
X153671121Y-100223764D01*
X153719986Y-100189552D01*
X153749353Y-100167638D01*
X153771043Y-100152667D01*
X153779253Y-100148267D01*
X153780868Y-100159096D01*
X153782159Y-100189749D01*
X153783138Y-100237474D01*
X153783817Y-100299521D01*
X153784210Y-100373138D01*
X153784330Y-100455573D01*
X153784188Y-100544075D01*
X153783797Y-100635893D01*
X153783171Y-100728276D01*
X153782320Y-100818472D01*
X153781260Y-100903729D01*
X153780001Y-100981297D01*
X153778556Y-101048424D01*
X153776938Y-101102359D01*
X153775161Y-101140350D01*
X153774669Y-101147333D01*
X153767092Y-101217749D01*
X153755531Y-101272898D01*
X153737792Y-101320019D01*
X153711682Y-101366353D01*
X153705415Y-101375933D01*
X153680983Y-101412622D01*
X154586311Y-101412622D01*
X154586507Y-99727755D01*
G37*
X154586507Y-99727755D02*
X154586526Y-99493338D01*
X154586552Y-99280397D01*
X154586625Y-99087832D01*
X154586782Y-98914541D01*
X154587064Y-98759424D01*
X154587509Y-98621380D01*
X154588156Y-98499308D01*
X154589045Y-98392106D01*
X154590213Y-98298674D01*
X154591701Y-98217910D01*
X154593546Y-98148714D01*
X154595789Y-98089985D01*
X154598469Y-98040621D01*
X154601623Y-97999522D01*
X154605292Y-97965587D01*
X154609513Y-97937714D01*
X154614327Y-97914802D01*
X154619773Y-97895751D01*
X154625888Y-97879460D01*
X154632712Y-97864827D01*
X154640285Y-97850751D01*
X154648645Y-97836132D01*
X154653839Y-97827026D01*
X154688104Y-97766311D01*
X153829955Y-97766311D01*
X153829955Y-97862267D01*
X153829224Y-97905630D01*
X153827272Y-97938795D01*
X153824463Y-97956576D01*
X153823221Y-97958222D01*
X153811799Y-97951338D01*
X153789084Y-97933495D01*
X153766385Y-97914121D01*
X153711800Y-97873386D01*
X153642321Y-97832383D01*
X153565270Y-97794877D01*
X153487965Y-97764636D01*
X153457113Y-97754988D01*
X153388616Y-97740422D01*
X153305764Y-97730461D01*
X153216371Y-97725417D01*
X153128248Y-97725604D01*
X153049207Y-97731334D01*
X153011511Y-97737142D01*
X152873414Y-97775203D01*
X152746113Y-97832927D01*
X152630292Y-97909789D01*
X152526637Y-98005261D01*
X152435833Y-98118821D01*
X152369031Y-98229619D01*
X152314164Y-98346375D01*
X152272163Y-98465724D01*
X152242167Y-98591717D01*
X152223311Y-98728406D01*
X152214732Y-98879842D01*
X152214006Y-98957289D01*
X152216100Y-99014066D01*
X153045217Y-99014066D01*
X153045424Y-98920998D01*
X153048337Y-98833308D01*
X153054000Y-98756228D01*
X153062455Y-98694991D01*
X153065038Y-98682650D01*
X153096840Y-98575367D01*
X153138498Y-98488342D01*
X153190363Y-98421358D01*
X153252781Y-98374195D01*
X153326100Y-98346635D01*
X153410669Y-98338459D01*
X153506835Y-98349449D01*
X153570311Y-98365171D01*
X153619454Y-98383361D01*
X153673583Y-98409209D01*
X153714244Y-98432911D01*
X153784800Y-98479279D01*
X153784800Y-99629470D01*
X153717392Y-99673038D01*
X153638867Y-99713960D01*
X153554681Y-99740611D01*
X153469557Y-99752535D01*
X153388216Y-99749278D01*
X153315380Y-99730385D01*
X153283426Y-99714816D01*
X153225501Y-99671819D01*
X153176544Y-99615047D01*
X153135390Y-99542425D01*
X153100874Y-99451879D01*
X153071833Y-99341334D01*
X153070552Y-99335467D01*
X153060381Y-99273212D01*
X153052739Y-99195406D01*
X153047670Y-99107280D01*
X153045217Y-99014066D01*
X152216100Y-99014066D01*
X152221857Y-99170105D01*
X152243802Y-99365941D01*
X152279786Y-99544668D01*
X152329759Y-99706155D01*
X152393668Y-99850274D01*
X152471462Y-99976894D01*
X152563089Y-100085885D01*
X152668497Y-100177117D01*
X152713662Y-100208068D01*
X152814611Y-100264215D01*
X152917901Y-100303826D01*
X153027989Y-100327986D01*
X153149330Y-100337781D01*
X153241836Y-100336735D01*
X153371490Y-100325769D01*
X153484084Y-100303954D01*
X153582875Y-100270286D01*
X153671121Y-100223764D01*
X153719986Y-100189552D01*
X153749353Y-100167638D01*
X153771043Y-100152667D01*
X153779253Y-100148267D01*
X153780868Y-100159096D01*
X153782159Y-100189749D01*
X153783138Y-100237474D01*
X153783817Y-100299521D01*
X153784210Y-100373138D01*
X153784330Y-100455573D01*
X153784188Y-100544075D01*
X153783797Y-100635893D01*
X153783171Y-100728276D01*
X153782320Y-100818472D01*
X153781260Y-100903729D01*
X153780001Y-100981297D01*
X153778556Y-101048424D01*
X153776938Y-101102359D01*
X153775161Y-101140350D01*
X153774669Y-101147333D01*
X153767092Y-101217749D01*
X153755531Y-101272898D01*
X153737792Y-101320019D01*
X153711682Y-101366353D01*
X153705415Y-101375933D01*
X153680983Y-101412622D01*
X154586311Y-101412622D01*
X154586507Y-99727755D01*
G36*
X151073574Y-100333448D02*
G01*
X151225492Y-100313433D01*
X151360756Y-100279798D01*
X151480239Y-100232275D01*
X151584815Y-100170595D01*
X151662424Y-100107035D01*
X151731265Y-100032901D01*
X151785006Y-99953129D01*
X151827910Y-99860909D01*
X151843384Y-99817839D01*
X151856244Y-99778858D01*
X151867446Y-99742711D01*
X151877120Y-99707566D01*
X151885396Y-99671590D01*
X151892403Y-99632950D01*
X151898272Y-99589815D01*
X151903131Y-99540351D01*
X151907110Y-99482727D01*
X151910340Y-99415109D01*
X151912949Y-99335666D01*
X151915067Y-99242564D01*
X151916824Y-99133973D01*
X151918349Y-99008058D01*
X151919772Y-98862988D01*
X151921025Y-98720222D01*
X151922351Y-98564032D01*
X151923556Y-98428761D01*
X151924766Y-98312754D01*
X151926106Y-98214355D01*
X151927700Y-98131907D01*
X151929675Y-98063754D01*
X151932156Y-98008240D01*
X151935269Y-97963708D01*
X151939138Y-97928502D01*
X151943889Y-97900966D01*
X151949648Y-97879444D01*
X151956539Y-97862278D01*
X151964689Y-97847814D01*
X151974223Y-97834394D01*
X151985266Y-97820362D01*
X151989566Y-97814929D01*
X152005386Y-97792090D01*
X152012422Y-97776537D01*
X152012444Y-97776078D01*
X152001567Y-97773879D01*
X151970582Y-97771853D01*
X151921957Y-97770058D01*
X151858163Y-97768549D01*
X151781669Y-97767384D01*
X151694944Y-97766620D01*
X151600457Y-97766314D01*
X151589550Y-97766311D01*
X151166657Y-97766311D01*
X151163395Y-97862378D01*
X151160133Y-97958444D01*
X151098044Y-97907457D01*
X151000714Y-97839943D01*
X150890813Y-97785251D01*
X150804349Y-97755022D01*
X150735278Y-97740334D01*
X150651925Y-97730341D01*
X150562159Y-97725354D01*
X150473845Y-97725687D01*
X150394851Y-97731649D01*
X150358622Y-97737362D01*
X150218603Y-97775224D01*
X150092178Y-97830068D01*
X149980260Y-97901076D01*
X149883762Y-97987432D01*
X149803600Y-98088321D01*
X149740687Y-98202924D01*
X149696312Y-98329016D01*
X149683978Y-98385599D01*
X149676368Y-98447798D01*
X149672739Y-98522637D01*
X149672245Y-98556533D01*
X149672310Y-98559718D01*
X150432248Y-98559718D01*
X150441541Y-98484667D01*
X150469728Y-98420840D01*
X150518197Y-98365202D01*
X150523254Y-98360789D01*
X150571548Y-98325963D01*
X150623257Y-98303380D01*
X150683989Y-98291460D01*
X150759352Y-98288617D01*
X150777459Y-98289022D01*
X150831278Y-98291675D01*
X150871308Y-98297091D01*
X150906324Y-98307255D01*
X150945103Y-98324150D01*
X150955745Y-98329328D01*
X151016396Y-98365156D01*
X151063215Y-98407788D01*
X151075952Y-98423027D01*
X151120622Y-98479538D01*
X151120622Y-98675414D01*
X151120086Y-98754061D01*
X151118396Y-98812012D01*
X151115428Y-98851125D01*
X151111057Y-98873259D01*
X151106972Y-98879726D01*
X151091047Y-98882889D01*
X151057264Y-98885512D01*
X151010340Y-98887345D01*
X150954993Y-98888143D01*
X150946106Y-98888158D01*
X150825330Y-98882904D01*
X150722660Y-98866737D01*
X150636106Y-98839039D01*
X150563681Y-98799192D01*
X150508751Y-98752242D01*
X150464204Y-98694355D01*
X150439480Y-98631307D01*
X150432248Y-98559718D01*
X149672310Y-98559718D01*
X149674178Y-98650288D01*
X149682522Y-98729188D01*
X149698768Y-98800410D01*
X149724405Y-98871136D01*
X149748401Y-98923507D01*
X149807020Y-99018804D01*
X149885117Y-99106830D01*
X149980315Y-99185983D01*
X150090238Y-99254660D01*
X150212510Y-99311259D01*
X150344755Y-99354179D01*
X150409422Y-99369118D01*
X150545604Y-99391223D01*
X150694049Y-99405806D01*
X150845505Y-99412187D01*
X150972064Y-99410555D01*
X151133950Y-99403776D01*
X151126530Y-99462755D01*
X151107238Y-99561908D01*
X151076104Y-99642628D01*
X151032269Y-99705534D01*
X150974871Y-99751244D01*
X150903048Y-99780378D01*
X150815941Y-99793553D01*
X150712686Y-99791389D01*
X150674711Y-99787388D01*
X150533520Y-99762220D01*
X150396707Y-99721186D01*
X150302178Y-99683185D01*
X150257018Y-99663810D01*
X150218585Y-99648240D01*
X150192234Y-99638595D01*
X150184546Y-99636548D01*
X150174802Y-99645626D01*
X150158083Y-99674595D01*
X150134232Y-99723783D01*
X150103093Y-99793516D01*
X150064507Y-99884121D01*
X150057910Y-99899911D01*
X150027853Y-99972228D01*
X150000874Y-100037575D01*
X149978136Y-100093094D01*
X149960806Y-100135928D01*
X149950048Y-100163219D01*
X149946941Y-100172058D01*
X149956940Y-100176813D01*
X149983217Y-100182090D01*
X150011489Y-100185769D01*
X150041646Y-100190526D01*
X150089433Y-100199972D01*
X150150612Y-100213180D01*
X150220946Y-100229224D01*
X150296194Y-100247180D01*
X150324755Y-100254203D01*
X150429816Y-100279791D01*
X150517480Y-100299853D01*
X150592068Y-100315031D01*
X150657903Y-100325965D01*
X150719307Y-100333296D01*
X150780602Y-100337665D01*
X150846110Y-100339713D01*
X150904128Y-100340111D01*
X151073574Y-100333448D01*
G37*
X151073574Y-100333448D02*
X151225492Y-100313433D01*
X151360756Y-100279798D01*
X151480239Y-100232275D01*
X151584815Y-100170595D01*
X151662424Y-100107035D01*
X151731265Y-100032901D01*
X151785006Y-99953129D01*
X151827910Y-99860909D01*
X151843384Y-99817839D01*
X151856244Y-99778858D01*
X151867446Y-99742711D01*
X151877120Y-99707566D01*
X151885396Y-99671590D01*
X151892403Y-99632950D01*
X151898272Y-99589815D01*
X151903131Y-99540351D01*
X151907110Y-99482727D01*
X151910340Y-99415109D01*
X151912949Y-99335666D01*
X151915067Y-99242564D01*
X151916824Y-99133973D01*
X151918349Y-99008058D01*
X151919772Y-98862988D01*
X151921025Y-98720222D01*
X151922351Y-98564032D01*
X151923556Y-98428761D01*
X151924766Y-98312754D01*
X151926106Y-98214355D01*
X151927700Y-98131907D01*
X151929675Y-98063754D01*
X151932156Y-98008240D01*
X151935269Y-97963708D01*
X151939138Y-97928502D01*
X151943889Y-97900966D01*
X151949648Y-97879444D01*
X151956539Y-97862278D01*
X151964689Y-97847814D01*
X151974223Y-97834394D01*
X151985266Y-97820362D01*
X151989566Y-97814929D01*
X152005386Y-97792090D01*
X152012422Y-97776537D01*
X152012444Y-97776078D01*
X152001567Y-97773879D01*
X151970582Y-97771853D01*
X151921957Y-97770058D01*
X151858163Y-97768549D01*
X151781669Y-97767384D01*
X151694944Y-97766620D01*
X151600457Y-97766314D01*
X151589550Y-97766311D01*
X151166657Y-97766311D01*
X151163395Y-97862378D01*
X151160133Y-97958444D01*
X151098044Y-97907457D01*
X151000714Y-97839943D01*
X150890813Y-97785251D01*
X150804349Y-97755022D01*
X150735278Y-97740334D01*
X150651925Y-97730341D01*
X150562159Y-97725354D01*
X150473845Y-97725687D01*
X150394851Y-97731649D01*
X150358622Y-97737362D01*
X150218603Y-97775224D01*
X150092178Y-97830068D01*
X149980260Y-97901076D01*
X149883762Y-97987432D01*
X149803600Y-98088321D01*
X149740687Y-98202924D01*
X149696312Y-98329016D01*
X149683978Y-98385599D01*
X149676368Y-98447798D01*
X149672739Y-98522637D01*
X149672245Y-98556533D01*
X149672310Y-98559718D01*
X150432248Y-98559718D01*
X150441541Y-98484667D01*
X150469728Y-98420840D01*
X150518197Y-98365202D01*
X150523254Y-98360789D01*
X150571548Y-98325963D01*
X150623257Y-98303380D01*
X150683989Y-98291460D01*
X150759352Y-98288617D01*
X150777459Y-98289022D01*
X150831278Y-98291675D01*
X150871308Y-98297091D01*
X150906324Y-98307255D01*
X150945103Y-98324150D01*
X150955745Y-98329328D01*
X151016396Y-98365156D01*
X151063215Y-98407788D01*
X151075952Y-98423027D01*
X151120622Y-98479538D01*
X151120622Y-98675414D01*
X151120086Y-98754061D01*
X151118396Y-98812012D01*
X151115428Y-98851125D01*
X151111057Y-98873259D01*
X151106972Y-98879726D01*
X151091047Y-98882889D01*
X151057264Y-98885512D01*
X151010340Y-98887345D01*
X150954993Y-98888143D01*
X150946106Y-98888158D01*
X150825330Y-98882904D01*
X150722660Y-98866737D01*
X150636106Y-98839039D01*
X150563681Y-98799192D01*
X150508751Y-98752242D01*
X150464204Y-98694355D01*
X150439480Y-98631307D01*
X150432248Y-98559718D01*
X149672310Y-98559718D01*
X149674178Y-98650288D01*
X149682522Y-98729188D01*
X149698768Y-98800410D01*
X149724405Y-98871136D01*
X149748401Y-98923507D01*
X149807020Y-99018804D01*
X149885117Y-99106830D01*
X149980315Y-99185983D01*
X150090238Y-99254660D01*
X150212510Y-99311259D01*
X150344755Y-99354179D01*
X150409422Y-99369118D01*
X150545604Y-99391223D01*
X150694049Y-99405806D01*
X150845505Y-99412187D01*
X150972064Y-99410555D01*
X151133950Y-99403776D01*
X151126530Y-99462755D01*
X151107238Y-99561908D01*
X151076104Y-99642628D01*
X151032269Y-99705534D01*
X150974871Y-99751244D01*
X150903048Y-99780378D01*
X150815941Y-99793553D01*
X150712686Y-99791389D01*
X150674711Y-99787388D01*
X150533520Y-99762220D01*
X150396707Y-99721186D01*
X150302178Y-99683185D01*
X150257018Y-99663810D01*
X150218585Y-99648240D01*
X150192234Y-99638595D01*
X150184546Y-99636548D01*
X150174802Y-99645626D01*
X150158083Y-99674595D01*
X150134232Y-99723783D01*
X150103093Y-99793516D01*
X150064507Y-99884121D01*
X150057910Y-99899911D01*
X150027853Y-99972228D01*
X150000874Y-100037575D01*
X149978136Y-100093094D01*
X149960806Y-100135928D01*
X149950048Y-100163219D01*
X149946941Y-100172058D01*
X149956940Y-100176813D01*
X149983217Y-100182090D01*
X150011489Y-100185769D01*
X150041646Y-100190526D01*
X150089433Y-100199972D01*
X150150612Y-100213180D01*
X150220946Y-100229224D01*
X150296194Y-100247180D01*
X150324755Y-100254203D01*
X150429816Y-100279791D01*
X150517480Y-100299853D01*
X150592068Y-100315031D01*
X150657903Y-100325965D01*
X150719307Y-100333296D01*
X150780602Y-100337665D01*
X150846110Y-100339713D01*
X150904128Y-100340111D01*
X151073574Y-100333448D01*
G36*
X148728429Y-101250929D02*
G01*
X148888570Y-101229755D01*
X149052510Y-101189615D01*
X149222313Y-101130111D01*
X149400043Y-101050846D01*
X149411310Y-101045301D01*
X149469005Y-101017275D01*
X149520552Y-100993198D01*
X149562191Y-100974751D01*
X149590162Y-100963614D01*
X149599733Y-100961067D01*
X149618950Y-100956059D01*
X149623561Y-100951853D01*
X149618458Y-100941420D01*
X149602418Y-100915132D01*
X149577288Y-100875743D01*
X149544914Y-100826009D01*
X149507143Y-100768685D01*
X149465822Y-100706524D01*
X149422798Y-100642282D01*
X149379917Y-100578715D01*
X149339026Y-100518575D01*
X149301971Y-100464620D01*
X149270600Y-100419603D01*
X149246759Y-100386279D01*
X149232294Y-100367403D01*
X149230309Y-100365213D01*
X149220191Y-100369862D01*
X149197850Y-100387038D01*
X149167280Y-100413560D01*
X149151536Y-100428036D01*
X149055047Y-100503318D01*
X148948336Y-100558759D01*
X148832832Y-100593859D01*
X148709962Y-100608120D01*
X148640561Y-100606949D01*
X148519423Y-100589788D01*
X148410205Y-100553906D01*
X148312582Y-100499041D01*
X148226228Y-100424930D01*
X148150815Y-100331312D01*
X148086018Y-100217924D01*
X148048601Y-100131333D01*
X148004748Y-99995634D01*
X147972428Y-99848150D01*
X147951557Y-99692686D01*
X147942051Y-99533044D01*
X147943827Y-99373027D01*
X147956803Y-99216439D01*
X147980894Y-99067082D01*
X148016018Y-98928760D01*
X148062092Y-98805276D01*
X148078373Y-98771022D01*
X148146620Y-98656936D01*
X148227079Y-98560443D01*
X148318570Y-98482330D01*
X148419911Y-98423383D01*
X148529920Y-98384388D01*
X148647415Y-98366132D01*
X148688883Y-98364789D01*
X148810441Y-98375710D01*
X148930878Y-98408526D01*
X149048666Y-98462561D01*
X149162277Y-98537135D01*
X149253685Y-98615461D01*
X149300215Y-98659992D01*
X149481483Y-98362729D01*
X149526580Y-98288567D01*
X149567819Y-98220354D01*
X149603735Y-98160541D01*
X149632866Y-98111580D01*
X149653750Y-98075921D01*
X149664924Y-98056016D01*
X149666375Y-98052921D01*
X149658146Y-98043282D01*
X149632567Y-98026001D01*
X149592873Y-98002717D01*
X149542297Y-97975066D01*
X149484074Y-97944685D01*
X149421437Y-97913210D01*
X149357621Y-97882278D01*
X149295860Y-97853527D01*
X149239388Y-97828592D01*
X149191438Y-97809111D01*
X149167986Y-97800682D01*
X149034221Y-97762867D01*
X148896327Y-97737864D01*
X148748622Y-97724860D01*
X148621833Y-97722532D01*
X148553878Y-97723627D01*
X148488277Y-97725725D01*
X148430847Y-97728566D01*
X148387403Y-97731894D01*
X148373298Y-97733578D01*
X148234284Y-97762413D01*
X148092757Y-97807532D01*
X147955275Y-97866250D01*
X147828394Y-97935880D01*
X147750889Y-97988559D01*
X147623481Y-98096761D01*
X147505178Y-98223329D01*
X147398172Y-98365134D01*
X147304652Y-98519049D01*
X147226810Y-98681947D01*
X147182956Y-98799244D01*
X147132708Y-98982872D01*
X147099209Y-99177419D01*
X147082449Y-99378675D01*
X147082416Y-99582432D01*
X147099101Y-99784479D01*
X147132493Y-99980608D01*
X147182580Y-100166609D01*
X147186397Y-100178197D01*
X147249281Y-100340250D01*
X147326028Y-100488168D01*
X147419242Y-100626135D01*
X147531527Y-100758339D01*
X147575392Y-100803601D01*
X147711534Y-100927543D01*
X147851491Y-101030085D01*
X147997411Y-101112344D01*
X148151442Y-101175436D01*
X148315732Y-101220477D01*
X148411289Y-101237967D01*
X148570023Y-101253534D01*
X148728429Y-101250929D01*
G37*
X148728429Y-101250929D02*
X148888570Y-101229755D01*
X149052510Y-101189615D01*
X149222313Y-101130111D01*
X149400043Y-101050846D01*
X149411310Y-101045301D01*
X149469005Y-101017275D01*
X149520552Y-100993198D01*
X149562191Y-100974751D01*
X149590162Y-100963614D01*
X149599733Y-100961067D01*
X149618950Y-100956059D01*
X149623561Y-100951853D01*
X149618458Y-100941420D01*
X149602418Y-100915132D01*
X149577288Y-100875743D01*
X149544914Y-100826009D01*
X149507143Y-100768685D01*
X149465822Y-100706524D01*
X149422798Y-100642282D01*
X149379917Y-100578715D01*
X149339026Y-100518575D01*
X149301971Y-100464620D01*
X149270600Y-100419603D01*
X149246759Y-100386279D01*
X149232294Y-100367403D01*
X149230309Y-100365213D01*
X149220191Y-100369862D01*
X149197850Y-100387038D01*
X149167280Y-100413560D01*
X149151536Y-100428036D01*
X149055047Y-100503318D01*
X148948336Y-100558759D01*
X148832832Y-100593859D01*
X148709962Y-100608120D01*
X148640561Y-100606949D01*
X148519423Y-100589788D01*
X148410205Y-100553906D01*
X148312582Y-100499041D01*
X148226228Y-100424930D01*
X148150815Y-100331312D01*
X148086018Y-100217924D01*
X148048601Y-100131333D01*
X148004748Y-99995634D01*
X147972428Y-99848150D01*
X147951557Y-99692686D01*
X147942051Y-99533044D01*
X147943827Y-99373027D01*
X147956803Y-99216439D01*
X147980894Y-99067082D01*
X148016018Y-98928760D01*
X148062092Y-98805276D01*
X148078373Y-98771022D01*
X148146620Y-98656936D01*
X148227079Y-98560443D01*
X148318570Y-98482330D01*
X148419911Y-98423383D01*
X148529920Y-98384388D01*
X148647415Y-98366132D01*
X148688883Y-98364789D01*
X148810441Y-98375710D01*
X148930878Y-98408526D01*
X149048666Y-98462561D01*
X149162277Y-98537135D01*
X149253685Y-98615461D01*
X149300215Y-98659992D01*
X149481483Y-98362729D01*
X149526580Y-98288567D01*
X149567819Y-98220354D01*
X149603735Y-98160541D01*
X149632866Y-98111580D01*
X149653750Y-98075921D01*
X149664924Y-98056016D01*
X149666375Y-98052921D01*
X149658146Y-98043282D01*
X149632567Y-98026001D01*
X149592873Y-98002717D01*
X149542297Y-97975066D01*
X149484074Y-97944685D01*
X149421437Y-97913210D01*
X149357621Y-97882278D01*
X149295860Y-97853527D01*
X149239388Y-97828592D01*
X149191438Y-97809111D01*
X149167986Y-97800682D01*
X149034221Y-97762867D01*
X148896327Y-97737864D01*
X148748622Y-97724860D01*
X148621833Y-97722532D01*
X148553878Y-97723627D01*
X148488277Y-97725725D01*
X148430847Y-97728566D01*
X148387403Y-97731894D01*
X148373298Y-97733578D01*
X148234284Y-97762413D01*
X148092757Y-97807532D01*
X147955275Y-97866250D01*
X147828394Y-97935880D01*
X147750889Y-97988559D01*
X147623481Y-98096761D01*
X147505178Y-98223329D01*
X147398172Y-98365134D01*
X147304652Y-98519049D01*
X147226810Y-98681947D01*
X147182956Y-98799244D01*
X147132708Y-98982872D01*
X147099209Y-99177419D01*
X147082449Y-99378675D01*
X147082416Y-99582432D01*
X147099101Y-99784479D01*
X147132493Y-99980608D01*
X147182580Y-100166609D01*
X147186397Y-100178197D01*
X147249281Y-100340250D01*
X147326028Y-100488168D01*
X147419242Y-100626135D01*
X147531527Y-100758339D01*
X147575392Y-100803601D01*
X147711534Y-100927543D01*
X147851491Y-101030085D01*
X147997411Y-101112344D01*
X148151442Y-101175436D01*
X148315732Y-101220477D01*
X148411289Y-101237967D01*
X148570023Y-101253534D01*
X148728429Y-101250929D01*
G36*
X145453600Y-101710946D02*
G01*
X145464465Y-101597007D01*
X145496082Y-101489384D01*
X145546985Y-101390385D01*
X145615707Y-101302316D01*
X145700781Y-101227484D01*
X145797768Y-101169616D01*
X145904036Y-101129995D01*
X146011050Y-101111427D01*
X146116700Y-101112566D01*
X146218875Y-101132070D01*
X146315466Y-101168594D01*
X146404362Y-101220795D01*
X146483454Y-101287327D01*
X146550631Y-101366848D01*
X146603783Y-101458013D01*
X146640801Y-101559477D01*
X146659573Y-101669898D01*
X146661511Y-101719794D01*
X146661511Y-101807733D01*
X146713440Y-101807733D01*
X146749747Y-101804889D01*
X146776645Y-101793089D01*
X146803751Y-101769351D01*
X146842133Y-101730969D01*
X146842133Y-99539398D01*
X146842124Y-99277261D01*
X146842092Y-99036759D01*
X146842028Y-98816952D01*
X146841924Y-98616899D01*
X146841773Y-98435656D01*
X146841566Y-98272284D01*
X146841294Y-98125840D01*
X146840950Y-97995383D01*
X146840526Y-97879971D01*
X146840013Y-97778662D01*
X146839403Y-97690516D01*
X146838688Y-97614590D01*
X146837860Y-97549943D01*
X146836911Y-97495633D01*
X146835833Y-97450720D01*
X146834617Y-97414260D01*
X146833255Y-97385313D01*
X146831739Y-97362937D01*
X146830062Y-97346191D01*
X146828214Y-97334132D01*
X146826187Y-97325820D01*
X146823975Y-97320313D01*
X146822892Y-97318463D01*
X146818729Y-97311451D01*
X146815195Y-97305004D01*
X146811365Y-97299100D01*
X146806318Y-97293714D01*
X146799129Y-97288822D01*
X146788877Y-97284402D01*
X146774636Y-97280428D01*
X146755486Y-97276879D01*
X146730501Y-97273730D01*
X146698760Y-97270958D01*
X146659338Y-97268539D01*
X146611314Y-97266449D01*
X146553763Y-97264665D01*
X146485763Y-97263163D01*
X146406390Y-97261920D01*
X146314721Y-97260911D01*
X146209834Y-97260115D01*
X146090804Y-97259506D01*
X145956710Y-97259061D01*
X145806627Y-97258757D01*
X145639633Y-97258570D01*
X145454804Y-97258476D01*
X145251217Y-97258452D01*
X145027950Y-97258475D01*
X144784078Y-97258520D01*
X144518679Y-97258563D01*
X144480296Y-97258568D01*
X144213318Y-97258611D01*
X143967998Y-97258682D01*
X143743417Y-97258787D01*
X143538655Y-97258934D01*
X143352794Y-97259131D01*
X143184912Y-97259384D01*
X143034092Y-97259700D01*
X142899413Y-97260087D01*
X142779956Y-97260553D01*
X142674801Y-97261103D01*
X142583029Y-97261747D01*
X142503721Y-97262489D01*
X142435957Y-97263339D01*
X142378818Y-97264303D01*
X142331383Y-97265389D01*
X142292734Y-97266603D01*
X142261951Y-97267953D01*
X142238115Y-97269445D01*
X142220306Y-97271089D01*
X142207605Y-97272889D01*
X142199092Y-97274855D01*
X142194734Y-97276523D01*
X142186272Y-97280094D01*
X142178503Y-97282730D01*
X142171398Y-97285366D01*
X142164927Y-97288938D01*
X142159061Y-97294379D01*
X142153771Y-97302625D01*
X142149026Y-97314610D01*
X142144798Y-97331269D01*
X142141057Y-97353537D01*
X142137773Y-97382348D01*
X142134917Y-97418637D01*
X142132460Y-97463339D01*
X142130371Y-97517389D01*
X142128622Y-97581721D01*
X142127183Y-97657270D01*
X142126024Y-97744970D01*
X142125117Y-97845757D01*
X142124431Y-97960566D01*
X142123937Y-98090330D01*
X142123605Y-98235985D01*
X142123407Y-98398465D01*
X142123313Y-98578705D01*
X142123292Y-98777640D01*
X142123315Y-98996204D01*
X142123354Y-99235332D01*
X142123378Y-99495960D01*
X142123378Y-99538111D01*
X142123364Y-99801008D01*
X142123339Y-100042268D01*
X142123329Y-100262835D01*
X142123358Y-100463648D01*
X142123452Y-100645651D01*
X142123638Y-100809784D01*
X142123941Y-100956989D01*
X142124386Y-101088208D01*
X142124966Y-101198133D01*
X142427803Y-101198133D01*
X142467593Y-101140289D01*
X142478764Y-101124521D01*
X142488834Y-101110559D01*
X142497862Y-101097216D01*
X142505903Y-101083307D01*
X142513014Y-101067644D01*
X142519253Y-101049042D01*
X142524675Y-101026314D01*
X142529338Y-100998273D01*
X142533299Y-100963733D01*
X142536615Y-100921508D01*
X142539341Y-100870411D01*
X142541536Y-100809256D01*
X142543255Y-100736856D01*
X142544556Y-100652025D01*
X142545495Y-100553578D01*
X142546130Y-100440326D01*
X142546516Y-100311084D01*
X142546712Y-100164666D01*
X142546773Y-99999884D01*
X142546757Y-99815553D01*
X142546720Y-99610487D01*
X142546711Y-99487867D01*
X142546735Y-99270918D01*
X142546769Y-99075358D01*
X142546757Y-98900001D01*
X142546642Y-98743659D01*
X142546370Y-98605143D01*
X142545882Y-98483266D01*
X142545124Y-98376840D01*
X142544038Y-98284678D01*
X142542569Y-98205591D01*
X142540660Y-98138392D01*
X142538256Y-98081893D01*
X142535299Y-98034907D01*
X142531734Y-97996245D01*
X142527505Y-97964720D01*
X142522554Y-97939145D01*
X142516827Y-97918330D01*
X142510267Y-97901089D01*
X142502817Y-97886235D01*
X142494421Y-97872578D01*
X142485024Y-97858931D01*
X142474568Y-97844107D01*
X142468477Y-97835217D01*
X142429704Y-97777600D01*
X142961268Y-97777600D01*
X143084517Y-97777635D01*
X143187013Y-97777785D01*
X143270580Y-97778122D01*
X143337044Y-97778714D01*
X143388229Y-97779633D01*
X143425959Y-97780949D01*
X143452060Y-97782731D01*
X143468356Y-97785049D01*
X143476672Y-97787974D01*
X143478832Y-97791576D01*
X143476661Y-97795925D01*
X143475465Y-97797355D01*
X143450315Y-97834427D01*
X143424417Y-97887228D01*
X143400808Y-97949230D01*
X143392539Y-97975643D01*
X143387922Y-97993584D01*
X143384021Y-98014645D01*
X143380752Y-98040911D01*
X143378034Y-98074468D01*
X143375785Y-98117401D01*
X143373923Y-98171796D01*
X143372364Y-98239738D01*
X143371028Y-98323312D01*
X143369831Y-98424605D01*
X143368692Y-98545700D01*
X143368315Y-98590400D01*
X143367298Y-98715551D01*
X143366540Y-98819918D01*
X143366097Y-98905293D01*
X143366030Y-98973467D01*
X143366395Y-99026235D01*
X143367252Y-99065386D01*
X143368659Y-99092715D01*
X143370675Y-99110014D01*
X143373357Y-99119074D01*
X143376764Y-99121688D01*
X143380956Y-99119649D01*
X143385429Y-99115333D01*
X143395784Y-99102398D01*
X143417842Y-99073324D01*
X143450043Y-99030241D01*
X143490826Y-98975282D01*
X143538630Y-98910577D01*
X143591895Y-98838258D01*
X143649060Y-98760456D01*
X143708563Y-98679302D01*
X143768845Y-98596928D01*
X143828345Y-98515464D01*
X143885502Y-98437043D01*
X143938755Y-98363796D01*
X143986543Y-98297853D01*
X144027307Y-98241346D01*
X144059484Y-98196407D01*
X144081515Y-98165166D01*
X144086083Y-98158534D01*
X144109004Y-98121631D01*
X144135812Y-98073641D01*
X144161211Y-98024103D01*
X144164432Y-98017423D01*
X144186110Y-97969228D01*
X144198696Y-97931666D01*
X144204426Y-97895840D01*
X144205544Y-97853800D01*
X144204910Y-97777600D01*
X145359349Y-97777600D01*
X145268185Y-97871331D01*
X145221388Y-97921225D01*
X145171101Y-97977705D01*
X145125056Y-98031974D01*
X145104631Y-98057327D01*
X145074193Y-98096872D01*
X145034138Y-98150084D01*
X144985639Y-98215333D01*
X144929865Y-98290989D01*
X144867989Y-98375423D01*
X144801181Y-98467006D01*
X144730613Y-98564108D01*
X144657455Y-98665099D01*
X144582879Y-98768350D01*
X144508056Y-98872232D01*
X144434157Y-98975115D01*
X144362354Y-99075369D01*
X144293816Y-99171364D01*
X144229716Y-99261473D01*
X144171225Y-99344064D01*
X144119514Y-99417508D01*
X144075753Y-99480176D01*
X144041115Y-99530439D01*
X144016770Y-99566666D01*
X144003889Y-99587229D01*
X144002131Y-99591332D01*
X144010090Y-99602658D01*
X144030885Y-99629838D01*
X144063153Y-99671171D01*
X144105530Y-99724956D01*
X144156653Y-99789494D01*
X144215159Y-99863082D01*
X144279686Y-99944022D01*
X144348869Y-100030612D01*
X144421347Y-100121152D01*
X144495754Y-100213940D01*
X144555483Y-100288298D01*
X145566489Y-100288298D01*
X145572398Y-100275341D01*
X145586728Y-100253092D01*
X145587775Y-100251609D01*
X145606562Y-100221456D01*
X145626209Y-100184625D01*
X145630108Y-100176489D01*
X145633644Y-100168060D01*
X145636770Y-100157941D01*
X145639514Y-100144740D01*
X145641908Y-100127062D01*
X145643981Y-100103516D01*
X145645765Y-100072707D01*
X145647288Y-100033243D01*
X145648581Y-99983731D01*
X145649674Y-99922777D01*
X145650597Y-99848989D01*
X145651381Y-99760972D01*
X145652055Y-99657335D01*
X145652650Y-99536684D01*
X145653195Y-99397626D01*
X145653721Y-99238768D01*
X145654255Y-99059911D01*
X145654794Y-98874793D01*
X145655228Y-98710855D01*
X145655491Y-98566697D01*
X145655516Y-98440921D01*
X145655235Y-98332129D01*
X145654581Y-98238923D01*
X145653486Y-98159903D01*
X145651882Y-98093672D01*
X145649703Y-98038830D01*
X145646881Y-97993979D01*
X145643349Y-97957722D01*
X145639039Y-97928659D01*
X145633883Y-97905391D01*
X145627815Y-97886521D01*
X145620767Y-97870649D01*
X145612671Y-97856378D01*
X145603460Y-97842309D01*
X145594960Y-97829842D01*
X145577824Y-97803548D01*
X145567678Y-97785963D01*
X145566489Y-97782743D01*
X145577396Y-97781666D01*
X145608589Y-97780665D01*
X145657777Y-97779765D01*
X145722667Y-97778990D01*
X145800970Y-97778363D01*
X145890393Y-97777909D01*
X145988644Y-97777651D01*
X146057555Y-97777600D01*
X146162548Y-97777820D01*
X146259390Y-97778452D01*
X146345893Y-97779451D01*
X146419868Y-97780773D01*
X146479126Y-97782374D01*
X146521480Y-97784209D01*
X146544740Y-97786235D01*
X146548622Y-97787507D01*
X146540924Y-97802409D01*
X146532926Y-97810440D01*
X146519754Y-97827566D01*
X146502515Y-97857817D01*
X146490593Y-97882378D01*
X146463955Y-97941289D01*
X146460880Y-99118155D01*
X146457805Y-100295022D01*
X146012147Y-100295022D01*
X145914330Y-100294858D01*
X145823936Y-100294389D01*
X145743370Y-100293653D01*
X145675038Y-100292684D01*
X145621344Y-100291520D01*
X145584695Y-100290197D01*
X145567496Y-100288751D01*
X145566489Y-100288298D01*
X144555483Y-100288298D01*
X144570730Y-100307278D01*
X144644910Y-100399463D01*
X144716931Y-100488796D01*
X144785431Y-100573576D01*
X144849045Y-100652102D01*
X144906412Y-100722674D01*
X144956167Y-100783591D01*
X144996948Y-100833153D01*
X145014112Y-100853822D01*
X145100404Y-100954484D01*
X145177003Y-101037741D01*
X145245817Y-101105562D01*
X145308752Y-101159911D01*
X145318133Y-101167278D01*
X145357644Y-101197883D01*
X144225884Y-101198133D01*
X144231173Y-101150156D01*
X144227870Y-101092812D01*
X144206339Y-101024537D01*
X144166365Y-100944788D01*
X144121057Y-100872505D01*
X144104839Y-100849860D01*
X144076786Y-100812304D01*
X144038570Y-100761979D01*
X143991863Y-100701027D01*
X143938339Y-100631589D01*
X143879669Y-100555806D01*
X143817525Y-100475820D01*
X143753579Y-100393772D01*
X143689505Y-100311804D01*
X143626973Y-100232057D01*
X143567657Y-100156673D01*
X143513229Y-100087793D01*
X143465361Y-100027558D01*
X143425725Y-99978111D01*
X143395994Y-99941592D01*
X143377839Y-99920142D01*
X143374780Y-99916844D01*
X143371921Y-99924851D01*
X143369707Y-99955145D01*
X143368143Y-100007444D01*
X143367233Y-100081469D01*
X143366980Y-100176937D01*
X143367387Y-100293566D01*
X143368296Y-100413555D01*
X143369618Y-100545667D01*
X143371143Y-100657406D01*
X143373119Y-100750975D01*
X143375794Y-100828581D01*
X143379418Y-100892426D01*
X143384239Y-100944717D01*
X143390506Y-100987656D01*
X143398468Y-101023449D01*
X143408373Y-101054300D01*
X143420469Y-101082414D01*
X143435007Y-101109995D01*
X143449689Y-101135034D01*
X143487686Y-101198133D01*
X142427803Y-101198133D01*
X142124966Y-101198133D01*
X142124999Y-101204383D01*
X142125805Y-101306456D01*
X142126830Y-101395367D01*
X142128100Y-101472059D01*
X142129640Y-101537473D01*
X142131476Y-101592551D01*
X142133633Y-101638235D01*
X142136137Y-101675466D01*
X142139013Y-101705187D01*
X142142287Y-101728338D01*
X142145985Y-101745861D01*
X142150131Y-101758699D01*
X142154753Y-101767792D01*
X142159874Y-101774082D01*
X142165522Y-101778512D01*
X142171721Y-101782022D01*
X142178496Y-101785555D01*
X142184492Y-101789124D01*
X142189725Y-101791700D01*
X142197901Y-101794028D01*
X142210114Y-101796122D01*
X142227459Y-101797993D01*
X142251031Y-101799653D01*
X142281923Y-101801116D01*
X142321232Y-101802392D01*
X142370050Y-101803496D01*
X142429473Y-101804439D01*
X142500596Y-101805233D01*
X142584512Y-101805891D01*
X142682317Y-101806425D01*
X142795106Y-101806847D01*
X142923971Y-101807171D01*
X143070009Y-101807408D01*
X143234314Y-101807570D01*
X143417980Y-101807670D01*
X143622103Y-101807720D01*
X143833247Y-101807733D01*
X145453600Y-101807733D01*
X145453600Y-101710946D01*
G37*
X145453600Y-101710946D02*
X145464465Y-101597007D01*
X145496082Y-101489384D01*
X145546985Y-101390385D01*
X145615707Y-101302316D01*
X145700781Y-101227484D01*
X145797768Y-101169616D01*
X145904036Y-101129995D01*
X146011050Y-101111427D01*
X146116700Y-101112566D01*
X146218875Y-101132070D01*
X146315466Y-101168594D01*
X146404362Y-101220795D01*
X146483454Y-101287327D01*
X146550631Y-101366848D01*
X146603783Y-101458013D01*
X146640801Y-101559477D01*
X146659573Y-101669898D01*
X146661511Y-101719794D01*
X146661511Y-101807733D01*
X146713440Y-101807733D01*
X146749747Y-101804889D01*
X146776645Y-101793089D01*
X146803751Y-101769351D01*
X146842133Y-101730969D01*
X146842133Y-99539398D01*
X146842124Y-99277261D01*
X146842092Y-99036759D01*
X146842028Y-98816952D01*
X146841924Y-98616899D01*
X146841773Y-98435656D01*
X146841566Y-98272284D01*
X146841294Y-98125840D01*
X146840950Y-97995383D01*
X146840526Y-97879971D01*
X146840013Y-97778662D01*
X146839403Y-97690516D01*
X146838688Y-97614590D01*
X146837860Y-97549943D01*
X146836911Y-97495633D01*
X146835833Y-97450720D01*
X146834617Y-97414260D01*
X146833255Y-97385313D01*
X146831739Y-97362937D01*
X146830062Y-97346191D01*
X146828214Y-97334132D01*
X146826187Y-97325820D01*
X146823975Y-97320313D01*
X146822892Y-97318463D01*
X146818729Y-97311451D01*
X146815195Y-97305004D01*
X146811365Y-97299100D01*
X146806318Y-97293714D01*
X146799129Y-97288822D01*
X146788877Y-97284402D01*
X146774636Y-97280428D01*
X146755486Y-97276879D01*
X146730501Y-97273730D01*
X146698760Y-97270958D01*
X146659338Y-97268539D01*
X146611314Y-97266449D01*
X146553763Y-97264665D01*
X146485763Y-97263163D01*
X146406390Y-97261920D01*
X146314721Y-97260911D01*
X146209834Y-97260115D01*
X146090804Y-97259506D01*
X145956710Y-97259061D01*
X145806627Y-97258757D01*
X145639633Y-97258570D01*
X145454804Y-97258476D01*
X145251217Y-97258452D01*
X145027950Y-97258475D01*
X144784078Y-97258520D01*
X144518679Y-97258563D01*
X144480296Y-97258568D01*
X144213318Y-97258611D01*
X143967998Y-97258682D01*
X143743417Y-97258787D01*
X143538655Y-97258934D01*
X143352794Y-97259131D01*
X143184912Y-97259384D01*
X143034092Y-97259700D01*
X142899413Y-97260087D01*
X142779956Y-97260553D01*
X142674801Y-97261103D01*
X142583029Y-97261747D01*
X142503721Y-97262489D01*
X142435957Y-97263339D01*
X142378818Y-97264303D01*
X142331383Y-97265389D01*
X142292734Y-97266603D01*
X142261951Y-97267953D01*
X142238115Y-97269445D01*
X142220306Y-97271089D01*
X142207605Y-97272889D01*
X142199092Y-97274855D01*
X142194734Y-97276523D01*
X142186272Y-97280094D01*
X142178503Y-97282730D01*
X142171398Y-97285366D01*
X142164927Y-97288938D01*
X142159061Y-97294379D01*
X142153771Y-97302625D01*
X142149026Y-97314610D01*
X142144798Y-97331269D01*
X142141057Y-97353537D01*
X142137773Y-97382348D01*
X142134917Y-97418637D01*
X142132460Y-97463339D01*
X142130371Y-97517389D01*
X142128622Y-97581721D01*
X142127183Y-97657270D01*
X142126024Y-97744970D01*
X142125117Y-97845757D01*
X142124431Y-97960566D01*
X142123937Y-98090330D01*
X142123605Y-98235985D01*
X142123407Y-98398465D01*
X142123313Y-98578705D01*
X142123292Y-98777640D01*
X142123315Y-98996204D01*
X142123354Y-99235332D01*
X142123378Y-99495960D01*
X142123378Y-99538111D01*
X142123364Y-99801008D01*
X142123339Y-100042268D01*
X142123329Y-100262835D01*
X142123358Y-100463648D01*
X142123452Y-100645651D01*
X142123638Y-100809784D01*
X142123941Y-100956989D01*
X142124386Y-101088208D01*
X142124966Y-101198133D01*
X142427803Y-101198133D01*
X142467593Y-101140289D01*
X142478764Y-101124521D01*
X142488834Y-101110559D01*
X142497862Y-101097216D01*
X142505903Y-101083307D01*
X142513014Y-101067644D01*
X142519253Y-101049042D01*
X142524675Y-101026314D01*
X142529338Y-100998273D01*
X142533299Y-100963733D01*
X142536615Y-100921508D01*
X142539341Y-100870411D01*
X142541536Y-100809256D01*
X142543255Y-100736856D01*
X142544556Y-100652025D01*
X142545495Y-100553578D01*
X142546130Y-100440326D01*
X142546516Y-100311084D01*
X142546712Y-100164666D01*
X142546773Y-99999884D01*
X142546757Y-99815553D01*
X142546720Y-99610487D01*
X142546711Y-99487867D01*
X142546735Y-99270918D01*
X142546769Y-99075358D01*
X142546757Y-98900001D01*
X142546642Y-98743659D01*
X142546370Y-98605143D01*
X142545882Y-98483266D01*
X142545124Y-98376840D01*
X142544038Y-98284678D01*
X142542569Y-98205591D01*
X142540660Y-98138392D01*
X142538256Y-98081893D01*
X142535299Y-98034907D01*
X142531734Y-97996245D01*
X142527505Y-97964720D01*
X142522554Y-97939145D01*
X142516827Y-97918330D01*
X142510267Y-97901089D01*
X142502817Y-97886235D01*
X142494421Y-97872578D01*
X142485024Y-97858931D01*
X142474568Y-97844107D01*
X142468477Y-97835217D01*
X142429704Y-97777600D01*
X142961268Y-97777600D01*
X143084517Y-97777635D01*
X143187013Y-97777785D01*
X143270580Y-97778122D01*
X143337044Y-97778714D01*
X143388229Y-97779633D01*
X143425959Y-97780949D01*
X143452060Y-97782731D01*
X143468356Y-97785049D01*
X143476672Y-97787974D01*
X143478832Y-97791576D01*
X143476661Y-97795925D01*
X143475465Y-97797355D01*
X143450315Y-97834427D01*
X143424417Y-97887228D01*
X143400808Y-97949230D01*
X143392539Y-97975643D01*
X143387922Y-97993584D01*
X143384021Y-98014645D01*
X143380752Y-98040911D01*
X143378034Y-98074468D01*
X143375785Y-98117401D01*
X143373923Y-98171796D01*
X143372364Y-98239738D01*
X143371028Y-98323312D01*
X143369831Y-98424605D01*
X143368692Y-98545700D01*
X143368315Y-98590400D01*
X143367298Y-98715551D01*
X143366540Y-98819918D01*
X143366097Y-98905293D01*
X143366030Y-98973467D01*
X143366395Y-99026235D01*
X143367252Y-99065386D01*
X143368659Y-99092715D01*
X143370675Y-99110014D01*
X143373357Y-99119074D01*
X143376764Y-99121688D01*
X143380956Y-99119649D01*
X143385429Y-99115333D01*
X143395784Y-99102398D01*
X143417842Y-99073324D01*
X143450043Y-99030241D01*
X143490826Y-98975282D01*
X143538630Y-98910577D01*
X143591895Y-98838258D01*
X143649060Y-98760456D01*
X143708563Y-98679302D01*
X143768845Y-98596928D01*
X143828345Y-98515464D01*
X143885502Y-98437043D01*
X143938755Y-98363796D01*
X143986543Y-98297853D01*
X144027307Y-98241346D01*
X144059484Y-98196407D01*
X144081515Y-98165166D01*
X144086083Y-98158534D01*
X144109004Y-98121631D01*
X144135812Y-98073641D01*
X144161211Y-98024103D01*
X144164432Y-98017423D01*
X144186110Y-97969228D01*
X144198696Y-97931666D01*
X144204426Y-97895840D01*
X144205544Y-97853800D01*
X144204910Y-97777600D01*
X145359349Y-97777600D01*
X145268185Y-97871331D01*
X145221388Y-97921225D01*
X145171101Y-97977705D01*
X145125056Y-98031974D01*
X145104631Y-98057327D01*
X145074193Y-98096872D01*
X145034138Y-98150084D01*
X144985639Y-98215333D01*
X144929865Y-98290989D01*
X144867989Y-98375423D01*
X144801181Y-98467006D01*
X144730613Y-98564108D01*
X144657455Y-98665099D01*
X144582879Y-98768350D01*
X144508056Y-98872232D01*
X144434157Y-98975115D01*
X144362354Y-99075369D01*
X144293816Y-99171364D01*
X144229716Y-99261473D01*
X144171225Y-99344064D01*
X144119514Y-99417508D01*
X144075753Y-99480176D01*
X144041115Y-99530439D01*
X144016770Y-99566666D01*
X144003889Y-99587229D01*
X144002131Y-99591332D01*
X144010090Y-99602658D01*
X144030885Y-99629838D01*
X144063153Y-99671171D01*
X144105530Y-99724956D01*
X144156653Y-99789494D01*
X144215159Y-99863082D01*
X144279686Y-99944022D01*
X144348869Y-100030612D01*
X144421347Y-100121152D01*
X144495754Y-100213940D01*
X144555483Y-100288298D01*
X145566489Y-100288298D01*
X145572398Y-100275341D01*
X145586728Y-100253092D01*
X145587775Y-100251609D01*
X145606562Y-100221456D01*
X145626209Y-100184625D01*
X145630108Y-100176489D01*
X145633644Y-100168060D01*
X145636770Y-100157941D01*
X145639514Y-100144740D01*
X145641908Y-100127062D01*
X145643981Y-100103516D01*
X145645765Y-100072707D01*
X145647288Y-100033243D01*
X145648581Y-99983731D01*
X145649674Y-99922777D01*
X145650597Y-99848989D01*
X145651381Y-99760972D01*
X145652055Y-99657335D01*
X145652650Y-99536684D01*
X145653195Y-99397626D01*
X145653721Y-99238768D01*
X145654255Y-99059911D01*
X145654794Y-98874793D01*
X145655228Y-98710855D01*
X145655491Y-98566697D01*
X145655516Y-98440921D01*
X145655235Y-98332129D01*
X145654581Y-98238923D01*
X145653486Y-98159903D01*
X145651882Y-98093672D01*
X145649703Y-98038830D01*
X145646881Y-97993979D01*
X145643349Y-97957722D01*
X145639039Y-97928659D01*
X145633883Y-97905391D01*
X145627815Y-97886521D01*
X145620767Y-97870649D01*
X145612671Y-97856378D01*
X145603460Y-97842309D01*
X145594960Y-97829842D01*
X145577824Y-97803548D01*
X145567678Y-97785963D01*
X145566489Y-97782743D01*
X145577396Y-97781666D01*
X145608589Y-97780665D01*
X145657777Y-97779765D01*
X145722667Y-97778990D01*
X145800970Y-97778363D01*
X145890393Y-97777909D01*
X145988644Y-97777651D01*
X146057555Y-97777600D01*
X146162548Y-97777820D01*
X146259390Y-97778452D01*
X146345893Y-97779451D01*
X146419868Y-97780773D01*
X146479126Y-97782374D01*
X146521480Y-97784209D01*
X146544740Y-97786235D01*
X146548622Y-97787507D01*
X146540924Y-97802409D01*
X146532926Y-97810440D01*
X146519754Y-97827566D01*
X146502515Y-97857817D01*
X146490593Y-97882378D01*
X146463955Y-97941289D01*
X146460880Y-99118155D01*
X146457805Y-100295022D01*
X146012147Y-100295022D01*
X145914330Y-100294858D01*
X145823936Y-100294389D01*
X145743370Y-100293653D01*
X145675038Y-100292684D01*
X145621344Y-100291520D01*
X145584695Y-100290197D01*
X145567496Y-100288751D01*
X145566489Y-100288298D01*
X144555483Y-100288298D01*
X144570730Y-100307278D01*
X144644910Y-100399463D01*
X144716931Y-100488796D01*
X144785431Y-100573576D01*
X144849045Y-100652102D01*
X144906412Y-100722674D01*
X144956167Y-100783591D01*
X144996948Y-100833153D01*
X145014112Y-100853822D01*
X145100404Y-100954484D01*
X145177003Y-101037741D01*
X145245817Y-101105562D01*
X145308752Y-101159911D01*
X145318133Y-101167278D01*
X145357644Y-101197883D01*
X144225884Y-101198133D01*
X144231173Y-101150156D01*
X144227870Y-101092812D01*
X144206339Y-101024537D01*
X144166365Y-100944788D01*
X144121057Y-100872505D01*
X144104839Y-100849860D01*
X144076786Y-100812304D01*
X144038570Y-100761979D01*
X143991863Y-100701027D01*
X143938339Y-100631589D01*
X143879669Y-100555806D01*
X143817525Y-100475820D01*
X143753579Y-100393772D01*
X143689505Y-100311804D01*
X143626973Y-100232057D01*
X143567657Y-100156673D01*
X143513229Y-100087793D01*
X143465361Y-100027558D01*
X143425725Y-99978111D01*
X143395994Y-99941592D01*
X143377839Y-99920142D01*
X143374780Y-99916844D01*
X143371921Y-99924851D01*
X143369707Y-99955145D01*
X143368143Y-100007444D01*
X143367233Y-100081469D01*
X143366980Y-100176937D01*
X143367387Y-100293566D01*
X143368296Y-100413555D01*
X143369618Y-100545667D01*
X143371143Y-100657406D01*
X143373119Y-100750975D01*
X143375794Y-100828581D01*
X143379418Y-100892426D01*
X143384239Y-100944717D01*
X143390506Y-100987656D01*
X143398468Y-101023449D01*
X143408373Y-101054300D01*
X143420469Y-101082414D01*
X143435007Y-101109995D01*
X143449689Y-101135034D01*
X143487686Y-101198133D01*
X142427803Y-101198133D01*
X142124966Y-101198133D01*
X142124999Y-101204383D01*
X142125805Y-101306456D01*
X142126830Y-101395367D01*
X142128100Y-101472059D01*
X142129640Y-101537473D01*
X142131476Y-101592551D01*
X142133633Y-101638235D01*
X142136137Y-101675466D01*
X142139013Y-101705187D01*
X142142287Y-101728338D01*
X142145985Y-101745861D01*
X142150131Y-101758699D01*
X142154753Y-101767792D01*
X142159874Y-101774082D01*
X142165522Y-101778512D01*
X142171721Y-101782022D01*
X142178496Y-101785555D01*
X142184492Y-101789124D01*
X142189725Y-101791700D01*
X142197901Y-101794028D01*
X142210114Y-101796122D01*
X142227459Y-101797993D01*
X142251031Y-101799653D01*
X142281923Y-101801116D01*
X142321232Y-101802392D01*
X142370050Y-101803496D01*
X142429473Y-101804439D01*
X142500596Y-101805233D01*
X142584512Y-101805891D01*
X142682317Y-101806425D01*
X142795106Y-101806847D01*
X142923971Y-101807171D01*
X143070009Y-101807408D01*
X143234314Y-101807570D01*
X143417980Y-101807670D01*
X143622103Y-101807720D01*
X143833247Y-101807733D01*
X145453600Y-101807733D01*
X145453600Y-101710946D01*
G36*
X160603910Y-101857652D02*
G01*
X160682454Y-101857222D01*
X160739298Y-101856058D01*
X160778105Y-101853793D01*
X160802538Y-101850060D01*
X160816262Y-101844494D01*
X160822940Y-101836727D01*
X160826236Y-101826395D01*
X160826556Y-101825057D01*
X160831562Y-101800921D01*
X160840829Y-101753299D01*
X160853392Y-101687259D01*
X160868287Y-101607872D01*
X160884551Y-101520204D01*
X160885119Y-101517125D01*
X160901410Y-101431211D01*
X160916652Y-101355304D01*
X160929861Y-101293955D01*
X160940054Y-101251718D01*
X160946248Y-101233145D01*
X160946543Y-101232816D01*
X160964788Y-101223747D01*
X161002405Y-101208633D01*
X161051271Y-101190738D01*
X161051543Y-101190642D01*
X161113093Y-101167507D01*
X161185657Y-101138035D01*
X161254057Y-101108403D01*
X161257294Y-101106938D01*
X161368702Y-101056374D01*
X161615399Y-101224840D01*
X161691077Y-101276197D01*
X161759631Y-101322111D01*
X161817088Y-101359970D01*
X161859476Y-101387163D01*
X161882825Y-101401079D01*
X161885042Y-101402111D01*
X161902010Y-101397516D01*
X161933701Y-101375345D01*
X161981352Y-101334553D01*
X162046198Y-101274095D01*
X162112397Y-101209773D01*
X162176214Y-101146388D01*
X162233329Y-101088549D01*
X162280305Y-101039825D01*
X162313703Y-101003790D01*
X162330085Y-100984016D01*
X162330694Y-100982998D01*
X162332505Y-100969428D01*
X162325683Y-100947267D01*
X162308540Y-100913522D01*
X162279393Y-100865200D01*
X162236555Y-100799308D01*
X162179448Y-100714483D01*
X162128766Y-100639823D01*
X162083461Y-100572860D01*
X162046150Y-100517484D01*
X162019452Y-100477580D01*
X162005985Y-100457038D01*
X162005137Y-100455644D01*
X162006781Y-100435962D01*
X162019245Y-100397707D01*
X162040048Y-100348111D01*
X162047462Y-100332272D01*
X162079814Y-100261710D01*
X162114328Y-100181647D01*
X162142365Y-100112371D01*
X162162568Y-100060955D01*
X162178615Y-100021881D01*
X162187888Y-100001459D01*
X162189041Y-99999886D01*
X162206096Y-99997279D01*
X162246298Y-99990137D01*
X162304302Y-99979477D01*
X162374763Y-99966315D01*
X162452335Y-99951667D01*
X162531672Y-99936551D01*
X162607431Y-99921982D01*
X162674264Y-99908978D01*
X162726828Y-99898555D01*
X162759776Y-99891730D01*
X162767857Y-99889801D01*
X162776205Y-99885038D01*
X162782506Y-99874282D01*
X162787045Y-99853902D01*
X162790104Y-99820266D01*
X162791967Y-99769745D01*
X162792918Y-99698708D01*
X162793240Y-99603524D01*
X162793257Y-99564508D01*
X162793257Y-99247201D01*
X162717057Y-99232161D01*
X162674663Y-99224005D01*
X162611400Y-99212101D01*
X162534962Y-99197884D01*
X162453043Y-99182790D01*
X162430400Y-99178645D01*
X162354806Y-99163947D01*
X162288953Y-99149495D01*
X162238366Y-99136625D01*
X162208574Y-99126678D01*
X162203612Y-99123713D01*
X162191426Y-99102717D01*
X162173953Y-99062033D01*
X162154577Y-99009678D01*
X162150734Y-98998400D01*
X162125339Y-98928477D01*
X162093817Y-98849582D01*
X162062969Y-98778734D01*
X162062817Y-98778405D01*
X162011447Y-98667267D01*
X162180399Y-98418747D01*
X162349352Y-98170228D01*
X162132429Y-97952942D01*
X162066819Y-97888274D01*
X162006979Y-97831267D01*
X161956267Y-97784967D01*
X161918046Y-97752416D01*
X161895675Y-97736657D01*
X161892466Y-97735657D01*
X161873626Y-97743531D01*
X161835180Y-97765422D01*
X161781330Y-97798733D01*
X161716276Y-97840869D01*
X161645940Y-97888057D01*
X161574555Y-97936190D01*
X161510908Y-97978072D01*
X161459041Y-98011129D01*
X161422995Y-98032782D01*
X161406867Y-98040457D01*
X161387189Y-98033963D01*
X161349875Y-98016850D01*
X161302621Y-97992674D01*
X161297612Y-97989987D01*
X161233977Y-97958073D01*
X161190341Y-97942421D01*
X161163202Y-97942255D01*
X161149057Y-97956796D01*
X161148975Y-97957000D01*
X161141905Y-97974221D01*
X161125042Y-98015101D01*
X161099695Y-98076475D01*
X161067171Y-98155181D01*
X161028778Y-98248053D01*
X160985822Y-98351928D01*
X160944222Y-98452498D01*
X160898504Y-98563484D01*
X160856526Y-98666297D01*
X160819548Y-98757785D01*
X160788827Y-98834799D01*
X160765622Y-98894185D01*
X160751190Y-98932791D01*
X160746743Y-98947200D01*
X160757896Y-98963728D01*
X160787069Y-98990070D01*
X160825971Y-99019113D01*
X160936757Y-99110961D01*
X161023351Y-99216241D01*
X161084716Y-99332734D01*
X161119815Y-99458224D01*
X161127608Y-99590493D01*
X161121943Y-99651543D01*
X161091078Y-99778205D01*
X161037920Y-99890059D01*
X160965767Y-99985999D01*
X160877917Y-100064924D01*
X160777665Y-100125730D01*
X160668310Y-100167313D01*
X160553147Y-100188572D01*
X160435475Y-100188401D01*
X160318590Y-100165699D01*
X160205789Y-100119362D01*
X160100369Y-100048287D01*
X160056368Y-100008089D01*
X159971979Y-99904871D01*
X159913222Y-99792075D01*
X159879704Y-99672990D01*
X159871035Y-99550905D01*
X159886823Y-99429107D01*
X159926678Y-99310884D01*
X159990207Y-99199525D01*
X160077021Y-99098316D01*
X160174029Y-99019113D01*
X160214437Y-98988838D01*
X160242982Y-98962781D01*
X160253257Y-98947175D01*
X160247877Y-98930157D01*
X160232575Y-98889500D01*
X160208612Y-98828358D01*
X160177244Y-98749881D01*
X160139732Y-98657220D01*
X160097333Y-98553528D01*
X160055663Y-98452474D01*
X160009690Y-98341393D01*
X159967107Y-98238459D01*
X159929221Y-98146835D01*
X159897340Y-98069684D01*
X159872771Y-98010169D01*
X159856820Y-97971456D01*
X159850910Y-97957000D01*
X159836948Y-97942315D01*
X159809940Y-97942358D01*
X159766413Y-97957901D01*
X159702890Y-97989716D01*
X159702388Y-97989987D01*
X159654560Y-98014677D01*
X159615897Y-98032662D01*
X159594095Y-98040386D01*
X159593133Y-98040457D01*
X159576721Y-98032622D01*
X159540487Y-98010835D01*
X159488474Y-97977672D01*
X159424725Y-97935709D01*
X159354060Y-97888057D01*
X159282116Y-97839809D01*
X159217274Y-97797849D01*
X159163735Y-97764773D01*
X159125697Y-97743179D01*
X159107533Y-97735657D01*
X159090808Y-97745543D01*
X159057180Y-97773174D01*
X159010010Y-97815505D01*
X158952658Y-97869495D01*
X158888484Y-97932101D01*
X158867497Y-97953017D01*
X158650499Y-98170377D01*
X158815668Y-98412780D01*
X158865864Y-98487219D01*
X158909919Y-98554028D01*
X158945362Y-98609335D01*
X158969719Y-98649271D01*
X158980522Y-98669964D01*
X158980838Y-98671437D01*
X158975143Y-98690942D01*
X158959826Y-98730178D01*
X158937537Y-98782570D01*
X158921893Y-98817645D01*
X158892641Y-98884799D01*
X158865094Y-98952642D01*
X158843737Y-99009966D01*
X158837935Y-99027428D01*
X158821452Y-99074062D01*
X158805340Y-99110095D01*
X158796490Y-99123713D01*
X158776960Y-99132048D01*
X158734334Y-99143863D01*
X158674145Y-99157819D01*
X158601922Y-99172578D01*
X158569600Y-99178645D01*
X158487522Y-99193727D01*
X158408795Y-99208331D01*
X158341109Y-99221020D01*
X158292160Y-99230358D01*
X158282943Y-99232161D01*
X158206743Y-99247201D01*
X158206743Y-99564508D01*
X158206914Y-99668846D01*
X158207616Y-99747787D01*
X158209134Y-99804962D01*
X158211749Y-99844001D01*
X158215746Y-99868535D01*
X158221409Y-99882195D01*
X158229020Y-99888611D01*
X158232143Y-99889801D01*
X158250978Y-99894020D01*
X158292588Y-99902438D01*
X158351630Y-99914039D01*
X158422757Y-99927805D01*
X158500625Y-99942720D01*
X158579887Y-99957768D01*
X158655198Y-99971931D01*
X158721213Y-99984194D01*
X158772587Y-99993539D01*
X158803975Y-99998950D01*
X158810959Y-99999886D01*
X158817285Y-100012404D01*
X158831290Y-100045754D01*
X158850355Y-100093623D01*
X158857634Y-100112371D01*
X158886996Y-100184805D01*
X158921571Y-100264830D01*
X158952537Y-100332272D01*
X158975323Y-100383841D01*
X158990482Y-100426215D01*
X158995542Y-100452166D01*
X158994736Y-100455644D01*
X158984041Y-100472064D01*
X158959620Y-100508583D01*
X158924095Y-100561313D01*
X158880087Y-100626365D01*
X158830217Y-100699849D01*
X158820356Y-100714355D01*
X158762492Y-100800296D01*
X158719956Y-100865739D01*
X158691054Y-100913696D01*
X158674090Y-100947180D01*
X158667367Y-100969205D01*
X158669190Y-100982783D01*
X158669236Y-100982869D01*
X158683586Y-101000703D01*
X158715323Y-101035183D01*
X158761010Y-101082732D01*
X158817204Y-101139778D01*
X158880468Y-101202745D01*
X158887602Y-101209773D01*
X158967330Y-101286980D01*
X159028857Y-101343670D01*
X159073421Y-101380890D01*
X159102257Y-101399685D01*
X159114958Y-101402111D01*
X159133494Y-101391529D01*
X159171961Y-101367084D01*
X159226386Y-101331388D01*
X159292798Y-101287053D01*
X159367225Y-101236689D01*
X159384601Y-101224840D01*
X159631297Y-101056374D01*
X159742706Y-101106938D01*
X159810457Y-101136405D01*
X159883183Y-101166041D01*
X159945703Y-101189670D01*
X159948457Y-101190642D01*
X159997360Y-101208543D01*
X160035057Y-101223680D01*
X160053425Y-101232790D01*
X160053456Y-101232816D01*
X160059285Y-101249283D01*
X160069192Y-101289781D01*
X160082195Y-101349758D01*
X160097309Y-101424660D01*
X160113552Y-101509936D01*
X160114881Y-101517125D01*
X160131175Y-101604986D01*
X160146133Y-101684740D01*
X160158791Y-101751319D01*
X160168186Y-101799653D01*
X160173354Y-101824675D01*
X160173444Y-101825057D01*
X160176589Y-101835701D01*
X160182704Y-101843738D01*
X160195453Y-101849533D01*
X160218500Y-101853453D01*
X160255509Y-101855865D01*
X160310144Y-101857135D01*
X160386067Y-101857629D01*
X160486944Y-101857714D01*
X160500000Y-101857714D01*
X160603910Y-101857652D01*
G37*
X160603910Y-101857652D02*
X160682454Y-101857222D01*
X160739298Y-101856058D01*
X160778105Y-101853793D01*
X160802538Y-101850060D01*
X160816262Y-101844494D01*
X160822940Y-101836727D01*
X160826236Y-101826395D01*
X160826556Y-101825057D01*
X160831562Y-101800921D01*
X160840829Y-101753299D01*
X160853392Y-101687259D01*
X160868287Y-101607872D01*
X160884551Y-101520204D01*
X160885119Y-101517125D01*
X160901410Y-101431211D01*
X160916652Y-101355304D01*
X160929861Y-101293955D01*
X160940054Y-101251718D01*
X160946248Y-101233145D01*
X160946543Y-101232816D01*
X160964788Y-101223747D01*
X161002405Y-101208633D01*
X161051271Y-101190738D01*
X161051543Y-101190642D01*
X161113093Y-101167507D01*
X161185657Y-101138035D01*
X161254057Y-101108403D01*
X161257294Y-101106938D01*
X161368702Y-101056374D01*
X161615399Y-101224840D01*
X161691077Y-101276197D01*
X161759631Y-101322111D01*
X161817088Y-101359970D01*
X161859476Y-101387163D01*
X161882825Y-101401079D01*
X161885042Y-101402111D01*
X161902010Y-101397516D01*
X161933701Y-101375345D01*
X161981352Y-101334553D01*
X162046198Y-101274095D01*
X162112397Y-101209773D01*
X162176214Y-101146388D01*
X162233329Y-101088549D01*
X162280305Y-101039825D01*
X162313703Y-101003790D01*
X162330085Y-100984016D01*
X162330694Y-100982998D01*
X162332505Y-100969428D01*
X162325683Y-100947267D01*
X162308540Y-100913522D01*
X162279393Y-100865200D01*
X162236555Y-100799308D01*
X162179448Y-100714483D01*
X162128766Y-100639823D01*
X162083461Y-100572860D01*
X162046150Y-100517484D01*
X162019452Y-100477580D01*
X162005985Y-100457038D01*
X162005137Y-100455644D01*
X162006781Y-100435962D01*
X162019245Y-100397707D01*
X162040048Y-100348111D01*
X162047462Y-100332272D01*
X162079814Y-100261710D01*
X162114328Y-100181647D01*
X162142365Y-100112371D01*
X162162568Y-100060955D01*
X162178615Y-100021881D01*
X162187888Y-100001459D01*
X162189041Y-99999886D01*
X162206096Y-99997279D01*
X162246298Y-99990137D01*
X162304302Y-99979477D01*
X162374763Y-99966315D01*
X162452335Y-99951667D01*
X162531672Y-99936551D01*
X162607431Y-99921982D01*
X162674264Y-99908978D01*
X162726828Y-99898555D01*
X162759776Y-99891730D01*
X162767857Y-99889801D01*
X162776205Y-99885038D01*
X162782506Y-99874282D01*
X162787045Y-99853902D01*
X162790104Y-99820266D01*
X162791967Y-99769745D01*
X162792918Y-99698708D01*
X162793240Y-99603524D01*
X162793257Y-99564508D01*
X162793257Y-99247201D01*
X162717057Y-99232161D01*
X162674663Y-99224005D01*
X162611400Y-99212101D01*
X162534962Y-99197884D01*
X162453043Y-99182790D01*
X162430400Y-99178645D01*
X162354806Y-99163947D01*
X162288953Y-99149495D01*
X162238366Y-99136625D01*
X162208574Y-99126678D01*
X162203612Y-99123713D01*
X162191426Y-99102717D01*
X162173953Y-99062033D01*
X162154577Y-99009678D01*
X162150734Y-98998400D01*
X162125339Y-98928477D01*
X162093817Y-98849582D01*
X162062969Y-98778734D01*
X162062817Y-98778405D01*
X162011447Y-98667267D01*
X162180399Y-98418747D01*
X162349352Y-98170228D01*
X162132429Y-97952942D01*
X162066819Y-97888274D01*
X162006979Y-97831267D01*
X161956267Y-97784967D01*
X161918046Y-97752416D01*
X161895675Y-97736657D01*
X161892466Y-97735657D01*
X161873626Y-97743531D01*
X161835180Y-97765422D01*
X161781330Y-97798733D01*
X161716276Y-97840869D01*
X161645940Y-97888057D01*
X161574555Y-97936190D01*
X161510908Y-97978072D01*
X161459041Y-98011129D01*
X161422995Y-98032782D01*
X161406867Y-98040457D01*
X161387189Y-98033963D01*
X161349875Y-98016850D01*
X161302621Y-97992674D01*
X161297612Y-97989987D01*
X161233977Y-97958073D01*
X161190341Y-97942421D01*
X161163202Y-97942255D01*
X161149057Y-97956796D01*
X161148975Y-97957000D01*
X161141905Y-97974221D01*
X161125042Y-98015101D01*
X161099695Y-98076475D01*
X161067171Y-98155181D01*
X161028778Y-98248053D01*
X160985822Y-98351928D01*
X160944222Y-98452498D01*
X160898504Y-98563484D01*
X160856526Y-98666297D01*
X160819548Y-98757785D01*
X160788827Y-98834799D01*
X160765622Y-98894185D01*
X160751190Y-98932791D01*
X160746743Y-98947200D01*
X160757896Y-98963728D01*
X160787069Y-98990070D01*
X160825971Y-99019113D01*
X160936757Y-99110961D01*
X161023351Y-99216241D01*
X161084716Y-99332734D01*
X161119815Y-99458224D01*
X161127608Y-99590493D01*
X161121943Y-99651543D01*
X161091078Y-99778205D01*
X161037920Y-99890059D01*
X160965767Y-99985999D01*
X160877917Y-100064924D01*
X160777665Y-100125730D01*
X160668310Y-100167313D01*
X160553147Y-100188572D01*
X160435475Y-100188401D01*
X160318590Y-100165699D01*
X160205789Y-100119362D01*
X160100369Y-100048287D01*
X160056368Y-100008089D01*
X159971979Y-99904871D01*
X159913222Y-99792075D01*
X159879704Y-99672990D01*
X159871035Y-99550905D01*
X159886823Y-99429107D01*
X159926678Y-99310884D01*
X159990207Y-99199525D01*
X160077021Y-99098316D01*
X160174029Y-99019113D01*
X160214437Y-98988838D01*
X160242982Y-98962781D01*
X160253257Y-98947175D01*
X160247877Y-98930157D01*
X160232575Y-98889500D01*
X160208612Y-98828358D01*
X160177244Y-98749881D01*
X160139732Y-98657220D01*
X160097333Y-98553528D01*
X160055663Y-98452474D01*
X160009690Y-98341393D01*
X159967107Y-98238459D01*
X159929221Y-98146835D01*
X159897340Y-98069684D01*
X159872771Y-98010169D01*
X159856820Y-97971456D01*
X159850910Y-97957000D01*
X159836948Y-97942315D01*
X159809940Y-97942358D01*
X159766413Y-97957901D01*
X159702890Y-97989716D01*
X159702388Y-97989987D01*
X159654560Y-98014677D01*
X159615897Y-98032662D01*
X159594095Y-98040386D01*
X159593133Y-98040457D01*
X159576721Y-98032622D01*
X159540487Y-98010835D01*
X159488474Y-97977672D01*
X159424725Y-97935709D01*
X159354060Y-97888057D01*
X159282116Y-97839809D01*
X159217274Y-97797849D01*
X159163735Y-97764773D01*
X159125697Y-97743179D01*
X159107533Y-97735657D01*
X159090808Y-97745543D01*
X159057180Y-97773174D01*
X159010010Y-97815505D01*
X158952658Y-97869495D01*
X158888484Y-97932101D01*
X158867497Y-97953017D01*
X158650499Y-98170377D01*
X158815668Y-98412780D01*
X158865864Y-98487219D01*
X158909919Y-98554028D01*
X158945362Y-98609335D01*
X158969719Y-98649271D01*
X158980522Y-98669964D01*
X158980838Y-98671437D01*
X158975143Y-98690942D01*
X158959826Y-98730178D01*
X158937537Y-98782570D01*
X158921893Y-98817645D01*
X158892641Y-98884799D01*
X158865094Y-98952642D01*
X158843737Y-99009966D01*
X158837935Y-99027428D01*
X158821452Y-99074062D01*
X158805340Y-99110095D01*
X158796490Y-99123713D01*
X158776960Y-99132048D01*
X158734334Y-99143863D01*
X158674145Y-99157819D01*
X158601922Y-99172578D01*
X158569600Y-99178645D01*
X158487522Y-99193727D01*
X158408795Y-99208331D01*
X158341109Y-99221020D01*
X158292160Y-99230358D01*
X158282943Y-99232161D01*
X158206743Y-99247201D01*
X158206743Y-99564508D01*
X158206914Y-99668846D01*
X158207616Y-99747787D01*
X158209134Y-99804962D01*
X158211749Y-99844001D01*
X158215746Y-99868535D01*
X158221409Y-99882195D01*
X158229020Y-99888611D01*
X158232143Y-99889801D01*
X158250978Y-99894020D01*
X158292588Y-99902438D01*
X158351630Y-99914039D01*
X158422757Y-99927805D01*
X158500625Y-99942720D01*
X158579887Y-99957768D01*
X158655198Y-99971931D01*
X158721213Y-99984194D01*
X158772587Y-99993539D01*
X158803975Y-99998950D01*
X158810959Y-99999886D01*
X158817285Y-100012404D01*
X158831290Y-100045754D01*
X158850355Y-100093623D01*
X158857634Y-100112371D01*
X158886996Y-100184805D01*
X158921571Y-100264830D01*
X158952537Y-100332272D01*
X158975323Y-100383841D01*
X158990482Y-100426215D01*
X158995542Y-100452166D01*
X158994736Y-100455644D01*
X158984041Y-100472064D01*
X158959620Y-100508583D01*
X158924095Y-100561313D01*
X158880087Y-100626365D01*
X158830217Y-100699849D01*
X158820356Y-100714355D01*
X158762492Y-100800296D01*
X158719956Y-100865739D01*
X158691054Y-100913696D01*
X158674090Y-100947180D01*
X158667367Y-100969205D01*
X158669190Y-100982783D01*
X158669236Y-100982869D01*
X158683586Y-101000703D01*
X158715323Y-101035183D01*
X158761010Y-101082732D01*
X158817204Y-101139778D01*
X158880468Y-101202745D01*
X158887602Y-101209773D01*
X158967330Y-101286980D01*
X159028857Y-101343670D01*
X159073421Y-101380890D01*
X159102257Y-101399685D01*
X159114958Y-101402111D01*
X159133494Y-101391529D01*
X159171961Y-101367084D01*
X159226386Y-101331388D01*
X159292798Y-101287053D01*
X159367225Y-101236689D01*
X159384601Y-101224840D01*
X159631297Y-101056374D01*
X159742706Y-101106938D01*
X159810457Y-101136405D01*
X159883183Y-101166041D01*
X159945703Y-101189670D01*
X159948457Y-101190642D01*
X159997360Y-101208543D01*
X160035057Y-101223680D01*
X160053425Y-101232790D01*
X160053456Y-101232816D01*
X160059285Y-101249283D01*
X160069192Y-101289781D01*
X160082195Y-101349758D01*
X160097309Y-101424660D01*
X160113552Y-101509936D01*
X160114881Y-101517125D01*
X160131175Y-101604986D01*
X160146133Y-101684740D01*
X160158791Y-101751319D01*
X160168186Y-101799653D01*
X160173354Y-101824675D01*
X160173444Y-101825057D01*
X160176589Y-101835701D01*
X160182704Y-101843738D01*
X160195453Y-101849533D01*
X160218500Y-101853453D01*
X160255509Y-101855865D01*
X160310144Y-101857135D01*
X160386067Y-101857629D01*
X160486944Y-101857714D01*
X160500000Y-101857714D01*
X160603910Y-101857652D01*
G36*
X163653595Y-97133034D02*
G01*
X163711021Y-97095503D01*
X163738719Y-97061904D01*
X163760662Y-97000936D01*
X163762405Y-96952692D01*
X163758457Y-96888184D01*
X163609686Y-96823066D01*
X163537349Y-96789798D01*
X163490084Y-96763036D01*
X163465507Y-96739856D01*
X163461237Y-96717333D01*
X163474889Y-96692545D01*
X163489943Y-96676114D01*
X163533746Y-96649765D01*
X163581389Y-96647919D01*
X163625145Y-96668454D01*
X163657289Y-96709248D01*
X163663038Y-96723653D01*
X163690576Y-96768644D01*
X163722258Y-96787818D01*
X163765714Y-96804221D01*
X163765714Y-96742034D01*
X163761872Y-96699717D01*
X163746823Y-96664031D01*
X163715280Y-96623057D01*
X163710592Y-96617733D01*
X163675506Y-96581280D01*
X163645347Y-96561717D01*
X163607615Y-96552717D01*
X163576335Y-96549770D01*
X163520385Y-96549035D01*
X163480555Y-96558340D01*
X163455708Y-96572154D01*
X163416656Y-96602533D01*
X163389625Y-96635387D01*
X163372517Y-96676706D01*
X163363238Y-96732479D01*
X163359693Y-96808695D01*
X163359410Y-96847378D01*
X163360372Y-96893753D01*
X163448007Y-96893753D01*
X163449023Y-96868874D01*
X163451556Y-96864800D01*
X163468274Y-96870335D01*
X163504249Y-96884983D01*
X163552331Y-96905810D01*
X163562386Y-96910286D01*
X163623152Y-96941186D01*
X163656632Y-96968343D01*
X163663990Y-96993780D01*
X163646391Y-97019519D01*
X163631856Y-97030891D01*
X163579410Y-97053636D01*
X163530322Y-97049878D01*
X163489227Y-97022116D01*
X163460758Y-96972848D01*
X163451631Y-96933743D01*
X163448007Y-96893753D01*
X163360372Y-96893753D01*
X163361285Y-96937751D01*
X163368196Y-97004616D01*
X163381884Y-97053305D01*
X163404096Y-97089151D01*
X163436574Y-97117487D01*
X163450733Y-97126645D01*
X163515053Y-97150493D01*
X163585473Y-97151994D01*
X163653595Y-97133034D01*
G37*
X163653595Y-97133034D02*
X163711021Y-97095503D01*
X163738719Y-97061904D01*
X163760662Y-97000936D01*
X163762405Y-96952692D01*
X163758457Y-96888184D01*
X163609686Y-96823066D01*
X163537349Y-96789798D01*
X163490084Y-96763036D01*
X163465507Y-96739856D01*
X163461237Y-96717333D01*
X163474889Y-96692545D01*
X163489943Y-96676114D01*
X163533746Y-96649765D01*
X163581389Y-96647919D01*
X163625145Y-96668454D01*
X163657289Y-96709248D01*
X163663038Y-96723653D01*
X163690576Y-96768644D01*
X163722258Y-96787818D01*
X163765714Y-96804221D01*
X163765714Y-96742034D01*
X163761872Y-96699717D01*
X163746823Y-96664031D01*
X163715280Y-96623057D01*
X163710592Y-96617733D01*
X163675506Y-96581280D01*
X163645347Y-96561717D01*
X163607615Y-96552717D01*
X163576335Y-96549770D01*
X163520385Y-96549035D01*
X163480555Y-96558340D01*
X163455708Y-96572154D01*
X163416656Y-96602533D01*
X163389625Y-96635387D01*
X163372517Y-96676706D01*
X163363238Y-96732479D01*
X163359693Y-96808695D01*
X163359410Y-96847378D01*
X163360372Y-96893753D01*
X163448007Y-96893753D01*
X163449023Y-96868874D01*
X163451556Y-96864800D01*
X163468274Y-96870335D01*
X163504249Y-96884983D01*
X163552331Y-96905810D01*
X163562386Y-96910286D01*
X163623152Y-96941186D01*
X163656632Y-96968343D01*
X163663990Y-96993780D01*
X163646391Y-97019519D01*
X163631856Y-97030891D01*
X163579410Y-97053636D01*
X163530322Y-97049878D01*
X163489227Y-97022116D01*
X163460758Y-96972848D01*
X163451631Y-96933743D01*
X163448007Y-96893753D01*
X163360372Y-96893753D01*
X163361285Y-96937751D01*
X163368196Y-97004616D01*
X163381884Y-97053305D01*
X163404096Y-97089151D01*
X163436574Y-97117487D01*
X163450733Y-97126645D01*
X163515053Y-97150493D01*
X163585473Y-97151994D01*
X163653595Y-97133034D01*
G36*
X163152600Y-97141248D02*
G01*
X163169948Y-97133666D01*
X163211356Y-97100872D01*
X163246765Y-97053453D01*
X163268664Y-97002849D01*
X163272229Y-96977902D01*
X163260279Y-96943073D01*
X163234067Y-96924643D01*
X163205964Y-96913484D01*
X163193095Y-96911428D01*
X163186829Y-96926351D01*
X163174456Y-96958825D01*
X163169028Y-96973498D01*
X163138590Y-97024256D01*
X163094520Y-97049573D01*
X163038010Y-97048794D01*
X163033825Y-97047797D01*
X163003655Y-97033493D01*
X162981476Y-97005607D01*
X162966327Y-96960713D01*
X162957250Y-96895385D01*
X162953286Y-96806196D01*
X162952914Y-96758739D01*
X162952730Y-96683929D01*
X162951522Y-96632931D01*
X162948309Y-96600529D01*
X162942109Y-96581505D01*
X162931940Y-96570644D01*
X162916819Y-96562728D01*
X162915946Y-96562330D01*
X162886828Y-96550019D01*
X162872403Y-96545486D01*
X162870186Y-96559191D01*
X162868289Y-96597075D01*
X162866847Y-96654285D01*
X162865998Y-96725973D01*
X162865829Y-96778435D01*
X162866692Y-96879953D01*
X162870070Y-96956968D01*
X162877142Y-97013977D01*
X162889088Y-97055474D01*
X162907090Y-97085957D01*
X162932327Y-97109920D01*
X162957247Y-97126645D01*
X163017171Y-97148903D01*
X163086911Y-97153924D01*
X163152600Y-97141248D01*
G37*
X163152600Y-97141248D02*
X163169948Y-97133666D01*
X163211356Y-97100872D01*
X163246765Y-97053453D01*
X163268664Y-97002849D01*
X163272229Y-96977902D01*
X163260279Y-96943073D01*
X163234067Y-96924643D01*
X163205964Y-96913484D01*
X163193095Y-96911428D01*
X163186829Y-96926351D01*
X163174456Y-96958825D01*
X163169028Y-96973498D01*
X163138590Y-97024256D01*
X163094520Y-97049573D01*
X163038010Y-97048794D01*
X163033825Y-97047797D01*
X163003655Y-97033493D01*
X162981476Y-97005607D01*
X162966327Y-96960713D01*
X162957250Y-96895385D01*
X162953286Y-96806196D01*
X162952914Y-96758739D01*
X162952730Y-96683929D01*
X162951522Y-96632931D01*
X162948309Y-96600529D01*
X162942109Y-96581505D01*
X162931940Y-96570644D01*
X162916819Y-96562728D01*
X162915946Y-96562330D01*
X162886828Y-96550019D01*
X162872403Y-96545486D01*
X162870186Y-96559191D01*
X162868289Y-96597075D01*
X162866847Y-96654285D01*
X162865998Y-96725973D01*
X162865829Y-96778435D01*
X162866692Y-96879953D01*
X162870070Y-96956968D01*
X162877142Y-97013977D01*
X162889088Y-97055474D01*
X162907090Y-97085957D01*
X162932327Y-97109920D01*
X162957247Y-97126645D01*
X163017171Y-97148903D01*
X163086911Y-97153924D01*
X163152600Y-97141248D01*
G36*
X162644876Y-97143665D02*
G01*
X162686667Y-97124656D01*
X162719469Y-97101622D01*
X162743503Y-97075867D01*
X162760097Y-97042642D01*
X162770577Y-96997200D01*
X162776271Y-96934793D01*
X162778507Y-96850673D01*
X162778743Y-96795279D01*
X162778743Y-96579174D01*
X162741774Y-96562330D01*
X162712656Y-96550019D01*
X162698231Y-96545486D01*
X162695472Y-96558975D01*
X162693282Y-96595347D01*
X162691942Y-96648458D01*
X162691657Y-96690628D01*
X162690434Y-96751553D01*
X162687136Y-96799885D01*
X162682321Y-96829482D01*
X162678496Y-96835771D01*
X162652783Y-96829348D01*
X162612418Y-96812875D01*
X162565679Y-96790542D01*
X162520845Y-96766543D01*
X162486193Y-96745070D01*
X162470002Y-96730315D01*
X162469938Y-96730155D01*
X162471330Y-96702848D01*
X162483818Y-96676781D01*
X162505743Y-96655608D01*
X162537743Y-96648526D01*
X162565092Y-96649351D01*
X162603826Y-96649958D01*
X162624158Y-96640884D01*
X162636369Y-96616908D01*
X162637909Y-96612387D01*
X162643203Y-96578194D01*
X162629047Y-96557432D01*
X162592148Y-96547538D01*
X162552289Y-96545708D01*
X162480562Y-96559273D01*
X162443432Y-96578645D01*
X162397576Y-96624155D01*
X162373256Y-96680017D01*
X162371073Y-96739043D01*
X162391629Y-96794047D01*
X162422549Y-96828514D01*
X162453420Y-96847811D01*
X162501942Y-96872241D01*
X162558485Y-96897015D01*
X162567910Y-96900801D01*
X162630019Y-96928209D01*
X162665822Y-96952366D01*
X162677337Y-96976381D01*
X162666580Y-97003365D01*
X162648114Y-97024457D01*
X162604469Y-97050428D01*
X162556446Y-97052376D01*
X162512406Y-97032363D01*
X162480709Y-96992449D01*
X162476549Y-96982152D01*
X162452327Y-96944276D01*
X162416965Y-96916158D01*
X162372343Y-96893083D01*
X162372343Y-96958515D01*
X162374969Y-96998494D01*
X162386230Y-97030003D01*
X162411199Y-97063622D01*
X162435169Y-97089516D01*
X162472441Y-97126183D01*
X162501401Y-97145879D01*
X162532505Y-97153780D01*
X162567713Y-97155086D01*
X162644876Y-97143665D01*
G37*
X162644876Y-97143665D02*
X162686667Y-97124656D01*
X162719469Y-97101622D01*
X162743503Y-97075867D01*
X162760097Y-97042642D01*
X162770577Y-96997200D01*
X162776271Y-96934793D01*
X162778507Y-96850673D01*
X162778743Y-96795279D01*
X162778743Y-96579174D01*
X162741774Y-96562330D01*
X162712656Y-96550019D01*
X162698231Y-96545486D01*
X162695472Y-96558975D01*
X162693282Y-96595347D01*
X162691942Y-96648458D01*
X162691657Y-96690628D01*
X162690434Y-96751553D01*
X162687136Y-96799885D01*
X162682321Y-96829482D01*
X162678496Y-96835771D01*
X162652783Y-96829348D01*
X162612418Y-96812875D01*
X162565679Y-96790542D01*
X162520845Y-96766543D01*
X162486193Y-96745070D01*
X162470002Y-96730315D01*
X162469938Y-96730155D01*
X162471330Y-96702848D01*
X162483818Y-96676781D01*
X162505743Y-96655608D01*
X162537743Y-96648526D01*
X162565092Y-96649351D01*
X162603826Y-96649958D01*
X162624158Y-96640884D01*
X162636369Y-96616908D01*
X162637909Y-96612387D01*
X162643203Y-96578194D01*
X162629047Y-96557432D01*
X162592148Y-96547538D01*
X162552289Y-96545708D01*
X162480562Y-96559273D01*
X162443432Y-96578645D01*
X162397576Y-96624155D01*
X162373256Y-96680017D01*
X162371073Y-96739043D01*
X162391629Y-96794047D01*
X162422549Y-96828514D01*
X162453420Y-96847811D01*
X162501942Y-96872241D01*
X162558485Y-96897015D01*
X162567910Y-96900801D01*
X162630019Y-96928209D01*
X162665822Y-96952366D01*
X162677337Y-96976381D01*
X162666580Y-97003365D01*
X162648114Y-97024457D01*
X162604469Y-97050428D01*
X162556446Y-97052376D01*
X162512406Y-97032363D01*
X162480709Y-96992449D01*
X162476549Y-96982152D01*
X162452327Y-96944276D01*
X162416965Y-96916158D01*
X162372343Y-96893083D01*
X162372343Y-96958515D01*
X162374969Y-96998494D01*
X162386230Y-97030003D01*
X162411199Y-97063622D01*
X162435169Y-97089516D01*
X162472441Y-97126183D01*
X162501401Y-97145879D01*
X162532505Y-97153780D01*
X162567713Y-97155086D01*
X162644876Y-97143665D01*
G36*
X162279833Y-97141337D02*
G01*
X162282048Y-97103150D01*
X162283784Y-97045114D01*
X162284899Y-96971820D01*
X162285257Y-96894945D01*
X162285257Y-96634804D01*
X162239326Y-96588873D01*
X162207675Y-96560571D01*
X162179890Y-96549107D01*
X162141915Y-96549832D01*
X162126840Y-96551679D01*
X162079726Y-96557052D01*
X162040756Y-96560131D01*
X162031257Y-96560415D01*
X161999233Y-96558555D01*
X161953432Y-96553886D01*
X161935674Y-96551679D01*
X161892057Y-96548265D01*
X161862745Y-96555680D01*
X161833680Y-96578573D01*
X161823188Y-96588873D01*
X161777257Y-96634804D01*
X161777257Y-97121398D01*
X161814226Y-97138242D01*
X161846059Y-97150718D01*
X161864683Y-97155086D01*
X161869458Y-97141282D01*
X161873921Y-97102714D01*
X161877775Y-97043644D01*
X161880722Y-96968337D01*
X161882143Y-96904714D01*
X161886114Y-96654343D01*
X161920759Y-96649444D01*
X161952268Y-96652869D01*
X161967708Y-96663959D01*
X161972023Y-96684692D01*
X161975708Y-96728855D01*
X161978469Y-96790854D01*
X161980012Y-96865091D01*
X161980235Y-96903294D01*
X161980457Y-97123217D01*
X162026166Y-97139151D01*
X162058518Y-97149985D01*
X162076115Y-97155038D01*
X162076623Y-97155086D01*
X162078388Y-97141352D01*
X162080329Y-97103270D01*
X162082282Y-97045518D01*
X162084084Y-96972773D01*
X162085343Y-96904714D01*
X162089314Y-96654343D01*
X162176400Y-96654343D01*
X162180396Y-96882760D01*
X162184392Y-97111178D01*
X162226847Y-97133132D01*
X162258192Y-97148207D01*
X162276744Y-97155049D01*
X162277279Y-97155086D01*
X162279833Y-97141337D01*
G37*
X162279833Y-97141337D02*
X162282048Y-97103150D01*
X162283784Y-97045114D01*
X162284899Y-96971820D01*
X162285257Y-96894945D01*
X162285257Y-96634804D01*
X162239326Y-96588873D01*
X162207675Y-96560571D01*
X162179890Y-96549107D01*
X162141915Y-96549832D01*
X162126840Y-96551679D01*
X162079726Y-96557052D01*
X162040756Y-96560131D01*
X162031257Y-96560415D01*
X161999233Y-96558555D01*
X161953432Y-96553886D01*
X161935674Y-96551679D01*
X161892057Y-96548265D01*
X161862745Y-96555680D01*
X161833680Y-96578573D01*
X161823188Y-96588873D01*
X161777257Y-96634804D01*
X161777257Y-97121398D01*
X161814226Y-97138242D01*
X161846059Y-97150718D01*
X161864683Y-97155086D01*
X161869458Y-97141282D01*
X161873921Y-97102714D01*
X161877775Y-97043644D01*
X161880722Y-96968337D01*
X161882143Y-96904714D01*
X161886114Y-96654343D01*
X161920759Y-96649444D01*
X161952268Y-96652869D01*
X161967708Y-96663959D01*
X161972023Y-96684692D01*
X161975708Y-96728855D01*
X161978469Y-96790854D01*
X161980012Y-96865091D01*
X161980235Y-96903294D01*
X161980457Y-97123217D01*
X162026166Y-97139151D01*
X162058518Y-97149985D01*
X162076115Y-97155038D01*
X162076623Y-97155086D01*
X162078388Y-97141352D01*
X162080329Y-97103270D01*
X162082282Y-97045518D01*
X162084084Y-96972773D01*
X162085343Y-96904714D01*
X162089314Y-96654343D01*
X162176400Y-96654343D01*
X162180396Y-96882760D01*
X162184392Y-97111178D01*
X162226847Y-97133132D01*
X162258192Y-97148207D01*
X162276744Y-97155049D01*
X162277279Y-97155086D01*
X162279833Y-97141337D01*
G36*
X161690117Y-97034642D02*
G01*
X161689933Y-96926163D01*
X161689219Y-96842713D01*
X161687675Y-96780296D01*
X161685001Y-96734915D01*
X161680894Y-96702571D01*
X161675055Y-96679267D01*
X161667182Y-96661005D01*
X161661221Y-96650582D01*
X161611855Y-96594055D01*
X161549264Y-96558623D01*
X161480013Y-96545910D01*
X161410668Y-96557537D01*
X161369375Y-96578432D01*
X161326025Y-96614578D01*
X161296481Y-96658724D01*
X161278655Y-96716538D01*
X161270463Y-96793687D01*
X161269302Y-96850286D01*
X161269458Y-96854353D01*
X161370857Y-96854353D01*
X161371476Y-96789450D01*
X161374314Y-96746486D01*
X161380840Y-96718378D01*
X161392523Y-96698047D01*
X161406483Y-96682712D01*
X161453365Y-96653110D01*
X161503701Y-96650581D01*
X161551276Y-96675295D01*
X161554979Y-96678644D01*
X161570783Y-96696065D01*
X161580693Y-96716791D01*
X161586058Y-96747638D01*
X161588228Y-96795423D01*
X161588571Y-96848252D01*
X161587827Y-96914619D01*
X161584748Y-96958894D01*
X161578061Y-96987991D01*
X161566496Y-97008827D01*
X161557013Y-97019893D01*
X161512960Y-97047802D01*
X161462224Y-97051157D01*
X161413796Y-97029841D01*
X161404450Y-97021927D01*
X161388540Y-97004353D01*
X161378610Y-96983413D01*
X161373278Y-96952218D01*
X161371163Y-96903878D01*
X161370857Y-96854353D01*
X161269458Y-96854353D01*
X161272810Y-96941432D01*
X161284726Y-97009914D01*
X161307135Y-97061400D01*
X161342124Y-97101557D01*
X161369375Y-97122139D01*
X161418907Y-97144375D01*
X161476316Y-97154696D01*
X161529682Y-97151933D01*
X161559543Y-97140788D01*
X161571261Y-97137617D01*
X161579037Y-97149443D01*
X161584465Y-97181134D01*
X161588571Y-97229407D01*
X161593067Y-97283171D01*
X161599313Y-97315518D01*
X161610676Y-97334015D01*
X161630528Y-97346230D01*
X161643000Y-97351638D01*
X161690171Y-97371399D01*
X161690117Y-97034642D01*
G37*
X161690117Y-97034642D02*
X161689933Y-96926163D01*
X161689219Y-96842713D01*
X161687675Y-96780296D01*
X161685001Y-96734915D01*
X161680894Y-96702571D01*
X161675055Y-96679267D01*
X161667182Y-96661005D01*
X161661221Y-96650582D01*
X161611855Y-96594055D01*
X161549264Y-96558623D01*
X161480013Y-96545910D01*
X161410668Y-96557537D01*
X161369375Y-96578432D01*
X161326025Y-96614578D01*
X161296481Y-96658724D01*
X161278655Y-96716538D01*
X161270463Y-96793687D01*
X161269302Y-96850286D01*
X161269458Y-96854353D01*
X161370857Y-96854353D01*
X161371476Y-96789450D01*
X161374314Y-96746486D01*
X161380840Y-96718378D01*
X161392523Y-96698047D01*
X161406483Y-96682712D01*
X161453365Y-96653110D01*
X161503701Y-96650581D01*
X161551276Y-96675295D01*
X161554979Y-96678644D01*
X161570783Y-96696065D01*
X161580693Y-96716791D01*
X161586058Y-96747638D01*
X161588228Y-96795423D01*
X161588571Y-96848252D01*
X161587827Y-96914619D01*
X161584748Y-96958894D01*
X161578061Y-96987991D01*
X161566496Y-97008827D01*
X161557013Y-97019893D01*
X161512960Y-97047802D01*
X161462224Y-97051157D01*
X161413796Y-97029841D01*
X161404450Y-97021927D01*
X161388540Y-97004353D01*
X161378610Y-96983413D01*
X161373278Y-96952218D01*
X161371163Y-96903878D01*
X161370857Y-96854353D01*
X161269458Y-96854353D01*
X161272810Y-96941432D01*
X161284726Y-97009914D01*
X161307135Y-97061400D01*
X161342124Y-97101557D01*
X161369375Y-97122139D01*
X161418907Y-97144375D01*
X161476316Y-97154696D01*
X161529682Y-97151933D01*
X161559543Y-97140788D01*
X161571261Y-97137617D01*
X161579037Y-97149443D01*
X161584465Y-97181134D01*
X161588571Y-97229407D01*
X161593067Y-97283171D01*
X161599313Y-97315518D01*
X161610676Y-97334015D01*
X161630528Y-97346230D01*
X161643000Y-97351638D01*
X161690171Y-97371399D01*
X161690117Y-97034642D01*
G36*
X161029926Y-97150245D02*
G01*
X161095858Y-97125916D01*
X161149273Y-97082883D01*
X161170164Y-97052591D01*
X161192939Y-96997006D01*
X161192466Y-96956814D01*
X161168562Y-96929783D01*
X161159717Y-96925187D01*
X161121530Y-96910856D01*
X161102028Y-96914528D01*
X161095422Y-96938593D01*
X161095086Y-96951886D01*
X161082992Y-97000790D01*
X161051471Y-97035001D01*
X161007659Y-97051524D01*
X160958695Y-97047366D01*
X160918894Y-97025773D01*
X160905450Y-97013456D01*
X160895921Y-96998513D01*
X160889485Y-96975925D01*
X160885317Y-96940672D01*
X160882597Y-96887734D01*
X160880502Y-96812093D01*
X160879960Y-96788143D01*
X160877981Y-96706210D01*
X160875731Y-96648545D01*
X160872357Y-96610392D01*
X160867006Y-96586996D01*
X160858824Y-96573602D01*
X160846959Y-96565455D01*
X160839362Y-96561856D01*
X160807102Y-96549548D01*
X160788111Y-96545486D01*
X160781836Y-96559052D01*
X160778006Y-96600066D01*
X160776600Y-96669001D01*
X160777598Y-96766331D01*
X160777908Y-96781343D01*
X160780101Y-96870141D01*
X160782693Y-96934981D01*
X160786382Y-96980933D01*
X160791864Y-97013065D01*
X160799835Y-97036447D01*
X160810993Y-97056148D01*
X160816830Y-97064590D01*
X160850296Y-97101943D01*
X160887727Y-97130997D01*
X160892309Y-97133533D01*
X160959426Y-97153557D01*
X161029926Y-97150245D01*
G37*
X161029926Y-97150245D02*
X161095858Y-97125916D01*
X161149273Y-97082883D01*
X161170164Y-97052591D01*
X161192939Y-96997006D01*
X161192466Y-96956814D01*
X161168562Y-96929783D01*
X161159717Y-96925187D01*
X161121530Y-96910856D01*
X161102028Y-96914528D01*
X161095422Y-96938593D01*
X161095086Y-96951886D01*
X161082992Y-97000790D01*
X161051471Y-97035001D01*
X161007659Y-97051524D01*
X160958695Y-97047366D01*
X160918894Y-97025773D01*
X160905450Y-97013456D01*
X160895921Y-96998513D01*
X160889485Y-96975925D01*
X160885317Y-96940672D01*
X160882597Y-96887734D01*
X160880502Y-96812093D01*
X160879960Y-96788143D01*
X160877981Y-96706210D01*
X160875731Y-96648545D01*
X160872357Y-96610392D01*
X160867006Y-96586996D01*
X160858824Y-96573602D01*
X160846959Y-96565455D01*
X160839362Y-96561856D01*
X160807102Y-96549548D01*
X160788111Y-96545486D01*
X160781836Y-96559052D01*
X160778006Y-96600066D01*
X160776600Y-96669001D01*
X160777598Y-96766331D01*
X160777908Y-96781343D01*
X160780101Y-96870141D01*
X160782693Y-96934981D01*
X160786382Y-96980933D01*
X160791864Y-97013065D01*
X160799835Y-97036447D01*
X160810993Y-97056148D01*
X160816830Y-97064590D01*
X160850296Y-97101943D01*
X160887727Y-97130997D01*
X160892309Y-97133533D01*
X160959426Y-97153557D01*
X161029926Y-97150245D01*
G36*
X160539744Y-97149032D02*
G01*
X160596616Y-97127913D01*
X160597267Y-97127507D01*
X160632440Y-97101620D01*
X160658407Y-97071367D01*
X160676670Y-97031942D01*
X160688732Y-96978538D01*
X160696096Y-96906349D01*
X160700264Y-96810568D01*
X160700629Y-96796922D01*
X160705876Y-96591158D01*
X160661716Y-96568322D01*
X160629763Y-96552890D01*
X160610470Y-96545577D01*
X160609578Y-96545486D01*
X160606239Y-96558978D01*
X160603587Y-96595374D01*
X160601956Y-96648548D01*
X160601600Y-96691607D01*
X160601592Y-96761359D01*
X160598403Y-96805163D01*
X160587288Y-96826056D01*
X160563501Y-96827075D01*
X160522296Y-96811259D01*
X160460086Y-96782185D01*
X160414341Y-96758037D01*
X160390813Y-96737087D01*
X160383896Y-96714253D01*
X160383886Y-96713123D01*
X160395299Y-96673788D01*
X160429092Y-96652538D01*
X160480809Y-96649461D01*
X160518061Y-96649994D01*
X160537703Y-96639265D01*
X160549952Y-96613495D01*
X160557002Y-96580663D01*
X160546842Y-96562034D01*
X160543017Y-96559368D01*
X160507001Y-96548660D01*
X160456566Y-96547144D01*
X160404626Y-96554241D01*
X160367822Y-96567212D01*
X160316938Y-96610415D01*
X160288014Y-96670554D01*
X160282286Y-96717538D01*
X160286657Y-96759918D01*
X160302475Y-96794512D01*
X160333797Y-96825237D01*
X160384678Y-96856010D01*
X160459176Y-96890748D01*
X160463714Y-96892712D01*
X160530821Y-96923713D01*
X160572232Y-96949138D01*
X160589981Y-96971986D01*
X160586107Y-96995255D01*
X160562643Y-97021944D01*
X160555627Y-97028086D01*
X160508630Y-97051900D01*
X160459933Y-97050897D01*
X160417522Y-97027549D01*
X160389384Y-96984325D01*
X160386769Y-96975840D01*
X160361308Y-96934692D01*
X160329001Y-96914872D01*
X160282286Y-96895230D01*
X160282286Y-96946050D01*
X160296496Y-97019918D01*
X160338675Y-97087673D01*
X160360624Y-97110339D01*
X160410517Y-97139431D01*
X160473967Y-97152600D01*
X160539744Y-97149032D01*
G37*
X160539744Y-97149032D02*
X160596616Y-97127913D01*
X160597267Y-97127507D01*
X160632440Y-97101620D01*
X160658407Y-97071367D01*
X160676670Y-97031942D01*
X160688732Y-96978538D01*
X160696096Y-96906349D01*
X160700264Y-96810568D01*
X160700629Y-96796922D01*
X160705876Y-96591158D01*
X160661716Y-96568322D01*
X160629763Y-96552890D01*
X160610470Y-96545577D01*
X160609578Y-96545486D01*
X160606239Y-96558978D01*
X160603587Y-96595374D01*
X160601956Y-96648548D01*
X160601600Y-96691607D01*
X160601592Y-96761359D01*
X160598403Y-96805163D01*
X160587288Y-96826056D01*
X160563501Y-96827075D01*
X160522296Y-96811259D01*
X160460086Y-96782185D01*
X160414341Y-96758037D01*
X160390813Y-96737087D01*
X160383896Y-96714253D01*
X160383886Y-96713123D01*
X160395299Y-96673788D01*
X160429092Y-96652538D01*
X160480809Y-96649461D01*
X160518061Y-96649994D01*
X160537703Y-96639265D01*
X160549952Y-96613495D01*
X160557002Y-96580663D01*
X160546842Y-96562034D01*
X160543017Y-96559368D01*
X160507001Y-96548660D01*
X160456566Y-96547144D01*
X160404626Y-96554241D01*
X160367822Y-96567212D01*
X160316938Y-96610415D01*
X160288014Y-96670554D01*
X160282286Y-96717538D01*
X160286657Y-96759918D01*
X160302475Y-96794512D01*
X160333797Y-96825237D01*
X160384678Y-96856010D01*
X160459176Y-96890748D01*
X160463714Y-96892712D01*
X160530821Y-96923713D01*
X160572232Y-96949138D01*
X160589981Y-96971986D01*
X160586107Y-96995255D01*
X160562643Y-97021944D01*
X160555627Y-97028086D01*
X160508630Y-97051900D01*
X160459933Y-97050897D01*
X160417522Y-97027549D01*
X160389384Y-96984325D01*
X160386769Y-96975840D01*
X160361308Y-96934692D01*
X160329001Y-96914872D01*
X160282286Y-96895230D01*
X160282286Y-96946050D01*
X160296496Y-97019918D01*
X160338675Y-97087673D01*
X160360624Y-97110339D01*
X160410517Y-97139431D01*
X160473967Y-97152600D01*
X160539744Y-97149032D01*
G36*
X159875886Y-97248711D02*
G01*
X159880139Y-97189387D01*
X159885025Y-97154428D01*
X159891795Y-97139180D01*
X159901702Y-97138985D01*
X159904914Y-97140805D01*
X159947644Y-97153985D01*
X160003227Y-97153215D01*
X160059737Y-97139667D01*
X160095082Y-97122139D01*
X160131321Y-97094139D01*
X160157813Y-97062451D01*
X160175999Y-97022187D01*
X160187322Y-96968457D01*
X160193222Y-96896374D01*
X160195143Y-96801049D01*
X160195177Y-96782763D01*
X160195200Y-96577354D01*
X160149491Y-96561420D01*
X160117027Y-96550580D01*
X160099215Y-96545532D01*
X160098691Y-96545486D01*
X160096937Y-96559172D01*
X160095444Y-96596924D01*
X160094326Y-96653776D01*
X160093697Y-96724766D01*
X160093600Y-96767927D01*
X160093398Y-96853027D01*
X160092358Y-96914019D01*
X160089831Y-96955823D01*
X160085164Y-96983358D01*
X160077707Y-97001544D01*
X160066811Y-97015302D01*
X160060007Y-97021927D01*
X160013272Y-97048625D01*
X159962272Y-97050625D01*
X159916001Y-97028045D01*
X159907444Y-97019893D01*
X159894893Y-97004564D01*
X159886188Y-96986382D01*
X159880631Y-96960091D01*
X159877526Y-96920438D01*
X159876176Y-96862168D01*
X159875886Y-96781827D01*
X159875886Y-96577354D01*
X159830177Y-96561420D01*
X159797713Y-96550580D01*
X159779901Y-96545532D01*
X159779377Y-96545486D01*
X159778037Y-96559377D01*
X159776828Y-96598561D01*
X159775801Y-96659300D01*
X159775002Y-96737859D01*
X159774481Y-96830502D01*
X159774286Y-96933491D01*
X159774286Y-97330658D01*
X159821457Y-97350556D01*
X159868629Y-97370453D01*
X159875886Y-97248711D01*
G37*
X159875886Y-97248711D02*
X159880139Y-97189387D01*
X159885025Y-97154428D01*
X159891795Y-97139180D01*
X159901702Y-97138985D01*
X159904914Y-97140805D01*
X159947644Y-97153985D01*
X160003227Y-97153215D01*
X160059737Y-97139667D01*
X160095082Y-97122139D01*
X160131321Y-97094139D01*
X160157813Y-97062451D01*
X160175999Y-97022187D01*
X160187322Y-96968457D01*
X160193222Y-96896374D01*
X160195143Y-96801049D01*
X160195177Y-96782763D01*
X160195200Y-96577354D01*
X160149491Y-96561420D01*
X160117027Y-96550580D01*
X160099215Y-96545532D01*
X160098691Y-96545486D01*
X160096937Y-96559172D01*
X160095444Y-96596924D01*
X160094326Y-96653776D01*
X160093697Y-96724766D01*
X160093600Y-96767927D01*
X160093398Y-96853027D01*
X160092358Y-96914019D01*
X160089831Y-96955823D01*
X160085164Y-96983358D01*
X160077707Y-97001544D01*
X160066811Y-97015302D01*
X160060007Y-97021927D01*
X160013272Y-97048625D01*
X159962272Y-97050625D01*
X159916001Y-97028045D01*
X159907444Y-97019893D01*
X159894893Y-97004564D01*
X159886188Y-96986382D01*
X159880631Y-96960091D01*
X159877526Y-96920438D01*
X159876176Y-96862168D01*
X159875886Y-96781827D01*
X159875886Y-96577354D01*
X159830177Y-96561420D01*
X159797713Y-96550580D01*
X159779901Y-96545532D01*
X159779377Y-96545486D01*
X159778037Y-96559377D01*
X159776828Y-96598561D01*
X159775801Y-96659300D01*
X159775002Y-96737859D01*
X159774481Y-96830502D01*
X159774286Y-96933491D01*
X159774286Y-97330658D01*
X159821457Y-97350556D01*
X159868629Y-97370453D01*
X159875886Y-97248711D01*
G36*
X158668303Y-97168761D02*
G01*
X158725527Y-97130265D01*
X158769749Y-97074665D01*
X158796167Y-97003914D01*
X158801510Y-96951838D01*
X158800903Y-96930107D01*
X158795822Y-96913469D01*
X158781855Y-96898563D01*
X158754589Y-96882027D01*
X158709612Y-96860502D01*
X158642511Y-96830626D01*
X158642171Y-96830476D01*
X158580407Y-96802187D01*
X158529759Y-96777067D01*
X158495404Y-96757821D01*
X158482518Y-96747152D01*
X158482514Y-96747066D01*
X158493872Y-96723834D01*
X158520431Y-96698226D01*
X158550923Y-96679779D01*
X158566370Y-96676114D01*
X158608515Y-96688788D01*
X158644808Y-96720529D01*
X158662517Y-96755428D01*
X158679552Y-96781155D01*
X158712922Y-96810454D01*
X158752149Y-96835765D01*
X158786756Y-96849529D01*
X158793993Y-96850286D01*
X158802139Y-96837840D01*
X158802630Y-96806028D01*
X158796643Y-96763134D01*
X158785357Y-96717442D01*
X158769950Y-96677239D01*
X158769171Y-96675678D01*
X158722804Y-96610938D01*
X158662711Y-96566903D01*
X158594465Y-96545289D01*
X158523638Y-96547815D01*
X158455804Y-96576196D01*
X158452788Y-96578192D01*
X158399427Y-96626552D01*
X158364340Y-96689648D01*
X158344922Y-96772613D01*
X158342316Y-96795922D01*
X158337701Y-96905945D01*
X158343233Y-96957252D01*
X158482514Y-96957252D01*
X158484324Y-96925247D01*
X158494222Y-96915907D01*
X158518898Y-96922895D01*
X158557795Y-96939413D01*
X158601275Y-96960119D01*
X158602356Y-96960667D01*
X158639209Y-96980051D01*
X158654000Y-96992987D01*
X158650353Y-97006549D01*
X158634995Y-97024368D01*
X158595923Y-97050155D01*
X158553846Y-97052050D01*
X158516103Y-97033283D01*
X158490034Y-96997085D01*
X158482514Y-96957252D01*
X158343233Y-96957252D01*
X158347194Y-96993973D01*
X158371550Y-97063788D01*
X158405456Y-97112698D01*
X158466653Y-97162122D01*
X158534063Y-97186641D01*
X158602880Y-97188203D01*
X158668303Y-97168761D01*
G37*
X158668303Y-97168761D02*
X158725527Y-97130265D01*
X158769749Y-97074665D01*
X158796167Y-97003914D01*
X158801510Y-96951838D01*
X158800903Y-96930107D01*
X158795822Y-96913469D01*
X158781855Y-96898563D01*
X158754589Y-96882027D01*
X158709612Y-96860502D01*
X158642511Y-96830626D01*
X158642171Y-96830476D01*
X158580407Y-96802187D01*
X158529759Y-96777067D01*
X158495404Y-96757821D01*
X158482518Y-96747152D01*
X158482514Y-96747066D01*
X158493872Y-96723834D01*
X158520431Y-96698226D01*
X158550923Y-96679779D01*
X158566370Y-96676114D01*
X158608515Y-96688788D01*
X158644808Y-96720529D01*
X158662517Y-96755428D01*
X158679552Y-96781155D01*
X158712922Y-96810454D01*
X158752149Y-96835765D01*
X158786756Y-96849529D01*
X158793993Y-96850286D01*
X158802139Y-96837840D01*
X158802630Y-96806028D01*
X158796643Y-96763134D01*
X158785357Y-96717442D01*
X158769950Y-96677239D01*
X158769171Y-96675678D01*
X158722804Y-96610938D01*
X158662711Y-96566903D01*
X158594465Y-96545289D01*
X158523638Y-96547815D01*
X158455804Y-96576196D01*
X158452788Y-96578192D01*
X158399427Y-96626552D01*
X158364340Y-96689648D01*
X158344922Y-96772613D01*
X158342316Y-96795922D01*
X158337701Y-96905945D01*
X158343233Y-96957252D01*
X158482514Y-96957252D01*
X158484324Y-96925247D01*
X158494222Y-96915907D01*
X158518898Y-96922895D01*
X158557795Y-96939413D01*
X158601275Y-96960119D01*
X158602356Y-96960667D01*
X158639209Y-96980051D01*
X158654000Y-96992987D01*
X158650353Y-97006549D01*
X158634995Y-97024368D01*
X158595923Y-97050155D01*
X158553846Y-97052050D01*
X158516103Y-97033283D01*
X158490034Y-96997085D01*
X158482514Y-96957252D01*
X158343233Y-96957252D01*
X158347194Y-96993973D01*
X158371550Y-97063788D01*
X158405456Y-97112698D01*
X158466653Y-97162122D01*
X158534063Y-97186641D01*
X158602880Y-97188203D01*
X158668303Y-97168761D01*
G36*
X157541115Y-97178038D02*
G01*
X157609145Y-97142267D01*
X157659351Y-97084699D01*
X157677185Y-97047688D01*
X157691063Y-96992118D01*
X157698167Y-96921904D01*
X157698840Y-96845273D01*
X157693427Y-96770448D01*
X157682270Y-96705658D01*
X157665714Y-96659127D01*
X157660626Y-96651113D01*
X157600355Y-96591293D01*
X157528769Y-96555465D01*
X157451092Y-96544980D01*
X157372548Y-96561190D01*
X157350689Y-96570908D01*
X157308122Y-96600857D01*
X157270763Y-96640567D01*
X157267232Y-96645603D01*
X157252881Y-96669876D01*
X157243394Y-96695822D01*
X157237790Y-96729978D01*
X157235086Y-96778881D01*
X157234299Y-96849065D01*
X157234286Y-96864800D01*
X157234322Y-96869808D01*
X157379429Y-96869808D01*
X157380273Y-96803570D01*
X157383596Y-96759614D01*
X157390583Y-96731221D01*
X157402416Y-96711675D01*
X157408457Y-96705143D01*
X157443186Y-96680320D01*
X157476903Y-96681452D01*
X157510995Y-96702984D01*
X157531329Y-96725971D01*
X157543371Y-96759522D01*
X157550134Y-96812431D01*
X157550598Y-96818601D01*
X157551752Y-96914487D01*
X157539688Y-96985701D01*
X157514570Y-97031806D01*
X157476560Y-97052365D01*
X157462992Y-97053486D01*
X157427364Y-97047848D01*
X157402994Y-97028314D01*
X157388093Y-96990958D01*
X157380875Y-96931850D01*
X157379429Y-96869808D01*
X157234322Y-96869808D01*
X157234826Y-96939587D01*
X157237096Y-96991841D01*
X157242068Y-97028051D01*
X157250713Y-97054701D01*
X157264005Y-97078278D01*
X157266943Y-97082662D01*
X157316313Y-97141751D01*
X157370109Y-97176053D01*
X157435602Y-97189669D01*
X157457842Y-97190335D01*
X157541115Y-97178038D01*
G37*
X157541115Y-97178038D02*
X157609145Y-97142267D01*
X157659351Y-97084699D01*
X157677185Y-97047688D01*
X157691063Y-96992118D01*
X157698167Y-96921904D01*
X157698840Y-96845273D01*
X157693427Y-96770448D01*
X157682270Y-96705658D01*
X157665714Y-96659127D01*
X157660626Y-96651113D01*
X157600355Y-96591293D01*
X157528769Y-96555465D01*
X157451092Y-96544980D01*
X157372548Y-96561190D01*
X157350689Y-96570908D01*
X157308122Y-96600857D01*
X157270763Y-96640567D01*
X157267232Y-96645603D01*
X157252881Y-96669876D01*
X157243394Y-96695822D01*
X157237790Y-96729978D01*
X157235086Y-96778881D01*
X157234299Y-96849065D01*
X157234286Y-96864800D01*
X157234322Y-96869808D01*
X157379429Y-96869808D01*
X157380273Y-96803570D01*
X157383596Y-96759614D01*
X157390583Y-96731221D01*
X157402416Y-96711675D01*
X157408457Y-96705143D01*
X157443186Y-96680320D01*
X157476903Y-96681452D01*
X157510995Y-96702984D01*
X157531329Y-96725971D01*
X157543371Y-96759522D01*
X157550134Y-96812431D01*
X157550598Y-96818601D01*
X157551752Y-96914487D01*
X157539688Y-96985701D01*
X157514570Y-97031806D01*
X157476560Y-97052365D01*
X157462992Y-97053486D01*
X157427364Y-97047848D01*
X157402994Y-97028314D01*
X157388093Y-96990958D01*
X157380875Y-96931850D01*
X157379429Y-96869808D01*
X157234322Y-96869808D01*
X157234826Y-96939587D01*
X157237096Y-96991841D01*
X157242068Y-97028051D01*
X157250713Y-97054701D01*
X157264005Y-97078278D01*
X157266943Y-97082662D01*
X157316313Y-97141751D01*
X157370109Y-97176053D01*
X157435602Y-97189669D01*
X157457842Y-97190335D01*
X157541115Y-97178038D01*
G36*
X159216093Y-97172220D02*
G01*
X159262672Y-97145277D01*
X159295057Y-97118534D01*
X159318742Y-97090516D01*
X159335059Y-97056252D01*
X159345339Y-97010773D01*
X159350914Y-96949108D01*
X159353116Y-96866289D01*
X159353371Y-96806754D01*
X159353371Y-96587609D01*
X159291686Y-96559956D01*
X159230000Y-96532303D01*
X159222743Y-96772330D01*
X159219744Y-96861972D01*
X159216598Y-96927038D01*
X159212701Y-96971974D01*
X159207447Y-97001230D01*
X159200231Y-97019252D01*
X159190450Y-97030489D01*
X159187312Y-97032921D01*
X159139761Y-97051917D01*
X159091697Y-97044400D01*
X159063086Y-97024457D01*
X159051447Y-97010325D01*
X159043391Y-96991780D01*
X159038271Y-96963666D01*
X159035441Y-96920827D01*
X159034256Y-96858105D01*
X159034057Y-96792739D01*
X159034018Y-96710732D01*
X159032614Y-96652684D01*
X159027914Y-96613535D01*
X159017987Y-96588220D01*
X159000903Y-96571677D01*
X158974732Y-96558844D01*
X158939775Y-96545509D01*
X158901596Y-96530993D01*
X158906141Y-96788611D01*
X158907971Y-96881481D01*
X158910112Y-96950111D01*
X158913181Y-96999289D01*
X158917794Y-97033802D01*
X158924568Y-97058438D01*
X158934119Y-97077984D01*
X158945634Y-97095230D01*
X159001190Y-97150320D01*
X159068980Y-97182178D01*
X159142713Y-97189809D01*
X159216093Y-97172220D01*
G37*
X159216093Y-97172220D02*
X159262672Y-97145277D01*
X159295057Y-97118534D01*
X159318742Y-97090516D01*
X159335059Y-97056252D01*
X159345339Y-97010773D01*
X159350914Y-96949108D01*
X159353116Y-96866289D01*
X159353371Y-96806754D01*
X159353371Y-96587609D01*
X159291686Y-96559956D01*
X159230000Y-96532303D01*
X159222743Y-96772330D01*
X159219744Y-96861972D01*
X159216598Y-96927038D01*
X159212701Y-96971974D01*
X159207447Y-97001230D01*
X159200231Y-97019252D01*
X159190450Y-97030489D01*
X159187312Y-97032921D01*
X159139761Y-97051917D01*
X159091697Y-97044400D01*
X159063086Y-97024457D01*
X159051447Y-97010325D01*
X159043391Y-96991780D01*
X159038271Y-96963666D01*
X159035441Y-96920827D01*
X159034256Y-96858105D01*
X159034057Y-96792739D01*
X159034018Y-96710732D01*
X159032614Y-96652684D01*
X159027914Y-96613535D01*
X159017987Y-96588220D01*
X159000903Y-96571677D01*
X158974732Y-96558844D01*
X158939775Y-96545509D01*
X158901596Y-96530993D01*
X158906141Y-96788611D01*
X158907971Y-96881481D01*
X158910112Y-96950111D01*
X158913181Y-96999289D01*
X158917794Y-97033802D01*
X158924568Y-97058438D01*
X158934119Y-97077984D01*
X158945634Y-97095230D01*
X159001190Y-97150320D01*
X159068980Y-97182178D01*
X159142713Y-97189809D01*
X159216093Y-97172220D01*
G36*
X158099744Y-97180082D02*
G01*
X158155201Y-97152432D01*
X158204148Y-97101520D01*
X158217629Y-97082662D01*
X158232314Y-97057985D01*
X158241842Y-97031184D01*
X158247293Y-96995413D01*
X158249747Y-96943831D01*
X158250286Y-96875733D01*
X158247852Y-96782412D01*
X158239394Y-96712343D01*
X158223174Y-96660069D01*
X158197454Y-96620131D01*
X158160497Y-96587071D01*
X158157782Y-96585114D01*
X158121360Y-96565092D01*
X158077502Y-96555185D01*
X158021724Y-96552743D01*
X157931048Y-96552743D01*
X157931010Y-96464717D01*
X157930166Y-96415692D01*
X157925024Y-96386935D01*
X157911587Y-96369689D01*
X157885858Y-96355192D01*
X157879679Y-96352231D01*
X157850764Y-96338352D01*
X157828376Y-96329586D01*
X157811729Y-96328829D01*
X157800036Y-96338977D01*
X157792510Y-96362927D01*
X157788366Y-96403574D01*
X157786815Y-96463814D01*
X157787071Y-96546545D01*
X157788349Y-96654661D01*
X157788748Y-96687000D01*
X157790185Y-96798476D01*
X157791472Y-96871397D01*
X157930971Y-96871397D01*
X157931755Y-96809501D01*
X157935240Y-96769003D01*
X157943124Y-96742292D01*
X157957105Y-96721756D01*
X157966597Y-96711740D01*
X158005404Y-96682433D01*
X158039763Y-96680048D01*
X158075216Y-96704250D01*
X158076114Y-96705143D01*
X158090539Y-96723847D01*
X158099313Y-96749268D01*
X158103739Y-96788416D01*
X158105118Y-96848303D01*
X158105143Y-96861570D01*
X158101812Y-96944099D01*
X158090969Y-97001309D01*
X158071340Y-97036234D01*
X158041650Y-97051906D01*
X158024491Y-97053486D01*
X157983766Y-97046074D01*
X157955832Y-97021670D01*
X157939017Y-96977020D01*
X157931650Y-96908870D01*
X157930971Y-96871397D01*
X157791472Y-96871397D01*
X157791708Y-96884755D01*
X157793677Y-96949667D01*
X157796450Y-96997042D01*
X157800388Y-97030710D01*
X157805849Y-97054502D01*
X157813192Y-97072247D01*
X157822777Y-97087776D01*
X157826887Y-97093619D01*
X157881405Y-97148815D01*
X157950336Y-97180110D01*
X158030072Y-97188835D01*
X158099744Y-97180082D01*
G37*
X158099744Y-97180082D02*
X158155201Y-97152432D01*
X158204148Y-97101520D01*
X158217629Y-97082662D01*
X158232314Y-97057985D01*
X158241842Y-97031184D01*
X158247293Y-96995413D01*
X158249747Y-96943831D01*
X158250286Y-96875733D01*
X158247852Y-96782412D01*
X158239394Y-96712343D01*
X158223174Y-96660069D01*
X158197454Y-96620131D01*
X158160497Y-96587071D01*
X158157782Y-96585114D01*
X158121360Y-96565092D01*
X158077502Y-96555185D01*
X158021724Y-96552743D01*
X157931048Y-96552743D01*
X157931010Y-96464717D01*
X157930166Y-96415692D01*
X157925024Y-96386935D01*
X157911587Y-96369689D01*
X157885858Y-96355192D01*
X157879679Y-96352231D01*
X157850764Y-96338352D01*
X157828376Y-96329586D01*
X157811729Y-96328829D01*
X157800036Y-96338977D01*
X157792510Y-96362927D01*
X157788366Y-96403574D01*
X157786815Y-96463814D01*
X157787071Y-96546545D01*
X157788349Y-96654661D01*
X157788748Y-96687000D01*
X157790185Y-96798476D01*
X157791472Y-96871397D01*
X157930971Y-96871397D01*
X157931755Y-96809501D01*
X157935240Y-96769003D01*
X157943124Y-96742292D01*
X157957105Y-96721756D01*
X157966597Y-96711740D01*
X158005404Y-96682433D01*
X158039763Y-96680048D01*
X158075216Y-96704250D01*
X158076114Y-96705143D01*
X158090539Y-96723847D01*
X158099313Y-96749268D01*
X158103739Y-96788416D01*
X158105118Y-96848303D01*
X158105143Y-96861570D01*
X158101812Y-96944099D01*
X158090969Y-97001309D01*
X158071340Y-97036234D01*
X158041650Y-97051906D01*
X158024491Y-97053486D01*
X157983766Y-97046074D01*
X157955832Y-97021670D01*
X157939017Y-96977020D01*
X157931650Y-96908870D01*
X157930971Y-96871397D01*
X157791472Y-96871397D01*
X157791708Y-96884755D01*
X157793677Y-96949667D01*
X157796450Y-96997042D01*
X157800388Y-97030710D01*
X157805849Y-97054502D01*
X157813192Y-97072247D01*
X157822777Y-97087776D01*
X157826887Y-97093619D01*
X157881405Y-97148815D01*
X157950336Y-97180110D01*
X158030072Y-97188835D01*
X158099744Y-97180082D01*
%TD*%
M02*
