<?xml version="1.0" encoding="UTF-8" standalone="no"?>
<svg
   xmlns:dc="http://purl.org/dc/elements/1.1/"
   xmlns:cc="http://creativecommons.org/ns#"
   xmlns:rdf="http://www.w3.org/1999/02/22-rdf-syntax-ns#"
   xmlns:svg="http://www.w3.org/2000/svg"
   xmlns="http://www.w3.org/2000/svg"
   xmlns:sodipodi="http://sodipodi.sourceforge.net/DTD/sodipodi-0.dtd"
   xmlns:inkscape="http://www.inkscape.org/namespaces/inkscape"
   sodipodi:docname="on_off.svg"
   inkscape:version="1.0 (1.0+r73+1)"
   id="svg8"
   version="1.1"
   viewBox="0 0 210 297"
   height="297mm"
   width="210mm">
  <defs
     id="defs2" />
  <sodipodi:namedview
     inkscape:window-maximized="1"
     inkscape:window-y="27"
     inkscape:window-x="57"
     inkscape:window-height="713"
     inkscape:window-width="1309"
     showgrid="false"
     inkscape:document-rotation="0"
     inkscape:current-layer="layer1"
     inkscape:document-units="mm"
     inkscape:cy="358.84713"
     inkscape:cx="301.609"
     inkscape:zoom="2.8"
     inkscape:pageshadow="2"
     inkscape:pageopacity="0.0"
     borderopacity="1.0"
     bordercolor="#666666"
     pagecolor="#ffffff"
     id="base" />
  <metadata
     id="metadata5">
    <rdf:RDF>
      <cc:Work
         rdf:about="">
        <dc:format>image/svg+xml</dc:format>
        <dc:type
           rdf:resource="http://purl.org/dc/dcmitype/StillImage" />
        <dc:title />
      </cc:Work>
    </rdf:RDF>
  </metadata>
  <g
     id="layer1"
     inkscape:groupmode="layer"
     inkscape:label="Layer 1">
    <g
       transform="matrix(0,0.22849502,0.33949532,0,31.992259,73.928297)"
       style="font-style:normal;font-weight:normal;font-size:10.5833px;line-height:1.25;font-family:sans-serif;fill:#000000;fill-opacity:1;stroke:none;stroke-width:0.264583"
       id="text47"
       aria-label="ON/OFF">
      <path
         id="path49"
         style="font-style:normal;font-variant:normal;font-weight:bold;font-stretch:normal;font-family:sans-serif;-inkscape-font-specification:'sans-serif Bold';stroke-width:0.264583"
         d="m 89.122437,93.626122 q -0.909502,0 -1.410762,0.671791 -0.501259,0.671792 -0.501259,1.891351 0,1.214393 0.501259,1.886184 0.50126,0.671792 1.410762,0.671792 0.91467,0 1.41593,-0.671792 0.50126,-0.671791 0.50126,-1.886184 0,-1.219559 -0.50126,-1.891351 -0.50126,-0.671791 -1.41593,-0.671791 z m 0,-1.441768 q 1.860346,0 2.914542,1.064531 1.054196,1.064531 1.054196,2.940379 0,1.870681 -1.054196,2.935212 -1.054196,1.064534 -2.914542,1.064534 -1.855178,0 -2.914541,-1.064534 -1.054196,-1.064531 -1.054196,-2.935212 0,-1.875848 1.054196,-2.940379 1.059363,-1.064531 2.914541,-1.064531 z" />
      <path
         id="path51"
         style="font-style:normal;font-variant:normal;font-weight:bold;font-stretch:normal;font-family:sans-serif;-inkscape-font-specification:'sans-serif Bold';stroke-width:0.264583"
         d="m 94.589787,92.32388 h 2.222079 l 2.806021,5.291649 V 92.32388 h 1.886183 v 7.71527 H 99.281992 L 96.47597,94.747497 v 5.291653 h -1.886183 z" />
      <path
         id="path53"
         style="font-style:normal;font-variant:normal;font-weight:bold;font-stretch:normal;font-family:sans-serif;-inkscape-font-specification:'sans-serif Bold';stroke-width:0.264583"
         d="m 105.20409,92.32388 h 1.14721 l -2.72333,8.69712 h -1.14205 z" />
      <path
         id="path55"
         style="font-style:normal;font-variant:normal;font-weight:bold;font-stretch:normal;font-family:sans-serif;-inkscape-font-specification:'sans-serif Bold';stroke-width:0.264583"
         d="m 110.84714,93.626122 q -0.9095,0 -1.41076,0.671791 -0.50126,0.671792 -0.50126,1.891351 0,1.214393 0.50126,1.886184 0.50126,0.671792 1.41076,0.671792 0.91467,0 1.41593,-0.671792 0.50126,-0.671791 0.50126,-1.886184 0,-1.219559 -0.50126,-1.891351 -0.50126,-0.671791 -1.41593,-0.671791 z m 0,-1.441768 q 1.86035,0 2.91454,1.064531 1.0542,1.064531 1.0542,2.940379 0,1.870681 -1.0542,2.935212 -1.05419,1.064534 -2.91454,1.064534 -1.85518,0 -2.91454,-1.064534 -1.0542,-1.064531 -1.0542,-2.935212 0,-1.875848 1.0542,-2.940379 1.05936,-1.064531 2.91454,-1.064531 z" />
      <path
         id="path57"
         style="font-style:normal;font-variant:normal;font-weight:bold;font-stretch:normal;font-family:sans-serif;-inkscape-font-specification:'sans-serif Bold';stroke-width:0.264583"
         d="m 116.31449,92.32388 h 5.36916 v 1.503779 h -3.37962 v 1.4366 h 3.17809 v 1.50378 h -3.17809 v 3.271111 h -1.98954 z" />
      <path
         id="path59"
         style="font-style:normal;font-variant:normal;font-weight:bold;font-stretch:normal;font-family:sans-serif;-inkscape-font-specification:'sans-serif Bold';stroke-width:0.264583"
         d="m 123.54917,92.32388 h 5.36916 v 1.503779 h -3.37963 v 1.4366 h 3.17809 v 1.50378 h -3.17809 v 3.271111 h -1.98953 z" />
    </g>
  </g>
</svg>
