<?xml version="1.0" encoding="UTF-8" standalone="no"?>
<svg
   xmlns:dc="http://purl.org/dc/elements/1.1/"
   xmlns:cc="http://creativecommons.org/ns#"
   xmlns:rdf="http://www.w3.org/1999/02/22-rdf-syntax-ns#"
   xmlns:svg="http://www.w3.org/2000/svg"
   xmlns="http://www.w3.org/2000/svg"
   xmlns:sodipodi="http://sodipodi.sourceforge.net/DTD/sodipodi-0.dtd"
   xmlns:inkscape="http://www.inkscape.org/namespaces/inkscape"
   sodipodi:docname="touchless_frame.svg"
   inkscape:version="1.0 (1.0+r73+1)"
   id="svg8"
   version="1.1"
   viewBox="0 0 210 297"
   height="297mm"
   width="210mm">
  <defs
     id="defs2" />
  <sodipodi:namedview
     inkscape:window-maximized="1"
     inkscape:window-y="27"
     inkscape:window-x="57"
     inkscape:window-height="713"
     inkscape:window-width="1309"
     showgrid="false"
     inkscape:document-rotation="0"
     inkscape:current-layer="layer1"
     inkscape:document-units="mm"
     inkscape:cy="358.17167"
     inkscape:cx="322.07688"
     inkscape:zoom="3.959798"
     inkscape:pageshadow="2"
     inkscape:pageopacity="0.0"
     borderopacity="1.0"
     bordercolor="#666666"
     pagecolor="#ffffff"
     id="base" />
  <metadata
     id="metadata5">
    <rdf:RDF>
      <cc:Work
         rdf:about="">
        <dc:format>image/svg+xml</dc:format>
        <dc:type
           rdf:resource="http://purl.org/dc/dcmitype/StillImage" />
        <dc:title />
      </cc:Work>
    </rdf:RDF>
  </metadata>
  <g
     id="layer1"
     inkscape:groupmode="layer"
     inkscape:label="Layer 1">
    <g
       style="font-style:normal;font-variant:normal;font-weight:600;font-stretch:normal;font-size:5.03063px;line-height:1.25;font-family:FreeSans;-inkscape-font-specification:'FreeSans Semi-Bold';text-align:end;text-anchor:end;stroke-width:0.125767"
       id="text12"
       transform="matrix(0,0.72513591,0.99291821,0,-6.1077775e-5,157.235)"
       aria-label="Touchless Frame">
      <path
         id="path34"
         style="font-style:normal;font-variant:normal;font-weight:600;font-stretch:normal;font-family:FreeSans;-inkscape-font-specification:'FreeSans Semi-Bold';stroke-width:0.125767"
         d="m -103.3338,79.85243 v 3.0385 h -0.7546 v -3.0385 h -1.11177 v -0.628829 h 2.93789 v 0.628829 z" />
      <path
         id="path36"
         style="font-style:normal;font-variant:normal;font-weight:600;font-stretch:normal;font-family:FreeSans;-inkscape-font-specification:'FreeSans Semi-Bold';stroke-width:0.125767"
         d="m -100.56932,80.129114 q 0.638894,0 0.991038,0.387359 0.357174,0.382328 0.357174,1.071524 0,0.653982 -0.362205,1.03631 -0.362205,0.382328 -0.980977,0.382328 -0.62882,0 -0.986,-0.382328 -0.35717,-0.387359 -0.35717,-1.056433 0,-0.669073 0.35717,-1.051401 0.35718,-0.387359 0.98097,-0.387359 z m 0.005,0.568461 q -0.28674,0 -0.46281,0.241471 -0.17608,0.24147 -0.17608,0.628828 0,0.387359 0.17608,0.628829 0.17607,0.24147 0.46281,0.24147 0.28172,0 0.45779,-0.236439 0.181104,-0.24147 0.181104,-0.623798 0,-0.402451 -0.176074,-0.63889 -0.17104,-0.241471 -0.46282,-0.241471 z" />
      <path
         id="path38"
         style="font-style:normal;font-variant:normal;font-weight:600;font-stretch:normal;font-family:FreeSans;-inkscape-font-specification:'FreeSans Semi-Bold';stroke-width:0.125767"
         d="m -96.266713,82.89093 h -0.704288 v -0.32196 q -0.291777,0.437665 -0.814963,0.437665 -0.432634,0 -0.674104,-0.246501 -0.23644,-0.246501 -0.23644,-0.694227 V 80.17439 h 0.704289 v 1.745629 q 0,0.487971 0.452756,0.487971 0.256562,0 0.412512,-0.145889 0.15595,-0.145888 0.15595,-0.387358 V 80.17439 h 0.704288 z" />
      <path
         id="path40"
         style="font-style:normal;font-variant:normal;font-weight:600;font-stretch:normal;font-family:FreeSans;-inkscape-font-specification:'FreeSans Semi-Bold';stroke-width:0.125767"
         d="m -94.459302,80.697575 q -0.573491,0 -0.573491,0.890422 0,0.39742 0.150919,0.623798 0.155949,0.226378 0.422572,0.226378 0.206256,0 0.321961,-0.110673 0.115704,-0.115705 0.181102,-0.377298 h 0.674105 q -0.05031,0.487971 -0.372267,0.774717 -0.316929,0.281716 -0.809931,0.281716 -0.603676,0 -0.940728,-0.372267 -0.332022,-0.372267 -0.332022,-1.046371 0,-0.694227 0.337053,-1.076555 0.337052,-0.382328 0.945758,-0.382328 0.508094,0 0.819993,0.281716 0.316929,0.281715 0.352144,0.779747 h -0.674105 q -0.06037,-0.266623 -0.176072,-0.377297 -0.110673,-0.115705 -0.326991,-0.115705 z" />
      <path
         id="path42"
         style="font-style:normal;font-variant:normal;font-weight:600;font-stretch:normal;font-family:FreeSans;-inkscape-font-specification:'FreeSans Semi-Bold';stroke-width:0.125767"
         d="m -91.121008,81.230822 q 0,-0.503063 -0.432634,-0.503063 -0.23644,0 -0.392389,0.150919 -0.150919,0.150919 -0.150919,0.382328 v 1.629924 h -0.704288 v -3.667329 h 0.704288 v 1.343178 q 0.291777,-0.437665 0.79484,-0.437665 0.16098,0 0.301837,0.04528 0.145889,0.04024 0.281716,0.140858 0.140857,0.09558 0.221347,0.291776 0.08049,0.196195 0.08049,0.462818 v 1.821088 h -0.704288 z" />
      <path
         id="path44"
         style="font-style:normal;font-variant:normal;font-weight:600;font-stretch:normal;font-family:FreeSans;-inkscape-font-specification:'FreeSans Semi-Bold';stroke-width:0.125767"
         d="m -89.060886,79.223601 v 3.667329 h -0.704288 v -3.667329 z" />
      <path
         id="path46"
         style="font-style:normal;font-variant:normal;font-weight:600;font-stretch:normal;font-family:FreeSans;-inkscape-font-specification:'FreeSans Semi-Bold';stroke-width:0.125767"
         d="m -87.277371,80.129114 q 0.176072,0 0.342083,0.04024 0.166011,0.04024 0.337052,0.145889 0.176072,0.105643 0.301838,0.271654 0.130796,0.16098 0.211286,0.432634 0.08049,0.266623 0.08049,0.613737 0,0.06037 -0.005,0.120735 h -1.821088 q 0.005,0.155949 0.02515,0.271654 0.02515,0.110674 0.08049,0.221348 0.06037,0.105643 0.171041,0.16601 0.115705,0.05534 0.286746,0.05534 0.402451,0 0.538278,-0.342083 h 0.694227 q -0.115705,0.402451 -0.457788,0.643921 -0.342083,0.23644 -0.79987,0.23644 -0.578522,0 -0.910544,-0.372267 -0.332022,-0.377297 -0.332022,-1.031279 0,-0.684166 0.337053,-1.076555 0.337052,-0.39742 0.920605,-0.39742 z m 0.538277,1.157045 q -0.02515,-0.296807 -0.16601,-0.457787 -0.135827,-0.16098 -0.382328,-0.16098 -0.462818,0 -0.533247,0.618767 z" />
      <path
         id="path48"
         style="font-style:normal;font-variant:normal;font-weight:600;font-stretch:normal;font-family:FreeSans;-inkscape-font-specification:'FreeSans Semi-Bold';stroke-width:0.125767"
         d="m -84.958328,82.101121 q 0.03521,0.171042 0.140858,0.261593 0.110674,0.09055 0.412512,0.09055 0.246501,0 0.382328,-0.07043 0.140857,-0.07043 0.140857,-0.196195 0,-0.08049 -0.05534,-0.130796 -0.05031,-0.05031 -0.181102,-0.09055 L -84.958331,81.7037 q -0.005,0 -0.06037,-0.01509 -0.05534,-0.02012 -0.08049,-0.03018 -0.02012,-0.01006 -0.08049,-0.03018 -0.06037,-0.02515 -0.09558,-0.05031 -0.03018,-0.02515 -0.08049,-0.06037 -0.05031,-0.04024 -0.08049,-0.08552 -0.02515,-0.04528 -0.05534,-0.100612 -0.03018,-0.06037 -0.04528,-0.135827 -0.01509,-0.07546 -0.01509,-0.16098 0,-0.417543 0.296807,-0.659013 0.301838,-0.246501 0.819993,-0.246501 0.548339,0 0.860238,0.246501 0.311899,0.24147 0.32196,0.674105 h -0.679135 q -0.005,-0.367236 -0.508094,-0.367236 -0.186133,0 -0.296807,0.07043 -0.110674,0.0654 -0.110674,0.181103 0,0.08049 0.05031,0.125766 0.05031,0.04024 0.196194,0.08552 l 0.890422,0.256562 q 0.533246,0.155949 0.533246,0.684165 0,0.15595 -0.05534,0.306869 -0.05534,0.145888 -0.181103,0.291776 -0.120735,0.145889 -0.367236,0.231409 -0.246501,0.09055 -0.583553,0.09055 -1.252627,0 -1.282811,-0.905514 z" />
      <path
         id="path50"
         style="font-style:normal;font-variant:normal;font-weight:600;font-stretch:normal;font-family:FreeSans;-inkscape-font-specification:'FreeSans Semi-Bold';stroke-width:0.125767"
         d="m -82.158075,82.101121 q 0.03521,0.171042 0.140858,0.261593 0.110674,0.09055 0.412512,0.09055 0.2465,0 0.382328,-0.07043 0.140857,-0.07043 0.140857,-0.196195 0,-0.08049 -0.05534,-0.130796 -0.05031,-0.05031 -0.181102,-0.09055 L -82.158078,81.7037 q -0.005,0 -0.06037,-0.01509 -0.05534,-0.02012 -0.08049,-0.03018 -0.02012,-0.01006 -0.08049,-0.03018 -0.06037,-0.02515 -0.09558,-0.05031 -0.03018,-0.02515 -0.08049,-0.06037 -0.05031,-0.04024 -0.08049,-0.08552 -0.02515,-0.04528 -0.05534,-0.100612 -0.03018,-0.06037 -0.04528,-0.135827 -0.01509,-0.07546 -0.01509,-0.16098 0,-0.417543 0.296807,-0.659013 0.301838,-0.246501 0.819993,-0.246501 0.548339,0 0.860238,0.246501 0.311899,0.24147 0.32196,0.674105 h -0.679135 q -0.005,-0.367236 -0.508094,-0.367236 -0.186133,0 -0.296807,0.07043 -0.110674,0.0654 -0.110674,0.181103 0,0.08049 0.05031,0.125766 0.05031,0.04024 0.196195,0.08552 l 0.890422,0.256562 q 0.533246,0.155949 0.533246,0.684165 0,0.15595 -0.05534,0.306869 -0.05534,0.145888 -0.181102,0.291776 -0.120735,0.145889 -0.367236,0.231409 -0.246501,0.09055 -0.583553,0.09055 -1.252627,0 -1.282811,-0.905514 z" />
      <path
         id="path52"
         style="font-style:normal;font-variant:normal;font-weight:600;font-stretch:normal;font-family:FreeSans;-inkscape-font-specification:'FreeSans Semi-Bold';stroke-width:0.125767"
         d="m -94.486499,87.5996 v 1.579618 h -0.754594 v -3.66733 h 2.575682 v 0.628829 h -1.821088 v 0.830054 h 1.604771 V 87.5996 Z" />
      <path
         id="path54"
         style="font-style:normal;font-variant:normal;font-weight:600;font-stretch:normal;font-family:FreeSans;-inkscape-font-specification:'FreeSans Semi-Bold';stroke-width:0.125767"
         d="m -92.133107,86.462678 h 0.704288 v 0.533246 q 0.110674,-0.276684 0.311899,-0.427603 0.201226,-0.150919 0.442696,-0.150919 0.04528,0 0.08552,0.005 v 0.714349 q -0.125766,-0.02012 -0.221348,-0.02012 -0.618768,0 -0.618768,0.618768 v 1.443791 h -0.704288 z" />
      <path
         id="path56"
         style="font-style:normal;font-variant:normal;font-weight:600;font-stretch:normal;font-family:FreeSans;-inkscape-font-specification:'FreeSans Semi-Bold';stroke-width:0.125767"
         d="m -89.458934,89.294922 q -0.372267,0 -0.598645,-0.221347 -0.226378,-0.226379 -0.226378,-0.593615 0,-0.71938 0.79987,-0.855207 l 0.281715,-0.05031 q 0.01006,0 0.100613,-0.01006 0.09055,-0.01509 0.115704,-0.02012 0.02515,-0.01006 0.09558,-0.02515 0.07546,-0.01509 0.105643,-0.03521 0.03018,-0.02012 0.07043,-0.05031 0.04528,-0.03521 0.06037,-0.07546 0.01509,-0.04528 0.01509,-0.100613 0,-0.271654 -0.407481,-0.271654 -0.261593,0 -0.367236,0.08049 -0.105644,0.08049 -0.130797,0.291777 h -0.679135 q 0.0654,-0.940728 1.162076,-0.940728 1.111769,0 1.111769,0.835084 v 1.50919 q 0,0.186133 0.16098,0.332021 v 0.08552 h -0.764656 q -0.08049,-0.100613 -0.08049,-0.271654 -0.372266,0.387358 -0.825023,0.387358 z m 0.819993,-1.207351 v -0.191164 q -0.09558,0.04528 -0.296807,0.08552 l -0.241471,0.04528 q -0.221347,0.04528 -0.311899,0.130796 -0.09055,0.08552 -0.09055,0.24147 0,0.150919 0.100612,0.24147 0.105644,0.08552 0.281716,0.08552 0.266623,0 0.412511,-0.166011 0.145889,-0.16601 0.145889,-0.472879 z" />
      <path
         id="path58"
         style="font-style:normal;font-variant:normal;font-weight:600;font-stretch:normal;font-family:FreeSans;-inkscape-font-specification:'FreeSans Semi-Bold';stroke-width:0.125767"
         d="m -87.308812,86.462678 h 0.699258 v 0.337052 q 0.176072,-0.206256 0.342083,-0.291777 0.171041,-0.09055 0.40245,-0.09055 0.533247,0 0.739503,0.40245 0.301838,-0.40245 0.794839,-0.40245 0.407481,0 0.63386,0.221348 0.231409,0.221347 0.231409,0.618767 v 1.921701 h -0.704288 v -1.811027 q 0,-0.16098 -0.105644,-0.256562 -0.100612,-0.09558 -0.276684,-0.09558 -0.226379,0 -0.357175,0.140858 -0.125766,0.140857 -0.125766,0.392389 v 1.629924 h -0.704288 v -1.811027 q 0,-0.16098 -0.105643,-0.256562 -0.100613,-0.09558 -0.276685,-0.09558 -0.226378,0 -0.357175,0.140858 -0.125765,0.140857 -0.125765,0.392389 v 1.629924 h -0.704289 z" />
      <path
         id="path60"
         style="font-style:normal;font-variant:normal;font-weight:600;font-stretch:normal;font-family:FreeSans;-inkscape-font-specification:'FreeSans Semi-Bold';stroke-width:0.125767"
         d="m -81.676864,86.417402 q 0.176073,0 0.342083,0.04024 0.166011,0.04024 0.337053,0.145888 0.176072,0.105643 0.301837,0.271654 0.130797,0.16098 0.211287,0.432634 0.08049,0.266624 0.08049,0.613737 0,0.06037 -0.005,0.120735 h -1.821088 q 0.005,0.15595 0.02515,0.271654 0.02515,0.110674 0.08049,0.221348 0.06037,0.105643 0.171042,0.166011 0.115704,0.05534 0.286746,0.05534 0.40245,0 0.538277,-0.342083 h 0.694227 q -0.115704,0.40245 -0.457787,0.643921 -0.342083,0.236439 -0.79987,0.236439 -0.578523,0 -0.910544,-0.372266 -0.332022,-0.377298 -0.332022,-1.031279 0,-0.684166 0.337052,-1.076555 0.337052,-0.39742 0.920605,-0.39742 z m 0.538278,1.157045 q -0.02515,-0.296807 -0.166011,-0.457788 -0.135827,-0.16098 -0.382328,-0.16098 -0.462818,0 -0.533247,0.618768 z" />
    </g>
  </g>
</svg>
